<?xml version="1.0" encoding="UTF-8" standalone="no"?>
<!-- Created with Inkscape (http://www.inkscape.org/) -->

<svg
   width="200mm"
   height="200mm"
   viewBox="0 0 200 200"
   version="1.1"
   id="svg224252"
   inkscape:version="1.2.2 (732a01da63, 2022-12-09)"
   sodipodi:docname="Injection (needle).svg"
   xmlns:inkscape="http://www.inkscape.org/namespaces/inkscape"
   xmlns:sodipodi="http://sodipodi.sourceforge.net/DTD/sodipodi-0.dtd"
   xmlns="http://www.w3.org/2000/svg"
   xmlns:svg="http://www.w3.org/2000/svg">
  <sodipodi:namedview
     id="namedview224254"
     pagecolor="#ffffff"
     bordercolor="#000000"
     borderopacity="0.25"
     inkscape:showpageshadow="2"
     inkscape:pageopacity="0.0"
     inkscape:pagecheckerboard="0"
     inkscape:deskcolor="#d1d1d1"
     inkscape:document-units="mm"
     showgrid="false"
     inkscape:zoom="0.4963834"
     inkscape:cx="56.40801"
     inkscape:cy="406.9435"
     inkscape:window-width="1920"
     inkscape:window-height="986"
     inkscape:window-x="-11"
     inkscape:window-y="-11"
     inkscape:window-maximized="1"
     inkscape:current-layer="layer1" />
  <defs
     id="defs224249">
    <inkscape:path-effect
       effect="spiro"
       id="path-effect21302"
       is_visible="true"
       lpeversion="1" />
    <inkscape:path-effect
       effect="spiro"
       id="path-effect18879"
       is_visible="true"
       lpeversion="1" />
    <inkscape:path-effect
       effect="spiro"
       id="path-effect17419"
       is_visible="true"
       lpeversion="1" />
    <inkscape:path-effect
       effect="spiro"
       id="path-effect13640"
       is_visible="true"
       lpeversion="1" />
    <inkscape:path-effect
       effect="spiro"
       id="path-effect6654"
       is_visible="true"
       lpeversion="1" />
    <inkscape:path-effect
       effect="spiro"
       id="path-effect547"
       is_visible="true"
       lpeversion="1" />
    <inkscape:path-effect
       effect="spiro"
       id="path-effect9245"
       is_visible="true"
       lpeversion="1" />
    <inkscape:path-effect
       effect="spiro"
       id="path-effect14210"
       is_visible="true"
       lpeversion="1" />
    <inkscape:path-effect
       effect="spiro"
       id="path-effect13044"
       is_visible="true"
       lpeversion="1" />
    <inkscape:path-effect
       effect="spiro"
       id="path-effect12924"
       is_visible="true"
       lpeversion="1" />
    <inkscape:path-effect
       effect="spiro"
       id="path-effect12812"
       is_visible="true"
       lpeversion="1" />
    <inkscape:path-effect
       effect="spiro"
       id="path-effect12646"
       is_visible="true"
       lpeversion="1" />
    <inkscape:path-effect
       effect="spiro"
       id="path-effect12482"
       is_visible="true"
       lpeversion="1" />
    <inkscape:path-effect
       effect="spiro"
       id="path-effect12217"
       is_visible="true"
       lpeversion="1" />
    <inkscape:path-effect
       effect="spiro"
       id="path-effect11433"
       is_visible="true"
       lpeversion="1" />
    <inkscape:path-effect
       effect="spiro"
       id="path-effect11375"
       is_visible="true"
       lpeversion="1" />
    <inkscape:path-effect
       effect="spiro"
       id="path-effect10968"
       is_visible="true"
       lpeversion="1" />
    <inkscape:path-effect
       effect="spiro"
       id="path-effect10964"
       is_visible="true"
       lpeversion="1" />
    <inkscape:path-effect
       effect="spiro"
       id="path-effect10960"
       is_visible="true"
       lpeversion="1" />
    <inkscape:path-effect
       effect="spiro"
       id="path-effect10956"
       is_visible="true"
       lpeversion="1" />
    <inkscape:path-effect
       effect="spiro"
       id="path-effect10790"
       is_visible="true"
       lpeversion="1" />
    <inkscape:path-effect
       effect="spiro"
       id="path-effect10084"
       is_visible="true"
       lpeversion="1" />
    <inkscape:path-effect
       effect="spiro"
       id="path-effect10067"
       is_visible="true"
       lpeversion="1" />
    <inkscape:path-effect
       effect="spiro"
       id="path-effect10063"
       is_visible="true"
       lpeversion="1" />
    <inkscape:path-effect
       effect="spiro"
       id="path-effect10059"
       is_visible="true"
       lpeversion="1" />
    <inkscape:path-effect
       effect="spiro"
       id="path-effect9893"
       is_visible="true"
       lpeversion="1" />
    <inkscape:path-effect
       effect="spiro"
       id="path-effect7267"
       is_visible="true"
       lpeversion="1" />
    <inkscape:path-effect
       effect="spiro"
       id="path-effect6643"
       is_visible="true"
       lpeversion="1" />
    <inkscape:path-effect
       effect="spiro"
       id="path-effect4875"
       is_visible="true"
       lpeversion="1" />
    <inkscape:path-effect
       effect="spiro"
       id="path-effect4331"
       is_visible="true"
       lpeversion="1" />
    <inkscape:path-effect
       effect="spiro"
       id="path-effect239872"
       is_visible="true"
       lpeversion="1" />
    <inkscape:path-effect
       effect="spiro"
       id="path-effect239868"
       is_visible="true"
       lpeversion="1" />
    <inkscape:path-effect
       effect="spiro"
       id="path-effect239864"
       is_visible="true"
       lpeversion="1" />
    <inkscape:path-effect
       effect="spiro"
       id="path-effect239860"
       is_visible="true"
       lpeversion="1" />
    <inkscape:path-effect
       effect="spiro"
       id="path-effect239856"
       is_visible="true"
       lpeversion="1" />
    <inkscape:path-effect
       effect="spiro"
       id="path-effect239852"
       is_visible="true"
       lpeversion="1" />
    <inkscape:path-effect
       effect="spiro"
       id="path-effect239848"
       is_visible="true"
       lpeversion="1" />
    <inkscape:path-effect
       effect="spiro"
       id="path-effect239844"
       is_visible="true"
       lpeversion="1" />
    <inkscape:path-effect
       effect="spiro"
       id="path-effect239746"
       is_visible="true"
       lpeversion="1" />
    <inkscape:path-effect
       effect="spiro"
       id="path-effect239546"
       is_visible="true"
       lpeversion="1" />
    <inkscape:path-effect
       effect="spiro"
       id="path-effect239434"
       is_visible="true"
       lpeversion="1" />
    <inkscape:path-effect
       effect="spiro"
       id="path-effect239430"
       is_visible="true"
       lpeversion="1" />
    <inkscape:path-effect
       effect="spiro"
       id="path-effect239219"
       is_visible="true"
       lpeversion="1" />
    <inkscape:path-effect
       effect="spiro"
       id="path-effect239030"
       is_visible="true"
       lpeversion="1" />
    <inkscape:path-effect
       effect="spiro"
       id="path-effect238687"
       is_visible="true"
       lpeversion="1" />
    <inkscape:path-effect
       effect="spiro"
       id="path-effect238683"
       is_visible="true"
       lpeversion="1" />
    <inkscape:path-effect
       effect="spiro"
       id="path-effect238625"
       is_visible="true"
       lpeversion="1" />
    <inkscape:path-effect
       effect="spiro"
       id="path-effect238621"
       is_visible="true"
       lpeversion="1" />
    <inkscape:path-effect
       effect="spiro"
       id="path-effect238617"
       is_visible="true"
       lpeversion="1" />
    <inkscape:path-effect
       effect="spiro"
       id="path-effect238559"
       is_visible="true"
       lpeversion="1" />
    <inkscape:path-effect
       effect="spiro"
       id="path-effect237829"
       is_visible="true"
       lpeversion="1" />
    <inkscape:path-effect
       effect="spiro"
       id="path-effect237702"
       is_visible="true"
       lpeversion="1" />
    <inkscape:path-effect
       effect="spiro"
       id="path-effect234363"
       is_visible="true"
       lpeversion="1" />
    <inkscape:path-effect
       effect="spiro"
       id="path-effect233711"
       is_visible="true"
       lpeversion="1" />
    <inkscape:path-effect
       effect="spiro"
       id="path-effect233596"
       is_visible="true"
       lpeversion="1" />
    <inkscape:path-effect
       effect="spiro"
       id="path-effect233592"
       is_visible="true"
       lpeversion="1" />
    <inkscape:path-effect
       effect="spiro"
       id="path-effect233264"
       is_visible="true"
       lpeversion="1" />
    <inkscape:path-effect
       effect="spiro"
       id="path-effect233196"
       is_visible="true"
       lpeversion="1" />
    <inkscape:path-effect
       effect="spiro"
       id="path-effect233192"
       is_visible="true"
       lpeversion="1" />
    <inkscape:path-effect
       effect="spiro"
       id="path-effect233134"
       is_visible="true"
       lpeversion="1" />
    <inkscape:path-effect
       effect="spiro"
       id="path-effect232968"
       is_visible="true"
       lpeversion="1" />
    <inkscape:path-effect
       effect="spiro"
       id="path-effect232184"
       is_visible="true"
       lpeversion="1" />
    <inkscape:path-effect
       effect="spiro"
       id="path-effect232126"
       is_visible="true"
       lpeversion="1" />
    <inkscape:path-effect
       effect="spiro"
       id="path-effect232068"
       is_visible="true"
       lpeversion="1" />
    <inkscape:path-effect
       effect="spiro"
       id="path-effect231284"
       is_visible="true"
       lpeversion="1" />
    <inkscape:path-effect
       effect="spiro"
       id="path-effect231280"
       is_visible="true"
       lpeversion="1" />
    <inkscape:path-effect
       effect="spiro"
       id="path-effect231276"
       is_visible="true"
       lpeversion="1" />
    <inkscape:path-effect
       effect="spiro"
       id="path-effect231272"
       is_visible="true"
       lpeversion="1" />
    <inkscape:path-effect
       effect="spiro"
       id="path-effect231268"
       is_visible="true"
       lpeversion="1" />
    <inkscape:path-effect
       effect="spiro"
       id="path-effect230909"
       is_visible="true"
       lpeversion="1" />
    <inkscape:path-effect
       effect="spiro"
       id="path-effect233134-9"
       is_visible="true"
       lpeversion="1" />
    <inkscape:path-effect
       effect="spiro"
       id="path-effect233192-6"
       is_visible="true"
       lpeversion="1" />
    <inkscape:path-effect
       effect="spiro"
       id="path-effect233196-2"
       is_visible="true"
       lpeversion="1" />
    <inkscape:path-effect
       effect="spiro"
       id="path-effect232968-9"
       is_visible="true"
       lpeversion="1" />
    <inkscape:path-effect
       effect="spiro"
       id="path-effect233134-2"
       is_visible="true"
       lpeversion="1" />
    <inkscape:path-effect
       effect="spiro"
       id="path-effect233192-8"
       is_visible="true"
       lpeversion="1" />
    <inkscape:path-effect
       effect="spiro"
       id="path-effect233196-0"
       is_visible="true"
       lpeversion="1" />
    <inkscape:path-effect
       effect="spiro"
       id="path-effect232968-6"
       is_visible="true"
       lpeversion="1" />
    <inkscape:path-effect
       effect="spiro"
       id="path-effect233264-3"
       is_visible="true"
       lpeversion="1" />
    <inkscape:path-effect
       effect="spiro"
       id="path-effect233592-4"
       is_visible="true"
       lpeversion="1" />
    <inkscape:path-effect
       effect="spiro"
       id="path-effect233596-4"
       is_visible="true"
       lpeversion="1" />
    <inkscape:path-effect
       effect="spiro"
       id="path-effect234363-8"
       is_visible="true"
       lpeversion="1" />
    <inkscape:path-effect
       effect="spiro"
       id="path-effect234363-8-1"
       is_visible="true"
       lpeversion="1" />
    <inkscape:path-effect
       effect="spiro"
       id="path-effect239546-7"
       is_visible="true"
       lpeversion="1" />
    <inkscape:path-effect
       effect="spiro"
       id="path-effect239546-6"
       is_visible="true"
       lpeversion="1" />
    <inkscape:path-effect
       effect="spiro"
       id="path-effect239546-3"
       is_visible="true"
       lpeversion="1" />
    <inkscape:path-effect
       effect="spiro"
       id="path-effect239546-3-9"
       is_visible="true"
       lpeversion="1" />
    <inkscape:path-effect
       effect="spiro"
       id="path-effect239546-3-0"
       is_visible="true"
       lpeversion="1" />
    <inkscape:path-effect
       effect="spiro"
       id="path-effect239546-6-0"
       is_visible="true"
       lpeversion="1" />
    <inkscape:path-effect
       effect="spiro"
       id="path-effect239546-6-0-8"
       is_visible="true"
       lpeversion="1" />
    <inkscape:path-effect
       effect="spiro"
       id="path-effect230909-1"
       is_visible="true"
       lpeversion="1" />
    <inkscape:path-effect
       effect="spiro"
       id="path-effect231268-7"
       is_visible="true"
       lpeversion="1" />
    <inkscape:path-effect
       effect="spiro"
       id="path-effect231272-3"
       is_visible="true"
       lpeversion="1" />
    <inkscape:path-effect
       effect="spiro"
       id="path-effect231276-6"
       is_visible="true"
       lpeversion="1" />
    <inkscape:path-effect
       effect="spiro"
       id="path-effect231280-9"
       is_visible="true"
       lpeversion="1" />
    <inkscape:path-effect
       effect="spiro"
       id="path-effect231284-1"
       is_visible="true"
       lpeversion="1" />
    <inkscape:path-effect
       effect="spiro"
       id="path-effect232068-4"
       is_visible="true"
       lpeversion="1" />
    <inkscape:path-effect
       effect="spiro"
       id="path-effect232126-9"
       is_visible="true"
       lpeversion="1" />
    <inkscape:path-effect
       effect="spiro"
       id="path-effect232184-9"
       is_visible="true"
       lpeversion="1" />
    <inkscape:path-effect
       effect="spiro"
       id="path-effect237702-1"
       is_visible="true"
       lpeversion="1" />
    <inkscape:path-effect
       effect="spiro"
       id="path-effect238625-8"
       is_visible="true"
       lpeversion="1" />
    <inkscape:path-effect
       effect="spiro"
       id="path-effect233711-0"
       is_visible="true"
       lpeversion="1" />
    <inkscape:path-effect
       effect="spiro"
       id="path-effect234363-1"
       is_visible="true"
       lpeversion="1" />
    <inkscape:path-effect
       effect="spiro"
       id="path-effect233134-3"
       is_visible="true"
       lpeversion="1" />
    <inkscape:path-effect
       effect="spiro"
       id="path-effect233192-64"
       is_visible="true"
       lpeversion="1" />
    <inkscape:path-effect
       effect="spiro"
       id="path-effect233196-5"
       is_visible="true"
       lpeversion="1" />
    <inkscape:path-effect
       effect="spiro"
       id="path-effect232968-5"
       is_visible="true"
       lpeversion="1" />
    <inkscape:path-effect
       effect="spiro"
       id="path-effect233264-33"
       is_visible="true"
       lpeversion="1" />
    <inkscape:path-effect
       effect="spiro"
       id="path-effect233592-1"
       is_visible="true"
       lpeversion="1" />
    <inkscape:path-effect
       effect="spiro"
       id="path-effect233596-7"
       is_visible="true"
       lpeversion="1" />
    <inkscape:path-effect
       effect="spiro"
       id="path-effect234363-8-0"
       is_visible="true"
       lpeversion="1" />
    <inkscape:path-effect
       effect="spiro"
       id="path-effect234363-8-1-9"
       is_visible="true"
       lpeversion="1" />
    <inkscape:path-effect
       effect="spiro"
       id="path-effect233134-2-8"
       is_visible="true"
       lpeversion="1" />
    <inkscape:path-effect
       effect="spiro"
       id="path-effect233192-8-7"
       is_visible="true"
       lpeversion="1" />
    <inkscape:path-effect
       effect="spiro"
       id="path-effect233196-0-1"
       is_visible="true"
       lpeversion="1" />
    <inkscape:path-effect
       effect="spiro"
       id="path-effect232968-6-8"
       is_visible="true"
       lpeversion="1" />
    <inkscape:path-effect
       effect="spiro"
       id="path-effect233264-3-0"
       is_visible="true"
       lpeversion="1" />
    <inkscape:path-effect
       effect="spiro"
       id="path-effect233592-4-2"
       is_visible="true"
       lpeversion="1" />
    <inkscape:path-effect
       effect="spiro"
       id="path-effect233596-4-2"
       is_visible="true"
       lpeversion="1" />
    <inkscape:path-effect
       effect="spiro"
       id="path-effect237829-2"
       is_visible="true"
       lpeversion="1" />
    <inkscape:path-effect
       effect="spiro"
       id="path-effect238559-9"
       is_visible="true"
       lpeversion="1" />
    <inkscape:path-effect
       effect="spiro"
       id="path-effect238617-9"
       is_visible="true"
       lpeversion="1" />
    <inkscape:path-effect
       effect="spiro"
       id="path-effect238621-9"
       is_visible="true"
       lpeversion="1" />
    <inkscape:path-effect
       effect="spiro"
       id="path-effect238687-7"
       is_visible="true"
       lpeversion="1" />
    <inkscape:path-effect
       effect="spiro"
       id="path-effect239219-4"
       is_visible="true"
       lpeversion="1" />
    <inkscape:path-effect
       effect="spiro"
       id="path-effect239430-4"
       is_visible="true"
       lpeversion="1" />
    <inkscape:path-effect
       effect="spiro"
       id="path-effect239434-4"
       is_visible="true"
       lpeversion="1" />
    <inkscape:path-effect
       effect="spiro"
       id="path-effect239546-79"
       is_visible="true"
       lpeversion="1" />
    <inkscape:path-effect
       effect="spiro"
       id="path-effect239546-7-8"
       is_visible="true"
       lpeversion="1" />
    <inkscape:path-effect
       effect="spiro"
       id="path-effect239546-6-3"
       is_visible="true"
       lpeversion="1" />
    <inkscape:path-effect
       effect="spiro"
       id="path-effect239546-6-0-0"
       is_visible="true"
       lpeversion="1" />
    <inkscape:path-effect
       effect="spiro"
       id="path-effect239546-6-0-8-8"
       is_visible="true"
       lpeversion="1" />
    <inkscape:path-effect
       effect="spiro"
       id="path-effect239546-3-7"
       is_visible="true"
       lpeversion="1" />
    <inkscape:path-effect
       effect="spiro"
       id="path-effect239746-7"
       is_visible="true"
       lpeversion="1" />
    <inkscape:path-effect
       effect="spiro"
       id="path-effect239844-1"
       is_visible="true"
       lpeversion="1" />
    <inkscape:path-effect
       effect="spiro"
       id="path-effect239848-2"
       is_visible="true"
       lpeversion="1" />
    <inkscape:path-effect
       effect="spiro"
       id="path-effect239852-7"
       is_visible="true"
       lpeversion="1" />
    <inkscape:path-effect
       effect="spiro"
       id="path-effect239856-4"
       is_visible="true"
       lpeversion="1" />
    <inkscape:path-effect
       effect="spiro"
       id="path-effect239860-5"
       is_visible="true"
       lpeversion="1" />
    <inkscape:path-effect
       effect="spiro"
       id="path-effect239864-0"
       is_visible="true"
       lpeversion="1" />
    <inkscape:path-effect
       effect="spiro"
       id="path-effect239868-2"
       is_visible="true"
       lpeversion="1" />
    <inkscape:path-effect
       effect="spiro"
       id="path-effect6643-8"
       is_visible="true"
       lpeversion="1" />
    <inkscape:path-effect
       effect="spiro"
       id="path-effect7267-6"
       is_visible="true"
       lpeversion="1" />
    <inkscape:path-effect
       effect="spiro"
       id="path-effect7267-6-3"
       is_visible="true"
       lpeversion="1" />
    <inkscape:path-effect
       effect="spiro"
       id="path-effect4875-8"
       is_visible="true"
       lpeversion="1" />
    <inkscape:path-effect
       effect="spiro"
       id="path-effect4875-8-0"
       is_visible="true"
       lpeversion="1" />
    <inkscape:path-effect
       effect="spiro"
       id="path-effect13044-7"
       is_visible="true"
       lpeversion="1" />
    <inkscape:path-effect
       effect="spiro"
       id="path-effect13044-7-6"
       is_visible="true"
       lpeversion="1" />
    <inkscape:path-effect
       effect="spiro"
       id="path-effect13044-7-6-6"
       is_visible="true"
       lpeversion="1" />
    <inkscape:path-effect
       effect="spiro"
       id="path-effect13044-7-6-4"
       is_visible="true"
       lpeversion="1" />
    <inkscape:path-effect
       effect="spiro"
       id="path-effect13044-7-6-0"
       is_visible="true"
       lpeversion="1" />
    <inkscape:path-effect
       effect="spiro"
       id="path-effect13044-7-6-2"
       is_visible="true"
       lpeversion="1" />
    <inkscape:path-effect
       effect="spiro"
       id="path-effect13044-7-6-28"
       is_visible="true"
       lpeversion="1" />
    <inkscape:path-effect
       effect="spiro"
       id="path-effect13044-7-6-28-9"
       is_visible="true"
       lpeversion="1" />
    <inkscape:path-effect
       effect="spiro"
       id="path-effect14210-1"
       is_visible="true"
       lpeversion="1" />
    <inkscape:path-effect
       effect="spiro"
       id="path-effect14210-1-8"
       is_visible="true"
       lpeversion="1" />
    <inkscape:path-effect
       effect="spiro"
       id="path-effect14210-1-8-6"
       is_visible="true"
       lpeversion="1" />
    <inkscape:path-effect
       effect="spiro"
       id="path-effect14210-1-8-6-2"
       is_visible="true"
       lpeversion="1" />
    <inkscape:path-effect
       effect="spiro"
       id="path-effect14210-1-8-7"
       is_visible="true"
       lpeversion="1" />
    <inkscape:path-effect
       effect="spiro"
       id="path-effect547-1"
       is_visible="true"
       lpeversion="1" />
    <inkscape:path-effect
       effect="spiro"
       id="path-effect18879-5"
       is_visible="true"
       lpeversion="1" />
    <inkscape:path-effect
       effect="spiro"
       id="path-effect18879-8"
       is_visible="true"
       lpeversion="1" />
    <inkscape:path-effect
       effect="spiro"
       id="path-effect18879-1"
       is_visible="true"
       lpeversion="1" />
    <inkscape:path-effect
       effect="spiro"
       id="path-effect18879-3"
       is_visible="true"
       lpeversion="1" />
    <inkscape:path-effect
       effect="spiro"
       id="path-effect18879-4"
       is_visible="true"
       lpeversion="1" />
    <inkscape:path-effect
       effect="spiro"
       id="path-effect18879-38"
       is_visible="true"
       lpeversion="1" />
    <inkscape:path-effect
       effect="spiro"
       id="path-effect21302-3"
       is_visible="true"
       lpeversion="1" />
  </defs>
  <g
     inkscape:label="Layer 1"
     inkscape:groupmode="layer"
     id="layer1">
    <g
       id="g22082"
       transform="matrix(1.6281209,0,0,1.6228354,-13.85398,-63.62504)">
      <rect
         style="fill:#5959c7;fill-opacity:1;stroke:none;stroke-width:1.24533"
         id="rect11107"
         width="4.7112942"
         height="11.495559"
         x="116.70615"
         y="6.9341702"
         ry="0.46918148"
         transform="rotate(35.059288)" />
      <rect
         style="fill:#91cfda;fill-opacity:1;stroke:none;stroke-width:1.5"
         id="rect9620"
         width="13.474298"
         height="16.301081"
         x="-28.155842"
         y="111.0705"
         ry="2.8267767"
         transform="rotate(-55.027266)" />
      <path
         id="rect9622"
         style="fill:#91cfda;fill-opacity:1;stroke:none;stroke-width:1.37429"
         d="m 109.90192,27.430211 c -0.68408,0.4614 -1.13247,1.244034 -1.13247,2.134778 l -1.4e-4,54.731335 c 0,1.42519 1.14741,2.572285 2.5726,2.572285 l 19.19439,3.65e-4 c 1.42519,0 2.57249,-1.147627 2.57249,-2.572817 l 3.7e-4,-21.554076 -0.0505,0.09411 -0.55169,-34.927938 c -0.47118,-0.560551 -1.17761,-0.916432 -1.97052,-0.916432 l -19.1945,3.54e-4 c -0.53445,0 -1.02957,0.161199 -1.44002,0.438039 z"
         transform="matrix(0.82443741,0.56595315,-0.59531513,0.80349231,0,0)" />
      <rect
         style="fill:#f9ef62;fill-opacity:1;stroke:none;stroke-width:1.5"
         id="rect21177"
         width="24.277359"
         height="30.953459"
         x="107.71859"
         y="24.463482"
         ry="1.8892835"
         transform="rotate(35.44074)" />
      <rect
         style="fill:#91cfda;fill-opacity:1;stroke:none;stroke-width:1.26634"
         id="rect2924"
         width="17.268074"
         height="8.5221014"
         x="-91.087494"
         y="117.8243"
         transform="matrix(0.61150126,-0.79124346,0.77373203,0.63351302,0,0)" />
      <path
         style="fill:#5959c7;fill-opacity:1;stroke:none;stroke-width:0.703759"
         d="m 36.705999,152.67003 c -1.70415,-1.14995 -3.333169,-2.41123 -4.873226,-3.77312 -1.203741,-1.06448 -2.35224,-2.18947 -3.517671,-3.29576 -0.261834,-0.24855 -0.526032,-0.49783 -0.741122,-0.78778 -0.21509,-0.28995 -0.380627,-0.62596 -0.418325,-0.985 -0.04838,-0.4608 0.12953,-0.94149 0.471129,-1.25453 0.248983,-0.22817 0.573309,-0.36454 0.906296,-0.42086 0.332987,-0.0563 0.675212,-0.0361 1.008128,0.0207 0.845398,0.14408 1.632925,0.5176 2.393029,0.91471 4.043272,2.11239 7.629003,4.98459 11.281427,7.71773 1.017311,0.76126 2.045756,1.5164 2.949259,2.40978 0.903503,0.89338 1.684713,1.93834 2.110288,3.13556 0.1239,0.34855 0.217565,0.72522 0.136744,1.0862 -0.06868,0.30675 -0.261924,0.57806 -0.510258,0.77079 -0.248334,0.19273 -0.549001,0.31065 -0.857187,0.37258 -0.541945,0.10891 -1.108192,0.0494 -1.638873,-0.10537 -0.530681,-0.15474 -1.029751,-0.40196 -1.512558,-0.67115 -1.18105,-0.6585 -2.279788,-1.4534 -3.368118,-2.25592 -1.283029,-0.94609 -2.55611,-1.90566 -3.818962,-2.87852 z"
         id="path545"
         inkscape:path-effect="#path-effect547"
         inkscape:original-d="m 36.705999,152.67003 c -2.187778,-1.54344 -2.639598,-2.22946 -4.873226,-3.77312 -2.233631,-1.54367 -2.309625,-2.47624 -3.517671,-3.29576 -1.208047,-0.81953 -0.976985,-1.44871 -1.159447,-1.77278 -0.182462,-0.32408 0.471264,-0.93047 0.471129,-1.25453 -1.36e-4,-0.32409 1.276418,-0.26669 1.914424,-0.4002 0.638006,-0.1335 1.595488,0.60991 2.393029,0.91471 0.797542,0.30478 7.521087,5.14527 11.281427,7.71773 3.760338,2.57246 3.373166,3.69701 5.059547,5.54534 1.686381,1.84833 0.0913,0.72425 0.136744,1.0862 0.04544,0.36194 -0.911493,0.76236 -1.367445,1.14337 -0.455951,0.381 -2.399199,-0.37623 -3.151431,-0.77652 -0.752231,-0.40029 -2.137282,-1.26488 -3.368118,-2.25592 -1.230837,-0.99104 -2.952779,-1.94466 -3.818962,-2.87852 z"
         sodipodi:nodetypes="cssssssssssssc" />
      <path
         style="fill:#5959c7;fill-opacity:1;stroke:none;stroke-width:0.908758"
         d="m 47.170633,139.47445 c -2.224499,-1.53522 -4.33829,-3.23082 -6.319537,-5.06929 -1.531956,-1.42155 -2.983769,-2.9274 -4.510864,-4.35418 -0.335939,-0.31387 -0.677876,-0.62654 -0.948808,-0.99797 -0.270932,-0.37144 -0.469333,-0.8113 -0.477046,-1.27098 -0.0048,-0.28707 0.0657,-0.57443 0.198007,-0.82924 0.132305,-0.25482 0.325745,-0.47693 0.556729,-0.64746 0.369406,-0.27273 0.827411,-0.40956 1.285504,-0.44105 0.458093,-0.0315 0.918081,0.0376 1.364248,0.14609 1.124223,0.27344 2.172066,0.79359 3.186548,1.34989 5.290451,2.90107 9.910439,6.85674 14.719912,10.5001 1.308319,0.9911 2.63867,1.96554 3.795483,3.12991 1.156813,1.16437 2.143658,2.54015 2.621121,4.1105 0.06576,0.21629 0.121862,0.43656 0.144762,0.66146 0.0229,0.22491 0.01183,0.45536 -0.05448,0.67148 -0.121281,0.39524 -0.423527,0.71948 -0.783206,0.92333 -0.359678,0.20386 -0.773482,0.29616 -1.185614,0.32889 -1.490981,0.11841 -2.93984,-0.50873 -4.234445,-1.25776 -1.549938,-0.89676 -2.98026,-1.98368 -4.398976,-3.07626 -1.662547,-1.28036 -3.315718,-2.57289 -4.959336,-3.87746 z"
         id="path545-0"
         inkscape:path-effect="#path-effect547-1"
         inkscape:original-d="m 47.170633,139.47445 c -2.850443,-2.09305 -3.406505,-2.97139 -6.319537,-5.06929 -2.913036,-2.09791 -2.934003,-3.23819 -4.510864,-4.35418 -1.576863,-1.11599 -1.205473,-1.85711 -1.425854,-2.26895 -0.220383,-0.41183 0.726147,-1.08308 0.754736,-1.4767 0.02859,-0.39365 1.766677,-0.19649 2.649752,-0.29496 0.883075,-0.0985 2.124541,0.90006 3.186548,1.34989 1.062011,0.44979 9.81345,7.00022 14.719912,10.5001 4.90646,3.49988 4.277909,4.8271 6.416604,7.24041 2.138694,2.41332 0.06036,0.88878 0.09028,1.33294 0.02991,0.44414 -1.312371,0.83496 -1.96882,1.25222 -0.656448,0.41724 -3.242787,-0.69648 -4.234445,-1.25776 -0.991656,-0.56128 -2.806223,-1.74967 -4.398976,-3.07626 -1.592754,-1.32658 -3.859452,-2.65674 -4.959336,-3.87746 z"
         sodipodi:nodetypes="cssssssssssssc" />
      <rect
         style="fill:#5959c7;fill-opacity:1;stroke:none;stroke-width:1.27459"
         id="rect14370"
         width="0.94225883"
         height="41.365166"
         x="118.61214"
         y="-29.793705"
         ry="0.33876756"
         transform="rotate(34.885441)" />
      <path
         id="path17417"
         style="fill:#5959c7;fill-opacity:1;stroke:none;stroke-width:1.5"
         d="m 56.959314,105.7212 -3.156397,4.42867 19.325953,14.50609 3.33468,-4.65295 z" />
      <path
         style="fill:#5959c7;fill-opacity:1;stroke:none;stroke-width:1.5"
         d="m 49.036694,118.3481 c 1.862922,1.49199 3.893982,2.75894 5.822241,4.16547 0.126896,0.0926 0.254076,0.18618 0.394218,0.25711 0.140142,0.0709 0.295291,0.11871 0.452258,0.11311 0.11303,-0.004 0.225005,-0.0361 0.322823,-0.0929 0.09782,-0.0568 0.181266,-0.1382 0.240085,-0.2348 0.09261,-0.1521 0.12177,-0.33848 0.09636,-0.51474 -0.0254,-0.17625 -0.102971,-0.34256 -0.208334,-0.48612 -0.210724,-0.28712 -0.522678,-0.47974 -0.824813,-0.66831 -1.6207,-1.01153 -3.184663,-2.11134 -4.726211,-3.23983 -0.239271,-0.17516 -0.480304,-0.35237 -0.750734,-0.47402 -0.27043,-0.12165 -0.57636,-0.18501 -0.865959,-0.12126 -0.08183,0.018 -0.161953,0.0462 -0.233774,0.0893 -0.07182,0.0432 -0.135212,0.10176 -0.178252,0.17365 -0.05311,0.0887 -0.07338,0.19514 -0.06504,0.29819 0.0083,0.10304 0.04427,0.20276 0.09623,0.29214 0.103916,0.17875 0.267512,0.31371 0.4289,0.44296 z"
         id="path18877"
         inkscape:path-effect="#path-effect18879"
         inkscape:original-d="m 49.036694,118.3481 c -0.03429,0.29412 3.630732,2.758 5.822241,4.16547 2.191512,1.40748 0.628307,0.21619 0.846476,0.37022 0.218166,0.15402 0.413658,-0.26598 0.562908,-0.32768 0.149242,-0.0617 -0.619369,-1.03408 -0.936782,-1.66917 -0.317414,-0.63508 -3.243317,-2.17689 -4.726211,-3.23983 -1.482894,-1.06296 -1.054489,-0.3676 -1.616693,-0.59528 -0.562201,-0.22767 -0.247558,0.13304 -0.412026,0.26298 -0.164464,0.12995 0.494374,0.73917 0.460087,1.03329 z"
         sodipodi:nodetypes="ssscsssss" />
      <path
         style="fill:#5959c7;fill-opacity:1;stroke:none;stroke-width:1.5"
         d="m 52.141255,114.2434 c 1.862922,1.49199 3.893982,2.75894 5.822241,4.16547 0.126896,0.0926 0.254076,0.18618 0.394218,0.25711 0.140142,0.0709 0.295291,0.11871 0.452258,0.11311 0.11303,-0.004 0.225005,-0.0361 0.322823,-0.0929 0.09782,-0.0568 0.181266,-0.1382 0.240085,-0.2348 0.09261,-0.1521 0.12177,-0.33848 0.09636,-0.51474 -0.0254,-0.17625 -0.102971,-0.34256 -0.208334,-0.48612 -0.210724,-0.28712 -0.522678,-0.47974 -0.824813,-0.66831 -1.6207,-1.01153 -3.184663,-2.11134 -4.726211,-3.23983 -0.239271,-0.17516 -0.480304,-0.35237 -0.750734,-0.47402 -0.27043,-0.12165 -0.57636,-0.18501 -0.865959,-0.12126 -0.08183,0.018 -0.161953,0.0462 -0.233774,0.0893 -0.07182,0.0432 -0.135212,0.10176 -0.178252,0.17365 -0.05311,0.0887 -0.07338,0.19514 -0.06504,0.29819 0.0083,0.10304 0.04427,0.20276 0.09623,0.29214 0.103916,0.17875 0.267512,0.31371 0.4289,0.44296 z"
         id="path18877-4"
         inkscape:path-effect="#path-effect18879-5"
         inkscape:original-d="m 52.141255,114.2434 c -0.03429,0.29412 3.630732,2.75799 5.822241,4.16547 2.191512,1.40748 0.628307,0.21618 0.846476,0.37022 0.218166,0.15402 0.413658,-0.26598 0.562908,-0.32768 0.149242,-0.0617 -0.619369,-1.03408 -0.936782,-1.66917 -0.317414,-0.63508 -3.243317,-2.17689 -4.726211,-3.23983 -1.482894,-1.06296 -1.054489,-0.3676 -1.616693,-0.59528 -0.562201,-0.22767 -0.247558,0.13304 -0.412026,0.26298 -0.164464,0.12995 0.494374,0.73917 0.460087,1.03329 z"
         sodipodi:nodetypes="ssscsssss" />
      <path
         style="fill:#5959c7;fill-opacity:1;stroke:none;stroke-width:1.5"
         d="m 59.726439,103.97277 c 1.862922,1.49199 3.893982,2.75894 5.822241,4.16547 0.126896,0.0926 0.254076,0.18618 0.394218,0.25711 0.140142,0.0709 0.295291,0.11871 0.452258,0.11311 0.11303,-0.004 0.225005,-0.0361 0.322823,-0.0929 0.09782,-0.0568 0.181266,-0.1382 0.240085,-0.2348 0.09261,-0.1521 0.12177,-0.33848 0.09637,-0.51474 -0.0254,-0.17625 -0.102971,-0.34256 -0.208334,-0.48612 -0.210724,-0.28712 -0.522678,-0.47974 -0.824813,-0.66831 -1.6207,-1.01153 -3.184663,-2.11134 -4.726211,-3.23983 -0.239271,-0.17516 -0.480304,-0.35237 -0.750734,-0.47402 -0.27043,-0.12165 -0.57636,-0.18501 -0.865959,-0.12126 -0.08183,0.018 -0.161953,0.0462 -0.233774,0.0893 -0.07182,0.0432 -0.135212,0.10176 -0.178252,0.17365 -0.0531,0.0887 -0.07338,0.19514 -0.06504,0.29819 0.0083,0.10304 0.04427,0.20276 0.09623,0.29214 0.103916,0.17875 0.267512,0.31371 0.4289,0.44296 z"
         id="path18877-9"
         inkscape:path-effect="#path-effect18879-8"
         inkscape:original-d="m 59.726439,103.97277 c -0.03429,0.29412 3.630732,2.758 5.822241,4.16547 2.191512,1.40748 0.628307,0.21619 0.846476,0.37022 0.218166,0.15402 0.413658,-0.26598 0.562908,-0.32768 0.149242,-0.0617 -0.619369,-1.03408 -0.936782,-1.66917 -0.317414,-0.63508 -3.243317,-2.17689 -4.726211,-3.23983 -1.482894,-1.06296 -1.054489,-0.3676 -1.616693,-0.59528 -0.562201,-0.22767 -0.247558,0.13304 -0.412026,0.26298 -0.164464,0.12995 0.494374,0.73917 0.460087,1.03329 z"
         sodipodi:nodetypes="ssscsssss" />
      <path
         style="fill:#5959c7;fill-opacity:1;stroke:none;stroke-width:1.5"
         d="m 62.458989,100.01529 c 1.862919,1.49199 3.893982,2.75894 5.822241,4.16547 0.126896,0.0926 0.254077,0.18618 0.394218,0.25711 0.140142,0.0709 0.295291,0.11871 0.452258,0.11311 0.11303,-0.004 0.225005,-0.0361 0.322823,-0.0929 0.09782,-0.0568 0.181266,-0.1382 0.240085,-0.2348 0.09261,-0.1521 0.12177,-0.33848 0.09637,-0.51474 -0.02541,-0.17625 -0.102971,-0.34256 -0.208334,-0.48612 -0.210724,-0.28712 -0.522678,-0.47974 -0.824813,-0.66831 -1.620701,-1.01153 -3.184662,-2.11134 -4.726211,-3.239836 -0.239271,-0.175159 -0.480304,-0.352369 -0.750734,-0.474019 -0.27043,-0.12165 -0.57636,-0.185007 -0.865959,-0.121261 -0.08183,0.01801 -0.161953,0.04618 -0.233774,0.08933 -0.07182,0.04315 -0.135212,0.101757 -0.178252,0.173647 -0.05311,0.0887 -0.07338,0.19514 -0.06504,0.298188 0.0083,0.103047 0.04427,0.202762 0.09623,0.292141 0.103916,0.178758 0.267513,0.313713 0.428901,0.442967 z"
         id="path18877-6"
         inkscape:path-effect="#path-effect18879-1"
         inkscape:original-d="m 62.458989,100.01529 c -0.03429,0.29412 3.630732,2.75799 5.822241,4.16547 2.191512,1.40748 0.628307,0.21618 0.846476,0.37022 0.218166,0.15402 0.413658,-0.26598 0.562908,-0.32768 0.149242,-0.0617 -0.619369,-1.03409 -0.936782,-1.66917 -0.317414,-0.63508 -3.243317,-2.17689 -4.726211,-3.239836 -1.482894,-1.06296 -1.054489,-0.3676 -1.616693,-0.59528 -0.562201,-0.22767 -0.247558,0.13304 -0.412026,0.26298 -0.164464,0.12995 0.494374,0.739175 0.460087,1.033296 z"
         sodipodi:nodetypes="ssscsssss" />
      <path
         style="fill:#5959c7;fill-opacity:1;stroke:none;stroke-width:1.5"
         d="m 65.332879,96.293361 c 1.862922,1.49199 3.893982,2.758938 5.822241,4.165469 0.126896,0.0926 0.254076,0.18618 0.394218,0.25711 0.140142,0.0709 0.295291,0.11871 0.452258,0.11311 0.11303,-0.004 0.225005,-0.0361 0.322823,-0.0929 0.09782,-0.0568 0.181266,-0.1382 0.240085,-0.2348 0.09261,-0.1521 0.12177,-0.33848 0.09637,-0.514735 -0.02541,-0.176255 -0.102971,-0.342564 -0.208334,-0.486126 -0.210724,-0.287123 -0.522678,-0.479737 -0.824813,-0.668309 -1.6207,-1.011531 -3.184663,-2.111339 -4.726211,-3.239829 -0.239271,-0.175158 -0.480304,-0.352368 -0.750734,-0.474019 -0.27043,-0.12165 -0.57636,-0.185006 -0.865959,-0.121261 -0.08183,0.01801 -0.161953,0.04618 -0.233774,0.08933 -0.07182,0.04315 -0.135212,0.101758 -0.178252,0.173648 -0.05311,0.0887 -0.07338,0.195139 -0.06504,0.298186 0.0083,0.103047 0.04427,0.202762 0.09623,0.29214 0.103916,0.178757 0.267512,0.313711 0.4289,0.442964 z"
         id="path18877-3"
         inkscape:path-effect="#path-effect18879-3"
         inkscape:original-d="m 65.332879,96.293361 c -0.03429,0.29412 3.630732,2.757999 5.822241,4.165469 2.191512,1.40748 0.628307,0.21619 0.846476,0.37022 0.218166,0.15402 0.413658,-0.26598 0.562908,-0.32768 0.149242,-0.0617 -0.619369,-1.03408 -0.936782,-1.66917 -0.317414,-0.635079 -3.243317,-2.176889 -4.726211,-3.239829 -1.482894,-1.06296 -1.054489,-0.3676 -1.616693,-0.59528 -0.562201,-0.22767 -0.247558,0.13304 -0.412026,0.26298 -0.164464,0.12995 0.494374,0.73917 0.460087,1.03329 z"
         sodipodi:nodetypes="ssscsssss" />
      <path
         style="fill:#5959c7;fill-opacity:1;stroke:none;stroke-width:1.5"
         d="m 68.159655,92.241648 c 1.862922,1.49199 3.893982,2.758938 5.822241,4.16547 0.126896,0.09256 0.254076,0.186181 0.394218,0.257106 0.140142,0.07093 0.295291,0.118717 0.452258,0.113114 0.11303,-0.004 0.225005,-0.03611 0.322823,-0.09288 0.09782,-0.05678 0.181266,-0.138191 0.240085,-0.234796 0.09261,-0.152102 0.12177,-0.33848 0.09637,-0.514735 -0.02541,-0.176255 -0.102971,-0.342564 -0.208334,-0.486126 -0.210724,-0.287123 -0.522678,-0.479737 -0.824813,-0.668309 -1.6207,-1.011531 -3.184663,-2.111339 -4.726211,-3.23983 -0.239271,-0.175158 -0.480304,-0.352368 -0.750734,-0.474019 -0.27043,-0.12165 -0.57636,-0.185006 -0.865959,-0.121261 -0.08183,0.01801 -0.161953,0.04618 -0.233774,0.08933 -0.07182,0.04315 -0.135212,0.101758 -0.178252,0.173648 -0.05311,0.0887 -0.07338,0.195139 -0.06504,0.298186 0.0083,0.103047 0.04427,0.202762 0.09623,0.29214 0.103916,0.178757 0.267512,0.313711 0.4289,0.442964 z"
         id="path18877-0"
         inkscape:path-effect="#path-effect18879-4"
         inkscape:original-d="m 68.159655,92.241648 c -0.03429,0.29412 3.630732,2.758 5.822241,4.16547 2.191512,1.40748 0.628307,0.21619 0.846476,0.37022 0.218166,0.15402 0.413658,-0.26598 0.562908,-0.32768 0.149242,-0.0617 -0.619369,-1.03408 -0.936782,-1.66917 -0.317414,-0.63508 -3.243317,-2.17689 -4.726211,-3.23983 -1.482894,-1.06296 -1.054489,-0.3676 -1.616693,-0.59528 -0.562201,-0.22767 -0.247558,0.13304 -0.412026,0.26298 -0.164464,0.12995 0.494374,0.73917 0.460087,1.03329 z"
         sodipodi:nodetypes="ssscsssss" />
      <path
         style="fill:#5959c7;fill-opacity:1;stroke:none;stroke-width:1.5"
         d="m 71.316223,88.048596 c 1.862922,1.49199 3.893982,2.758938 5.822241,4.16547 0.126896,0.09256 0.254076,0.186181 0.394218,0.257106 0.140142,0.07093 0.295291,0.118717 0.452258,0.113114 0.11303,-0.004 0.225005,-0.03611 0.322823,-0.09288 0.09782,-0.05678 0.181266,-0.138191 0.240085,-0.234796 0.09261,-0.152102 0.12177,-0.33848 0.09636,-0.514735 -0.0254,-0.176255 -0.102971,-0.342564 -0.208334,-0.486126 -0.210724,-0.287123 -0.522678,-0.479737 -0.824813,-0.668309 -1.6207,-1.011531 -3.184663,-2.111339 -4.726211,-3.23983 -0.239271,-0.175158 -0.480304,-0.352368 -0.750734,-0.474019 -0.27043,-0.12165 -0.57636,-0.185006 -0.865959,-0.121261 -0.08183,0.01801 -0.161953,0.04618 -0.233774,0.08933 -0.07182,0.04315 -0.135212,0.101758 -0.178252,0.173648 -0.05311,0.0887 -0.07338,0.195139 -0.06504,0.298186 0.0083,0.103047 0.04427,0.202762 0.09623,0.29214 0.103916,0.178757 0.267512,0.313711 0.4289,0.442964 z"
         id="path18877-46"
         inkscape:path-effect="#path-effect18879-38"
         inkscape:original-d="m 71.316223,88.048596 c -0.03429,0.29412 3.630732,2.758 5.822241,4.16547 2.191512,1.40748 0.628307,0.21619 0.846476,0.37022 0.218166,0.15402 0.413658,-0.26598 0.562908,-0.32768 0.149242,-0.0617 -0.619369,-1.03408 -0.936782,-1.66917 -0.317414,-0.63508 -3.243317,-2.17689 -4.726211,-3.23983 -1.482894,-1.06296 -1.054489,-0.3676 -1.616693,-0.59528 -0.562201,-0.22767 -0.247558,0.13304 -0.412026,0.26298 -0.164464,0.12995 0.494374,0.73917 0.460087,1.03329 z"
         sodipodi:nodetypes="ssscsssss" />
    </g>
  </g>
</svg>
