<svg xmlns="http://www.w3.org/2000/svg" width="1080" height="1080" viewBox="0 0 1080 1080" version="1.1"><path d="M 69.724 404.434 C 65.997 405.749, 60.708 408.262, 57.971 410.018 C 47.075 417.010, 38.249 430.609, 36.044 443.801 C 35.250 448.550, 35.008 484.703, 35.213 568 L 35.502 685.500 37.755 691.419 C 44.175 708.281, 59.098 721.412, 75.799 724.895 C 82.806 726.356, 994.579 726.466, 1003.500 725.007 C 1006.800 724.467, 1012.425 722.595, 1016 720.846 C 1024.386 716.743, 1035.468 705.741, 1039.340 697.674 C 1045.084 685.707, 1044.964 688.527, 1044.975 564.500 C 1044.981 491.130, 1044.618 448.183, 1043.955 444 C 1040.965 425.128, 1026.780 409.163, 1008.068 403.612 C 1003.107 402.139, 962.553 402.002, 539.568 402.021 L 76.500 402.042 69.724 404.434 M 649.012 407.306 C 644.959 408.693, 643.167 411.792, 642.330 418.859 C 641.779 423.514, 641.557 423.816, 637.881 424.918 C 634.948 425.796, 633.488 425.796, 631.847 424.918 C 628.982 423.385, 621.163 424.361, 616.318 426.857 C 609.138 430.555, 604.080 437.142, 600.656 447.250 C 600.093 448.910, 587.983 449, 365.137 449 C 133.469 449, 130.123 449.028, 123.855 450.988 C 109.792 455.388, 99.392 464.372, 92.675 477.924 L 88.500 486.347 88.226 562.914 C 87.961 636.828, 88.020 639.706, 89.934 645.990 C 94.514 661.027, 105.722 672.694, 121.854 679.217 L 127.500 681.500 335.500 682 L 543.500 682.500 543.803 684.625 C 544.030 686.216, 542.961 687.471, 539.546 689.625 C 537.038 691.206, 534.734 693.288, 534.425 694.250 C 533.965 695.689, 532.663 696, 527.092 696 C 523.366 696, 513.496 696.295, 505.159 696.656 L 490 697.312 490 699.815 L 490 702.317 574.750 701.409 C 621.362 700.909, 673.900 700.616, 691.500 700.758 C 823.397 701.822, 1021.419 701.897, 1022.640 700.884 C 1024.554 699.295, 1024.396 693.366, 1022.418 692.607 C 1021.548 692.273, 1018.398 692, 1015.418 692 L 1010 692 1010 643 L 1010 594 1013.345 594 C 1017.045 594, 1020 591.501, 1020 588.371 C 1020 584.642, 1018.062 584, 1006.800 584 L 996 584 995.992 540.750 C 995.988 516.514, 995.539 494.642, 994.971 491 C 992.720 476.563, 982.320 462.132, 969.119 455.128 C 958.639 449.568, 955.058 449.025, 928.817 449.012 C 905.387 449, 905.127 448.977, 904.445 446.826 C 903.155 442.763, 894.653 434.780, 888.500 431.855 C 883.327 429.395, 881.299 429.001, 873.788 429.001 C 859.630 429, 850.722 433.476, 843.884 444.030 L 840.663 449 754.832 449 L 669 449 669 446.077 C 669 444.397, 667.908 441.856, 666.434 440.104 L 663.868 437.055 667.366 433.983 C 671.706 430.173, 675 423.556, 675 418.649 C 675 415.248, 674.635 414.760, 670.750 412.957 C 668.413 411.873, 664.517 409.864, 662.093 408.493 C 657.263 405.761, 654.311 405.493, 649.012 407.306 M 242.426 514.310 C 236.836 519.118, 237.359 535.092, 243.982 561.864 C 250.228 587.111, 258.123 605.414, 264.599 609.657 C 270.102 613.262, 276.869 607.937, 282.561 595.520 C 287.190 585.421, 301.576 540.824, 303.007 532.136 C 305 520.033, 302.807 513, 297.041 513 C 290.921 513, 284.121 524.663, 275.968 549.144 C 273.155 557.590, 270.617 565.175, 270.327 566 C 269.560 568.183, 268.740 565.665, 263.407 544.743 C 256.950 519.411, 253.363 512, 247.556 512 C 246.211 512, 243.903 513.039, 242.426 514.310 M 385.241 513.325 C 383.999 514.015, 382.318 515.529, 381.505 516.690 C 379.562 519.464, 377 529.427, 377 534.210 C 377 536.680, 376.541 538, 375.682 538 C 372.007 538, 363.335 541.511, 360.835 544.011 C 357.358 547.488, 357.275 549.366, 360.455 552.545 C 362.383 554.474, 363.944 555, 367.738 555 L 372.566 555 372.533 577.750 C 372.502 599.132, 372.629 600.741, 374.644 604.500 C 378.800 612.256, 384.116 614.886, 395.782 614.956 C 407.802 615.029, 414 611.471, 414 604.500 C 414 598.469, 411.569 596.536, 404.970 597.317 C 393.865 598.632, 391.431 594.864, 392.350 577.771 C 392.699 571.292, 393.269 563.565, 393.617 560.601 L 394.251 555.211 400.022 554.075 C 407.823 552.541, 412.409 549.373, 412.812 545.241 C 413.252 540.722, 408.691 538.009, 400.643 538.004 C 395.587 538.001, 394.874 537.772, 395.426 536.333 C 396.850 532.621, 397.207 523.158, 396.054 519.665 C 394.882 516.113, 390.837 511.965, 388.615 512.035 C 388.002 512.055, 386.484 512.635, 385.241 513.325 M 326.603 533.477 C 321.498 535.296, 313.535 543.213, 310.486 549.500 C 300.017 571.087, 304.909 597.249, 321.313 607.390 C 330.728 613.211, 341.570 611.510, 352.586 602.483 C 359.737 596.623, 363.046 587.162, 359.171 583.655 C 356.280 581.038, 352.402 581.692, 345.258 586 C 337.587 590.627, 332.776 591.185, 328.635 587.927 C 325.197 585.223, 325.103 582, 328.462 582 C 332.912 582, 341.709 578.008, 346.444 573.840 C 351.718 569.198, 355.764 562, 356.623 555.733 C 358.798 539.864, 342.528 527.801, 326.603 533.477 M 334.284 549.701 C 333.065 549.937, 330.940 551.471, 329.561 553.110 C 326.904 556.267, 324.234 563.567, 325.333 564.667 C 326.278 565.612, 334.029 563.109, 337.250 560.819 C 340.437 558.553, 341.053 553.196, 338.429 550.571 C 337.564 549.707, 336.777 549.061, 336.679 549.136 C 336.580 549.211, 335.503 549.465, 334.284 549.701 M 560 689 L 560 696 565.117 696 C 569.935 696, 570.198 695.869, 569.630 693.750 C 569.299 692.513, 569.021 689.362, 569.014 686.750 L 569 682 564.500 682 L 560 682 560 689 M 713.569 690.923 C 711.275 693.459, 708.450 693.601, 707.080 691.250 C 706.170 689.687, 706.058 689.741, 706.030 691.750 C 706.003 693.757, 706.490 694, 710.531 694 C 713.592 694, 715.246 693.524, 715.626 692.533 C 716.689 689.762, 715.478 688.814, 713.569 690.923" stroke="none" fill="#ffffff" fill-rule="evenodd"/><path d="M 129.500 450.022 C 109.343 454.068, 94.034 468.794, 89.454 488.543 C 88.143 494.194, 87.967 505.508, 88.213 568.314 L 88.500 641.500 91.209 648.260 C 97.035 662.799, 107.126 672.771, 122.033 678.718 C 126.254 680.402, 138.004 680.528, 335.069 681 L 543.638 681.500 540.795 671 C 539.232 665.225, 536.756 656.082, 535.294 650.681 C 533.046 642.379, 532.222 640.649, 529.959 639.479 C 526.995 637.946, 526.051 635.999, 522.933 625 C 520.694 617.102, 519.258 593.077, 520.961 592.024 C 521.432 591.733, 521.590 590.306, 521.312 588.853 C 520.945 586.934, 520.034 586.057, 517.980 585.646 C 512.314 584.513, 509.377 578.992, 508.317 567.479 C 507.440 557.946, 509.445 550.526, 514.353 545.147 C 525.639 532.776, 531.199 529.236, 548.340 523.509 C 558.120 520.242, 562.845 520.441, 564.951 524.209 C 566.317 526.653, 566.288 527.629, 564.660 534.209 C 563.668 538.219, 561.449 544.425, 559.731 548 C 557.503 552.634, 556.657 555.756, 556.787 558.875 C 556.991 563.820, 561.251 574, 563.116 574 C 563.791 574, 565.161 574.741, 566.162 575.647 C 567.886 577.207, 568.093 577.034, 570.069 572.397 C 579.041 551.337, 582.397 546.771, 596.823 536 C 600.138 533.525, 603.097 530.569, 603.399 529.430 C 604.372 525.758, 610.825 520.073, 615.295 518.948 L 619.500 517.890 619.153 512.945 C 618.963 510.225, 618.422 508, 617.952 508 C 617.481 508, 615.510 506.367, 613.572 504.371 C 609.410 500.086, 606.460 492.783, 605.537 484.482 C 605.171 481.192, 603.663 476.025, 602.186 473 C 599.861 468.240, 599.500 466.255, 599.500 458.250 L 599.500 449 366.500 449.110 C 238.350 449.170, 131.700 449.580, 129.500 450.022 M 669.044 451.250 C 669.087 453.458, 669.623 455.060, 673.946 465.889 C 677.182 473.996, 676.424 475.697, 663.833 488.583 L 652.915 499.756 653.208 507.981 L 653.500 516.206 658.164 517.974 C 660.729 518.946, 664.314 520.799, 666.129 522.092 C 667.945 523.385, 670.321 524.579, 671.409 524.745 C 672.497 524.911, 676.787 526.673, 680.943 528.660 C 686.658 531.393, 690.352 534.145, 696.097 539.950 C 703.460 547.389, 716.728 566.175, 724.271 579.840 C 726.219 583.370, 728.069 585.697, 728.444 585.090 C 728.915 584.329, 742.972 584, 775.059 584 L 821 584 821 588.500 L 821 593 776.516 593 L 732.032 593 733.766 596.667 L 735.500 600.334 735.813 597.177 L 736.125 594.021 778.747 593.761 L 821.368 593.500 821.434 553.252 L 821.500 513.003 817.950 513.002 C 813.915 513, 812 511.551, 812 508.500 C 812 504.162, 813.049 504, 841.200 504 L 868 504 868 501.578 C 868 499.661, 867.217 498.902, 864.250 497.941 C 852.946 494.281, 845.810 488.222, 841.355 478.500 C 837.340 469.735, 837.067 459.808, 840.589 450.629 C 841.164 449.132, 834.261 449, 755.107 449 L 669 449 669.044 451.250 M 905.931 450.870 C 907.756 454.282, 908.721 463.847, 907.820 469.597 C 906.926 475.295, 904.384 481.209, 900.668 486.235 C 897.651 490.316, 889.282 495.740, 883.250 497.525 C 878.759 498.853, 878 499.433, 878 501.539 L 878 504 904.929 504 C 928.076 504, 932.078 504.221, 933.429 505.571 C 935.271 507.414, 935.371 508.438, 933.965 511.066 C 933.209 512.479, 931.861 513, 928.965 513 L 925 513 925 548.500 L 925 584 960 584 L 995 584 994.988 538.250 C 994.975 488.739, 994.853 487.381, 989.378 476.131 C 985.863 468.907, 976.270 459.386, 968.270 455.179 C 958.583 450.087, 951.506 449.037, 926.715 449.017 C 905.740 449.001, 904.967 449.070, 905.931 450.870 M 244 512.279 C 237.371 515.591, 236.200 528.527, 240.597 549.885 C 246.199 577.099, 254.652 600.235, 261.738 607.750 C 266.271 612.558, 271.044 612.330, 276.051 607.067 C 281.329 601.518, 284.595 593.955, 293.784 566 C 303.173 537.435, 304.623 531.028, 304.145 520.205 C 303.978 516.422, 300.171 512, 297.080 512 C 290.939 512, 283.282 524.944, 275.489 548.500 C 272.941 556.200, 270.619 563.175, 270.328 564 C 269.559 566.182, 268.823 563.902, 264.031 544.507 C 259.408 525.789, 255.682 516.468, 251.514 513.189 C 248.310 510.670, 247.433 510.563, 244 512.279 M 382.689 514.584 C 379.692 517.581, 377.392 524.081, 376.440 532.250 C 375.814 537.618, 375.594 538.001, 373.135 538.022 C 370.121 538.047, 362.390 541.337, 359.768 543.710 C 358.746 544.635, 358 546.727, 358 548.670 C 358 551.387, 358.621 552.408, 361.250 554.011 C 363.173 555.183, 366.279 555.994, 368.857 555.996 C 372.349 555.999, 373.098 556.303, 372.629 557.524 C 372.307 558.363, 371.751 565.675, 371.393 573.774 C 370.014 604.940, 374.784 614.176, 393.047 615.707 C 405.694 616.767, 415 612.039, 415 604.553 C 415 602.030, 414.254 600.164, 412.576 598.485 C 410.365 596.274, 409.595 596.113, 403.826 596.647 C 398.253 597.163, 397.276 596.984, 395.621 595.145 C 392.752 591.958, 392.144 586.063, 393.249 572.173 C 394.531 556.079, 394.772 555.452, 400.014 554.614 C 402.307 554.247, 405.960 553.041, 408.132 551.933 C 418.586 546.599, 413.650 537, 400.453 537 L 395.841 537 396.559 533.750 C 399.144 522.052, 395.411 512, 388.481 512 C 386.364 512, 384.394 512.879, 382.689 514.584 M 614.500 522.414 C 612.850 523.146, 610.448 524.886, 609.161 526.281 L 606.822 528.818 611.581 526.409 C 614.198 525.084, 617.200 524, 618.253 524 C 619.305 524, 619.989 523.466, 619.771 522.813 C 619.180 521.039, 617.829 520.937, 614.500 522.414 M 329.500 531.935 C 321.736 533.825, 313.663 541.220, 309.445 550.305 C 297.576 575.871, 307.093 606.253, 328.456 611 C 340.292 613.629, 356.278 604.125, 360.944 591.685 C 362.499 587.540, 362.267 586.176, 359.545 583.455 C 356.120 580.029, 353.420 580.365, 345.437 585.209 C 336.683 590.520, 332.016 590.883, 328.282 586.542 L 325.777 583.629 331.740 581.996 C 347.507 577.680, 356.930 566.933, 356.978 553.210 C 357.017 542.168, 350.738 534.396, 339.900 532.072 C 334.380 530.888, 333.830 530.881, 329.500 531.935 M 331.514 552.168 C 328.783 554.316, 326 559.515, 326 562.468 C 326 564.515, 328.594 564.367, 333.749 562.027 C 338.861 559.707, 340.865 556.193, 339.182 552.500 C 337.781 549.425, 335.146 549.311, 331.514 552.168 M 946.318 593.749 C 958.317 593.909, 977.667 593.909, 989.318 593.749 C 1000.968 593.589, 991.150 593.458, 967.500 593.458 C 943.850 593.459, 934.318 593.590, 946.318 593.749 M 879.250 607.739 C 882.413 607.937, 887.587 607.937, 890.750 607.739 C 893.913 607.541, 891.325 607.378, 885 607.378 C 878.675 607.378, 876.087 607.541, 879.250 607.739 M 991.382 619.500 C 991.384 626.100, 991.546 628.670, 991.741 625.211 C 991.937 621.752, 991.936 616.352, 991.738 613.211 C 991.540 610.070, 991.380 612.900, 991.382 619.500 M 767.250 649.747 C 773.712 649.921, 784.288 649.921, 790.750 649.747 C 797.212 649.573, 791.925 649.430, 779 649.430 C 766.075 649.430, 760.788 649.573, 767.250 649.747 M 956.250 649.747 C 962.712 649.921, 973.288 649.921, 979.750 649.747 C 986.212 649.573, 980.925 649.430, 968 649.430 C 955.075 649.430, 949.788 649.573, 956.250 649.747 M 560 673.986 L 560 681 564.625 681 L 569.250 681 568.625 677.875 C 568.281 676.156, 568 674.191, 568 673.508 C 568 672.825, 566.200 671.075, 564 669.619 L 560 666.972 560 673.986 M 854.310 686.500 C 854.315 689.800, 854.502 691.029, 854.725 689.232 C 854.947 687.435, 854.943 684.735, 854.715 683.232 C 854.486 681.729, 854.304 683.200, 854.310 686.500" stroke="none" fill="#efccff" fill-rule="evenodd"/><path d="M 623 447 C 622.175 447.533, 620.299 447.976, 618.832 447.985 C 617.364 447.993, 615.433 448.281, 614.539 448.623 C 611.596 449.753, 606.299 462.773, 609.206 461.733 C 610.788 461.167, 614 462.710, 614 464.035 C 614 464.566, 612.481 465, 610.625 465 C 607.645 465, 607.177 465.366, 606.625 468.125 C 606.281 469.844, 606 472.570, 606 474.184 C 606 475.798, 605.635 476.892, 605.189 476.617 C 603.871 475.802, 606.064 490.070, 608.093 495.506 C 609.915 500.389, 613.951 505.741, 617.199 507.584 C 618.386 508.257, 618.970 510.621, 619.400 516.500 C 619.723 520.900, 620.814 527.425, 621.826 531 C 623.485 536.864, 623.999 537.617, 627.082 538.694 C 631.485 540.231, 643.502 540.231, 647.963 538.694 C 652.509 537.127, 653.032 534.696, 653.046 515.068 C 653.053 504.997, 653.453 499.159, 654.198 498.262 C 655.079 497.200, 655.016 496.957, 653.919 497.194 C 653.039 497.384, 652.388 496.539, 652.205 494.967 C 651.960 492.869, 652.511 492.217, 655.424 491.164 C 659.552 489.671, 663 485.688, 663 482.412 C 663 476.899, 658.709 472.746, 654.631 474.311 C 653.088 474.903, 650.667 471.924, 646.653 464.495 C 644.643 460.774, 642.739 458.850, 639.231 456.995 C 635.989 455.280, 633.784 453.171, 632.182 450.250 C 630.332 446.879, 629.297 446.003, 627.175 446.015 C 625.704 446.024, 623.825 446.467, 623 447 M 626 463.500 C 624.923 464.797, 625.396 465, 629.500 465 C 633.604 465, 634.077 464.797, 633 463.500 C 632.315 462.675, 630.740 462, 629.500 462 C 628.260 462, 626.685 462.675, 626 463.500 M 611.639 471.694 C 610.403 472.930, 611.017 476, 612.500 476 C 613.325 476, 614 475.127, 614 474.059 C 614 471.972, 612.682 470.651, 611.639 471.694 M 629.639 471.694 C 628.403 472.930, 629.017 476, 630.500 476 C 631.325 476, 632 475.127, 632 474.059 C 632 471.972, 630.682 470.651, 629.639 471.694 M 616.193 481.250 C 616.010 488.617, 616.108 489, 618.191 489 C 620.160 489, 620.215 488.873, 618.727 487.750 C 617.560 486.869, 616.970 484.579, 616.728 480 L 616.385 473.500 616.193 481.250 M 628.557 493.582 C 627.491 494.362, 625.579 495, 624.309 495 C 623.039 495, 622 495.450, 622 496 C 622 497.699, 626.651 497.103, 629.139 495.086 C 631.913 492.837, 631.398 491.505, 628.557 493.582 M 641.924 500.595 C 637.514 505.316, 631.472 508.168, 625.515 508.341 L 620.016 508.500 620.008 512.750 C 619.999 517.559, 621.393 518.116, 627.282 515.655 C 631.285 513.982, 640.888 505.264, 643.307 501.106 C 645.509 497.319, 645.119 497.175, 641.924 500.595 M 521.018 601.478 C 519.291 603.560, 520.251 614.908, 523.009 625 C 525.981 635.875, 526.971 637.934, 529.975 639.487 C 532.386 640.734, 533.026 640.664, 536.084 638.814 C 537.963 637.678, 539.831 636.242, 540.235 635.624 C 541.638 633.478, 540.988 630.105, 538.889 628.635 L 536.779 627.157 539.389 623.734 C 543.565 618.260, 542.380 615, 536.217 615 C 534.356 615, 532.998 614.663, 533.199 614.250 C 533.400 613.837, 534.171 612.291, 534.914 610.814 C 535.656 609.336, 535.993 607.424, 535.663 606.564 C 535.004 604.847, 530.841 604.479, 528.180 605.903 C 526.762 606.663, 526.493 606.303, 526.496 603.653 C 526.499 601.216, 526.026 600.432, 524.412 600.202 C 523.264 600.038, 521.737 600.612, 521.018 601.478 M 854.405 665.500 C 854.406 674.300, 854.559 677.766, 854.745 673.203 C 854.930 668.639, 854.929 661.439, 854.742 657.203 C 854.555 652.966, 854.404 656.700, 854.405 665.500 M 714 662.672 C 709.256 664.718, 704 668.803, 704 670.444 C 704 671.927, 706.133 673, 709.082 673 C 711.807 673, 711.519 673.716, 706.958 678.278 C 701.769 683.466, 701.972 686.520, 707.366 684.422 C 709.003 683.786, 709.095 683.953, 708.116 685.783 C 706.668 688.489, 706.708 689.221, 708.430 691.559 C 709.814 693.437, 709.976 693.388, 713.430 690.054 L 717 686.608 717 690.720 C 717 693.114, 717.523 695.014, 718.250 695.265 C 720.630 696.087, 723.797 693.764, 724.563 690.636 L 725.330 687.500 725.724 690.177 C 726.274 693.909, 728.517 695.646, 730.578 693.935 C 734.074 691.034, 742.059 670.494, 740.272 668.998 C 739.211 668.108, 719.517 660.980, 718.400 661.082 C 717.905 661.126, 715.925 661.842, 714 662.672" stroke="none" fill="#f6b592" fill-rule="evenodd"/><path d="M 813.571 505.571 C 812.707 506.436, 812 507.754, 812 508.500 C 812 509.246, 812.707 510.564, 813.571 511.429 C 814.964 512.821, 821.770 513, 873.371 513 C 917.327 513, 931.894 512.706, 932.800 511.800 C 934.637 509.963, 934.228 506.192, 932.066 505.035 C 930.797 504.356, 910.357 504, 872.637 504 C 821.703 504, 814.964 504.179, 813.571 505.571 M 654 517.877 C 654 518.433, 656.699 520.099, 659.997 521.579 C 669.869 526.009, 676.378 534.507, 679.633 547.214 C 680.952 552.362, 680.993 553.502, 679.872 553.876 C 679.128 554.124, 677.319 555.527, 675.853 556.993 C 672.482 560.364, 671.288 568.488, 672.812 577.684 C 673.401 581.237, 673.653 584.741, 673.373 585.470 C 672.697 587.232, 674.885 588.515, 676.245 587.155 C 677.005 586.395, 676.986 585.688, 676.179 584.715 C 674.476 582.664, 673.015 570.092, 673.922 565.291 C 674.701 561.162, 677.338 556.072, 678.773 555.926 C 679.173 555.885, 680.551 555.657, 681.835 555.419 C 685.472 554.746, 690.804 557.855, 694.015 562.521 C 697.669 567.833, 701 576.157, 701 579.978 C 701 582.814, 702.521 584.812, 703.747 583.587 C 704.444 582.890, 700.627 571.385, 697.838 565.777 C 695.295 560.662, 689.728 555.319, 686.116 554.526 C 683.404 553.930, 683.001 553.317, 681.950 548.183 C 679.486 536.157, 672.342 525.647, 663.355 520.829 C 657.314 517.590, 654 516.544, 654 517.877 M 611.411 520.891 C 603.951 525.440, 600.632 534.169, 600.722 549 C 600.753 554.225, 601.528 562.491, 602.444 567.368 C 604.088 576.124, 604.083 576.254, 602.054 577.675 C 599.981 579.127, 599.314 583.372, 600.794 585.700 C 601.213 586.360, 602.666 587.311, 604.023 587.813 C 611.856 590.710, 616.824 580.525, 609.297 577 C 605.581 575.260, 604.492 571.655, 603.029 556.252 C 601.154 536.503, 606.278 523.352, 616.601 521.415 C 618.471 521.064, 620 520.377, 620 519.889 C 620 518.318, 614.597 518.948, 611.411 520.891 M 605.014 579.992 C 603.199 581.113, 604.600 584.224, 606.735 583.812 C 607.693 583.628, 608.617 582.751, 608.788 581.864 C 609.153 579.966, 606.880 578.838, 605.014 579.992 M 729.100 584.917 C 727.931 585.657, 728.022 586.353, 729.656 589.151 L 731.612 592.500 776.306 592.760 L 821 593.021 821 588.510 L 821 584 775.750 584.015 C 750.862 584.024, 729.870 584.429, 729.100 584.917 M 925 588.500 L 925 593 970.800 593 C 1005.089 593, 1016.902 592.698, 1017.800 591.800 C 1019.637 589.963, 1019.228 586.192, 1017.066 585.035 C 1015.814 584.366, 999.218 584, 970.066 584 L 925 584 925 588.500 M 854.770 671.250 L 854.500 692.500 820.750 692.763 L 787 693.027 787 695.402 L 787 697.778 754.928 698.517 C 736.603 698.940, 723.232 699.632, 723.732 700.132 C 724.226 700.626, 789.347 700.896, 873.444 700.753 C 1013.949 700.514, 1022.344 700.402, 1023.386 698.750 C 1024.191 697.474, 1024.191 696.526, 1023.386 695.250 C 1022.356 693.617, 1017.930 693.483, 957.141 693.243 L 892 692.986 892 671.493 L 892 650 873.520 650 L 855.040 650 854.770 671.250 M 737.789 693.741 C 741.248 693.937, 746.648 693.936, 749.789 693.738 C 752.930 693.540, 750.100 693.380, 743.500 693.382 C 736.900 693.384, 734.330 693.546, 737.789 693.741" stroke="none" fill="#656d78" fill-rule="evenodd"/><path d="M 995.460 539.500 C 995.460 564.250, 995.590 574.232, 995.749 561.682 C 995.908 549.132, 995.908 528.882, 995.749 516.682 C 995.590 504.482, 995.460 514.750, 995.460 539.500 M 821.994 594.750 C 821.991 639.163, 821.699 679.212, 821.346 683.750 L 820.704 692 837.352 692 L 854 692 854 670.500 L 854 649 873 649 L 892 649 892 670.500 L 892 692 908.500 692 L 925 692 925 603 L 925 514 873.500 514 L 822 514 821.994 594.750 M 653.589 525.250 C 653.313 527.038, 652.884 531.200, 652.636 534.500 C 650.643 561.015, 645.434 614.817, 644.917 614.230 C 644.563 613.829, 638.735 593.475, 631.966 569 C 625.198 544.525, 619.521 524.323, 619.352 524.106 C 618.731 523.309, 609.671 527.329, 607.745 529.255 C 605.899 531.101, 605.805 532.104, 606.430 543.371 L 607.103 555.500 612.121 560.003 C 616.820 564.220, 617.070 564.685, 616.069 567.318 C 615.481 568.865, 615 571.039, 615 572.150 C 615 573.261, 620.107 584.594, 626.349 597.335 C 637.106 619.292, 637.961 620.692, 642.727 624.178 L 647.756 627.857 648.232 623.678 C 648.494 621.380, 652.823 608.078, 657.854 594.117 C 662.884 580.156, 667 568.153, 667 567.444 C 667 566.734, 665.840 564.775, 664.422 563.090 L 661.844 560.026 665.477 555.593 C 668.614 551.765, 669.335 549.860, 670.758 541.632 C 672.360 532.368, 672.351 532.045, 670.453 529.906 C 666.560 525.522, 660.743 522, 657.395 522 C 654.437 522, 654.038 522.340, 653.589 525.250 M 872 522.728 C 869.622 523.524, 868 526.145, 868 529.191 C 868 531.702, 867.650 532, 864.700 532 C 860.852 532, 859 533.504, 859 536.629 C 859 539.713, 861.586 542, 865.071 542 C 867.643 542, 868 542.357, 868 544.929 C 868 548.414, 870.287 551, 873.371 551 C 876.483 551, 878 549.151, 878 545.360 C 878 542.344, 878.256 542.099, 881.719 541.810 C 884.536 541.575, 885.800 540.850, 886.935 538.818 C 888.303 536.371, 888.270 535.956, 886.562 534.068 C 885.393 532.777, 883.456 532, 881.405 532 C 878.352 532, 878.099 531.744, 877.810 528.364 C 877.481 524.508, 874.711 521.821, 872 522.728 M 675 527.903 C 675 528.473, 676.396 531.688, 678.103 535.047 C 679.810 538.405, 681.708 543.795, 682.322 547.023 C 683.253 551.924, 683.831 552.992, 685.823 553.492 C 692.087 555.064, 697.821 562.073, 701.533 572.697 C 702.765 576.222, 704.049 579.382, 704.386 579.720 C 704.724 580.057, 705 581.190, 705 582.236 C 705 583.632, 704.407 584.054, 702.777 583.820 C 701.093 583.577, 700.512 582.773, 700.383 580.500 C 700.081 575.195, 695.843 565.785, 691.762 561.357 C 684.750 553.751, 677.270 554.591, 674.928 563.247 C 673.689 567.828, 674.243 576.741, 676.166 583.159 C 677.058 586.137, 677.058 587.342, 676.168 588.232 C 674.534 589.866, 672.518 587.686, 672.438 584.196 C 672.248 575.994, 671.918 573, 671.204 573 C 670.766 573, 665.786 585.850, 660.137 601.555 L 649.866 630.110 653.546 634.182 C 660.159 641.502, 663.969 652.839, 663.988 665.250 L 664 673 668.032 673 C 679.656 673, 684.144 665.817, 686.773 643 L 687.637 635.500 689.368 639.338 C 691.856 644.850, 691.715 658.016, 689.089 665.487 C 685.164 676.655, 679.970 680.942, 669.177 681.925 L 662.853 682.500 660.959 688 C 659.918 691.025, 659.051 693.612, 659.033 693.750 C 659.015 693.888, 669.519 694, 682.375 694 L 705.750 694 706.375 690.875 C 707.347 686.017, 707.156 685.335, 704.851 685.421 C 701.554 685.542, 701.588 683.539, 704.948 679.712 C 708.102 676.120, 708.935 673.011, 706.750 672.985 C 703.918 672.950, 702.746 671.342, 703.934 669.123 C 705.141 666.867, 715.765 661, 718.641 661 C 719.575 661, 724.781 662.632, 730.210 664.626 C 735.639 666.620, 740.261 668.072, 740.481 667.852 C 740.701 667.632, 741.358 663.650, 741.940 659.002 C 743.458 646.897, 743.238 624.787, 741.519 616.672 C 740.170 610.307, 738.686 607.130, 726.487 584.500 C 721.107 574.519, 706.965 553.088, 700.386 544.945 C 694.930 538.192, 688.585 532.804, 682.500 529.756 C 677.898 527.451, 675 526.735, 675 527.903 M 591.243 541.031 C 586.702 544.899, 581.862 549.762, 580.488 551.839 C 577.037 557.053, 567.876 578, 569.047 578 C 569.571 578, 570.018 578.788, 570.040 579.750 C 570.089 581.861, 597.711 600.718, 606.197 604.434 C 609.330 605.805, 616.418 609.177, 621.947 611.925 C 627.476 614.674, 631.976 616.603, 631.947 616.211 C 631.778 613.947, 614.097 580.883, 614.053 582.750 C 613.973 586.159, 610.540 589, 606.500 589 C 599.888 589, 596.635 582.147, 601.027 577.471 C 603.014 575.356, 603.022 575.130, 601.421 565.907 C 600.309 559.505, 599.922 552.906, 600.208 545.250 C 600.439 539.063, 600.375 534, 600.064 534 C 599.754 534, 595.785 537.164, 591.243 541.031 M 603.636 540.640 C 602.689 547.549, 602.866 554.799, 604 555.500 C 604.641 555.896, 605 552.510, 605 546.059 C 605 540.527, 604.836 536, 604.636 536 C 604.436 536, 603.986 538.088, 603.636 540.640 M 674 543.599 C 674 550.769, 672.354 555.379, 668.502 558.998 L 666.117 561.239 668.246 564.119 C 669.418 565.704, 670.682 567, 671.056 567 C 671.431 567, 671.984 565.156, 672.286 562.902 C 672.852 558.684, 676.260 554, 678.762 554 C 679.866 554, 680.025 553.070, 679.488 549.750 C 678.780 545.370, 675.542 537, 674.556 537 C 674.250 537, 674 539.969, 674 543.599 M 604.431 562.330 C 605.599 571.391, 606.781 574.394, 609.859 576.132 C 612.595 577.676, 612.725 577.666, 612.276 575.948 C 612.015 574.949, 612.344 572.487, 613.008 570.476 C 614.214 566.823, 614.210 566.814, 608.989 561.990 L 603.764 557.161 604.431 562.330 M 849 577 L 849 589 873 589 L 897 589 897 577 L 897 565 873 565 L 849 565 849 577 M 694 604.873 C 692.625 605.267, 691.500 606.245, 691.500 607.045 C 691.500 608.595, 691.638 608.610, 696.936 607.619 L 700.371 606.976 698.252 609.238 C 692.710 615.155, 693.177 618.892, 702.644 644.346 C 708.610 660.388, 709.223 661.598, 710.858 660.587 C 711.521 660.178, 710.962 657.539, 709.299 653.225 C 702.662 636.008, 698 621.539, 698 618.156 C 698 613.513, 700.259 610.208, 704.700 608.352 C 706.591 607.562, 707.959 606.372, 707.740 605.708 C 707.286 604.332, 697.880 603.760, 694 604.873 M 849 619 L 849 631 873 631 L 897 631 897 619 L 897 607 873 607 L 849 607 849 619 M 569.159 684.419 C 569.347 690.150, 569.817 695.154, 570.205 695.541 C 570.593 695.928, 574.661 695.932, 579.246 695.550 C 586.865 694.915, 587.740 694.619, 589.433 692.099 C 590.452 690.583, 592.856 688.267, 594.774 686.952 L 598.263 684.562 588.381 681.455 C 582.947 679.747, 576.605 677.370, 574.290 676.174 C 571.974 674.978, 569.796 674, 569.449 674 C 569.102 674, 568.971 678.689, 569.159 684.419" stroke="none" fill="#f5f7fa" fill-rule="evenodd"/><path d="M 870.200 449.200 C 867.510 451.890, 869.604 456, 873.665 456 C 876.628 456, 878.454 452.716, 877 450 C 875.813 447.782, 872.059 447.341, 870.200 449.200 M 855.423 455.452 C 854.583 458.799, 856.588 461.187, 859.914 460.801 C 862.145 460.541, 862.500 460.020, 862.500 457 C 862.500 453.790, 862.234 453.474, 859.284 453.189 C 856.546 452.924, 855.973 453.260, 855.423 455.452 M 884.243 454.157 C 881.379 457.021, 883.932 461.444, 888.093 460.827 C 891.129 460.376, 892.818 457.524, 891.394 455.250 C 890.049 453.102, 885.928 452.472, 884.243 454.157 M 868.299 463.503 C 865.243 465.644, 863.543 471.250, 865.056 474.201 C 868.157 480.251, 873.953 481.593, 878.923 477.411 C 881.371 475.352, 882 474.040, 882 471 C 882 464.154, 873.786 459.660, 868.299 463.503 M 670.762 541.606 C 669.335 549.862, 668.616 551.762, 665.477 555.593 L 661.844 560.026 664.422 563.090 C 665.840 564.775, 667 566.734, 667 567.444 C 667 568.153, 662.895 580.132, 657.878 594.064 C 648.760 619.386, 647.141 625.326, 648.442 628.702 C 649.034 630.239, 649.257 630.282, 649.975 629 C 651.694 625.931, 671 571.345, 671 569.552 C 671 568.527, 669.897 566.242, 668.548 564.474 L 666.096 561.259 668.491 559.008 C 672.365 555.369, 674 550.778, 674 543.540 C 674 538.953, 674.342 537.093, 675.100 537.562 C 676.177 538.227, 675.446 536.543, 673.241 533.276 C 672.739 532.534, 671.765 535.810, 670.762 541.606 M 604.935 545 L 604.500 557.500 609.288 562.095 L 614.075 566.690 612.889 571.125 L 611.703 575.560 622.101 596.275 C 628.804 609.627, 633.444 617.688, 635.157 618.956 C 637.354 620.582, 635.837 616.870, 626.407 597.546 C 620.133 584.689, 615 573.261, 615 572.150 C 615 571.039, 615.484 568.863, 616.075 567.315 C 617.082 564.678, 616.845 564.236, 612.325 560.314 L 607.500 556.127 606.435 544.314 L 605.370 532.500 604.935 545 M 779.307 593.761 L 737.114 594.022 736.799 598.261 C 736.604 600.888, 737.181 603.967, 738.317 606.356 C 742.821 615.835, 744.436 639.786, 741.870 659.026 C 741.248 663.687, 740.789 668.468, 740.850 669.650 C 740.911 670.833, 740.070 674.391, 738.981 677.557 C 737.891 680.723, 737 685.268, 737 687.657 L 737 692 778.901 692 L 820.803 692 821.459 680.750 C 821.821 674.563, 821.978 652.400, 821.808 631.500 L 821.500 593.500 779.307 593.761 M 925 643 L 925 692 967.500 692 L 1010 692 1010 643 L 1010 594 967.500 594 L 925 594 925 643 M 694 604.873 C 692.625 605.267, 691.500 606.245, 691.500 607.045 C 691.500 608.595, 691.638 608.610, 696.936 607.619 L 700.371 606.976 698.252 609.238 C 692.710 615.155, 693.177 618.892, 702.644 644.346 C 708.610 660.388, 709.223 661.598, 710.858 660.587 C 711.521 660.178, 710.962 657.539, 709.299 653.225 C 702.662 636.008, 698 621.539, 698 618.156 C 698 613.513, 700.259 610.208, 704.700 608.352 C 706.591 607.562, 707.959 606.372, 707.740 605.708 C 707.286 604.332, 697.880 603.760, 694 604.873 M 755 619 L 755 631 779 631 L 803 631 803 619 L 803 607 779 607 L 755 607 755 619 M 944 619 L 944 631 968 631 L 992 631 992 619 L 992 607 968 607 L 944 607 944 619 M 755 661.500 L 755 674 779 674 L 803 674 803 661.500 L 803 649 779 649 L 755 649 755 661.500 M 863.250 649.746 C 868.612 649.925, 877.388 649.925, 882.750 649.746 C 888.112 649.566, 883.725 649.419, 873 649.419 C 862.275 649.419, 857.888 649.566, 863.250 649.746 M 944 661.500 L 944 674.036 967.750 673.768 L 991.500 673.500 991.500 661.500 L 991.500 649.500 967.750 649.232 L 944 648.964 944 661.500 M 661.750 694.723 C 663.538 694.945, 666.462 694.945, 668.250 694.723 C 670.038 694.502, 668.575 694.320, 665 694.320 C 661.425 694.320, 659.962 694.502, 661.750 694.723 M 520.250 696.735 C 522.862 696.941, 527.138 696.941, 529.750 696.735 C 532.362 696.529, 530.225 696.360, 525 696.360 C 519.775 696.360, 517.638 696.529, 520.250 696.735 M 707.287 699.740 C 710.469 699.939, 715.419 699.937, 718.287 699.736 C 721.154 699.535, 718.550 699.372, 712.500 699.374 C 706.450 699.376, 704.104 699.541, 707.287 699.740 M 637.250 700.739 C 640.413 700.937, 645.587 700.937, 648.750 700.739 C 651.913 700.541, 649.325 700.378, 643 700.378 C 636.675 700.378, 634.087 700.541, 637.250 700.739 M 569.250 701.739 C 572.413 701.937, 577.587 701.937, 580.750 701.739 C 583.913 701.541, 581.325 701.378, 575 701.378 C 568.675 701.378, 566.087 701.541, 569.250 701.739" stroke="none" fill="#e6e9ed" fill-rule="evenodd"/><path d="M 869 501.500 C 869 503.796, 869.367 504, 873.500 504 C 877.633 504, 878 503.796, 878 501.500 C 878 499.204, 877.633 499, 873.500 499 C 869.367 499, 869 499.204, 869 501.500 M 874 576.500 L 874 588 885 588 L 896 588 896 576.500 L 896 565 885 565 L 874 565 874 576.500 M 779 619.500 L 779 631 790.500 631 L 802 631 802 619.500 L 802 608 790.500 608 L 779 608 779 619.500 M 874 619.500 L 874 631 885 631 L 896 631 896 619.500 L 896 608 885 608 L 874 608 874 619.500 M 968 619.500 L 968 631 979.500 631 L 991 631 991 619.500 L 991 608 979.500 608 L 968 608 968 619.500 M 779 661.500 L 779 673 790.500 673 L 802 673 802 661.500 L 802 650 790.500 650 L 779 650 779 661.500 M 968 661.500 L 968 673 979.500 673 L 991 673 991 661.500 L 991 650 979.500 650 L 968 650 968 661.500 M 754.899 693.435 C 754.660 693.674, 747.497 693.980, 738.982 694.116 C 730.331 694.255, 722.728 694.831, 721.750 695.423 C 720.481 696.190, 719.439 696.131, 717.961 695.208 C 716.530 694.314, 713.322 694.088, 707.211 694.449 C 702.420 694.733, 674.200 695.225, 644.500 695.543 C 614.800 695.861, 568.303 696.488, 541.174 696.936 C 492.280 697.744, 487.715 698.115, 490.644 701.044 C 491.588 701.988, 646.191 700.422, 755.750 698.358 L 787 697.770 787 695.385 L 787 693 771.167 693 C 762.458 693, 755.138 693.196, 754.899 693.435" stroke="none" fill="#4a89dc" fill-rule="evenodd"/><path d="M 863 430.317 C 852.642 433.937, 845.689 440.160, 841.141 449.880 C 838.950 454.561, 838.510 456.920, 838.505 464 C 838.501 471.224, 838.921 473.401, 841.302 478.500 C 845.854 488.246, 852.981 494.293, 864.189 497.921 C 867.028 498.840, 867.973 499.736, 868.289 501.807 L 868.700 504.500 868.850 501.750 C 868.991 499.159, 869.274 498.999, 873.750 498.989 C 883.203 498.968, 895.596 493.096, 900.668 486.235 C 911.755 471.240, 910.592 451.873, 897.837 439.049 C 891.483 432.661, 884.302 429.679, 874.500 429.357 C 870.040 429.210, 864.951 429.635, 863 430.317 M 871.250 448.086 C 869.606 448.707, 869 449.743, 869 451.933 C 869 457.332, 876.296 458.655, 877.592 453.490 C 878.605 449.454, 875.234 446.582, 871.250 448.086 M 856.074 453.926 C 852.106 457.894, 856.864 463.630, 861.567 460.548 C 864.459 458.653, 864.696 455.940, 862.171 453.655 C 859.797 451.507, 858.433 451.567, 856.074 453.926 M 884.596 453.306 C 882.323 454.968, 882.824 458.825, 885.546 460.622 C 887.287 461.772, 887.922 461.743, 889.796 460.430 C 892.532 458.514, 892.681 454.435, 890.066 453.035 C 887.552 451.690, 886.752 451.729, 884.596 453.306 M 867.913 463.282 C 863.349 466.786, 862.743 473.470, 866.636 477.364 C 871.591 482.319, 881.031 479.852, 882.288 473.273 C 882.954 469.792, 880.806 464.502, 878.150 463.080 C 875.476 461.649, 869.897 461.759, 867.913 463.282 M 624.144 539.076 C 624.413 539.859, 629.104 556.643, 634.566 576.373 C 642.469 604.918, 644.644 611.659, 645.211 609.373 C 645.603 607.793, 647.083 593, 648.500 576.500 C 649.917 560, 651.345 544.519, 651.675 542.098 C 652.254 537.830, 652.200 537.716, 649.886 538.371 C 640.730 540.963, 632.139 540.976, 625.576 538.406 C 624.150 537.848, 623.780 538.021, 624.144 539.076 M 850 577.018 L 850 589.037 873.250 588.768 L 896.500 588.500 896.550 576.748 L 896.600 564.997 896.268 576.498 L 895.937 588 884.968 588 L 874 588 874 576.500 L 874 565 862 565 L 850 565 850 577.018 M 755.663 607.671 C 755.298 608.035, 755 613.433, 755 619.667 L 755 631 767 631 L 779 631 779 619.500 L 779 608 790.468 608 L 801.937 608 802.268 619.502 L 802.600 631.003 802.550 619.252 L 802.500 607.500 779.413 607.254 C 766.715 607.119, 756.027 607.306, 755.663 607.671 M 944.645 607.688 C 944.290 608.043, 944 613.433, 944 619.667 L 944 631 956 631 L 968 631 968 619.532 L 968 608.063 979.750 607.756 C 986.212 607.587, 981.103 607.358, 968.395 607.246 C 955.687 607.135, 945 607.334, 944.645 607.688 M 850 619.500 L 850 631 862 631 L 874 631 874 619.500 L 874 608 862 608 L 850 608 850 619.500 M 896.382 619.500 C 896.384 626.100, 896.546 628.670, 896.741 625.211 C 896.937 621.752, 896.936 616.352, 896.738 613.211 C 896.540 610.070, 896.380 612.900, 896.382 619.500 M 755.218 661.750 L 755.500 673.500 779 673.500 L 802.500 673.500 802.550 661.748 L 802.600 649.997 802.268 661.498 L 801.937 673 790.468 673 L 779 673 779 661.500 L 779 650 766.968 650 L 754.937 650 755.218 661.750 M 944.218 661.750 L 944.500 673.500 968 673.535 C 980.925 673.554, 986.212 673.427, 979.750 673.253 L 968 672.937 968 661.468 L 968 650 955.968 650 L 943.937 650 944.218 661.750 M 686.250 694.743 C 690.513 694.931, 697.487 694.931, 701.750 694.743 C 706.013 694.556, 702.525 694.402, 694 694.402 C 685.475 694.402, 681.987 694.556, 686.250 694.743 M 557.784 696.738 C 560.689 696.941, 565.189 696.939, 567.784 696.734 C 570.378 696.528, 568 696.363, 562.500 696.365 C 557 696.368, 554.878 696.536, 557.784 696.738 M 490.653 697.750 C 490.397 698.163, 492.508 698.371, 495.344 698.214 C 504.539 697.705, 505.658 697.303, 498.309 697.150 C 494.354 697.067, 490.909 697.337, 490.653 697.750 M 673.206 699.741 C 676.895 699.932, 683.195 699.934, 687.206 699.743 C 691.218 699.553, 688.200 699.396, 680.500 699.395 C 672.800 699.393, 669.518 699.549, 673.206 699.741 M 604.750 700.743 C 608.737 700.932, 615.263 700.932, 619.250 700.743 C 623.237 700.553, 619.975 700.397, 612 700.397 C 604.025 700.397, 600.763 700.553, 604.750 700.743 M 536.206 701.741 C 539.895 701.932, 546.195 701.934, 550.206 701.743 C 554.218 701.553, 551.200 701.396, 543.500 701.395 C 535.800 701.393, 532.518 701.549, 536.206 701.741" stroke="none" fill="#5d9cec" fill-rule="evenodd"/><path d="M 870.204 524.254 C 869.632 524.944, 869.014 527.081, 868.832 529.004 C 868.524 532.251, 868.233 532.522, 864.753 532.810 C 860.492 533.163, 858.793 535.325, 860.086 538.750 C 860.774 540.571, 861.705 541, 864.968 541 C 868.999 541, 869 541.001, 869 544.965 C 869 547.906, 869.516 549.206, 871 550 C 874.656 551.957, 878 548.813, 878 543.418 C 878 541.338, 878.472 541, 881.378 541 C 885.476 541, 887.449 538.924, 886.593 535.513 C 886.056 533.373, 885.390 533, 882.113 533 C 878.356 533, 878.250 532.901, 877.707 528.856 C 877.402 526.577, 876.555 524.334, 875.826 523.871 C 873.893 522.646, 871.398 522.816, 870.204 524.254" stroke="none" fill="#ed5565" fill-rule="evenodd"/><path d="M 813.571 505.571 C 812.707 506.436, 812 507.754, 812 508.500 C 812 509.246, 812.707 510.564, 813.571 511.429 C 814.964 512.821, 821.770 513, 873.371 513 C 917.327 513, 931.894 512.706, 932.800 511.800 C 934.637 509.963, 934.228 506.192, 932.066 505.035 C 930.797 504.356, 910.357 504, 872.637 504 C 821.703 504, 814.964 504.179, 813.571 505.571 M 654 517.877 C 654 518.433, 656.699 520.099, 659.997 521.579 C 669.869 526.009, 676.378 534.507, 679.633 547.214 C 680.952 552.362, 680.993 553.502, 679.872 553.876 C 679.128 554.124, 677.319 555.527, 675.853 556.993 C 672.482 560.364, 671.288 568.488, 672.812 577.684 C 673.401 581.237, 673.653 584.741, 673.373 585.470 C 672.697 587.232, 674.885 588.515, 676.245 587.155 C 677.005 586.395, 676.986 585.688, 676.179 584.715 C 674.476 582.664, 673.015 570.092, 673.922 565.291 C 674.701 561.162, 677.338 556.072, 678.773 555.926 C 679.173 555.885, 680.551 555.657, 681.835 555.419 C 685.472 554.746, 690.804 557.855, 694.015 562.521 C 697.669 567.833, 701 576.157, 701 579.978 C 701 582.814, 702.521 584.812, 703.747 583.587 C 704.444 582.890, 700.627 571.385, 697.838 565.777 C 695.295 560.662, 689.728 555.319, 686.116 554.526 C 683.404 553.930, 683.001 553.317, 681.950 548.183 C 679.486 536.157, 672.342 525.647, 663.355 520.829 C 657.314 517.590, 654 516.544, 654 517.877 M 611.411 520.891 C 603.951 525.440, 600.632 534.169, 600.722 549 C 600.753 554.225, 601.528 562.491, 602.444 567.368 C 604.088 576.124, 604.083 576.254, 602.054 577.675 C 599.981 579.127, 599.314 583.372, 600.794 585.700 C 601.213 586.360, 602.666 587.311, 604.023 587.813 C 611.856 590.710, 616.824 580.525, 609.297 577 C 605.581 575.260, 604.492 571.655, 603.029 556.252 C 601.154 536.503, 606.278 523.352, 616.601 521.415 C 618.471 521.064, 620 520.377, 620 519.889 C 620 518.318, 614.597 518.948, 611.411 520.891 M 605.014 579.992 C 603.199 581.113, 604.600 584.224, 606.735 583.812 C 607.693 583.628, 608.617 582.751, 608.788 581.864 C 609.153 579.966, 606.880 578.838, 605.014 579.992 M 729.100 584.917 C 727.931 585.657, 728.022 586.353, 729.656 589.151 L 731.612 592.500 776.306 592.760 L 821 593.021 821 588.510 L 821 584 775.750 584.015 C 750.862 584.024, 729.870 584.429, 729.100 584.917 M 925 588.500 L 925 593 970.800 593 C 1005.089 593, 1016.902 592.698, 1017.800 591.800 C 1019.637 589.963, 1019.228 586.192, 1017.066 585.035 C 1015.814 584.366, 999.218 584, 970.066 584 L 925 584 925 588.500 M 854.770 671.250 L 854.500 692.500 820.750 692.763 L 787 693.027 787 695.402 L 787 697.778 754.928 698.517 C 736.603 698.940, 723.232 699.632, 723.732 700.132 C 724.226 700.626, 789.347 700.896, 873.444 700.753 C 1013.949 700.514, 1022.344 700.402, 1023.386 698.750 C 1024.191 697.474, 1024.191 696.526, 1023.386 695.250 C 1022.356 693.617, 1017.930 693.483, 957.141 693.243 L 892 692.986 892 671.493 L 892 650 873.520 650 L 855.040 650 854.770 671.250 M 737.789 693.741 C 741.248 693.937, 746.648 693.936, 749.789 693.738 C 752.930 693.540, 750.100 693.380, 743.500 693.382 C 736.900 693.384, 734.330 693.546, 737.789 693.741" stroke="none" fill="#656d78" fill-rule="evenodd"/><path d="M 870.200 449.200 C 867.510 451.890, 869.604 456, 873.665 456 C 876.628 456, 878.454 452.716, 877 450 C 875.813 447.782, 872.059 447.341, 870.200 449.200 M 855.423 455.452 C 854.583 458.799, 856.588 461.187, 859.914 460.801 C 862.145 460.541, 862.500 460.020, 862.500 457 C 862.500 453.790, 862.234 453.474, 859.284 453.189 C 856.546 452.924, 855.973 453.260, 855.423 455.452 M 884.243 454.157 C 881.379 457.021, 883.932 461.444, 888.093 460.827 C 891.129 460.376, 892.818 457.524, 891.394 455.250 C 890.049 453.102, 885.928 452.472, 884.243 454.157 M 868.299 463.503 C 865.243 465.644, 863.543 471.250, 865.056 474.201 C 868.157 480.251, 873.953 481.593, 878.923 477.411 C 881.371 475.352, 882 474.040, 882 471 C 882 464.154, 873.786 459.660, 868.299 463.503 M 670.762 541.606 C 669.335 549.862, 668.616 551.762, 665.477 555.593 L 661.844 560.026 664.422 563.090 C 665.840 564.775, 667 566.734, 667 567.444 C 667 568.153, 662.895 580.132, 657.878 594.064 C 648.760 619.386, 647.141 625.326, 648.442 628.702 C 649.034 630.239, 649.257 630.282, 649.975 629 C 651.694 625.931, 671 571.345, 671 569.552 C 671 568.527, 669.897 566.242, 668.548 564.474 L 666.096 561.259 668.491 559.008 C 672.365 555.369, 674 550.778, 674 543.540 C 674 538.953, 674.342 537.093, 675.100 537.562 C 676.177 538.227, 675.446 536.543, 673.241 533.276 C 672.739 532.534, 671.765 535.810, 670.762 541.606 M 604.935 545 L 604.500 557.500 609.288 562.095 L 614.075 566.690 612.889 571.125 L 611.703 575.560 622.101 596.275 C 628.804 609.627, 633.444 617.688, 635.157 618.956 C 637.354 620.582, 635.837 616.870, 626.407 597.546 C 620.133 584.689, 615 573.261, 615 572.150 C 615 571.039, 615.484 568.863, 616.075 567.315 C 617.082 564.678, 616.845 564.236, 612.325 560.314 L 607.500 556.127 606.435 544.314 L 605.370 532.500 604.935 545 M 779.307 593.761 L 737.114 594.022 736.799 598.261 C 736.604 600.888, 737.181 603.967, 738.317 606.356 C 742.821 615.835, 744.436 639.786, 741.870 659.026 C 741.248 663.687, 740.789 668.468, 740.850 669.650 C 740.911 670.833, 740.070 674.391, 738.981 677.557 C 737.891 680.723, 737 685.268, 737 687.657 L 737 692 778.901 692 L 820.803 692 821.459 680.750 C 821.821 674.563, 821.978 652.400, 821.808 631.500 L 821.500 593.500 779.307 593.761 M 925 643 L 925 692 967.500 692 L 1010 692 1010 643 L 1010 594 967.500 594 L 925 594 925 643 M 694 604.873 C 692.625 605.267, 691.500 606.245, 691.500 607.045 C 691.500 608.595, 691.638 608.610, 696.936 607.619 L 700.371 606.976 698.252 609.238 C 692.710 615.155, 693.177 618.892, 702.644 644.346 C 708.610 660.388, 709.223 661.598, 710.858 660.587 C 711.521 660.178, 710.962 657.539, 709.299 653.225 C 702.662 636.008, 698 621.539, 698 618.156 C 698 613.513, 700.259 610.208, 704.700 608.352 C 706.591 607.562, 707.959 606.372, 707.740 605.708 C 707.286 604.332, 697.880 603.760, 694 604.873 M 755 619 L 755 631 779 631 L 803 631 803 619 L 803 607 779 607 L 755 607 755 619 M 944 619 L 944 631 968 631 L 992 631 992 619 L 992 607 968 607 L 944 607 944 619 M 755 661.500 L 755 674 779 674 L 803 674 803 661.500 L 803 649 779 649 L 755 649 755 661.500 M 863.250 649.746 C 868.612 649.925, 877.388 649.925, 882.750 649.746 C 888.112 649.566, 883.725 649.419, 873 649.419 C 862.275 649.419, 857.888 649.566, 863.250 649.746 M 944 661.500 L 944 674.036 967.750 673.768 L 991.500 673.500 991.500 661.500 L 991.500 649.500 967.750 649.232 L 944 648.964 944 661.500 M 661.750 694.723 C 663.538 694.945, 666.462 694.945, 668.250 694.723 C 670.038 694.502, 668.575 694.320, 665 694.320 C 661.425 694.320, 659.962 694.502, 661.750 694.723 M 520.250 696.735 C 522.862 696.941, 527.138 696.941, 529.750 696.735 C 532.362 696.529, 530.225 696.360, 525 696.360 C 519.775 696.360, 517.638 696.529, 520.250 696.735 M 707.287 699.740 C 710.469 699.939, 715.419 699.937, 718.287 699.736 C 721.154 699.535, 718.550 699.372, 712.500 699.374 C 706.450 699.376, 704.104 699.541, 707.287 699.740 M 637.250 700.739 C 640.413 700.937, 645.587 700.937, 648.750 700.739 C 651.913 700.541, 649.325 700.378, 643 700.378 C 636.675 700.378, 634.087 700.541, 637.250 700.739 M 569.250 701.739 C 572.413 701.937, 577.587 701.937, 580.750 701.739 C 583.913 701.541, 581.325 701.378, 575 701.378 C 568.675 701.378, 566.087 701.541, 569.250 701.739" stroke="none" fill="#e6e9ed" fill-rule="evenodd"/><path d="M 863 430.317 C 852.642 433.937, 845.689 440.160, 841.141 449.880 C 838.950 454.561, 838.510 456.920, 838.505 464 C 838.501 471.224, 838.921 473.401, 841.302 478.500 C 845.854 488.246, 852.981 494.293, 864.189 497.921 C 867.028 498.840, 867.973 499.736, 868.289 501.807 L 868.700 504.500 868.850 501.750 C 868.991 499.159, 869.274 498.999, 873.750 498.989 C 883.203 498.968, 895.596 493.096, 900.668 486.235 C 911.755 471.240, 910.592 451.873, 897.837 439.049 C 891.483 432.661, 884.302 429.679, 874.500 429.357 C 870.040 429.210, 864.951 429.635, 863 430.317 M 871.250 448.086 C 869.606 448.707, 869 449.743, 869 451.933 C 869 457.332, 876.296 458.655, 877.592 453.490 C 878.605 449.454, 875.234 446.582, 871.250 448.086 M 856.074 453.926 C 852.106 457.894, 856.864 463.630, 861.567 460.548 C 864.459 458.653, 864.696 455.940, 862.171 453.655 C 859.797 451.507, 858.433 451.567, 856.074 453.926 M 884.596 453.306 C 882.323 454.968, 882.824 458.825, 885.546 460.622 C 887.287 461.772, 887.922 461.743, 889.796 460.430 C 892.532 458.514, 892.681 454.435, 890.066 453.035 C 887.552 451.690, 886.752 451.729, 884.596 453.306 M 867.913 463.282 C 863.349 466.786, 862.743 473.470, 866.636 477.364 C 871.591 482.319, 881.031 479.852, 882.288 473.273 C 882.954 469.792, 880.806 464.502, 878.150 463.080 C 875.476 461.649, 869.897 461.759, 867.913 463.282 M 624.144 539.076 C 624.413 539.859, 629.104 556.643, 634.566 576.373 C 642.469 604.918, 644.644 611.659, 645.211 609.373 C 645.603 607.793, 647.083 593, 648.500 576.500 C 649.917 560, 651.345 544.519, 651.675 542.098 C 652.254 537.830, 652.200 537.716, 649.886 538.371 C 640.730 540.963, 632.139 540.976, 625.576 538.406 C 624.150 537.848, 623.780 538.021, 624.144 539.076 M 850 577.018 L 850 589.037 873.250 588.768 L 896.500 588.500 896.550 576.748 L 896.600 564.997 896.268 576.498 L 895.937 588 884.968 588 L 874 588 874 576.500 L 874 565 862 565 L 850 565 850 577.018 M 755.663 607.671 C 755.298 608.035, 755 613.433, 755 619.667 L 755 631 767 631 L 779 631 779 619.500 L 779 608 790.468 608 L 801.937 608 802.268 619.502 L 802.600 631.003 802.550 619.252 L 802.500 607.500 779.413 607.254 C 766.715 607.119, 756.027 607.306, 755.663 607.671 M 944.645 607.688 C 944.290 608.043, 944 613.433, 944 619.667 L 944 631 956 631 L 968 631 968 619.532 L 968 608.063 979.750 607.756 C 986.212 607.587, 981.103 607.358, 968.395 607.246 C 955.687 607.135, 945 607.334, 944.645 607.688 M 850 619.500 L 850 631 862 631 L 874 631 874 619.500 L 874 608 862 608 L 850 608 850 619.500 M 896.382 619.500 C 896.384 626.100, 896.546 628.670, 896.741 625.211 C 896.937 621.752, 896.936 616.352, 896.738 613.211 C 896.540 610.070, 896.380 612.900, 896.382 619.500 M 755.218 661.750 L 755.500 673.500 779 673.500 L 802.500 673.500 802.550 661.748 L 802.600 649.997 802.268 661.498 L 801.937 673 790.468 673 L 779 673 779 661.500 L 779 650 766.968 650 L 754.937 650 755.218 661.750 M 944.218 661.750 L 944.500 673.500 968 673.535 C 980.925 673.554, 986.212 673.427, 979.750 673.253 L 968 672.937 968 661.468 L 968 650 955.968 650 L 943.937 650 944.218 661.750 M 686.250 694.743 C 690.513 694.931, 697.487 694.931, 701.750 694.743 C 706.013 694.556, 702.525 694.402, 694 694.402 C 685.475 694.402, 681.987 694.556, 686.250 694.743 M 557.784 696.738 C 560.689 696.941, 565.189 696.939, 567.784 696.734 C 570.378 696.528, 568 696.363, 562.500 696.365 C 557 696.368, 554.878 696.536, 557.784 696.738 M 490.653 697.750 C 490.397 698.163, 492.508 698.371, 495.344 698.214 C 504.539 697.705, 505.658 697.303, 498.309 697.150 C 494.354 697.067, 490.909 697.337, 490.653 697.750 M 673.206 699.741 C 676.895 699.932, 683.195 699.934, 687.206 699.743 C 691.218 699.553, 688.200 699.396, 680.500 699.395 C 672.800 699.393, 669.518 699.549, 673.206 699.741 M 604.750 700.743 C 608.737 700.932, 615.263 700.932, 619.250 700.743 C 623.237 700.553, 619.975 700.397, 612 700.397 C 604.025 700.397, 600.763 700.553, 604.750 700.743 M 536.206 701.741 C 539.895 701.932, 546.195 701.934, 550.206 701.743 C 554.218 701.553, 551.200 701.396, 543.500 701.395 C 535.800 701.393, 532.518 701.549, 536.206 701.741" stroke="none" fill="#5d9cec" fill-rule="evenodd"/><path d="M 537.040 600.452 C 534.383 603.653, 538.285 608.570, 541.750 606.388 C 545.212 604.207, 543.979 599, 540 599 C 539.035 599, 537.703 599.653, 537.040 600.452" stroke="none" fill="#fcd75b" fill-rule="evenodd"/><path d="M 558.148 579.017 C 555.755 581.182, 551.480 584.082, 548.648 585.462 C 542.677 588.372, 529.188 592, 524.340 592 C 521.140 592, 521 592.159, 521 595.794 L 521 599.589 527.342 599.823 C 540.235 600.299, 556.890 593.177, 566.431 583.107 L 569.361 580.013 567.006 577.507 C 565.711 576.128, 564.167 575.018, 563.576 575.041 C 562.984 575.064, 560.542 576.853, 558.148 579.017" stroke="none" fill="#e22b35" fill-rule="evenodd"/><path d="M 557 524 C 557 526.314, 557.533 526.407, 561.947 524.869 C 565.636 523.583, 564.449 522.041, 559.750 522.015 C 557.662 522.004, 557 522.481, 557 524" stroke="none" fill="#75493b" fill-rule="evenodd"/><path d="" stroke="none" fill="#b37659" fill-rule="evenodd"/><path d="M 641.500 501 C 639.919 502.650, 639.026 504, 639.516 504 C 640.005 504, 638.627 505.913, 636.454 508.250 L 632.502 512.500 637.208 508.084 C 639.796 505.656, 641.679 503.290, 641.393 502.827 C 641.107 502.365, 641.542 501.729, 642.359 501.416 C 643.177 501.102, 644.091 500.205, 644.391 499.423 C 645.173 497.385, 644.734 497.625, 641.500 501 M 546.500 524.562 C 534.894 528.687, 527.387 532.602, 522.570 537.042 C 520.057 539.359, 518 541.612, 518 542.048 C 518 542.484, 519.331 543.133, 520.958 543.491 C 525.241 544.432, 529.357 549.709, 532.829 558.714 C 537.291 570.283, 538.415 575.356, 537.074 577.862 C 535.726 580.381, 528.703 584.553, 524.250 585.481 C 520.908 586.178, 520.562 586.694, 521.607 589.418 C 523.551 594.485, 548.435 587.023, 557.797 578.565 L 561.846 574.906 559.427 569.622 C 555.567 561.189, 555.302 556.310, 558.377 550.242 C 561.367 544.342, 566.274 528.156, 565.603 526.407 C 565.305 525.631, 563.590 525.405, 560.575 525.744 C 556.412 526.214, 556 526.068, 556 524.130 C 556 521.457, 555.128 521.496, 546.500 524.562 M 533.185 535.750 C 533.607 537.976, 539 538.832, 539 536.673 C 539 535.169, 536.964 534, 534.345 534 C 533.465 534, 532.989 534.717, 533.185 535.750 M 555 547.017 C 554.175 547.541, 551.786 547.976, 549.691 547.985 C 547.410 547.994, 546.130 548.401, 546.500 549 C 547.257 550.225, 553.983 550.297, 555.872 549.100 C 556.626 548.622, 557.076 547.744, 556.872 547.148 C 556.627 546.434, 555.988 546.389, 555 547.017 M 562.500 587.147 C 559.200 589.892, 553.511 593.569, 549.857 595.319 C 543.515 598.356, 543.237 598.638, 543.705 601.546 C 544.522 606.618, 539.281 608.988, 536.614 604.753 C 535.797 603.455, 535.845 602.478, 536.803 600.944 C 537.986 599.050, 537.929 598.968, 536.111 599.940 C 535.022 600.523, 532.578 601, 530.679 601 C 527.624 601, 527.177 601.338, 526.796 603.938 C 526.422 606.483, 526.599 606.750, 528.117 605.938 C 530.833 604.484, 534.997 604.829, 535.663 606.564 C 535.993 607.424, 535.656 609.336, 534.914 610.814 C 534.171 612.291, 533.400 613.837, 533.199 614.250 C 532.998 614.663, 534.356 615, 536.217 615 C 542.380 615, 543.565 618.260, 539.389 623.734 L 536.779 627.157 538.889 628.635 C 541.621 630.548, 541.585 634.377, 538.811 636.961 C 537.608 638.082, 536.370 639.007, 536.061 639.015 C 532.793 639.104, 533.003 641.098, 538.325 660.593 C 546.171 689.333, 545.984 686.105, 540.051 690.368 C 532.251 695.972, 533.004 696.549, 547.650 696.191 L 560.304 695.881 559.606 672.941 C 559.126 657.188, 559.235 650, 559.953 650 C 560.600 650, 561 653.246, 561 658.494 L 561 666.987 565.149 669.993 C 571.141 674.334, 578.535 677.747, 588.979 680.993 L 598.140 683.841 593.023 678.431 C 584.908 669.850, 583.223 663.509, 586.905 655.401 C 591.561 645.150, 605.374 642.986, 617.286 650.642 C 619.368 651.981, 620.809 653.501, 620.488 654.020 C 620.165 654.541, 618.244 653.888, 616.202 652.562 C 603.603 644.384, 589.298 648.158, 587.503 660.134 C 586.603 666.132, 588.341 670.065, 595.374 677.948 C 598.468 681.415, 601 684.646, 601 685.126 C 601 685.607, 599.907 686, 598.571 686 C 595.892 686, 588.579 692.238, 589.172 694.017 C 589.574 695.221, 644.375 695.333, 653.500 694.149 L 658.500 693.500 660.524 687.500 L 662.548 681.500 669.524 680.939 C 673.361 680.630, 677.527 679.819, 678.781 679.137 C 682.048 677.360, 686.598 670.700, 688.659 664.678 C 691.039 657.722, 691.095 643.676, 688.758 639.500 L 687.080 636.500 687.024 643.500 C 686.908 658.118, 682.166 669.516, 675.008 672.380 C 670.677 674.113, 667.183 674.423, 665.394 673.235 C 664.786 672.831, 663.975 668.566, 663.593 663.758 C 663.210 658.950, 662.251 652.840, 661.461 650.180 C 660.238 646.062, 659.526 645.190, 656.671 644.314 C 653.958 643.481, 652.666 643.631, 649.909 645.100 C 643.661 648.428, 637 646.855, 637 642.051 C 637 638.986, 634.367 637.825, 626.483 637.413 C 617.033 636.920, 615 635.922, 615 631.775 C 615 629.257, 616.048 627.653, 620.196 623.819 C 624.957 619.419, 625.313 618.786, 624.446 616.258 C 623.668 613.991, 620.921 612.215, 609 606.275 C 600.879 602.229, 589.221 595.317, 582.500 590.562 C 575.900 585.893, 570.050 582.092, 569.500 582.114 C 568.950 582.137, 565.800 584.402, 562.500 587.147 M 568 607 C 564.816 610.184, 565.395 614.693, 569.483 618.549 C 573.854 622.671, 578.196 623.757, 581.541 621.565 C 584.667 619.517, 584.755 617, 581.700 617 C 578.410 617, 577 615.151, 577 610.835 C 577 605.183, 571.963 603.037, 568 607 M 618.164 663.597 C 616.293 664.908, 616.005 665.760, 616.557 668.347 C 617.648 673.451, 618.616 674, 626.515 674 C 634.799 674, 636.035 672.902, 633.427 667.858 C 630.782 662.744, 622.631 660.469, 618.164 663.597" stroke="none" fill="#d89371" fill-rule="evenodd"/><path d="M 514.017 546.829 C 509.867 550.979, 506.973 564, 510.200 564 C 511.133 564, 511.133 564.267, 510.200 565.200 C 508.710 566.690, 508.616 568.355, 510.074 567.454 C 510.664 567.089, 510.569 567.717, 509.862 568.850 C 507.996 571.837, 509.617 572.708, 512.318 570.171 C 513.589 568.977, 514.944 568, 515.330 568 C 515.716 568, 514.615 569.266, 512.883 570.813 C 509.822 573.548, 509.772 573.728, 511.068 577.313 C 511.802 579.341, 512.677 581, 513.013 581 C 513.349 581, 514.648 579.615, 515.900 577.921 C 517.152 576.228, 518.426 575.092, 518.730 575.397 C 519.035 575.702, 517.884 577.385, 516.171 579.136 C 513.298 582.075, 513.190 582.422, 514.779 583.629 C 517.483 585.683, 524.016 585.206, 529.751 582.536 C 537.360 578.993, 537.904 577.143, 534.525 566.306 C 528.239 546.143, 521.297 539.550, 514.017 546.829 M 568.571 607.571 C 567.707 608.436, 567 610.505, 567 612.170 C 567 617.883, 576.062 623.643, 580.941 621.031 C 583.499 619.662, 583.616 618, 581.155 618 C 578.484 618, 576 614.806, 576 611.371 C 576 606.352, 571.892 604.251, 568.571 607.571 M 625.724 617.336 C 626.076 619.180, 625.102 620.566, 621.085 623.929 C 616.854 627.471, 616 628.742, 616 631.495 C 616 634.308, 616.473 634.969, 619.149 635.902 C 620.881 636.506, 625.101 637, 628.527 637 C 635.252 637, 636.592 637.814, 637.886 642.686 C 638.538 645.141, 639.178 645.540, 642.898 645.811 C 645.651 646.012, 648.068 645.530, 649.714 644.452 C 651.406 643.343, 653.394 642.964, 655.624 643.326 L 658.985 643.872 657.341 640.686 C 654.557 635.292, 642.911 624.562, 634.521 619.661 C 630.132 617.097, 626.257 615, 625.910 615 C 625.562 615, 625.478 616.051, 625.724 617.336 M 590.400 651.400 C 588.530 653.270, 587.002 655.407, 587.004 656.150 C 587.006 656.893, 587.883 656.064, 588.954 654.308 C 590.024 652.553, 592.160 650.433, 593.700 649.598 C 595.240 648.763, 595.893 648.062, 595.150 648.040 C 594.407 648.018, 592.270 649.530, 590.400 651.400 M 618.034 664.459 C 616.080 666.813, 617.733 671.948, 620.822 673.122 C 623.625 674.188, 632.649 673.377, 633.512 671.981 C 634.461 670.446, 631.637 665.863, 628.855 664.425 C 625.287 662.580, 619.579 662.598, 618.034 664.459" stroke="none" fill="#965b3e" fill-rule="evenodd"/><path d="M 616.116 482.691 C 616.052 485.546, 616.346 488.096, 616.768 488.357 C 617.191 488.618, 617.392 486.957, 617.216 484.666 C 616.696 477.937, 616.241 477.118, 616.116 482.691 M 637.015 505.262 C 633.402 507.818, 631.312 508.513, 626.265 508.834 L 620 509.233 620 512.616 C 620 515.657, 620.284 516, 622.804 516 C 626.255 516, 633.183 511.629, 638.453 506.127 C 643.168 501.205, 642.942 501.069, 637.015 505.262" stroke="none" fill="#c38160" fill-rule="evenodd"/><path d="M 630.500 430.412 C 627.334 431.819, 622.315 436.649, 623.151 437.484 C 623.422 437.755, 626.511 435.957, 630.017 433.488 C 636.259 429.093, 636.468 427.759, 630.500 430.412 M 651 443.786 C 651 444.389, 651.450 445.160, 652 445.500 C 652.550 445.840, 653 447.190, 653 448.500 C 653 449.810, 652.550 451.160, 652 451.500 C 650.262 452.574, 650.918 455.839, 653.005 456.502 C 654.108 456.852, 656.358 458.272, 658.005 459.658 C 659.652 461.044, 661 461.666, 661 461.041 C 661 459.766, 656.166 455, 654.873 455 C 654.414 455, 654.301 453.086, 654.621 450.747 C 655.102 447.242, 654.834 446.160, 653.102 444.592 C 651.946 443.546, 651 443.183, 651 443.786" stroke="none" fill="#92523a" fill-rule="evenodd"/><path d="M 648.117 408.631 C 645.162 410.700, 643 415.834, 643 420.779 C 643 424.556, 642.914 424.644, 637.972 425.910 C 633.975 426.935, 632.639 426.946, 631.455 425.962 C 629.238 424.123, 620.578 425.471, 615.503 428.445 C 606.072 433.972, 600.971 443.733, 600.318 457.500 C 599.936 465.556, 600.151 467.024, 602.367 471.500 C 604.189 475.180, 604.863 475.909, 604.921 474.263 C 605.061 470.290, 609.885 453.105, 611.591 450.502 C 612.501 449.113, 614.428 447.750, 615.873 447.472 C 617.318 447.195, 620.419 446.525, 622.764 445.984 C 629.187 444.502, 629.460 444.612, 632.838 450.046 C 634.831 453.252, 637.171 455.591, 639.257 456.463 C 643.370 458.181, 644.992 459.979, 649.217 467.500 C 652.231 472.866, 652.927 473.504, 655.800 473.534 C 659.883 473.577, 662.889 476.541, 663.659 481.283 C 664.184 484.522, 663.844 485.356, 660.727 488.473 C 658.787 490.413, 656.255 492, 655.100 492 C 653.401 492, 653 492.615, 653 495.227 L 653 498.453 661.110 490.477 C 670.948 480.799, 675 475.492, 675 472.280 C 675 470.950, 673.674 466.630, 672.053 462.680 C 670.432 458.731, 668.834 452.800, 668.503 449.500 C 668.053 445.015, 667.195 442.616, 665.103 439.999 L 662.305 436.497 666.010 433.860 C 670.479 430.678, 674.258 423.389, 673.817 418.803 C 673.557 416.101, 672.786 415.156, 669.500 413.507 C 667.300 412.403, 663.925 410.489, 662 409.254 C 657.823 406.573, 651.462 406.288, 648.117 408.631 M 629.500 430.861 C 626.008 433.017, 622.449 436.782, 623.195 437.528 C 623.649 437.982, 632.916 432.191, 635.450 429.870 C 637.266 428.206, 632.517 428.997, 629.500 430.861 M 651.203 445.061 C 653.401 448.033, 653.416 448.210, 651.729 451.150 C 649.653 454.767, 649.972 455.435, 655.002 458.001 C 657.128 459.086, 659.573 460.979, 660.434 462.209 C 661.838 464.213, 662 464.251, 662 462.569 C 662 461.537, 660.228 459.056, 658.061 457.056 C 655.148 454.367, 654.363 453.040, 655.046 451.960 C 656.569 449.552, 656.136 447.439, 653.548 444.646 C 650.169 441, 648.429 441.309, 651.203 445.061 M 559 659 C 559 663.667, 559.417 667, 560 667 C 560.583 667, 561 663.667, 561 659 C 561 654.333, 560.583 651, 560 651 C 559.417 651, 559 654.333, 559 659" stroke="none" fill="#a26449" fill-rule="evenodd"/><path d="M 594.750 695.732 C 597.087 695.943, 600.913 695.943, 603.250 695.732 C 605.587 695.522, 603.675 695.349, 599 695.349 C 594.325 695.349, 592.413 695.522, 594.750 695.732" stroke="none" fill="#cd8d6e" fill-rule="evenodd"/><path d="M 763.322 692.750 C 780.274 692.903, 807.724 692.903, 824.322 692.749 C 840.920 692.595, 827.050 692.470, 793.500 692.470 C 759.950 692.470, 746.370 692.596, 763.322 692.750 M 923.750 692.750 C 941.488 692.903, 970.513 692.903, 988.250 692.750 C 1005.988 692.596, 991.475 692.471, 956 692.471 C 920.525 692.471, 906.013 692.596, 923.750 692.750" stroke="none" fill="#7c6c63" fill-rule="evenodd"/><path d="" stroke="none" fill="#836463" fill-rule="evenodd"/><path d="M 821.455 514.256 C 821.190 514.947, 821.098 531.035, 821.250 550.006 L 821.527 584.500 821.764 549.267 L 822 514.034 847.250 513.749 L 872.500 513.464 847.219 513.232 C 827.677 513.053, 821.828 513.285, 821.455 514.256 M 887.250 513.747 C 894.263 513.919, 905.737 513.919, 912.750 513.747 C 919.763 513.575, 914.025 513.435, 900 513.435 C 885.975 513.435, 880.237 513.575, 887.250 513.747 M 849.385 577 C 849.385 583.875, 849.545 586.688, 849.740 583.250 C 849.936 579.813, 849.936 574.188, 849.740 570.750 C 849.545 567.313, 849.385 570.125, 849.385 577 M 371.382 581.500 C 371.384 588.100, 371.546 590.670, 371.741 587.211 C 371.937 583.752, 371.936 578.352, 371.738 575.211 C 371.540 572.070, 371.380 574.900, 371.382 581.500 M 849.433 608.314 C 849.156 609.037, 849.074 614.550, 849.252 620.564 L 849.575 631.500 849.788 619.781 L 850 608.062 862.250 607.747 L 874.500 607.432 862.219 607.216 C 852.839 607.051, 849.818 607.311, 849.433 608.314 M 991.382 661.500 C 991.384 668.100, 991.546 670.670, 991.741 667.211 C 991.937 663.752, 991.936 658.352, 991.738 655.211 C 991.540 652.070, 991.380 654.900, 991.382 661.500 M 239.750 681.750 C 295.437 681.893, 386.562 681.893, 442.250 681.750 C 497.937 681.607, 452.375 681.490, 341 681.490 C 229.625 681.490, 184.062 681.607, 239.750 681.750 M 799.250 701.750 C 839.812 701.895, 906.187 701.895, 946.750 701.750 C 987.312 701.605, 954.125 701.487, 873 701.487 C 791.875 701.487, 758.687 701.605, 799.250 701.750" stroke="none" fill="#ebdff7" fill-rule="evenodd"/></svg>