<svg xmlns="http://www.w3.org/2000/svg" width="1080" height="1080" viewBox="0 0 1080 1080" version="1.1"><path d="M 161.722 353.084 C 116.589 357.881, 74.993 390.625, 59.028 433.924 C 53.493 448.937, 51.498 460.774, 51.517 478.500 C 51.535 495.188, 52.944 504.908, 57.168 517.500 C 65.059 541.023, 82.088 564.413, 102.500 579.765 C 110.248 585.592, 128.060 594.787, 137.787 597.982 C 155.002 603.635, 147.120 603.322, 281.500 603.677 C 349.700 603.858, 522.275 603.634, 665 603.180 L 924.500 602.356 934 599.770 C 967.047 590.773, 994.187 570.690, 1010.718 543 C 1029.322 511.838, 1033.931 472.178, 1022.862 438.500 C 1019.260 427.544, 1011.113 412.235, 1003.514 402.148 C 985.890 378.752, 962.938 363.517, 932 354.677 L 924.500 352.534 547 352.396 C 339.375 352.319, 166 352.629, 161.722 353.084 M 250.500 382.026 C 233.890 383.559, 219.213 388.763, 205.496 397.981 C 185.899 411.150, 171.765 431.228, 166.104 453.940 C 163.171 465.708, 163.088 491.113, 165.946 502.289 C 174.855 537.124, 204.224 564.870, 240.315 572.550 C 246.181 573.798, 287.812 574, 538.955 574 C 860.367 574, 838.190 574.426, 855 567.933 C 867.897 562.952, 877.615 556.529, 888.046 546.090 C 902.186 531.939, 909.373 519.591, 914 501.498 C 916.831 490.431, 916.860 464.682, 914.054 453.711 C 909.182 434.663, 896.771 415.425, 881.338 403.003 C 866.929 391.404, 849.081 383.834, 831.863 382.021 C 820.886 380.865, 263.028 380.869, 250.500 382.026 M 490 435.594 C 476.713 441.350, 470.143 458.963, 467.995 494.591 C 466.846 513.632, 467.413 517.128, 472.034 519.517 C 476.783 521.973, 481.727 521.427, 485.077 518.077 C 487.715 515.439, 488 514.513, 488 508.577 L 488 502 499 502 L 510 502 510 507.032 C 510 513.586, 512.193 518.743, 515.517 520.006 C 516.954 520.553, 520.161 521, 522.642 521 C 526.295 521, 527.710 520.444, 530.077 518.077 C 532.964 515.190, 533 515.013, 533 503.821 C 533 482.736, 529.088 458.972, 523.962 448.926 C 521.019 443.157, 516.020 437.915, 511.509 435.865 C 506.489 433.584, 494.975 433.440, 490 435.594 M 567.500 436.498 C 551.571 443.004, 543.750 462.302, 546.843 487.470 C 548.944 504.568, 554.022 513.409, 564.776 518.689 C 570.043 521.276, 571.418 521.500, 582 521.500 C 595.282 521.500, 599.493 520.356, 605.203 515.198 C 609.938 510.920, 612.822 505.578, 613.648 499.555 C 614.199 495.531, 613.965 494.811, 611.206 492.052 C 608.738 489.584, 607.321 489, 603.799 489 C 598.068 489, 595.281 491.115, 592.386 497.662 C 589.868 503.355, 587.508 505, 581.858 505 C 577.871 505, 573.535 500.609, 571.892 494.908 C 570.233 489.150, 570.225 465.876, 571.880 460.135 C 573.768 453.587, 576.861 451, 582.800 451 C 588.762 451, 590.569 452.680, 592.506 460.023 C 594.533 467.708, 597.110 470, 603.720 470 C 611.207 470, 614.004 467.221, 613.990 459.795 C 613.971 449.106, 606.435 439.059, 595.881 435.651 C 587.902 433.073, 574.937 433.461, 567.500 436.498 M 391.306 437.413 L 388.500 439.825 388.215 477.455 L 387.930 515.084 390.963 518.117 L 393.996 521.150 413.748 520.744 C 435.289 520.302, 438.638 519.659, 445.225 514.703 C 459.663 503.839, 457.324 479.874, 441.576 477.319 L 438.133 476.760 442.804 473.630 C 449.406 469.205, 452.412 463.365, 452.412 454.964 C 452.412 447.077, 450.035 442.495, 444.299 439.322 C 438.214 435.955, 431.078 435, 412.007 435 C 394.534 435, 394.045 435.057, 391.306 437.413 M 633.500 436.208 C 629.068 438.750, 629.065 438.775, 629.032 478.061 C 629.001 514.434, 629.064 515.692, 631.028 517.799 C 633.591 520.551, 636.899 521.384, 642.672 520.734 C 650.772 519.821, 651.448 518.360, 651.822 500.975 L 652.144 486 655.850 486 C 662.984 486, 665.562 489.704, 669.072 505 C 670.145 509.675, 671.564 514.551, 672.226 515.835 C 673.929 519.140, 678.103 521, 683.815 521 C 689.557 521, 693.528 518.470, 694.429 514.238 C 695.115 511.015, 690.063 491.005, 687.095 485.186 C 684.803 480.694, 679.992 476.287, 676.394 475.384 C 673.968 474.775, 673.990 474.718, 678.524 469.871 C 683.658 464.383, 690.883 450.289, 691.705 444.161 C 692.158 440.783, 691.837 439.746, 689.667 437.576 C 687.573 435.482, 686.137 435, 681.996 435 C 674.473 435, 671.543 436.934, 669.077 443.523 C 667.935 446.577, 667 449.565, 667 450.165 C 667 453.037, 660.258 464.438, 656.606 467.741 L 652.500 471.455 652 455.639 L 651.500 439.822 648.694 437.411 C 646.493 435.520, 644.769 435.007, 640.694 435.030 C 637.837 435.047, 634.600 435.577, 633.500 436.208 M 410 459.500 L 410 469 415.766 469 C 423.191 469, 428.095 466.505, 429.612 461.953 C 432.152 454.336, 427.309 450.004, 416.250 450.002 L 410 450 410 459.500 M 495.250 452.537 C 492.086 454.753, 490.020 462.830, 489.311 475.750 L 488.694 487 499.356 487 L 510.017 487 509.449 481.250 C 507.678 463.352, 505.070 454.178, 501.160 452.086 C 498.498 450.661, 497.860 450.710, 495.250 452.537 M 410 493.500 L 410 506 416.032 506 C 427.006 506, 433 501.513, 433 493.299 C 433 490.862, 432.514 487.960, 431.919 486.849 C 430.191 483.620, 423.271 481.047, 416.250 481.022 L 410 481 410 493.500" stroke="none" fill="#ffffff" fill-rule="evenodd"/><path d="M 250.500 382.026 C 233.890 383.559, 219.213 388.763, 205.496 397.981 C 185.899 411.150, 171.765 431.228, 166.104 453.940 C 163.171 465.708, 163.088 491.113, 165.946 502.289 C 174.855 537.124, 204.224 564.870, 240.315 572.550 C 246.181 573.798, 287.812 574, 538.955 574 C 860.367 574, 838.190 574.426, 855 567.933 C 867.897 562.952, 877.615 556.529, 888.046 546.090 C 902.186 531.939, 909.373 519.591, 914 501.498 C 916.831 490.431, 916.860 464.682, 914.054 453.711 C 909.182 434.663, 896.771 415.425, 881.338 403.003 C 866.929 391.404, 849.081 383.834, 831.863 382.021 C 820.886 380.865, 263.028 380.869, 250.500 382.026 M 490 435.594 C 476.713 441.350, 470.143 458.963, 467.995 494.591 C 466.846 513.632, 467.413 517.128, 472.034 519.517 C 476.783 521.973, 481.727 521.427, 485.077 518.077 C 487.715 515.439, 488 514.513, 488 508.577 L 488 502 499 502 L 510 502 510 507.032 C 510 513.586, 512.193 518.743, 515.517 520.006 C 516.954 520.553, 520.161 521, 522.642 521 C 526.295 521, 527.710 520.444, 530.077 518.077 C 532.964 515.190, 533 515.013, 533 503.821 C 533 482.736, 529.088 458.972, 523.962 448.926 C 521.019 443.157, 516.020 437.915, 511.509 435.865 C 506.489 433.584, 494.975 433.440, 490 435.594 M 567.500 436.498 C 551.571 443.004, 543.750 462.302, 546.843 487.470 C 548.944 504.568, 554.022 513.409, 564.776 518.689 C 570.043 521.276, 571.418 521.500, 582 521.500 C 595.282 521.500, 599.493 520.356, 605.203 515.198 C 609.938 510.920, 612.822 505.578, 613.648 499.555 C 614.199 495.531, 613.965 494.811, 611.206 492.052 C 608.738 489.584, 607.321 489, 603.799 489 C 598.068 489, 595.281 491.115, 592.386 497.662 C 589.868 503.355, 587.508 505, 581.858 505 C 577.871 505, 573.535 500.609, 571.892 494.908 C 570.233 489.150, 570.225 465.876, 571.880 460.135 C 573.768 453.587, 576.861 451, 582.800 451 C 588.762 451, 590.569 452.680, 592.506 460.023 C 594.533 467.708, 597.110 470, 603.720 470 C 611.207 470, 614.004 467.221, 613.990 459.795 C 613.971 449.106, 606.435 439.059, 595.881 435.651 C 587.902 433.073, 574.937 433.461, 567.500 436.498 M 391.306 437.413 L 388.500 439.825 388.215 477.455 L 387.930 515.084 390.963 518.117 L 393.996 521.150 413.748 520.744 C 435.289 520.302, 438.638 519.659, 445.225 514.703 C 459.663 503.839, 457.324 479.874, 441.576 477.319 L 438.133 476.760 442.804 473.630 C 449.406 469.205, 452.412 463.365, 452.412 454.964 C 452.412 447.077, 450.035 442.495, 444.299 439.322 C 438.214 435.955, 431.078 435, 412.007 435 C 394.534 435, 394.045 435.057, 391.306 437.413 M 633.500 436.208 C 629.068 438.750, 629.065 438.775, 629.032 478.061 C 629.001 514.434, 629.064 515.692, 631.028 517.799 C 633.591 520.551, 636.899 521.384, 642.672 520.734 C 650.772 519.821, 651.448 518.360, 651.822 500.975 L 652.144 486 655.850 486 C 662.984 486, 665.562 489.704, 669.072 505 C 670.145 509.675, 671.564 514.551, 672.226 515.835 C 673.929 519.140, 678.103 521, 683.815 521 C 689.557 521, 693.528 518.470, 694.429 514.238 C 695.115 511.015, 690.063 491.005, 687.095 485.186 C 684.803 480.694, 679.992 476.287, 676.394 475.384 C 673.968 474.775, 673.990 474.718, 678.524 469.871 C 683.658 464.383, 690.883 450.289, 691.705 444.161 C 692.158 440.783, 691.837 439.746, 689.667 437.576 C 687.573 435.482, 686.137 435, 681.996 435 C 674.473 435, 671.543 436.934, 669.077 443.523 C 667.935 446.577, 667 449.565, 667 450.165 C 667 453.037, 660.258 464.438, 656.606 467.741 L 652.500 471.455 652 455.639 L 651.500 439.822 648.694 437.411 C 646.493 435.520, 644.769 435.007, 640.694 435.030 C 637.837 435.047, 634.600 435.577, 633.500 436.208 M 410 459.500 L 410 469 415.766 469 C 423.191 469, 428.095 466.505, 429.612 461.953 C 432.152 454.336, 427.309 450.004, 416.250 450.002 L 410 450 410 459.500 M 495.250 452.537 C 492.086 454.753, 490.020 462.830, 489.311 475.750 L 488.694 487 499.356 487 L 510.017 487 509.449 481.250 C 507.678 463.352, 505.070 454.178, 501.160 452.086 C 498.498 450.661, 497.860 450.710, 495.250 452.537 M 410 493.500 L 410 506 416.032 506 C 427.006 506, 433 501.513, 433 493.299 C 433 490.862, 432.514 487.960, 431.919 486.849 C 430.191 483.620, 423.271 481.047, 416.250 481.022 L 410 481 410 493.500" stroke="none" fill="#fcc4c4" fill-rule="evenodd"/></svg>