<svg xmlns="http://www.w3.org/2000/svg" width="1080" height="1080" viewBox="0 0 1080 1080" version="1.1"><path d="M 403.289 314.535 C 400.423 315.307, 388.723 321.283, 377.289 327.815 C 349.427 343.732, 344.720 346.327, 284 379.244 C 227.266 410.001, 188.902 432.406, 160.500 451.370 C 139.407 465.454, 131.106 473.190, 126.015 483.506 L 122.564 490.500 112.532 495.449 C 85.377 508.846, 71.248 536.514, 77.527 564 C 78.343 567.575, 79.852 574.333, 80.880 579.018 C 86.921 606.552, 104.524 628.828, 123.629 633.114 C 128.604 634.230, 128.845 634.448, 131.629 640.359 C 137.863 653.595, 149.062 661.864, 190.500 683.829 C 203.527 690.734, 210.849 695.340, 217 700.498 C 248.273 726.724, 287.835 751.550, 344.246 780.347 C 367.403 792.169, 373.494 794.223, 385.500 794.262 C 395.639 794.294, 400.828 793.121, 409.465 788.843 C 417.562 784.832, 423.301 779.934, 427.832 773.168 C 434.818 762.733, 438 752.404, 438 740.161 C 438 726.129, 433.132 714.907, 423.222 706.094 C 419.717 702.978, 415.954 698.507, 414.725 696 C 413.511 693.525, 408.388 687.366, 403.340 682.312 C 396.433 675.398, 393.358 671.441, 390.914 666.319 C 387.242 658.626, 378.036 648.902, 364.101 638 C 357.017 632.457, 356.140 631.458, 358.147 631.214 C 360.308 630.951, 438.365 636.951, 478.500 640.465 C 506.668 642.932, 587.730 648.805, 616 650.428 C 630.575 651.265, 652.400 652.513, 664.500 653.202 C 694.465 654.909, 811.220 654.910, 841.500 653.204 C 896.248 650.120, 970.473 641.854, 983.793 637.358 C 993.925 633.938, 1003.408 626.002, 1007.912 617.173 C 1017.436 598.504, 1012.882 570.788, 997.574 554.253 L 992.190 548.438 995.961 540.707 C 1000.980 530.417, 1002.379 523.316, 1001.791 511.108 C 1001.372 502.400, 1000.888 500.298, 997.822 493.841 C 994.030 485.856, 987.533 478.569, 980.566 474.486 C 970.876 468.807, 949.518 461.194, 931.500 456.997 C 889.041 447.105, 846.550 446.792, 723.530 455.466 C 662.556 459.765, 626.556 461.096, 533.500 462.489 C 458.632 463.611, 388.396 465.052, 384.674 465.543 L 380.848 466.048 385.174 460.884 C 387.553 458.044, 391.059 453.934, 392.965 451.751 C 394.871 449.568, 410.528 436.767, 427.759 423.305 C 447.349 408.001, 460.628 396.894, 463.196 393.664 C 477.976 375.078, 475.680 351.418, 457.193 331.822 C 442.446 316.189, 421.767 309.558, 403.289 314.535" stroke="none" fill="#ffffff" fill-rule="evenodd"/><path d="" stroke="none" fill="#fffcfc" fill-rule="evenodd"/><path d="" stroke="none" fill="#fcfcfc" fill-rule="evenodd"/></svg>