<svg xmlns="http://www.w3.org/2000/svg" width="1080" height="1080" viewBox="0 0 1080 1080" version="1.1"><path d="M 894.370 725 C 894.370 730.775, 894.535 733.138, 894.737 730.250 C 894.939 727.362, 894.939 722.638, 894.737 719.750 C 894.535 716.862, 894.370 719.225, 894.370 725 M 694.206 726.250 L 694.411 735.500 694.742 726.921 L 695.073 718.342 699.786 720.622 C 702.379 721.876, 706.300 723.153, 708.500 723.459 C 711.489 723.875, 710.938 723.549, 706.319 722.168 C 702.919 721.152, 698.998 719.573, 697.604 718.660 C 696.211 717.747, 694.830 717, 694.535 717 C 694.241 717, 694.093 721.163, 694.206 726.250 M 743.768 728.725 C 745.565 728.947, 748.265 728.943, 749.768 728.715 C 751.271 728.486, 749.800 728.304, 746.500 728.310 C 743.200 728.315, 741.971 728.502, 743.768 728.725 M 757.776 729.733 C 760.128 729.945, 763.728 729.942, 765.776 729.727 C 767.824 729.512, 765.900 729.339, 761.500 729.343 C 757.100 729.346, 755.424 729.522, 757.776 729.733 M 822.776 729.733 C 825.128 729.945, 828.728 729.942, 830.776 729.727 C 832.824 729.512, 830.900 729.339, 826.500 729.343 C 822.100 729.346, 820.424 729.522, 822.776 729.733 M 785.299 730.745 C 790.139 730.929, 797.789 730.928, 802.299 730.743 C 806.810 730.558, 802.850 730.408, 793.500 730.409 C 784.150 730.410, 780.460 730.562, 785.299 730.745 M 775.768 748.725 C 777.565 748.947, 780.265 748.943, 781.768 748.715 C 783.271 748.486, 781.800 748.304, 778.500 748.310 C 775.200 748.315, 773.971 748.502, 775.768 748.725 M 807.768 748.725 C 809.565 748.947, 812.265 748.943, 813.768 748.715 C 815.271 748.486, 813.800 748.304, 810.500 748.310 C 807.200 748.315, 805.971 748.502, 807.768 748.725" stroke="none" fill="#6d5d79" fill-rule="evenodd"/><path d="M 501.500 33.633 C 416.695 40.196, 332.230 69.081, 261.796 115.606 C 202.664 154.665, 155.138 202.059, 116.646 260.352 C 64.975 338.603, 36.288 427.467, 33.137 519.039 C 30.937 582.969, 38.890 640.734, 57.847 698.500 C 92.832 805.108, 163.444 898.478, 256 960.514 C 325.958 1007.404, 394.515 1032.716, 484 1044.693 C 503.396 1047.289, 577.189 1047.284, 596.500 1044.685 C 685.413 1032.719, 754.297 1007.234, 824 960.514 C 895.403 912.656, 954.986 844.827, 994.012 766.977 C 1025.833 703.497, 1044.579 630.554, 1046.819 561.500 C 1048.905 497.191, 1041.733 443.170, 1023.431 385.336 C 992.328 287.046, 928.818 197.426, 846.191 135.226 C 773.774 80.711, 693.488 48.224, 600.559 35.833 C 588.095 34.171, 578.694 33.775, 546 33.535 C 524.275 33.376, 504.250 33.420, 501.500 33.633 M 511 109.666 C 465.196 114.186, 441.385 118.749, 409.053 129.199 C 313.820 159.980, 234.317 219.922, 180.526 301.500 C 166.977 322.047, 162.129 330.488, 151.854 351.421 C 92.776 471.781, 93.476 612.924, 153.750 733.500 C 210.021 846.070, 314.552 929.643, 436.360 959.449 C 472.745 968.352, 499.370 971.450, 539.500 971.450 C 572.535 971.450, 584.688 970.471, 614 965.449 C 716.189 947.940, 810.850 891.873, 876.451 810 C 927.398 746.415, 958.488 671.255, 968.692 587 C 970.890 568.850, 971.186 516.817, 969.196 498.500 C 958.172 397.045, 917.111 309.508, 846.606 237.155 C 810.532 200.135, 763.128 167.379, 715 146.214 C 657.014 120.715, 599.632 108.730, 537.589 109.160 C 524.890 109.248, 512.925 109.476, 511 109.666" stroke="none" fill="#ffffff" fill-rule="evenodd"/><path d="M 514.206 110.076 C 447.226 114.341, 385.161 132.825, 325.500 166.276 C 278.033 192.891, 230.313 234.701, 196.844 279 C 143.239 349.951, 112.905 433.678, 109.166 521 C 101.223 706.495, 210.573 874.413, 383.500 942.270 C 420.602 956.829, 461.577 966.306, 503.500 970.024 C 517.348 971.253, 554.643 971.523, 570 970.507 C 593.488 968.953, 623.615 963.874, 650.500 956.937 C 710.475 941.462, 771.254 909.529, 819.500 868.143 C 857.269 835.745, 888.381 798.280, 912.954 755.607 C 963.176 668.388, 981.124 568.131, 964.449 467.941 C 954.667 409.163, 931.392 351.039, 897.242 300.101 C 880.564 275.223, 868.773 260.784, 847.073 238.665 C 802.813 193.551, 754.576 161.788, 694.822 138.414 C 638.078 116.216, 574.479 106.238, 514.206 110.076 M 593.500 323.120 C 578.202 326.634, 527.908 347.008, 500 360.998 C 468.745 376.664, 419.116 391.717, 373.495 399.367 C 338.883 405.170, 314.972 406.136, 299.500 402.354 C 285.958 399.044, 247.787 383.735, 214.102 368.105 C 198.620 360.921, 196.986 360.366, 195.710 361.860 C 190.815 367.594, 180.972 390.726, 176.291 407.500 C 173.607 417.116, 173.500 418.383, 173.500 440.500 C 173.500 464.102, 174.175 471.787, 178.594 498.500 C 182.513 522.190, 184.978 533.412, 186.521 534.592 C 187.307 535.193, 194.149 536.682, 201.725 537.902 C 231.906 542.763, 280.302 552.970, 299.511 558.526 C 318.833 564.115, 325.298 566.696, 352 579.484 C 381.967 593.835, 393.731 597.507, 414.383 598.955 C 433.099 600.268, 451.796 597.900, 474.304 591.367 C 489.783 586.874, 501.503 582.126, 524 571.233 C 562.578 552.553, 572.391 550.254, 617.500 549.328 L 643.500 548.794 648.601 553.841 C 656.224 561.382, 660.840 561.813, 667.775 555.627 C 671.234 552.542, 671.857 552.348, 676.500 552.907 C 679.379 553.254, 680.995 553.835, 680.309 554.277 C 678.889 555.193, 667.430 571.580, 663.659 578.088 C 660.508 583.524, 660.255 588.764, 662.865 594.509 C 665.188 599.622, 670.974 604.717, 675.400 605.547 C 682.816 606.938, 686.136 604.885, 712.219 582.779 C 719.214 576.851, 725.289 572.007, 725.719 572.016 C 726.148 572.025, 729.875 578.631, 734 586.697 C 743.685 605.634, 753.482 622.847, 762.048 635.975 C 765.808 641.736, 768.797 646.534, 768.692 646.636 C 768.586 646.739, 762.425 647.328, 755 647.945 C 730.584 649.976, 714.750 653.250, 710.945 657.055 C 709.125 658.875, 709 660.564, 709 683.381 L 709 707.763 704.750 708.858 C 702.413 709.460, 699.023 710.866, 697.217 711.982 L 693.935 714.010 694.217 725.201 L 694.500 736.392 697.781 738.306 C 704.698 742.341, 725.166 745.998, 752 747.992 C 769.488 749.292, 818.560 749.279, 836.500 747.971 C 862.968 746.040, 883.792 742.441, 890.613 738.619 L 894.500 736.441 894.785 725.588 C 895.122 712.769, 894.756 712.096, 885.956 709.346 L 880.048 707.500 879.774 682.555 L 879.500 657.611 876.495 655.857 C 869.823 651.961, 850.206 648.650, 826.411 647.404 L 813.321 646.718 811.810 642.109 C 808.184 631.051, 797.258 600.105, 786.563 570.605 C 780.203 553.063, 775 538.357, 775 537.927 C 775 537.496, 777.362 536.257, 780.250 535.173 C 789.283 531.783, 810.912 522.136, 815.469 519.465 C 817.866 518.061, 821.605 514.982, 823.778 512.624 C 832.892 502.737, 834.662 486.648, 828.008 474.166 C 824.277 467.166, 818.875 462.161, 811.758 459.111 C 806.077 456.675, 803.551 456.212, 789.665 455.062 C 783.706 454.568, 778.603 453.937, 778.325 453.658 C 778.047 453.380, 778.760 449.432, 779.910 444.886 C 783.105 432.248, 782.865 430.466, 777.227 425.031 C 768.710 416.822, 729.070 390.771, 692.030 369.040 C 679.713 361.814, 668.656 355.136, 667.459 354.201 C 666.262 353.265, 662.181 349.882, 658.391 346.683 C 654.601 343.484, 648.125 339.271, 644 337.321 C 639.875 335.371, 632.450 331.841, 627.500 329.476 C 612.437 322.279, 604.015 320.704, 593.500 323.120" stroke="none" fill="#ffc7c2" fill-rule="evenodd"/><path d="M 880.404 710.472 C 881.980 716.752, 868.578 720.917, 836.500 724.114 C 820.938 725.665, 768.065 725.642, 752 724.076 C 721.443 721.099, 706.737 716.555, 708.605 710.669 C 709.165 708.906, 708.887 708.773, 705.908 709.368 C 704.081 709.734, 700.992 710.813, 699.043 711.766 C 676.595 722.750, 756.426 733.283, 829.500 728.980 C 848.592 727.855, 867.053 725.690, 877.500 723.351 C 881.350 722.488, 885.288 721.735, 886.250 721.677 C 887.212 721.619, 888 721.328, 888 721.030 C 888 720.732, 889.350 719.891, 891 719.160 C 894.192 717.747, 894.933 715.019, 892.641 713.117 C 891.894 712.497, 888.697 711.100, 885.537 710.013 L 879.792 708.036 880.404 710.472" stroke="none" fill="#645694" fill-rule="evenodd"/><path d="M 708.501 710.999 C 707.321 712.907, 711.683 716.536, 717.254 718.280 C 751.147 728.894, 852.776 727.691, 876.582 716.394 C 880.140 714.706, 881.640 712.240, 880.066 710.666 C 879.399 709.999, 878.857 710.209, 878.440 711.296 C 877.577 713.545, 868.877 716.620, 858.333 718.403 C 840.609 721.398, 825.043 722.365, 794.500 722.365 C 747.949 722.365, 718.595 718.666, 711.384 711.891 C 709.872 710.471, 708.995 710.199, 708.501 710.999 M 695 727.011 C 695 737.267, 695.236 737.585, 704.937 740.417 C 745.106 752.140, 865.307 750.597, 889.918 738.042 L 894 735.959 894 727.013 L 894 718.067 890.750 719.931 C 877.408 727.579, 815.984 732.579, 766.236 730.067 C 731.750 728.325, 705.923 724.512, 698.354 720.046 L 695 718.067 695 727.011" stroke="none" fill="#494368" fill-rule="evenodd"/><path d="M 750 649.079 C 736.203 650.388, 721.891 653.025, 716.014 655.339 C 706.375 659.135, 708.642 662.571, 723.125 666.118 L 731.500 668.169 753 662.543 C 764.825 659.448, 775.111 656.706, 775.857 656.448 C 776.828 656.114, 776.258 654.867, 773.857 652.075 C 770.633 648.325, 770.261 648.171, 764.500 648.221 C 761.200 648.249, 754.675 648.635, 750 649.079 M 817.250 649.119 C 815.462 649.635, 814 650.719, 814 651.529 C 814 652.338, 814.263 653, 814.583 653 C 815.720 653, 831.506 648.825, 831.917 648.416 C 832.729 647.606, 820.450 648.195, 817.250 649.119 M 831.970 657.668 C 817.412 661.171, 802.350 664.665, 798.500 665.433 C 794.650 666.200, 787.675 667.763, 783 668.907 C 774.324 671.029, 762.187 671.560, 754.500 670.152 C 750.703 669.457, 751.158 669.255, 763.500 666.161 C 783.608 661.120, 784.098 660.968, 783.471 659.953 C 782.510 658.397, 780.367 658.753, 761.250 663.644 C 743.525 668.179, 739.299 670, 746.500 670 L 750 670 750 695.500 L 750 721 755.750 721.009 C 758.913 721.013, 763.862 721.301, 766.750 721.648 L 772 722.279 772 697.277 L 772 672.276 801.750 671.696 C 833.500 671.077, 846.679 670.036, 862.260 666.914 C 873.687 664.624, 879 662.377, 879 659.835 C 879 657.511, 873.349 654.666, 864.970 652.774 L 858.440 651.298 831.970 657.668 M 734 693.500 L 734 719 737 719 L 740 719 740 694.107 C 740 672.330, 739.802 669.138, 738.418 668.607 C 733.946 666.891, 734 666.589, 734 693.500" stroke="none" fill="#d13346" fill-rule="evenodd"/><path d="M 710 685.625 C 710 708.503, 710.120 710.120, 711.961 711.961 C 713.966 713.966, 720.784 716.293, 729.250 717.862 L 734 718.742 734 693.599 L 734 668.456 725.893 666.780 C 721.434 665.858, 716.034 664.237, 713.893 663.177 L 710 661.251 710 685.625 M 874.909 663.489 C 871.481 665.352, 855.085 668.593, 842 669.993 C 836.225 670.611, 818.112 671.377, 801.750 671.696 L 772 672.276 772 697.138 L 772 722 795.300 722 C 837.961 722, 871.072 717.928, 877.055 711.945 C 878.874 710.126, 879 708.440, 879 686 C 879 672.800, 878.663 662.018, 878.250 662.040 C 877.837 662.062, 876.334 662.714, 874.909 663.489 M 740.233 694.129 L 740.500 719.500 745.250 719.805 L 750 720.110 750 695.055 L 750 670 747.250 669.986 C 745.737 669.979, 743.480 669.699, 742.233 669.365 L 739.965 668.758 740.233 694.129" stroke="none" fill="#c12f3a" fill-rule="evenodd"/><path d="M 623 330.766 C 615.436 331.214, 605.038 332.938, 593.500 335.658 C 580.976 338.610, 578.296 339.696, 579.808 341.208 C 580.505 341.905, 583.963 341.409, 590.665 339.649 C 601.980 336.678, 617.591 334.010, 623.691 334.004 C 627.734 334, 630.146 332.533, 628.363 331.163 C 627.888 330.798, 625.475 330.619, 623 330.766 M 669 362.334 C 669 363.067, 672.873 368.580, 677.607 374.584 C 691.818 392.607, 728.636 445.283, 730.600 450.400 C 730.987 451.408, 726.019 451.830, 707.296 452.380 C 694.208 452.765, 673.600 453.893, 661.500 454.886 L 639.500 456.693 635.897 453.879 C 633.915 452.331, 630.623 449.025, 628.580 446.532 C 626.537 444.040, 624.081 442, 623.121 442 C 622.161 442, 620.378 443.350, 619.158 445 C 616.012 449.255, 612.827 448.905, 604.621 443.399 C 596.452 437.920, 591.494 435.709, 589.087 436.472 C 587.375 437.016, 586.493 438.407, 584.119 444.309 C 582.792 447.608, 577.594 450.182, 567.404 452.586 C 558.395 454.712, 548.514 454.041, 522.514 449.535 C 509.928 447.354, 502.178 446.422, 501.581 447.019 C 501.060 447.540, 500.879 448.212, 501.179 448.512 C 503.198 450.531, 564.784 459.469, 587.500 461.039 C 605.987 462.317, 608.854 462.202, 657 458.247 C 685.965 455.868, 693.688 455.604, 728 455.822 C 769.628 456.086, 777 455.722, 777 453.403 C 777 452.172, 774.972 452.049, 763.750 452.603 L 750.500 453.256 746.013 446.378 C 740.246 437.539, 724.664 421.821, 714.808 414.900 C 708.161 410.233, 705.802 407.667, 697.434 396 C 685.841 379.835, 670.986 361, 669.830 361 C 669.374 361, 669 361.600, 669 362.334 M 780.975 458.971 C 769.432 461.486, 759.852 465.470, 755.735 469.469 C 751.213 473.860, 749.632 479.776, 750.184 490.236 C 750.728 500.556, 754.003 508.375, 759.553 512.607 L 763.347 515.500 779.924 515.498 C 802.014 515.495, 819.521 511.759, 826.799 505.495 C 829.887 502.837, 829.029 500.864, 825.705 502.977 C 815.910 509.205, 803.458 511.991, 782.500 512.646 C 768.009 513.099, 766.170 512.964, 763 511.216 C 753.091 505.752, 749.343 481.373, 757.060 472.584 C 762.746 466.108, 778.518 461.169, 796.287 460.299 C 804.265 459.909, 807.955 459.363, 807.706 458.611 C 807.071 456.692, 790.406 456.917, 780.975 458.971 M 182.981 520.155 C 183.461 521.995, 184.353 526.015, 184.964 529.090 L 186.075 534.679 202.788 537.429 C 240.699 543.667, 286.330 553.647, 307.500 560.331 C 322.636 565.110, 324.710 565.964, 348 577.009 C 381.074 592.695, 391.521 596.175, 411.469 598.154 C 435.718 600.559, 464.238 595.646, 494.815 583.795 C 500.489 581.596, 504.944 579.610, 504.715 579.382 C 504.487 579.153, 499.620 580.087, 493.900 581.456 C 476.184 585.697, 460.428 587.373, 438.500 587.348 C 401.500 587.305, 380.509 581.782, 348.646 563.707 C 341.339 559.562, 334.845 554.834, 328.773 549.238 C 314.555 536.134, 300.007 526.593, 297.724 528.876 C 297.008 529.592, 297.708 530.468, 299.990 531.707 C 311.209 537.797, 326.988 550.237, 321.500 548.664 C 320.400 548.349, 289.784 541.353, 253.463 533.118 C 217.143 524.883, 186.230 517.845, 184.768 517.478 C 182.175 516.827, 182.130 516.893, 182.981 520.155 M 767.500 537.558 C 760.834 539.397, 730.368 544.467, 710.500 547.044 C 693.018 549.311, 682.228 549.620, 659.750 548.496 C 649.042 547.960, 645 548.067, 645 548.885 C 645 550.908, 653.782 558.725, 656.676 559.278 C 660.196 559.951, 664.753 558.068, 667.924 554.629 C 669.959 552.423, 671.205 552, 675.674 552 C 678.603 552, 681 552.185, 681 552.411 C 681 552.637, 677.467 558.150, 673.150 564.661 C 661.278 582.564, 659.993 585.691, 665.543 583.162 C 672.732 579.887, 684.031 583.548, 691.612 591.609 L 695.725 595.982 703.612 589.234 C 715.877 578.740, 726.021 570.687, 726.436 571.113 C 726.644 571.326, 730.308 578.250, 734.578 586.500 C 744.768 606.186, 755.639 625.121, 763.859 637.500 C 767.511 643, 770.667 647.950, 770.872 648.500 C 771.077 649.050, 772.579 650.912, 774.210 652.637 C 775.840 654.363, 776.797 655.982, 776.337 656.236 C 775.877 656.489, 766.100 659.123, 754.611 662.087 C 736.208 666.836, 734.125 667.572, 737.111 668.274 C 739.755 668.895, 744.742 667.963, 759.785 664.035 C 779.773 658.816, 782.480 658.350, 783.471 659.953 C 784.098 660.968, 783.608 661.120, 763.500 666.161 C 751.158 669.255, 750.703 669.457, 754.500 670.152 C 762.936 671.697, 774.097 671.036, 785.876 668.294 C 792.269 666.806, 797.725 665.344, 798 665.044 C 798.275 664.745, 800.075 664.430, 802 664.344 C 808.356 664.061, 858.727 651.277, 856 650.639 C 854.625 650.318, 849.213 649.574, 843.973 648.987 C 835.062 647.988, 833.835 648.083, 824.973 650.457 C 813.854 653.436, 814 653.422, 814 651.539 C 814 650.682, 815.760 649.558, 818.250 648.825 L 822.500 647.572 817.558 647.036 C 812.973 646.539, 812.555 646.262, 811.769 643.210 L 810.922 639.919 807.970 642.021 C 798.999 648.410, 787.144 642.938, 774.966 626.789 C 763.007 610.929, 745 568.159, 745 555.612 C 745 552.530, 745.611 551.567, 749.250 548.915 C 755.431 544.410, 759.722 542.465, 766.616 541.044 C 773.672 539.590, 775.532 538.670, 774.569 537.112 C 773.759 535.802, 773.898 535.793, 767.500 537.558 M 879.434 683.500 C 879.433 697.250, 879.574 703.014, 879.747 696.308 C 879.919 689.603, 879.920 678.353, 879.748 671.308 C 879.576 664.264, 879.434 669.750, 879.434 683.500" stroke="none" fill="#cc6b5e" fill-rule="evenodd"/><path d="M 593.500 323.120 C 578.202 326.634, 527.908 347.008, 500 360.998 C 468.745 376.664, 419.116 391.717, 373.495 399.367 C 338.883 405.170, 314.972 406.136, 299.500 402.354 C 285.958 399.044, 247.787 383.735, 214.102 368.105 C 198.620 360.921, 196.986 360.366, 195.710 361.860 C 190.891 367.505, 181.019 390.609, 176.423 407 C 171.684 423.903, 171.904 454.676, 177.007 488.715 C 179.318 504.130, 181.510 515.843, 182.215 516.549 C 182.500 516.834, 213.506 524.048, 251.117 532.581 C 288.727 541.113, 320.400 548.352, 321.500 548.666 C 326.983 550.233, 311.213 537.799, 299.990 531.707 C 297.708 530.468, 297.008 529.592, 297.724 528.876 C 300.007 526.593, 314.555 536.134, 328.773 549.238 C 334.845 554.834, 341.339 559.562, 348.646 563.707 C 380.509 581.782, 401.500 587.305, 438.500 587.348 C 460.428 587.373, 476.184 585.697, 493.900 581.456 C 499.620 580.087, 504.532 579.199, 504.817 579.483 C 505.101 579.767, 504.733 580, 504 580 C 503.267 580, 502.902 580.236, 503.190 580.524 C 504.010 581.343, 507.050 579.891, 506.473 578.956 C 506.189 578.497, 506.754 578.162, 507.728 578.211 C 508.703 578.261, 516.577 574.853, 525.227 570.638 C 562.522 552.462, 575.346 549.607, 620 549.538 C 633.475 549.517, 644.779 549.118, 645.120 548.652 C 645.460 548.186, 654.473 548.212, 665.147 548.709 C 675.957 549.214, 688.973 549.243, 694.528 548.777 C 708.287 547.621, 743.912 542.393, 759 539.316 C 765.875 537.914, 772.850 536.656, 774.500 536.521 C 778.132 536.225, 781.703 534.890, 798.306 527.624 C 814.467 520.550, 818.853 517.968, 823.778 512.624 C 832.892 502.737, 834.662 486.648, 828.008 474.166 C 826.149 470.679, 822.790 466.323, 820.533 464.474 C 815.768 460.569, 806.825 456.380, 807.607 458.419 C 807.993 459.424, 805.415 459.853, 796.303 460.299 C 778.517 461.169, 762.749 466.105, 757.060 472.584 C 749.343 481.373, 753.091 505.752, 763 511.216 C 766.170 512.964, 768.009 513.099, 782.500 512.646 C 803.458 511.991, 815.910 509.205, 825.705 502.977 C 829.029 500.864, 829.887 502.837, 826.799 505.495 C 819.521 511.759, 802.014 515.495, 779.924 515.498 L 763.347 515.500 759.553 512.607 C 754.003 508.375, 750.728 500.556, 750.184 490.236 C 749.383 475.053, 753.176 468.544, 765.763 463.505 C 774.409 460.044, 788.723 457.065, 797.500 456.900 C 806.334 456.733, 804.488 456.281, 790.169 455.103 C 783.937 454.591, 778.609 453.942, 778.328 453.662 C 778.048 453.382, 778.760 449.432, 779.910 444.886 C 783.105 432.248, 782.865 430.466, 777.227 425.031 C 768.710 416.822, 729.070 390.771, 692.030 369.040 C 679.713 361.814, 668.656 355.136, 667.459 354.201 C 666.262 353.265, 662.181 349.882, 658.391 346.683 C 654.601 343.484, 648.125 339.271, 644 337.321 C 639.875 335.371, 632.450 331.841, 627.500 329.476 C 612.437 322.279, 604.015 320.704, 593.500 323.120 M 623 330.766 C 615.436 331.214, 605.038 332.938, 593.500 335.658 C 580.976 338.610, 578.296 339.696, 579.808 341.208 C 580.505 341.905, 583.963 341.409, 590.665 339.649 C 601.980 336.678, 617.591 334.010, 623.691 334.004 C 627.734 334, 630.146 332.533, 628.363 331.163 C 627.888 330.798, 625.475 330.619, 623 330.766 M 669 362.334 C 669 363.067, 672.873 368.580, 677.607 374.584 C 691.818 392.607, 728.636 445.283, 730.600 450.400 C 730.987 451.408, 726.019 451.830, 707.296 452.380 C 694.208 452.765, 673.600 453.893, 661.500 454.886 L 639.500 456.693 635.897 453.879 C 633.915 452.331, 630.623 449.025, 628.580 446.532 C 626.537 444.040, 624.081 442, 623.121 442 C 622.161 442, 620.378 443.350, 619.158 445 C 616.012 449.255, 612.827 448.905, 604.621 443.399 C 596.452 437.920, 591.494 435.709, 589.087 436.472 C 587.375 437.016, 586.493 438.407, 584.119 444.309 C 582.792 447.608, 577.594 450.182, 567.404 452.586 C 558.395 454.712, 548.514 454.041, 522.514 449.535 C 509.928 447.354, 502.178 446.422, 501.581 447.019 C 501.060 447.540, 500.879 448.212, 501.179 448.512 C 503.198 450.531, 564.784 459.469, 587.500 461.039 C 605.987 462.317, 608.854 462.202, 657 458.247 C 685.965 455.868, 693.688 455.604, 728 455.822 C 769.628 456.086, 777 455.722, 777 453.403 C 777 452.172, 774.972 452.049, 763.750 452.603 L 750.500 453.256 746.013 446.378 C 740.246 437.539, 724.664 421.821, 714.808 414.900 C 708.161 410.233, 705.802 407.667, 697.434 396 C 685.841 379.835, 670.986 361, 669.830 361 C 669.374 361, 669 361.600, 669 362.334 M 766.474 540.975 C 758.652 542.915, 755.486 544.375, 749.250 548.917 C 745.611 551.568, 745 552.530, 745 555.612 C 745 568.159, 763.007 610.929, 774.966 626.789 C 787.118 642.904, 799.001 648.408, 807.924 642.054 C 809.521 640.917, 811.018 640.327, 811.250 640.743 C 811.847 641.815, 811.565 640.988, 802.977 616.500 C 788.097 574.074, 775.327 539.610, 774.418 539.422 C 773.913 539.317, 770.338 540.016, 766.474 540.975 M 669.218 569.250 C 665.568 574.640, 664.779 576, 665.299 576 C 665.529 576, 667.360 573.525, 669.369 570.500 C 671.377 567.475, 672.812 565, 672.558 565 C 672.304 565, 670.801 566.913, 669.218 569.250 M 662.526 579.950 C 656.459 591.681, 669.067 608.341, 681.881 605.526 C 684.572 604.935, 698 595.548, 698 594.258 C 698 593.981, 697.397 594.256, 696.659 594.868 C 695.617 595.733, 694.641 595.136, 692.273 592.190 C 685.940 584.309, 672.780 579.865, 665.543 583.162 C 662.132 584.716, 661.523 583.822, 663.452 580.093 C 664.332 578.392, 664.826 577, 664.551 577 C 664.276 577, 663.365 578.328, 662.526 579.950 M 735 589 C 736.666 592.300, 738.254 595, 738.529 595 C 738.804 595, 737.666 592.300, 736 589 C 734.334 585.700, 732.746 583, 732.471 583 C 732.196 583, 733.334 585.700, 735 589 M 768.464 645.941 C 768.784 646.459, 767.123 647.056, 764.773 647.267 C 760.757 647.627, 760.824 647.661, 765.872 647.825 C 770.545 647.977, 771.083 647.805, 770 646.500 C 768.628 644.846, 767.543 644.452, 768.464 645.941 M 709.434 683.500 C 709.433 697.250, 709.574 703.014, 709.747 696.308 C 709.919 689.603, 709.920 678.353, 709.748 671.308 C 709.576 664.264, 709.434 669.750, 709.434 683.500" stroke="none" fill="#f8a796" fill-rule="evenodd"/><path d="M 785.199 722.744 C 789.984 722.927, 798.084 722.928, 803.199 722.746 C 808.315 722.564, 804.400 722.414, 794.500 722.413 C 784.600 722.412, 780.415 722.561, 785.199 722.744" stroke="none" fill="#ae4454" fill-rule="evenodd"/><path d="M 516.750 109.723 C 518.538 109.945, 521.462 109.945, 523.250 109.723 C 525.038 109.502, 523.575 109.320, 520 109.320 C 516.425 109.320, 514.962 109.502, 516.750 109.723 M 556.768 109.725 C 558.565 109.947, 561.265 109.943, 562.768 109.715 C 564.271 109.486, 562.800 109.304, 559.500 109.310 C 556.200 109.315, 554.971 109.502, 556.768 109.725 M 842.500 234 C 849.634 241.150, 855.696 247, 855.971 247 C 856.246 247, 850.634 241.150, 843.500 234 C 836.366 226.850, 830.304 221, 830.029 221 C 829.754 221, 835.366 226.850, 842.500 234 M 234.479 235.250 L 225.500 244.500 234.750 235.521 C 239.838 230.582, 244 226.420, 244 226.271 C 244 225.545, 242.819 226.659, 234.479 235.250 M 970.336 523 C 970.336 527.125, 970.513 528.813, 970.728 526.750 C 970.944 524.688, 970.944 521.313, 970.728 519.250 C 970.513 517.188, 970.336 518.875, 970.336 523 M 108.365 527.500 C 108.368 533, 108.536 535.122, 108.738 532.216 C 108.941 529.311, 108.939 524.811, 108.734 522.216 C 108.528 519.622, 108.363 522, 108.365 527.500 M 108.365 553.500 C 108.368 559, 108.536 561.122, 108.738 558.216 C 108.941 555.311, 108.939 550.811, 108.734 548.216 C 108.528 545.622, 108.363 548, 108.365 553.500 M 970.336 558 C 970.336 562.125, 970.513 563.813, 970.728 561.750 C 970.944 559.688, 970.944 556.313, 970.728 554.250 C 970.513 552.188, 970.336 553.875, 970.336 558 M 845 844.500 C 840.903 848.625, 837.775 852, 838.050 852 C 838.325 852, 841.903 848.625, 846 844.500 C 850.097 840.375, 853.225 837, 852.950 837 C 852.675 837, 849.097 840.375, 845 844.500 M 521.784 971.738 C 524.689 971.941, 529.189 971.939, 531.784 971.734 C 534.378 971.528, 532 971.363, 526.500 971.365 C 521 971.368, 518.878 971.536, 521.784 971.738 M 547.784 971.738 C 550.689 971.941, 555.189 971.939, 557.784 971.734 C 560.378 971.528, 558 971.363, 552.500 971.365 C 547 971.368, 544.878 971.536, 547.784 971.738" stroke="none" fill="#fbcfcd" fill-rule="evenodd"/></svg>