<svg xmlns="http://www.w3.org/2000/svg" width="1080" height="1080" viewBox="0 0 1080 1080" version="1.1"><path d="M 511.175 29.095 C 440.397 32.773, 368.613 53.388, 304.762 88.374 C 169.437 162.524, 75.450 299.724, 56.008 451.500 C 51.443 487.132, 50.893 529.709, 54.541 565 C 73.969 752.934, 197.379 910.871, 375.159 975.318 C 409.753 987.859, 448.807 996.728, 489 1001.172 C 516.800 1004.246, 562.211 1004.245, 590 1001.171 C 705.729 988.367, 808.683 938.604, 888.525 856.879 C 966.862 776.693, 1013.360 677.513, 1025.598 564.500 C 1028.744 535.445, 1027.818 488.441, 1023.401 453 C 1009.991 345.390, 959.395 244.189, 880.388 166.944 C 823.260 111.090, 755.786 71.360, 679.267 48.519 C 624.805 32.263, 570.654 26.005, 511.175 29.095 M 524.266 194.154 C 489.366 195.652, 454.084 203.075, 422.119 215.646 C 394.581 226.475, 362.119 245.330, 338.986 263.933 C 325.305 274.934, 300.780 299.506, 289.071 313.943 C 251.443 360.337, 227.913 415.578, 219.827 476.500 C 218.029 490.051, 218.043 540.941, 219.849 555 C 221.760 569.875, 226.383 592.456, 230.396 606.510 C 241.079 643.931, 262.030 684.365, 287.388 716.503 C 297.666 729.528, 325.543 757.267, 339.500 768.356 C 379.573 800.196, 427.299 822.513, 475.500 831.949 C 498.377 836.428, 515.451 838.062, 539.311 838.055 C 562.922 838.049, 574.882 837.082, 595.500 833.512 C 648.666 824.306, 697.807 802.230, 740.500 768.372 C 754.346 757.392, 780.988 730.771, 791.913 717 C 826.319 673.631, 848.868 623.259, 857.943 569.500 C 863.528 536.411, 863.498 497.141, 857.862 463 C 841.049 361.162, 775.016 272.560, 681.670 226.591 C 648.603 210.306, 615.109 200.420, 576.288 195.485 C 566.142 194.196, 539.298 193.509, 524.266 194.154 M 515.409 340.613 C 501.852 368.051, 486.553 399.163, 481.411 409.750 C 476.270 420.337, 471.650 429, 471.147 429 C 469.008 429, 325.238 450.047, 322.608 450.745 C 319.793 451.492, 321.182 452.939, 374.608 504.927 C 422.307 551.342, 429.458 558.679, 429.179 560.921 C 429.003 562.339, 423.249 596.297, 416.394 636.382 C 409.539 676.467, 404.098 709.431, 404.302 709.636 C 404.507 709.840, 433.435 694.876, 468.587 676.382 C 503.739 657.888, 534.300 641.881, 536.500 640.810 L 540.500 638.862 607.132 673.917 C 643.780 693.197, 674.404 709.218, 675.187 709.518 C 676.268 709.933, 673.535 692.080, 663.821 635.282 C 656.786 594.152, 651.024 559.985, 651.015 559.356 C 651.007 558.727, 675.709 534.202, 705.910 504.856 C 757.793 454.442, 760.673 451.459, 758.160 450.761 C 756.697 450.355, 722.425 445.244, 682 439.405 C 641.575 433.566, 608.438 428.723, 608.363 428.644 C 608.288 428.565, 593.055 397.675, 574.514 360 C 555.972 322.325, 540.634 291.326, 540.430 291.113 C 540.226 290.900, 528.967 313.175, 515.409 340.613" stroke="none" fill="#fcd24f" fill-rule="evenodd"/><path d="M 511.175 29.095 C 440.397 32.773, 368.613 53.388, 304.762 88.374 C 169.437 162.524, 75.450 299.724, 56.008 451.500 C 51.443 487.132, 50.893 529.709, 54.541 565 C 73.969 752.934, 197.379 910.871, 375.159 975.318 C 409.753 987.859, 448.807 996.728, 489 1001.172 C 516.800 1004.246, 562.211 1004.245, 590 1001.171 C 705.729 988.367, 808.683 938.604, 888.525 856.879 C 966.862 776.693, 1013.360 677.513, 1025.598 564.500 C 1028.744 535.445, 1027.818 488.441, 1023.401 453 C 1009.991 345.390, 959.395 244.189, 880.388 166.944 C 823.260 111.090, 755.786 71.360, 679.267 48.519 C 624.805 32.263, 570.654 26.005, 511.175 29.095 M 524.266 194.154 C 489.366 195.652, 454.084 203.075, 422.119 215.646 C 394.581 226.475, 362.119 245.330, 338.986 263.933 C 325.305 274.934, 300.780 299.506, 289.071 313.943 C 251.443 360.337, 227.913 415.578, 219.827 476.500 C 218.029 490.051, 218.043 540.941, 219.849 555 C 221.760 569.875, 226.383 592.456, 230.396 606.510 C 241.079 643.931, 262.030 684.365, 287.388 716.503 C 297.666 729.528, 325.543 757.267, 339.500 768.356 C 379.573 800.196, 427.299 822.513, 475.500 831.949 C 498.377 836.428, 515.451 838.062, 539.311 838.055 C 562.922 838.049, 574.882 837.082, 595.500 833.512 C 648.666 824.306, 697.807 802.230, 740.500 768.372 C 754.346 757.392, 780.988 730.771, 791.913 717 C 826.319 673.631, 848.868 623.259, 857.943 569.500 C 863.528 536.411, 863.498 497.141, 857.862 463 C 841.049 361.162, 775.016 272.560, 681.670 226.591 C 648.603 210.306, 615.109 200.420, 576.288 195.485 C 566.142 194.196, 539.298 193.509, 524.266 194.154 M 515.409 340.613 C 501.852 368.051, 486.553 399.163, 481.411 409.750 C 476.270 420.337, 471.650 429, 471.147 429 C 469.008 429, 325.238 450.047, 322.608 450.745 C 319.793 451.492, 321.182 452.939, 374.608 504.927 C 422.307 551.342, 429.458 558.679, 429.179 560.921 C 429.003 562.339, 423.249 596.297, 416.394 636.382 C 409.539 676.467, 404.098 709.431, 404.302 709.636 C 404.507 709.840, 433.435 694.876, 468.587 676.382 C 503.739 657.888, 534.300 641.881, 536.500 640.810 L 540.500 638.862 607.132 673.917 C 643.780 693.197, 674.404 709.218, 675.187 709.518 C 676.268 709.933, 673.535 692.080, 663.821 635.282 C 656.786 594.152, 651.024 559.985, 651.015 559.356 C 651.007 558.727, 675.709 534.202, 705.910 504.856 C 757.793 454.442, 760.673 451.459, 758.160 450.761 C 756.697 450.355, 722.425 445.244, 682 439.405 C 641.575 433.566, 608.438 428.723, 608.363 428.644 C 608.288 428.565, 593.055 397.675, 574.514 360 C 555.972 322.325, 540.634 291.326, 540.430 291.113 C 540.226 290.900, 528.967 313.175, 515.409 340.613" stroke="none" fill="#fcd24f" fill-rule="evenodd"/><path d="M 512.500 195.024 C 460.462 199.213, 406.324 218.211, 361.978 247.846 C 341.571 261.483, 329.770 271.396, 310.452 291.129 C 283.237 318.929, 265.669 343.739, 249.648 377 C 234.319 408.824, 224.594 442.120, 219.855 479 C 218.109 492.587, 218.098 539.025, 219.838 552 C 225.845 596.785, 235.556 628.221, 254.901 665.500 C 275.602 705.390, 303.819 739.298, 340.928 768.875 C 385.875 804.699, 438.069 826.683, 499.500 835.664 C 508.692 837.007, 518.051 837.419, 539.500 837.422 C 569.880 837.426, 579.739 836.483, 606.500 831.013 C 697.220 812.470, 777.816 752.264, 823.067 669.235 C 842.162 634.199, 853.866 597.948, 859.627 556 C 861.782 540.307, 862.119 497.534, 860.209 482 C 850.367 401.924, 816.853 335.019, 759.500 280.953 C 735.052 257.906, 709.245 240.212, 678.500 225.417 C 647.630 210.562, 616.348 201.338, 580.500 196.519 C 566.244 194.603, 528.136 193.765, 512.500 195.024 M 511.101 348.641 C 495.143 381.014, 479.704 412.218, 476.793 417.984 L 471.500 428.469 395.822 439.484 C 354.199 445.543, 319.906 450.743, 319.615 451.040 C 319.324 451.337, 343.817 475.597, 374.043 504.951 C 404.269 534.305, 428.993 558.812, 428.985 559.411 C 428.976 560.010, 423.186 594.250, 416.117 635.500 C 409.048 676.750, 403.358 710.615, 403.472 710.756 C 403.586 710.897, 434.219 694.960, 471.546 675.339 C 508.873 655.719, 539.883 639.691, 540.457 639.720 C 541.030 639.750, 571.866 655.771, 608.979 675.324 C 646.092 694.877, 676.599 710.734, 676.772 710.561 C 676.945 710.388, 671.462 677.229, 664.587 636.873 C 657.712 596.518, 651.955 562.359, 651.794 560.964 C 651.542 558.789, 659.304 550.829, 706.250 505.118 C 736.362 475.798, 761 451.514, 760.999 451.154 C 760.999 450.795, 727.005 445.565, 685.457 439.533 C 643.909 433.501, 609.534 428.326, 609.068 428.033 C 608.603 427.740, 593.048 396.675, 574.503 359 C 555.957 321.325, 540.633 290.339, 540.450 290.141 C 540.266 289.944, 527.059 316.269, 511.101 348.641" stroke="none" fill="#ea8439" fill-rule="evenodd"/><path d="M 312.985 287.750 L 300.500 300.500 313.250 288.015 C 320.262 281.148, 326 275.411, 326 275.265 C 326 274.547, 324.582 275.907, 312.985 287.750 M 760 281.500 C 762.987 284.525, 765.657 287, 765.932 287 C 766.207 287, 763.987 284.525, 761 281.500 C 758.013 278.475, 755.343 276, 755.068 276 C 754.793 276, 757.013 278.475, 760 281.500 M 319.609 450.824 C 319.328 451.278, 322.564 454.990, 326.800 459.074 L 334.500 466.500 327.122 458.848 C 321.027 452.526, 320.071 451.112, 321.622 450.714 C 323.175 450.315, 323.207 450.212, 321.809 450.116 C 320.879 450.052, 319.889 450.371, 319.609 450.824 M 740.483 471.250 L 729.500 482.500 740.750 471.517 C 751.199 461.316, 752.454 460, 751.733 460 C 751.586 460, 746.524 465.063, 740.483 471.250 M 359.500 491 C 365.531 497.050, 370.691 502, 370.966 502 C 371.241 502, 366.531 497.050, 360.500 491 C 354.469 484.950, 349.309 480, 349.034 480 C 348.759 480, 353.469 484.950, 359.500 491 M 704.483 506.250 L 693.500 517.500 704.750 506.517 C 715.199 496.316, 716.454 495, 715.733 495 C 715.586 495, 710.524 500.063, 704.483 506.250 M 395.500 526 C 401.531 532.050, 406.691 537, 406.966 537 C 407.241 537, 402.531 532.050, 396.500 526 C 390.469 519.950, 385.309 515, 385.034 515 C 384.759 515, 389.469 519.950, 395.500 526 M 667.483 542.250 L 656.500 553.500 667.750 542.517 C 678.199 532.316, 679.454 531, 678.733 531 C 678.586 531, 673.524 536.063, 667.483 542.250" stroke="none" fill="#ec843c" fill-rule="evenodd"/><path d="" stroke="none" fill="#fbd34c" fill-rule="evenodd"/></svg>