<svg xmlns="http://www.w3.org/2000/svg" width="1080" height="1080" viewBox="0 0 1080 1080" version="1.1"><path d="M 500 71.605 C 498.075 71.822, 489.975 72.708, 482 73.574 C 432.003 79.007, 386.640 91.107, 341.042 111.172 C 187.666 178.668, 80.743 320.467, 58.030 486.500 C 52.750 525.097, 52.732 577.749, 57.987 615 C 67.377 681.576, 88.768 742.396, 122.630 798.796 C 160.954 862.628, 214.471 917.178, 278 957.162 C 340.650 996.594, 405.429 1019.197, 483 1028.690 C 503.913 1031.249, 564.315 1031.257, 585 1028.702 C 622.673 1024.050, 650.513 1017.979, 684.500 1007.005 C 759.999 982.627, 832.018 936.408, 886.294 877.500 C 920.048 840.865, 945.044 804.077, 966.921 758.831 C 990.621 709.817, 1004.008 663.365, 1011.689 603.500 C 1014.277 583.323, 1014.286 518.795, 1011.703 498.500 C 1001.759 420.372, 979.625 357.244, 940.176 294.500 C 868.587 180.637, 749.370 100.586, 617.630 77.919 C 587.906 72.805, 576.020 71.838, 539 71.518 C 519.475 71.349, 501.925 71.389, 500 71.605 M 512 173.623 C 406.704 179.930, 307.901 230.520, 241.182 312.287 C 156.787 415.719, 133.457 557.171, 180.070 682.825 C 186.083 699.034, 201.099 730.263, 209.967 745 C 259.604 827.490, 338.651 888.141, 430.284 914.045 C 470.069 925.291, 509.642 929.768, 552.666 927.888 C 667.176 922.886, 772.670 865.596, 840.641 771.500 C 878.632 718.906, 901.624 659.110, 909.661 592 C 911.781 574.299, 912.063 531.181, 910.171 514 C 907.231 487.305, 901.827 461.240, 894.205 437 C 868.711 355.916, 815.649 284.932, 745.149 237.600 C 694.453 203.564, 637.401 182.501, 577 175.522 C 563.760 173.992, 524.826 172.854, 512 173.623 M 696.115 267.070 C 688.526 268.412, 682.081 272.244, 674.545 279.895 C 664.447 290.148, 657.856 299.874, 633.726 340.127 C 598.088 399.581, 584.015 422.217, 540.434 490.196 C 537.720 494.429, 535.180 497.917, 534.788 497.946 C 533.639 498.033, 510.124 466.134, 483.963 429 C 426.850 347.932, 412.433 332.345, 392.677 330.306 C 377.373 328.727, 358.137 340.001, 353.081 353.513 C 343.090 380.216, 367.044 423.590, 456.895 541.489 C 470.312 559.095, 481.763 574.254, 482.340 575.177 C 483.197 576.547, 477.344 585.875, 450.338 626.177 C 394.515 709.483, 350.666 781.835, 341.078 806.461 C 336.100 819.247, 334.637 826.881, 335.183 837.231 C 336.339 859.151, 350.723 872.058, 374 872.064 C 395.530 872.069, 407.709 863.773, 419 841.410 C 434.373 810.961, 524.724 668.295, 532.515 662.167 C 535.923 659.486, 539.530 659.416, 543.685 661.950 C 547.838 664.482, 559.281 681.912, 580.481 718 C 616.562 779.416, 638.003 807.335, 655.892 816.195 C 662.538 819.487, 672.020 819.129, 679.566 815.302 C 689.592 810.216, 701.790 798.233, 705.951 789.382 C 709.335 782.181, 709.615 776.955, 707 769.754 C 698.047 745.091, 657.530 672.367, 617.160 608.500 C 601.499 583.723, 599 578.589, 599 571.186 C 599 562.543, 609.989 543.028, 649.678 481.187 C 711.781 384.420, 734.854 344.807, 742.396 322 C 746.067 310.897, 746.869 300.132, 744.545 293.136 C 738.759 275.715, 716.123 263.533, 696.115 267.070" stroke="none" fill="#ffffff" fill-rule="evenodd"/><path d="M 504 174.644 C 491.214 175.586, 467.449 179.230, 453.279 182.421 C 356.499 204.213, 274.473 260.262, 220.473 341.500 C 187.064 391.759, 167.617 444.229, 159.319 506.500 C 157.121 522.993, 156.813 577.272, 158.833 592 C 163.088 623.009, 168.806 648.370, 176.872 672.011 C 217.848 792.113, 315.568 883.420, 437.430 915.469 C 477.047 925.888, 521.844 930.101, 561.500 927.136 C 599.310 924.310, 642.763 914.232, 676 900.581 C 730.224 878.310, 778.584 844.007, 816.390 801 C 871.172 738.680, 902.445 665.593, 910.095 582 C 911.598 565.574, 910.713 520.524, 908.564 504.125 C 901.098 447.131, 880.630 391.373, 850.152 345 C 789.398 252.561, 694.521 192.514, 584.500 176.869 C 573.602 175.320, 563.741 174.807, 540 174.558 C 523.225 174.382, 507.025 174.421, 504 174.644 M 692.286 267.451 C 685.208 269.663, 679.584 273.586, 672.281 281.406 C 662.555 291.820, 656.876 300.449, 627.616 349.265 C 591.889 408.870, 536.577 496.866, 534.777 496.961 C 533.746 497.016, 516.262 473.583, 496.007 445 C 458.591 392.200, 452.745 384.092, 443.781 372.566 C 423.649 346.679, 411.630 335.284, 400.512 331.541 C 386.921 326.966, 369.784 331.917, 359.103 343.504 C 346.488 357.189, 347.209 374.057, 361.644 402.986 C 378.277 436.321, 408.002 478.899, 482.140 575.586 C 482.653 576.256, 470.901 594.623, 451.427 623.586 C 405.427 691.998, 361.758 762.568, 346.066 793.849 C 343.763 798.440, 340.254 806.990, 338.268 812.849 C 335.042 822.366, 334.654 824.618, 334.627 834 C 334.599 843.682, 334.838 845.020, 337.705 851.183 C 344.346 865.459, 357.065 873, 374.500 873 C 395.179 873, 408.296 863.762, 419.939 841 C 427.975 825.291, 440.311 804.487, 463.524 767.500 C 499.104 710.806, 527.220 668.029, 531.668 663.821 C 540.495 655.472, 545.331 660.144, 569.110 700 C 575.837 711.275, 586.059 728.375, 591.826 738 C 622.259 788.792, 643.566 813.756, 660.240 818.158 C 671.585 821.153, 684.579 815.593, 696.788 802.520 C 709.164 789.268, 711.583 780.353, 706.468 766.857 C 697.018 741.922, 655.013 667.267, 613.930 602.386 C 607.970 592.974, 602.297 583.299, 601.325 580.886 C 598.396 573.622, 599.016 566.678, 603.350 558.192 C 610.775 543.658, 627.695 516.084, 659 467.500 C 698.707 405.879, 720.792 369.282, 732.601 345.538 C 748.910 312.745, 750.541 296.571, 739.006 282.008 C 734.994 276.942, 726.290 271.263, 718.113 268.377 C 710.519 265.696, 699.200 265.290, 692.286 267.451" stroke="none" fill="#ced5d5" fill-rule="evenodd"/><path d="M 525.750 173.744 C 530.288 173.929, 537.712 173.929, 542.250 173.744 C 546.788 173.559, 543.075 173.407, 534 173.407 C 524.925 173.407, 521.212 173.559, 525.750 173.744 M 801.500 285 C 808.083 291.600, 813.694 297, 813.969 297 C 814.244 297, 809.083 291.600, 802.500 285 C 795.917 278.400, 790.306 273, 790.031 273 C 789.756 273, 794.917 278.400, 801.500 285 M 265.980 284.750 L 256.500 294.500 266.250 285.020 C 275.306 276.215, 276.455 275, 275.730 275 C 275.582 275, 271.194 279.387, 265.980 284.750 M 420 345.500 C 422.987 348.525, 425.657 351, 425.932 351 C 426.207 351, 423.987 348.525, 421 345.500 C 418.013 342.475, 415.343 340, 415.068 340 C 414.793 340, 417.013 342.475, 420 345.500 M 350.310 366.500 C 350.315 369.800, 350.502 371.029, 350.725 369.232 C 350.947 367.435, 350.943 364.735, 350.715 363.232 C 350.486 361.729, 350.304 363.200, 350.310 366.500 M 911.411 551 C 911.411 560.625, 911.561 564.563, 911.745 559.750 C 911.928 554.938, 911.928 547.063, 911.745 542.250 C 911.561 537.438, 911.411 541.375, 911.411 551 M 156.360 551 C 156.360 556.225, 156.529 558.362, 156.735 555.750 C 156.941 553.138, 156.941 548.862, 156.735 546.250 C 156.529 543.638, 156.360 545.775, 156.360 551 M 799.978 818.750 L 791.500 827.500 800.250 819.022 C 808.377 811.148, 809.456 810, 808.728 810 C 808.578 810, 804.641 813.938, 799.978 818.750 M 334.310 834.500 C 334.315 837.800, 334.502 839.029, 334.725 837.232 C 334.947 835.435, 334.943 832.735, 334.715 831.232 C 334.486 829.729, 334.304 831.200, 334.310 834.500 M 705.750 886.563 C 702.038 888.469, 699 890.252, 699 890.526 C 699 890.801, 702.150 889.439, 706 887.500 C 709.850 885.561, 713 883.756, 713 883.487 C 713 882.817, 713.280 882.698, 705.750 886.563" stroke="none" fill="#fbfbfb" fill-rule="evenodd"/><path d="" stroke="none" fill="#ccd4d4" fill-rule="evenodd"/></svg>