<svg xmlns="http://www.w3.org/2000/svg" width="1080" height="1080" viewBox="0 0 1080 1080" version="1.1"><path d="M 501.500 33.633 C 416.695 40.196, 332.230 69.081, 261.796 115.606 C 202.664 154.665, 155.138 202.059, 116.646 260.352 C 64.975 338.603, 36.288 427.467, 33.137 519.039 C 30.937 582.969, 38.890 640.734, 57.847 698.500 C 92.832 805.108, 163.444 898.478, 256 960.514 C 325.958 1007.404, 394.515 1032.716, 484 1044.693 C 503.396 1047.289, 577.189 1047.284, 596.500 1044.685 C 685.413 1032.719, 754.297 1007.234, 824 960.514 C 895.403 912.656, 954.986 844.827, 994.012 766.977 C 1025.833 703.497, 1044.579 630.554, 1046.819 561.500 C 1048.905 497.191, 1041.733 443.170, 1023.431 385.336 C 992.328 287.046, 928.818 197.426, 846.191 135.226 C 773.774 80.711, 693.488 48.224, 600.559 35.833 C 588.095 34.171, 578.694 33.775, 546 33.535 C 524.275 33.376, 504.250 33.420, 501.500 33.633 M 510 109.604 C 508.075 109.821, 499.975 110.707, 492 111.572 C 459.562 115.092, 435.739 120.333, 404.128 130.900 C 357.033 146.645, 318.903 166.451, 281 194.859 C 185.290 266.591, 124.946 372.209, 110.374 493.500 C 107.801 514.917, 107.779 564.209, 110.333 586.500 C 117.896 652.507, 138.849 712.901, 173.822 769.500 C 185.572 788.515, 204.023 813.076, 217.883 828.153 L 224 834.807 224 841.903 L 224 849 231.011 849 L 238.022 849 245.761 856.300 C 275.022 883.899, 307.490 906.531, 344.944 925.436 C 392.299 949.337, 436.716 962.614, 493 969.693 C 512.482 972.143, 565.872 972.148, 586 969.702 C 627.072 964.710, 662.153 956.044, 698.500 941.909 C 713.970 935.893, 752.140 916.556, 767 907.206 C 850.264 854.819, 910.418 781.003, 944.820 689 C 955.600 660.169, 963.603 627.034, 968.223 592.098 C 970.126 577.715, 970.419 570.830, 970.419 540.500 C 970.419 510.124, 970.127 503.296, 968.214 488.822 C 960.238 428.500, 942.810 376.012, 914.151 326 C 860.299 232.025, 774.343 162.552, 671 129.476 C 640.258 119.637, 621.655 115.607, 587.500 111.386 C 575.256 109.873, 519.062 108.581, 510 109.604" stroke="none" fill="#ffffff" fill-rule="evenodd"/><path d="M 510 110.081 C 473.515 113.175, 444.239 118.573, 415.500 127.504 C 363.275 143.735, 320.477 165.437, 279.500 196.470 C 262.486 209.355, 254.322 216.432, 238.109 232.352 C 199.454 270.307, 169.686 312.395, 148.137 359.561 C 106.180 451.397, 97.214 552.889, 122.510 649.660 C 139.209 713.541, 171.220 774.044, 214.939 824.352 L 223.500 834.203 223.752 561.602 L 224.004 289 451.002 289 L 678 289 678 479.759 L 678 670.517 695.250 685.688 C 718.077 705.763, 742.055 728.713, 767.664 755 C 804.948 793.270, 810.875 799.815, 811.562 803.479 C 812.746 809.788, 807.436 816.101, 800.786 816.289 C 796.776 816.403, 794.762 815.183, 752.500 787.029 C 728.535 771.065, 697.398 749.336, 682.250 738.006 L 678 734.827 678 791.913 L 678 849 458.345 849 L 238.690 849 240.595 851.156 C 241.643 852.341, 248.125 858.250, 255 864.287 C 297.911 901.966, 348.298 931.022, 402 949.056 C 453.264 966.271, 507.537 973.790, 560.559 971.021 C 644.369 966.646, 721.231 940.105, 788.962 892.153 C 828.192 864.380, 864.273 828.273, 892.040 789 C 951.533 704.854, 979.102 599.140, 968.450 496 C 953.365 349.922, 864.346 220.912, 733.237 155.119 C 709.618 143.266, 671.661 128.966, 647 122.630 C 604.605 111.736, 549.736 106.711, 510 110.081 M 792.906 280.961 C 769.192 283.995, 750.919 293.081, 733.500 310.500 C 715.445 328.555, 706.633 346.775, 703.995 371.500 C 702.681 383.816, 702.714 577.822, 704.032 589.500 C 708.769 631.464, 738.082 665.917, 778.500 677.026 C 788.346 679.732, 819.011 680.922, 831.073 679.066 C 869.155 673.207, 900.745 645.127, 912.712 606.500 L 915.500 597.500 915.500 481 L 915.500 364.500 913.180 356 C 906.848 332.808, 890.905 310.359, 871.790 297.721 C 854.516 286.301, 837.245 281.113, 814.500 280.513 C 806.250 280.295, 796.533 280.497, 792.906 280.961 M 887.310 600.500 C 887.315 603.800, 887.502 605.029, 887.725 603.232 C 887.947 601.435, 887.943 598.735, 887.715 597.232 C 887.486 595.729, 887.304 597.200, 887.310 600.500 M 578.500 603.669 C 572.481 606.857, 567.299 611.964, 564.297 617.666 C 559.038 627.658, 558.909 626.935, 567.820 637.266 C 572.201 642.345, 576.945 647.578, 578.362 648.896 L 580.939 651.291 582.064 648.396 C 582.684 646.803, 583.593 644.469, 584.086 643.208 C 587.029 635.681, 595.887 625.621, 604.184 620.384 L 608.222 617.835 604.361 615.208 C 599.226 611.715, 582.749 601.989, 582.051 602.040 C 581.748 602.062, 580.150 602.795, 578.500 603.669" stroke="none" fill="#efccff" fill-rule="evenodd"/><path d="M 857.917 318.369 C 855.946 319.073, 851.535 321.979, 848.115 324.825 C 844.695 327.671, 840.980 330, 839.861 330 C 838.741 330, 835.009 328.425, 831.566 326.500 C 818.243 319.049, 812 323.266, 812 339.716 L 812 347.497 805 354.067 C 799.252 359.462, 798 361.191, 798 363.736 C 798 365.441, 798.280 367.565, 798.621 368.455 C 799.430 370.562, 804.196 373, 807.508 373 C 817.630 373, 824.415 377.988, 825.502 386.230 C 827.091 398.280, 832.163 403.989, 841.282 403.996 C 850.735 404.004, 857.848 399.065, 860.596 390.589 C 861.503 387.790, 863.428 384.230, 864.873 382.678 C 867.491 379.866, 867.532 379.859, 876.593 380.535 C 883.871 381.079, 886.288 380.902, 888.708 379.651 C 891.674 378.117, 895 372.786, 895 369.567 C 895 366.203, 892.102 361.224, 886.787 355.454 C 879.878 347.956, 879.492 347.189, 877.597 337.199 C 875.302 325.102, 873.080 321.603, 865.746 318.538 C 863.721 317.692, 861.937 317.020, 861.782 317.044 C 861.627 317.068, 859.887 317.664, 857.917 318.369 M 668.096 799.507 C 662.336 801.303, 654.128 807.013, 650.099 812.027 C 643.350 820.425, 638.049 834.788, 638.015 844.771 L 638 849.042 657.750 848.771 L 677.500 848.500 677.767 823.250 L 678.034 798 675.267 798.067 C 673.745 798.104, 670.518 798.752, 668.096 799.507" stroke="none" fill="#ae2c36" fill-rule="evenodd"/><path d="M 274.448 369.074 C 260.176 370.761, 240.544 378.794, 228.794 387.755 L 224 391.411 224 493.087 L 224 594.763 227.250 597.971 C 231.659 602.324, 239.137 605.992, 245.024 606.689 C 251.619 607.470, 258.163 605.227, 270.548 597.938 C 287.599 587.904, 296.830 587.866, 313.170 597.764 C 318.390 600.926, 326.263 604.598, 331.424 606.278 C 339.181 608.804, 342.098 609.239, 351.500 609.273 C 361.121 609.309, 363.440 608.965, 370 606.535 C 382.528 601.893, 390.765 596.497, 404.408 583.995 C 408.757 580.009, 414.331 575.856, 416.795 574.767 C 422.633 572.184, 431.456 571.436, 438.872 572.895 C 444.197 573.943, 467.135 576.046, 467.747 575.543 C 467.882 575.431, 468.195 571.101, 468.442 565.920 C 469.011 553.978, 468.893 555.086, 470.708 544.500 C 471.556 539.550, 472.640 535.009, 473.117 534.408 C 473.593 533.807, 473.697 533.031, 473.349 532.682 C 473 532.334, 473.225 531.434, 473.849 530.682 C 474.472 529.931, 474.763 529.096, 474.495 528.828 C 473.566 527.900, 477.084 517.934, 478.116 518.572 C 478.677 518.918, 478.895 519.832, 478.600 520.601 C 478.304 521.371, 478.427 522, 478.873 522 C 479.626 522, 482.476 530.025, 482.030 530.888 C 481.919 531.102, 482.257 531.552, 482.780 531.888 C 484.143 532.765, 488.193 540.997, 487.270 541.015 C 486.847 541.024, 486.973 541.361, 487.551 541.765 C 488.130 542.169, 490.155 544.740, 492.051 547.478 C 496.192 553.454, 500 557.818, 500 556.585 C 500 556.093, 500.819 556.431, 501.820 557.337 C 504.369 559.644, 513.815 562.595, 518.012 562.395 C 519.944 562.303, 524.885 561.706, 528.991 561.069 C 534.963 560.143, 537.363 559.213, 540.979 556.426 C 550.947 548.744, 560.267 534.510, 563.520 522 C 569.319 499.697, 556.972 485.321, 526.146 478.482 C 514.828 475.970, 495.256 474, 481.627 474 C 467.213 474, 457.668 469.391, 451.197 459.306 C 447.849 454.090, 445 444.747, 445 438.986 C 445 433.978, 440.575 425.624, 436.007 422.006 C 427.911 415.594, 413.596 410.926, 396.500 409.123 C 391.550 408.601, 387.337 408.335, 387.138 408.533 C 386.938 408.730, 387.552 411.053, 388.502 413.696 C 389.560 416.639, 390.426 422.825, 390.737 429.667 C 391.175 439.292, 390.938 441.846, 389.018 448.167 C 386.593 456.154, 384.346 461.086, 382.610 462.235 C 380.142 463.868, 376.041 462.992, 374.395 460.480 C 372.824 458.082, 372.876 457.668, 375.486 451.851 C 380.958 439.659, 381.167 425.233, 376.045 413.327 L 373.828 408.173 358.164 407.820 C 343.497 407.490, 342.182 407.299, 337.500 404.818 C 331.163 401.460, 324.946 394.988, 321.585 388.250 C 320.145 385.363, 318.530 383, 317.996 383 C 317.462 383, 315.931 381.267, 314.594 379.148 C 309.646 371.311, 292.315 366.961, 274.448 369.074 M 867.137 412.617 C 865.868 413.506, 863.985 416.202, 862.954 418.607 C 861.105 422.922, 856.246 426.988, 852.932 426.996 C 849.312 427.005, 840.587 430.322, 838.380 432.529 C 834.410 436.499, 835.206 439.731, 841.610 445.644 L 847.221 450.824 846.534 457.665 C 845.890 464.076, 846.001 464.652, 848.296 466.809 C 850.219 468.615, 852.480 469.285, 858.803 469.922 C 867.021 470.751, 869.367 471.748, 876.515 477.450 C 881.212 481.197, 886.400 481.460, 889.129 478.089 C 891.407 475.276, 891.487 472.003, 889.447 465.135 C 887.641 459.052, 888.112 456.957, 892.511 451.500 C 896.685 446.323, 898 443.714, 898 440.613 C 898 436.302, 895.866 433.123, 890.784 429.861 C 887.115 427.507, 885.158 425.275, 882.980 420.961 C 878.336 411.761, 872.641 408.762, 867.137 412.617 M 519.500 497.353 C 512.177 500.718, 500 517.130, 500 523.635 C 500 525.732, 500.252 525.855, 502.677 524.933 C 504.149 524.373, 510.111 524.015, 515.927 524.136 C 524.472 524.315, 527.242 524.003, 530.368 522.509 C 534.399 520.582, 537.507 516.522, 538.535 511.840 C 539.325 508.245, 535.982 500.690, 532.632 498.494 C 529.146 496.210, 523.125 495.687, 519.500 497.353 M 621.931 704.761 C 609.450 712.390, 589.957 731.569, 581.088 744.947 C 565.777 768.040, 556.271 794.111, 552.517 823.301 C 551.683 829.792, 551 838.004, 551 841.551 L 551 848 572.500 848 L 594 848 594 841.131 C 594 827.339, 599.208 806.493, 606.067 792.835 C 619.339 766.403, 642.266 747.395, 665.059 743.927 C 677.869 741.978, 677.002 742.392, 676.979 738.231 C 676.960 734.993, 676.398 734.104, 672.729 731.508 C 668.699 728.656, 644.070 709.417, 635.410 702.356 L 631.320 699.022 621.931 704.761" stroke="none" fill="#ffc05a" fill-rule="evenodd"/><path d="M 846.089 491.135 C 844.995 492.309, 843.816 494.561, 843.470 496.138 C 842.625 499.984, 837.737 504.702, 833.340 505.916 C 825.226 508.157, 823.843 513.229, 829.500 520 C 833.682 525.006, 834.061 529.348, 830.931 536.422 C 828.447 542.039, 829.020 546.084, 832.712 548.988 C 835.842 551.450, 840.554 551.558, 847.623 549.330 C 854.039 547.307, 858.610 548.319, 864.610 553.089 C 868.908 556.505, 874.208 559, 877.168 559 C 878.225 559, 880.239 557.852, 881.642 556.449 C 884.047 554.044, 884.153 553.506, 883.505 547.053 C 882.683 538.861, 883.370 537.228, 890.265 530.989 C 897.861 524.116, 897 518.911, 887.929 516.873 C 882.922 515.748, 881.002 514.434, 880.994 512.128 C 880.969 504.640, 875.910 499.011, 869.200 499.004 C 865.772 499, 860 496.564, 860 495.120 C 860 494.665, 858.896 493.101, 857.548 491.646 C 854.411 488.262, 848.991 488.020, 846.089 491.135 M 627.558 522.492 C 621.401 524.685, 618.735 527.122, 615.535 533.480 C 612.834 538.847, 612.561 540.319, 612.462 550.045 C 612.364 559.701, 612.099 561.155, 609.686 565.273 C 606.284 571.078, 602.953 573.067, 590 577.026 C 584.225 578.792, 579.146 580.560, 578.713 580.955 C 578.280 581.351, 578.440 582.985, 579.069 584.587 C 579.697 586.189, 580.751 590.616, 581.410 594.425 C 582.127 598.567, 583.240 601.749, 584.179 602.341 C 585.362 603.087, 589.049 601.695, 599.125 596.697 C 621.673 585.512, 642.725 579.676, 665.720 578.237 L 677.500 577.500 677.767 553.375 L 678.035 529.250 668.267 526.200 C 662.895 524.522, 656.115 522.665, 653.201 522.074 C 645.857 520.586, 632.290 520.806, 627.558 522.492 M 478.164 630.550 C 459.686 636.844, 448.686 649.709, 444.647 669.748 C 442.007 682.848, 439.238 685.485, 423.813 689.588 C 381.248 700.911, 352.695 714.950, 343.844 728.907 C 334.050 744.351, 349.891 754.419, 392.500 759.831 C 401.300 760.948, 413.675 762.162, 420 762.527 C 436.232 763.466, 440.462 765.640, 447.655 776.743 C 449.524 779.626, 452.606 783.539, 454.505 785.438 C 457.862 788.796, 466.770 794.618, 467.408 793.871 C 467.582 793.667, 468.928 787.545, 470.399 780.266 C 475.643 754.312, 483.467 731.160, 494.990 707.500 C 507.021 682.797, 520.326 662.957, 538.513 642.597 C 546.348 633.825, 547.024 632.778, 544.430 633.434 C 527.768 637.649, 511.267 636.631, 497.491 630.539 C 490.373 627.391, 487.434 627.392, 478.164 630.550" stroke="none" fill="#115e98" fill-rule="evenodd"/><path d="M 855.844 578.343 C 842.726 583.211, 832.070 594.686, 827.491 608.873 C 826.219 612.815, 825.879 616.356, 826.215 622.161 C 826.797 632.205, 829.814 637.110, 838.006 641.330 C 842.703 643.749, 844.334 644.089, 849.248 643.675 C 862.631 642.546, 875.554 632.749, 882.684 618.327 C 886.002 611.616, 886.546 609.521, 886.854 602.276 C 887.169 594.845, 886.915 593.347, 884.505 588.421 C 880.667 580.576, 875.904 577.607, 866.590 577.254 C 862.413 577.096, 857.998 577.543, 855.844 578.343" stroke="none" fill="#ed9fc5" fill-rule="evenodd"/><path d="M 790 522.602 C 789.175 522.906, 784.995 524.558, 780.712 526.275 L 772.923 529.396 764.712 528.043 C 760.195 527.299, 753.657 526.495, 750.183 526.256 C 744.629 525.876, 743.385 526.141, 739.894 528.452 C 735.134 531.602, 732.001 536.398, 732.025 540.500 C 732.034 542.150, 733.156 546.650, 734.517 550.500 C 738.635 562.151, 738.600 562.245, 725.782 573.758 C 721.177 577.895, 720.244 581.790, 722.670 586.754 C 724.211 589.908, 725.668 591, 731.891 593.666 C 743.055 598.449, 744.426 599.777, 747.420 608.709 C 750.449 617.748, 750.769 618.316, 753.684 619.850 C 759.251 622.780, 764.269 620.037, 769.145 611.398 C 772.414 605.604, 776.802 601.339, 780.429 600.429 C 781.679 600.115, 786.237 600.588, 790.555 601.480 C 804.267 604.312, 812.147 600.415, 814.912 589.436 C 817.360 579.713, 815.676 574.519, 807.445 566.409 C 798.904 557.994, 798.623 556.467, 803.834 546.852 C 809.314 536.739, 809.527 531.636, 804.688 526.357 C 801.886 523.299, 800.615 522.689, 796.438 522.397 C 793.722 522.206, 790.825 522.299, 790 522.602 M 665.720 578.129 C 642.269 579.812, 621.492 585.601, 599.166 596.676 L 585.831 603.291 589.166 605.306 C 598.188 610.758, 624.808 628.581, 633.337 634.880 L 642.958 641.985 648.464 640.551 C 651.492 639.763, 659.377 638.560, 665.985 637.879 L 678 636.641 678 606.820 C 678 590.419, 677.888 577.064, 677.750 577.142 C 677.612 577.220, 672.199 577.665, 665.720 578.129 M 553.453 630.411 C 547.893 632.332, 546.624 633.390, 537.683 643.568 C 508.665 676.598, 488.301 713.909, 476.142 756.325 C 469.572 779.244, 464.080 818.390, 464.016 842.750 L 464 849 487.500 849 L 511 849 511 840.244 C 511 829.601, 513.212 810.087, 515.979 796.318 C 522.954 761.610, 537.143 729.415, 557.173 702.847 C 564.808 692.719, 577.680 679.207, 586.765 671.783 L 594.107 665.784 583.774 655.142 C 578.092 649.289, 570.586 641.125, 567.095 637 C 563.603 632.875, 560.466 629.235, 560.124 628.911 C 559.781 628.587, 556.779 629.262, 553.453 630.411" stroke="none" fill="#349370" fill-rule="evenodd"/><path d="M 778.498 414.538 C 774.852 417.034, 770.499 419.350, 768.824 419.685 C 767.149 420.020, 761.351 419.708, 755.940 418.992 C 744.198 417.438, 739.919 418.513, 736.266 423.933 C 733.134 428.580, 733.347 434.264, 737.089 445.897 C 741.367 459.196, 740.973 464.123, 734.522 478 C 730.788 486.033, 729.539 489.966, 729.205 494.741 C 728.789 500.679, 728.918 501.121, 731.867 503.876 C 738.266 509.853, 744.654 508.765, 761.771 498.782 C 778.087 489.266, 780.707 488.850, 798.211 493.004 C 806.624 495, 809.353 494.761, 812.698 491.736 C 817.836 487.091, 816.261 480.206, 806.332 463.906 C 799.044 451.943, 798.995 451.671, 801.042 434.918 C 802.612 422.075, 801.898 417.698, 797.521 413.321 C 794.736 410.536, 793.468 410, 789.663 410 C 785.921 410, 783.965 410.795, 778.498 414.538 M 659.364 638.584 C 653.789 639.343, 647.974 640.440, 646.441 641.023 C 643.064 642.307, 641.701 640.898, 662.250 657.359 L 678 669.976 678 653.488 L 678 637 673.750 637.103 C 671.413 637.159, 664.939 637.826, 659.364 638.584 M 586 672.374 C 551.308 701.498, 526.050 746.208, 515.979 796.318 C 513.212 810.087, 511 829.601, 511 840.244 L 511 849 530.358 849 L 549.715 849 550.422 837.750 C 552.648 802.329, 563.208 770.142, 581.323 743.563 C 592.295 727.465, 610.136 710.496, 624.586 702.415 C 628.194 700.397, 630.776 698.417, 630.323 698.015 C 629.870 697.612, 625.900 694.205, 621.500 690.442 C 617.100 686.679, 609.180 679.641, 603.900 674.800 C 598.620 669.960, 594.120 666.017, 593.900 666.039 C 593.680 666.060, 590.125 668.911, 586 672.374" stroke="none" fill="#96b443" fill-rule="evenodd"/><path d="M 224 339.998 L 224 390.996 230.235 386.406 C 238.552 380.283, 252.667 373.524, 262.500 370.956 C 279.082 366.625, 297.945 367.595, 309.066 373.350 L 313.632 375.713 316.372 373.357 C 319.501 370.665, 320.237 370.607, 332.500 372.104 C 355.583 374.921, 373.595 385.554, 383.152 402.007 L 386.500 407.769 394.500 408.457 C 412.801 410.030, 428.986 415.379, 436.796 422.435 C 442.217 427.332, 444.790 432.957, 446.008 442.569 C 447.253 452.397, 450.576 459.433, 456.595 464.981 C 464.614 472.372, 467.780 473.226, 490.500 474.119 C 546.322 476.314, 570.334 490.986, 564.520 519.349 C 562.134 530.988, 555.892 542.153, 546.476 551.621 L 538.401 559.742 545.451 560.283 C 555.837 561.079, 563.316 564.249, 569.405 570.435 C 572.207 573.282, 575.217 576.687, 576.093 578.002 L 577.686 580.394 589.593 576.596 C 608.973 570.416, 611.079 567.870, 612.002 549.498 C 612.538 538.846, 612.924 536.910, 615.439 532.289 C 620.972 522.123, 630.096 518.822, 647.139 520.822 C 652.632 521.466, 661.637 523.485, 667.495 525.384 L 678 528.791 678 408.895 L 678 289 451 289 L 224 289 224 339.998 M 548.281 335.970 C 537.019 338.646, 525.813 347.959, 520.589 358.982 C 517.746 364.982, 517.500 366.337, 517.500 376.022 C 517.500 385.903, 517.701 386.952, 520.797 393.240 C 529.619 411.157, 549.173 420.536, 567.500 415.641 C 579.954 412.314, 589.744 404.191, 595.099 392.741 C 598.198 386.113, 598.485 384.696, 598.492 376 C 598.499 367.322, 598.214 365.894, 595.197 359.500 C 591.626 351.932, 584.921 344.327, 578.500 340.563 C 570.170 335.680, 557.563 333.764, 548.281 335.970 M 320 383.466 C 320 383.881, 321.433 386.908, 323.184 390.194 C 327.591 398.462, 334.969 404.242, 344.500 406.891 C 349.177 408.192, 372 407.241, 372 405.746 C 372 405.221, 369.403 402.251, 366.230 399.146 C 359.931 392.983, 350.829 387.972, 341.539 385.552 C 334.734 383.780, 320 382.353, 320 383.466 M 422.734 573.088 C 416.262 574.613, 410.901 577.974, 403.068 585.419 C 391.652 596.268, 380.494 603.328, 368 607.607 C 359.778 610.423, 342.971 610.194, 333 607.131 C 325.968 604.970, 322.375 603.252, 307.563 594.968 C 302.657 592.224, 300.294 591.571, 293.945 591.203 C 284.663 590.666, 281.363 591.646, 270.745 598.095 C 259.120 605.156, 252.835 607.302, 245.455 606.731 C 238.722 606.210, 234.547 604.409, 228.250 599.309 L 224 595.866 224 722.437 L 224 849.008 343.750 848.754 L 463.500 848.500 464.154 833.266 C 464.746 819.466, 466.157 804.915, 467.591 797.805 C 468.068 795.440, 467.630 794.852, 464.022 793.011 C 457.996 789.937, 452.387 784.483, 446.919 776.380 C 439.186 764.920, 436.637 763.965, 408.599 762.022 C 374.975 759.691, 349.093 752.509, 342.604 743.707 C 337.611 736.934, 341.841 727.070, 353.530 718.229 C 368.079 707.225, 390.194 698.263, 429.430 687.471 C 436.557 685.510, 441.402 681.136, 442.759 675.440 C 443.275 673.273, 444.232 669.250, 444.886 666.500 C 449.641 646.500, 463.446 633.006, 483.869 628.393 L 491 626.783 487.250 624.063 C 475.941 615.861, 470.230 603.660, 468.437 583.869 L 467.746 576.238 458.623 575.527 C 453.605 575.136, 445.675 574.191, 441 573.426 C 431.462 571.865, 428.183 571.804, 422.734 573.088" stroke="none" fill="#fbe2ae" fill-rule="evenodd"/><path d="M 857.917 318.369 C 855.946 319.073, 851.535 321.979, 848.115 324.825 C 844.695 327.671, 840.980 330, 839.861 330 C 838.741 330, 835.009 328.425, 831.566 326.500 C 818.243 319.049, 812 323.266, 812 339.716 L 812 347.497 805 354.067 C 799.252 359.462, 798 361.191, 798 363.736 C 798 365.441, 798.280 367.565, 798.621 368.455 C 799.430 370.562, 804.196 373, 807.508 373 C 817.630 373, 824.415 377.988, 825.502 386.230 C 827.091 398.280, 832.163 403.989, 841.282 403.996 C 850.735 404.004, 857.848 399.065, 860.596 390.589 C 861.503 387.790, 863.428 384.230, 864.873 382.678 C 867.491 379.866, 867.532 379.859, 876.593 380.535 C 883.871 381.079, 886.288 380.902, 888.708 379.651 C 891.674 378.117, 895 372.786, 895 369.567 C 895 366.203, 892.102 361.224, 886.787 355.454 C 879.878 347.956, 879.492 347.189, 877.597 337.199 C 875.302 325.102, 873.080 321.603, 865.746 318.538 C 863.721 317.692, 861.937 317.020, 861.782 317.044 C 861.627 317.068, 859.887 317.664, 857.917 318.369 M 668.096 799.507 C 662.336 801.303, 654.128 807.013, 650.099 812.027 C 643.350 820.425, 638.049 834.788, 638.015 844.771 L 638 849.042 657.750 848.771 L 677.500 848.500 677.767 823.250 L 678.034 798 675.267 798.067 C 673.745 798.104, 670.518 798.752, 668.096 799.507" stroke="none" fill="#ae2c36" fill-rule="evenodd"/><path d="M 551.174 336.036 C 530.047 339.067, 513.930 361.390, 517.809 382.250 C 519.503 391.355, 524.144 400.040, 530.281 405.588 C 556.666 429.439, 598.158 411.352, 598.158 376 C 598.158 350.681, 576.644 332.382, 551.174 336.036 M 764.984 340.019 C 756.733 344.799, 755.963 344.958, 748.544 343.402 C 740.843 341.788, 736.623 342.550, 733.374 346.139 C 731.921 347.745, 731.499 349.808, 731.474 355.419 C 731.446 361.947, 731.136 363.050, 728.221 367.014 C 723.763 373.076, 723.991 376, 729.373 381.793 C 732.432 385.085, 734.243 388.224, 735.398 392.237 C 737.057 398.003, 740.170 401, 744.500 401 C 747.462 401, 751.792 398.072, 753.919 394.631 C 756.191 390.955, 761.711 387.758, 765.291 388.044 C 771.642 388.553, 774.260 387.894, 777.077 385.077 C 780.935 381.219, 781.121 375.486, 777.528 371.216 C 772.158 364.834, 772.041 360.564, 777.044 353.576 C 781.125 347.876, 781.694 344.152, 779.006 340.734 C 777.273 338.532, 776.039 338, 772.662 338 C 770.273 338, 766.969 338.869, 764.984 340.019 M 662.392 744.895 C 626.589 753.700, 600.174 788.902, 594.934 834.795 C 594.247 840.813, 593.970 846.480, 594.319 847.388 C 594.885 848.864, 597.216 849.011, 616.226 848.770 L 637.500 848.500 638.174 842.388 C 640.740 819.132, 655.363 800.745, 673.173 798.383 L 678 797.742 678 770.371 L 678 743 673.750 743.074 C 671.413 743.114, 666.301 743.934, 662.392 744.895" stroke="none" fill="#f97732" fill-rule="evenodd"/><path d="M 274.448 369.074 C 260.176 370.761, 240.544 378.794, 228.794 387.755 L 224 391.411 224 493.087 L 224 594.763 227.250 597.971 C 231.659 602.324, 239.137 605.992, 245.024 606.689 C 251.619 607.470, 258.163 605.227, 270.548 597.938 C 287.599 587.904, 296.830 587.866, 313.170 597.764 C 318.390 600.926, 326.263 604.598, 331.424 606.278 C 339.181 608.804, 342.098 609.239, 351.500 609.273 C 361.121 609.309, 363.440 608.965, 370 606.535 C 382.528 601.893, 390.765 596.497, 404.408 583.995 C 408.757 580.009, 414.331 575.856, 416.795 574.767 C 422.633 572.184, 431.456 571.436, 438.872 572.895 C 444.197 573.943, 467.135 576.046, 467.747 575.543 C 467.882 575.431, 468.195 571.101, 468.442 565.920 C 469.011 553.978, 468.893 555.086, 470.708 544.500 C 471.556 539.550, 472.640 535.009, 473.117 534.408 C 473.593 533.807, 473.697 533.031, 473.349 532.682 C 473 532.334, 473.225 531.434, 473.849 530.682 C 474.472 529.931, 474.763 529.096, 474.495 528.828 C 473.566 527.900, 477.084 517.934, 478.116 518.572 C 478.677 518.918, 478.895 519.832, 478.600 520.601 C 478.304 521.371, 478.427 522, 478.873 522 C 479.626 522, 482.476 530.025, 482.030 530.888 C 481.919 531.102, 482.257 531.552, 482.780 531.888 C 484.143 532.765, 488.193 540.997, 487.270 541.015 C 486.847 541.024, 486.973 541.361, 487.551 541.765 C 488.130 542.169, 490.155 544.740, 492.051 547.478 C 496.192 553.454, 500 557.818, 500 556.585 C 500 556.093, 500.819 556.431, 501.820 557.337 C 504.369 559.644, 513.815 562.595, 518.012 562.395 C 519.944 562.303, 524.885 561.706, 528.991 561.069 C 534.963 560.143, 537.363 559.213, 540.979 556.426 C 550.947 548.744, 560.267 534.510, 563.520 522 C 569.319 499.697, 556.972 485.321, 526.146 478.482 C 514.828 475.970, 495.256 474, 481.627 474 C 467.213 474, 457.668 469.391, 451.197 459.306 C 447.849 454.090, 445 444.747, 445 438.986 C 445 433.978, 440.575 425.624, 436.007 422.006 C 427.911 415.594, 413.596 410.926, 396.500 409.123 C 391.550 408.601, 387.337 408.335, 387.138 408.533 C 386.938 408.730, 387.552 411.053, 388.502 413.696 C 389.560 416.639, 390.426 422.825, 390.737 429.667 C 391.175 439.292, 390.938 441.846, 389.018 448.167 C 386.593 456.154, 384.346 461.086, 382.610 462.235 C 380.142 463.868, 376.041 462.992, 374.395 460.480 C 372.824 458.082, 372.876 457.668, 375.486 451.851 C 380.958 439.659, 381.167 425.233, 376.045 413.327 L 373.828 408.173 358.164 407.820 C 343.497 407.490, 342.182 407.299, 337.500 404.818 C 331.163 401.460, 324.946 394.988, 321.585 388.250 C 320.145 385.363, 318.530 383, 317.996 383 C 317.462 383, 315.931 381.267, 314.594 379.148 C 309.646 371.311, 292.315 366.961, 274.448 369.074 M 867.137 412.617 C 865.868 413.506, 863.985 416.202, 862.954 418.607 C 861.105 422.922, 856.246 426.988, 852.932 426.996 C 849.312 427.005, 840.587 430.322, 838.380 432.529 C 834.410 436.499, 835.206 439.731, 841.610 445.644 L 847.221 450.824 846.534 457.665 C 845.890 464.076, 846.001 464.652, 848.296 466.809 C 850.219 468.615, 852.480 469.285, 858.803 469.922 C 867.021 470.751, 869.367 471.748, 876.515 477.450 C 881.212 481.197, 886.400 481.460, 889.129 478.089 C 891.407 475.276, 891.487 472.003, 889.447 465.135 C 887.641 459.052, 888.112 456.957, 892.511 451.500 C 896.685 446.323, 898 443.714, 898 440.613 C 898 436.302, 895.866 433.123, 890.784 429.861 C 887.115 427.507, 885.158 425.275, 882.980 420.961 C 878.336 411.761, 872.641 408.762, 867.137 412.617 M 519.500 497.353 C 512.177 500.718, 500 517.130, 500 523.635 C 500 525.732, 500.252 525.855, 502.677 524.933 C 504.149 524.373, 510.111 524.015, 515.927 524.136 C 524.472 524.315, 527.242 524.003, 530.368 522.509 C 534.399 520.582, 537.507 516.522, 538.535 511.840 C 539.325 508.245, 535.982 500.690, 532.632 498.494 C 529.146 496.210, 523.125 495.687, 519.500 497.353 M 621.931 704.761 C 609.450 712.390, 589.957 731.569, 581.088 744.947 C 565.777 768.040, 556.271 794.111, 552.517 823.301 C 551.683 829.792, 551 838.004, 551 841.551 L 551 848 572.500 848 L 594 848 594 841.131 C 594 827.339, 599.208 806.493, 606.067 792.835 C 619.339 766.403, 642.266 747.395, 665.059 743.927 C 677.869 741.978, 677.002 742.392, 676.979 738.231 C 676.960 734.993, 676.398 734.104, 672.729 731.508 C 668.699 728.656, 644.070 709.417, 635.410 702.356 L 631.320 699.022 621.931 704.761" stroke="none" fill="#ffc05a" fill-rule="evenodd"/><path d="M 778.498 414.538 C 774.852 417.034, 770.499 419.350, 768.824 419.685 C 767.149 420.020, 761.351 419.708, 755.940 418.992 C 744.198 417.438, 739.919 418.513, 736.266 423.933 C 733.134 428.580, 733.347 434.264, 737.089 445.897 C 741.367 459.196, 740.973 464.123, 734.522 478 C 730.788 486.033, 729.539 489.966, 729.205 494.741 C 728.789 500.679, 728.918 501.121, 731.867 503.876 C 738.266 509.853, 744.654 508.765, 761.771 498.782 C 778.087 489.266, 780.707 488.850, 798.211 493.004 C 806.624 495, 809.353 494.761, 812.698 491.736 C 817.836 487.091, 816.261 480.206, 806.332 463.906 C 799.044 451.943, 798.995 451.671, 801.042 434.918 C 802.612 422.075, 801.898 417.698, 797.521 413.321 C 794.736 410.536, 793.468 410, 789.663 410 C 785.921 410, 783.965 410.795, 778.498 414.538 M 659.364 638.584 C 653.789 639.343, 647.974 640.440, 646.441 641.023 C 643.064 642.307, 641.701 640.898, 662.250 657.359 L 678 669.976 678 653.488 L 678 637 673.750 637.103 C 671.413 637.159, 664.939 637.826, 659.364 638.584 M 586 672.374 C 551.308 701.498, 526.050 746.208, 515.979 796.318 C 513.212 810.087, 511 829.601, 511 840.244 L 511 849 530.358 849 L 549.715 849 550.422 837.750 C 552.648 802.329, 563.208 770.142, 581.323 743.563 C 592.295 727.465, 610.136 710.496, 624.586 702.415 C 628.194 700.397, 630.776 698.417, 630.323 698.015 C 629.870 697.612, 625.900 694.205, 621.500 690.442 C 617.100 686.679, 609.180 679.641, 603.900 674.800 C 598.620 669.960, 594.120 666.017, 593.900 666.039 C 593.680 666.060, 590.125 668.911, 586 672.374" stroke="none" fill="#96b443" fill-rule="evenodd"/><path d="M 846.089 491.135 C 844.995 492.309, 843.816 494.561, 843.470 496.138 C 842.625 499.984, 837.737 504.702, 833.340 505.916 C 825.226 508.157, 823.843 513.229, 829.500 520 C 833.682 525.006, 834.061 529.348, 830.931 536.422 C 828.447 542.039, 829.020 546.084, 832.712 548.988 C 835.842 551.450, 840.554 551.558, 847.623 549.330 C 854.039 547.307, 858.610 548.319, 864.610 553.089 C 868.908 556.505, 874.208 559, 877.168 559 C 878.225 559, 880.239 557.852, 881.642 556.449 C 884.047 554.044, 884.153 553.506, 883.505 547.053 C 882.683 538.861, 883.370 537.228, 890.265 530.989 C 897.861 524.116, 897 518.911, 887.929 516.873 C 882.922 515.748, 881.002 514.434, 880.994 512.128 C 880.969 504.640, 875.910 499.011, 869.200 499.004 C 865.772 499, 860 496.564, 860 495.120 C 860 494.665, 858.896 493.101, 857.548 491.646 C 854.411 488.262, 848.991 488.020, 846.089 491.135 M 627.558 522.492 C 621.401 524.685, 618.735 527.122, 615.535 533.480 C 612.834 538.847, 612.561 540.319, 612.462 550.045 C 612.364 559.701, 612.099 561.155, 609.686 565.273 C 606.284 571.078, 602.953 573.067, 590 577.026 C 584.225 578.792, 579.146 580.560, 578.713 580.955 C 578.280 581.351, 578.440 582.985, 579.069 584.587 C 579.697 586.189, 580.751 590.616, 581.410 594.425 C 582.127 598.567, 583.240 601.749, 584.179 602.341 C 585.362 603.087, 589.049 601.695, 599.125 596.697 C 621.673 585.512, 642.725 579.676, 665.720 578.237 L 677.500 577.500 677.767 553.375 L 678.035 529.250 668.267 526.200 C 662.895 524.522, 656.115 522.665, 653.201 522.074 C 645.857 520.586, 632.290 520.806, 627.558 522.492 M 478.164 630.550 C 459.686 636.844, 448.686 649.709, 444.647 669.748 C 442.007 682.848, 439.238 685.485, 423.813 689.588 C 381.248 700.911, 352.695 714.950, 343.844 728.907 C 334.050 744.351, 349.891 754.419, 392.500 759.831 C 401.300 760.948, 413.675 762.162, 420 762.527 C 436.232 763.466, 440.462 765.640, 447.655 776.743 C 449.524 779.626, 452.606 783.539, 454.505 785.438 C 457.862 788.796, 466.770 794.618, 467.408 793.871 C 467.582 793.667, 468.928 787.545, 470.399 780.266 C 475.643 754.312, 483.467 731.160, 494.990 707.500 C 507.021 682.797, 520.326 662.957, 538.513 642.597 C 546.348 633.825, 547.024 632.778, 544.430 633.434 C 527.768 637.649, 511.267 636.631, 497.491 630.539 C 490.373 627.391, 487.434 627.392, 478.164 630.550" stroke="none" fill="#115e98" fill-rule="evenodd"/><path d="M 790 522.602 C 789.175 522.906, 784.995 524.558, 780.712 526.275 L 772.923 529.396 764.712 528.043 C 760.195 527.299, 753.657 526.495, 750.183 526.256 C 744.629 525.876, 743.385 526.141, 739.894 528.452 C 735.134 531.602, 732.001 536.398, 732.025 540.500 C 732.034 542.150, 733.156 546.650, 734.517 550.500 C 738.635 562.151, 738.600 562.245, 725.782 573.758 C 721.177 577.895, 720.244 581.790, 722.670 586.754 C 724.211 589.908, 725.668 591, 731.891 593.666 C 743.055 598.449, 744.426 599.777, 747.420 608.709 C 750.449 617.748, 750.769 618.316, 753.684 619.850 C 759.251 622.780, 764.269 620.037, 769.145 611.398 C 772.414 605.604, 776.802 601.339, 780.429 600.429 C 781.679 600.115, 786.237 600.588, 790.555 601.480 C 804.267 604.312, 812.147 600.415, 814.912 589.436 C 817.360 579.713, 815.676 574.519, 807.445 566.409 C 798.904 557.994, 798.623 556.467, 803.834 546.852 C 809.314 536.739, 809.527 531.636, 804.688 526.357 C 801.886 523.299, 800.615 522.689, 796.438 522.397 C 793.722 522.206, 790.825 522.299, 790 522.602 M 665.720 578.129 C 642.269 579.812, 621.492 585.601, 599.166 596.676 L 585.831 603.291 589.166 605.306 C 598.188 610.758, 624.808 628.581, 633.337 634.880 L 642.958 641.985 648.464 640.551 C 651.492 639.763, 659.377 638.560, 665.985 637.879 L 678 636.641 678 606.820 C 678 590.419, 677.888 577.064, 677.750 577.142 C 677.612 577.220, 672.199 577.665, 665.720 578.129 M 553.453 630.411 C 547.893 632.332, 546.624 633.390, 537.683 643.568 C 508.665 676.598, 488.301 713.909, 476.142 756.325 C 469.572 779.244, 464.080 818.390, 464.016 842.750 L 464 849 487.500 849 L 511 849 511 840.244 C 511 829.601, 513.212 810.087, 515.979 796.318 C 522.954 761.610, 537.143 729.415, 557.173 702.847 C 564.808 692.719, 577.680 679.207, 586.765 671.783 L 594.107 665.784 583.774 655.142 C 578.092 649.289, 570.586 641.125, 567.095 637 C 563.603 632.875, 560.466 629.235, 560.124 628.911 C 559.781 628.587, 556.779 629.262, 553.453 630.411" stroke="none" fill="#349370" fill-rule="evenodd"/><path d="M 364.500 407 L 356.500 407.633 364.750 407.817 C 369.706 407.927, 373 407.601, 373 407 C 373 406.450, 372.887 406.083, 372.750 406.183 C 372.613 406.284, 368.900 406.652, 364.500 407 M 601 622.920 C 593.346 628.691, 588.266 635.071, 583.905 644.389 L 580.741 651.150 584.621 655.173 C 594.637 665.557, 609.521 679.680, 619.746 688.502 C 625.931 693.839, 630.735 698.620, 630.421 699.127 C 630.108 699.634, 630.272 699.926, 630.786 699.775 C 631.299 699.624, 638.870 705.153, 647.610 712.063 C 656.349 718.973, 666.519 726.848, 670.209 729.563 C 676.339 734.074, 676.921 734.816, 676.959 738.167 C 676.982 740.199, 676.443 742.058, 675.750 742.338 C 675.003 742.639, 675.205 742.874, 676.250 742.921 C 677.646 742.984, 678 742.167, 678 738.881 L 678 734.763 681.744 737.631 C 694.494 747.399, 726.552 769.633, 758.893 791.137 C 793.164 813.923, 796.644 816, 800.567 816 C 808.315 816, 813.744 808.718, 811.128 801.836 C 809.973 798.799, 798.146 786.187, 762.050 749.500 C 717.988 704.718, 678.255 669.074, 641.500 641.358 C 630.881 633.350, 608.945 617.998, 608.139 618.010 C 607.788 618.015, 604.575 620.225, 601 622.920 M 598 723.500 C 593.903 727.625, 590.775 731, 591.050 731 C 591.325 731, 594.903 727.625, 599 723.500 C 603.097 719.375, 606.225 716, 605.950 716 C 605.675 716, 602.097 719.375, 598 723.500 M 561.195 848.746 C 567.077 848.922, 576.977 848.923, 583.195 848.747 C 589.413 848.571, 584.600 848.427, 572.500 848.426 C 560.400 848.425, 555.313 848.569, 561.195 848.746" stroke="none" fill="#fcbd72" fill-rule="evenodd"/><path d="M 474.178 531.629 C 469.747 550.251, 468.638 558.810, 468.687 574 C 468.750 593.283, 471.263 604.015, 478.147 614.408 C 480.875 618.527, 489.122 626, 490.939 626 C 491.297 626, 492.407 622.063, 493.405 617.250 C 494.404 612.438, 496.052 606.869, 497.067 604.876 C 499.156 600.773, 504.052 596.304, 508.500 594.439 C 518.208 590.369, 522.915 581.191, 521.508 569.072 L 520.833 563.256 515.167 562.605 C 500.439 560.913, 490.418 550.705, 480.949 527.750 L 477.240 518.759 474.178 531.629" stroke="none" fill="#f9b132" fill-rule="evenodd"/><path d="M 529.500 561.674 C 521.499 562.672, 521.892 562.127, 522.211 571.779 L 522.500 580.500 529.660 581.140 C 538.583 581.937, 545.841 584.257, 553.189 588.661 C 558.789 592.017, 566.511 599.671, 569.638 604.964 L 571.232 607.663 576.702 604.082 L 582.172 600.500 581.558 595.795 C 581.220 593.207, 580.268 589.177, 579.443 586.840 C 578.619 584.502, 578.176 581.983, 578.460 581.243 C 578.745 580.502, 578.598 580.131, 578.134 580.417 C 577.670 580.704, 575.603 578.489, 573.541 575.494 C 569.264 569.286, 562.847 564.626, 555.614 562.478 C 551.007 561.110, 537.382 560.690, 529.500 561.674 M 497.144 605.750 C 496.261 607.958, 492 625.866, 492 627.366 C 492 627.955, 501.745 632.021, 507.446 633.811 C 515.209 636.248, 533.233 635.928, 544.542 633.151 C 556.197 630.290, 559.068 628.493, 561.166 622.753 L 562.833 618.193 553.666 618.127 C 537.037 618.008, 521.489 614.285, 506.821 606.910 C 502.544 604.760, 498.864 603, 498.644 603 C 498.423 603, 497.748 604.237, 497.144 605.750" stroke="none" fill="#c19b7a" fill-rule="evenodd"/><path d="M 538.728 560.722 C 540.503 560.943, 543.653 560.946, 545.728 560.730 C 547.802 560.513, 546.350 560.333, 542.500 560.328 C 538.650 560.324, 536.952 560.501, 538.728 560.722 M 520.103 583.593 C 518.697 587.480, 513.159 592.512, 506.204 596.222 C 503.397 597.718, 500.618 599.846, 500.027 600.949 C 499.052 602.771, 499.670 603.314, 506.776 606.887 C 521.495 614.288, 537.019 618.008, 553.682 618.127 C 561.751 618.185, 562.799 618.393, 562.336 619.846 C 562.046 620.756, 563.010 619.475, 564.479 617 C 565.947 614.525, 568.092 611.489, 569.245 610.254 C 571.155 608.208, 571.215 607.763, 569.921 605.277 C 567.396 600.426, 555.701 589.551, 550 586.753 C 543.566 583.595, 534.783 581.317, 526.886 580.756 C 521.334 580.362, 521.259 580.394, 520.103 583.593 M 550.328 842.500 C 550.333 846.350, 550.513 847.802, 550.730 845.728 C 550.946 843.653, 550.943 840.503, 550.722 838.728 C 550.501 836.952, 550.324 838.650, 550.328 842.500" stroke="none" fill="#d1af8f" fill-rule="evenodd"/><path d="M 316.708 373.435 C 314.707 375.436, 314.464 379.325, 316.250 380.758 C 316.938 381.309, 321.100 382.072, 325.500 382.453 C 347.706 384.378, 363.112 391.928, 372.004 405.245 C 380.288 417.649, 382.360 433.855, 377.408 447.500 C 376.010 451.350, 374.631 455.665, 374.344 457.089 C 373.668 460.432, 376.353 463.213, 379.863 462.804 C 385.681 462.126, 391.630 443.621, 390.721 429.032 C 388.702 396.652, 364.456 374.757, 327.958 372.355 C 319.751 371.814, 318.177 371.966, 316.708 373.435 M 517.255 499.750 C 510.379 504.423, 503.198 514.335, 500.911 522.312 C 500.197 524.800, 500.314 525.077, 501.794 524.398 C 502.732 523.967, 508.900 523.562, 515.500 523.498 C 528.499 523.370, 532.524 522.183, 535.536 517.585 C 539.543 511.469, 537.775 502.662, 531.810 499.026 C 527.146 496.182, 522.138 496.431, 517.255 499.750" stroke="none" fill="#ef9d26" fill-rule="evenodd"/><path d="M 274.448 369.074 C 260.176 370.761, 240.544 378.794, 228.794 387.755 L 224 391.411 224 493.087 L 224 594.763 227.250 597.971 C 231.659 602.324, 239.137 605.992, 245.024 606.689 C 251.619 607.470, 258.163 605.227, 270.548 597.938 C 287.599 587.904, 296.830 587.866, 313.170 597.764 C 318.390 600.926, 326.263 604.598, 331.424 606.278 C 339.181 608.804, 342.098 609.239, 351.500 609.273 C 361.121 609.309, 363.440 608.965, 370 606.535 C 382.528 601.893, 390.765 596.497, 404.408 583.995 C 408.757 580.009, 414.331 575.856, 416.795 574.767 C 422.633 572.184, 431.456 571.436, 438.872 572.895 C 444.197 573.943, 467.135 576.046, 467.747 575.543 C 467.882 575.431, 468.195 571.101, 468.442 565.920 C 469.011 553.978, 468.893 555.086, 470.708 544.500 C 471.556 539.550, 472.640 535.009, 473.117 534.408 C 473.593 533.807, 473.697 533.031, 473.349 532.682 C 473 532.334, 473.225 531.434, 473.849 530.682 C 474.472 529.931, 474.763 529.096, 474.495 528.828 C 473.566 527.900, 477.084 517.934, 478.116 518.572 C 478.677 518.918, 478.895 519.832, 478.600 520.601 C 478.304 521.371, 478.427 522, 478.873 522 C 479.626 522, 482.476 530.025, 482.030 530.888 C 481.919 531.102, 482.257 531.552, 482.780 531.888 C 484.143 532.765, 488.193 540.997, 487.270 541.015 C 486.847 541.024, 486.973 541.361, 487.551 541.765 C 488.130 542.169, 490.155 544.740, 492.051 547.478 C 496.192 553.454, 500 557.818, 500 556.585 C 500 556.093, 500.819 556.431, 501.820 557.337 C 504.369 559.644, 513.815 562.595, 518.012 562.395 C 519.944 562.303, 524.885 561.706, 528.991 561.069 C 534.963 560.143, 537.363 559.213, 540.979 556.426 C 550.947 548.744, 560.267 534.510, 563.520 522 C 569.319 499.697, 556.972 485.321, 526.146 478.482 C 514.828 475.970, 495.256 474, 481.627 474 C 467.213 474, 457.668 469.391, 451.197 459.306 C 447.849 454.090, 445 444.747, 445 438.986 C 445 433.978, 440.575 425.624, 436.007 422.006 C 427.911 415.594, 413.596 410.926, 396.500 409.123 C 391.550 408.601, 387.337 408.335, 387.138 408.533 C 386.938 408.730, 387.552 411.053, 388.502 413.696 C 389.560 416.639, 390.426 422.825, 390.737 429.667 C 391.175 439.292, 390.938 441.846, 389.018 448.167 C 386.593 456.154, 384.346 461.086, 382.610 462.235 C 380.142 463.868, 376.041 462.992, 374.395 460.480 C 372.824 458.082, 372.876 457.668, 375.486 451.851 C 380.958 439.659, 381.167 425.233, 376.045 413.327 L 373.828 408.173 358.164 407.820 C 343.497 407.490, 342.182 407.299, 337.500 404.818 C 331.163 401.460, 324.946 394.988, 321.585 388.250 C 320.145 385.363, 318.530 383, 317.996 383 C 317.462 383, 315.931 381.267, 314.594 379.148 C 309.646 371.311, 292.315 366.961, 274.448 369.074 M 867.137 412.617 C 865.868 413.506, 863.985 416.202, 862.954 418.607 C 861.105 422.922, 856.246 426.988, 852.932 426.996 C 849.312 427.005, 840.587 430.322, 838.380 432.529 C 834.410 436.499, 835.206 439.731, 841.610 445.644 L 847.221 450.824 846.534 457.665 C 845.890 464.076, 846.001 464.652, 848.296 466.809 C 850.219 468.615, 852.480 469.285, 858.803 469.922 C 867.021 470.751, 869.367 471.748, 876.515 477.450 C 881.212 481.197, 886.400 481.460, 889.129 478.089 C 891.407 475.276, 891.487 472.003, 889.447 465.135 C 887.641 459.052, 888.112 456.957, 892.511 451.500 C 896.685 446.323, 898 443.714, 898 440.613 C 898 436.302, 895.866 433.123, 890.784 429.861 C 887.115 427.507, 885.158 425.275, 882.980 420.961 C 878.336 411.761, 872.641 408.762, 867.137 412.617 M 519.500 497.353 C 512.177 500.718, 500 517.130, 500 523.635 C 500 525.732, 500.252 525.855, 502.677 524.933 C 504.149 524.373, 510.111 524.015, 515.927 524.136 C 524.472 524.315, 527.242 524.003, 530.368 522.509 C 534.399 520.582, 537.507 516.522, 538.535 511.840 C 539.325 508.245, 535.982 500.690, 532.632 498.494 C 529.146 496.210, 523.125 495.687, 519.500 497.353 M 621.931 704.761 C 609.450 712.390, 589.957 731.569, 581.088 744.947 C 565.777 768.040, 556.271 794.111, 552.517 823.301 C 551.683 829.792, 551 838.004, 551 841.551 L 551 848 572.500 848 L 594 848 594 841.131 C 594 827.339, 599.208 806.493, 606.067 792.835 C 619.339 766.403, 642.266 747.395, 665.059 743.927 C 677.869 741.978, 677.002 742.392, 676.979 738.231 C 676.960 734.993, 676.398 734.104, 672.729 731.508 C 668.699 728.656, 644.070 709.417, 635.410 702.356 L 631.320 699.022 621.931 704.761" stroke="none" fill="#ffc05a" fill-rule="evenodd"/><path d="M 551.174 336.036 C 530.047 339.067, 513.930 361.390, 517.809 382.250 C 519.503 391.355, 524.144 400.040, 530.281 405.588 C 556.666 429.439, 598.158 411.352, 598.158 376 C 598.158 350.681, 576.644 332.382, 551.174 336.036 M 764.984 340.019 C 756.733 344.799, 755.963 344.958, 748.544 343.402 C 740.843 341.788, 736.623 342.550, 733.374 346.139 C 731.921 347.745, 731.499 349.808, 731.474 355.419 C 731.446 361.947, 731.136 363.050, 728.221 367.014 C 723.763 373.076, 723.991 376, 729.373 381.793 C 732.432 385.085, 734.243 388.224, 735.398 392.237 C 737.057 398.003, 740.170 401, 744.500 401 C 747.462 401, 751.792 398.072, 753.919 394.631 C 756.191 390.955, 761.711 387.758, 765.291 388.044 C 771.642 388.553, 774.260 387.894, 777.077 385.077 C 780.935 381.219, 781.121 375.486, 777.528 371.216 C 772.158 364.834, 772.041 360.564, 777.044 353.576 C 781.125 347.876, 781.694 344.152, 779.006 340.734 C 777.273 338.532, 776.039 338, 772.662 338 C 770.273 338, 766.969 338.869, 764.984 340.019 M 662.392 744.895 C 626.589 753.700, 600.174 788.902, 594.934 834.795 C 594.247 840.813, 593.970 846.480, 594.319 847.388 C 594.885 848.864, 597.216 849.011, 616.226 848.770 L 637.500 848.500 638.174 842.388 C 640.740 819.132, 655.363 800.745, 673.173 798.383 L 678 797.742 678 770.371 L 678 743 673.750 743.074 C 671.413 743.114, 666.301 743.934, 662.392 744.895" stroke="none" fill="#f97732" fill-rule="evenodd"/><path d="M 224 339.998 L 224 390.996 230.235 386.406 C 238.552 380.283, 252.667 373.524, 262.500 370.956 C 279.082 366.625, 297.945 367.595, 309.066 373.350 L 313.632 375.713 316.372 373.357 C 319.501 370.665, 320.237 370.607, 332.500 372.104 C 355.583 374.921, 373.595 385.554, 383.152 402.007 L 386.500 407.769 394.500 408.457 C 412.801 410.030, 428.986 415.379, 436.796 422.435 C 442.217 427.332, 444.790 432.957, 446.008 442.569 C 447.253 452.397, 450.576 459.433, 456.595 464.981 C 464.614 472.372, 467.780 473.226, 490.500 474.119 C 546.322 476.314, 570.334 490.986, 564.520 519.349 C 562.134 530.988, 555.892 542.153, 546.476 551.621 L 538.401 559.742 545.451 560.283 C 555.837 561.079, 563.316 564.249, 569.405 570.435 C 572.207 573.282, 575.217 576.687, 576.093 578.002 L 577.686 580.394 589.593 576.596 C 608.973 570.416, 611.079 567.870, 612.002 549.498 C 612.538 538.846, 612.924 536.910, 615.439 532.289 C 620.972 522.123, 630.096 518.822, 647.139 520.822 C 652.632 521.466, 661.637 523.485, 667.495 525.384 L 678 528.791 678 408.895 L 678 289 451 289 L 224 289 224 339.998 M 548.281 335.970 C 537.019 338.646, 525.813 347.959, 520.589 358.982 C 517.746 364.982, 517.500 366.337, 517.500 376.022 C 517.500 385.903, 517.701 386.952, 520.797 393.240 C 529.619 411.157, 549.173 420.536, 567.500 415.641 C 579.954 412.314, 589.744 404.191, 595.099 392.741 C 598.198 386.113, 598.485 384.696, 598.492 376 C 598.499 367.322, 598.214 365.894, 595.197 359.500 C 591.626 351.932, 584.921 344.327, 578.500 340.563 C 570.170 335.680, 557.563 333.764, 548.281 335.970 M 320 383.466 C 320 383.881, 321.433 386.908, 323.184 390.194 C 327.591 398.462, 334.969 404.242, 344.500 406.891 C 349.177 408.192, 372 407.241, 372 405.746 C 372 405.221, 369.403 402.251, 366.230 399.146 C 359.931 392.983, 350.829 387.972, 341.539 385.552 C 334.734 383.780, 320 382.353, 320 383.466 M 422.734 573.088 C 416.262 574.613, 410.901 577.974, 403.068 585.419 C 391.652 596.268, 380.494 603.328, 368 607.607 C 359.778 610.423, 342.971 610.194, 333 607.131 C 325.968 604.970, 322.375 603.252, 307.563 594.968 C 302.657 592.224, 300.294 591.571, 293.945 591.203 C 284.663 590.666, 281.363 591.646, 270.745 598.095 C 259.120 605.156, 252.835 607.302, 245.455 606.731 C 238.722 606.210, 234.547 604.409, 228.250 599.309 L 224 595.866 224 722.437 L 224 849.008 343.750 848.754 L 463.500 848.500 464.154 833.266 C 464.746 819.466, 466.157 804.915, 467.591 797.805 C 468.068 795.440, 467.630 794.852, 464.022 793.011 C 457.996 789.937, 452.387 784.483, 446.919 776.380 C 439.186 764.920, 436.637 763.965, 408.599 762.022 C 374.975 759.691, 349.093 752.509, 342.604 743.707 C 337.611 736.934, 341.841 727.070, 353.530 718.229 C 368.079 707.225, 390.194 698.263, 429.430 687.471 C 436.557 685.510, 441.402 681.136, 442.759 675.440 C 443.275 673.273, 444.232 669.250, 444.886 666.500 C 449.641 646.500, 463.446 633.006, 483.869 628.393 L 491 626.783 487.250 624.063 C 475.941 615.861, 470.230 603.660, 468.437 583.869 L 467.746 576.238 458.623 575.527 C 453.605 575.136, 445.675 574.191, 441 573.426 C 431.462 571.865, 428.183 571.804, 422.734 573.088" stroke="none" fill="#fbe2ae" fill-rule="evenodd"/><path d="" stroke="none" fill="#e8ad53" fill-rule="evenodd"/><path d="M 240.966 228.750 L 235.500 234.500 241.250 229.034 C 246.592 223.956, 247.458 223, 246.716 223 C 246.560 223, 243.972 225.588, 240.966 228.750 M 853 244.500 C 855.987 247.525, 858.657 250, 858.932 250 C 859.207 250, 856.987 247.525, 854 244.500 C 851.013 241.475, 848.343 239, 848.068 239 C 847.793 239, 850.013 241.475, 853 244.500 M 792.906 280.961 C 769.192 283.995, 750.919 293.081, 733.500 310.500 C 715.445 328.555, 706.633 346.775, 703.995 371.500 C 702.681 383.816, 702.714 577.822, 704.032 589.500 C 708.769 631.464, 738.082 665.917, 778.500 677.026 C 788.346 679.732, 819.011 680.922, 831.073 679.066 C 869.155 673.207, 900.745 645.127, 912.712 606.500 L 915.500 597.500 915.500 481 L 915.500 364.500 913.180 356 C 906.848 332.808, 890.905 310.359, 871.790 297.721 C 854.516 286.301, 837.245 281.113, 814.500 280.513 C 806.250 280.295, 796.533 280.497, 792.906 280.961 M 853.400 319.943 C 851.255 321.562, 847.925 324.250, 846 325.916 C 841.440 329.863, 838.494 329.783, 830.701 325.500 C 823.410 321.492, 820.798 321.216, 816.277 323.973 C 812.596 326.217, 812.251 327.346, 811.707 338.919 L 811.311 347.339 804.156 354.055 C 795.975 361.733, 795.129 364.623, 799.532 369.855 C 801.607 372.322, 803.094 372.986, 807.782 373.540 C 814.881 374.380, 821.472 377.145, 822.948 379.902 C 823.563 381.052, 824.543 384.568, 825.124 387.715 C 827.741 401.867, 834.529 406.992, 846.772 404.055 C 854.168 402.280, 858.333 398.287, 861.539 389.898 C 864.890 381.128, 867.020 379.871, 876.175 381.257 C 884.543 382.523, 888.244 381.625, 891.924 377.434 C 897.799 370.742, 896.418 365.077, 886.148 353.744 C 881.023 348.089, 880.013 346.323, 879.045 341.326 C 875.812 324.639, 874.712 322.424, 867.945 318.972 C 862.401 316.144, 858.050 316.434, 853.400 319.943 M 765.461 339.111 C 763.283 340.272, 760.202 341.910, 758.615 342.751 C 756.225 344.019, 754.883 344.086, 750.789 343.141 C 741.988 341.109, 737.235 341.611, 733.923 344.923 C 731.260 347.586, 731 348.457, 731 354.707 C 731 360.874, 730.641 362.120, 727.448 367.034 C 723.032 373.827, 723.347 376.942, 728.979 382.180 C 731.739 384.747, 733.291 387.271, 734.110 390.522 C 734.755 393.086, 736.385 396.492, 737.731 398.092 C 739.738 400.478, 740.955 401, 744.504 401 C 748.985 401, 749.680 400.503, 756.245 392.601 C 758.381 390.029, 759.491 389.630, 766.077 389.062 C 774.645 388.323, 777.386 387.089, 779.490 383.020 C 781.575 378.988, 781.377 376.086, 778.746 372.080 C 772.787 363.008, 772.681 361.479, 777.500 354 C 781.945 347.100, 782.234 342.116, 778.365 339.073 C 774.998 336.424, 770.478 336.438, 765.461 339.111 M 783.500 410.942 C 781.300 412.023, 777.538 414.391, 775.141 416.204 C 770.938 419.382, 770.508 419.486, 763.141 419.104 C 745.410 418.185, 741.635 418.401, 738.776 420.500 C 737.277 421.600, 735.294 424.437, 734.369 426.803 C 732.500 431.587, 732.629 432.498, 737.440 448.500 C 740.976 460.263, 740.583 463.653, 733.964 478.500 C 727.249 493.559, 726.728 499.184, 731.593 504.053 C 737.843 510.307, 744.717 509.198, 761.839 499.174 C 777.272 490.138, 781.002 489.490, 796.719 493.109 C 807.017 495.481, 810.019 495.161, 813.585 491.314 C 818.224 486.309, 816.267 479.382, 805.020 461 L 799.820 452.500 800.428 445.500 C 802.121 426.036, 802.242 419.999, 801.003 417.006 C 798.284 410.444, 790.207 407.645, 783.500 410.942 M 867.401 411.855 C 865.673 412.932, 863.620 415.492, 862.758 417.643 C 860.590 423.060, 857.989 425.039, 850.887 426.680 C 842.233 428.679, 837.530 431.306, 836.003 434.992 C 834.297 439.111, 835.705 442.114, 840.977 445.604 C 845.685 448.719, 846.483 450.979, 845.540 458.523 C 844.899 463.657, 845.038 464.192, 847.713 466.867 C 850.192 469.346, 851.626 469.823, 858.535 470.467 C 867.409 471.293, 868.399 471.688, 875.319 477.158 C 882.453 482.797, 888.662 482.278, 890.900 475.856 C 891.770 473.361, 891.664 471.286, 890.409 466.286 C 888.487 458.622, 888.916 456.486, 893.475 451.030 C 900.951 442.082, 900.174 435.252, 890.998 429.253 C 887.296 426.832, 885.292 424.541, 883.125 420.253 C 881.527 417.089, 879.352 413.718, 878.294 412.762 C 875.246 410.010, 870.935 409.651, 867.401 411.855 M 846.428 490.080 C 845.393 491.223, 843.411 494.486, 842.023 497.330 C 839.789 501.908, 838.872 502.749, 834.019 504.676 C 828.313 506.942, 825 509.985, 825 512.963 C 825 513.921, 826.121 516.233, 827.492 518.102 C 828.863 519.971, 830.698 523.033, 831.571 524.907 C 833.058 528.099, 833.027 528.655, 831.079 533.746 C 828.277 541.067, 828.377 545.468, 831.414 548.505 C 834.747 551.838, 838.530 552.571, 843.941 550.931 C 846.448 550.171, 850.762 549.538, 853.526 549.525 C 857.814 549.504, 859.333 550.073, 863.858 553.395 C 877.924 563.722, 885.542 560.539, 884.279 544.861 L 883.744 538.222 889.872 532.282 C 894.708 527.594, 896 525.705, 896 523.325 C 896 519.500, 893.654 517.382, 888.013 516.114 C 882.805 514.944, 881 512.915, 881 508.232 C 881 503.452, 876.440 499, 871.545 499 C 866.181 499, 861.576 496.668, 859.132 492.714 C 857.937 490.780, 856.257 488.929, 855.398 488.599 C 852.251 487.392, 848.265 488.049, 846.428 490.080 M 108.336 524 C 108.336 528.125, 108.513 529.813, 108.728 527.750 C 108.944 525.688, 108.944 522.313, 108.728 520.250 C 108.513 518.188, 108.336 519.875, 108.336 524 M 790.870 522.024 C 788.874 522.516, 784.656 524.062, 781.496 525.459 C 774.685 528.471, 768.632 528.707, 757.451 526.395 C 748.596 524.563, 744.429 524.954, 739.356 528.089 C 731.588 532.890, 730.195 540.102, 734.626 552.582 C 737.844 561.647, 737.216 563.899, 729.917 569.465 C 723.216 574.575, 721 577.612, 721 581.685 C 721 588.427, 725.891 593.178, 735.251 595.527 C 740.583 596.865, 744.831 601.718, 746.976 608.920 C 748.093 612.670, 749.895 616.868, 750.981 618.249 C 755.207 623.622, 763.066 622.005, 767.605 614.829 C 769.111 612.448, 771.279 609.048, 772.422 607.274 C 775.744 602.118, 779.644 600.539, 786.614 601.526 C 797.982 603.136, 805.187 602.723, 808.633 600.266 C 815.133 595.629, 818.050 582.843, 814.530 574.417 C 813.721 572.482, 810.346 568.292, 807.030 565.107 C 799.589 557.961, 799.409 556.115, 805.100 545.310 C 808.445 538.959, 809.106 536.826, 808.690 533.725 C 807.470 524.628, 800.056 519.761, 790.870 522.024 M 108.336 557 C 108.336 561.125, 108.513 562.813, 108.728 560.750 C 108.944 558.688, 108.944 555.313, 108.728 553.250 C 108.513 551.188, 108.336 552.875, 108.336 557 M 856.214 577.891 C 838.874 583.881, 825.537 602.197, 825.553 620 C 825.562 630.049, 829.054 636.816, 836.465 641.148 C 840.959 643.775, 842.257 644.059, 848.539 643.787 C 873.889 642.691, 895.868 609.302, 885.114 588.224 C 879.733 577.675, 868.483 573.653, 856.214 577.891 M 849.966 839.750 L 844.500 845.500 850.250 840.034 C 855.592 834.956, 856.458 834, 855.716 834 C 855.560 834, 852.972 836.587, 849.966 839.750 M 518.728 971.722 C 520.503 971.943, 523.653 971.946, 525.728 971.730 C 527.802 971.513, 526.350 971.333, 522.500 971.328 C 518.650 971.324, 516.952 971.501, 518.728 971.722 M 552.728 971.722 C 554.503 971.943, 557.653 971.946, 559.728 971.730 C 561.802 971.513, 560.350 971.333, 556.500 971.328 C 552.650 971.324, 550.952 971.501, 552.728 971.722" stroke="none" fill="#f1e2ec" fill-rule="evenodd"/></svg>