<svg xmlns="http://www.w3.org/2000/svg" width="1080" height="1080" viewBox="0 0 1080 1080" version="1.1"><path d="M 713 481.004 C 699.203 484.704, 677.895 496.820, 662.250 509.863 C 656.603 514.570, 656 515.438, 656 518.855 C 656 520.935, 655.272 525.081, 654.382 528.068 C 652.299 535.057, 652.282 553.877, 654.349 563.678 C 658.391 582.846, 669.686 600.111, 684.781 610.195 C 690.018 613.693, 690.106 613.713, 695.281 612.485 C 709.934 609.009, 721.450 602.174, 731.357 591.074 C 747.482 573.009, 755.727 542.582, 752.107 514.500 C 748.430 485.978, 735.561 474.956, 713 481.004 M 389.345 505.147 C 383.762 506.401, 376.726 512.752, 373.682 519.286 C 369.367 528.550, 368.518 534.248, 368.509 554 C 368.500 574.993, 370.093 583.527, 376.820 598.500 C 381.980 609.986, 384.352 613.235, 392.893 620.513 C 401.774 628.079, 413.616 634.294, 423.500 636.574 C 427.350 637.462, 434.732 639.519, 439.904 641.146 C 454.058 645.596, 467.701 646.734, 482.089 644.665 C 493.945 642.960, 504.514 640.005, 504.482 638.405 C 504.472 637.907, 498.601 625.800, 491.436 611.500 C 473.008 574.720, 462.737 548.553, 464.522 542.930 C 465.160 540.919, 459.109 535.231, 447.400 526.835 C 430.420 514.660, 417.508 508.145, 405 505.440 C 397.680 503.857, 395.289 503.813, 389.345 505.147" stroke="none" fill="#ffffff" fill-rule="evenodd"/><path d="M 839 214.977 C 811.570 220.902, 776.802 243.553, 740.728 279 L 724.954 294.500 729.129 301 C 731.425 304.575, 736.358 313.739, 740.092 321.365 C 765.238 372.726, 769.717 434.020, 752.173 486.706 C 748.825 496.760, 748.564 498.266, 749.637 501.365 C 752.738 510.322, 753.865 538.433, 751.487 547.500 C 751.064 549.112, 752.955 550.993, 761.231 557.194 C 770.690 564.281, 790.538 575.795, 791.551 574.782 C 791.790 574.544, 792.673 570.401, 793.514 565.577 C 796.319 549.494, 800.335 540.425, 807.400 534.222 C 811.798 530.361, 814.412 529.621, 821.558 530.213 C 828.798 530.814, 843.618 538.183, 851.160 544.934 C 854.273 547.720, 857.051 550, 857.333 550 C 857.614 550, 858.329 548.538, 858.921 546.750 C 859.628 544.614, 861.698 542.341, 864.960 540.119 C 871.943 535.364, 881.904 524.757, 887.475 516.144 C 916.924 470.621, 924.820 380.203, 909.307 266.127 L 906.672 246.755 902.008 239.627 C 887.434 217.360, 866.281 209.084, 839 214.977 M 219.411 241.484 C 209.469 243.647, 201.369 248.368, 193 256.878 C 181.890 268.174, 180.629 271.089, 177.590 292.503 C 171.865 332.848, 169.717 362.319, 169.719 400.500 C 169.721 453.075, 175.219 490.742, 187.274 520.763 C 195.474 541.185, 207.721 557.983, 220.974 566.982 C 225.713 570.200, 227.182 571.984, 230.314 578.322 C 237.588 593.040, 250.647 603.336, 265.537 606.093 C 280.080 608.787, 298.770 602.758, 319.236 588.771 C 328.353 582.541, 346.479 567.330, 353.700 559.850 L 357.900 555.500 358.200 531 L 358.500 506.500 354.216 495.670 C 349.218 483.036, 344.637 465.089, 342.585 450.098 C 336.630 406.603, 342.262 367.240, 360.368 325.802 L 361.984 322.104 348.742 308.792 C 311.599 271.454, 272.930 246.480, 244.619 241.547 C 234.064 239.708, 227.646 239.692, 219.411 241.484 M 367.320 554 C 367.320 557.575, 367.502 559.038, 367.723 557.250 C 367.945 555.462, 367.945 552.538, 367.723 550.750 C 367.502 548.962, 367.320 550.425, 367.320 554" stroke="none" fill="#facee1" fill-rule="evenodd"/><path d="M 857 150.918 C 822.071 158.659, 782.581 182.392, 738.570 222.095 C 721.293 237.680, 699 260.320, 699 262.280 C 699 263.010, 700.620 265.158, 702.600 267.054 C 706.122 270.425, 719.965 287.272, 723.062 291.957 L 724.625 294.320 733.562 285.025 C 738.478 279.913, 748.107 270.799, 754.961 264.771 C 823.108 204.838, 874.621 196.213, 902.921 239.999 C 907.196 246.613, 907.741 248.929, 910.929 274 C 917.812 328.128, 919.394 388.306, 914.937 426.428 C 908.111 484.808, 892.053 521.465, 864.778 540.929 C 861.748 543.091, 859.660 545.499, 858.951 547.649 C 858.343 549.492, 857.602 551, 857.306 551 C 857.010 551, 854.110 548.540, 850.862 545.533 C 847.144 542.091, 841.388 538.294, 835.322 535.283 C 826.959 531.131, 824.874 530.500, 819.521 530.500 C 814.480 530.500, 812.602 530.998, 809.232 533.228 C 802.110 537.941, 796.075 550.961, 793.836 566.444 C 792.996 572.257, 792.175 575, 791.275 575 C 787.394 575, 769.237 564.194, 757.250 554.751 C 751.415 550.155, 750.997 549.983, 750.958 552.164 C 750.887 556.149, 744.531 573.521, 740.928 579.578 C 739.043 582.747, 734.963 588.079, 731.862 591.428 L 726.224 597.516 733.862 604.087 C 745.271 613.902, 756.831 622.445, 767.540 628.974 C 772.818 632.192, 776.626 635.113, 776.027 635.484 C 773.983 636.747, 756.499 636.120, 748.493 634.497 C 737.626 632.294, 706.782 621.923, 698.110 617.555 C 694.227 615.600, 690.557 614, 689.955 614 C 687.910 614, 679.547 607.600, 673.274 601.234 C 662.546 590.345, 655.636 576.239, 652.986 559.816 C 651.811 552.531, 652.068 533.780, 653.409 529 C 654.100 526.536, 654.321 525.323, 655.491 517.585 C 656.027 514.044, 655.721 513.294, 652.292 509.735 C 648.194 505.482, 635.004 495.024, 628.432 490.817 C 601.847 473.798, 570.302 470.107, 542.015 480.708 C 515.329 490.709, 492.151 508.540, 467.462 538.063 L 465.424 540.500 469.240 553.275 C 471.339 560.302, 475.722 572.642, 478.980 580.699 C 482.238 588.755, 484.631 595.788, 484.297 596.328 C 483.932 596.919, 484.218 596.984, 485.015 596.490 C 486.008 595.877, 486.159 596.144, 485.617 597.555 C 485.220 598.591, 485.220 599.113, 485.619 598.714 C 486.018 598.316, 489.336 603.729, 492.994 610.745 C 507.198 637.989, 519.076 654.589, 535 669.446 C 569.401 701.544, 606.875 724.679, 645 737.356 C 672.572 746.525, 693.396 749.993, 722.181 750.212 L 738.861 750.338 739.417 757.419 C 739.723 761.314, 740.923 788.743, 742.083 818.374 L 744.192 872.247 749.952 880.374 C 758.463 892.381, 768.555 909.613, 772.648 919.126 C 774.630 923.731, 776.380 927.647, 776.537 927.827 C 776.693 928.007, 780.799 927.417, 785.661 926.515 C 794.966 924.789, 805.189 921.475, 812.134 917.932 C 824.531 911.607, 840.049 890.082, 844.526 873 C 846.734 864.579, 846.741 850.467, 844.542 842 C 842.442 833.914, 837.030 822.517, 833.311 818.351 C 831.765 816.619, 813.183 800.194, 792.017 781.851 C 759.870 753.991, 753.942 748.456, 756.017 748.230 C 768.013 746.926, 797.680 737.702, 810.297 731.353 C 846.765 713.002, 869.102 676.813, 872.927 629.887 C 873.805 619.109, 874.087 618.072, 877.928 611.500 C 880.167 607.668, 882.487 603.055, 883.083 601.247 C 883.854 598.912, 885.953 596.753, 890.334 593.790 C 905.591 583.472, 919.886 566.134, 930.404 545.191 C 960.497 485.272, 969.242 380.777, 954.940 252 C 952.948 234.068, 948.643 202.427, 947.412 196.671 C 946.529 192.544, 936.090 177.429, 929.419 170.618 C 921.878 162.919, 910.934 155.860, 901.271 152.462 C 890.714 148.750, 870.036 148.029, 857 150.918 M 195.500 177.027 C 177.271 180.710, 161.038 191.617, 147.916 209 C 140.951 218.225, 139.362 222.850, 136.578 242 C 128.055 300.620, 124.399 354.286, 125.303 407.500 C 126.117 455.410, 129.954 489.686, 138.174 522.471 C 149.856 569.068, 169.741 603.263, 195.161 620.467 C 202.174 625.214, 202.708 625.859, 207.183 634.986 C 215.536 652.024, 227.074 663.304, 243.429 670.422 C 250.269 673.399, 250.974 673.499, 265 673.470 C 279.116 673.441, 279.790 673.340, 290.447 669.682 C 314.857 661.302, 339.952 644.378, 367.849 617.482 L 379.672 606.083 376.449 599.291 C 368.325 582.177, 365.334 560.132, 368.088 537.678 L 369.170 528.855 364.085 518.880 L 359 508.904 359 531.818 L 359 554.731 347.481 565.890 C 332.323 580.574, 317.156 591.815, 303.500 598.487 C 289.704 605.228, 280.889 607.402, 269.738 606.817 C 260.681 606.342, 251.650 602.947, 244.466 597.317 C 239.660 593.551, 232.360 583.843, 228.948 576.681 C 226.808 572.191, 225.077 570.166, 221.365 567.812 C 214.800 563.649, 204.295 552.862, 199.150 545 C 171.863 503.307, 162.773 426.725, 173.074 325.297 C 176.434 292.205, 179.330 274.819, 182.336 269.690 C 190.286 256.124, 201.448 246.719, 214.724 242.399 C 222.277 239.941, 223.907 239.764, 234.724 240.225 C 244.416 240.638, 248.181 241.288, 256 243.899 C 283.757 253.169, 312.920 273.236, 346.572 306.221 L 362.644 321.975 365.572 315.809 C 367.182 312.417, 371.988 304.298, 376.250 297.766 C 380.512 291.235, 384 285.529, 384 285.086 C 384 283.946, 350.105 250.588, 340.500 242.275 C 329.897 233.098, 315.578 221.856, 304.500 214.010 C 277.644 194.991, 248.623 181.442, 226.160 177.436 C 217.832 175.951, 201.881 175.738, 195.500 177.027 M 371.661 761.413 C 369.497 774.187, 360.075 794.960, 348.634 812.187 C 337.946 828.279, 326.641 841.538, 306.587 861.500 C 291.669 876.350, 286.901 881.740, 284.755 886.176 C 274.863 906.633, 280.575 926.880, 302.500 949.077 C 311.406 958.094, 320.621 963.304, 333.500 966.604 C 340.917 968.504, 363.784 968.884, 371 967.227 L 374.500 966.423 375.235 953.461 C 375.966 940.588, 379.401 913.574, 381.031 907.891 C 381.517 906.199, 381.477 902.467, 380.939 899.211 C 379.764 892.093, 376.427 858.457, 374.916 838.500 C 374.291 830.250, 373.491 808.425, 373.137 790 C 372.694 766.955, 372.234 758.033, 371.661 761.413" stroke="none" fill="#959799" fill-rule="evenodd"/><path d="M 713 481.004 C 699.203 484.704, 677.895 496.820, 662.250 509.863 C 656.603 514.570, 656 515.438, 656 518.855 C 656 520.935, 655.272 525.081, 654.382 528.068 C 652.299 535.057, 652.282 553.877, 654.349 563.678 C 658.391 582.846, 669.686 600.111, 684.781 610.195 C 690.018 613.693, 690.106 613.713, 695.281 612.485 C 709.934 609.009, 721.450 602.174, 731.357 591.074 C 747.482 573.009, 755.727 542.582, 752.107 514.500 C 748.430 485.978, 735.561 474.956, 713 481.004 M 389.345 505.147 C 383.762 506.401, 376.726 512.752, 373.682 519.286 C 369.367 528.550, 368.518 534.248, 368.509 554 C 368.500 574.993, 370.093 583.527, 376.820 598.500 C 381.980 609.986, 384.352 613.235, 392.893 620.513 C 401.774 628.079, 413.616 634.294, 423.500 636.574 C 427.350 637.462, 434.732 639.519, 439.904 641.146 C 454.058 645.596, 467.701 646.734, 482.089 644.665 C 493.945 642.960, 504.514 640.005, 504.482 638.405 C 504.472 637.907, 498.601 625.800, 491.436 611.500 C 473.008 574.720, 462.737 548.553, 464.522 542.930 C 465.160 540.919, 459.109 535.231, 447.400 526.835 C 430.420 514.660, 417.508 508.145, 405 505.440 C 397.680 503.857, 395.289 503.813, 389.345 505.147" stroke="none" fill="#ffffff" fill-rule="evenodd"/><path d="M 657.030 437.583 C 652.069 439.735, 650.034 441.824, 647.368 447.500 C 640.352 462.438, 648.765 481.167, 662.492 481.167 C 681.675 481.167, 686.838 447.255, 669.026 438.250 C 663.854 435.635, 661.787 435.520, 657.030 437.583 M 447.283 452.910 C 437.403 460.067, 435.318 477.237, 443.036 487.891 C 455.242 504.741, 477.586 489.482, 473.138 467.334 C 470.122 452.314, 457.684 445.375, 447.283 452.910" stroke="none" fill="#1a1a1a" fill-rule="evenodd"/><path d="M 528.628 202.061 C 477.016 208.052, 426.160 235.202, 393.391 274.258 C 364.676 308.484, 347.024 350.218, 341.900 396 C 340.319 410.124, 341.303 440.090, 343.836 455 C 347.793 478.286, 356.130 504.052, 365.281 521.275 L 369.412 529.050 370.541 525.275 C 373.360 515.853, 379.232 508.464, 386.218 505.551 C 390.959 503.573, 400.909 503.565, 408.460 505.532 C 421.110 508.826, 443.393 521.721, 458.321 534.385 C 464.590 539.704, 467 541.035, 467 539.180 C 467 538.729, 471.065 533.779, 476.033 528.180 C 495.860 505.838, 518.582 489.490, 542.015 480.708 C 570.302 470.107, 601.847 473.798, 628.432 490.817 C 635.051 495.054, 648.205 505.494, 652.371 509.816 L 656.242 513.832 663.801 507.825 C 680.428 494.612, 694.153 486.573, 707.985 481.947 C 716.301 479.165, 718.466 478.826, 725.552 479.198 C 732.455 479.560, 734.281 480.056, 738.067 482.594 C 740.643 484.320, 743.834 487.791, 745.685 490.879 L 748.869 496.193 751.949 486.346 C 759.631 461.784, 762.497 440.390, 761.705 413.516 C 760.666 378.237, 754.560 352.562, 740.061 322.500 C 717.822 276.390, 685.514 243.341, 641.785 221.969 C 620.056 211.350, 597.086 204.626, 573.789 202.067 C 562.832 200.863, 538.973 200.860, 528.628 202.061 M 656.423 436.913 C 653.319 438.250, 648.516 443.392, 646.600 447.430 C 642.099 456.915, 644.141 469.405, 651.376 476.639 C 661.272 486.536, 675.181 481.505, 679.559 466.445 C 682.350 456.843, 678.772 444.165, 671.819 439.024 C 668.309 436.430, 660.144 435.310, 656.423 436.913 M 449 451.251 C 442.424 454.764, 438.662 461.292, 438.167 470.047 C 437.684 478.606, 439.859 485.518, 444.559 490.358 C 456.957 503.124, 475.126 490.894, 473.825 470.659 C 472.791 454.565, 460.615 445.046, 449 451.251 M 465.420 546.278 C 466.658 557.037, 475.945 579.531, 493.761 614.924 C 502.679 632.639, 505.715 639.558, 504.815 640.115 C 502.339 641.644, 486.289 645.058, 477.500 645.924 C 465.667 647.091, 451.892 645.638, 440.500 642.023 C 435.550 640.453, 428.350 638.460, 424.500 637.594 C 415.275 635.521, 400.521 628.173, 394.236 622.523 C 391.470 620.035, 388.972 618, 388.686 618 C 387.858 618, 384.147 634.766, 381.546 650.258 C 375.532 686.082, 372.881 722.709, 372.952 769 C 373.023 814.871, 376.036 865.554, 380.486 895.734 C 381.366 901.704, 381.535 906.123, 380.965 908.234 C 380.479 910.030, 379.104 918.025, 377.909 926 C 374.956 945.713, 374.685 971.853, 377.346 980.500 C 380.064 989.330, 381.677 991.556, 390.484 998.626 C 403.784 1009.302, 417.499 1013.355, 432.265 1010.973 C 438.821 1009.916, 440.470 1009.972, 444.647 1011.395 C 455.423 1015.067, 466.264 1014.667, 472.606 1010.364 L 476.338 1007.831 482.419 1009.622 C 486.363 1010.784, 491.678 1011.399, 497.544 1011.374 C 505.077 1011.342, 507.523 1010.907, 512.191 1008.770 C 519.293 1005.519, 525.041 999.784, 529.221 991.779 L 532.500 985.500 532.500 969 C 532.500 954.477, 532.219 951.605, 530.153 945.025 C 526.956 934.842, 523.713 928.682, 517.507 921 C 512.536 914.847, 512.090 913.807, 509.145 901.500 C 504.280 881.175, 501.909 865.716, 501.283 850.250 C 500.805 838.434, 500.945 836.005, 502.103 836.030 C 502.871 836.046, 511.598 836.469, 521.495 836.970 C 541.912 838.004, 571.373 836.913, 589 834.472 C 599.354 833.039, 615.624 829.889, 620.232 828.426 C 621.904 827.896, 622 830.205, 622 870.871 C 622 906.829, 621.737 914.992, 620.397 920.688 C 616.981 935.199, 620.225 947.656, 632.045 965.429 C 639.755 977.021, 645.633 982.735, 653.842 986.619 C 663.580 991.225, 678.351 989.710, 689.850 982.926 L 693.334 980.870 699.865 984.185 C 705.976 987.287, 707.041 987.500, 716.448 987.494 C 728.530 987.487, 733.776 985.621, 747.506 976.445 C 766.946 963.453, 777.410 949.274, 777.351 936 C 777.327 930.496, 776.638 927.968, 772.852 919.500 C 767.914 908.456, 758.778 892.851, 749.945 880.374 L 744.192 872.247 742.083 818.374 C 740.923 788.743, 739.723 761.314, 739.417 757.419 L 738.861 750.338 722.181 750.212 C 713.006 750.142, 701.225 749.602, 696 749.012 C 657.605 744.673, 616.021 729.117, 581.500 706.178 C 554.848 688.469, 529.743 666.574, 517.368 650.248 C 498.972 625.978, 477.888 583.617, 469.464 554 C 466.186 542.478, 464.643 539.532, 465.420 546.278" stroke="none" fill="#7c848d" fill-rule="evenodd"/><path d="" stroke="none" fill="#1e1e1e" fill-rule="evenodd"/><path d="M 737.483 281.250 L 726.500 292.500 737.750 281.517 C 748.199 271.316, 749.454 270, 748.733 270 C 748.586 270, 743.524 275.063, 737.483 281.250 M 917.374 372.500 C 917.376 378.550, 917.541 380.896, 917.740 377.713 C 917.939 374.531, 917.937 369.581, 917.736 366.713 C 917.535 363.846, 917.372 366.450, 917.374 372.500 M 169.349 381 C 169.349 385.675, 169.522 387.587, 169.732 385.250 C 169.943 382.913, 169.943 379.087, 169.732 376.750 C 169.522 374.413, 169.349 376.325, 169.349 381 M 340.374 416.500 C 340.376 422.550, 340.541 424.896, 340.740 421.713 C 340.939 418.531, 340.937 413.581, 340.736 410.713 C 340.535 407.846, 340.372 410.450, 340.374 416.500 M 169.343 420.500 C 169.346 424.900, 169.522 426.576, 169.733 424.224 C 169.945 421.872, 169.942 418.272, 169.727 416.224 C 169.512 414.176, 169.339 416.100, 169.343 420.500 M 874.966 531.750 L 869.500 537.500 875.250 532.034 C 880.592 526.956, 881.458 526, 880.716 526 C 880.560 526, 877.972 528.587, 874.966 531.750 M 358.378 544 C 358.378 550.325, 358.541 552.913, 358.739 549.750 C 358.937 546.587, 358.937 541.413, 358.739 538.250 C 358.541 535.087, 358.378 537.675, 358.378 544" stroke="none" fill="#a59ea9" fill-rule="evenodd"/></svg>