<svg xmlns="http://www.w3.org/2000/svg" width="1080" height="1080" viewBox="0 0 1080 1080" version="1.1"><path d="M 69.724 404.434 C 65.997 405.749, 60.708 408.262, 57.971 410.018 C 47.075 417.010, 38.249 430.609, 36.044 443.801 C 35.250 448.550, 35.008 484.703, 35.213 568 L 35.502 685.500 37.755 691.419 C 44.175 708.281, 59.098 721.412, 75.799 724.895 C 82.806 726.356, 994.579 726.466, 1003.500 725.007 C 1006.800 724.467, 1012.425 722.595, 1016 720.846 C 1024.386 716.743, 1035.468 705.741, 1039.340 697.674 C 1045.084 685.707, 1044.964 688.527, 1044.975 564.500 C 1044.981 491.130, 1044.618 448.183, 1043.955 444 C 1040.965 425.128, 1026.780 409.163, 1008.068 403.612 C 1003.107 402.139, 962.553 402.002, 539.568 402.021 L 76.500 402.042 69.724 404.434 M 124.912 450.445 C 112.991 453.733, 100.228 463.586, 94.227 474.133 C 87.744 485.527, 87.923 482.734, 88.226 567.589 L 88.500 644.500 92.218 652.321 C 96.842 662.048, 106.683 672.328, 115.210 676.336 C 128.260 682.472, 93.806 682.036, 544.048 681.756 L 955.500 681.500 961.348 679.291 C 976.453 673.586, 987.586 662.453, 993.291 647.348 C 995.484 641.542, 995.502 640.985, 995.793 569.500 C 995.996 519.527, 995.742 495.451, 994.961 490.801 C 991.934 472.772, 979.107 457.724, 961.455 451.496 L 954.500 449.042 542 449.111 C 212.524 449.165, 128.577 449.434, 124.912 450.445" stroke="none" fill="#ffffff" fill-rule="evenodd"/><path d="M 126.275 450.539 C 108.313 455.377, 94.161 469.440, 89.453 487.131 C 87.254 495.392, 87.324 634.985, 89.531 643.458 C 93.740 659.617, 106.103 673.051, 121.893 678.626 L 128.500 680.958 541.145 680.979 C 949.972 681, 953.849 680.982, 960.217 679.015 C 972.319 675.277, 982.435 667.004, 988.972 655.500 C 995.142 644.641, 995 646.764, 995 565.500 C 995 500.234, 994.807 490.713, 993.388 485.932 C 988.058 467.966, 972.970 453.811, 955.201 450.105 C 951.379 449.308, 835.812 449.018, 540.701 449.066 C 192.221 449.122, 130.725 449.340, 126.275 450.539 M 744.500 505.850 C 739.158 507.587, 737 510.760, 737 516.878 C 737 519.653, 737.729 521.736, 739.365 523.638 C 741.407 526.012, 742.640 526.446, 748.375 526.811 C 756.280 527.314, 760.508 525.852, 762.547 521.909 C 765.599 516.007, 763.672 509.603, 757.986 506.752 C 754.526 505.016, 748.337 504.602, 744.500 505.850 M 364.299 515.503 C 360.732 518.002, 359.693 523.103, 360.471 534.306 L 361.171 544.387 357.142 540.747 C 345.036 529.811, 326.868 536.189, 319.811 553.853 C 317.839 558.789, 317.551 561.326, 317.527 574 C 317.502 587.571, 317.667 588.852, 320.101 594 C 324.723 603.771, 330.531 607.952, 340.609 608.761 C 349.147 609.446, 353.215 608.482, 358.360 604.555 L 362.766 601.192 363.871 603.616 C 366.601 609.607, 379.122 609.418, 381.890 603.343 C 382.645 601.685, 383 587.950, 383 560.376 L 383 519.846 380.077 516.923 C 377.574 514.420, 376.384 514, 371.799 514 C 368.654 514, 365.560 514.620, 364.299 515.503 M 630.329 515.403 C 628.585 516.192, 626.672 517.744, 626.079 518.853 C 625.358 520.200, 625 534.313, 625 561.378 L 625 601.888 627.283 604.543 C 629.901 607.587, 636.731 608.858, 641.198 607.132 C 647.047 604.872, 647.064 604.747, 647.359 562.858 C 647.508 541.761, 647.260 523.105, 646.809 521.400 C 646.358 519.695, 645.110 517.504, 644.035 516.532 C 641.444 514.187, 634.316 513.600, 630.329 515.403 M 666.476 515.341 C 664.812 516.096, 662.900 517.924, 662.226 519.404 C 660.502 523.187, 660.474 598.751, 662.195 602.528 C 665.665 610.144, 680.169 609.691, 682.892 601.881 C 683.501 600.132, 684 594.269, 684 588.851 L 684 579 686.826 579 C 691.564 579, 695.623 585.090, 698.933 597.164 C 699.655 599.798, 701.501 603.064, 703.172 604.664 C 705.886 607.265, 706.755 607.500, 713.654 607.500 C 720.353 607.500, 721.386 607.242, 723.088 605.139 C 724.140 603.841, 725 601.557, 725 600.064 C 725 597.043, 721.197 585.256, 718.508 579.941 C 715.272 573.548, 709.678 569, 705.050 569 C 702.546 569, 702.341 567.344, 704.750 566.579 C 707.195 565.802, 714.602 558.439, 718.200 553.209 C 724.556 543.971, 722.318 537.484, 712.405 536.412 C 708.814 536.024, 706.568 536.367, 704.020 537.691 C 700.453 539.545, 699.935 540.305, 695.416 550.318 C 693.972 553.518, 690.925 558.018, 688.645 560.318 L 684.500 564.500 684 542.270 L 683.500 520.041 680.868 517.411 C 677.700 514.246, 671.011 513.284, 666.476 515.341 M 173.775 519.530 C 172.276 520.359, 170.589 521.900, 170.025 522.953 C 169.376 524.166, 169 538.988, 169 563.378 L 169 601.888 171.412 604.694 L 173.823 607.500 195.162 607.811 C 206.898 607.982, 217.966 607.849, 219.758 607.515 C 226.218 606.309, 228.515 597.561, 223.504 593.250 C 221.062 591.149, 219.963 591, 206.944 591 L 193 591 193 581.500 L 193 572 204.045 572 C 214.439 572, 215.236 571.855, 217.545 569.545 C 220.723 566.368, 220.740 561.973, 217.589 558.306 C 215.257 555.592, 214.812 555.489, 204.089 555.162 L 193 554.823 193 545 L 193 535.178 205.910 535.339 C 217.601 535.485, 219.088 535.302, 221.660 533.400 C 225.739 530.384, 226.127 524.409, 222.468 520.968 C 219.862 518.518, 219.687 518.498, 198.172 518.261 C 180.401 518.065, 176.010 518.293, 173.775 519.530 M 433.476 519.396 C 429.244 521.240, 427.998 524.751, 428.010 534.797 C 428.045 564.391, 433.484 591.080, 441.667 601.807 C 446.783 608.515, 458.126 610.948, 466.500 607.134 C 471.565 604.828, 477.591 598.184, 480.408 591.800 L 482.590 586.857 484.286 592.238 C 486.264 598.514, 491.485 605.053, 496.368 607.370 C 503.818 610.906, 515.408 608.573, 521.178 602.376 C 529.607 593.325, 534.733 572.185, 536.559 538.941 C 537.135 528.451, 536.986 525.875, 535.655 523.300 C 534.069 520.232, 529.823 517.996, 525.601 518.004 C 522.094 518.010, 517.243 521.605, 516.597 524.677 C 516.270 526.230, 515.564 537.175, 515.028 549 C 513.740 577.400, 511.420 586, 505.044 586 C 499.435 586, 497.243 577.152, 495.878 549 C 495.278 536.625, 494.307 525.207, 493.721 523.627 C 491.172 516.754, 476.632 516.213, 473.075 522.860 C 472.534 523.871, 471.995 531.629, 471.878 540.100 C 471.390 575.502, 469.987 584.212, 464.554 585.576 C 455.805 587.772, 453.376 580.144, 452.104 546.473 C 451.622 533.712, 450.844 524.577, 450.125 523.234 C 447.594 518.504, 439.700 516.684, 433.476 519.396 M 879.173 535.075 C 860.806 537.458, 853.025 544.872, 853.015 560 C 853.010 568.934, 854.491 573.492, 858.984 578.366 L 862.815 582.523 859.929 585.754 C 854.841 591.448, 854.821 598.726, 859.878 603.711 L 862.674 606.466 858.799 608.201 C 852.312 611.106, 850.318 618.699, 853.945 626.688 C 858.228 636.122, 869.900 640.573, 888.177 639.743 C 901.274 639.148, 906.945 637.451, 912.918 632.338 C 924.542 622.389, 925.035 604.102, 913.851 597.720 C 908.002 594.382, 905.925 593.990, 889.307 593.088 C 877.632 592.455, 874.635 591.980, 873.001 590.501 C 869.001 586.881, 870.362 586.309, 882.750 586.407 C 890.005 586.464, 896.301 585.977, 899.208 585.132 C 904.939 583.466, 911.749 577.845, 913.704 573.166 C 915.843 568.048, 915.528 555.997, 913.127 551.026 L 911.181 547 914.091 547 C 917.373 547, 921 543.932, 921 541.155 C 921 537.561, 917.438 535.745, 908.758 534.915 C 898.532 533.938, 887.476 533.997, 879.173 535.075 M 275.618 536.638 C 272.201 537.688, 269.276 539.637, 265.868 543.135 L 261 548.133 261 544.138 C 261 541.883, 260.333 539.476, 259.468 538.611 C 255.383 534.526, 243.783 536.051, 241.289 541 C 240.363 542.838, 240.026 551.234, 240.015 572.694 L 240 601.888 242.413 604.694 C 244.564 607.195, 245.486 607.500, 250.891 607.500 C 256.114 607.500, 257.321 607.133, 259.600 604.855 L 262.245 602.210 262.400 581.855 C 262.567 559.807, 262.924 558.125, 267.980 555.510 C 272.649 553.096, 277.503 553.553, 279.927 556.635 C 281.870 559.104, 282 560.547, 282 579.570 C 282 590.735, 282.431 601.003, 282.957 602.387 C 285.281 608.500, 297.141 609.863, 301.717 604.543 C 303.956 601.940, 304 601.429, 304 578.126 C 304 559.271, 303.670 553.252, 302.403 548.984 C 298.930 537.292, 288.758 532.603, 275.618 536.638 M 570.226 536.050 C 561.973 537.522, 555.504 541.284, 552.546 546.331 C 548.130 553.866, 549.943 559.297, 557.439 560.987 C 563.925 562.449, 566.708 561.310, 571.069 555.406 C 574.078 551.333, 575.793 549.942, 578.411 549.451 C 585.499 548.121, 589 551.924, 589 560.950 L 589 566 581.750 566.015 C 568.297 566.042, 556.911 569.921, 551.205 576.420 C 547.648 580.470, 546.570 584.800, 547.206 592.474 C 548.030 602.407, 554.892 608.061, 567.022 608.802 C 574.650 609.267, 580.315 607.954, 585.315 604.561 C 588.819 602.183, 588.920 602.173, 589.538 604.120 C 590.333 606.625, 593.864 608, 599.500 608 C 605.698 608, 608.886 606.500, 610.414 602.866 C 612.353 598.256, 611.496 556.227, 609.341 550.211 C 605.842 540.441, 598.110 535.928, 584 535.417 C 579.325 535.247, 573.127 535.532, 570.226 536.050 M 812 536.517 C 807.292 538.083, 804.026 540.549, 800.250 545.387 L 798 548.270 798 545.069 C 798 540.364, 796.440 538.212, 792.080 536.906 C 786.979 535.377, 781.898 536.415, 778.910 539.596 L 776.500 542.160 776.500 572.057 L 776.500 601.953 779.097 604.551 C 782.241 607.696, 788.625 608.812, 793.028 606.988 C 798.437 604.748, 799 602.244, 799 580.450 L 799 560.800 802.400 557.400 C 805.161 554.639, 806.571 554, 809.900 554 C 818.148 554, 819.637 558.756, 818.694 582.092 C 818.067 597.608, 818.753 602.562, 821.928 605.435 C 824.464 607.730, 831.224 608.564, 834.911 607.037 C 840.267 604.818, 841 601.477, 841 579.283 C 841 551.266, 838.967 542.615, 831.263 537.853 C 826.928 535.175, 817.914 534.549, 812 536.517 M 745.329 537.458 C 743.585 538.216, 741.672 539.744, 741.079 540.853 C 740.377 542.164, 740 553.182, 740 572.378 C 740 601.763, 740.010 601.900, 742.309 604.573 C 744.084 606.636, 745.785 607.369, 749.666 607.742 C 754.215 608.179, 755.050 607.927, 758.107 605.197 L 761.500 602.167 761.819 574.218 C 762.184 542.351, 761.795 540.066, 755.568 537.464 C 751.289 535.676, 749.427 535.675, 745.329 537.458 M 880.270 548.654 C 876.265 549.516, 874 553.647, 874 560.088 C 874 563.288, 874.538 567.086, 875.195 568.528 C 878.122 574.954, 889.298 575.895, 893.703 570.087 C 896.743 566.080, 896.459 554.983, 893.218 551.068 C 891.453 548.936, 884.757 547.687, 880.270 548.654 M 343.106 555.564 C 339.367 558.711, 338.013 563.281, 338.006 572.782 C 337.999 581.131, 339.580 585.738, 343.514 588.832 C 346.800 591.417, 352.747 591.700, 357.050 589.474 C 359.871 588.015, 360.008 587.632, 360.191 580.724 C 360.778 558.533, 360.728 558.021, 357.694 555.412 C 353.738 552.011, 347.249 552.079, 343.106 555.564 M 579.112 577.032 C 569.911 578.369, 564.902 584.168, 568.069 589.818 C 571.205 595.412, 578.483 596.166, 585.274 591.599 C 588.306 589.560, 588.518 589.026, 588.796 582.715 C 589.131 575.098, 589.785 575.482, 579.112 577.032 M 869.250 612.106 C 865.201 616.297, 870.473 623.349, 878.563 624.562 C 885.987 625.675, 899.431 624.603, 902.393 622.662 C 905.793 620.434, 905.980 615.682, 902.750 613.585 C 899.557 611.512, 871.040 610.253, 869.250 612.106" stroke="none" fill="#ced5d5" fill-rule="evenodd"/><path d="" stroke="none" fill="#ccd4d4" fill-rule="evenodd"/><path d="M 995.474 565.500 C 995.474 605.100, 995.598 621.154, 995.750 601.176 C 995.901 581.198, 995.901 548.798, 995.750 529.176 C 995.598 509.554, 995.474 525.900, 995.474 565.500 M 744.500 505.850 C 739.158 507.587, 737 510.760, 737 516.878 C 737 519.653, 737.729 521.736, 739.365 523.638 C 741.407 526.012, 742.640 526.446, 748.375 526.811 C 756.280 527.314, 760.508 525.852, 762.547 521.909 C 765.599 516.007, 763.672 509.603, 757.986 506.752 C 754.526 505.016, 748.337 504.602, 744.500 505.850 M 364.299 515.503 C 360.732 518.002, 359.693 523.103, 360.471 534.306 L 361.171 544.387 357.142 540.747 C 345.036 529.811, 326.868 536.189, 319.811 553.853 C 317.839 558.789, 317.551 561.326, 317.527 574 C 317.502 587.571, 317.667 588.852, 320.101 594 C 324.723 603.771, 330.531 607.952, 340.609 608.761 C 349.147 609.446, 353.215 608.482, 358.360 604.555 L 362.766 601.192 363.871 603.616 C 366.601 609.607, 379.122 609.418, 381.890 603.343 C 382.645 601.685, 383 587.950, 383 560.376 L 383 519.846 380.077 516.923 C 377.574 514.420, 376.384 514, 371.799 514 C 368.654 514, 365.560 514.620, 364.299 515.503 M 630.329 515.403 C 628.585 516.192, 626.672 517.744, 626.079 518.853 C 625.358 520.200, 625 534.313, 625 561.378 L 625 601.888 627.283 604.543 C 629.901 607.587, 636.731 608.858, 641.198 607.132 C 647.047 604.872, 647.064 604.747, 647.359 562.858 C 647.508 541.761, 647.260 523.105, 646.809 521.400 C 646.358 519.695, 645.110 517.504, 644.035 516.532 C 641.444 514.187, 634.316 513.600, 630.329 515.403 M 666.476 515.341 C 664.812 516.096, 662.900 517.924, 662.226 519.404 C 660.502 523.187, 660.474 598.751, 662.195 602.528 C 665.665 610.144, 680.169 609.691, 682.892 601.881 C 683.501 600.132, 684 594.269, 684 588.851 L 684 579 686.826 579 C 691.564 579, 695.623 585.090, 698.933 597.164 C 699.655 599.798, 701.501 603.064, 703.172 604.664 C 705.886 607.265, 706.755 607.500, 713.654 607.500 C 720.353 607.500, 721.386 607.242, 723.088 605.139 C 724.140 603.841, 725 601.557, 725 600.064 C 725 597.043, 721.197 585.256, 718.508 579.941 C 715.272 573.548, 709.678 569, 705.050 569 C 702.546 569, 702.341 567.344, 704.750 566.579 C 707.195 565.802, 714.602 558.439, 718.200 553.209 C 724.556 543.971, 722.318 537.484, 712.405 536.412 C 708.814 536.024, 706.568 536.367, 704.020 537.691 C 700.453 539.545, 699.935 540.305, 695.416 550.318 C 693.972 553.518, 690.925 558.018, 688.645 560.318 L 684.500 564.500 684 542.270 L 683.500 520.041 680.868 517.411 C 677.700 514.246, 671.011 513.284, 666.476 515.341 M 173.775 519.530 C 172.276 520.359, 170.589 521.900, 170.025 522.953 C 169.376 524.166, 169 538.988, 169 563.378 L 169 601.888 171.412 604.694 L 173.823 607.500 195.162 607.811 C 206.898 607.982, 217.966 607.849, 219.758 607.515 C 226.218 606.309, 228.515 597.561, 223.504 593.250 C 221.062 591.149, 219.963 591, 206.944 591 L 193 591 193 581.500 L 193 572 204.045 572 C 214.439 572, 215.236 571.855, 217.545 569.545 C 220.723 566.368, 220.740 561.973, 217.589 558.306 C 215.257 555.592, 214.812 555.489, 204.089 555.162 L 193 554.823 193 545 L 193 535.178 205.910 535.339 C 217.601 535.485, 219.088 535.302, 221.660 533.400 C 225.739 530.384, 226.127 524.409, 222.468 520.968 C 219.862 518.518, 219.687 518.498, 198.172 518.261 C 180.401 518.065, 176.010 518.293, 173.775 519.530 M 433.476 519.396 C 429.244 521.240, 427.998 524.751, 428.010 534.797 C 428.045 564.391, 433.484 591.080, 441.667 601.807 C 446.783 608.515, 458.126 610.948, 466.500 607.134 C 471.565 604.828, 477.591 598.184, 480.408 591.800 L 482.590 586.857 484.286 592.238 C 486.264 598.514, 491.485 605.053, 496.368 607.370 C 503.818 610.906, 515.408 608.573, 521.178 602.376 C 529.607 593.325, 534.733 572.185, 536.559 538.941 C 537.135 528.451, 536.986 525.875, 535.655 523.300 C 534.069 520.232, 529.823 517.996, 525.601 518.004 C 522.094 518.010, 517.243 521.605, 516.597 524.677 C 516.270 526.230, 515.564 537.175, 515.028 549 C 513.740 577.400, 511.420 586, 505.044 586 C 499.435 586, 497.243 577.152, 495.878 549 C 495.278 536.625, 494.307 525.207, 493.721 523.627 C 491.172 516.754, 476.632 516.213, 473.075 522.860 C 472.534 523.871, 471.995 531.629, 471.878 540.100 C 471.390 575.502, 469.987 584.212, 464.554 585.576 C 455.805 587.772, 453.376 580.144, 452.104 546.473 C 451.622 533.712, 450.844 524.577, 450.125 523.234 C 447.594 518.504, 439.700 516.684, 433.476 519.396 M 879.173 535.075 C 860.806 537.458, 853.025 544.872, 853.015 560 C 853.010 568.934, 854.491 573.492, 858.984 578.366 L 862.815 582.523 859.929 585.754 C 854.841 591.448, 854.821 598.726, 859.878 603.711 L 862.674 606.466 858.799 608.201 C 852.312 611.106, 850.318 618.699, 853.945 626.688 C 858.228 636.122, 869.900 640.573, 888.177 639.743 C 901.274 639.148, 906.945 637.451, 912.918 632.338 C 924.542 622.389, 925.035 604.102, 913.851 597.720 C 908.002 594.382, 905.925 593.990, 889.307 593.088 C 877.632 592.455, 874.635 591.980, 873.001 590.501 C 869.001 586.881, 870.362 586.309, 882.750 586.407 C 890.005 586.464, 896.301 585.977, 899.208 585.132 C 904.939 583.466, 911.749 577.845, 913.704 573.166 C 915.843 568.048, 915.528 555.997, 913.127 551.026 L 911.181 547 914.091 547 C 917.373 547, 921 543.932, 921 541.155 C 921 537.561, 917.438 535.745, 908.758 534.915 C 898.532 533.938, 887.476 533.997, 879.173 535.075 M 275.618 536.638 C 272.201 537.688, 269.276 539.637, 265.868 543.135 L 261 548.133 261 544.138 C 261 541.883, 260.333 539.476, 259.468 538.611 C 255.383 534.526, 243.783 536.051, 241.289 541 C 240.363 542.838, 240.026 551.234, 240.015 572.694 L 240 601.888 242.413 604.694 C 244.564 607.195, 245.486 607.500, 250.891 607.500 C 256.114 607.500, 257.321 607.133, 259.600 604.855 L 262.245 602.210 262.400 581.855 C 262.567 559.807, 262.924 558.125, 267.980 555.510 C 272.649 553.096, 277.503 553.553, 279.927 556.635 C 281.870 559.104, 282 560.547, 282 579.570 C 282 590.735, 282.431 601.003, 282.957 602.387 C 285.281 608.500, 297.141 609.863, 301.717 604.543 C 303.956 601.940, 304 601.429, 304 578.126 C 304 559.271, 303.670 553.252, 302.403 548.984 C 298.930 537.292, 288.758 532.603, 275.618 536.638 M 570.226 536.050 C 561.973 537.522, 555.504 541.284, 552.546 546.331 C 548.130 553.866, 549.943 559.297, 557.439 560.987 C 563.925 562.449, 566.708 561.310, 571.069 555.406 C 574.078 551.333, 575.793 549.942, 578.411 549.451 C 585.499 548.121, 589 551.924, 589 560.950 L 589 566 581.750 566.015 C 568.297 566.042, 556.911 569.921, 551.205 576.420 C 547.648 580.470, 546.570 584.800, 547.206 592.474 C 548.030 602.407, 554.892 608.061, 567.022 608.802 C 574.650 609.267, 580.315 607.954, 585.315 604.561 C 588.819 602.183, 588.920 602.173, 589.538 604.120 C 590.333 606.625, 593.864 608, 599.500 608 C 605.698 608, 608.886 606.500, 610.414 602.866 C 612.353 598.256, 611.496 556.227, 609.341 550.211 C 605.842 540.441, 598.110 535.928, 584 535.417 C 579.325 535.247, 573.127 535.532, 570.226 536.050 M 812 536.517 C 807.292 538.083, 804.026 540.549, 800.250 545.387 L 798 548.270 798 545.069 C 798 540.364, 796.440 538.212, 792.080 536.906 C 786.979 535.377, 781.898 536.415, 778.910 539.596 L 776.500 542.160 776.500 572.057 L 776.500 601.953 779.097 604.551 C 782.241 607.696, 788.625 608.812, 793.028 606.988 C 798.437 604.748, 799 602.244, 799 580.450 L 799 560.800 802.400 557.400 C 805.161 554.639, 806.571 554, 809.900 554 C 818.148 554, 819.637 558.756, 818.694 582.092 C 818.067 597.608, 818.753 602.562, 821.928 605.435 C 824.464 607.730, 831.224 608.564, 834.911 607.037 C 840.267 604.818, 841 601.477, 841 579.283 C 841 551.266, 838.967 542.615, 831.263 537.853 C 826.928 535.175, 817.914 534.549, 812 536.517 M 745.329 537.458 C 743.585 538.216, 741.672 539.744, 741.079 540.853 C 740.377 542.164, 740 553.182, 740 572.378 C 740 601.763, 740.010 601.900, 742.309 604.573 C 744.084 606.636, 745.785 607.369, 749.666 607.742 C 754.215 608.179, 755.050 607.927, 758.107 605.197 L 761.500 602.167 761.819 574.218 C 762.184 542.351, 761.795 540.066, 755.568 537.464 C 751.289 535.676, 749.427 535.675, 745.329 537.458 M 880.270 548.654 C 876.265 549.516, 874 553.647, 874 560.088 C 874 563.288, 874.538 567.086, 875.195 568.528 C 878.122 574.954, 889.298 575.895, 893.703 570.087 C 896.743 566.080, 896.459 554.983, 893.218 551.068 C 891.453 548.936, 884.757 547.687, 880.270 548.654 M 343.106 555.564 C 339.367 558.711, 338.013 563.281, 338.006 572.782 C 337.999 581.131, 339.580 585.738, 343.514 588.832 C 346.800 591.417, 352.747 591.700, 357.050 589.474 C 359.871 588.015, 360.008 587.632, 360.191 580.724 C 360.778 558.533, 360.728 558.021, 357.694 555.412 C 353.738 552.011, 347.249 552.079, 343.106 555.564 M 579.112 577.032 C 569.911 578.369, 564.902 584.168, 568.069 589.818 C 571.205 595.412, 578.483 596.166, 585.274 591.599 C 588.306 589.560, 588.518 589.026, 588.796 582.715 C 589.131 575.098, 589.785 575.482, 579.112 577.032 M 869.250 612.106 C 865.201 616.297, 870.473 623.349, 878.563 624.562 C 885.987 625.675, 899.431 624.603, 902.393 622.662 C 905.793 620.434, 905.980 615.682, 902.750 613.585 C 899.557 611.512, 871.040 610.253, 869.250 612.106 M 336.332 681.750 C 449.539 681.890, 634.489 681.890, 747.332 681.750 C 860.174 681.610, 767.550 681.495, 541.500 681.495 C 315.450 681.495, 223.124 681.610, 336.332 681.750" stroke="none" fill="#fbfbf9" fill-rule="evenodd"/></svg>