<svg xmlns="http://www.w3.org/2000/svg" width="600" height="600" viewBox="0 0 600 600" version="1.1"><path d="M 131.500 204.073 C 112.456 205.129, 88.750 207.037, 87.863 207.585 C 87.115 208.047, 86.443 210.955, 82.922 228.958 C 80.113 243.324, 75.423 257.452, 64.395 284.772 C 58.753 298.748, 55 309.443, 55 311.547 C 55 317.482, 57.330 317.720, 80 314.099 C 100.649 310.801, 104 310.487, 104 311.851 C 104 312.916, 103.032 315.827, 96.465 334.500 C 87.284 360.606, 73 408.873, 73 413.789 C 73 414.940, 73.476 416.176, 74.057 416.535 C 76.459 418.020, 80.466 415.435, 92.169 404.852 C 117.927 381.559, 198.714 304.262, 200.342 301.353 C 201.875 298.614, 202.082 294.493, 200.775 292.717 C 199.757 291.334, 196.931 290.789, 186.742 290.015 C 166.774 288.496, 156 286.912, 156 285.494 C 156 284.809, 157.112 281.734, 158.471 278.660 C 159.831 275.587, 163.167 267.093, 165.885 259.786 C 168.603 252.479, 174.016 238.258, 177.913 228.184 C 185.160 209.454, 186.228 204.685, 183.418 203.607 C 181.328 202.805, 149.161 203.093, 131.500 204.073" stroke="none" fill="#fcf46c" fill-rule="evenodd"/><path d="M 141.500 186.664 C 107.656 187.954, 60.213 191.579, 58.494 193.005 C 57.789 193.590, 56.010 200.466, 54.541 208.284 C 48.790 238.878, 45.270 250.172, 28.391 292.192 C 21.540 309.248, 15.670 325.128, 15.347 327.482 C 14.866 330.993, 15.141 332.141, 16.880 333.880 C 19.843 336.843, 24.600 336.654, 49.552 332.582 C 61.074 330.702, 72.577 328.964, 75.115 328.720 L 79.730 328.276 77.978 334.888 C 77.015 338.525, 73.987 347.575, 71.249 355 C 66.172 368.768, 59.211 389.736, 54.649 405 C 53.252 409.675, 50.764 418, 49.121 423.500 C 44.089 440.337, 39 459.926, 39 462.457 C 39 465.377, 41.720 468.322, 43.711 467.558 C 44.510 467.251, 45.585 467, 46.101 467 C 47.400 467, 60.477 455.426, 88.500 429.474 C 104.468 414.686, 111.940 407.600, 135 385.373 C 142.975 377.687, 152.200 368.921, 155.500 365.894 L 161.500 360.390 166.500 361.694 C 170.543 362.747, 209.026 362.949, 367.500 362.748 L 563.500 362.500 569.224 359.689 C 576.095 356.315, 581.269 350.570, 583.992 343.292 C 585.894 338.208, 586 335.537, 586 292.577 C 586 241.419, 585.897 240.573, 578.705 232.402 C 576.528 229.929, 572.441 226.689, 569.623 225.203 L 564.500 222.500 383.750 222.239 C 227.965 222.015, 203 221.782, 203 220.551 C 203 219.766, 203.716 216.059, 204.591 212.312 C 208.162 197.021, 203.894 190.194, 189.288 187.836 C 182.466 186.735, 156.408 186.096, 141.500 186.664 M 131.500 204.073 C 112.456 205.129, 88.750 207.037, 87.863 207.585 C 87.115 208.047, 86.443 210.955, 82.922 228.958 C 80.113 243.324, 75.423 257.452, 64.395 284.772 C 58.753 298.748, 55 309.443, 55 311.547 C 55 317.482, 57.330 317.720, 80 314.099 C 100.649 310.801, 104 310.487, 104 311.851 C 104 312.916, 103.032 315.827, 96.465 334.500 C 87.284 360.606, 73 408.873, 73 413.789 C 73 414.940, 73.476 416.176, 74.057 416.535 C 76.459 418.020, 80.466 415.435, 92.169 404.852 C 117.927 381.559, 198.714 304.262, 200.342 301.353 C 201.875 298.614, 202.082 294.493, 200.775 292.717 C 199.757 291.334, 196.931 290.789, 186.742 290.015 C 166.774 288.496, 156 286.912, 156 285.494 C 156 284.809, 157.112 281.734, 158.471 278.660 C 159.831 275.587, 163.167 267.093, 165.885 259.786 C 168.603 252.479, 174.016 238.258, 177.913 228.184 C 185.160 209.454, 186.228 204.685, 183.418 203.607 C 181.328 202.805, 149.161 203.093, 131.500 204.073" stroke="none" fill="#fcfcfb" fill-rule="evenodd"/></svg>