<svg xmlns="http://www.w3.org/2000/svg" width="1080" height="1080" viewBox="0 0 1080 1080" version="1.1"><path d="M 280.500 373.093 C 237.286 375.114, 188.760 378.210, 179.076 379.565 C 172.734 380.453, 172.603 380.765, 167.968 406 C 161.624 440.537, 156.128 457.821, 133.871 513.220 C 124.596 536.305, 117.679 554.942, 117.354 557.720 C 116.895 561.651, 117.182 562.989, 118.970 565.250 C 121.019 567.841, 121.610 568, 129.166 568 C 133.808 568, 148.837 566.140, 164.843 563.584 C 180.054 561.154, 194.678 558.955, 197.340 558.696 L 202.180 558.225 201.535 561.863 C 201.179 563.863, 198.837 571.350, 196.329 578.500 C 177.540 632.074, 166.689 666.234, 155.050 708.441 C 148.779 731.183, 147.864 737.721, 150.571 740.429 C 154.855 744.713, 157.795 742.514, 202 701.970 C 232.979 673.557, 367.638 544.544, 369.029 541.945 C 371.741 536.878, 368.483 529.832, 362.836 528.552 C 361.551 528.261, 349.700 526.661, 336.500 524.996 C 323.300 523.332, 307.716 521.257, 301.870 520.385 C 291.840 518.888, 291.269 518.677, 291.763 516.649 C 292.051 515.467, 303.235 485.543, 316.616 450.150 C 329.998 414.758, 341.226 384.310, 341.568 382.487 C 342.472 377.673, 341.257 375.005, 337.436 373.409 C 333.648 371.826, 310.364 371.697, 280.500 373.093" stroke="none" fill="#f8f268" fill-rule="evenodd"/><path d="M 293.258 344.044 C 268.722 344.742, 263.056 344.983, 222 347.068 C 197.514 348.311, 163.473 350.619, 142 352.491 C 126.721 353.823, 125.345 354.108, 123.407 356.338 C 121.206 358.871, 119.323 366.865, 114.420 394.500 C 107.774 431.953, 99.525 457.622, 72.486 525 C 61.339 552.775, 51.495 577.944, 50.610 580.932 C 46.026 596.399, 51.342 602.971, 67.415 601.706 C 71.312 601.399, 87.100 599.075, 102.500 596.541 C 130.506 591.933, 159.202 587.920, 159.837 588.522 C 160.825 589.457, 156.943 602.858, 150.285 621.500 C 129.654 679.266, 114.026 728.689, 98.024 786.776 C 90.815 812.942, 89.613 819.273, 91.035 823.595 C 92.422 827.813, 95.885 829.584, 99.964 828.162 C 104.773 826.486, 108.011 823.912, 129 805.076 C 170.206 768.098, 196.082 743.831, 263.918 678.548 C 283.948 659.272, 300.823 643.604, 301.418 643.731 C 302.013 643.858, 305.650 644.844, 309.500 645.923 C 316.389 647.854, 321.828 647.886, 652.040 647.942 C 947.950 647.993, 988.263 647.822, 993.368 646.492 C 1003.352 643.892, 1010.078 640.072, 1017.250 632.929 C 1026.088 624.127, 1030.642 614.876, 1032.015 602.936 C 1033.250 592.197, 1033.272 462.425, 1032.041 450.728 C 1029.959 430.932, 1017.321 415.157, 998.113 408.377 L 991.500 406.042 681.750 406.021 C 412.759 406.003, 372 405.810, 372 404.559 C 372 403.767, 373.396 396.536, 375.103 388.490 C 377.254 378.351, 378.014 372.577, 377.579 369.676 C 376.668 363.602, 371.654 355.461, 366.877 352.300 C 361.957 349.044, 353.012 347.084, 347.596 348.074 C 344.501 348.640, 343.086 348.387, 341.072 346.910 C 338.046 344.690, 329.626 342.933, 323.114 343.163 C 320.576 343.252, 307.141 343.649, 293.258 344.044 M 280.500 373.093 C 237.286 375.114, 188.760 378.210, 179.076 379.565 C 172.734 380.453, 172.603 380.765, 167.968 406 C 161.624 440.537, 156.128 457.821, 133.871 513.220 C 124.596 536.305, 117.679 554.942, 117.354 557.720 C 116.895 561.651, 117.182 562.989, 118.970 565.250 C 121.019 567.841, 121.610 568, 129.166 568 C 133.808 568, 148.837 566.140, 164.843 563.584 C 180.054 561.154, 194.678 558.955, 197.340 558.696 L 202.180 558.225 201.535 561.863 C 201.179 563.863, 198.837 571.350, 196.329 578.500 C 172.232 647.211, 149 723.843, 149 734.619 C 149 741.417, 152.240 743.479, 158.133 740.431 C 163.670 737.568, 200.306 704.097, 257.018 650.087 C 279.303 628.864, 298.292 610.902, 299.215 610.171 C 300.631 609.052, 301.884 609.174, 307.197 610.949 L 313.500 613.054 637 612.777 L 960.500 612.500 966.332 609.910 C 978.465 604.523, 987.521 595.875, 992.940 584.500 C 997.956 573.974, 998.177 571.168, 997.825 522.500 C 997.505 478.142, 997.467 477.418, 995.184 471.764 C 989.632 458.018, 980.094 448.196, 966.393 442.115 L 960.500 439.500 640.750 439.244 C 464.887 439.103, 321 438.836, 321 438.651 C 321 438.466, 325.478 426.554, 330.951 412.180 C 336.423 397.805, 341.191 384.499, 341.545 382.609 C 343.286 373.331, 339.891 371.952, 315.782 372.149 C 305.727 372.231, 289.850 372.656, 280.500 373.093" stroke="none" fill="#fcfbfb" fill-rule="evenodd"/><path d="M 320.664 439.744 C 319.886 441.017, 292.330 514.354, 291.767 516.649 C 291.270 518.678, 291.837 518.888, 301.870 520.385 C 307.716 521.257, 323.300 523.332, 336.500 524.996 C 349.700 526.661, 361.551 528.261, 362.836 528.552 C 368.474 529.830, 371.741 536.878, 369.038 541.930 C 368.508 542.919, 352.926 558.282, 334.411 576.070 L 300.747 608.413 305.124 610.457 L 309.500 612.500 635 612.500 L 960.500 612.500 966.332 609.910 C 978.465 604.523, 987.521 595.875, 992.940 584.500 C 997.956 573.974, 998.177 571.168, 997.825 522.500 C 997.505 478.142, 997.467 477.418, 995.184 471.764 C 989.632 458.018, 980.094 448.196, 966.393 442.115 L 960.500 439.500 640.813 439.244 C 464.985 439.103, 320.918 439.328, 320.664 439.744" stroke="none" fill="#fcc4c3" fill-rule="evenodd"/></svg>