<svg xmlns="http://www.w3.org/2000/svg" width="600" height="600" viewBox="0 0 600 600" version="1.1"><path d="M 170.225 248.746 C 158.353 279.922, 155.746 287.079, 156.124 287.458 C 156.361 287.694, 161.942 288.629, 168.527 289.536 C 198.711 293.691, 199.395 293.820, 200.709 295.617 C 201.419 296.588, 202 298.082, 202 298.937 C 202 299.793, 192.887 309.341, 181.750 320.155 L 161.500 339.818 164.315 340.909 C 166.300 341.678, 208.678 342, 308.074 342 L 449.018 342 448.759 291.750 L 448.500 241.500 310.839 241.246 L 173.178 240.993 170.225 248.746" stroke="none" fill="#ffc7c2" fill-rule="evenodd"/><path d="M 141.500 186.664 C 107.656 187.954, 60.213 191.579, 58.494 193.005 C 57.789 193.590, 56.010 200.466, 54.541 208.284 C 48.790 238.878, 45.270 250.172, 28.391 292.192 C 21.540 309.248, 15.670 325.128, 15.347 327.482 C 14.866 330.993, 15.141 332.141, 16.880 333.880 C 19.843 336.843, 24.600 336.654, 49.552 332.582 C 61.074 330.702, 72.577 328.964, 75.115 328.720 L 79.730 328.276 77.978 334.888 C 77.015 338.525, 73.987 347.575, 71.249 355 C 66.172 368.768, 59.211 389.736, 54.649 405 C 53.252 409.675, 50.764 418, 49.121 423.500 C 44.089 440.337, 39 459.926, 39 462.457 C 39 465.377, 41.720 468.322, 43.711 467.558 C 44.510 467.251, 45.585 467, 46.101 467 C 47.400 467, 60.477 455.426, 88.500 429.474 C 104.468 414.686, 111.940 407.600, 135 385.373 C 142.975 377.687, 152.200 368.921, 155.500 365.894 L 161.500 360.390 166.500 361.694 C 170.543 362.747, 209.026 362.949, 367.500 362.748 L 563.500 362.500 569.224 359.689 C 576.095 356.315, 581.269 350.570, 583.992 343.292 C 585.894 338.208, 586 335.537, 586 292.577 C 586 241.419, 585.897 240.573, 578.705 232.402 C 576.528 229.929, 572.441 226.689, 569.623 225.203 L 564.500 222.500 383.750 222.239 C 227.965 222.015, 203 221.782, 203 220.551 C 203 219.766, 203.716 216.059, 204.591 212.312 C 208.162 197.021, 203.894 190.194, 189.288 187.836 C 182.466 186.735, 156.408 186.096, 141.500 186.664 M 138.500 203.692 C 125.583 204.247, 88.716 207.057, 87.922 207.548 C 87.116 208.046, 86.474 210.798, 82.922 228.958 C 80.116 243.307, 75.418 257.438, 64.387 284.704 C 58.623 298.953, 55 309.286, 55 311.479 C 55 317.492, 57.269 317.730, 80 314.099 C 100.649 310.801, 104 310.487, 104 311.851 C 104 312.916, 103.032 315.827, 96.465 334.500 C 87.195 360.859, 73 408.880, 73 413.879 C 73 416.619, 75.391 417.599, 78.557 416.156 C 81.574 414.781, 106.541 392.028, 135.318 364.426 C 162.531 338.326, 160.911 339.635, 164.370 340.951 C 166.249 341.665, 212.102 342, 308.074 342 L 449.018 342 448.759 291.750 L 448.500 241.500 310.908 241 L 173.316 240.500 179.100 225.500 C 185.125 209.873, 186.154 204.657, 183.418 203.607 C 181.891 203.021, 152.851 203.076, 138.500 203.692" stroke="none" fill="#ffffff" fill-rule="evenodd"/><path d="M 138.500 203.692 C 125.583 204.247, 88.716 207.057, 87.922 207.548 C 87.116 208.046, 86.474 210.798, 82.922 228.958 C 80.116 243.307, 75.418 257.438, 64.387 284.704 C 58.623 298.953, 55 309.286, 55 311.479 C 55 317.492, 57.269 317.730, 80 314.099 C 100.649 310.801, 104 310.487, 104 311.851 C 104 312.916, 103.032 315.827, 96.465 334.500 C 87.195 360.859, 73 408.880, 73 413.879 C 73 416.619, 75.391 417.599, 78.557 416.156 C 81.061 415.015, 103.643 394.675, 126.500 372.974 C 169.886 331.782, 201.048 301.424, 201.542 299.868 C 202.334 297.373, 200.490 294.338, 197.776 293.670 C 196.524 293.362, 189.875 292.403, 183 291.538 C 163.844 289.129, 156 287.800, 156 286.961 C 156 286.540, 162.525 269.008, 170.500 248 C 178.475 226.992, 185 208.546, 185 207.009 C 185 205.383, 184.339 203.960, 183.418 203.607 C 181.891 203.021, 152.851 203.076, 138.500 203.692" stroke="none" fill="#fcf36c" fill-rule="evenodd"/></svg>