<svg xmlns="http://www.w3.org/2000/svg" width="1080" height="1080" viewBox="0 0 1080 1080" version="1.1"><path d="M 685.362 45.981 C 669.950 50.022, 686.942 33.749, 431.248 289.339 L 194.995 525.495 383 713.497 L 571.004 901.500 806.912 665.500 C 1015.355 456.976, 1043.167 428.801, 1045.798 423.500 C 1050.367 414.292, 1052 407.578, 1052 398 C 1052 382.746, 1047.100 371.269, 1035.325 358.945 C 1031.150 354.575, 1027.234 351, 1026.621 351 C 1026.009 351, 948.713 427.790, 854.852 521.645 L 684.196 692.290 679.916 691.716 C 675.776 691.160, 671.194 686.700, 540.318 555.813 L 405 420.484 405 415.999 L 405 411.514 575.750 240.698 L 746.500 69.882 737.768 61.501 C 721.749 46.124, 704.406 40.989, 685.362 45.981 M 595 250.500 L 429.503 416 555 541.500 L 680.497 667 846.249 501.251 L 1012 335.503 886.751 210.251 C 817.865 141.363, 761.277 85, 761 85 C 760.724 85, 686.024 159.475, 595 250.500 M 130.936 680.189 C 63.514 748.239, 35.572 777.089, 33.255 781.043 C 23.595 797.529, 24.075 820.379, 34.417 836.387 C 36.234 839.199, 72.745 881.100, 115.553 929.500 L 193.385 1017.500 138.789 1017.758 L 84.192 1018.017 81.096 1021.543 C 76.569 1026.700, 77.074 1032.941, 82.367 1037.228 C 84.376 1038.855, 100.721 1038.957, 364.615 1038.978 C 641.624 1039, 644.758 1038.978, 647.230 1037.034 C 652.904 1032.571, 652.934 1024.453, 647.293 1020.016 C 644.751 1018.016, 643.580 1018, 504.118 1018 L 363.505 1018 437.252 944.248 L 510.999 870.496 368.185 727.685 L 225.371 584.874 130.936 680.189" stroke="none" fill="#ffffff" fill-rule="evenodd"/><path d="" stroke="none" fill="#fffcfc" fill-rule="evenodd"/><path d="" stroke="none" fill="#fcfcfc" fill-rule="evenodd"/></svg>