<svg xmlns="http://www.w3.org/2000/svg" width="1080" height="1080" viewBox="0 0 1080 1080" version="1.1"><path d="M 158 86.524 C 124.354 91.788, 96.016 115.883, 85.110 148.500 C 80.644 161.858, 79.354 173.521, 80.880 186.750 C 82.929 204.515, 89.455 221.046, 99.505 233.930 C 101.895 236.993, 172.957 308.573, 257.422 392.996 L 410.994 546.491 254.656 702.996 C 151.931 805.829, 97.046 861.470, 94.608 865.245 C 78.797 889.737, 75.355 921.642, 85.589 948.834 C 94.026 971.248, 112.067 990.360, 134.308 1000.445 C 147.748 1006.539, 152.649 1007.450, 172 1007.450 C 186.085 1007.450, 190.768 1007.086, 196 1005.585 C 205.229 1002.938, 218.073 996.823, 225.844 991.376 C 230.084 988.404, 288.674 930.596, 387.252 832.121 L 542.003 677.531 696.752 832.121 C 864.013 999.211, 858.190 993.732, 876.163 1000.929 C 880.360 1002.609, 887.102 1004.691, 891.147 1005.555 C 900.838 1007.626, 921.162 1007.626, 930.853 1005.555 C 969.114 997.381, 998.506 964.510, 1002.889 924.995 C 1005.186 904.279, 999.889 882.048, 988.424 864.294 C 985.946 860.457, 932.043 805.804, 828.844 702.496 L 673.006 546.491 825.106 394.496 C 908.762 310.898, 979.888 239.173, 983.165 235.106 C 990.814 225.616, 997.548 212.161, 1000.707 200.059 C 1004.256 186.461, 1004.257 168.542, 1000.709 154.950 C 987.550 104.532, 937.255 75.322, 886.407 88.566 C 877.864 90.791, 869.639 94.606, 860 100.811 C 852.588 105.583, 831.687 126.078, 696.753 260.878 L 542.006 415.472 387.253 260.884 C 252.453 126.226, 231.404 105.588, 224 100.817 C 210.418 92.063, 200.370 88.304, 184.500 86.039 C 175.466 84.749, 168.529 84.876, 158 86.524" stroke="none" fill="#ffffff" fill-rule="evenodd"/><path d="" stroke="none" fill="#fffcfc" fill-rule="evenodd"/><path d="" stroke="none" fill="#fcfcfc" fill-rule="evenodd"/></svg>