<svg xmlns="http://www.w3.org/2000/svg" width="1080" height="1080" viewBox="0 0 1080 1080" version="1.1"><path d="M 452.336 256.424 C 436.852 263.633, 430.133 281.548, 436.596 298.390 C 437.140 299.807, 436.854 299.895, 434.549 299.019 C 433.075 298.458, 429.087 298.004, 425.685 298.010 C 417.228 298.023, 410.746 301.162, 404.467 308.283 L 399.585 313.820 395.737 309.973 C 388.019 302.255, 378.356 299.592, 368.482 302.462 C 363.742 303.840, 361.514 305.301, 356.493 310.327 C 348.105 318.722, 345.665 324.962, 345.570 338.260 C 345.519 345.360, 345.176 347.897, 344.313 347.566 C 332.191 342.922, 320.832 345.831, 311.782 355.898 C 305.701 362.661, 302.659 370.966, 302.569 381.048 L 302.500 388.779 297.378 389.933 C 294.561 390.567, 290.126 392.437, 287.524 394.087 C 284.343 396.104, 279.642 397.736, 273.188 399.064 C 257.299 402.333, 232.105 409.020, 222 412.649 C 200.175 420.487, 184.079 430.435, 182.601 437 C 182.291 438.375, 172.777 477.300, 161.459 523.500 C 134.487 633.593, 135.696 628.192, 136.279 636 C 137.255 649.071, 143.127 658.894, 154.271 666.097 C 161.842 670.990, 202.924 684.679, 241 694.995 C 247.325 696.709, 253.100 698.311, 253.834 698.556 C 254.742 698.860, 253.852 700.497, 251.049 703.682 C 246.197 709.194, 241.653 718.377, 240.105 725.799 C 238.343 734.251, 238.641 788.200, 240.489 795.297 C 245.145 813.172, 259.516 828.123, 276.350 832.605 C 280.649 833.750, 323.918 833.978, 538.068 833.988 C 824.288 834.001, 799.011 834.657, 812.251 826.876 C 823.783 820.100, 833.446 806.090, 835.916 792.566 C 837.559 783.573, 837.296 734.059, 835.562 725.878 C 833.814 717.633, 829.480 708.939, 824.049 702.783 L 819.888 698.066 822.694 697.411 C 829.675 695.781, 884.961 679.677, 898 675.475 C 925.579 666.588, 934.087 659.530, 938.639 641.765 C 939.647 637.829, 940.037 633.500, 939.696 630.016 C 939.400 626.982, 929.261 584.225, 917.164 535 C 905.068 485.775, 894.839 443.715, 894.434 441.533 C 892.666 432.028, 874.802 420.668, 848 412.008 C 832.957 407.147, 805.090 400.115, 788.157 396.908 L 775.813 394.570 776.657 390.535 C 777.120 388.316, 777.457 382.450, 777.403 377.500 C 777.284 366.314, 774.754 359.168, 768.424 352.127 C 754.903 337.088, 733.688 338.807, 722.902 355.816 L 720.140 360.171 718.670 357.336 C 714.575 349.439, 703.334 342.029, 695.420 342.010 L 691.341 342 694.420 335.787 C 697.323 329.931, 697.500 328.910, 697.500 318.037 C 697.500 307.662, 697.235 305.934, 694.865 300.880 C 685.434 280.767, 664.140 275.078, 649.055 288.641 C 643.422 293.705, 638.446 302.356, 637.399 308.908 L 636.750 312.967 633.741 310.436 C 627.714 305.364, 622.952 303.561, 615.500 303.530 C 610.350 303.508, 607.393 304.054, 604.312 305.594 L 600.123 307.688 599.491 303.950 C 597.816 294.031, 589.504 282.400, 581.244 278.416 C 576.465 276.111, 566.338 275.408, 561.349 277.034 C 555.056 279.086, 549.047 283.861, 545.129 289.922 L 541.448 295.617 537.675 292.881 C 525.956 284.383, 507.328 289.024, 498.988 302.520 L 496.898 305.900 500.416 311.014 C 502.350 313.826, 504.227 317.695, 504.587 319.610 C 505.550 324.745, 504.606 332.977, 502.565 337.248 C 500.785 340.974, 500.788 341.008, 503.113 342.891 C 505.451 344.784, 505.454 344.783, 507.331 341.642 C 511.894 334.011, 519.961 329.028, 527.782 329.010 C 532.273 329, 538.303 331.059, 541.044 333.540 C 542.494 334.852, 542.985 334.503, 545.800 330.159 C 554.560 316.640, 570.414 314.572, 581.360 325.518 C 585.513 329.671, 590 338.509, 590 342.538 C 590 344.328, 589.815 344.329, 595 342.500 C 603.056 339.658, 610.113 340.933, 617.500 346.567 C 620.714 349.019, 621 349.079, 621 347.297 C 621 339.957, 629.090 328.227, 636.461 324.878 C 648.481 319.419, 662.659 326.481, 667.943 340.559 C 671.449 349.900, 670.408 361.758, 665.259 371.130 C 665.069 371.476, 666.899 372.058, 669.327 372.422 C 675.178 373.299, 682.250 377.909, 685.668 383.075 C 688.122 386.782, 688.553 387.054, 689.468 385.474 C 691.825 381.404, 696.567 376.748, 700.405 374.736 C 705.633 371.996, 715.042 371.806, 719.802 374.345 C 725.108 377.174, 730.754 383.727, 732.956 389.613 C 735.202 395.615, 735.727 406.959, 733.972 411.574 C 733.407 413.061, 733.142 414.476, 733.385 414.718 C 733.627 414.961, 739.216 416.213, 745.803 417.501 C 789.301 426.008, 821.494 438.398, 828.413 449.295 C 829.183 450.508, 838.232 485.918, 848.523 527.985 C 865.845 598.796, 867.199 604.990, 866.773 611.485 C 866.017 622.997, 859.655 632.589, 849.295 637.835 C 840.692 642.191, 789.148 657.498, 754.500 665.985 C 591.901 705.816, 443.416 702.623, 284 655.865 C 261.747 649.339, 234.060 640.116, 229.250 637.629 C 218.486 632.063, 210.940 618.451, 212.315 607.083 C 212.620 604.562, 218.718 578.650, 225.865 549.500 C 233.012 520.350, 241.134 487.050, 243.914 475.500 C 250.848 446.692, 250.505 447.680, 254.978 443.639 C 264.398 435.128, 289.728 425.915, 322.889 418.937 C 329.044 417.642, 334.654 415.818, 336.653 414.461 C 338.508 413.202, 341.763 411.878, 343.886 411.519 L 347.746 410.867 348.221 403.684 C 348.870 393.867, 351.942 387.168, 358.572 381.108 C 362.814 377.231, 363.762 375.807, 363.294 374.015 C 362.763 371.984, 362.909 371.881, 364.854 372.922 C 366.034 373.553, 367 374.462, 367 374.940 C 367 375.418, 368.688 375.599, 370.750 375.341 C 372.813 375.083, 376.525 375.497, 379 376.262 L 383.500 377.651 383.530 369.076 C 383.568 358.189, 386.163 351.837, 393.132 345.571 C 402.807 336.872, 414.254 337.244, 424.005 346.574 L 427.511 349.928 429.823 346.553 C 432.829 342.167, 438.362 338.406, 444.014 336.908 C 447.700 335.931, 449.450 335.982, 453.551 337.184 L 458.573 338.656 456.673 333.078 C 451.986 319.321, 460.944 304.022, 475.450 301.010 C 479.387 300.193, 481.946 300.209, 485.380 301.074 C 491.178 302.534, 492.155 301.816, 494.495 294.377 C 499.143 279.599, 491.754 262.985, 477.602 256.395 C 470.410 253.046, 459.563 253.059, 452.336 256.424 M 549.624 373.539 C 548.729 375.871, 548.795 376, 550.900 376 C 551.944 376, 555.020 377.494, 557.734 379.321 L 562.669 382.642 566.056 380.321 L 569.444 378 565.190 378 C 560.690 378, 554.682 375.927, 551.910 373.419 C 550.426 372.075, 550.180 372.088, 549.624 373.539 M 509.954 384.086 C 509.340 385.233, 508.987 386.258, 509.169 386.363 C 510.832 387.328, 520.826 391.217, 521.962 391.341 C 524.522 391.620, 524.310 388.295, 521.727 387.646 C 520.422 387.319, 517.679 385.914, 515.632 384.525 C 511.148 381.482, 511.339 381.497, 509.954 384.086 M 640.074 382.643 C 640.115 383.114, 640.902 385.179, 641.824 387.230 L 643.500 390.961 645.176 386.980 C 646.779 383.173, 646.771 383, 645.008 383 C 643.993 383, 642.452 382.727, 641.582 382.393 C 640.712 382.059, 640.033 382.172, 640.074 382.643 M 397.352 399.011 C 397.708 400.792, 398.029 403.431, 398.063 404.875 C 398.119 407.198, 398.217 407.270, 398.915 405.500 C 401.068 400.035, 401.056 398.100, 398.861 396.926 C 396.814 395.830, 396.737 395.936, 397.352 399.011 M 508.954 559.221 C 502.880 564.248, 502.142 573.963, 507.085 583.854 C 510.798 591.284, 515.362 595.061, 521.459 595.748 C 525.371 596.189, 526.252 595.902, 528.797 593.356 C 532.406 589.748, 533.456 584.513, 531.989 577.445 C 530.767 571.562, 526.066 563.792, 521.864 560.712 C 518.601 558.320, 511.090 557.453, 508.954 559.221 M 563.826 560.895 C 552.971 567.779, 549.021 588.853, 557.540 594.434 C 568.791 601.806, 585.315 582.024, 581.070 566.262 C 578.842 557.985, 571.848 555.808, 563.826 560.895 M 481.476 587.362 C 471.479 591.829, 476.276 610.529, 489.340 618.022 C 497.615 622.768, 504.428 621.940, 507.602 615.802 C 514.166 603.110, 494.396 581.590, 481.476 587.362 M 594.764 586.996 C 584.590 590.059, 577 600.322, 577 611.016 C 577 615.224, 577.454 616.516, 579.646 618.548 C 588.815 627.046, 608.961 612.722, 608.991 597.684 C 609.002 591.592, 607.709 589.194, 603.452 587.415 C 599.694 585.845, 598.738 585.799, 594.764 586.996 M 536.500 600.879 C 514.715 606.665, 498.109 636.995, 508.381 652.237 C 510.997 656.119, 517.167 660.434, 522.301 661.972 C 534.193 665.535, 555.045 665.248, 566.441 661.365 C 572.977 659.138, 579.461 652.757, 581.036 647 C 584.875 632.970, 573.463 611.806, 557.795 603.896 C 551.489 600.713, 542.122 599.386, 536.500 600.879 M 404.656 717.133 C 400.388 719.614, 400 723.098, 400 759 C 400 796.223, 400.371 799.050, 405.517 801.006 C 408.868 802.280, 415.132 802.280, 418.483 801.006 C 422.692 799.406, 424 794.669, 424 781.032 L 424 769 435.045 769 C 445.439 769, 446.236 768.855, 448.545 766.545 C 451.914 763.177, 451.860 758.156, 448.419 754.924 C 446.014 752.664, 445.100 752.500, 434.919 752.500 L 424 752.500 424 743.250 L 424 734 437.077 734 L 450.154 734 453.077 731.077 C 455.072 729.082, 456 727.152, 456 725 C 456 722.848, 455.072 720.918, 453.077 718.923 L 450.154 716 428.327 716.030 C 414.671 716.049, 405.810 716.462, 404.656 717.133 M 473.306 718.413 L 470.500 720.827 470.500 759 L 470.500 797.173 473.306 799.587 C 476.087 801.979, 476.303 802, 498 802 C 519.591 802, 519.926 801.968, 522.646 799.628 C 526.118 796.642, 526.321 790.879, 523.070 787.623 C 521.148 785.698, 519.647 785.470, 506.975 785.174 L 493 784.849 493 776.513 L 493 768.177 504.090 767.838 C 514.332 767.526, 515.327 767.319, 517.090 765.139 C 518.995 762.784, 519.556 758.612, 518.379 755.545 C 517.151 752.344, 512.469 751, 502.550 751 L 493 751 493 742 L 493 733 504.351 733 C 520.662 733, 524 731.409, 524 723.638 C 524 721.056, 523.313 719.605, 521.365 718.073 C 518.887 716.123, 517.465 716, 497.421 716 C 476.336 716, 476.082 716.025, 473.306 718.413 M 544.656 717.133 C 540.388 719.614, 540 723.098, 540 759 C 540 796.223, 540.371 799.050, 545.517 801.006 C 546.954 801.553, 557.586 802, 569.142 802 L 590.154 802 593.077 799.077 C 596.651 795.502, 596.815 792.060, 593.589 788.306 C 591.198 785.523, 591.065 785.497, 577.589 785.173 L 564 784.845 564 776.423 L 564 768 573.944 768 C 582.965 768, 584.144 767.780, 586.644 765.630 C 590.207 762.565, 590.454 757.011, 587.175 753.728 C 585.211 751.762, 583.718 751.460, 574.475 751.159 L 564 750.818 564 741.909 L 564 733 575.750 732.996 C 585.699 732.993, 587.998 732.689, 590.750 731.011 C 595.368 728.195, 595.702 722.009, 591.440 718.250 C 588.963 716.065, 588.272 716.001, 567.694 716.030 C 554.489 716.049, 545.805 716.465, 544.656 717.133 M 615.451 717.080 C 610.608 719.553, 610.519 720.245, 610.193 758.189 C 609.927 789.051, 610.097 794.287, 611.453 796.909 C 614.027 801.887, 615.616 802.222, 634.886 801.845 C 652.534 801.500, 652.553 801.497, 659.232 798.208 C 670.946 792.439, 675.973 784.108, 678.050 767.025 C 679.289 756.836, 678.162 743.766, 675.326 735.442 C 672.955 728.484, 664.996 720.713, 657.898 718.426 C 651.451 716.348, 618.906 715.317, 615.451 717.080 M 634 758.989 L 634 785.258 639.199 784.568 C 645.945 783.673, 649.269 781.626, 652.156 776.590 C 654.308 772.834, 654.500 771.355, 654.500 758.500 C 654.500 745.591, 654.315 744.177, 652.124 740.353 C 649.381 735.566, 646.582 734.025, 639.250 733.265 L 634 732.720 634 758.989" stroke="none" fill="#ffffff" fill-rule="evenodd"/><path d="M 404.819 717.507 C 403.344 718.324, 401.841 719.927, 401.478 721.070 C 400.616 723.786, 400.618 794.220, 401.480 796.937 C 402.852 801.259, 413.077 803.627, 418.316 800.837 C 422.548 798.582, 422.935 797.078, 422.968 782.750 L 423 769 433.550 769 C 447.414 769, 451 767.259, 451 760.529 C 451 759.260, 450.141 757.159, 449.092 755.861 C 447.330 753.681, 446.275 753.462, 435.342 753 L 423.500 752.500 423.213 743.326 L 422.927 734.152 436.939 733.826 C 449.917 733.524, 451.116 733.334, 453.202 731.245 C 456.297 728.146, 456.297 721.853, 453.202 718.755 C 451.018 716.570, 450.277 716.493, 429.224 716.261 C 411.549 716.066, 407 716.298, 404.819 717.507 M 475.302 717.012 C 470.281 719.034, 470 721.233, 470 758.482 C 470 796.482, 470.340 799.038, 475.657 801.060 C 477.361 801.707, 486.496 801.991, 499.603 801.803 C 518.790 801.529, 520.994 801.320, 522.897 799.595 C 525.177 797.530, 525.732 792.237, 524.008 789.014 C 522.371 785.956, 516.814 784.829, 504.754 785.110 L 493.500 785.372 493.211 776.686 L 492.922 768 502.511 768 C 515.445 768, 519 766.136, 519 759.352 C 519 752.976, 514.934 751, 501.813 751 L 492.925 751 493.212 741.781 L 493.500 732.562 506.168 732.531 C 518.176 732.502, 518.970 732.374, 521.418 730.076 C 522.978 728.611, 524 726.565, 524 724.907 C 524 716.789, 521.575 715.986, 497.300 716.063 C 486.410 716.098, 476.511 716.525, 475.302 717.012 M 544.819 717.506 C 543.344 718.323, 541.841 719.927, 541.478 721.070 C 540.616 723.786, 540.618 794.220, 541.480 796.937 C 542.871 801.318, 546.483 802.001, 568.200 801.985 C 590.223 801.969, 592.506 801.515, 594.822 796.685 C 596.688 792.792, 595.179 788.914, 590.940 786.714 C 588.114 785.247, 585.357 784.966, 575.500 785.139 L 563.500 785.350 563.212 776.765 L 562.925 768.179 573.860 767.839 C 586.495 767.447, 589 766.196, 589 760.279 C 589 752.899, 585.483 751, 571.813 751 L 562.925 751 563.212 741.750 L 563.500 732.500 573.500 732.856 C 584.625 733.252, 591.441 731.914, 592.983 729.032 C 594.730 725.768, 594.190 720.482, 591.897 718.405 C 589.989 716.676, 587.844 716.478, 568.647 716.260 C 551.477 716.066, 546.996 716.300, 544.819 717.506 M 614.194 718.652 L 611.321 721.525 610.730 757.462 C 610.264 785.856, 610.414 794.055, 611.447 796.527 C 613.565 801.597, 616.747 802.299, 635.241 801.775 C 648.723 801.393, 652.439 800.949, 657 799.177 C 664.646 796.207, 669.349 791.991, 672.865 784.955 C 677.223 776.234, 678.290 769.621, 677.769 754.560 C 677.217 738.594, 675.030 731.733, 668.458 725.357 C 661.177 718.292, 655.458 716.741, 634.784 716.223 L 617.068 715.778 614.194 718.652 M 633.664 744.126 C 632.839 758.456, 632.832 772.957, 633.648 779.750 L 634.279 785 637.889 784.978 C 643.985 784.941, 649.589 781.725, 652.094 776.825 C 654.886 771.366, 656.122 759.829, 654.942 750.247 C 653.431 737.983, 650.093 734.181, 640.033 733.269 L 634.320 732.751 633.664 744.126" stroke="none" fill="#b1d5ff" fill-rule="evenodd"/><path d="M 468.809 303.536 C 464.058 306.010, 460.619 309.767, 457.543 315.846 C 455.385 320.110, 455.265 330.306, 457.316 335.214 L 458.854 338.895 456.207 337.889 C 453.068 336.695, 445.130 336.507, 441.851 337.547 C 437.698 338.865, 432.048 343.187, 429.870 346.710 L 427.742 350.154 424.121 346.687 C 418.838 341.629, 414.560 339.800, 408.012 339.800 C 398.401 339.800, 390.419 345.444, 385.811 355.500 C 383.981 359.493, 383.518 362.264, 383.510 369.261 C 383.502 376.655, 383.266 377.925, 382 377.403 C 372.152 373.335, 364.042 375.160, 356.301 383.184 C 351.617 388.040, 348.752 395.319, 348.206 403.750 C 347.922 408.144, 347.296 411.002, 346.618 411.006 C 339.557 411.041, 329.695 418.779, 325.872 427.286 C 323.960 431.538, 323.525 434.216, 323.514 441.798 L 323.500 451.095 319.500 452.893 C 311.198 456.625, 305.111 464.041, 303.147 472.820 L 302.181 477.141 307.840 480.770 C 315.091 485.420, 329.742 491.874, 343.484 496.472 L 354.281 500.084 356.543 497.959 L 358.805 495.835 359.467 498.849 C 360.120 501.821, 360.337 501.913, 374.814 505.369 C 389.408 508.852, 409.868 513, 412.453 513 C 413.196 513, 414.703 511.580, 415.802 509.844 L 417.800 506.688 419.846 510.698 C 421.841 514.609, 422.072 514.736, 429.196 515.837 C 435.415 516.799, 447.152 518.284, 465.698 520.456 C 469.343 520.883, 470.168 520.602, 471.962 518.321 C 474.154 515.535, 474.636 515.633, 476.425 519.232 C 477.483 521.361, 478.468 521.563, 492.526 522.535 C 500.762 523.104, 512.896 523.554, 519.492 523.535 L 531.484 523.500 533.193 520 C 534.133 518.075, 535.175 515.609, 535.508 514.520 C 536.021 512.843, 536.404 513.151, 538.002 516.520 C 541.740 524.399, 540.441 524.008, 562.610 523.926 C 588.260 523.830, 590.871 523.438, 593.480 519.289 C 594.591 517.522, 595.747 516.060, 596.049 516.039 C 596.351 516.017, 597.163 517.563, 597.854 519.473 C 599.061 522.811, 599.274 522.929, 603.305 522.485 C 605.612 522.230, 613.125 521.540, 620 520.950 C 640.034 519.232, 655.374 517.010, 656.202 515.707 C 656.624 515.043, 656.972 511.575, 656.975 508 C 656.985 496.376, 650.335 486.402, 639.611 481.958 L 634.414 479.804 636.582 473.360 C 639.056 466.008, 640 464.576, 640 468.174 C 640 472.149, 645.795 482.685, 649.794 485.982 C 651.803 487.637, 654.952 489.489, 656.792 490.096 C 659.114 490.863, 659.963 491.654, 659.567 492.685 C 657.258 498.704, 658.157 510.098, 661.279 514.367 C 662.544 516.097, 663.173 516.063, 676.549 513.542 C 697.094 509.670, 720.794 503.668, 736.050 498.472 C 749.017 494.056, 768.946 484.916, 773.889 481.117 L 776.278 479.282 773.440 474.067 C 771.879 471.199, 768.878 467.488, 766.772 465.819 C 762.574 462.495, 754.313 459, 750.651 459 C 748.422 459, 748.325 458.689, 748.375 451.750 C 748.419 445.563, 747.998 443.716, 745.501 439.152 C 742.233 433.179, 736.708 428.806, 730.220 427.059 L 726.026 425.930 729.458 420.715 C 733.824 414.082, 735.390 407.698, 734.772 399.059 C 734.204 391.113, 731.316 384.383, 726.343 379.409 C 721.272 374.339, 717.318 372.653, 710.500 372.657 C 701.568 372.662, 695.755 376.131, 689.963 384.913 L 688.427 387.243 685.664 383.068 C 682.237 377.889, 675.382 373.434, 669.478 372.549 C 667.015 372.180, 665 371.765, 665 371.627 C 665 371.489, 665.977 369.379, 667.171 366.938 C 670.404 360.328, 670.845 348.225, 668.117 341 C 662.598 326.381, 648.366 319.256, 636.327 325.084 C 628.741 328.756, 621 339.915, 621 347.178 C 621 349.527, 620.409 349.473, 617.708 346.880 C 611.811 341.217, 601.878 339.509, 594.453 342.882 L 590.407 344.720 589.220 339.723 C 587.632 333.041, 582.876 325.861, 577.717 322.361 C 573.946 319.803, 572.653 319.500, 565.500 319.500 C 558.322 319.500, 557.061 319.798, 553.224 322.400 C 550.873 323.995, 547.534 327.483, 545.805 330.151 C 542.985 334.503, 542.494 334.852, 541.044 333.540 C 538.298 331.055, 532.271 329, 527.728 329 C 519.615 329, 512.487 333.826, 506.500 343.374 C 505.597 344.815, 505.266 344.788, 503.077 343.100 L 500.654 341.231 502.946 335.903 C 504.806 331.580, 505.150 329.341, 504.770 324.030 C 504.233 316.518, 502.520 312.678, 497.241 307.144 C 490.900 300.495, 477.833 298.837, 468.809 303.536 M 549.624 373.539 C 548.729 375.871, 548.795 376, 550.900 376 C 551.944 376, 555.020 377.494, 557.734 379.321 L 562.669 382.642 566.056 380.321 L 569.444 378 565.190 378 C 560.690 378, 554.682 375.927, 551.910 373.419 C 550.426 372.075, 550.180 372.088, 549.624 373.539 M 509.989 384.021 C 508.634 386.552, 509.474 387.996, 512.309 388.012 C 513.514 388.019, 516.381 389.100, 518.680 390.415 C 522.171 392.411, 522.955 392.560, 523.430 391.321 C 524.382 388.840, 524.097 388.241, 521.677 387.634 C 520.399 387.313, 517.679 385.914, 515.632 384.525 C 511.158 381.489, 511.335 381.505, 509.989 384.021 M 640.495 383.750 C 640.885 384.712, 641.666 386.777, 642.231 388.339 L 643.257 391.177 644.967 387.339 C 646.519 383.856, 646.530 383.437, 645.089 382.820 C 641.892 381.453, 639.741 381.888, 640.495 383.750 M 397.489 404.052 C 397.595 408.432, 397.913 412.247, 398.196 412.529 C 398.479 412.812, 398.986 410.409, 399.322 407.189 C 399.659 403.969, 400.209 400.619, 400.545 399.744 C 400.925 398.753, 400.428 397.764, 399.226 397.121 C 397.389 396.138, 397.306 396.468, 397.489 404.052 M 365.225 461.613 C 362.085 465.918, 362 466.274, 363.156 470.301 C 363.818 472.611, 364.484 474.667, 364.634 474.871 C 364.785 475.074, 366.616 473.902, 368.704 472.265 C 370.792 470.629, 373.509 468.761, 374.741 468.114 L 376.982 466.939 373.241 462.026 C 371.184 459.325, 369.275 457.116, 369 457.119 C 368.725 457.122, 367.026 459.144, 365.225 461.613 M 410.193 458.597 C 410.087 459.200, 408.439 461.301, 406.530 463.266 L 403.061 466.838 406.656 468.960 C 408.634 470.127, 410.443 470.890, 410.677 470.657 C 410.910 470.423, 410.940 467.367, 410.743 463.866 C 410.546 460.365, 410.299 457.993, 410.193 458.597 M 700.204 465.045 C 699.501 466.170, 696.921 468.362, 694.470 469.917 L 690.014 472.743 695.838 473.888 C 701.760 475.053, 708.947 478.944, 712.419 482.864 L 714.337 485.030 715.933 480.265 L 717.528 475.500 713.463 473.332 C 709.400 471.165, 703 465.341, 703 463.810 C 703 462.315, 701.493 462.981, 700.204 465.045 M 547 478.526 L 547 482.051 550.200 480.397 L 553.400 478.742 551.089 476.871 C 547.795 474.203, 547 474.525, 547 478.526 M 594.267 485.609 C 592.423 488.140, 592.426 488.267, 594.444 492.548 C 595.575 494.946, 596.725 496.915, 597 496.923 C 597.275 496.930, 598.679 494.992, 600.120 492.615 L 602.741 488.293 599.443 485.662 L 596.145 483.030 594.267 485.609" stroke="none" fill="#fefa9d" fill-rule="evenodd"/><path d="M 746.642 440.160 C 747.875 442.465, 748.439 445.760, 748.464 450.792 C 748.498 457.751, 748.614 458.109, 751 458.612 C 760.603 460.636, 768.625 465.763, 773.010 472.677 C 774.613 475.204, 776.090 477.771, 776.294 478.382 C 777.339 481.516, 789.171 468.150, 790.682 462.130 C 792.724 453.995, 781.885 446.764, 758.169 440.440 C 752.851 439.022, 747.680 437.627, 746.678 437.341 C 744.920 436.838, 744.919 436.939, 746.642 440.160 M 317.691 441.561 C 301.646 445.772, 289 453.536, 289 459.177 C 289 463.679, 291.638 468.412, 296.802 473.171 L 301.413 477.422 303.212 471.313 C 305.447 463.724, 311.773 456.333, 318.949 452.926 L 324.006 450.525 323.367 445.513 C 323.016 442.756, 322.678 440.455, 322.615 440.399 C 322.552 440.344, 320.336 440.867, 317.691 441.561 M 365.679 461.480 C 362.315 465.504, 362.124 466.077, 363.110 469.164 C 363.696 470.999, 364.375 473.134, 364.618 473.909 C 364.951 474.971, 365.728 474.689, 367.780 472.761 C 369.276 471.354, 372 469.308, 373.833 468.212 C 375.945 466.950, 376.745 465.961, 376.017 465.511 C 375.385 465.120, 373.618 463.075, 372.090 460.966 L 369.313 457.132 365.679 461.480 M 407.271 462.797 L 404.042 466.830 407.271 468.884 L 410.500 470.938 410.813 467.969 C 410.986 466.336, 410.986 463.597, 410.813 461.882 L 410.500 458.764 407.271 462.797 M 698.924 466.595 C 697.591 468.022, 695.150 469.897, 693.500 470.761 L 690.500 472.331 695.500 473.486 C 701.334 474.834, 706.064 477.146, 711.128 481.124 L 714.755 483.974 715.308 481.237 C 715.611 479.732, 716.144 477.766, 716.491 476.869 C 716.963 475.650, 715.964 474.677, 712.534 473.017 C 710.010 471.795, 706.779 469.266, 705.354 467.398 C 703.929 465.529, 702.444 464, 702.056 464 C 701.667 464, 700.258 465.168, 698.924 466.595 M 638.546 468.500 C 638.183 469.600, 637.073 472.585, 636.079 475.132 L 634.271 479.765 638.073 480.904 C 646.701 483.489, 656.727 495.085, 657.131 502.946 C 657.203 504.351, 657.602 503.025, 658.017 500 C 658.432 496.975, 659.059 493.807, 659.412 492.960 C 659.877 491.842, 659.071 491.066, 656.460 490.122 C 649.228 487.507, 642.667 479.716, 640.398 471.049 C 639.458 467.462, 639.067 466.923, 638.546 468.500 M 548 478.027 C 548 480.760, 548.204 480.961, 550 480 C 551.100 479.411, 552 478.604, 552 478.205 C 552 477.807, 551.100 476.919, 550 476.232 C 548.164 475.086, 548 475.233, 548 478.027 M 594.561 485.547 C 592.884 488.107, 592.883 488.414, 594.553 492.116 C 595.516 494.252, 596.573 495.994, 596.902 495.988 C 597.231 495.981, 598.556 494.346, 599.847 492.354 L 602.194 488.732 599.258 485.796 L 596.322 482.860 594.561 485.547 M 356.784 498.495 C 355.134 500.697, 355.152 500.806, 357.241 501.353 C 359.989 502.071, 360.085 501.947, 359.217 498.802 L 358.500 496.205 356.784 498.495 M 415.158 511 C 413.539 513.191, 413.319 514, 414.345 514 C 415.118 514, 417.124 514.275, 418.803 514.611 L 421.856 515.221 420.178 511.643 C 419.255 509.675, 418.247 508.050, 417.938 508.033 C 417.629 508.015, 416.378 509.350, 415.158 511 M 657.313 512.014 C 656.513 516.008, 656.620 516.536, 658.293 516.831 C 661.089 517.323, 661.285 516.621, 659.676 511.860 L 658.211 507.527 657.313 512.014 M 533.765 519.196 L 531.349 524.500 534.175 524.813 C 535.729 524.986, 538.247 524.986, 539.771 524.813 L 542.542 524.500 539.362 519.196 L 536.181 513.892 533.765 519.196 M 472.146 518.345 C 470.166 520.452, 470.091 520.821, 471.528 521.372 C 473.775 522.235, 477.008 522.162, 476.965 521.250 C 476.945 520.837, 476.360 519.475, 475.665 518.223 L 474.400 515.945 472.146 518.345 M 593.187 520.065 L 590.875 524.114 594.687 523.424 C 596.784 523.045, 598.614 522.642, 598.754 522.530 C 599.006 522.327, 596.017 515.993, 595.677 516.008 C 595.580 516.012, 594.459 517.838, 593.187 520.065" stroke="none" fill="#d64241" fill-rule="evenodd"/><path d="M 729.645 420.479 L 726.026 425.930 730.220 427.059 C 734.786 428.289, 742.447 433.116, 743.280 435.289 C 743.568 436.039, 748.658 437.906, 754.651 439.461 C 781.378 446.393, 792.816 453.627, 790.657 462.231 C 789.497 466.853, 783.386 474.458, 777.414 478.713 C 762.685 489.205, 736.517 499.645, 706.550 506.983 C 686.735 511.835, 663.307 516.308, 661.986 515.491 C 661.444 515.156, 661 515.359, 661 515.941 C 661 516.523, 659.538 517.004, 657.750 517.008 C 655.962 517.013, 649.550 517.669, 643.500 518.466 C 637.450 519.264, 624.400 520.612, 614.500 521.462 C 604.600 522.312, 595.206 523.279, 593.625 523.611 C 591.917 523.969, 590.988 523.828, 591.337 523.264 C 591.701 522.676, 589.943 522.600, 586.712 523.066 C 579.992 524.036, 530.888 524.992, 531.408 524.144 C 531.626 523.790, 526.335 523.531, 519.652 523.568 C 512.968 523.605, 502.775 523.289, 497 522.866 C 491.225 522.443, 482.900 521.898, 478.500 521.654 C 470.714 521.224, 456.993 519.661, 432.500 516.414 C 418.560 514.565, 386.810 508.390, 369.464 504.154 C 329.264 494.336, 294.786 477.089, 289.955 464.383 C 288 459.241, 288.774 456.350, 293.092 452.653 C 297.242 449.101, 308.981 443.818, 317.622 441.614 C 322.338 440.411, 322.371 440.374, 323.661 434.693 C 325.207 427.885, 327.312 423.479, 330.801 419.750 C 332.216 418.238, 333.057 417, 332.670 417 C 332.283 417, 326.686 418.141, 320.234 419.537 C 287.858 426.536, 264.261 435.252, 254.978 443.639 C 250.505 447.680, 250.848 446.692, 243.914 475.500 C 241.134 487.050, 233.012 520.350, 225.865 549.500 C 218.718 578.650, 212.620 604.562, 212.315 607.083 C 210.940 618.451, 218.486 632.063, 229.250 637.629 C 234.060 640.116, 261.747 649.339, 284 655.865 C 395.158 688.468, 499.960 699.626, 608.905 690.457 C 655.018 686.576, 704.166 678.315, 754.500 665.985 C 789.148 657.498, 840.692 642.191, 849.295 637.835 C 859.655 632.589, 866.017 622.997, 866.773 611.485 C 867.199 604.990, 865.845 598.796, 848.523 527.985 C 838.232 485.918, 829.183 450.508, 828.413 449.295 C 824.723 443.483, 815.537 437.952, 799.609 431.949 C 788.619 427.808, 760.789 420.323, 746 417.532 C 741.325 416.649, 736.547 415.725, 735.382 415.478 C 733.710 415.123, 732.504 416.174, 729.645 420.479 M 508.954 559.221 C 502.880 564.248, 502.142 573.963, 507.085 583.854 C 510.798 591.284, 515.362 595.061, 521.459 595.748 C 525.371 596.189, 526.252 595.902, 528.797 593.356 C 532.406 589.748, 533.456 584.513, 531.989 577.445 C 530.767 571.562, 526.066 563.792, 521.864 560.712 C 518.601 558.320, 511.090 557.453, 508.954 559.221 M 563.826 560.895 C 552.971 567.779, 549.021 588.853, 557.540 594.434 C 568.791 601.806, 585.315 582.024, 581.070 566.262 C 578.842 557.985, 571.848 555.808, 563.826 560.895 M 481.476 587.362 C 471.479 591.829, 476.276 610.529, 489.340 618.022 C 497.615 622.768, 504.428 621.940, 507.602 615.802 C 514.166 603.110, 494.396 581.590, 481.476 587.362 M 594.764 586.996 C 584.590 590.059, 577 600.322, 577 611.016 C 577 615.224, 577.454 616.516, 579.646 618.548 C 588.815 627.046, 608.961 612.722, 608.991 597.684 C 609.002 591.592, 607.709 589.194, 603.452 587.415 C 599.694 585.845, 598.738 585.799, 594.764 586.996 M 536.500 600.879 C 514.715 606.665, 498.109 636.995, 508.381 652.237 C 510.997 656.119, 517.167 660.434, 522.301 661.972 C 534.193 665.535, 555.045 665.248, 566.441 661.365 C 572.977 659.138, 579.461 652.757, 581.036 647 C 584.875 632.970, 573.463 611.806, 557.795 603.896 C 551.489 600.713, 542.122 599.386, 536.500 600.879 M 610.432 750 C 610.432 763.475, 610.574 768.987, 610.747 762.250 C 610.920 755.513, 610.920 744.487, 610.747 737.750 C 610.574 731.013, 610.432 736.525, 610.432 750 M 400.439 759 C 400.439 774.125, 400.578 780.313, 400.748 772.750 C 400.917 765.188, 400.917 752.813, 400.748 745.250 C 400.578 737.688, 400.439 743.875, 400.439 759 M 540.439 759 C 540.439 774.125, 540.578 780.313, 540.748 772.750 C 540.917 765.188, 540.917 752.813, 540.748 745.250 C 540.578 737.688, 540.439 743.875, 540.439 759 M 563.425 733.334 C 563.144 734.067, 563.067 738.455, 563.253 743.084 L 563.593 751.500 563.796 742.316 L 564 733.133 566.750 732.716 L 569.500 732.300 566.719 732.150 C 565.189 732.067, 563.707 732.600, 563.425 733.334 M 423.360 743 C 423.360 748.225, 423.529 750.362, 423.735 747.750 C 423.941 745.138, 423.941 740.862, 423.735 738.250 C 423.529 735.638, 423.360 737.775, 423.360 743 M 633.402 763 C 633.402 771.525, 633.556 775.013, 633.743 770.750 C 633.931 766.487, 633.931 759.513, 633.743 755.250 C 633.556 750.987, 633.402 754.475, 633.402 763 M 430.750 752.732 C 433.087 752.943, 436.913 752.943, 439.250 752.732 C 441.587 752.522, 439.675 752.349, 435 752.349 C 430.325 752.349, 428.413 752.522, 430.750 752.732 M 563.432 776.419 C 563.486 783.460, 563.816 785.424, 565 785.745 C 566.064 786.034, 566.150 785.903, 565.294 785.294 C 564.570 784.780, 563.943 781.048, 563.726 775.968 L 563.365 767.500 563.432 776.419 M 423.389 781.500 C 423.390 788.650, 423.550 791.444, 423.742 787.708 C 423.935 783.973, 423.934 778.123, 423.739 774.708 C 423.545 771.294, 423.387 774.350, 423.389 781.500" stroke="none" fill="#f9e9d7" fill-rule="evenodd"/></svg>