<svg xmlns="http://www.w3.org/2000/svg" width="1080" height="1080" viewBox="0 0 1080 1080" version="1.1"><path d="M 173.348 355.420 C 159.121 358.871, 145.833 369.859, 139.274 383.597 L 135.500 391.500 135.500 540 L 135.500 688.500 139.274 696.403 C 145.988 710.467, 160.195 721.862, 174.799 724.898 C 182.329 726.464, 897.671 726.464, 905.201 724.898 C 919.805 721.862, 934.012 710.467, 940.726 696.403 L 944.500 688.500 944.500 540 L 944.500 391.500 940.726 383.597 C 933.941 369.385, 919.978 358.187, 905.201 355.105 C 897.056 353.407, 180.377 353.715, 173.348 355.420 M 228.447 409.403 C 213.502 414.084, 201.585 424.964, 194.933 440 L 192.500 445.500 192.229 536.290 L 191.959 627.080 194.328 633.892 C 199.111 647.646, 207.603 657.166, 221 663.791 L 228.500 667.500 536 667.500 L 843.500 667.500 851 663.902 C 863.773 657.773, 872.514 648.429, 877.791 635.260 L 880.500 628.500 880.781 541.291 C 881.090 445.606, 881.176 447.221, 875.120 435.250 C 869.220 423.589, 857.702 413.842, 845.295 410.009 C 838.838 408.015, 836.527 408, 535.645 408.067 C 293.602 408.120, 231.683 408.390, 228.447 409.403 M 438.404 497.827 C 423.990 502.809, 417.030 516.055, 417.030 538.500 C 417.030 559.414, 422.900 571.783, 435.857 578.168 C 439.880 580.151, 442.037 580.457, 452 580.457 C 461.963 580.457, 464.120 580.151, 468.143 578.168 C 481.886 571.396, 487.918 557.072, 486.712 534.074 C 486.407 528.258, 485.457 521.230, 484.601 518.455 C 481.327 507.844, 474.142 500.352, 464.438 497.431 C 457.841 495.446, 444.715 495.645, 438.404 497.827 M 522.500 497.344 C 516.119 499.450, 512.521 501.642, 509.155 505.477 C 502.145 513.460, 499.542 522.568, 499.571 539 C 499.624 568.443, 512.273 582.283, 537.780 580.807 C 556.625 579.716, 566.233 569.415, 569.075 547.257 C 572.011 524.361, 564.708 505.071, 550.788 498.956 C 544.315 496.112, 528.895 495.233, 522.500 497.344 M 680.224 497.469 C 668.413 501.157, 663.469 508.817, 664.153 522.365 C 664.485 528.936, 664.908 530.322, 667.609 533.677 C 671.920 539.034, 675.388 541.151, 686.132 544.985 C 699.860 549.884, 704.762 555.611, 700.471 561.738 C 697.066 566.600, 685.896 565.472, 681.902 559.862 C 678.890 555.633, 674.422 553.890, 669.461 555.009 C 663.012 556.463, 661.234 561.476, 664.630 568.634 C 669.577 579.057, 688.140 583.967, 705.540 579.454 C 717.610 576.323, 724 568.419, 724 556.619 C 724 544.392, 719.115 539.331, 702.228 534.060 C 690.135 530.285, 687.121 528.533, 685.323 524.232 C 683.511 519.893, 684.856 513.683, 687.970 512.016 C 690.696 510.557, 698.295 510.764, 700.473 512.357 C 701.493 513.103, 703.267 516.359, 704.414 519.593 C 705.973 523.989, 707.216 525.817, 709.335 526.832 C 715.550 529.810, 723 525.291, 723 518.543 C 723 509.029, 716.347 500.369, 706.878 497.556 C 700.487 495.659, 686.172 495.612, 680.224 497.469 M 356.656 498.133 C 352.415 500.598, 352 504.192, 352 538.500 C 352 574.103, 352.403 577.062, 357.517 579.006 C 360.860 580.277, 366.140 580.277, 369.483 579.006 C 373.646 577.424, 375 572.644, 375 559.532 L 375 548 385.365 548 C 394.337 548, 396.084 547.721, 398.365 545.927 C 400.163 544.513, 401 542.904, 401 540.862 C 401 533.940, 397.246 532, 383.851 532 L 375 532 375 523 L 375 514 386.953 514 C 399.852 514, 403.159 513.141, 404.890 509.343 C 406.664 505.448, 406.203 503.049, 403.077 499.923 L 400.154 497 379.327 497.030 C 366.383 497.049, 357.802 497.466, 356.656 498.133 M 588.417 499.317 L 585.500 501.825 585.212 537.115 C 585.013 561.564, 585.270 573.237, 586.048 575.116 C 587.895 579.576, 591.227 580.259, 608.712 579.765 C 620.252 579.438, 625.711 578.860, 629 577.618 C 642.128 572.659, 647.975 563.879, 649.989 546.097 C 652.217 526.428, 647.436 509.799, 637.677 503.277 C 630.471 498.461, 627.090 497.766, 608.417 497.266 L 591.334 496.808 588.417 499.317 M 446.303 513.197 C 441.964 515.293, 440.568 520.369, 440.166 535.500 C 439.713 552.589, 440.873 558.874, 445.141 562.465 C 449.225 565.902, 454.775 565.902, 458.860 562.465 C 463.076 558.917, 464.318 552.042, 463.813 535.069 C 463.367 520.120, 461.930 515.200, 457.405 513.139 C 454.345 511.744, 449.254 511.771, 446.303 513.197 M 527.707 514.016 C 523.465 517.353, 522.500 521.982, 522.500 539 C 522.500 552.502, 522.758 555.014, 524.500 558.492 C 527.009 563.501, 530.200 565.212, 535.966 564.640 C 544.464 563.797, 546.559 558.256, 546.416 537 C 546.319 522.695, 545.054 516.974, 541.341 514.054 C 537.861 511.316, 531.163 511.297, 527.707 514.016 M 607.744 513.590 C 607.335 513.999, 607 525.283, 607 538.667 L 607 563 611.599 563 C 617.975 563, 622.229 560.702, 625.086 555.714 C 627.322 551.810, 627.500 550.470, 627.500 537.500 C 627.500 524.704, 627.306 523.188, 625.241 519.868 C 623.999 517.870, 621.749 515.752, 620.241 515.162 C 616.436 513.672, 608.642 512.692, 607.744 513.590" stroke="none" fill="#ffffff" fill-rule="evenodd"/><path d="M 228.447 409.403 C 213.502 414.084, 201.585 424.964, 194.933 440 L 192.500 445.500 192.229 536.290 L 191.959 627.080 194.328 633.892 C 199.111 647.646, 207.603 657.166, 221 663.791 L 228.500 667.500 536 667.500 L 843.500 667.500 851 663.902 C 863.773 657.773, 872.514 648.429, 877.791 635.260 L 880.500 628.500 880.781 541.291 C 881.090 445.606, 881.176 447.221, 875.120 435.250 C 869.220 423.589, 857.702 413.842, 845.295 410.009 C 838.838 408.015, 836.527 408, 535.645 408.067 C 293.602 408.120, 231.683 408.390, 228.447 409.403 M 438.404 497.827 C 423.990 502.809, 417.030 516.055, 417.030 538.500 C 417.030 559.414, 422.900 571.783, 435.857 578.168 C 439.880 580.151, 442.037 580.457, 452 580.457 C 461.963 580.457, 464.120 580.151, 468.143 578.168 C 481.886 571.396, 487.918 557.072, 486.712 534.074 C 486.407 528.258, 485.457 521.230, 484.601 518.455 C 481.327 507.844, 474.142 500.352, 464.438 497.431 C 457.841 495.446, 444.715 495.645, 438.404 497.827 M 522.500 497.344 C 516.119 499.450, 512.521 501.642, 509.155 505.477 C 502.145 513.460, 499.542 522.568, 499.571 539 C 499.624 568.443, 512.273 582.283, 537.780 580.807 C 556.625 579.716, 566.233 569.415, 569.075 547.257 C 572.011 524.361, 564.708 505.071, 550.788 498.956 C 544.315 496.112, 528.895 495.233, 522.500 497.344 M 680.224 497.469 C 668.413 501.157, 663.469 508.817, 664.153 522.365 C 664.485 528.936, 664.908 530.322, 667.609 533.677 C 671.920 539.034, 675.388 541.151, 686.132 544.985 C 699.860 549.884, 704.762 555.611, 700.471 561.738 C 697.066 566.600, 685.896 565.472, 681.902 559.862 C 678.890 555.633, 674.422 553.890, 669.461 555.009 C 663.012 556.463, 661.234 561.476, 664.630 568.634 C 669.577 579.057, 688.140 583.967, 705.540 579.454 C 717.610 576.323, 724 568.419, 724 556.619 C 724 544.392, 719.115 539.331, 702.228 534.060 C 690.135 530.285, 687.121 528.533, 685.323 524.232 C 683.511 519.893, 684.856 513.683, 687.970 512.016 C 690.696 510.557, 698.295 510.764, 700.473 512.357 C 701.493 513.103, 703.267 516.359, 704.414 519.593 C 705.973 523.989, 707.216 525.817, 709.335 526.832 C 715.550 529.810, 723 525.291, 723 518.543 C 723 509.029, 716.347 500.369, 706.878 497.556 C 700.487 495.659, 686.172 495.612, 680.224 497.469 M 356.656 498.133 C 352.415 500.598, 352 504.192, 352 538.500 C 352 574.103, 352.403 577.062, 357.517 579.006 C 360.860 580.277, 366.140 580.277, 369.483 579.006 C 373.646 577.424, 375 572.644, 375 559.532 L 375 548 385.365 548 C 394.337 548, 396.084 547.721, 398.365 545.927 C 400.163 544.513, 401 542.904, 401 540.862 C 401 533.940, 397.246 532, 383.851 532 L 375 532 375 523 L 375 514 386.953 514 C 399.852 514, 403.159 513.141, 404.890 509.343 C 406.664 505.448, 406.203 503.049, 403.077 499.923 L 400.154 497 379.327 497.030 C 366.383 497.049, 357.802 497.466, 356.656 498.133 M 588.417 499.317 L 585.500 501.825 585.212 537.115 C 585.013 561.564, 585.270 573.237, 586.048 575.116 C 587.895 579.576, 591.227 580.259, 608.712 579.765 C 620.252 579.438, 625.711 578.860, 629 577.618 C 642.128 572.659, 647.975 563.879, 649.989 546.097 C 652.217 526.428, 647.436 509.799, 637.677 503.277 C 630.471 498.461, 627.090 497.766, 608.417 497.266 L 591.334 496.808 588.417 499.317 M 446.303 513.197 C 441.964 515.293, 440.568 520.369, 440.166 535.500 C 439.713 552.589, 440.873 558.874, 445.141 562.465 C 449.225 565.902, 454.775 565.902, 458.860 562.465 C 463.076 558.917, 464.318 552.042, 463.813 535.069 C 463.367 520.120, 461.930 515.200, 457.405 513.139 C 454.345 511.744, 449.254 511.771, 446.303 513.197 M 527.707 514.016 C 523.465 517.353, 522.500 521.982, 522.500 539 C 522.500 552.502, 522.758 555.014, 524.500 558.492 C 527.009 563.501, 530.200 565.212, 535.966 564.640 C 544.464 563.797, 546.559 558.256, 546.416 537 C 546.319 522.695, 545.054 516.974, 541.341 514.054 C 537.861 511.316, 531.163 511.297, 527.707 514.016 M 607.744 513.590 C 607.335 513.999, 607 525.283, 607 538.667 L 607 563 611.599 563 C 617.975 563, 622.229 560.702, 625.086 555.714 C 627.322 551.810, 627.500 550.470, 627.500 537.500 C 627.500 524.704, 627.306 523.188, 625.241 519.868 C 623.999 517.870, 621.749 515.752, 620.241 515.162 C 616.436 513.672, 608.642 512.692, 607.744 513.590" stroke="none" fill="#b4d4fc" fill-rule="evenodd"/></svg>