<svg xmlns="http://www.w3.org/2000/svg" width="1080" height="1080" viewBox="0 0 1080 1080" version="1.1"><path d="M 351.442 178.906 C 351.764 179.427, 355.741 181.877, 360.281 184.352 C 376.754 193.331, 401.268 213.053, 410 224.351 C 412.677 227.815, 415.347 229.732, 421.352 232.504 C 425.671 234.498, 429.439 235.895, 429.725 235.608 C 430.712 234.621, 416.568 218.695, 408.044 211.196 C 403.345 207.062, 395.450 201.021, 390.500 197.773 C 378.475 189.882, 349.607 175.937, 351.442 178.906 M 869.310 202.500 C 869.315 205.800, 869.502 207.029, 869.725 205.232 C 869.947 203.435, 869.943 200.735, 869.715 199.232 C 869.486 197.729, 869.304 199.200, 869.310 202.500 M 375 232.960 C 373.907 233.695, 375.129 233.979, 379.500 234.007 C 383.271 234.030, 387.119 234.779, 389.859 236.022 C 392.257 237.110, 394.355 238, 394.522 238 C 394.690 238, 394.358 236.762, 393.786 235.250 C 392.782 232.597, 392.460 232.490, 384.623 232.225 C 380.155 232.074, 375.825 232.405, 375 232.960 M 415.500 252.698 C 416.050 253.244, 418.557 255.543, 421.070 257.807 C 425.474 261.773, 425.774 261.882, 429.308 260.797 C 432.928 259.686, 432.948 259.652, 430.817 258.159 C 428.732 256.699, 428.724 256.620, 430.579 255.889 C 432.220 255.241, 432.136 255.141, 430 255.196 C 427.560 255.259, 420.262 253.749, 416.420 252.387 C 415.147 251.935, 414.837 252.040, 415.500 252.698 M 176.500 277.680 C 177.050 278.276, 181.775 282.281, 187 286.580 C 192.225 290.880, 203.907 301.846, 212.960 310.949 C 225.356 323.414, 226.986 324.840, 219.563 316.724 C 209.818 306.072, 195.670 292.643, 185 283.921 C 178.773 278.831, 175.015 276.072, 176.500 277.680 M 235.104 335 C 238.732 339.125, 246.096 347.900, 251.468 354.500 C 260.712 365.858, 264.788 370.527, 262.379 367 C 257.934 360.491, 233.468 331.409, 230.412 329 C 229.365 328.175, 231.476 330.875, 235.104 335 M 177.320 373 C 177.320 376.575, 177.502 378.038, 177.723 376.250 C 177.945 374.462, 177.945 371.538, 177.723 369.750 C 177.502 367.962, 177.320 369.425, 177.320 373 M 275.961 386.750 C 278.868 390.738, 281.444 394, 281.687 394 C 282.380 394, 273.893 382.156, 272.197 380.755 C 271.361 380.065, 273.054 382.762, 275.961 386.750 M 178.417 401.500 C 178.418 411.950, 178.566 416.089, 178.746 410.698 C 178.926 405.307, 178.925 396.757, 178.744 391.698 C 178.563 386.639, 178.416 391.050, 178.417 401.500 M 177.320 430 C 177.320 433.575, 177.502 435.038, 177.723 433.250 C 177.945 431.462, 177.945 428.538, 177.723 426.750 C 177.502 424.962, 177.320 426.425, 177.320 430 M 233 469.500 C 233 473.258, 233.187 476.146, 233.416 475.917 C 234.152 475.180, 234.387 464.054, 233.682 463.348 C 233.307 462.973, 233 465.742, 233 469.500 M 494.343 573.500 C 494.346 577.900, 494.522 579.576, 494.733 577.224 C 494.945 574.872, 494.942 571.272, 494.727 569.224 C 494.512 567.176, 494.339 569.100, 494.343 573.500 M 661 605.713 C 651.994 606.605, 633.149 607.215, 611.262 607.324 C 576.530 607.497, 576.033 607.529, 576.627 609.500 C 576.958 610.600, 579.011 615.367, 581.187 620.094 L 585.145 628.688 595.822 630.989 C 612.220 634.524, 626.490 634.715, 642.969 631.620 C 656.019 629.170, 657.910 629.228, 657.985 632.085 C 658 632.682, 643.704 635.986, 632 638.090 C 628.425 638.733, 621.450 639.294, 616.500 639.336 C 607.963 639.410, 606.096 639.061, 589.631 634.327 C 587.819 633.806, 587.817 633.882, 589.565 636.841 C 590.556 638.518, 591.683 639.696, 592.069 639.457 C 592.455 639.219, 596.270 639.918, 600.546 641.012 C 609.909 643.407, 619.889 643.543, 631.140 641.430 C 638.131 640.116, 654.405 635.895, 658.672 634.287 C 660.701 633.523, 677 663.376, 677 667.857 C 677 668.389, 674.557 666.282, 671.571 663.175 C 668.585 660.067, 665.851 657.816, 665.495 658.172 C 665.139 658.528, 666.243 661.997, 667.948 665.881 C 674.676 681.211, 678.185 697.492, 678.370 714.247 C 678.442 720.707, 678.829 725.995, 679.231 725.997 C 682.290 726.011, 681.243 697.591, 677.678 683.871 C 676.302 678.575, 674.392 672.725, 673.434 670.871 C 671.839 667.786, 671.834 667.618, 673.375 668.897 C 674.301 669.665, 676.679 672.918, 678.659 676.126 C 684.499 685.589, 685.768 681.709, 681.381 667.802 C 678.177 657.645, 672.540 646.317, 667.078 639.058 C 664.826 636.065, 663.325 633.308, 663.742 632.931 C 664.159 632.554, 666.892 631.470, 669.815 630.521 C 676.457 628.366, 676.106 627.458, 669.415 629.487 C 663.275 631.350, 660.365 631.393, 659.688 629.630 C 659.300 628.617, 661.816 627.567, 669.331 625.608 C 674.924 624.149, 680.481 622.697, 681.681 622.379 C 683.504 621.898, 684.276 622.599, 686.384 626.651 C 687.772 629.318, 688.928 631.156, 688.953 630.735 C 688.979 630.314, 686.264 624.512, 682.921 617.842 C 678.197 608.419, 677.138 605.528, 678.171 604.873 C 679.792 603.845, 679.907 603.840, 661 605.713 M 649.477 865.250 L 641.500 873.500 649.750 865.523 C 657.412 858.115, 658.456 857, 657.727 857 C 657.576 857, 653.864 860.712, 649.477 865.250 M 631 882.114 C 619.582 891.746, 617.308 894.041, 625.500 887.666 C 632.210 882.444, 641.769 874.071, 641 874.088 C 640.725 874.094, 636.225 877.706, 631 882.114 M 616.964 893.376 C 616.159 894.133, 613.087 896.383, 610.138 898.376 C 607.189 900.369, 605.186 902, 605.688 902 C 606.729 902, 619 893.233, 619 892.489 C 619 891.703, 618.523 891.911, 616.964 893.376" stroke="none" fill="#e0c5b3" fill-rule="evenodd"/><path d="M 351.442 178.906 C 351.764 179.427, 355.741 181.877, 360.281 184.352 C 376.754 193.331, 401.268 213.053, 410 224.351 C 412.677 227.815, 415.347 229.732, 421.352 232.504 C 425.671 234.498, 429.439 235.895, 429.725 235.608 C 430.712 234.621, 416.568 218.695, 408.044 211.196 C 403.345 207.062, 395.450 201.021, 390.500 197.773 C 378.475 189.882, 349.607 175.937, 351.442 178.906 M 869.310 202.500 C 869.315 205.800, 869.502 207.029, 869.725 205.232 C 869.947 203.435, 869.943 200.735, 869.715 199.232 C 869.486 197.729, 869.304 199.200, 869.310 202.500 M 375 232.960 C 373.907 233.695, 375.129 233.979, 379.500 234.007 C 383.271 234.030, 387.119 234.779, 389.859 236.022 C 392.257 237.110, 394.355 238, 394.522 238 C 394.690 238, 394.358 236.762, 393.786 235.250 C 392.782 232.597, 392.460 232.490, 384.623 232.225 C 380.155 232.074, 375.825 232.405, 375 232.960 M 415.500 252.698 C 416.050 253.244, 418.557 255.543, 421.070 257.807 C 425.474 261.773, 425.774 261.882, 429.308 260.797 C 432.928 259.686, 432.948 259.652, 430.817 258.159 C 428.732 256.699, 428.724 256.620, 430.579 255.889 C 432.220 255.241, 432.136 255.141, 430 255.196 C 427.560 255.259, 420.262 253.749, 416.420 252.387 C 415.147 251.935, 414.837 252.040, 415.500 252.698 M 176.500 277.680 C 177.050 278.276, 181.775 282.281, 187 286.580 C 192.225 290.880, 203.907 301.846, 212.960 310.949 C 225.356 323.414, 226.986 324.840, 219.563 316.724 C 209.818 306.072, 195.670 292.643, 185 283.921 C 178.773 278.831, 175.015 276.072, 176.500 277.680 M 235.104 335 C 238.732 339.125, 246.096 347.900, 251.468 354.500 C 260.712 365.858, 264.788 370.527, 262.379 367 C 257.934 360.491, 233.468 331.409, 230.412 329 C 229.365 328.175, 231.476 330.875, 235.104 335 M 177.320 373 C 177.320 376.575, 177.502 378.038, 177.723 376.250 C 177.945 374.462, 177.945 371.538, 177.723 369.750 C 177.502 367.962, 177.320 369.425, 177.320 373 M 275.961 386.750 C 278.868 390.738, 281.444 394, 281.687 394 C 282.380 394, 273.893 382.156, 272.197 380.755 C 271.361 380.065, 273.054 382.762, 275.961 386.750 M 178.417 401.500 C 178.418 411.950, 178.566 416.089, 178.746 410.698 C 178.926 405.307, 178.925 396.757, 178.744 391.698 C 178.563 386.639, 178.416 391.050, 178.417 401.500 M 177.320 430 C 177.320 433.575, 177.502 435.038, 177.723 433.250 C 177.945 431.462, 177.945 428.538, 177.723 426.750 C 177.502 424.962, 177.320 426.425, 177.320 430 M 233 469.500 C 233 473.258, 233.187 476.146, 233.416 475.917 C 234.152 475.180, 234.387 464.054, 233.682 463.348 C 233.307 462.973, 233 465.742, 233 469.500 M 494.343 573.500 C 494.346 577.900, 494.522 579.576, 494.733 577.224 C 494.945 574.872, 494.942 571.272, 494.727 569.224 C 494.512 567.176, 494.339 569.100, 494.343 573.500 M 661 605.713 C 651.994 606.605, 633.149 607.215, 611.262 607.324 C 576.530 607.497, 576.033 607.529, 576.627 609.500 C 576.958 610.600, 579.011 615.367, 581.187 620.094 L 585.145 628.688 595.822 630.989 C 612.220 634.524, 626.490 634.715, 642.969 631.620 C 656.019 629.170, 657.910 629.228, 657.985 632.085 C 658 632.682, 643.704 635.986, 632 638.090 C 628.425 638.733, 621.450 639.294, 616.500 639.336 C 607.963 639.410, 606.096 639.061, 589.631 634.327 C 587.819 633.806, 587.817 633.882, 589.565 636.841 C 590.556 638.518, 591.683 639.696, 592.069 639.457 C 592.455 639.219, 596.270 639.918, 600.546 641.012 C 609.909 643.407, 619.889 643.543, 631.140 641.430 C 638.131 640.116, 654.405 635.895, 658.672 634.287 C 660.701 633.523, 677 663.376, 677 667.857 C 677 668.389, 674.557 666.282, 671.571 663.175 C 668.585 660.067, 665.851 657.816, 665.495 658.172 C 665.139 658.528, 666.243 661.997, 667.948 665.881 C 674.676 681.211, 678.185 697.492, 678.370 714.247 C 678.442 720.707, 678.829 725.995, 679.231 725.997 C 682.290 726.011, 681.243 697.591, 677.678 683.871 C 676.302 678.575, 674.392 672.725, 673.434 670.871 C 671.839 667.786, 671.834 667.618, 673.375 668.897 C 674.301 669.665, 676.679 672.918, 678.659 676.126 C 684.499 685.589, 685.768 681.709, 681.381 667.802 C 678.177 657.645, 672.540 646.317, 667.078 639.058 C 664.826 636.065, 663.325 633.308, 663.742 632.931 C 664.159 632.554, 666.892 631.470, 669.815 630.521 C 676.457 628.366, 676.106 627.458, 669.415 629.487 C 663.275 631.350, 660.365 631.393, 659.688 629.630 C 659.300 628.617, 661.816 627.567, 669.331 625.608 C 674.924 624.149, 680.481 622.697, 681.681 622.379 C 683.504 621.898, 684.276 622.599, 686.384 626.651 C 687.772 629.318, 688.928 631.156, 688.953 630.735 C 688.979 630.314, 686.264 624.512, 682.921 617.842 C 678.197 608.419, 677.138 605.528, 678.171 604.873 C 679.792 603.845, 679.907 603.840, 661 605.713 M 649.477 865.250 L 641.500 873.500 649.750 865.523 C 657.412 858.115, 658.456 857, 657.727 857 C 657.576 857, 653.864 860.712, 649.477 865.250 M 631 882.114 C 619.582 891.746, 617.308 894.041, 625.500 887.666 C 632.210 882.444, 641.769 874.071, 641 874.088 C 640.725 874.094, 636.225 877.706, 631 882.114 M 616.964 893.376 C 616.159 894.133, 613.087 896.383, 610.138 898.376 C 607.189 900.369, 605.186 902, 605.688 902 C 606.729 902, 619 893.233, 619 892.489 C 619 891.703, 618.523 891.911, 616.964 893.376" stroke="none" fill="#e0c5b3" fill-rule="evenodd"/><path d="M 380.499 420.003 C 378.723 423.437, 378.821 428.123, 380.682 428.734 C 382.297 429.264, 383.736 426.288, 384.142 421.579 C 384.569 416.615, 382.674 415.795, 380.499 420.003 M 388.607 433.582 C 387.533 436.382, 387.959 441.562, 389.429 443.559 C 390.615 445.171, 390.950 445.246, 391.402 444 C 392.578 440.760, 393.849 433.565, 393.379 432.804 C 392.513 431.403, 389.238 431.936, 388.607 433.582 M 375.458 445.424 C 373.265 448.771, 373.848 455.360, 376.380 455.840 C 379.014 456.340, 379.967 454.333, 379.985 448.250 C 380.002 442.320, 378.221 441.208, 375.458 445.424 M 382.419 455.483 C 379.025 460.664, 379.690 471, 383.419 471 C 385.208 471, 385.970 467.826, 385.986 460.309 C 386.002 453.304, 384.860 451.758, 382.419 455.483 M 373.596 466.814 C 371.192 471.464, 370.547 480.979, 372.344 485.282 C 373.898 489.001, 375.318 489.912, 376.522 487.964 C 377.497 486.386, 378.874 469.793, 378.286 466.713 C 377.614 463.201, 375.441 463.247, 373.596 466.814 M 381.988 487.514 C 379.833 490.111, 382.340 501.994, 384.572 499.761 C 385.993 498.341, 386.943 490.979, 386.019 488.549 C 384.911 485.635, 383.787 485.347, 381.988 487.514 M 388.934 495.674 C 388.018 498.084, 388.228 501.228, 389.642 506.250 C 390.320 508.659, 392.722 508.451, 393.528 505.913 C 394.138 503.989, 393.624 498.986, 392.379 494.750 C 391.630 492.198, 390.099 492.609, 388.934 495.674 M 372.888 498.750 C 370.843 504.045, 374.207 517.967, 378.507 522.006 C 380.718 524.084, 381.010 524.137, 381.610 522.575 C 382.257 520.887, 379.498 498.614, 378.425 496.879 C 377.232 494.948, 373.925 496.065, 372.888 498.750 M 385.545 519.859 C 384.417 523.414, 387.845 529, 391.155 529 C 393.632 529, 393.566 525.441, 391.011 521.250 C 388.805 517.632, 386.442 517.031, 385.545 519.859 M 390 541.050 C 390 544.630, 396.506 552, 399.666 552 C 402.922 552, 402.177 548.756, 397.927 544.426 C 393.871 540.293, 390 538.644, 390 541.050 M 407 550.300 C 407 552.287, 409.148 554, 411.641 554 C 414.703 554, 415.705 551.989, 413.462 550.348 C 411.111 548.629, 407 548.599, 407 550.300 M 172.198 583.667 C 172.425 588.051, 172.873 589.500, 174 589.500 C 175.151 589.500, 175.500 588.224, 175.500 584.014 C 175.500 579.523, 175.173 578.464, 173.698 578.180 C 172.101 577.873, 171.930 578.499, 172.198 583.667 M 180.623 602.540 C 179.591 605.230, 179.919 609.506, 181.303 611.399 C 182.462 612.985, 182.744 613.013, 183.874 611.652 C 184.777 610.563, 184.901 608.906, 184.305 605.890 C 183.420 601.417, 181.666 599.821, 180.623 602.540 M 174.214 613.582 C 173.701 614.499, 173.699 617.529, 174.210 620.785 C 175.731 630.483, 179 631.657, 179 622.506 C 179 614.106, 176.514 609.471, 174.214 613.582 M 186.667 627.667 C 185.508 628.825, 186.008 635.426, 187.392 637.250 C 189.613 640.176, 191 639.286, 191 634.934 C 191 629.206, 188.806 625.527, 186.667 627.667 M 178.688 639.646 C 177.324 641.009, 178.085 648.591, 180.012 652.837 C 182.754 658.880, 184.574 657.862, 184.226 650.480 C 183.860 642.700, 181.077 637.256, 178.688 639.646 M 199.598 640.736 C 198.484 641.849, 198.992 646.607, 200.433 648.559 C 202.494 651.352, 204.085 649.297, 203.353 644.787 C 202.796 641.357, 200.959 639.375, 199.598 640.736 M 190.688 650.646 C 188.440 652.894, 192.594 666.660, 195.240 665.731 C 196.730 665.209, 196.461 659.535, 194.696 654.240 C 193.508 650.677, 192.005 649.329, 190.688 650.646 M 343.919 663.250 C 343.874 663.938, 343.746 665.752, 343.634 667.282 C 343.490 669.253, 343.857 669.981, 344.894 669.782 C 346.420 669.488, 348.295 664.287, 347.398 662.836 C 346.599 661.542, 344.010 661.850, 343.919 663.250 M 184.701 667.632 C 183.349 668.984, 184.019 675.976, 186.010 681.298 C 189.127 689.629, 195.120 693.922, 194.935 687.691 C 194.899 686.486, 193.437 681.453, 191.685 676.506 C 188.721 668.137, 186.729 665.605, 184.701 667.632 M 198.667 677.667 C 197.384 678.950, 198.017 685.023, 199.969 690.161 C 202.046 695.626, 203.455 697.146, 205.659 696.300 C 207.512 695.589, 207.346 693.429, 204.860 685.944 C 202.135 677.738, 200.620 675.713, 198.667 677.667 M 342.203 680.750 C 339.814 687.066, 340.022 693.841, 342.632 694.711 C 344.216 695.239, 346 690.378, 346 685.535 C 346 678.059, 344.117 675.687, 342.203 680.750 M 332.557 693.223 C 330.643 695.955, 330.540 700.988, 332.347 703.460 C 333.374 704.864, 333.882 705.001, 334.479 704.034 C 336.802 700.275, 337.136 691, 334.948 691 C 334.489 691, 333.413 692, 332.557 693.223 M 195.621 699.804 C 195.348 700.246, 195.557 702.531, 196.085 704.881 C 197.950 713.182, 205.372 725, 208.720 725 C 211.131 725, 209.817 719.716, 204.661 708.681 C 201.143 701.153, 199.690 699, 198.127 699 C 197.022 699, 195.894 699.362, 195.621 699.804 M 217 708.032 C 217 711.921, 219.841 717.179, 221.731 716.788 C 223.922 716.334, 223.813 711.890, 221.525 708.397 C 219.605 705.468, 217 705.257, 217 708.032 M 338.581 709.562 C 336.636 711.507, 336.459 719.306, 338.324 720.854 C 340.533 722.687, 342 720.095, 342 714.359 C 342 708.583, 340.984 707.158, 338.581 709.562 M 328.701 716.632 C 327.675 717.659, 327.874 725.253, 328.974 726.992 C 330.569 729.516, 332.365 726.560, 332.436 721.292 C 332.484 717.784, 332.099 716.476, 330.951 716.244 C 330.099 716.072, 329.087 716.246, 328.701 716.632 M 214.650 718.469 C 213.725 720.880, 219.264 730.452, 221.797 730.820 C 224.700 731.241, 224.582 730.096, 220.986 722.971 C 218.037 717.131, 215.779 715.526, 214.650 718.469 M 336.958 735.079 C 335.259 738.253, 336.197 748.632, 338.377 750.780 C 340.028 752.407, 340.200 752.395, 341.561 750.559 C 343.282 748.237, 343.345 741.814, 341.694 737.075 C 340.232 732.881, 338.520 732.160, 336.958 735.079 M 216 736.352 C 216 740.057, 220.151 745.452, 223.282 745.816 C 224.777 745.990, 226 745.769, 226 745.325 C 226 744.881, 224.370 742.151, 222.378 739.259 C 218.510 733.642, 216 732.498, 216 736.352 M 322.496 741.006 C 321.647 742.379, 321.608 749.557, 322.442 750.907 C 322.814 751.508, 323.483 752, 323.929 752 C 324.894 752, 326.016 743.204, 325.291 741.316 C 324.691 739.751, 323.363 739.604, 322.496 741.006 M 529 741.595 C 529 741.962, 530.574 744.452, 532.498 747.131 C 536.543 752.760, 537.654 752.251, 521 752.398 C 514.675 752.454, 508.741 752.952, 507.813 753.505 C 506.606 754.223, 508.456 754.449, 514.313 754.298 L 522.500 754.087 517.500 755.609 C 509.825 757.945, 498.188 762.089, 501 761.485 C 518.316 757.765, 527.876 756, 530.711 756 C 533.405 756, 535.591 757.193, 540.824 761.519 C 551.357 770.226, 552.269 771.206, 564.938 787.420 C 571.532 795.861, 579.013 804.602, 581.561 806.845 C 588.214 812.701, 597.903 817.731, 610.313 821.772 L 621.126 825.293 620.446 829.397 C 619.467 835.303, 610.648 862.202, 605.571 874.766 C 603.185 880.670, 597.995 892.401, 594.036 900.836 C 590.078 909.271, 587.047 916.380, 587.301 916.634 C 587.849 917.183, 595.984 907.868, 595.994 906.680 C 595.997 906.229, 597.279 903.979, 598.842 901.680 C 608.213 887.895, 621.508 855.433, 627.072 832.750 C 628.388 827.386, 628.509 827.349, 637.500 829.520 C 648.240 832.113, 646.762 830.991, 633 826.104 C 598.302 813.783, 587.724 807.925, 578.191 795.756 C 560.264 772.869, 553.623 764.679, 548.614 759.282 C 545.440 755.861, 543.130 752.599, 543.481 752.032 C 543.831 751.464, 543.283 751, 542.262 751 C 541.241 751, 538.627 749.164, 536.453 746.921 C 532.501 742.842, 529 740.341, 529 741.595 M 328.922 751.705 C 327.116 756.456, 330.470 768.698, 333.309 767.715 C 335.669 766.897, 333.363 749, 330.898 749 C 330.377 749, 329.488 750.217, 328.922 751.705 M 536.455 755.927 C 536.770 756.437, 538.926 758.349, 541.247 760.177 L 545.466 763.500 542.066 759.250 C 540.195 756.913, 538.039 755, 537.274 755 C 536.508 755, 536.140 755.417, 536.455 755.927 M 339.988 761.514 C 337.392 764.643, 341.938 780, 345.461 780 C 348.004 780, 348.217 778.008, 346.457 770.694 C 343.884 760.003, 342.671 758.282, 339.988 761.514 M 556 760.865 C 556 762.456, 560.127 767, 561.573 767 C 563.547 767, 563.359 765.726, 560.927 762.635 C 558.941 760.110, 556 759.053, 556 760.865 M 568.033 764.781 C 568.015 766.036, 568.694 767.329, 569.543 767.655 C 572.003 768.599, 572.212 767.477, 570.058 764.892 L 568.067 762.500 568.033 764.781 M 567.004 774.750 C 567.010 777.609, 570.694 782.790, 573.899 784.448 C 579.789 787.494, 579.151 782.176, 572.954 776.578 C 568.563 772.610, 566.998 772.130, 567.004 774.750 M 578.707 776.627 C 576.974 778.359, 585.014 787.727, 587.118 786.427 C 588.668 785.469, 588.086 784.101, 584.384 780.003 C 580.757 775.989, 579.871 775.462, 578.707 776.627 M 349.731 788.603 C 348.076 790.258, 353.914 799, 356.674 799 C 358.781 799, 358.222 795.928, 355.364 791.804 C 352.881 788.221, 351.115 787.218, 349.731 788.603 M 583 791.768 C 583 794.750, 587.520 800.376, 591.876 802.817 C 595.483 804.838, 596.089 804.933, 596.617 803.557 C 597.341 801.668, 593.305 796.097, 588.627 792.529 C 584.729 789.556, 583 789.322, 583 791.768 M 598.399 797.163 C 597.360 798.844, 603.535 804, 606.589 804 C 610.400 804, 609.304 801.019, 604.492 798.294 C 599.881 795.682, 599.373 795.588, 598.399 797.163 M 374.250 813.763 C 365.937 822.095, 360 834.713, 360 844.049 C 360 847.184, 361.691 846.294, 362.392 842.790 C 363.540 837.048, 369.932 825.509, 376.538 817.253 C 380.092 812.811, 383 808.911, 383 808.588 C 383 806.555, 379.199 808.803, 374.250 813.763 M 606 808.932 C 606 811.690, 618.329 817.071, 620.250 815.150 C 621.876 813.524, 619.580 811.386, 614.260 809.573 C 609.040 807.794, 606 807.558, 606 808.932 M 378.605 818.299 C 372.262 827.833, 367.163 838.224, 366.340 843.294 C 365.676 847.383, 365.256 847.175, 378.750 849.444 C 393.023 851.845, 391.616 853.053, 392.379 837.750 C 392.742 830.462, 393.303 822.171, 393.626 819.324 L 394.212 814.149 390.146 812.074 C 387.909 810.933, 385.640 810, 385.103 810 C 384.566 810, 381.642 813.735, 378.605 818.299 M 625 810.977 C 625 812.437, 629.753 815.270, 630.956 814.527 C 632.523 813.559, 632.212 811.295, 630.418 810.607 C 628 809.679, 625 809.884, 625 810.977 M 667.923 845.718 C 665.548 848.864, 658.560 856.632, 652.394 862.983 L 641.182 874.528 642.475 877.602 C 644.255 881.836, 664.144 914.864, 670.295 923.800 C 673.058 927.815, 676.118 931.528, 677.094 932.050 C 678.070 932.573, 687.123 933, 697.212 933 C 717.737 933, 719.434 932.532, 720.553 926.568 C 721.469 921.688, 719.252 917.846, 709.577 907.537 C 704.298 901.912, 700.929 897.442, 700.532 895.537 C 700.184 893.866, 698.136 882.201, 695.980 869.614 C 693.825 857.026, 691.935 846.642, 691.780 846.538 C 691.177 846.132, 673.425 840, 672.851 840 C 672.515 840, 670.297 842.573, 667.923 845.718 M 421.340 865 C 421.576 873.292, 422.012 875.335, 424.768 881.065 C 428.711 889.263, 438.022 899.531, 446.810 905.373 C 460.595 914.538, 479.893 922.591, 497.500 926.525 C 506.165 928.462, 536.456 929.628, 540 928.161 C 542.060 927.309, 541.224 927.116, 535.243 927.063 C 521.686 926.945, 500.435 922.979, 483 917.313 C 471.593 913.606, 452.294 903.712, 444.831 897.745 C 432.988 888.276, 426.194 878.311, 423.977 867.155 C 421.676 855.573, 421.057 855.068, 421.340 865 M 430.424 857.339 C 429.751 859.092, 431.597 863, 433.099 863 C 434.551 863, 433.766 856.741, 432.251 856.244 C 431.563 856.018, 430.741 856.511, 430.424 857.339 M 439 870.545 C 439 872.285, 443.349 877, 444.955 877 C 446.504 877, 446.223 874.270, 444.385 871.465 C 442.597 868.737, 439 868.122, 439 870.545 M 431.278 871.122 C 429.232 873.168, 433.823 881, 437.068 881 C 439.794 881, 439.473 878.953, 435.994 874.150 C 432.611 869.480, 432.799 869.601, 431.278 871.122 M 456 880.845 C 456 882.241, 459.538 885, 461.329 885 C 463.932 885, 463.279 882.637, 460.293 881.250 C 457.140 879.786, 456 879.678, 456 880.845 M 443.239 887.161 C 440.280 890.120, 449.054 898.485, 456.360 899.671 C 463.867 900.889, 459.474 894.857, 447.938 888.108 C 445.278 886.552, 444.088 886.312, 443.239 887.161 M 460.184 891.715 C 460.843 895.140, 470.165 899.918, 473.610 898.596 C 476.025 897.669, 473.608 895.198, 467.500 892.351 C 461.531 889.568, 459.740 889.412, 460.184 891.715 M 467.064 901.914 C 465.817 902.725, 465.817 903.075, 467.064 904.582 C 469.063 906.997, 479.937 911.998, 483.191 911.999 C 489.195 912.001, 486.842 908.176, 478.516 904.400 C 472.007 901.449, 468.838 900.760, 467.064 901.914 M 489.056 904.433 C 487.367 906.468, 491.820 909.239, 496.102 908.819 C 500.628 908.374, 500.880 906.266, 496.620 904.486 C 492.174 902.628, 490.563 902.617, 489.056 904.433 M 495.554 912.913 C 494.500 914.618, 495.668 915.708, 500.540 917.568 C 504.303 919.005, 505.514 919.087, 507.776 918.056 L 510.493 916.818 508.136 914.909 C 506.839 913.859, 504.591 912.994, 503.139 912.986 C 501.688 912.979, 499.538 912.715, 498.363 912.399 C 497.187 912.084, 495.923 912.315, 495.554 912.913 M 608.784 913.738 C 611.689 913.941, 616.189 913.939, 618.784 913.734 C 621.378 913.528, 619 913.363, 613.500 913.365 C 608 913.368, 605.878 913.536, 608.784 913.738 M 514 915.422 C 514 917.065, 520.376 919.454, 522.541 918.623 C 525.099 917.641, 524.111 915.272, 520.875 914.625 C 515.992 913.648, 514 913.879, 514 915.422 M 501.728 941.722 C 503.503 941.943, 506.653 941.946, 508.728 941.730 C 510.802 941.513, 509.350 941.333, 505.500 941.328 C 501.650 941.324, 499.952 941.501, 501.728 941.722" stroke="none" fill="#af6348" fill-rule="evenodd"/><path d="M 844.967 116.595 C 840.216 121.768, 828.107 130.794, 823.618 132.508 C 814.349 136.048, 810.834 131.297, 817.099 123.696 C 819.705 120.534, 817.519 121.715, 803.349 131.123 C 765.061 156.543, 698.381 202.661, 681.853 215.154 L 674.205 220.934 663.853 219.934 C 658.159 219.384, 639.550 218.674, 622.500 218.356 C 589.161 217.734, 572.821 218.735, 544.691 223.124 L 530.882 225.278 527.691 222.253 C 521.500 216.385, 481.700 188.096, 433 154.950 C 390.334 125.910, 379.973 119.197, 383.128 122.636 C 385.542 125.267, 388 129.166, 388 130.363 C 388 131.688, 384.609 133.999, 382.679 133.990 C 378.563 133.972, 370.488 129.273, 362.170 122.055 C 357.588 118.080, 353.717 114.979, 353.567 115.164 C 353.417 115.349, 352.757 117.698, 352.099 120.384 C 348.602 134.672, 341.426 139.090, 339.378 128.218 C 338.713 124.683, 338.462 125.158, 334.291 137.858 C 329.711 151.807, 327.666 156, 325.446 156 C 323.237 156, 322.706 163.942, 323.279 188.373 C 323.994 218.779, 327.062 242.046, 336.153 285.990 C 344.885 328.200, 361.007 388.051, 366.660 399.245 C 367.441 400.792, 370.163 403.062, 372.896 404.447 L 377.747 406.905 374.493 420.203 C 361.593 472.922, 360.940 509.650, 372.480 533.476 C 384.943 559.210, 418.278 580.145, 467.120 592.913 C 481.394 596.644, 507.943 602.029, 511.817 601.978 C 512.742 601.966, 511.119 600.568, 508.208 598.871 C 496.976 592.324, 493.991 587.034, 494.006 573.701 C 494.034 548.626, 509.530 499.807, 526.473 471.416 C 536.505 454.604, 544.408 448.492, 561.879 444.031 C 566.467 442.859, 571.267 441.216, 572.545 440.378 C 580.879 434.918, 616.578 434.884, 626.686 440.326 C 628.234 441.160, 633.100 442.515, 637.500 443.337 C 659.438 447.437, 666.297 453.828, 680.611 483.506 C 684.061 490.659, 689.575 504.609, 692.865 514.506 C 705.641 552.936, 708.515 583.889, 700.162 593.101 C 698.698 594.716, 693.900 597.849, 689.500 600.063 L 681.500 604.090 687 603.480 C 697.185 602.351, 715.404 598.916, 729.703 595.429 C 780.838 582.959, 816.873 560.277, 833.652 530 C 840.645 517.381, 841.429 514.007, 841.435 496.500 C 841.439 483.517, 840.925 477.577, 838.712 465 C 836.327 451.446, 827.328 412.515, 825.493 407.813 C 824.996 406.541, 825.853 405.605, 828.974 404.013 C 833.906 401.497, 834.993 399.267, 841.572 378.171 C 850.649 349.065, 863.249 297.101, 869.502 262.986 C 875.520 230.158, 877.158 215.498, 877.730 189.356 C 878.296 163.511, 877.784 156, 875.456 156 C 873.339 156, 869.570 147.791, 865.835 135.046 L 862.517 123.724 861.770 128.112 C 859.817 139.592, 852.107 134.482, 848.692 119.444 L 847.435 113.908 844.967 116.595 M 348.971 138.035 C 342.747 141.748, 337.716 151.466, 334.493 166 C 331.933 177.544, 331.346 216.169, 333.431 235.864 C 337.766 276.814, 352.194 344.222, 366.048 388.246 C 370.126 401.207, 371.171 402.801, 376.662 404.435 C 378.493 404.980, 378.933 404.576, 379.537 401.789 C 381.242 393.919, 398.183 335.543, 401.531 326 C 406.491 311.861, 415.852 292.632, 420.856 286.301 L 424.942 281.132 418.221 284.281 C 413.704 286.398, 409.516 287.558, 405.450 287.819 C 400.041 288.166, 399.061 287.922, 396.200 285.515 C 393.579 283.310, 393 282.096, 393 278.811 C 393 275.604, 393.664 274.136, 396.310 271.490 C 398.151 269.649, 401.370 267.755, 403.560 267.224 C 405.727 266.698, 412.225 265.132, 418 263.745 C 423.775 262.357, 431.200 260.185, 434.500 258.918 L 440.500 256.615 431.067 255.327 C 416.101 253.284, 407.110 249.799, 399.799 243.207 C 392.913 236.998, 389.892 227.250, 393.681 223.462 C 396.267 220.876, 402.443 222.134, 410.500 226.889 C 419.687 232.311, 430.631 236.814, 438.862 238.558 C 449.932 240.905, 458.730 240.360, 480 236.013 C 490.725 233.820, 499.872 232.021, 500.327 232.013 C 502.639 231.976, 456.390 198.749, 405.191 163.665 C 369.856 139.451, 365.125 136.694, 358.191 136.275 C 353.760 136.006, 351.719 136.396, 348.971 138.035 M 836.325 137.404 C 832.210 139.266, 814.019 151.127, 792 166.307 C 765.341 184.685, 719.046 217.379, 712.534 222.426 L 708.567 225.500 714.534 226.540 C 720.159 227.520, 720.928 227.399, 728 224.427 C 747.572 216.203, 760.801 208.155, 768.658 199.694 C 780.481 186.961, 791.630 193.895, 783.897 209.172 C 779.498 217.863, 764.571 230.169, 752.452 235.096 L 749.500 236.296 754 237.155 C 773.005 240.783, 783.380 244.438, 787.447 248.938 C 789.825 251.570, 789.884 257.547, 787.555 259.869 C 785.268 262.148, 774.278 261.808, 766.202 259.208 C 762.587 258.044, 760.280 257.674, 760.786 258.340 C 761.271 258.978, 764.149 262.650, 767.182 266.500 C 778.390 280.728, 788.664 298.390, 794.845 314.058 C 800.052 327.257, 809.921 356.737, 817.051 380.392 C 820.846 392.983, 824.185 403.518, 824.471 403.804 C 825.709 405.042, 830.222 401.712, 831.522 398.602 C 834.249 392.075, 841.085 368.305, 846.937 345 C 862.605 282.602, 869.126 241.308, 869.201 204 C 869.274 167.986, 864.167 146.675, 853.589 138.855 C 849.786 136.043, 840.972 135.302, 836.325 137.404 M 498.297 382.019 C 487.769 384.175, 480.692 392.010, 485.597 396.081 C 488.999 398.904, 502.332 396.945, 508.319 392.744 C 517.240 386.483, 510.696 379.481, 498.297 382.019 M 697.250 382.479 C 693.811 383.986, 693.094 386.439, 695.033 390.062 C 697.515 394.700, 711.545 398.793, 718.436 396.890 C 721.495 396.046, 722 395.487, 722 392.953 C 722 389.376, 719.240 386.420, 713.649 384.010 C 707.575 381.392, 701.106 380.788, 697.250 382.479 M 380.161 419.547 C 379.522 420.948, 379 423.648, 379 425.547 C 379 428.351, 379.382 429, 381.031 429 C 383.326 429, 383.604 428.402, 384.396 421.750 C 384.888 417.616, 384.726 417, 383.141 417 C 382.140 417, 380.799 418.146, 380.161 419.547 M 297.464 419.750 C 299.440 424.851, 303.089 438.931, 303.590 443.387 C 304.005 447.083, 303.753 449.049, 302.677 450.480 C 301.256 452.372, 301.035 452.387, 297.731 450.811 C 293.873 448.972, 284.487 438.895, 277.414 429 C 274.169 424.460, 272.951 423.295, 273.374 425.135 C 274.881 431.684, 278 459.837, 278 466.889 C 278 480.101, 275.334 483.851, 269.568 478.750 C 266.025 475.616, 257.956 461.783, 253.415 451.058 C 251.320 446.110, 249.479 442.187, 249.325 442.342 C 249.171 442.496, 249.481 446.420, 250.015 451.061 C 250.548 455.702, 250.988 464.701, 250.992 471.059 C 251 483.372, 250.002 486.706, 246.689 485.434 C 244.299 484.517, 239.755 477.723, 236.724 470.535 L 234.222 464.603 233.521 476.551 C 232.406 495.559, 229.380 507.873, 225.455 509.379 C 222.634 510.462, 221.238 510.071, 217.903 507.265 C 211.505 501.881, 204.334 480.833, 200.950 457.500 L 199.644 448.500 198.359 457.802 C 196.069 474.380, 191.823 485, 187.484 485 C 182.280 485, 177.518 467.482, 176.746 445.500 C 176.559 440.169, 175.712 445.535, 173.197 468 C 167.926 515.084, 166.949 528.535, 166.320 562.592 C 165.299 617.942, 169.507 653.090, 181.547 689.772 C 205.117 761.585, 267.917 819.478, 347.260 842.535 C 353.817 844.441, 359.304 846, 359.452 846 C 359.601 846, 359.967 843.301, 360.266 840.002 C 361.021 831.678, 365.668 822.248, 372.591 814.990 C 375.705 811.725, 379.137 808.774, 380.219 808.431 C 381.904 807.896, 381.492 807.334, 377.343 804.504 C 363.025 794.740, 355.270 781.121, 351.429 759 C 349.592 748.417, 349.880 731.519, 352.495 696.500 C 355.441 657.052, 356.434 620.882, 355.198 598 C 352.098 540.602, 343.506 505.973, 320.977 460.075 C 310.837 439.419, 293.695 410.019, 297.464 419.750 M 500.243 427.850 C 496.142 429.031, 491.212 433.868, 488.539 439.330 C 483.797 449.023, 485.224 462.447, 491.718 469.227 C 496.842 474.576, 503.235 474.817, 510.112 469.920 C 513.067 467.816, 513.175 467.805, 512.154 469.712 C 510.872 472.108, 504.339 478, 502.965 478 C 502.434 478, 502 478.456, 502 479.013 C 502 480.850, 509.409 477.070, 512.703 473.553 C 521.246 464.429, 521.815 440.858, 513.702 432.169 C 509.487 427.654, 505.435 426.354, 500.243 427.850 M 693.020 428.752 C 685.845 432.356, 682.488 440.929, 683.268 453.656 C 684.139 467.891, 691.202 479, 699.380 479 C 702.248 479, 702.219 478.949, 698.103 476.750 C 695.787 475.512, 692.928 472.925, 691.748 471 L 689.604 467.500 691.736 469.345 C 697.048 473.943, 705.641 474.405, 710.215 470.339 C 713.671 467.266, 716.979 459.011, 716.990 453.432 C 717.013 441.839, 710.254 430.276, 702.137 428.021 C 697.347 426.691, 697.079 426.712, 693.020 428.752 M 388.412 432.369 C 388.123 433.122, 388.024 436.156, 388.193 439.110 C 388.425 443.174, 388.906 444.558, 390.167 444.798 C 391.461 445.044, 392.095 443.858, 393.001 439.496 C 393.642 436.406, 393.919 433.230, 393.615 432.439 C 392.913 430.609, 389.107 430.558, 388.412 432.369 M 375.683 444.188 C 372.085 449.946, 373.013 457.421, 377.252 456.819 C 379.335 456.523, 379.500 455.993, 379.500 449.583 C 379.500 442.098, 378.166 440.213, 375.683 444.188 M 381.449 456.468 C 378.429 463.695, 380.558 474.272, 384.392 471.090 C 386.708 469.167, 386.759 453, 384.449 453 C 383.596 453, 382.246 454.561, 381.449 456.468 M 373.397 466.188 C 371.322 470.185, 370.397 482.434, 371.881 486.250 C 372.547 487.964, 373.697 489, 374.930 489 C 377.397 489, 378.039 485.964, 378.305 473.031 C 378.474 464.842, 378.271 463.515, 376.808 463.219 C 375.714 462.997, 374.508 464.046, 373.397 466.188 M 381.667 486.667 C 381.300 487.033, 381 489.422, 381 491.976 C 381 496.858, 382.939 500.774, 384.791 499.629 C 386.200 498.758, 387.397 490.827, 386.531 488.099 C 385.894 486.092, 383.072 485.261, 381.667 486.667 M 388.395 495.560 C 387.571 498.846, 388.480 505.668, 389.983 507.480 C 390.623 508.251, 391.788 508.635, 392.573 508.334 C 394.255 507.688, 394.542 499.557, 393.025 495.565 C 391.771 492.267, 389.223 492.264, 388.395 495.560 M 373.571 496.571 C 369.177 500.965, 374.435 522.690, 380.159 523.792 C 382.729 524.287, 382.841 522.184, 380.938 509.100 C 378.937 495.346, 377.404 492.739, 373.571 496.571 M 386.153 518.247 C 385.519 518.881, 385 520.610, 385 522.089 C 385 527.483, 392.132 532.096, 392.832 527.155 C 393.560 522.010, 388.774 515.626, 386.153 518.247 M 390 541.352 C 390 544.530, 393.956 550.202, 397.291 551.807 C 403.445 554.766, 403.662 549.399, 397.632 543.368 C 392.719 538.455, 390 537.737, 390 541.352 M 407 550.379 C 407 552.068, 407.852 553.110, 409.940 553.975 C 411.556 554.645, 413.356 554.898, 413.940 554.537 C 415.871 553.344, 415.040 550.339, 412.453 549.161 C 408.543 547.379, 407 547.724, 407 550.379 M 171.667 578.667 C 170.833 579.500, 170.792 586.294, 171.607 588.418 C 171.941 589.288, 173.066 590, 174.107 590 C 175.754 590, 176 589.220, 176 584 C 176 578.848, 175.741 578, 174.167 578 C 173.158 578, 172.033 578.300, 171.667 578.667 M 180.667 601.667 C 179.695 602.638, 179.880 610.262, 180.914 611.896 C 182.444 614.311, 185.001 612.355, 184.986 608.781 C 184.960 602.444, 183.044 599.289, 180.667 601.667 M 521.656 613.147 C 520.864 625.566, 518.929 634.232, 515.391 641.216 C 513.367 645.209, 502.179 656.932, 466.498 692.447 C 441.051 717.776, 416.645 742.885, 412.263 748.244 C 405.497 756.517, 403.977 759.082, 402.188 765.244 C 399.561 774.286, 396.502 790.529, 395.076 803 C 393.145 819.894, 391.938 859.061, 393.071 868.092 C 395.980 891.292, 405.235 902.238, 433.107 915.441 C 449.056 922.996, 485.897 934, 495.243 934 C 498.476 934, 499.133 934.267, 498.200 935.200 C 497.540 935.860, 497 937.435, 497 938.700 C 497 940.884, 497.365 941.002, 504.250 941.046 C 508.238 941.071, 515.100 941.251, 519.500 941.445 C 540.734 942.380, 631.310 943.171, 643.354 942.526 C 656.122 941.842, 657 941.666, 657 939.782 C 657 934.597, 643.424 921.391, 633.279 916.707 C 628.892 914.681, 626.972 914.500, 609.854 914.500 C 593.491 914.500, 590.972 914.714, 589.273 916.252 C 585.899 919.307, 586.031 917.039, 589.687 909.153 C 602.257 882.038, 605.630 874.148, 610.434 860.627 C 615.544 846.247, 621.539 826.062, 620.830 825.622 C 620.649 825.509, 617.125 824.399, 613 823.155 C 602.995 820.138, 598.792 818.363, 590.696 813.737 C 582.169 808.864, 575.755 802.474, 564.239 787.379 C 554.372 774.446, 550.759 770.506, 540.684 761.694 L 534.047 755.887 526.542 756.931 C 519.711 757.881, 504.838 760.960, 499.250 762.581 C 498.012 762.940, 497 762.802, 497 762.274 C 497 761.451, 503.696 759.154, 518 755.069 C 520.758 754.281, 519.858 754.193, 513.750 754.652 C 508.359 755.058, 506 754.895, 506 754.117 C 506 753.503, 506.337 752.997, 506.750 752.992 C 507.163 752.988, 510.386 752.517, 513.913 751.944 C 518.254 751.240, 521.836 751.228, 525.005 751.908 C 527.579 752.460, 530.895 752.588, 532.374 752.192 L 535.062 751.473 532.459 747.987 C 526.009 739.350, 527.729 738.441, 536.213 746.002 C 540.255 749.605, 542.339 750.823, 543.663 750.355 C 545.095 749.849, 545.246 749.981, 544.348 750.955 C 543.456 751.922, 545.441 754.813, 553.124 763.743 C 558.585 770.089, 566.922 780.407, 571.651 786.672 C 581.960 800.329, 588.808 806.651, 598.929 811.859 C 606.520 815.764, 630.465 825.223, 641.263 828.581 C 649.611 831.178, 646.897 832.201, 637.500 830 C 633.100 828.970, 629.222 828.435, 628.883 828.813 C 628.543 829.191, 627.262 833.325, 626.035 838 C 623.416 847.984, 614.119 873.500, 609.457 883.500 C 607.662 887.350, 604.172 893.875, 601.701 898 C 599.230 902.125, 597.306 905.608, 597.426 905.739 C 597.948 906.310, 605.901 902.650, 605.511 902.018 C 605.273 901.633, 611.647 892.584, 619.676 881.909 C 634.533 862.155, 638.481 855.297, 643.660 840.250 C 645.222 835.713, 646.950 832.005, 647.500 832.010 C 649.676 832.031, 671.929 839.738, 671.384 840.283 C 671.064 840.603, 671.645 840.644, 672.676 840.374 C 674.612 839.868, 686.316 843.884, 696.065 848.399 C 702.343 851.307, 704.289 853.162, 709.286 861 C 718.359 875.230, 726.214 876.541, 733.475 865.039 C 736.984 859.481, 740 848.623, 740 841.550 C 740 835.962, 739.574 834.641, 735.917 828.905 C 731.773 822.403, 711.029 801.335, 700.564 793 C 690.567 785.038, 665.630 763.344, 661.314 758.854 C 656.473 753.818, 646.960 737.666, 632.542 710 C 626.952 699.275, 617.038 681.950, 610.510 671.500 C 591.895 641.700, 582.105 623.973, 577.513 611.750 L 575.728 607 570.114 606.987 C 563.926 606.973, 532.455 604.416, 526.241 603.423 L 522.316 602.795 521.656 613.147 M 173.511 613.967 C 172.900 615.889, 174.381 626.189, 175.536 628.058 C 175.856 628.576, 176.766 629, 177.559 629 C 179.420 629, 179.633 615.033, 177.800 613.200 C 176.020 611.420, 174.216 611.743, 173.511 613.967 M 186.667 627.667 C 185.123 629.211, 186.025 636.712, 187.965 638.468 C 189.862 640.185, 189.969 640.162, 191.049 637.792 C 193.153 633.173, 189.531 624.803, 186.667 627.667 M 177.505 640.983 C 176.725 643.443, 179.593 655.010, 181.445 656.868 C 182.195 657.621, 183.360 657.895, 184.036 657.478 C 185.438 656.612, 184.812 646.266, 183.083 641.717 C 181.858 638.495, 178.438 638.045, 177.505 640.983 M 199 643.418 C 199 648.131, 199.882 650, 202.107 650 C 204.254 650, 204.646 646.829, 203.025 642.565 C 201.558 638.707, 199 639.250, 199 643.418 M 190.066 651.327 C 188.364 655.803, 192.156 666, 195.523 666 C 197.293 666, 197.315 665.473, 195.894 657.310 C 195.117 652.849, 194.220 650.653, 192.884 649.938 C 191.315 649.098, 190.821 649.342, 190.066 651.327 M 343.436 663.398 C 342.541 666.964, 343.301 670.500, 344.963 670.500 C 346.642 670.500, 348.551 664.878, 347.660 662.556 C 346.748 660.178, 344.112 660.704, 343.436 663.398 M 183.953 668.623 C 182.334 672.883, 184.775 682.046, 189.182 688.250 C 191.125 690.985, 194.333 691.888, 195.485 690.024 C 195.817 689.488, 194.645 684.497, 192.881 678.933 C 188.813 666.101, 186.102 662.971, 183.953 668.623 M 197.422 679.454 C 196.706 682.306, 200.397 694.254, 202.544 696.036 C 204.742 697.861, 207 696.418, 207 693.188 C 207 689.501, 203.349 678.840, 201.735 677.815 C 199.511 676.402, 198.049 676.958, 197.422 679.454 M 341.449 681.468 C 339.061 687.182, 339.710 695, 342.572 695 C 345.451 695, 347.828 685.309, 346.078 680.705 C 344.690 677.055, 343.190 677.302, 341.449 681.468 M 332.067 692.874 C 330.376 696.035, 330.712 703.952, 332.567 704.664 C 335.128 705.647, 336.251 703.491, 336.379 697.352 C 336.477 692.668, 336.179 691.497, 334.817 691.221 C 333.892 691.033, 332.655 691.777, 332.067 692.874 M 195.359 699.508 C 193.084 705.435, 205.135 727.889, 209.232 725.357 C 211.051 724.233, 209.272 717.306, 204.671 707.593 C 201.059 699.968, 199.697 698, 198.032 698 C 196.880 698, 195.677 698.678, 195.359 699.508 M 216.485 706.024 C 215.512 707.599, 216.915 712.622, 219.106 715.408 C 223.328 720.775, 225.853 714.552, 222.011 708.250 C 220.039 705.016, 217.692 704.071, 216.485 706.024 M 336.980 712.074 C 335.628 717.094, 336.839 721.500, 339.570 721.500 C 341.112 721.500, 341.621 720.465, 342.259 716.032 C 343.189 709.576, 342.759 708, 340.070 708 C 338.585 708, 337.797 709.039, 336.980 712.074 M 214.347 717.538 C 213.582 719.530, 216.461 727.045, 219.057 729.831 C 223.507 734.608, 225.231 730.901, 221.886 723.749 C 218.430 716.360, 215.671 714.087, 214.347 717.538 M 327.667 716.667 C 325.696 718.638, 327.927 728, 330.368 728 C 332.238 728, 333 725.806, 333 720.418 C 333 716.456, 332.759 716, 330.667 716 C 329.383 716, 328.033 716.300, 327.667 716.667 M 337.200 734.200 C 335.656 735.744, 335.644 746.124, 337.181 749.499 C 337.992 751.278, 339.012 751.999, 340.431 751.796 C 342.248 751.536, 342.536 750.698, 342.792 744.925 C 343.223 735.208, 340.813 730.587, 337.200 734.200 M 215.527 734.956 C 213.853 737.665, 220.566 747, 224.189 747 C 227.133 747, 226.344 743.256, 222.380 738.418 C 218.843 734.102, 216.718 733.029, 215.527 734.956 M 321.406 743.652 C 320.673 747.559, 321.784 752.099, 323.623 752.709 C 325.025 753.174, 325.969 749.796, 325.986 744.250 C 325.998 740.695, 325.680 740, 324.045 740 C 322.588 740, 321.916 740.929, 321.406 743.652 M 328.975 750.047 C 327.439 752.916, 328.248 761.645, 330.442 765.887 C 332.231 769.348, 333.735 769.855, 334.705 767.325 C 335.692 764.754, 333.397 750.969, 331.700 749.272 C 330.360 747.932, 330.061 748.017, 328.975 750.047 M 556.344 760.546 C 555.585 762.524, 561.239 768.588, 562.890 767.568 C 564.369 766.654, 561.671 761.429, 558.975 759.987 C 557.383 759.135, 556.841 759.250, 556.344 760.546 M 339.709 760.624 C 339.319 761.014, 339 763.413, 339 765.955 C 339 771.926, 342.627 779.376, 345.750 779.820 C 347.631 780.087, 347.996 779.677, 347.977 777.320 C 347.965 775.769, 347.150 771.350, 346.168 767.500 C 344.773 762.033, 343.948 760.436, 342.400 760.208 C 341.310 760.047, 340.099 760.235, 339.709 760.624 M 567 764.429 C 567 766.030, 569.645 769, 571.071 769 C 572.293 769, 572.249 767.334, 570.965 764.934 C 569.762 762.686, 567 762.334, 567 764.429 M 567 775.497 C 567 778.552, 573.465 786, 576.116 786 C 579.494 786, 578.444 781.209, 574.118 776.882 C 569.579 772.344, 567 771.842, 567 775.497 M 578.354 776.520 C 577.101 779.785, 585.206 788.227, 587.959 786.525 C 589.271 785.714, 587.410 782.294, 583.183 777.750 C 580.276 774.623, 579.188 774.347, 578.354 776.520 M 349.465 788.057 C 347.598 791.078, 352.743 799, 356.573 799 C 360.277 799, 359.308 795.237, 354.191 789.750 C 351.407 786.765, 350.470 786.430, 349.465 788.057 M 582.494 790.009 C 580.830 792.703, 586.543 800.622, 592.340 803.658 C 595.155 805.131, 598 804.887, 598 803.172 C 598 801.622, 591.637 794.178, 588.056 791.538 C 584.262 788.742, 583.420 788.511, 582.494 790.009 M 598 797.845 C 598 800.188, 600.713 802.655, 604.891 804.112 C 611.393 806.379, 611.415 801.272, 604.917 797.957 C 600.115 795.508, 598 795.473, 598 797.845 M 606.558 807.906 C 605.449 809.700, 607.244 811.940, 611.405 813.954 C 617.034 816.679, 621 816.683, 621 813.964 C 621 812.520, 619.766 811.404, 616.750 810.122 C 610.860 807.618, 607.224 806.828, 606.558 807.906 M 625.180 811.230 C 625.584 814.043, 630.398 816.012, 632.255 814.124 C 633.251 813.111, 633.028 812.472, 631.139 810.929 C 627.812 808.210, 624.770 808.364, 625.180 811.230 M 378.222 815.750 C 371.890 823.338, 366.330 832.567, 364.083 839.221 C 361.611 846.540, 361.573 847, 363.429 847 C 364.307 847, 365.498 844.799, 366.517 841.293 C 368.611 834.089, 371.948 827.463, 378.118 818.250 C 380.789 814.263, 382.797 811, 382.580 811 C 382.364 811, 380.402 813.138, 378.222 815.750 M 421 863.489 C 421 874.221, 422.579 879.621, 428.038 887.555 C 435.763 898.783, 444.405 905.673, 461.515 914.245 C 484.143 925.582, 511.075 931.239, 533.909 929.453 C 543.443 928.707, 546.438 927, 538.212 927 C 530.852 927, 511.170 924.351, 501.335 922.036 C 486.863 918.631, 477.237 915.172, 463.500 908.442 C 437.899 895.900, 424.919 880.361, 423.246 860.250 C 422.453 850.711, 421 852.806, 421 863.489 M 430.688 855.646 C 429.174 857.159, 430.037 861.950, 432.015 863.008 C 434.544 864.362, 435.332 862.753, 434.191 858.565 C 433.380 855.592, 431.941 854.392, 430.688 855.646 M 439.667 868.667 C 438.376 869.957, 439.022 873.022, 441 875 C 445.245 879.245, 447.851 875.755, 444.385 870.465 C 442.798 868.043, 440.982 867.351, 439.667 868.667 M 430.667 870.667 C 429.165 872.168, 430.190 875.236, 433.339 878.673 C 438.764 884.592, 441.213 880.721, 436.464 873.732 C 434.058 870.192, 432.150 869.183, 430.667 870.667 M 456.315 880.621 C 455.617 882.441, 459.120 886, 461.611 886 C 464.233 886, 463.078 882.092, 459.982 880.491 C 457.207 879.056, 456.912 879.066, 456.315 880.621 M 442.336 887.567 C 440.476 892.415, 454.063 902.448, 459.606 900.321 C 462.363 899.263, 460.522 896.534, 453.488 891.250 C 446.264 885.823, 443.372 884.868, 442.336 887.567 M 460.180 892.223 C 460.586 895.045, 467.330 898.961, 471.823 898.984 C 476.711 899.008, 475.629 896.131, 469.488 892.773 C 463.157 889.313, 459.733 889.110, 460.180 892.223 M 466.180 903.250 C 466.412 904.879, 468.268 906.397, 472.905 908.750 C 482.428 913.582, 490.938 912.874, 485.247 907.723 C 482.270 905.029, 472.675 901.020, 469.180 901.010 C 466.308 901.001, 465.904 901.303, 466.180 903.250 M 488.357 904.513 C 487.310 907.241, 489.961 909, 495.122 909 C 499.191 909, 500 908.695, 500 907.161 C 500 903.628, 489.603 901.264, 488.357 904.513 M 494.667 912.667 C 493.232 914.101, 494.179 915.191, 498.532 917.117 C 503.922 919.502, 509.329 919.317, 509.819 916.731 C 510.052 915.498, 509.080 914.513, 506.609 913.481 C 502.973 911.962, 495.857 911.476, 494.667 912.667 M 513.542 914.932 C 512.624 916.417, 517.145 919, 520.663 919 C 524.367 919, 525.709 917.559, 523.964 915.456 C 522.617 913.834, 514.474 913.424, 513.542 914.932" stroke="none" fill="#c97c5d" fill-rule="evenodd"/><path d="M 348.765 138.934 C 336.325 146.823, 330.256 177.413, 332.821 219.297 C 335.515 263.296, 349.258 332.304, 366.046 386.130 C 370.267 399.664, 372.099 402.834, 375.935 403.242 C 377.885 403.449, 378.534 402.903, 379.195 400.500 C 398.666 329.749, 405.841 308.895, 416.785 291.249 L 421.767 283.217 416.133 285.831 C 411.970 287.762, 408.848 288.451, 404.168 288.472 C 398.264 288.498, 397.639 288.279, 394.918 285.234 C 390.838 280.668, 390.948 276.109, 395.250 271.456 C 398.189 268.279, 399.769 267.634, 411.752 264.721 L 425.004 261.500 419.836 257.051 C 416.994 254.605, 412.045 251.363, 408.839 249.846 C 405.633 248.330, 400.871 245.104, 398.255 242.676 C 391.264 236.187, 387.636 234.593, 379.751 234.543 C 376.039 234.519, 373.002 234.180, 373.001 233.789 C 373.001 233.397, 374.807 232.591, 377.015 231.996 C 380.623 231.024, 385.170 231.256, 390.312 232.674 C 391.895 233.111, 392.040 232.729, 391.461 229.642 C 390.902 226.663, 391.213 225.696, 393.455 223.455 C 395.725 221.184, 396.647 220.896, 399.805 221.474 C 401.837 221.845, 405.525 223.267, 408 224.633 C 411.803 226.732, 410.628 225.288, 400.408 215.308 C 386.814 202.034, 376.625 194.227, 361.695 185.648 C 350.285 179.091, 350.457 179.210, 351.219 178.448 C 352.160 177.507, 368.996 184.755, 379.500 190.623 C 385 193.695, 393.325 199.053, 398 202.529 C 406.388 208.764, 423.025 225.004, 428.398 232.199 C 431.573 236.451, 434.187 237.469, 446.109 239.092 C 455.652 240.391, 457.016 240.234, 483.205 234.834 C 495.478 232.303, 498.681 231.321, 497.865 230.337 C 496.004 228.094, 446.083 192.491, 409.500 167.314 C 361.308 134.149, 358.430 132.804, 348.765 138.934 M 839.154 137.144 C 832.736 138.991, 806.333 156.576, 748.500 197.522 C 711.570 223.669, 711 224.086, 711 224.958 C 711 225.382, 713.032 226.007, 715.516 226.347 C 719.146 226.845, 721.504 226.382, 727.524 223.990 C 745.194 216.971, 759.443 208.424, 767.500 200.012 C 772.402 194.893, 775.857 193, 780.295 193 C 787.110 193, 788.903 199.418, 784.625 208.500 C 780.171 217.957, 770.683 226.553, 757 233.526 L 751.500 236.329 759.078 237.627 C 779.155 241.064, 790 246.935, 790 254.368 C 790 259.887, 787.295 262, 780.228 262 C 777.054 262, 771.473 261.173, 767.826 260.161 L 761.196 258.323 766.282 264.411 C 773.626 273.204, 783.933 289.367, 789.756 301.224 C 797.060 316.096, 813.213 363.068, 822.088 395.245 C 823.415 400.055, 824.858 403.992, 825.295 403.995 C 827.606 404.010, 831.054 398.337, 833.839 389.942 C 841.845 365.800, 854.947 312.028, 860.993 278.500 C 874.108 205.756, 870.585 150.572, 852.076 138.833 C 847.415 135.877, 844.759 135.530, 839.154 137.144 M 430.460 257.491 C 432.529 259.113, 434.180 259.106, 434.106 257.475 C 434.082 256.939, 432.811 256.377, 431.281 256.227 C 428.607 255.965, 428.576 256.014, 430.460 257.491 M 163.306 272.142 C 165.077 279.389, 171.239 313.486, 172.948 325.500 C 178.214 362.516, 180.173 401.181, 178.143 428 C 175.839 458.443, 181.074 486.016, 188.700 483.595 C 192.594 482.359, 196.571 469.627, 198.509 452.189 C 198.895 448.717, 199.355 446.021, 199.531 446.198 C 199.707 446.374, 200.797 452.337, 201.953 459.450 C 207.106 491.153, 214.722 509, 223.098 509 C 228.758 509, 231.841 498.461, 232.733 476.062 L 233.308 461.624 237.171 469.990 C 243.670 484.066, 247.857 488.025, 250.134 482.250 C 251.341 479.188, 250.656 458.127, 248.973 446.600 C 247.850 438.907, 248.380 436.903, 250.167 442.088 C 252.944 450.144, 265.348 473.281, 268.882 476.996 C 273.209 481.545, 274.460 481.877, 276.054 478.900 C 278.344 474.620, 276.762 447.078, 273.100 427.501 C 272.586 424.751, 272.353 422.314, 272.583 422.084 C 273.086 421.581, 272.591 420.971, 278.584 429.484 C 281.288 433.324, 286.693 439.777, 290.594 443.823 C 296.169 449.604, 298.204 451.107, 300.094 450.840 C 302.390 450.516, 302.494 450.179, 302.360 443.500 C 302.261 438.517, 301.221 433.437, 298.755 425.872 C 295.775 416.735, 293.932 413.249, 285.615 401.014 C 246.674 343.733, 192.869 285.699, 165.115 271.044 C 162.878 269.863, 162.765 269.932, 163.306 272.142 M 630.769 444.571 C 631.866 450.311, 607.739 469, 599.231 469 C 594.331 469, 576.425 457.046, 571.342 450.382 C 569.992 448.612, 568.818 446.227, 568.731 445.082 C 568.541 442.553, 569.061 442.556, 560.151 445.025 C 549.379 448.011, 541.963 452.135, 536.556 458.148 C 518.147 478.624, 496.677 536.260, 495.263 569 C 494.640 583.425, 495.793 588.190, 501.085 593.078 C 508.126 599.580, 513.836 601.573, 530.500 603.348 C 569.997 607.556, 623.692 608.690, 655.500 605.988 C 664.850 605.194, 674.188 604.534, 676.250 604.522 C 678.313 604.510, 680 604.230, 680 603.901 C 680 603.571, 682.670 602.241, 685.933 600.944 C 694.823 597.413, 699.209 594.069, 701.810 588.838 C 711.150 570.051, 692.856 499.835, 669.364 464.305 C 660.588 451.031, 654.865 447.392, 636.919 443.677 L 630.338 442.315 630.769 444.571 M 673 625.136 C 659.758 628.721, 659.444 628.844, 660.612 630.012 C 661.207 630.607, 665.445 629.863, 672.029 628.008 C 677.788 626.386, 683.175 625.064, 684 625.071 C 685.811 625.087, 675.659 629.375, 668.369 631.673 L 663.132 633.324 667.428 638.912 C 674.371 647.942, 680.056 660.294, 683.479 673.786 C 685.999 683.718, 683.899 684.873, 678.543 676.500 C 676.608 673.475, 674.818 671, 674.566 671 C 674.314 671, 674.981 673.537, 676.047 676.638 C 681.536 692.590, 683.626 725.303, 679.250 726.753 C 678.301 727.067, 678 724.539, 678 716.260 C 678 698.823, 674.725 683.644, 666.463 662.786 C 665.435 660.193, 664.959 657.718, 665.404 657.286 C 665.849 656.854, 668.668 659.192, 671.670 662.482 C 675.229 666.383, 676.795 667.600, 676.172 665.982 C 673.700 659.551, 669.821 651.547, 666.164 645.327 C 659.325 633.698, 661.093 634.438, 648.474 637.926 C 635.669 641.466, 621.673 644.007, 615.119 643.983 C 611.137 643.968, 607.246 643.279, 594.076 640.257 L 591.652 639.700 594.013 643.600 C 595.312 645.745, 602.767 657.850, 610.580 670.500 C 618.393 683.150, 628.346 700.475, 632.698 709 C 645.609 734.292, 656.079 751.927, 662 758.350 C 665.025 761.632, 673.635 769.625, 681.134 776.112 L 694.768 787.906 697.842 776.203 C 699.533 769.766, 701.948 759.325, 703.208 753 C 704.469 746.675, 705.772 741.372, 706.105 741.215 C 706.437 741.058, 706.507 739.874, 706.260 738.582 C 706.014 737.291, 706.284 735.942, 706.862 735.585 C 707.440 735.228, 707.659 734.275, 707.349 733.468 C 707.040 732.661, 707.096 731.212, 707.474 730.250 C 707.853 729.288, 708.364 725.398, 708.611 721.606 C 708.858 717.814, 709.329 714.277, 709.657 713.746 C 709.985 713.215, 710.171 708.343, 710.070 702.918 C 709.844 690.753, 706.825 677.712, 700.053 659.643 C 694.986 646.126, 685.423 623.969, 684.192 622.897 C 683.812 622.565, 678.775 623.572, 673 625.136 M 587.312 631.343 C 588.309 632.844, 591.712 634.272, 599.106 636.292 C 608.324 638.809, 610.632 639.071, 619.500 638.601 C 634.389 637.812, 659.057 632.657, 657.135 630.735 C 656.482 630.082, 652.266 630.468, 644.734 631.872 C 623.248 635.876, 613.965 635.724, 593.706 631.037 L 585.911 629.234 587.312 631.343 M 643.946 841.382 C 638.877 855.673, 634.978 862.559, 622.884 878.583 C 616.691 886.787, 610.471 895.065, 609.062 896.978 L 606.500 900.456 609.830 898.376 C 616.428 894.255, 634.555 879.300, 644.778 869.544 C 655.137 859.658, 671.430 841.097, 670.535 840.202 C 670.278 839.945, 664.918 838.053, 658.624 835.999 L 647.179 832.263 643.946 841.382" stroke="none" fill="#eed7c5" fill-rule="evenodd"/><path d="M 845.500 106.956 C 833.662 109.898, 814 124.299, 814 130.028 C 814 131.301, 814.994 132.427, 816.686 133.071 C 820.615 134.565, 829.611 129.794, 839.435 121.006 L 847.371 113.908 849.996 121.987 C 854.383 135.491, 859.427 137.779, 861.500 127.206 L 862.500 122.106 865.914 133.803 C 870.198 148.479, 874.630 157.703, 876.500 155.833 C 877.241 155.092, 873.198 134.106, 871.098 127.794 C 865.900 112.174, 856.217 104.292, 845.500 106.956 M 344.354 107.993 C 340.700 109.467, 334.854 116.077, 332.332 121.587 C 328.221 130.567, 324.226 148.760, 324.907 155.405 C 324.958 155.903, 325.901 155.495, 327.002 154.498 C 328.194 153.419, 331.130 146.169, 334.252 136.593 L 339.500 120.500 340.009 126.209 C 340.288 129.348, 341.030 132.430, 341.658 133.058 C 344.847 136.247, 349.390 130.159, 351.962 119.250 C 352.643 116.362, 353.420 114, 353.690 114 C 353.960 114, 357.628 117.177, 361.841 121.059 C 371.235 129.717, 380.338 134.583, 384.314 133.071 C 388.141 131.616, 387.722 128.739, 382.925 123.534 C 378.375 118.598, 366.429 110.768, 359.973 108.490 C 355.366 106.865, 347.750 106.622, 344.354 107.993 M 494.885 383.380 C 486.463 386.389, 481.643 392.804, 485.619 395.711 C 487.958 397.421, 495.528 397.347, 501.477 395.557 C 509.941 393.010, 514.979 385.665, 510.066 383.035 C 507.427 381.623, 499.284 381.808, 494.885 383.380 M 696 383.824 C 693.620 385.780, 693.574 386.014, 695.038 388.689 C 697.271 392.772, 703.752 395.959, 711.245 396.658 C 718.248 397.312, 722 396.102, 722 393.187 C 722 388.067, 713.908 383.002, 704.529 382.252 C 699.477 381.848, 698.095 382.102, 696 383.824 M 498.468 428.950 C 497.351 429.403, 494.782 431.606, 492.758 433.846 C 480.805 447.077, 486.135 472.980, 500.816 472.996 C 504.838 473.001, 507.431 471.745, 511.897 467.630 L 515.293 464.500 512.949 468.774 C 510.282 473.636, 508.744 475.210, 504.498 477.425 C 502.849 478.284, 502.175 478.983, 503 478.977 C 506.998 478.950, 512.518 474.339, 515.477 468.553 C 518.303 463.029, 518.500 461.923, 518.500 451.572 C 518.500 441.947, 518.201 439.939, 516.210 436.211 C 512.523 429.307, 505.091 426.266, 498.468 428.950 M 689.970 431.795 C 684.421 437.344, 682.457 444.772, 683.786 455.186 C 685.465 468.339, 690.969 477.052, 698.500 478.478 C 701.390 479.025, 701.408 479.006, 699.001 477.963 C 695.327 476.371, 692.070 473.025, 689.790 468.500 L 687.774 464.500 691.137 467.630 C 698.147 474.154, 703.832 474.843, 709.512 469.855 C 717.808 462.572, 718.998 448.036, 712.202 437.019 C 708.470 430.968, 703.872 428, 698.234 428 C 694.393 428, 693.231 428.534, 689.970 431.795 M 587.500 437.140 C 579.125 438.201, 571.628 440.539, 569.891 442.632 C 565.713 447.665, 589.914 468, 600.082 468 C 607.668 468, 630.587 450.185, 629.836 444.873 C 629.337 441.351, 622.259 438.337, 611.500 437.068 C 601.319 435.866, 597.461 435.878, 587.500 437.140 M 604 903.500 C 601.753 904.784, 603.119 904.933, 617.500 904.969 C 626.300 904.990, 639.350 905.289, 646.500 905.632 C 656.288 906.102, 659.235 905.971, 658.426 905.104 C 657.764 904.394, 650.477 903.587, 639.426 903 C 614.650 901.684, 606.988 901.792, 604 903.500 M 402.500 907.143 C 341.122 913.104, 307.589 919.592, 290.671 928.781 C 273.767 937.962, 286.746 948.419, 325 956.439 C 352.960 962.302, 415.370 968.379, 458 969.390 C 478.820 969.884, 476.926 969.546, 450 967.960 C 372.655 963.406, 312.556 953.951, 292.680 943.210 C 283.536 938.270, 284.301 934.579, 295.543 929.385 C 303.875 925.535, 316.862 922.210, 338 918.515 C 353.524 915.801, 390.100 911.508, 406.500 910.475 C 418.961 909.690, 420.176 909.355, 417.559 907.429 C 415.443 905.872, 415.572 905.874, 402.500 907.143 M 592.972 911.036 C 589.617 915.272, 589.606 915.316, 592.111 914.687 C 598.104 913.183, 619.704 912.729, 625.070 913.995 C 632.972 915.859, 640.920 920.160, 647.391 926.074 C 653.215 931.397, 658.603 939.216, 657.583 940.866 C 656.350 942.861, 638.050 943.199, 569.904 942.485 C 493.054 941.679, 493.966 941.753, 497.329 936.621 L 499.046 934 494.440 934 C 485.517 934, 452.108 924.299, 435.636 916.925 C 422.965 911.252, 423.088 911.263, 398.306 913.552 C 346.774 918.310, 308.993 926.538, 305.077 933.856 C 298.142 946.813, 370.083 958.799, 480.500 963.081 C 496.450 963.700, 532.675 964.206, 561 964.206 C 629.563 964.206, 677.177 962.293, 728.500 957.478 C 787.415 951.950, 824.028 941.969, 816.900 933.379 C 811.152 926.453, 779.138 919.188, 733.778 914.516 C 713.165 912.393, 714.317 912.239, 717.699 916.672 C 721.431 921.564, 721.635 928.258, 718.139 931.088 C 716 932.821, 713.996 933, 696.790 933 L 677.802 933 674.928 929.922 C 673.346 928.230, 669.543 922.886, 666.476 918.048 L 660.899 909.251 645.200 908.633 C 636.565 908.292, 622.045 907.729, 612.934 907.381 L 596.367 906.749 592.972 911.036 M 710 908.076 C 710 908.848, 714.334 909.398, 733.663 911.080 C 740.902 911.709, 747.427 912.023, 748.163 911.777 C 748.898 911.531, 743.650 910.749, 736.500 910.039 C 729.350 909.330, 720.462 908.442, 716.750 908.066 C 713.038 907.690, 710 907.694, 710 908.076 M 485.280 970.736 C 487.909 970.943, 491.959 970.940, 494.280 970.731 C 496.601 970.521, 494.450 970.352, 489.500 970.355 C 484.550 970.358, 482.651 970.530, 485.280 970.736" stroke="none" fill="#42424c" fill-rule="evenodd"/><path d="M 845.500 106.956 C 833.662 109.898, 814 124.299, 814 130.028 C 814 131.301, 814.994 132.427, 816.686 133.071 C 820.615 134.565, 829.611 129.794, 839.435 121.006 L 847.371 113.908 849.996 121.987 C 854.383 135.491, 859.427 137.779, 861.500 127.206 L 862.500 122.106 865.914 133.803 C 870.198 148.479, 874.630 157.703, 876.500 155.833 C 877.241 155.092, 873.198 134.106, 871.098 127.794 C 865.900 112.174, 856.217 104.292, 845.500 106.956 M 344.354 107.993 C 340.700 109.467, 334.854 116.077, 332.332 121.587 C 328.221 130.567, 324.226 148.760, 324.907 155.405 C 324.958 155.903, 325.901 155.495, 327.002 154.498 C 328.194 153.419, 331.130 146.169, 334.252 136.593 L 339.500 120.500 340.009 126.209 C 340.288 129.348, 341.030 132.430, 341.658 133.058 C 344.847 136.247, 349.390 130.159, 351.962 119.250 C 352.643 116.362, 353.420 114, 353.690 114 C 353.960 114, 357.628 117.177, 361.841 121.059 C 371.235 129.717, 380.338 134.583, 384.314 133.071 C 388.141 131.616, 387.722 128.739, 382.925 123.534 C 378.375 118.598, 366.429 110.768, 359.973 108.490 C 355.366 106.865, 347.750 106.622, 344.354 107.993 M 494.885 383.380 C 486.463 386.389, 481.643 392.804, 485.619 395.711 C 487.958 397.421, 495.528 397.347, 501.477 395.557 C 509.941 393.010, 514.979 385.665, 510.066 383.035 C 507.427 381.623, 499.284 381.808, 494.885 383.380 M 696 383.824 C 693.620 385.780, 693.574 386.014, 695.038 388.689 C 697.271 392.772, 703.752 395.959, 711.245 396.658 C 718.248 397.312, 722 396.102, 722 393.187 C 722 388.067, 713.908 383.002, 704.529 382.252 C 699.477 381.848, 698.095 382.102, 696 383.824 M 498.468 428.950 C 497.351 429.403, 494.782 431.606, 492.758 433.846 C 480.805 447.077, 486.135 472.980, 500.816 472.996 C 504.838 473.001, 507.431 471.745, 511.897 467.630 L 515.293 464.500 512.949 468.774 C 510.282 473.636, 508.744 475.210, 504.498 477.425 C 502.849 478.284, 502.175 478.983, 503 478.977 C 506.998 478.950, 512.518 474.339, 515.477 468.553 C 518.303 463.029, 518.500 461.923, 518.500 451.572 C 518.500 441.947, 518.201 439.939, 516.210 436.211 C 512.523 429.307, 505.091 426.266, 498.468 428.950 M 689.970 431.795 C 684.421 437.344, 682.457 444.772, 683.786 455.186 C 685.465 468.339, 690.969 477.052, 698.500 478.478 C 701.390 479.025, 701.408 479.006, 699.001 477.963 C 695.327 476.371, 692.070 473.025, 689.790 468.500 L 687.774 464.500 691.137 467.630 C 698.147 474.154, 703.832 474.843, 709.512 469.855 C 717.808 462.572, 718.998 448.036, 712.202 437.019 C 708.470 430.968, 703.872 428, 698.234 428 C 694.393 428, 693.231 428.534, 689.970 431.795 M 587.500 437.140 C 579.125 438.201, 571.628 440.539, 569.891 442.632 C 565.713 447.665, 589.914 468, 600.082 468 C 607.668 468, 630.587 450.185, 629.836 444.873 C 629.337 441.351, 622.259 438.337, 611.500 437.068 C 601.319 435.866, 597.461 435.878, 587.500 437.140 M 604 903.500 C 601.753 904.784, 603.119 904.933, 617.500 904.969 C 626.300 904.990, 639.350 905.289, 646.500 905.632 C 656.288 906.102, 659.235 905.971, 658.426 905.104 C 657.764 904.394, 650.477 903.587, 639.426 903 C 614.650 901.684, 606.988 901.792, 604 903.500 M 402.500 907.143 C 341.122 913.104, 307.589 919.592, 290.671 928.781 C 273.767 937.962, 286.746 948.419, 325 956.439 C 352.960 962.302, 415.370 968.379, 458 969.390 C 478.820 969.884, 476.926 969.546, 450 967.960 C 372.655 963.406, 312.556 953.951, 292.680 943.210 C 283.536 938.270, 284.301 934.579, 295.543 929.385 C 303.875 925.535, 316.862 922.210, 338 918.515 C 353.524 915.801, 390.100 911.508, 406.500 910.475 C 418.961 909.690, 420.176 909.355, 417.559 907.429 C 415.443 905.872, 415.572 905.874, 402.500 907.143 M 592.972 911.036 C 589.617 915.272, 589.606 915.316, 592.111 914.687 C 598.104 913.183, 619.704 912.729, 625.070 913.995 C 632.972 915.859, 640.920 920.160, 647.391 926.074 C 653.215 931.397, 658.603 939.216, 657.583 940.866 C 656.350 942.861, 638.050 943.199, 569.904 942.485 C 493.054 941.679, 493.966 941.753, 497.329 936.621 L 499.046 934 494.440 934 C 485.517 934, 452.108 924.299, 435.636 916.925 C 422.965 911.252, 423.088 911.263, 398.306 913.552 C 346.774 918.310, 308.993 926.538, 305.077 933.856 C 298.142 946.813, 370.083 958.799, 480.500 963.081 C 496.450 963.700, 532.675 964.206, 561 964.206 C 629.563 964.206, 677.177 962.293, 728.500 957.478 C 787.415 951.950, 824.028 941.969, 816.900 933.379 C 811.152 926.453, 779.138 919.188, 733.778 914.516 C 713.165 912.393, 714.317 912.239, 717.699 916.672 C 721.431 921.564, 721.635 928.258, 718.139 931.088 C 716 932.821, 713.996 933, 696.790 933 L 677.802 933 674.928 929.922 C 673.346 928.230, 669.543 922.886, 666.476 918.048 L 660.899 909.251 645.200 908.633 C 636.565 908.292, 622.045 907.729, 612.934 907.381 L 596.367 906.749 592.972 911.036 M 710 908.076 C 710 908.848, 714.334 909.398, 733.663 911.080 C 740.902 911.709, 747.427 912.023, 748.163 911.777 C 748.898 911.531, 743.650 910.749, 736.500 910.039 C 729.350 909.330, 720.462 908.442, 716.750 908.066 C 713.038 907.690, 710 907.694, 710 908.076 M 485.280 970.736 C 487.909 970.943, 491.959 970.940, 494.280 970.731 C 496.601 970.521, 494.450 970.352, 489.500 970.355 C 484.550 970.358, 482.651 970.530, 485.280 970.736" stroke="none" fill="#42424c" fill-rule="evenodd"/><path d="M 208.500 307 C 212.320 310.850, 215.671 314, 215.946 314 C 216.221 314, 213.320 310.850, 209.500 307 C 205.680 303.150, 202.329 300, 202.054 300 C 201.779 300, 204.680 303.150, 208.500 307 M 616.776 634.733 C 619.128 634.945, 622.728 634.942, 624.776 634.727 C 626.824 634.512, 624.900 634.339, 620.500 634.343 C 616.100 634.346, 614.424 634.522, 616.776 634.733 M 611.728 643.722 C 613.503 643.943, 616.653 643.946, 618.728 643.730 C 620.802 643.513, 619.350 643.333, 615.500 643.328 C 611.650 643.324, 609.952 643.501, 611.728 643.722 M 678.328 716.500 C 678.333 720.350, 678.513 721.802, 678.730 719.728 C 678.946 717.653, 678.943 714.503, 678.722 712.728 C 678.501 710.952, 678.324 712.650, 678.328 716.500" stroke="none" fill="#ebd3c2" fill-rule="evenodd"/><path d="M 538 757.500 C 540.691 760.364, 540.893 760.460, 540.633 758.750 C 540.297 756.531, 538.922 755, 537.267 755 C 535.975 755, 536.122 755.501, 538 757.500 M 392.343 843.500 C 392.346 847.900, 392.522 849.576, 392.733 847.224 C 392.945 844.872, 392.942 841.272, 392.727 839.224 C 392.512 837.176, 392.339 839.100, 392.343 843.500 M 520.750 929.732 C 523.087 929.943, 526.913 929.943, 529.250 929.732 C 531.587 929.522, 529.675 929.349, 525 929.349 C 520.325 929.349, 518.413 929.522, 520.750 929.732" stroke="none" fill="#ca7b5b" fill-rule="evenodd"/></svg>