<svg xmlns="http://www.w3.org/2000/svg" width="1080" height="1080" viewBox="0 0 1080 1080" version="1.1"><path d="M 469.944 333.341 C 469.700 333.559, 465.675 333.990, 461 334.299 C 452.551 334.857, 443.672 336.447, 441.589 337.775 C 440.990 338.157, 440.275 338.502, 440 338.541 C 434.570 339.321, 423.228 344.127, 421.888 346.217 C 421.552 346.741, 421.102 347.091, 420.888 346.993 C 420.082 346.624, 415 349.358, 415 350.161 C 415 350.622, 414.344 351, 413.541 351 C 409.772 351, 386.626 373.544, 382.835 380.907 C 382.101 382.333, 380.712 384.372, 379.750 385.439 C 378.788 386.505, 378 388.137, 378 389.066 C 378 389.995, 377.339 391.303, 376.532 391.973 C 375.725 392.644, 375.141 393.486, 375.234 393.846 C 375.328 394.206, 374.476 396.300, 373.341 398.500 C 372.206 400.700, 371.478 403.063, 371.722 403.750 C 371.967 404.438, 371.732 405, 371.200 405 C 370.668 405, 369.983 405.958, 369.676 407.130 C 369.257 408.732, 368.671 409.070, 367.310 408.494 C 363.312 406.801, 353.193 406.035, 340.687 406.476 C 325.039 407.029, 318.158 408.020, 311 410.754 C 310.175 411.069, 309.275 411.385, 309 411.456 C 303.207 412.951, 292.992 417.687, 291.765 419.446 C 291.361 420.026, 291.024 420.155, 291.015 419.734 C 291.007 419.313, 287.512 421.325, 283.250 424.206 C 274.921 429.836, 257 447.129, 257 449.537 C 257 450.341, 256.550 451, 256 451 C 255.450 451, 255 451.675, 255 452.500 C 255 453.325, 254.576 454, 254.058 454 C 253.539 454, 251.852 456.279, 250.308 459.064 C 247.540 464.056, 247.443 464.121, 243.500 463.598 C 234.713 462.431, 218.054 461.771, 216.330 462.521 C 215.324 462.959, 214.154 463.243, 213.731 463.153 C 212.210 462.826, 198.480 465.249, 196.018 466.279 C 192.814 467.619, 193.154 467.518, 188.750 468.439 C 186.688 468.870, 185 469.623, 185 470.111 C 185 470.600, 184.132 471, 183.071 471 C 182.011 471, 180.436 471.707, 179.571 472.571 C 178.707 473.436, 178 473.843, 178 473.476 C 178 472.833, 169.017 477.719, 168 478.915 C 167.725 479.239, 166.194 480.177, 164.598 481.002 C 163.002 481.826, 159.507 484.555, 156.831 487.067 C 154.156 489.578, 151.805 491.472, 151.608 491.275 C 150.526 490.192, 131.503 514.738, 130.786 518.142 C 130.629 518.889, 130.159 519.753, 129.743 520.063 C 129.327 520.373, 127.447 524.387, 125.566 528.983 C 123.684 533.579, 121.484 537.709, 120.675 538.162 C 119.867 538.614, 117.472 539.185, 115.353 539.430 C 113.234 539.674, 110.600 540.115, 109.500 540.409 C 108.400 540.703, 105.493 541.430, 103.039 542.024 C 100.586 542.618, 98.111 543.479, 97.539 543.937 C 96.968 544.395, 95.037 545.082, 93.250 545.464 C 91.462 545.846, 90 546.573, 90 547.079 C 90 547.586, 89.662 547.927, 89.250 547.839 C 88.176 547.607, 82.639 549.974, 82.020 550.928 C 81.734 551.370, 79.700 552.671, 77.500 553.820 C 75.300 554.968, 72.229 556.941, 70.677 558.204 C 69.124 559.467, 65.186 562.676, 61.927 565.337 C 58.667 567.997, 56 570.884, 56 571.753 C 56 572.622, 55.713 573.046, 55.363 572.696 C 54.516 571.850, 42.941 586.095, 43.603 587.167 C 43.886 587.625, 43.714 588, 43.220 588 C 42.255 588, 39.536 593.006, 39.825 594.250 C 39.921 594.663, 39.630 595, 39.178 595 C 37.253 595, 30.925 611.987, 28.022 624.948 C 25.976 634.081, 25.313 658.457, 27.081 659.550 C 27.604 659.873, 27.758 660.582, 27.422 661.126 C 26.054 663.340, 32.421 684.903, 36.687 692.500 C 37.922 694.700, 39.598 697.958, 40.411 699.739 C 45.264 710.374, 60.531 726.859, 73.500 735.468 C 83.945 742.401, 89.860 745.303, 100.097 748.517 C 104.719 749.969, 109.850 751.632, 111.500 752.214 C 115.513 753.630, 146.454 754.187, 151.500 752.935 C 153.700 752.389, 156.400 751.709, 157.500 751.423 C 158.600 751.137, 160.850 750.712, 162.500 750.478 C 164.150 750.244, 167.300 749.315, 169.500 748.414 C 171.700 747.512, 175.170 746.090, 177.211 745.253 L 180.922 743.731 185.711 748.268 C 192.561 754.756, 196.995 758.309, 197.030 757.339 C 197.047 756.878, 197.519 757.288, 198.080 758.250 C 198.641 759.212, 199.752 760, 200.550 760 C 201.347 760, 202 760.380, 202 760.845 C 202 761.309, 206.162 763.763, 211.250 766.297 C 224.040 772.668, 227.056 773.874, 229.169 773.467 C 230.176 773.273, 231 773.614, 231 774.224 C 231 774.834, 231.276 775.057, 231.613 774.720 C 231.951 774.383, 234.088 774.870, 236.363 775.803 C 239.779 777.204, 243.899 777.494, 260 777.466 C 280.179 777.430, 286.561 776.442, 298.245 771.547 C 300.305 770.683, 302.105 770.050, 302.245 770.140 C 302.385 770.229, 305.987 768.455, 310.250 766.196 C 318.582 761.782, 333.794 750.700, 334.676 748.403 C 335.436 746.422, 337.627 746.654, 344.457 749.436 C 347.733 750.770, 350.771 751.642, 351.207 751.372 C 351.643 751.103, 352 751.411, 352 752.058 C 352 752.741, 352.838 753.014, 354 752.710 C 355.100 752.423, 356 752.670, 356 753.260 C 356 753.850, 356.271 754.062, 356.603 753.731 C 356.934 753.399, 358.262 753.529, 359.554 754.020 C 360.845 754.511, 363.753 755.022, 366.015 755.156 C 368.277 755.289, 370.364 755.781, 370.653 756.248 C 370.942 756.715, 371.899 756.513, 372.781 755.799 C 373.983 754.825, 374.196 754.813, 373.633 755.750 C 373.088 756.657, 373.864 757, 376.462 757 C 379.438 757, 380.227 757.465, 381.133 759.750 C 384.240 767.591, 386.434 772, 387.230 772 C 387.718 772, 387.870 772.401, 387.567 772.892 C 386.984 773.834, 391.905 782.508, 396.576 788.772 C 400.973 794.669, 414.245 807.966, 415.166 807.398 C 415.624 807.114, 416 807.320, 416 807.854 C 416 809.389, 424.179 815.002, 425.401 814.306 C 426.005 813.961, 426.157 814.057, 425.738 814.519 C 424.857 815.488, 433.680 820.958, 436.167 820.983 C 437.083 820.992, 438.006 821.519, 438.217 822.152 C 438.429 822.786, 439.479 823.398, 440.551 823.511 C 441.623 823.624, 443.625 824.177, 445 824.739 C 446.375 825.301, 447.950 825.853, 448.500 825.965 C 449.050 826.078, 450.043 826.621, 450.706 827.171 C 451.370 827.722, 452.382 827.882, 452.956 827.527 C 453.530 827.172, 454 827.260, 454 827.723 C 454 828.185, 455.012 828.666, 456.250 828.792 C 460.055 829.177, 461.444 829.521, 462.930 830.448 C 465.056 831.775, 496.908 832.321, 498.431 831.057 C 499.120 830.485, 499.950 830.284, 500.275 830.609 C 501.016 831.349, 513.418 828.373, 517.651 826.439 C 519.384 825.648, 521.522 825, 522.401 825 C 523.281 825, 524 824.475, 524 823.833 C 524 823.192, 524.280 822.946, 524.622 823.288 C 525.252 823.919, 535.080 819.354, 536 818.004 C 536.275 817.600, 537.519 816.952, 538.765 816.563 C 540.010 816.174, 540.774 815.444, 540.463 814.939 C 540.151 814.435, 540.548 814.273, 541.344 814.579 C 542.179 814.899, 543.480 814.153, 544.416 812.817 C 545.308 811.543, 546.221 810.725, 546.445 811 C 547.913 812.807, 571 789.696, 571 786.420 C 571 785.639, 571.344 785, 571.764 785 C 572.184 785, 573.612 783.245, 574.938 781.101 C 577.175 777.481, 577.532 777.282, 579.924 778.330 C 581.341 778.951, 582.725 779.758, 583 780.122 C 584.111 781.595, 595.977 787.021, 603.321 789.414 C 614.505 793.059, 618.346 793.503, 638.500 793.478 C 659.803 793.451, 664.382 792.465, 682.250 784.052 C 685.962 782.305, 689 780.426, 689 779.878 C 689 779.330, 689.403 779.131, 689.896 779.436 C 690.788 779.987, 698.816 774.911, 704.481 770.213 L 707.462 767.741 709.205 771.620 C 710.163 773.754, 710.959 776.063, 710.974 776.750 C 710.988 777.438, 711.450 778, 712 778 C 712.550 778, 712.922 778.337, 712.827 778.750 C 712.521 780.080, 716.187 788, 717.109 788 C 717.599 788, 718 788.675, 718 789.500 C 718 790.325, 718.477 791, 719.059 791 C 719.641 791, 719.842 791.446, 719.505 791.992 C 719.168 792.537, 720.021 794.112, 721.401 795.492 C 722.780 796.871, 723.639 798, 723.309 798 C 722.978 798, 723.922 799.125, 725.405 800.500 C 726.889 801.875, 727.774 803, 727.373 803 C 726.971 803, 730.224 806.487, 734.603 810.750 C 742.496 818.435, 747 822.364, 747 821.566 C 747 821.338, 748.040 822.078, 749.312 823.211 C 752.740 826.264, 766.610 834.198, 769 834.473 C 769.275 834.505, 770.063 834.888, 770.750 835.324 C 771.437 835.761, 772.450 835.840, 773 835.500 C 773.550 835.160, 774 835.297, 774 835.804 C 774 836.947, 782.425 839.562, 790.760 841.007 C 798.061 842.272, 822.810 842.197, 831.500 840.884 C 840.853 839.470, 848.582 836.756, 861.750 830.262 C 864.637 828.838, 867 827.297, 867 826.836 C 867 826.376, 867.653 826, 868.450 826 C 869.248 826, 870.359 825.212, 870.920 824.250 C 871.481 823.288, 871.953 822.867, 871.970 823.316 C 872.016 824.573, 884 814.860, 884 813.565 C 884 812.938, 885.442 812.316, 887.204 812.181 C 891.080 811.886, 901.075 809.097, 902.592 807.888 C 903.193 807.409, 903.970 807.303, 904.319 807.652 C 905.147 808.480, 928 797.072, 928 795.830 C 928 795.309, 928.453 795.162, 929.007 795.504 C 929.561 795.847, 930.284 795.423, 930.614 794.563 C 930.944 793.704, 931.663 793, 932.212 793 C 933.938 793, 948 780.632, 948 779.114 C 948 778.318, 948.286 777.952, 948.635 778.301 C 948.984 778.650, 950.582 777.263, 952.187 775.218 C 953.792 773.173, 955.913 770.475, 956.900 769.222 C 958.128 767.664, 960.401 766.657, 964.098 766.034 C 967.069 765.533, 971.750 764.399, 974.500 763.515 C 977.250 762.631, 980.625 761.677, 982 761.395 C 983.375 761.113, 984.650 760.459, 984.833 759.941 C 985.017 759.424, 985.822 759, 986.623 759 C 988.411 759, 996.270 755.089, 997.112 753.780 C 997.448 753.257, 997.970 752.980, 998.271 753.165 C 999.417 753.866, 1012.031 744.662, 1019.746 737.494 C 1024.172 733.383, 1029.501 727.427, 1031.588 724.260 C 1033.676 721.092, 1035.747 718.350, 1036.192 718.167 C 1036.636 717.983, 1037 717.251, 1037 716.539 C 1037 715.827, 1037.670 714.689, 1038.489 714.009 C 1039.308 713.329, 1039.731 712.374, 1039.430 711.887 C 1039.129 711.399, 1039.434 711, 1040.108 711 C 1040.782 711, 1041.047 710.713, 1040.696 710.363 C 1040.346 710.012, 1040.851 708.550, 1041.820 707.113 C 1042.788 705.676, 1044.586 701.990, 1045.814 698.922 C 1047.904 693.705, 1048.317 692.305, 1049.599 686.095 C 1049.872 684.773, 1050.446 682.973, 1050.874 682.095 C 1051.303 681.218, 1051.809 678.925, 1051.999 677 C 1052.594 670.970, 1052.489 644.668, 1051.855 641 C 1050.514 633.236, 1046.578 620.713, 1044.705 618.250 C 1044.183 617.563, 1044.105 617, 1044.533 617 C 1044.960 617, 1044.597 616.212, 1043.726 615.250 C 1042.855 614.288, 1042.157 613.143, 1042.175 612.707 C 1042.240 611.106, 1039.731 606, 1038.879 606 C 1038.395 606, 1038.112 605.663, 1038.248 605.250 C 1038.642 604.061, 1034.179 597, 1033.034 597 C 1032.465 597, 1032.113 596.593, 1032.250 596.097 C 1032.516 595.134, 1021.166 581.003, 1020.120 580.995 C 1019.779 580.993, 1017.955 579.530, 1016.066 577.745 C 1010.689 572.663, 1006.792 570.011, 1005.696 570.688 C 1005.143 571.029, 1004.973 570.853, 1005.317 570.297 C 1005.661 569.740, 1004.268 568.433, 1002.221 567.392 C 1000.175 566.351, 998.275 565.222, 998 564.881 C 997.016 563.663, 987 558.982, 986.985 559.733 C 986.976 560.155, 986.639 560.046, 986.235 559.492 C 985.140 557.990, 975.247 554.729, 974.042 555.474 C 973.469 555.828, 973 555.703, 973 555.196 C 973 553.556, 957.825 551.517, 945.250 551.467 C 938.513 551.440, 933 551.662, 932.999 551.959 C 932.999 552.257, 931.086 552.557, 928.749 552.627 C 926.412 552.697, 922.803 553.094, 920.730 553.511 C 917.515 554.157, 917.050 554.034, 917.571 552.675 C 917.907 551.799, 917.649 549.467, 916.998 547.494 C 916.346 545.520, 915.666 542.914, 915.486 541.702 C 914.535 535.315, 909.302 521.274, 905.908 516 C 905.376 515.175, 904.678 513.712, 904.354 512.750 C 904.031 511.788, 903.369 511, 902.883 511 C 902.398 511, 902 510.502, 902 509.894 C 902 508.821, 897.520 502.569, 893.837 498.500 C 892.841 497.400, 890.151 494.363, 887.859 491.750 C 885.568 489.137, 883.359 487, 882.952 487 C 882.545 487, 880.800 485.682, 879.075 484.070 C 875.455 480.688, 864.336 473.225, 858.500 470.259 C 852.366 467.141, 836.374 462.032, 829.584 461.020 C 821.423 459.803, 791.058 460.302, 790.177 461.667 C 789.805 462.244, 788.697 462.593, 787.715 462.442 C 785.413 462.087, 772.727 466.068, 771.765 467.447 C 771.361 468.026, 771.024 468.107, 771.015 467.628 C 771.007 467.148, 770.325 467.315, 769.500 468 C 768.675 468.685, 768 468.953, 768 468.597 C 768 468.240, 766.672 468.635, 765.050 469.474 C 760.468 471.844, 759.674 471.477, 760.230 467.250 C 760.502 465.188, 760.325 461.025, 759.838 458 C 759.351 454.975, 758.972 451.235, 758.996 449.688 C 759.021 448.141, 758.716 446.349, 758.318 445.705 C 757.920 445.062, 757.538 443.852, 757.469 443.018 C 757.149 439.170, 751.062 422.780, 749.576 421.765 C 748.984 421.361, 748.849 421.024, 749.276 421.015 C 751.366 420.974, 738.519 401.456, 733.772 397.461 C 732.163 396.108, 731.194 395, 731.619 395 C 732.045 395, 730.856 393.415, 728.978 391.477 C 727.099 389.539, 724.992 388.173, 724.293 388.441 C 723.595 388.709, 723.131 388.555, 723.262 388.099 C 723.666 386.692, 715.942 380.195, 708.570 375.740 C 704.710 373.408, 701.315 371.480, 701.026 371.455 C 700.737 371.430, 698.700 370.472, 696.500 369.327 C 694.300 368.181, 690.925 366.912, 689 366.507 C 687.075 366.101, 685.050 365.413, 684.500 364.979 C 683.950 364.544, 682.150 363.964, 680.500 363.690 C 678.850 363.417, 674.125 362.475, 670 361.597 C 661.567 359.803, 640.488 359.402, 639.490 361.016 C 639.144 361.575, 638.555 361.847, 638.181 361.620 C 636.027 360.315, 610 367.240, 610 369.118 C 610 369.603, 609.663 369.908, 609.250 369.795 C 607.586 369.340, 601.032 372.241, 598.573 374.520 C 597.132 375.856, 595.733 376.951, 595.466 376.954 C 594.102 376.969, 589 380.182, 589 381.026 C 589 381.562, 588.358 382, 587.573 382 C 586.787 382, 585.260 383.125, 584.179 384.500 C 583.097 385.875, 581.808 387, 581.314 387 C 580.058 387, 571.838 395.505, 572.477 396.144 C 572.765 396.432, 572.366 396.667, 571.592 396.667 C 570.817 396.667, 569.939 395.446, 569.641 393.954 C 569.342 392.462, 568.488 390.624, 567.743 389.871 C 566.998 389.117, 566.125 387.805, 565.804 386.956 C 563.428 380.668, 541.908 356, 538.799 356 C 538.214 356, 537.007 355.181, 536.117 354.181 C 535.228 353.180, 533.825 352.064, 533 351.702 C 532.175 351.339, 529.700 349.918, 527.500 348.543 C 514.432 340.379, 502.485 336.253, 487 334.556 C 476.561 333.411, 470.361 332.970, 469.944 333.341 M 283.116 527.962 C 262.636 535.506, 246.946 558.830, 241.532 589.778 C 235.656 623.369, 247.855 656.719, 269.672 666.707 C 274.554 668.943, 276.196 669.187, 283.847 668.819 C 291.051 668.473, 293.414 667.909, 297.959 665.452 C 309.615 659.150, 318.422 647.180, 324.052 629.993 C 326.792 621.624, 327.646 620.055, 329.742 619.529 C 336.870 617.740, 341.285 611.038, 340.800 602.742 C 340.529 598.096, 340.176 597.412, 337.138 595.643 C 332.137 592.731, 323.576 591.033, 313.799 591.016 C 294.037 590.980, 281.992 597.094, 282.004 607.154 C 282.006 608.994, 282.853 611.886, 283.886 613.580 C 285.740 616.621, 291.281 620, 294.415 620 C 295.882 620, 295.890 620.336, 294.500 623.750 C 292.486 628.694, 287.952 632.731, 283.468 633.572 C 274.789 635.200, 270.805 628.914, 270.184 612.614 C 269.692 599.702, 271.098 589.759, 275.147 577.500 C 279.808 563.390, 286.159 556, 293.625 556 C 298.752 556, 300.022 558.790, 299.798 569.562 C 299.683 575.068, 300.082 579.360, 300.836 580.740 C 302.527 583.835, 307.122 586, 312 586 C 321.198 586, 325.509 580.303, 327.101 566.046 C 329.156 547.637, 323.927 535.551, 311 528.837 C 304.680 525.555, 290.833 525.120, 283.116 527.962 M 445.281 532.417 C 435.787 540.405, 430 565.402, 430 598.418 C 430 635.147, 435.617 660.952, 444.775 666.301 C 449.116 668.836, 454.373 667.883, 458.108 663.884 C 462.745 658.921, 463.328 653.179, 462.359 622.067 C 461.886 606.905, 461.554 593.375, 461.619 592 C 463.171 559.426, 463.171 544.102, 461.622 538.771 C 460.643 535.402, 459.073 532.464, 457.763 531.547 C 454.392 529.185, 448.646 529.586, 445.281 532.417 M 494.334 531.285 C 480.391 539.104, 473.257 588.040, 479.524 632.879 C 481.781 649.031, 485.128 658.999, 490.019 664.141 C 493.675 667.984, 494.235 668.232, 498.085 667.715 C 500.635 667.373, 503.277 666.151, 504.968 664.530 C 509.760 659.940, 510.450 655.650, 509.957 633.500 C 509.441 610.321, 509.423 585.010, 509.904 559.500 C 510.264 540.422, 509.663 536.399, 505.850 532.340 C 503.387 529.718, 498.007 529.226, 494.334 531.285 M 553.500 555.339 C 546.679 557.598, 543.702 559.582, 537.722 565.852 C 527.797 576.259, 522.213 590.787, 521.279 608.635 C 520.056 631.994, 530.169 652.533, 546.952 660.775 C 551.597 663.057, 553.810 663.500, 560.552 663.500 C 567.903 663.500, 569.295 663.159, 576.552 659.575 C 598.921 648.529, 608.342 624.184, 590.967 622.325 C 587.036 621.905, 585.721 622.341, 580 625.961 C 565.949 634.852, 561.325 635.669, 555.029 630.371 C 551.266 627.204, 551.171 625.208, 554.750 624.474 C 571.900 620.953, 584.159 612.212, 590.391 599.062 C 593.153 593.231, 593.500 591.497, 593.500 583.500 C 593.500 575.544, 593.191 573.978, 590.835 570 C 584.924 560.018, 576.320 554.903, 564.500 554.345 C 560.448 554.153, 555.815 554.572, 553.500 555.339 M 364 559.818 C 356.430 562.350, 352.576 564.486, 347.784 568.807 C 337.128 578.414, 337.575 592.194, 348.591 593.672 C 352.139 594.148, 353.984 593.533, 362.582 589.007 C 371.338 584.400, 373.006 583.853, 376.961 584.299 C 382.839 584.962, 387 589.305, 387 594.777 L 387 598.523 377.777 600.784 C 366.287 603.600, 354.092 609.472, 347.340 615.438 C 334.547 626.743, 333.404 642.587, 344.497 654.865 C 351.748 662.891, 359.034 665.526, 369.382 663.864 C 375.832 662.828, 386.188 658.684, 388.108 656.370 C 389.896 654.216, 390.727 654.733, 391.421 658.428 C 393.259 668.227, 406.046 672.369, 412.606 665.291 C 417.227 660.305, 418.485 653.352, 418.355 633.500 C 418.224 613.439, 416.517 599.856, 412.573 587.500 C 407.830 572.644, 402.299 565.793, 391 560.779 C 384.466 557.881, 371.203 557.408, 364 559.818 M 694.355 561.992 C 686.639 565.106, 681.633 581.859, 681.652 604.500 C 681.681 637.319, 693.626 657, 713.517 657 C 722.068 657, 728.856 653.415, 735.692 645.288 L 740.918 639.075 740.346 645.788 C 739.387 657.057, 736.250 671.693, 733.461 677.907 C 728.415 689.151, 722.343 692.033, 712 688.095 C 704.397 685.200, 698.938 685.340, 695.150 688.527 C 687.854 694.666, 691.511 704.621, 703.265 710.618 C 714.889 716.548, 728.700 717.403, 737.988 712.767 L 742.529 710.500 742.161 717.638 C 741.476 730.914, 745.884 740.949, 757.475 752.500 C 765.656 760.652, 775.316 767.484, 790 775.505 C 809.515 786.164, 854.567 805.195, 855.869 803.328 C 870.956 781.692, 886.850 753.628, 893.344 737.160 L 895.056 732.821 907.076 744.410 L 919.097 755.999 924.799 752.365 C 943.918 740.176, 974.043 715.399, 985.584 702.369 C 1015.160 668.981, 1019.673 644.090, 999.839 623.769 C 996.373 620.218, 991.913 616.916, 988.339 615.254 C 983.244 612.886, 981.290 612.547, 973 612.587 C 965.497 612.624, 962.348 613.109, 958.021 614.893 C 946.756 619.536, 935.608 629.440, 928.302 641.294 L 925.347 646.088 921.514 638.294 C 918.677 632.524, 915.677 628.487, 909.962 622.750 C 900.117 612.866, 893.868 609.797, 882.352 609.190 C 875.201 608.812, 873.523 609.072, 868.634 611.310 C 858.899 615.767, 849.218 626.520, 845.469 637.043 C 844.596 639.494, 843.716 644.243, 843.515 647.596 C 843.158 653.520, 842.982 653.859, 837.277 659.596 C 828.315 668.610, 821.638 682.598, 820.331 695.103 L 819.724 700.918 813.782 695.541 C 799.113 682.266, 778.266 676.684, 764.634 682.380 C 760.498 684.108, 760.494 684.098, 762.439 677.432 C 770.742 648.968, 770.454 599.325, 761.852 576.334 C 755.752 560.029, 740.971 558.507, 736.994 573.775 C 736.317 576.374, 735.453 585.925, 735.073 595 C 734.308 613.294, 733.016 617.906, 727.915 620.544 C 723.710 622.718, 718.550 622.377, 715.462 619.721 C 711.995 616.738, 711.098 611.782, 711.044 595.299 C 710.997 581.168, 709.869 573.705, 706.890 567.816 C 703.828 561.761, 699.691 559.839, 694.355 561.992 M 616 562.706 C 615.175 563.008, 613.445 564.210, 612.155 565.377 C 605.613 571.299, 604.716 578.527, 605.969 615.226 C 607.014 645.839, 608.092 653.833, 612.152 661.056 C 616.828 669.376, 626.933 668.832, 631.493 660.014 C 634.110 654.952, 635.128 647.773, 635.890 629 C 636.560 612.474, 636.888 610.020, 638.958 606 C 645.113 594.047, 650.793 590.848, 660.063 594.112 C 666.831 596.496, 671.583 596.505, 676.016 594.143 C 680.806 591.591, 682.198 588.616, 681.613 582.180 C 680.655 571.625, 671.737 565.009, 658.500 565.032 C 649.481 565.047, 644.120 567.446, 637.818 574.286 C 633.406 579.072, 633.011 579.295, 632.996 577 C 632.973 573.403, 628.520 564.348, 626.149 563.080 C 624.051 561.957, 618.599 561.756, 616 562.706 M 558.510 582.171 C 554.094 585.644, 548.784 599, 551.818 599 C 554.795 599, 563.062 595.598, 565.950 593.185 C 568.697 590.890, 569.400 589.577, 569.400 586.745 C 569.400 584.788, 568.805 582.470, 568.078 581.593 C 566.213 579.346, 561.759 579.615, 558.510 582.171 M 381.500 621.236 C 373.416 624.142, 367.556 629.839, 368.173 634.192 C 368.679 637.763, 375.321 637.866, 382.997 634.421 C 388.980 631.736, 389 631.713, 389 627.445 C 389 619.876, 387.875 618.945, 381.500 621.236" stroke="none" fill="#fafdfd" fill-rule="evenodd"/><path d="M 291.245 527.162 C 284.321 527.957, 276.378 531.562, 269.739 536.922 C 246.192 555.935, 234.362 601.712, 244.916 632.979 C 250.686 650.074, 258.684 660.677, 269.568 665.660 C 277.886 669.468, 288.055 669.232, 296.584 665.033 C 308.595 659.120, 318.859 644.860, 324.141 626.750 C 325.702 621.395, 326.880 618.999, 327.950 618.996 C 330.345 618.990, 335.703 615.383, 337.587 612.507 C 340.283 608.393, 341.133 601.929, 339.344 599.156 C 336.633 594.957, 329.636 592.703, 317.743 592.199 C 295.974 591.276, 283 596.825, 283 607.058 C 283 612.944, 286.645 616.604, 295.273 619.384 C 296.929 619.917, 296.942 620.202, 295.470 623.727 C 290.969 634.501, 279.720 638.209, 273.600 630.936 C 269.969 626.621, 268.649 618.506, 269.300 604.500 C 270.191 585.317, 275.193 569.191, 282.827 560.891 C 286.830 556.539, 288.146 555.740, 292 555.326 C 299.522 554.518, 300.420 555.872, 300.510 568.145 C 300.611 582.179, 302.643 585, 312.647 585 C 316.467 585, 317.733 584.467, 320.510 581.690 C 324.804 577.396, 326.276 571.848, 326.400 559.500 C 326.488 550.713, 326.187 548.832, 323.917 543.994 C 317.874 531.113, 306.751 525.383, 291.245 527.162 M 446.238 532.546 C 432.961 541.846, 426.602 593.792, 433.497 636.636 C 436.630 656.106, 442.531 667, 449.945 667 C 454.168 667, 459.457 661.852, 460.794 656.440 C 461.966 651.698, 461.698 540.454, 460.508 537.500 C 460.065 536.400, 458.791 534.487, 457.677 533.250 C 455.257 530.562, 449.570 530.212, 446.238 532.546 M 493.152 533.526 C 484.939 540.436, 479.479 561.419, 478.325 590.500 C 476.957 624.957, 483.484 659.684, 492.428 665.545 C 495.279 667.413, 501.007 667.069, 503.655 664.871 C 509.330 660.162, 510.408 650.997, 508.929 620.050 C 507.977 600.120, 507.975 589.817, 508.921 572.550 C 510.705 539.975, 509.010 531.853, 500.287 531.199 C 497.141 530.963, 495.600 531.466, 493.152 533.526 M 552.230 556.886 C 534.802 562.906, 522 586.649, 522 612.952 C 522 641.162, 540.377 664.013, 562.101 662.815 C 575.002 662.104, 591.210 651.188, 596.622 639.565 C 600.293 631.680, 599.765 626.964, 594.928 624.463 C 590.155 621.995, 586.894 622.699, 578.470 628.019 C 568.804 634.123, 564.945 635.332, 559.667 633.910 C 555.186 632.704, 551 628.968, 551 626.176 C 551 624.634, 552.161 624.032, 556.944 623.091 C 570.864 620.352, 584.156 610.305, 589.804 598.253 C 592.112 593.329, 592.500 591.192, 592.500 583.422 C 592.500 575.065, 592.260 573.955, 589.479 569.456 C 581.917 557.225, 566.403 551.990, 552.230 556.886 M 363.359 561.002 C 348.439 565.871, 338.871 577.381, 341.392 587.428 C 342.102 590.253, 346.559 593, 350.436 593 C 351.830 593, 357.259 590.750, 362.500 588 C 367.817 585.210, 373.363 583, 375.047 583 C 382.860 583, 388 588.093, 388 595.837 C 388 599.765, 387.990 599.774, 383.258 600.484 C 375.968 601.577, 362.661 606.357, 356.440 610.116 C 349.200 614.491, 342.163 621.446, 339.864 626.500 C 331.935 643.926, 348.740 666.200, 367.728 663.434 C 374.368 662.467, 382.043 659.476, 386.886 655.968 C 389.139 654.335, 391.152 653, 391.360 653 C 391.567 653, 391.988 654.870, 392.294 657.157 C 393.523 666.315, 404.142 671.117, 410.793 665.521 C 416.135 661.026, 417.507 654.533, 417.457 634 C 417.396 609.193, 414.047 589.920, 407.577 577.152 C 404.602 571.282, 397.452 564.574, 391.220 561.808 C 384.307 558.740, 371.430 558.367, 363.359 561.002 M 693.204 563.570 C 689.986 565.824, 686.519 573.270, 684.390 582.500 C 681.732 594.024, 681.937 616.607, 684.795 627.154 C 688.634 641.322, 694.738 650.160, 703.399 654.094 C 708.864 656.576, 718.179 656.556, 723.697 654.050 C 728.015 652.090, 735.905 644.618, 738.797 639.750 C 741.318 635.507, 742.018 636.436, 741.434 643.250 C 739.177 669.584, 733.649 685.471, 725.349 689.479 C 721.119 691.521, 718.135 691.396, 711.462 688.900 C 701.830 685.296, 695.611 686.698, 692.972 693.067 C 690.257 699.621, 696.688 707.392, 708.718 712.091 C 717.293 715.441, 730.630 715.419, 737.500 712.043 C 757.187 702.368, 767.357 672.863, 767.331 625.500 C 767.319 604.432, 765.938 592.486, 762.066 579.949 C 757.916 566.512, 749.663 560.544, 742.751 565.981 C 738.058 569.673, 736.792 574.961, 736.041 594 C 735.264 613.700, 734.194 617.692, 728.810 620.974 C 722.920 624.566, 714.759 623.068, 712.303 617.944 C 711.598 616.474, 710.903 608.673, 710.614 598.974 C 710.093 581.500, 708.925 573.816, 705.874 567.783 C 702.958 562.020, 697.845 560.319, 693.204 563.570 M 614.387 564.906 C 612.642 565.970, 610.224 568.936, 608.887 571.652 C 606.521 576.456, 606.502 576.752, 606.764 604.500 C 606.909 619.900, 607.472 636.646, 608.014 641.713 C 609.737 657.807, 614.257 666, 621.412 666 C 630.723 666, 635 653.579, 635 626.542 C 635 612.961, 636.290 607.234, 640.865 600.513 C 646.327 592.489, 653.337 590.154, 661.599 593.606 C 671.204 597.619, 681 592.679, 681 583.822 C 681 573.402, 671.643 565.981, 658.554 566.022 C 649.377 566.051, 644.784 568.178, 638.373 575.371 L 633.335 581.024 631.693 575.119 C 629.448 567.046, 625.930 562.999, 621.161 563.004 C 619.147 563.006, 616.099 563.862, 614.387 564.906 M 557.081 582.545 C 553.149 586.098, 550 592.877, 550 597.789 C 550 600.057, 550.255 600.176, 553.750 599.532 C 563.496 597.738, 570.400 592.344, 570.400 586.522 C 570.400 578.705, 563.585 576.670, 557.081 582.545 M 380.324 620.638 C 374.283 622.778, 367 629.473, 367 632.885 C 367 634.378, 367.540 636.140, 368.200 636.800 C 370.322 638.922, 377.189 638.145, 383.750 635.042 C 390.481 631.857, 390.488 631.843, 389.364 623.640 C 388.642 618.371, 387.650 618.042, 380.324 620.638" stroke="none" fill="#aaadad" fill-rule="evenodd"/><path d="M 477.349 598 C 477.349 602.675, 477.522 604.587, 477.732 602.250 C 477.943 599.913, 477.943 596.087, 477.732 593.750 C 477.522 591.413, 477.349 593.325, 477.349 598 M 871 610.651 C 864.681 612.933, 857.959 618.073, 853.161 624.292 C 846.980 632.303, 844.718 638.207, 844.202 647.671 C 842.967 670.365, 859.132 695.885, 901.385 737.944 C 917.915 754.398, 919.039 755.317, 921.204 754.158 C 922.467 753.481, 928.988 749.007, 935.695 744.214 C 973.980 716.856, 997.843 692.061, 1007.138 669.982 C 1014.475 652.552, 1012.380 638.191, 1000.617 625.286 C 994.643 618.732, 989.440 615.584, 981.015 613.425 C 963.918 609.045, 943.494 619.517, 930.112 639.524 L 925.157 646.933 922.223 640.716 C 916.032 627.597, 905.574 616.759, 894.500 611.986 C 887.818 609.106, 876.985 608.491, 871 610.651 M 462.320 636 C 462.320 639.575, 462.502 641.038, 462.723 639.250 C 462.945 637.462, 462.945 634.538, 462.723 632.750 C 462.502 630.962, 462.320 632.425, 462.320 636" stroke="none" fill="#b1d5ff" fill-rule="evenodd"/><path d="M 837.056 660.771 C 832.722 665.177, 829.714 669.489, 826.942 675.271 C 823.272 682.924, 820.058 694.341, 820.017 699.868 C 820.001 702.069, 819.704 701.939, 815.777 698.012 C 801.126 683.361, 780.115 677.180, 764.788 683.012 C 759.792 684.913, 759.338 685.386, 756.578 691.579 C 754.971 695.184, 751.316 700.756, 748.456 703.960 C 743.922 709.043, 743.168 710.504, 742.557 715.391 C 739.751 737.848, 758.199 759.124, 797.573 778.839 C 816.270 788.200, 851.035 803, 854.328 803 C 855.040 803, 858.800 798.163, 862.683 792.250 C 875.348 772.964, 884.473 756.389, 891.669 739.597 L 895.055 731.693 887.225 723.597 C 872.120 707.978, 857.684 689.123, 851.316 676.696 C 849.852 673.838, 847.433 667.675, 845.939 663 L 843.225 654.500 837.056 660.771" stroke="none" fill="#ffc7c2" fill-rule="evenodd"/><path d="M 508.320 605 C 508.320 608.575, 508.502 610.038, 508.723 608.250 C 508.945 606.462, 508.945 603.538, 508.723 601.750 C 508.502 599.962, 508.320 601.425, 508.320 605" stroke="none" fill="#aeb8c3" fill-rule="evenodd"/><path d="M 605.355 591.500 C 605.352 596.450, 605.521 598.601, 605.731 596.280 C 605.940 593.959, 605.943 589.909, 605.736 587.280 C 605.530 584.651, 605.358 586.550, 605.355 591.500 M 735.370 593 C 735.370 598.775, 735.535 601.138, 735.737 598.250 C 735.939 595.362, 735.939 590.638, 735.737 587.750 C 735.535 584.862, 735.370 587.225, 735.370 593 M 461.336 602 C 461.336 606.125, 461.513 607.813, 461.728 605.750 C 461.944 603.688, 461.944 600.313, 461.728 598.250 C 461.513 596.188, 461.336 597.875, 461.336 602 M 681.343 604.500 C 681.346 608.900, 681.522 610.576, 681.733 608.224 C 681.945 605.872, 681.942 602.272, 681.727 600.224 C 681.512 598.176, 681.339 600.100, 681.343 604.500 M 269.320 609 C 269.320 612.575, 269.502 614.038, 269.723 612.250 C 269.945 610.462, 269.945 607.538, 269.723 605.750 C 269.502 603.962, 269.320 605.425, 269.320 609 M 768.349 625 C 768.349 629.675, 768.522 631.587, 768.732 629.250 C 768.943 626.913, 768.943 623.087, 768.732 620.750 C 768.522 618.413, 768.349 620.325, 768.349 625 M 635.360 631 C 635.360 636.225, 635.529 638.362, 635.735 635.750 C 635.941 633.138, 635.941 628.862, 635.735 626.250 C 635.529 623.638, 635.360 625.775, 635.360 631 M 418.365 635.500 C 418.368 641, 418.536 643.122, 418.738 640.216 C 418.941 637.311, 418.939 632.811, 418.734 630.216 C 418.528 627.622, 418.363 630, 418.365 635.500 M 774.750 680.723 C 776.538 680.945, 779.462 680.945, 781.250 680.723 C 783.038 680.502, 781.575 680.320, 778 680.320 C 774.425 680.320, 772.962 680.502, 774.750 680.723 M 978.469 709.250 L 972.500 715.500 978.750 709.531 C 984.556 703.987, 985.458 703, 984.719 703 C 984.564 703, 981.751 705.813, 978.469 709.250 M 894.399 733.250 C 894.003 733.938, 894.066 734.148, 894.539 733.717 C 895.012 733.287, 899.921 737.337, 905.449 742.717 L 915.500 752.500 905.519 742.250 C 900.029 736.612, 895.443 732, 895.328 732 C 895.212 732, 894.794 732.563, 894.399 733.250" stroke="none" fill="#fbfbfb" fill-rule="evenodd"/></svg>