<svg xmlns="http://www.w3.org/2000/svg" width="600" height="600" viewBox="0 0 600 600" version="1.1"><path d="M 100.436 188.876 C 94.328 192.601, 89.186 203.844, 85.973 220.500 C 85.337 223.800, 84.574 234.428, 84.277 244.117 L 83.738 261.734 75.619 262.395 C 48.556 264.598, 24.833 269.975, 17.502 275.566 C 10.524 280.889, 10.952 287.128, 18.832 294.949 C 27.153 303.208, 42.407 311.674, 65.578 320.896 C 74.980 324.637, 75.493 324.993, 75.359 327.672 C 75.281 329.227, 74.631 338.903, 73.915 349.173 C 70.141 403.302, 82.734 422.117, 106.112 397.280 C 116.273 386.484, 125.800 370.827, 132.998 353.091 L 136.817 343.682 140.158 348.529 C 152.132 365.895, 168.743 384.179, 178.198 390.398 C 188.128 396.929, 194.403 396.588, 199.047 389.265 C 200.676 386.696, 202.262 382.507, 202.616 379.835 L 203.254 375.027 379.377 374.764 L 555.500 374.500 560.221 372.154 C 565.863 369.349, 571.507 363.368, 574.151 357.393 C 575.975 353.268, 576.061 350.618, 575.788 306.770 L 575.500 260.500 572.839 256 C 569.305 250.023, 565.553 246.593, 559.500 243.804 L 554.500 241.500 391.876 241.238 L 229.252 240.976 228.631 237.097 C 227.870 232.336, 222.696 227.409, 217.417 226.419 C 215.423 226.044, 209.676 225.958, 204.646 226.227 C 193.241 226.836, 181.104 230.784, 165.285 239.030 L 154.071 244.876 149.401 235.700 C 130.286 198.138, 112.749 181.367, 100.436 188.876 M 107.781 217.887 C 105.841 219.591, 103.304 223.190, 102.145 225.885 C 99.213 232.699, 96.911 247.088, 96.688 259.982 L 96.500 270.862 90.500 271.483 C 56.576 274.999, 44 279.409, 44 287.788 C 44 293.453, 51.258 299.553, 67.369 307.430 C 74.591 310.961, 82.840 314.656, 85.701 315.642 L 90.902 317.435 90.201 321.967 C 88.926 330.209, 89.378 366.156, 90.807 370.188 C 94.132 379.569, 100.052 381.643, 107.698 376.104 C 115.482 370.465, 126.079 354.781, 132.169 339.887 C 133.942 335.549, 135.642 332.031, 135.947 332.070 C 136.251 332.108, 139.573 336.337, 143.329 341.467 C 151.334 352.399, 161.771 363.191, 167.700 366.668 C 175.766 371.399, 181.570 369.180, 184.020 360.429 L 185.260 356 200.630 356 L 216 356 216 308 L 216 260 209.595 260 L 203.190 260 203.707 256.144 C 205.702 241.276, 184.675 240.103, 157.832 253.584 C 150.668 257.183, 148.531 257.877, 147.846 256.831 C 147.367 256.099, 144.617 251.088, 141.737 245.696 C 132.490 228.384, 121.964 216.517, 114.828 215.360 C 111.876 214.881, 110.742 215.287, 107.781 217.887" stroke="none" fill="#ffffff" fill-rule="evenodd"/><path d="M 201.402 264.226 C 198.875 269.839, 192.324 278.683, 183.318 288.639 L 175.956 296.778 178.958 307.639 C 183.145 322.790, 185 334.604, 185 346.131 L 185 356 200.500 356 L 216 356 216 308 L 216 260 209.652 260 L 203.304 260 201.402 264.226" stroke="none" fill="#b1d5ff" fill-rule="evenodd"/><path d="M 148.455 289.455 C 145.456 292.453, 145.351 294.905, 148.073 298.365 C 149.468 300.140, 151.101 301, 153.073 301 C 159.552 301, 162.415 293.045, 157.365 289.073 C 153.905 286.351, 151.453 286.456, 148.455 289.455 M 103.039 299.189 C 97.332 305.315, 105.699 314.171, 112.293 308.984 C 114.134 307.536, 115 305.919, 115 303.927 C 115 297.743, 107.247 294.672, 103.039 299.189" stroke="none" fill="#f8aaa3" fill-rule="evenodd"/><path d="M 107.781 217.887 C 105.841 219.591, 103.304 223.190, 102.145 225.885 C 99.213 232.699, 96.911 247.088, 96.688 259.982 L 96.500 270.862 90.500 271.483 C 56.576 274.999, 44 279.409, 44 287.788 C 44 293.453, 51.258 299.553, 67.369 307.430 C 74.591 310.961, 82.840 314.656, 85.701 315.642 L 90.902 317.435 90.201 321.967 C 88.926 330.209, 89.378 366.156, 90.807 370.188 C 94.132 379.569, 100.052 381.643, 107.698 376.104 C 115.482 370.465, 126.079 354.781, 132.169 339.887 C 133.942 335.549, 135.642 332.031, 135.947 332.070 C 136.251 332.108, 139.573 336.337, 143.329 341.467 C 155.512 358.104, 167.957 369.019, 174.972 369.218 C 181.991 369.418, 185 362.679, 185 346.765 C 185 334.633, 183.203 323, 178.958 307.639 L 175.956 296.778 183.297 288.639 C 196.789 273.683, 202.540 264.637, 203.634 256.653 C 205.744 241.261, 185.120 239.879, 157.832 253.584 C 150.668 257.183, 148.531 257.877, 147.846 256.831 C 147.367 256.099, 144.617 251.088, 141.737 245.696 C 132.490 228.384, 121.964 216.517, 114.828 215.360 C 111.876 214.881, 110.742 215.287, 107.781 217.887 M 147.037 278.931 C 145.899 281.057, 147.930 284, 150.536 284 C 152.728 284, 154.387 280.171, 152.947 278.436 C 151.261 276.404, 148.255 276.656, 147.037 278.931 M 138.362 288.232 C 136.297 295.435, 126.499 298.185, 119.595 293.500 C 115.146 290.481, 114 290.375, 114 292.986 C 114 296.275, 121.053 300.231, 126.919 300.231 C 134.940 300.231, 142.985 293.735, 142.996 287.250 C 143.002 283.605, 139.475 284.352, 138.362 288.232 M 101.569 287.573 C 99.550 289.593, 99.593 290.322, 101.857 292.371 C 103.600 293.948, 103.856 293.937, 106.016 292.188 C 108.446 290.220, 108.149 288.686, 105.014 287.007 C 103.624 286.263, 102.733 286.410, 101.569 287.573 M 148.455 289.455 C 145.456 292.453, 145.351 294.905, 148.073 298.365 C 149.468 300.140, 151.101 301, 153.073 301 C 159.552 301, 162.415 293.045, 157.365 289.073 C 153.905 286.351, 151.453 286.456, 148.455 289.455 M 103.039 299.189 C 97.332 305.315, 105.699 314.171, 112.293 308.984 C 114.134 307.536, 115 305.919, 115 303.927 C 115 297.743, 107.247 294.672, 103.039 299.189" stroke="none" fill="#f6d87d" fill-rule="evenodd"/><path d="M 147.389 278.430 C 146.393 281.025, 147.788 283.169, 150.246 282.820 C 151.898 282.585, 152.500 281.833, 152.500 280 C 152.500 278.167, 151.898 277.415, 150.246 277.180 C 148.893 276.988, 147.750 277.488, 147.389 278.430 M 138.940 287.669 C 135.560 296.588, 125.109 299.209, 118.327 292.837 C 116.728 291.335, 115.647 290.953, 114.954 291.646 C 112.067 294.533, 120.117 300.026, 127.136 299.958 C 134.582 299.887, 141.884 294.313, 142.309 288.376 C 142.573 284.706, 140.247 284.218, 138.940 287.669 M 101.389 288.430 C 100.393 291.025, 101.788 293.169, 104.246 292.820 C 105.898 292.585, 106.500 291.833, 106.500 290 C 106.500 288.167, 105.898 287.415, 104.246 287.180 C 102.893 286.988, 101.750 287.488, 101.389 288.430" stroke="none" fill="#545273" fill-rule="evenodd"/></svg>