<svg xmlns="http://www.w3.org/2000/svg" width="600" height="600" viewBox="0 0 600 600" version="1.1"><path d="M 100.436 188.876 C 94.328 192.601, 89.186 203.844, 85.973 220.500 C 85.337 223.800, 84.574 234.428, 84.277 244.117 L 83.738 261.734 75.619 262.395 C 48.556 264.598, 24.833 269.975, 17.502 275.566 C 10.524 280.889, 10.952 287.128, 18.832 294.949 C 27.153 303.208, 42.407 311.674, 65.578 320.896 C 74.980 324.637, 75.493 324.993, 75.359 327.672 C 75.281 329.227, 74.631 338.903, 73.915 349.173 C 70.141 403.302, 82.734 422.117, 106.112 397.280 C 116.273 386.484, 125.800 370.827, 132.998 353.091 L 136.817 343.682 140.158 348.529 C 152.132 365.895, 168.743 384.179, 178.198 390.398 C 188.128 396.929, 194.403 396.588, 199.047 389.265 C 200.676 386.696, 202.262 382.507, 202.616 379.835 L 203.254 375.027 379.377 374.764 L 555.500 374.500 560.221 372.154 C 565.863 369.349, 571.507 363.368, 574.151 357.393 C 575.975 353.268, 576.061 350.618, 575.788 306.770 L 575.500 260.500 572.839 256 C 569.305 250.023, 565.553 246.593, 559.500 243.804 L 554.500 241.500 391.876 241.238 L 229.252 240.976 228.631 237.097 C 227.870 232.336, 222.696 227.409, 217.417 226.419 C 215.423 226.044, 209.676 225.958, 204.646 226.227 C 193.241 226.836, 181.104 230.784, 165.285 239.030 L 154.071 244.876 149.401 235.700 C 130.286 198.138, 112.749 181.367, 100.436 188.876 M 109.232 216.331 C 101.767 220.475, 96.082 241.305, 96.017 264.750 C 96.005 269.064, 95.613 271.006, 94.750 271.018 C 94.063 271.028, 89.450 271.456, 84.500 271.971 C 62.473 274.259, 48.818 278.420, 44.717 284.094 C 43.008 286.459, 42.971 286.994, 44.291 290.155 C 47.119 296.922, 60.114 305.285, 81.448 314.065 L 90.396 317.748 89.948 323.124 C 89.702 326.081, 89.500 337.275, 89.500 348 C 89.500 365.863, 89.681 367.892, 91.656 372.166 C 92.843 374.732, 94.989 377.602, 96.427 378.544 C 98.887 380.156, 99.301 380.157, 103.472 378.564 C 112.067 375.281, 122.438 361.566, 131.441 341.575 L 135.785 331.931 142.074 340.215 C 160.027 363.864, 171.241 372.512, 178.849 368.578 C 181.603 367.154, 185 361.025, 185 357.480 C 185 356.182, 199.788 356, 305.500 356 L 426 356 426 308 L 426 260 314.701 260 L 203.402 260 203.813 256.478 C 205.626 240.943, 184.933 239.704, 157.085 253.680 C 152.420 256.021, 148.539 257.839, 148.461 257.719 C 148.382 257.598, 146.373 253.900, 143.996 249.500 C 131.661 226.664, 121.158 214.879, 113.282 215.035 C 112.302 215.055, 110.479 215.638, 109.232 216.331" stroke="none" fill="#ffffff" fill-rule="evenodd"/><path d="M 148.455 289.455 C 145.456 292.453, 145.351 294.905, 148.073 298.365 C 149.468 300.140, 151.101 301, 153.073 301 C 159.552 301, 162.415 293.045, 157.365 289.073 C 153.905 286.351, 151.453 286.456, 148.455 289.455 M 103.039 299.189 C 97.332 305.315, 105.699 314.171, 112.293 308.984 C 114.134 307.536, 115 305.919, 115 303.927 C 115 297.743, 107.247 294.672, 103.039 299.189" stroke="none" fill="#f8aaa3" fill-rule="evenodd"/><path d="M 107.926 217.715 C 101.202 223.373, 97.012 239.692, 97.004 260.250 C 97.002 266.163, 96.660 271, 96.244 271 C 93.040 271, 69.103 274.217, 63.497 275.402 C 40.997 280.154, 37.703 288.933, 54.213 300.145 C 60.541 304.442, 76.711 312.327, 85.824 315.560 C 90.693 317.287, 91.097 317.664, 90.555 319.974 C 90.230 321.363, 89.688 331.050, 89.351 341.500 C 88.694 361.864, 89.821 370.458, 93.872 376 C 96.683 379.844, 102.447 379.907, 107.633 376.151 C 115.556 370.411, 125.953 355.001, 131.966 340.083 C 133.759 335.637, 135.512 332.028, 135.862 332.063 C 136.213 332.097, 138.975 335.543, 142 339.719 C 149.300 349.799, 161.429 362.660, 166.946 366.171 C 172.286 369.569, 177.841 369.938, 180.440 367.066 C 187.125 359.680, 186.251 332.192, 178.488 305.667 L 175.903 296.834 182.702 289.321 C 196.231 274.369, 202.618 264.268, 203.716 256.084 C 204.714 248.638, 199.121 244, 189.144 244 C 181.997 244, 167.858 248.410, 157.427 253.893 L 148.355 258.662 143.584 249.307 C 132.943 228.443, 121.005 215, 113.117 215 C 112.037 215, 109.701 216.222, 107.926 217.715 M 147.037 278.931 C 145.899 281.057, 147.930 284, 150.536 284 C 152.728 284, 154.387 280.171, 152.947 278.436 C 151.261 276.404, 148.255 276.656, 147.037 278.931 M 138.362 288.232 C 136.297 295.435, 126.499 298.185, 119.595 293.500 C 115.146 290.481, 114 290.375, 114 292.986 C 114 296.275, 121.053 300.231, 126.919 300.231 C 134.940 300.231, 142.985 293.735, 142.996 287.250 C 143.002 283.605, 139.475 284.352, 138.362 288.232 M 101.569 287.573 C 99.550 289.593, 99.593 290.322, 101.857 292.371 C 103.600 293.948, 103.856 293.937, 106.016 292.188 C 108.446 290.220, 108.149 288.686, 105.014 287.007 C 103.624 286.263, 102.733 286.410, 101.569 287.573 M 148.455 289.455 C 145.456 292.453, 145.351 294.905, 148.073 298.365 C 149.468 300.140, 151.101 301, 153.073 301 C 159.552 301, 162.415 293.045, 157.365 289.073 C 153.905 286.351, 151.453 286.456, 148.455 289.455 M 103.039 299.189 C 97.332 305.315, 105.699 314.171, 112.293 308.984 C 114.134 307.536, 115 305.919, 115 303.927 C 115 297.743, 107.247 294.672, 103.039 299.189" stroke="none" fill="#f6d87d" fill-rule="evenodd"/><path d="M 201.901 263.250 C 199.655 268.692, 192.164 279.033, 183.815 288.216 L 175.891 296.932 178.448 305.024 C 182.109 316.614, 185.118 334.651, 185.303 346.119 L 185.463 356 305.232 356 L 425 356 425 308 L 425 260 314.121 260 L 203.243 260 201.901 263.250" stroke="none" fill="#b1d5ff" fill-rule="evenodd"/><path d="M 147.389 278.430 C 146.393 281.025, 147.788 283.169, 150.246 282.820 C 151.898 282.585, 152.500 281.833, 152.500 280 C 152.500 278.167, 151.898 277.415, 150.246 277.180 C 148.893 276.988, 147.750 277.488, 147.389 278.430 M 138.940 287.669 C 135.560 296.588, 125.109 299.209, 118.327 292.837 C 116.728 291.335, 115.647 290.953, 114.954 291.646 C 112.067 294.533, 120.117 300.026, 127.136 299.958 C 134.582 299.887, 141.884 294.313, 142.309 288.376 C 142.573 284.706, 140.247 284.218, 138.940 287.669 M 101.389 288.430 C 100.393 291.025, 101.788 293.169, 104.246 292.820 C 105.898 292.585, 106.500 291.833, 106.500 290 C 106.500 288.167, 105.898 287.415, 104.246 287.180 C 102.893 286.988, 101.750 287.488, 101.389 288.430" stroke="none" fill="#565574" fill-rule="evenodd"/><path d="M 96.349 263 C 96.349 267.675, 96.522 269.587, 96.732 267.250 C 96.943 264.913, 96.943 261.087, 96.732 258.750 C 96.522 256.413, 96.349 258.325, 96.349 263 M 425.463 308 C 425.463 334.675, 425.592 345.587, 425.749 332.250 C 425.907 318.913, 425.907 297.087, 425.749 283.750 C 425.592 270.413, 425.463 281.325, 425.463 308 M 157 358.500 C 158.866 360.425, 160.617 362, 160.892 362 C 161.167 362, 159.866 360.425, 158 358.500 C 156.134 356.575, 154.383 355, 154.108 355 C 153.833 355, 155.134 356.575, 157 358.500" stroke="none" fill="#e3e9e4" fill-rule="evenodd"/></svg>