<svg xmlns="http://www.w3.org/2000/svg" width="600" height="600" viewBox="0 0 600 600" version="1.1"><path d="M 113.500 186.987 C 106.117 188.578, 101.674 191.141, 95.548 197.340 C 91.720 201.214, 88.187 206.097, 86.029 210.500 C 84.141 214.350, 82.473 217.677, 82.322 217.893 C 82.170 218.110, 78.931 215.347, 75.123 211.755 C 65.410 202.592, 57.020 198.604, 46.524 198.162 C 37.023 197.761, 30.527 199.874, 22.365 206.023 C 15.816 210.956, 13.286 215.112, 11.439 223.969 C 6.916 245.661, 21.888 278.682, 46.969 302.334 C 65.013 319.351, 91.023 334.697, 100.310 333.806 L 103.500 333.500 104.126 339.500 C 105.709 354.677, 113.097 379.526, 117.267 383.696 C 119.451 385.880, 128.961 387.104, 144 387.137 C 165.333 387.184, 181.126 383.543, 199.500 374.343 C 208.463 369.856, 216.762 364.281, 222.533 358.871 L 225.566 356.029 394.533 355.764 L 563.500 355.500 568.122 353.363 C 574.719 350.312, 580.540 344.665, 583.469 338.473 L 586 333.124 586 285.590 L 586 238.057 583.634 232.707 C 580.983 226.714, 575.497 220.869, 569.500 217.648 L 565.500 215.500 365.500 215.500 L 165.500 215.500 161.304 217.743 C 158.997 218.976, 156.911 219.651, 156.670 219.243 C 156.428 218.834, 155.931 216.688, 155.565 214.473 C 154.513 208.105, 147.943 196.908, 143.427 193.784 C 135.643 188.401, 121.667 185.227, 113.500 186.987 M 118.147 209.100 C 108.845 210.876, 100.200 218.431, 95.319 229.050 L 92.768 234.600 87.456 229.414 C 73.462 215.751, 57.610 214.221, 43.754 225.195 C 32.888 233.801, 32.604 251.198, 42.983 272.500 C 50.571 288.075, 62.121 301.294, 79 313.724 C 89.905 321.755, 105.398 328.948, 107.450 326.933 C 109.246 325.170, 109.771 326.013, 110.452 331.750 C 111.564 341.119, 115.606 356.332, 118.656 362.629 C 121.346 368.182, 121.744 368.544, 126 369.308 C 128.475 369.752, 137.700 369.906, 146.500 369.651 C 159.081 369.285, 164.090 368.715, 169.940 366.981 C 186.630 362.035, 199.493 354.483, 210.809 342.985 L 217.685 336 379.342 336 L 541 336 541 285.500 L 541 235 354.750 235.022 C 172.846 235.043, 168.401 235.089, 164.244 236.976 C 161.903 238.039, 158.480 240.058, 156.637 241.463 L 153.287 244.019 152.670 238.118 C 151.137 223.446, 144.393 213.843, 133.466 210.770 C 124.950 208.375, 123.037 208.166, 118.147 209.100" stroke="none" fill="#fffefe" fill-rule="evenodd"/><path d="M 113.885 210.380 C 106.135 213.149, 99.925 219.553, 95.396 229.446 L 92.824 235.065 86.575 229.219 C 72.639 216.183, 58.976 214.575, 45.208 224.352 C 38.517 229.103, 36.667 232.922, 36.187 242.982 C 35.681 253.554, 37.491 261.315, 43.123 272.721 C 48.365 283.337, 54.587 291.447, 65.613 302.030 C 80.145 315.978, 100.899 328.246, 107.262 326.649 C 109.691 326.039, 109.743 325.809, 110.285 313.264 C 111.295 289.910, 117.217 273.578, 128.904 261.919 C 136.235 254.606, 141.870 252.295, 149.311 253.552 L 153.272 254.222 152.763 243.861 C 152.058 229.524, 147.855 218.572, 141.444 214.371 C 134.176 209.609, 121.272 207.740, 113.885 210.380" stroke="none" fill="#ffc7c2" fill-rule="evenodd"/><path d="M 139.500 254.210 C 133.436 255.876, 123.233 266.572, 118.692 276.024 C 107.514 299.292, 107.320 334.454, 118.225 360.665 L 121.206 367.831 127.435 368.915 C 142.456 371.531, 164.372 369.247, 178.873 363.554 C 202.958 354.099, 221.645 335.233, 223.644 318.356 C 224.141 314.160, 223.795 312.233, 221.741 307.744 C 218.645 300.983, 212.953 294.546, 207.568 291.719 C 201.963 288.776, 189.907 288.838, 181.535 291.852 C 178.254 293.034, 175.495 294, 175.404 294 C 175.313 294, 175.040 289.837, 174.798 284.750 C 174.277 273.823, 171.782 267.142, 166.188 261.692 C 159.400 255.078, 147.987 251.879, 139.500 254.210" stroke="none" fill="#b1d5ff" fill-rule="evenodd"/><path d="M 164.180 237.004 C 156.284 240.588, 154.558 242.548, 153.988 248.582 C 153.481 253.952, 153.505 254.012, 156.659 255.052 C 168.095 258.827, 175.956 271.922, 175.988 287.250 C 175.995 290.413, 176.155 293, 176.345 293 C 176.534 293, 179.347 292.111, 182.595 291.025 C 195.411 286.737, 208.642 289.272, 215.759 297.378 C 224.817 307.694, 226.397 317.997, 220.668 329.380 L 217.336 336 379.168 336 L 541 336 541 285.500 L 541 235 354.750 235.022 C 171.913 235.044, 168.421 235.080, 164.180 237.004" stroke="none" fill="#fefa9d" fill-rule="evenodd"/><path d="M 35.272 245 C 35.272 247.475, 35.467 248.488, 35.706 247.250 C 35.944 246.012, 35.944 243.988, 35.706 242.750 C 35.467 241.512, 35.272 242.525, 35.272 245 M 175.272 288 C 175.272 290.475, 175.467 291.488, 175.706 290.250 C 175.944 289.012, 175.944 286.988, 175.706 285.750 C 175.467 284.512, 175.272 285.525, 175.272 288 M 62.500 300 C 65.209 302.750, 67.650 305, 67.925 305 C 68.200 305, 66.209 302.750, 63.500 300 C 60.791 297.250, 58.350 295, 58.075 295 C 57.800 295, 59.791 297.250, 62.500 300" stroke="none" fill="#e9f1fb" fill-rule="evenodd"/><path d="M 153.286 248.500 C 153.294 251.250, 153.488 252.256, 153.718 250.736 C 153.947 249.216, 153.941 246.966, 153.704 245.736 C 153.467 244.506, 153.279 245.750, 153.286 248.500" stroke="none" fill="#fbf1a4" fill-rule="evenodd"/></svg>