<svg xmlns="http://www.w3.org/2000/svg" width="600" height="600" viewBox="0 0 600 600" version="1.1"><path d="M 113.500 186.987 C 106.117 188.578, 101.674 191.141, 95.548 197.340 C 91.720 201.214, 88.187 206.097, 86.029 210.500 C 84.141 214.350, 82.473 217.677, 82.322 217.893 C 82.170 218.110, 78.931 215.347, 75.123 211.755 C 65.410 202.592, 57.020 198.604, 46.524 198.162 C 37.023 197.761, 30.527 199.874, 22.365 206.023 C 15.816 210.956, 13.286 215.112, 11.439 223.969 C 6.916 245.661, 21.888 278.682, 46.969 302.334 C 65.013 319.351, 91.023 334.697, 100.310 333.806 L 103.500 333.500 104.126 339.500 C 105.709 354.677, 113.097 379.526, 117.267 383.696 C 119.451 385.880, 128.961 387.104, 144 387.137 C 165.333 387.184, 181.126 383.543, 199.500 374.343 C 208.463 369.856, 216.762 364.281, 222.533 358.871 L 225.566 356.029 394.533 355.764 L 563.500 355.500 568.122 353.363 C 574.719 350.312, 580.540 344.665, 583.469 338.473 L 586 333.124 586 285.590 L 586 238.057 583.634 232.707 C 580.983 226.714, 575.497 220.869, 569.500 217.648 L 565.500 215.500 365.500 215.500 L 165.500 215.500 161.304 217.743 C 158.997 218.976, 156.911 219.651, 156.670 219.243 C 156.428 218.834, 155.931 216.688, 155.565 214.473 C 154.513 208.105, 147.943 196.908, 143.427 193.784 C 135.643 188.401, 121.667 185.227, 113.500 186.987 M 116.500 208.935 C 108.585 210.862, 100.857 217.839, 95.770 227.651 L 92.511 233.936 88.505 230.090 C 81.814 223.664, 76.330 220.311, 69.477 218.456 C 63.319 216.789, 62.598 216.784, 56.924 218.361 C 38.252 223.553, 31.487 236.843, 36.903 257.695 C 42.417 278.922, 59.972 301.489, 82.900 316.826 C 93.457 323.887, 105.431 328.836, 108.031 327.213 C 109.575 326.249, 109.828 326.787, 110.429 332.317 C 111.872 345.589, 118.360 366.251, 121.742 368.341 C 122.287 368.677, 127.091 369.488, 132.418 370.143 C 161.500 373.717, 196.112 361.171, 213.081 340.904 L 217.186 336 283.093 336 L 349 336 349 285 L 349 234 260.682 234 C 163.880 234, 166.665 233.838, 158.226 239.951 L 154.126 242.922 153.004 237.211 C 149.373 218.733, 143.321 211.877, 128.114 209.014 C 122.125 207.887, 120.842 207.878, 116.500 208.935" stroke="none" fill="#fffefd" fill-rule="evenodd"/><path d="M 164.244 236.976 C 161.903 238.039, 158.415 240.107, 156.494 241.573 C 153.356 243.966, 153 244.727, 153 249.045 L 153 253.853 158.250 256.278 C 164.588 259.205, 168.413 262.908, 171.604 269.206 C 174.231 274.389, 176.409 286.863, 175.450 291.230 C 175.115 292.753, 174.989 294, 175.171 293.999 C 175.352 293.999, 177.975 293.017, 181 291.817 C 188.420 288.874, 201.729 288.698, 207.403 291.468 C 213.130 294.263, 217.861 299.478, 221.260 306.741 C 223.822 312.216, 224.181 313.954, 223.706 318.560 C 223.387 321.648, 221.839 326.537, 220.090 329.980 L 217.030 336 283.015 336 L 349 336 349 285.500 L 349 235 258.750 235.022 C 171.720 235.043, 168.348 235.113, 164.244 236.976" stroke="none" fill="#fefa9d" fill-rule="evenodd"/><path d="M 139.500 254.210 C 133.436 255.876, 123.233 266.572, 118.692 276.024 C 107.393 299.545, 107.355 336.987, 118.606 362.057 C 121.879 369.350, 122.477 369.524, 144 369.438 C 162.739 369.363, 171.351 367.449, 186.522 359.986 C 207.403 349.713, 222.351 332.815, 223.788 317.855 C 224.633 309.061, 217.017 296.600, 207.979 291.989 C 200.220 288.031, 188.251 288.619, 176.591 293.532 C 174.901 294.244, 174.750 293.998, 175.274 291.379 C 176.247 286.515, 174.247 274.418, 171.620 269.278 C 170.277 266.650, 167.676 263.061, 165.839 261.301 C 159.317 255.053, 147.758 251.941, 139.500 254.210" stroke="none" fill="#b1d5ff" fill-rule="evenodd"/><path d="M 113.885 210.380 C 106.139 213.148, 99.925 219.554, 95.402 229.432 L 92.837 235.036 85.935 228.646 C 71.349 215.142, 54.957 214.541, 42.078 227.040 C 37.427 231.554, 36.013 235.861, 36.006 245.540 C 35.987 269.546, 54.546 297.292, 83.466 316.495 C 93.308 323.030, 103.817 327.514, 107.262 326.649 C 109.691 326.039, 109.743 325.809, 110.285 313.264 C 111.295 289.910, 117.217 273.578, 128.904 261.919 C 136.235 254.606, 141.870 252.295, 149.311 253.552 L 153.272 254.222 152.774 243.861 C 152.025 228.273, 147.369 217.311, 139.846 213.420 C 131.539 209.125, 120.888 207.877, 113.885 210.380" stroke="none" fill="#ffc7c2" fill-rule="evenodd"/><path d="M 87.916 230.207 C 92.053 234.617, 94.105 235.466, 93.921 232.691 C 93.870 231.923, 93.652 231.978, 93.306 232.845 C 92.932 233.783, 91.367 232.875, 88.135 229.845 L 83.500 225.500 87.916 230.207 M 215.250 234.750 C 239.862 234.899, 280.137 234.899, 304.750 234.750 C 329.362 234.601, 309.225 234.479, 260 234.479 C 210.775 234.479, 190.637 234.601, 215.250 234.750 M 35.336 245 C 35.336 249.125, 35.513 250.813, 35.728 248.750 C 35.944 246.688, 35.944 243.313, 35.728 241.250 C 35.513 239.188, 35.336 240.875, 35.336 245 M 67 304.500 C 68.866 306.425, 70.617 308, 70.892 308 C 71.167 308, 69.866 306.425, 68 304.500 C 66.134 302.575, 64.383 301, 64.108 301 C 63.833 301, 65.134 302.575, 67 304.500 M 208.946 344.750 L 205.500 348.500 209.250 345.054 C 212.740 341.846, 213.460 341, 212.696 341 C 212.529 341, 210.842 342.688, 208.946 344.750 M 138.776 370.733 C 141.128 370.945, 144.728 370.942, 146.776 370.727 C 148.824 370.512, 146.900 370.339, 142.500 370.343 C 138.100 370.346, 136.424 370.522, 138.776 370.733" stroke="none" fill="#fbfbfb" fill-rule="evenodd"/></svg>