<svg xmlns="http://www.w3.org/2000/svg" width="600" height="600" viewBox="0 0 600 600" version="1.1"><path d="M 100.032 174.019 C 89.830 175.451, 78.143 178.175, 76.240 179.565 C 74.672 180.711, 74.415 184.371, 73.641 216.668 C 73.086 239.848, 72.410 252.733, 71.726 253.161 C 71.145 253.525, 68.606 254.130, 66.085 254.506 C 58.380 255.656, 55.377 257.364, 54.648 261.012 C 54.291 262.793, 54 291.333, 54 324.434 C 54 371.073, 54.281 384.973, 55.250 386.195 C 56.644 387.955, 65.881 391.146, 76.500 393.536 C 87.243 395.954, 117.283 396.610, 128.414 394.670 C 134.019 393.693, 137.997 392.445, 139.130 391.308 C 140.680 389.751, 141.014 386.998, 141.528 371.500 C 142.333 347.221, 141.808 348.854, 148.247 350.620 C 152.736 351.851, 180.472 352.051, 339 351.997 C 458.603 351.957, 525.817 351.581, 528.208 350.940 C 533.450 349.534, 539.942 344.265, 543.479 338.544 L 546.500 333.657 546.500 286.078 C 546.500 239.171, 546.469 238.443, 544.330 234.447 C 541.473 229.110, 536.448 224.196, 531.500 221.900 C 527.657 220.117, 521.291 220.043, 369.725 220.022 L 211.950 220 211.016 217.541 C 210.283 215.615, 208.609 214.642, 203.290 213.054 C 194.151 210.324, 179.077 208.009, 170.404 208.004 L 163.309 208 162.665 195.296 C 162.251 187.134, 161.570 182.167, 160.760 181.402 C 155.415 176.353, 116.825 171.661, 100.032 174.019 M 95 190.679 C 80.722 193.186, 81.604 192.010, 80.879 209.510 C 80.538 217.755, 80.200 232.029, 80.129 241.231 C 80.002 257.731, 79.969 257.968, 77.750 258.424 C 66.009 260.833, 64.846 261.276, 63.931 263.681 C 63.399 265.082, 63 288.992, 63 319.542 L 63 372.954 65.357 374.498 C 66.653 375.348, 72.166 377.204, 77.607 378.624 C 95.216 383.219, 131.297 382.927, 137.001 378.144 C 138.755 376.673, 139.032 374.678, 139.637 359.156 L 140.313 341.813 143.390 342.428 C 157.371 345.224, 174.969 345.388, 189.767 342.860 C 196.209 341.759, 199 339.618, 199 335.777 C 199 334.101, 201.503 334, 243 334 C 267.200 334, 287.028 333.663, 287.063 333.250 C 287.152 332.206, 287.159 241.903, 287.071 239.750 C 287.005 238.111, 284.235 238, 243.500 238 L 200 238 200 232.691 C 200 229.771, 199.438 226.634, 198.750 225.719 C 196.880 223.231, 182 219.998, 169.250 219.310 L 158 218.703 158 208.786 C 158 203.331, 157.542 198.013, 156.983 196.968 C 153.655 190.749, 116.227 186.951, 95 190.679 M 111.607 214.582 C 110.579 217.262, 110.930 219, 112.500 219 C 113.500 219, 114 218, 114 216 C 114 212.794, 112.609 211.970, 111.607 214.582 M 128.963 240.598 C 127.538 244.345, 128.113 247.406, 130.320 247.827 C 132.604 248.262, 140 243.463, 140 241.545 C 140 239.704, 139.375 239.375, 134.258 238.529 C 130.269 237.869, 129.953 237.992, 128.963 240.598 M 102.528 239.954 C 101.812 241.114, 102.903 246.027, 104.260 247.750 C 104.802 248.438, 105.865 249, 106.622 249 C 108.371 249, 108.514 241.914, 106.800 240.200 C 105.358 238.758, 103.339 238.642, 102.528 239.954 M 115.559 242.887 C 113.593 246.688, 113.578 248.901, 115.513 249.643 C 118.076 250.627, 120.130 248.002, 119.801 244.163 C 119.412 239.632, 117.534 239.067, 115.559 242.887 M 94 247.326 C 94 249.981, 97.802 254, 100.314 254 C 102.684 254, 102.413 252.231, 99.449 248.344 C 96.465 244.432, 94 243.971, 94 247.326 M 107 255 C 106.018 256.835, 106.241 257.001, 109.715 257.014 C 111.797 257.021, 114.625 257.313, 116 257.662 L 118.500 258.296 116.076 255.648 C 113.106 252.405, 108.563 252.080, 107 255 M 146.119 269.356 C 144.562 271.233, 145.440 276.290, 147.640 278.117 C 150.898 280.820, 152.260 273.777, 149.208 270.008 C 147.606 268.031, 147.277 267.961, 146.119 269.356 M 158.593 272.170 C 156.265 275.494, 156.479 280, 158.965 280 C 161.387 280, 163.228 276.783, 162.812 273.278 C 162.401 269.823, 160.574 269.343, 158.593 272.170 M 67.469 286.578 C 66.636 297.677, 67.556 301, 71.460 301 C 74.219 301, 74.788 299.644, 75.236 292 C 75.486 287.741, 75.647 287.515, 78.250 287.788 C 80.769 288.052, 81 287.789, 81 284.660 C 81 282.782, 80.438 280.819, 79.750 280.298 C 78.457 279.317, 71.062 277, 69.227 277 C 68.629 277, 67.882 281.070, 67.469 286.578 M 141 280.309 C 141 282.923, 141.438 284, 142.500 284 C 144.401 284, 144.384 281.091, 142.468 278.559 C 141.092 276.739, 141 276.849, 141 280.309 M 166.627 279.250 C 165.847 280.488, 164.906 282.512, 164.537 283.750 C 164.009 285.520, 164.264 286, 165.733 286 C 168.507 286, 170 284.006, 170 280.300 C 170 276.467, 168.648 276.046, 166.627 279.250 M 150.299 284.250 C 147.492 287.332, 145.947 290.515, 144.386 296.434 C 142.709 302.789, 143.532 303.671, 149.564 301.982 C 153.704 300.823, 154.611 300.874, 157.505 302.433 C 164.622 306.266, 167.594 299.103, 162.496 290.403 C 160.143 286.387, 155.326 282, 153.270 282 C 152.763 282, 151.426 283.012, 150.299 284.250 M 85.523 307.927 C 84.720 310.456, 87.596 317.299, 89.236 316.761 C 92.124 315.812, 90.625 306, 87.592 306 C 86.791 306, 85.860 306.867, 85.523 307.927 M 98.241 309.986 C 96.533 312.720, 96.683 316.941, 98.513 317.643 C 101.008 318.601, 103 316.041, 103 311.878 C 103 308.843, 102.617 308, 101.241 308 C 100.273 308, 98.923 308.894, 98.241 309.986 M 76 314.507 C 76 316.302, 81.220 322, 82.864 322 C 84.957 322, 84.897 320.143, 82.699 316.873 C 80.227 313.196, 76 311.704, 76 314.507 M 107.750 316.240 C 105.154 318.211, 103.689 322.943, 105.463 323.624 C 107.423 324.376, 108.940 323.289, 110.067 320.324 C 111.363 316.915, 110.007 314.526, 107.750 316.240 M 90.131 322.360 C 87.379 325.290, 84 333.979, 84 338.127 C 84 341.013, 84.195 341.185, 86.750 340.556 C 93.429 338.911, 94.897 338.895, 97.877 340.436 C 104.319 343.767, 107.756 338.259, 104.034 330.570 C 101.806 325.968, 95.937 320, 93.640 320 C 92.930 320, 91.351 321.062, 90.131 322.360" stroke="none" fill="#ffffff" fill-rule="evenodd"/><path d="M 100.032 174.019 C 89.830 175.451, 78.143 178.175, 76.240 179.565 C 74.672 180.711, 74.415 184.371, 73.641 216.668 C 73.086 239.848, 72.410 252.733, 71.726 253.161 C 71.145 253.525, 68.606 254.130, 66.085 254.506 C 58.380 255.656, 55.377 257.364, 54.648 261.012 C 54.291 262.793, 54 291.333, 54 324.434 C 54 371.073, 54.281 384.973, 55.250 386.195 C 56.644 387.955, 65.881 391.146, 76.500 393.536 C 87.243 395.954, 117.283 396.610, 128.414 394.670 C 134.019 393.693, 137.997 392.445, 139.130 391.308 C 140.680 389.751, 141.014 386.998, 141.528 371.500 C 142.333 347.221, 141.808 348.854, 148.247 350.620 C 152.736 351.851, 180.472 352.051, 339 351.997 C 458.603 351.957, 525.817 351.581, 528.208 350.940 C 533.450 349.534, 539.942 344.265, 543.479 338.544 L 546.500 333.657 546.500 286.078 C 546.500 239.171, 546.469 238.443, 544.330 234.447 C 541.473 229.110, 536.448 224.196, 531.500 221.900 C 527.657 220.117, 521.291 220.043, 369.725 220.022 L 211.950 220 211.016 217.541 C 210.283 215.615, 208.609 214.642, 203.290 213.054 C 194.151 210.324, 179.077 208.009, 170.404 208.004 L 163.309 208 162.665 195.296 C 162.251 187.134, 161.570 182.167, 160.760 181.402 C 155.415 176.353, 116.825 171.661, 100.032 174.019 M 95 190.679 C 80.722 193.186, 81.604 192.010, 80.879 209.510 C 80.538 217.755, 80.200 232.029, 80.129 241.231 C 80.002 257.731, 79.969 257.968, 77.750 258.424 C 66.009 260.833, 64.846 261.276, 63.931 263.681 C 63.399 265.082, 63 288.992, 63 319.542 L 63 372.954 65.357 374.498 C 66.653 375.348, 72.166 377.204, 77.607 378.624 C 95.216 383.219, 131.297 382.927, 137.001 378.144 C 138.755 376.673, 139.032 374.678, 139.637 359.156 L 140.313 341.813 143.390 342.428 C 157.371 345.224, 174.969 345.388, 189.767 342.860 C 196.209 341.759, 199 339.618, 199 335.777 C 199 334.101, 201.503 334, 243 334 C 267.200 334, 287.028 333.663, 287.063 333.250 C 287.152 332.206, 287.159 241.903, 287.071 239.750 C 287.005 238.111, 284.235 238, 243.500 238 L 200 238 200 232.691 C 200 229.771, 199.438 226.634, 198.750 225.719 C 196.880 223.231, 182 219.998, 169.250 219.310 L 158 218.703 158 208.786 C 158 203.331, 157.542 198.013, 156.983 196.968 C 153.655 190.749, 116.227 186.951, 95 190.679 M 111.607 214.582 C 110.579 217.262, 110.930 219, 112.500 219 C 113.500 219, 114 218, 114 216 C 114 212.794, 112.609 211.970, 111.607 214.582 M 128.963 240.598 C 127.538 244.345, 128.113 247.406, 130.320 247.827 C 132.604 248.262, 140 243.463, 140 241.545 C 140 239.704, 139.375 239.375, 134.258 238.529 C 130.269 237.869, 129.953 237.992, 128.963 240.598 M 102.528 239.954 C 101.812 241.114, 102.903 246.027, 104.260 247.750 C 104.802 248.438, 105.865 249, 106.622 249 C 108.371 249, 108.514 241.914, 106.800 240.200 C 105.358 238.758, 103.339 238.642, 102.528 239.954 M 115.559 242.887 C 113.593 246.688, 113.578 248.901, 115.513 249.643 C 118.076 250.627, 120.130 248.002, 119.801 244.163 C 119.412 239.632, 117.534 239.067, 115.559 242.887 M 94 247.326 C 94 249.981, 97.802 254, 100.314 254 C 102.684 254, 102.413 252.231, 99.449 248.344 C 96.465 244.432, 94 243.971, 94 247.326 M 107 255 C 106.018 256.835, 106.241 257.001, 109.715 257.014 C 111.797 257.021, 114.625 257.313, 116 257.662 L 118.500 258.296 116.076 255.648 C 113.106 252.405, 108.563 252.080, 107 255 M 146.119 269.356 C 144.562 271.233, 145.440 276.290, 147.640 278.117 C 150.898 280.820, 152.260 273.777, 149.208 270.008 C 147.606 268.031, 147.277 267.961, 146.119 269.356 M 158.593 272.170 C 156.265 275.494, 156.479 280, 158.965 280 C 161.387 280, 163.228 276.783, 162.812 273.278 C 162.401 269.823, 160.574 269.343, 158.593 272.170 M 67.469 286.578 C 66.636 297.677, 67.556 301, 71.460 301 C 74.219 301, 74.788 299.644, 75.236 292 C 75.486 287.741, 75.647 287.515, 78.250 287.788 C 80.769 288.052, 81 287.789, 81 284.660 C 81 282.782, 80.438 280.819, 79.750 280.298 C 78.457 279.317, 71.062 277, 69.227 277 C 68.629 277, 67.882 281.070, 67.469 286.578 M 141 280.309 C 141 282.923, 141.438 284, 142.500 284 C 144.401 284, 144.384 281.091, 142.468 278.559 C 141.092 276.739, 141 276.849, 141 280.309 M 166.627 279.250 C 165.847 280.488, 164.906 282.512, 164.537 283.750 C 164.009 285.520, 164.264 286, 165.733 286 C 168.507 286, 170 284.006, 170 280.300 C 170 276.467, 168.648 276.046, 166.627 279.250 M 150.299 284.250 C 147.492 287.332, 145.947 290.515, 144.386 296.434 C 142.709 302.789, 143.532 303.671, 149.564 301.982 C 153.704 300.823, 154.611 300.874, 157.505 302.433 C 164.622 306.266, 167.594 299.103, 162.496 290.403 C 160.143 286.387, 155.326 282, 153.270 282 C 152.763 282, 151.426 283.012, 150.299 284.250 M 85.523 307.927 C 84.720 310.456, 87.596 317.299, 89.236 316.761 C 92.124 315.812, 90.625 306, 87.592 306 C 86.791 306, 85.860 306.867, 85.523 307.927 M 98.241 309.986 C 96.533 312.720, 96.683 316.941, 98.513 317.643 C 101.008 318.601, 103 316.041, 103 311.878 C 103 308.843, 102.617 308, 101.241 308 C 100.273 308, 98.923 308.894, 98.241 309.986 M 76 314.507 C 76 316.302, 81.220 322, 82.864 322 C 84.957 322, 84.897 320.143, 82.699 316.873 C 80.227 313.196, 76 311.704, 76 314.507 M 107.750 316.240 C 105.154 318.211, 103.689 322.943, 105.463 323.624 C 107.423 324.376, 108.940 323.289, 110.067 320.324 C 111.363 316.915, 110.007 314.526, 107.750 316.240 M 90.131 322.360 C 87.379 325.290, 84 333.979, 84 338.127 C 84 341.013, 84.195 341.185, 86.750 340.556 C 93.429 338.911, 94.897 338.895, 97.877 340.436 C 104.319 343.767, 107.756 338.259, 104.034 330.570 C 101.806 325.968, 95.937 320, 93.640 320 C 92.930 320, 91.351 321.062, 90.131 322.360" stroke="none" fill="#ffffff" fill-rule="evenodd"/><path d="M 123.048 195.949 C 122.249 196.455, 121.237 196.646, 120.798 196.375 C 120.359 196.104, 120 196.359, 120 196.941 C 120 197.523, 119.298 198, 118.441 198 C 117.584 198, 117.143 198.422, 117.462 198.939 C 117.781 199.455, 117.258 200.316, 116.300 200.852 C 114.848 201.664, 115.161 201.940, 118.178 202.506 C 123.352 203.476, 132.500 201.870, 132.500 199.991 C 132.500 199.069, 131.736 198.611, 130.500 198.792 C 128.986 199.013, 128.835 198.858, 129.878 198.154 C 130.636 197.642, 130.947 196.723, 130.569 196.112 C 129.311 194.076, 127.268 194.963, 125.648 198.250 C 124.767 200.037, 124.028 201.050, 124.007 200.500 C 123.987 199.950, 123.533 200.175, 123 201 C 122.216 202.213, 122.028 202.069, 122.015 200.250 C 122.007 199.012, 122.402 198, 122.893 198 C 123.384 198, 124.045 197.325, 124.362 196.500 C 125.031 194.755, 124.974 194.731, 123.048 195.949 M 115.728 207.722 C 117.503 207.943, 120.653 207.946, 122.728 207.730 C 124.802 207.513, 123.350 207.333, 119.500 207.328 C 115.650 207.324, 113.952 207.501, 115.728 207.722 M 159.500 224.886 C 156.583 225.590, 156.564 225.632, 158.823 226.396 C 161.016 227.137, 161.052 227.285, 159.469 229.035 C 158.546 230.054, 156.826 231.094, 155.646 231.345 C 154.466 231.597, 158 231.768, 163.500 231.725 C 175.421 231.633, 177 231.314, 177 229.005 C 177 225.891, 166.035 223.310, 159.500 224.886 M 148.343 225.649 C 149.571 226.004, 150.019 226.819, 149.686 228.091 C 149.412 229.141, 149.626 230, 150.163 230 C 152.106 230, 150.515 225.522, 148.500 225.318 C 146.771 225.142, 146.750 225.187, 148.343 225.649 M 123.300 232 C 123.300 235.025, 123.487 236.262, 123.716 234.750 C 123.945 233.238, 123.945 230.762, 123.716 229.250 C 123.487 227.738, 123.300 228.975, 123.300 232 M 193.437 273 C 193.437 287.575, 193.577 293.538, 193.747 286.250 C 193.918 278.962, 193.918 267.038, 193.747 259.750 C 193.577 252.463, 193.437 258.425, 193.437 273 M 200.389 267.500 C 200.390 274.650, 200.550 277.444, 200.742 273.708 C 200.935 269.973, 200.934 264.123, 200.739 260.708 C 200.545 257.294, 200.387 260.350, 200.389 267.500 M 99.500 262.896 C 97.112 263.421, 96.857 263.696, 98.250 264.246 C 101.080 265.364, 100.270 267.865, 96.750 268.881 C 94.125 269.639, 95.230 269.823, 102.500 269.840 C 112.228 269.861, 114.500 269.324, 114.500 267 C 114.500 266.175, 115.175 265.645, 116 265.821 C 117.149 266.068, 117.227 265.864, 116.330 264.952 C 114.108 262.689, 105.326 261.616, 99.500 262.896 M 133.397 297 C 133.397 304.975, 133.553 308.238, 133.743 304.250 C 133.932 300.262, 133.932 293.738, 133.743 289.750 C 133.553 285.762, 133.397 289.025, 133.397 297 M 193.272 307 C 193.272 309.475, 193.467 310.488, 193.706 309.250 C 193.944 308.012, 193.944 305.988, 193.706 304.750 C 193.467 303.512, 193.272 304.525, 193.272 307 M 133.409 332.500 C 133.408 341.850, 133.558 345.810, 133.743 341.299 C 133.928 336.789, 133.929 329.139, 133.745 324.299 C 133.562 319.460, 133.410 323.150, 133.409 332.500" stroke="none" fill="#d0d7d7" fill-rule="evenodd"/><path d="M 80.658 233.082 C 80.296 239.809, 80 248.104, 80 251.514 L 80 257.714 92.250 257.242 C 103.643 256.803, 104.689 256.593, 107.202 254.244 C 109.634 251.970, 110.197 251.839, 112.835 252.932 C 114.447 253.599, 116.716 255.238, 117.876 256.573 C 119.037 257.908, 121.012 259, 122.265 259 C 126.062 259, 138.203 262.712, 139.115 264.152 C 139.585 264.893, 139.976 267.685, 139.985 270.356 C 139.996 274.062, 140.592 275.915, 142.500 278.182 C 143.875 279.816, 145 281.794, 145 282.577 C 145 283.428, 143.996 284, 142.500 284 C 140.527 284, 140 284.507, 140 286.402 C 140 288.166, 139.212 289.079, 137.036 289.838 L 134.071 290.871 133.747 301.186 L 133.422 311.500 133.211 301.183 C 133.021 291.874, 132.829 290.917, 131.250 291.395 C 119.778 294.866, 88.648 294.855, 76.750 291.377 C 75.232 290.933, 75 291.602, 75 296.433 C 75 302.373, 74.523 302.783, 69.250 301.370 C 67.246 300.833, 67 300.135, 67 294.990 C 67 290.910, 66.581 289.053, 65.573 288.666 C 63.412 287.837, 62.848 296.692, 63.196 325.972 L 63.500 351.445 72.492 353.689 C 85.295 356.884, 101.434 358.197, 113.618 357.036 C 126.213 355.836, 131.999 354.919, 132.002 354.122 C 132.004 353.780, 133.401 353.450, 135.108 353.388 C 136.815 353.327, 138.607 352.652, 139.090 351.888 C 139.574 351.125, 139.976 343.177, 139.985 334.227 L 140 317.953 148.250 318.727 C 166.713 320.457, 191.985 318.390, 192.015 315.147 C 192.027 313.841, 192.209 313.781, 192.890 314.857 C 193.840 316.355, 197.961 315.548, 199.235 313.615 C 199.639 313.002, 199.976 298.686, 199.985 281.802 L 200 251.104 197.015 252.145 L 194.030 253.185 193.749 282.343 L 193.469 311.500 193.234 282.435 L 193 253.370 185.250 254.791 C 180.881 255.593, 171.175 256.218, 163 256.225 C 148.876 256.237, 147.177 256.013, 125.250 251.255 C 123.271 250.826, 123 251.166, 123 254.083 C 123 256.573, 122.715 257.115, 121.856 256.256 C 121.024 255.424, 121.002 254.343, 121.774 252.306 C 123.771 247.037, 124.088 243.799, 123.418 235.539 L 122.747 227.277 113.392 226.620 C 105.394 226.058, 90.591 223.504, 83.408 221.448 C 81.390 220.871, 81.292 221.285, 80.658 233.082 M 102.445 240.361 C 101.707 243.303, 102.541 246.398, 104.637 248.494 C 106.846 250.703, 107.763 250.356, 108.492 247.036 C 109.787 241.139, 103.885 234.624, 102.445 240.361 M 115.087 242.338 C 113.236 245.796, 114.029 250.500, 116.462 250.500 C 119.123 250.500, 121.486 246.072, 120.635 242.681 C 119.791 239.317, 116.802 239.132, 115.087 242.338 M 93.429 247.750 C 94.071 250.482, 98.220 255, 100.087 255 C 102.140 255, 102.106 251.908, 100.016 248.525 C 98.453 245.996, 97.123 245, 95.310 245 C 93.064 245, 92.855 245.305, 93.429 247.750 M 145.667 268.667 C 144.646 269.688, 144.874 274.896, 146.035 277.066 C 146.605 278.130, 147.955 279, 149.035 279 C 150.621 279, 151 278.312, 151 275.434 C 151 269.832, 148.136 266.197, 145.667 268.667 M 159.242 270.543 C 155.560 273.122, 155.416 281, 159.051 281 C 161.055 281, 163 277.547, 163 273.988 C 163 269.410, 162.073 268.560, 159.242 270.543 M 166.573 278.570 C 164.497 280.646, 163.488 284.888, 164.766 286.166 C 167.345 288.745, 172.159 282.463, 170.639 278.502 C 169.899 276.573, 168.547 276.596, 166.573 278.570 M 149.693 283.787 C 147.380 286.343, 144.199 293.901, 143.441 298.645 C 142.632 303.706, 144.317 304.657, 150.036 302.369 C 153.679 300.911, 154.218 300.913, 156.471 302.389 C 157.823 303.275, 159.776 304, 160.810 304 C 163.274 304, 166 300.918, 166 298.131 C 166 292.740, 157.702 282, 153.536 282 C 152.312 282, 150.582 282.804, 149.693 283.787 M 85.667 306.667 C 84.289 308.044, 85.052 313.737, 86.829 315.345 C 89.850 318.080, 91 317.350, 91 312.700 C 91 307.403, 88.152 304.181, 85.667 306.667 M 98.668 309.188 C 96.180 313.129, 95.815 315.672, 97.495 317.352 C 100.632 320.490, 103.562 316.697, 102.828 310.448 C 102.403 306.832, 100.516 306.260, 98.668 309.188 M 76.667 312.667 C 74.287 315.046, 78.688 322, 82.573 322 C 85.392 322, 85.573 321.009, 83.490 316.980 C 81.618 313.361, 78.159 311.174, 76.667 312.667 M 105.375 318.339 C 103.723 321.805, 104.007 325, 105.969 325 C 108.168 325, 111.118 320.855, 110.811 318.198 C 110.335 314.096, 107.362 314.174, 105.375 318.339 M 133.409 332.500 C 133.408 341.850, 133.558 345.810, 133.743 341.299 C 133.928 336.789, 133.929 329.139, 133.745 324.299 C 133.562 319.460, 133.410 323.150, 133.409 332.500 M 89.693 321.787 C 87.147 324.600, 83.974 332.530, 83.726 336.698 C 83.477 340.879, 82.809 340.649, 93 339.880 C 94.375 339.777, 96.940 340.301, 98.700 341.046 C 101.558 342.256, 102.118 342.203, 103.950 340.545 C 107.644 337.202, 105.789 330.099, 99.471 323.400 C 95.875 319.588, 92.228 318.986, 89.693 321.787" stroke="none" fill="#efcdff" fill-rule="evenodd"/><path d="M 116.629 196.475 C 117.226 198.032, 120 198.639, 120 197.213 C 120 196.780, 120.900 196.358, 122 196.275 C 123.100 196.192, 124 196.546, 124 197.062 C 124 197.578, 123.550 198, 123 198 C 122.450 198, 122.007 199.012, 122.015 200.250 C 122.028 202.069, 122.216 202.213, 123 201 C 123.533 200.175, 123.979 199.950, 123.991 200.500 C 124.008 201.300, 127 196.369, 127 195.540 C 127 195.413, 124.535 195.228, 121.522 195.130 C 116.980 194.981, 116.144 195.211, 116.629 196.475 M 130.033 197.791 C 128.733 199.200, 128.758 199.307, 130.256 198.732 C 131.316 198.325, 132.319 198.721, 132.943 199.792 C 133.832 201.316, 133.942 201.324, 133.970 199.872 C 134.020 197.183, 131.717 195.965, 130.033 197.791 M 200.374 271.446 C 200.304 289.291, 199.920 310.441, 199.520 318.446 L 198.792 333 242.896 333 L 287 333 287 286 L 287 239 243.750 239 L 200.500 239 200.374 271.446 M 114.500 266 C 114.101 266.646, 114.224 267.624, 114.774 268.174 C 115.441 268.841, 116.016 268.783, 116.500 268 C 116.899 267.354, 116.776 266.376, 116.226 265.826 C 115.559 265.159, 114.984 265.217, 114.500 266" stroke="none" fill="#ced5d5" fill-rule="evenodd"/><path d="M 108.500 189.669 C 98.233 190.336, 84.811 193.189, 82.887 195.113 C 81.249 196.751, 81 198.570, 81 208.883 C 81 222.573, 79.323 220.743, 94.876 224.027 C 100.032 225.116, 108.741 226.301, 114.227 226.660 L 124.203 227.314 123.851 238.907 L 123.500 250.500 132.478 252.753 C 145.882 256.116, 161.309 257.302, 174.497 255.984 C 191.650 254.269, 192.392 254.029, 193.118 249.962 L 193.737 246.500 193.868 249.750 C 194.016 253.407, 193.935 253.355, 197.435 252.025 C 199.796 251.127, 200 250.571, 200 245.035 L 200 239.021 243.750 238.750 L 287.500 238.478 243.750 238.239 L 200 238 200 233.191 C 200 230.546, 199.414 227.581, 198.697 226.601 C 196.922 224.173, 184.255 221.248, 169.281 219.808 L 157.062 218.632 156.781 207.578 C 156.509 196.895, 156.416 196.483, 154 195.329 C 147.050 192.011, 121.459 188.828, 108.500 189.669 M 115.250 196.080 C 117.675 197.492, 117.439 199.902, 114.780 200.886 C 112.915 201.576, 113.314 201.820, 117.280 202.415 C 122.228 203.157, 130.297 202.368, 133.213 200.857 C 135.406 199.721, 134.586 197.588, 131.398 196.135 C 128.163 194.661, 112.723 194.608, 115.250 196.080 M 85 210.051 C 85 212.622, 85.580 213.344, 88.686 214.642 C 90.713 215.489, 95.326 216.800, 98.936 217.556 C 104.453 218.710, 105.715 218.713, 106.853 217.576 C 108.792 215.637, 107.384 212.005, 104.683 211.979 C 103.482 211.967, 99.350 210.844, 95.500 209.483 C 86.165 206.183, 85 206.246, 85 210.051 M 115.728 207.722 C 117.503 207.943, 120.653 207.946, 122.728 207.730 C 124.802 207.513, 123.350 207.333, 119.500 207.328 C 115.650 207.324, 113.952 207.501, 115.728 207.722 M 86 210.313 C 86 212.343, 86.966 212.906, 93.868 214.900 C 98.195 216.151, 102.807 217.022, 104.118 216.837 C 108.258 216.251, 106.807 213.808, 101.500 212.429 C 98.750 211.714, 94.531 210.425, 92.124 209.565 C 86.414 207.523, 86 207.573, 86 210.313 M 117.456 213.253 C 116.135 216.697, 116.528 220.427, 118.250 220.784 C 119.686 221.082, 120 220.427, 120 217.132 C 120 213.084, 118.436 210.699, 117.456 213.253 M 111 216.573 C 111 219.436, 111.348 220.081, 112.750 219.815 C 113.903 219.597, 114.607 218.377, 114.813 216.242 C 115.075 213.532, 114.788 213, 113.063 213 C 111.364 213, 111 213.630, 111 216.573 M 159.661 224.689 C 157.043 225.114, 156.962 225.252, 158.624 226.467 C 160.119 227.560, 160.206 228.046, 159.140 229.332 C 158.433 230.183, 156.875 231.071, 155.677 231.304 C 154.480 231.537, 157.775 231.783, 163 231.850 C 174.141 231.994, 177 231.413, 177 229.005 C 177 226.031, 166.889 223.514, 159.661 224.689 M 148.343 225.649 C 149.571 226.004, 150.019 226.819, 149.686 228.091 C 149.412 229.141, 149.626 230, 150.163 230 C 152.106 230, 150.515 225.522, 148.500 225.318 C 146.771 225.142, 146.750 225.187, 148.343 225.649 M 128.954 239.086 C 127.347 242.088, 127.790 247.982, 129.678 248.707 C 131.625 249.454, 137.832 246.139, 139.670 243.371 C 141.525 240.576, 139.842 238.811, 134.557 238.009 C 130.669 237.419, 129.752 237.595, 128.954 239.086 M 76 259.138 C 70.064 260.353, 66.020 261.716, 65.221 262.772 C 63.466 265.091, 63.935 288.149, 65.750 288.752 C 66.648 289.050, 67 287.629, 67 283.706 C 67 276.358, 68.182 275.504, 75.093 277.853 L 80.500 279.691 80.500 284.095 C 80.500 288.312, 80.382 288.486, 77.750 288.178 C 74.616 287.812, 73.774 290.507, 76.750 291.377 C 88.616 294.846, 119.761 294.866, 131.195 291.412 C 132.347 291.064, 133.012 289.555, 133.270 286.700 L 133.651 282.500 133.825 286.698 L 134 290.896 137 289.850 L 140 288.804 140 276.974 C 140 267.965, 139.654 264.797, 138.548 263.691 C 136.811 261.954, 126.357 259.320, 116 258.010 C 103.910 256.481, 86.594 256.970, 76 259.138 M 99.500 262.854 C 97.101 263.414, 96.851 263.693, 98.250 264.246 C 101.080 265.364, 100.270 267.865, 96.750 268.881 C 94.136 269.636, 95.262 269.818, 102.500 269.810 C 107.450 269.805, 112.623 269.488, 113.995 269.106 C 117.039 268.259, 117.778 265.486, 115.310 264.169 C 112.781 262.818, 103.100 262.014, 99.500 262.854 M 85.667 280.667 C 84.630 281.703, 84.882 288.809, 85.979 289.487 C 87.607 290.493, 91 288.068, 91 285.899 C 91 281.700, 87.786 278.547, 85.667 280.667 M 86.667 281.667 C 85.384 282.950, 85.963 288, 87.393 288 C 89.338 288, 90.194 285.231, 88.961 282.928 C 87.822 280.799, 87.636 280.697, 86.667 281.667 M 192.805 316.058 C 181.447 319.090, 164.886 320.338, 152.522 319.094 C 146.544 318.492, 141.281 318, 140.826 318 C 140.372 318, 140 323.138, 140 329.417 L 140 340.834 145.250 342.012 C 154.315 344.047, 176.365 344.386, 186.908 342.652 C 196.492 341.077, 197.958 340.230, 197.985 336.250 L 198 334 242.750 333.761 L 287.500 333.521 243.131 333.250 L 198.762 332.979 199.177 323.490 C 199.406 318.270, 199.572 314.061, 199.546 314.136 C 199.521 314.210, 196.487 315.075, 192.805 316.058 M 63.718 361.880 C 63.863 368.826, 64.370 372.791, 65.218 373.626 C 67.265 375.639, 82.646 379.685, 93.400 381.039 C 109.259 383.035, 134.059 381.044, 136.965 377.542 C 138.104 376.170, 139.756 353, 138.715 353 C 138.390 353, 135.284 353.657, 131.812 354.460 C 113.901 358.602, 90.673 358.288, 72.417 353.657 L 63.500 351.395 63.718 361.880" stroke="none" fill="#d3dfe3" fill-rule="evenodd"/><path d="M 105.250 189.716 C 106.763 189.945, 109.237 189.945, 110.750 189.716 C 112.263 189.487, 111.025 189.300, 108 189.300 C 104.975 189.300, 103.737 189.487, 105.250 189.716 M 122.250 189.716 C 123.763 189.945, 126.237 189.945, 127.750 189.716 C 129.262 189.487, 128.025 189.300, 125 189.300 C 121.975 189.300, 120.737 189.487, 122.250 189.716 M 157.374 208.500 C 157.376 214.550, 157.541 216.896, 157.740 213.713 C 157.939 210.531, 157.937 205.581, 157.736 202.713 C 157.535 199.846, 157.372 202.450, 157.374 208.500 M 85 210.051 C 85 212.622, 85.580 213.344, 88.686 214.642 C 90.713 215.489, 95.326 216.800, 98.936 217.556 C 104.453 218.710, 105.715 218.713, 106.853 217.576 C 108.792 215.637, 107.384 212.005, 104.683 211.979 C 103.482 211.967, 99.350 210.844, 95.500 209.483 C 86.165 206.183, 85 206.246, 85 210.051 M 86 210.313 C 86 212.343, 86.966 212.906, 93.868 214.900 C 98.195 216.151, 102.807 217.022, 104.118 216.837 C 108.258 216.251, 106.807 213.808, 101.500 212.429 C 98.750 211.714, 94.531 210.425, 92.124 209.565 C 86.414 207.523, 86 207.573, 86 210.313 M 117.456 213.253 C 116.135 216.697, 116.528 220.427, 118.250 220.784 C 119.686 221.082, 120 220.427, 120 217.132 C 120 213.084, 118.436 210.699, 117.456 213.253 M 114.136 215.677 C 114.046 217.785, 113.412 219.007, 112.250 219.311 C 110.610 219.739, 110.612 219.775, 112.281 219.884 C 114.385 220.021, 115.331 218.054, 114.715 214.823 C 114.370 213.013, 114.242 213.202, 114.136 215.677 M 168.750 219.706 C 169.988 219.944, 172.012 219.944, 173.250 219.706 C 174.488 219.467, 173.475 219.272, 171 219.272 C 168.525 219.272, 167.512 219.467, 168.750 219.706 M 80.349 229 C 80.349 233.675, 80.522 235.588, 80.732 233.250 C 80.943 230.912, 80.943 227.088, 80.732 224.750 C 80.522 222.412, 80.349 224.325, 80.349 229 M 136 245.597 C 133.860 247.126, 131.596 247.932, 130.174 247.673 C 128.620 247.389, 128.181 247.581, 128.851 248.251 C 130.250 249.650, 133.952 248.497, 137.500 245.557 C 141.364 242.356, 140.507 242.379, 136 245.597 M 63.400 279.500 C 63.401 287.750, 63.556 290.992, 63.744 286.704 C 63.932 282.417, 63.931 275.667, 63.742 271.704 C 63.552 267.742, 63.399 271.250, 63.400 279.500 M 140.272 280 C 140.272 282.475, 140.467 283.488, 140.706 282.250 C 140.944 281.012, 140.944 278.988, 140.706 277.750 C 140.467 276.512, 140.272 277.525, 140.272 280 M 67.272 282 C 67.272 284.475, 67.467 285.488, 67.706 284.250 C 67.944 283.012, 67.944 280.988, 67.706 279.750 C 67.467 278.512, 67.272 279.525, 67.272 282 M 85.667 280.667 C 84.630 281.703, 84.882 288.809, 85.979 289.487 C 87.691 290.545, 91 288.020, 91 285.656 C 91 284.405, 90.339 282.509, 89.532 281.441 C 87.853 279.221, 87.510 280.216, 88.996 282.993 C 90.232 285.303, 89.297 288, 87.261 288 C 86.060 288, 85.850 287.152, 86.273 284 C 86.830 279.846, 86.777 279.556, 85.667 280.667 M 74 299.930 C 74 300.442, 72.987 301.056, 71.750 301.294 C 69.821 301.666, 69.892 301.747, 72.250 301.864 C 74.088 301.955, 75 301.503, 75 300.500 C 75 299.675, 74.775 299, 74.500 299 C 74.225 299, 74 299.419, 74 299.930 M 163.750 344.732 C 166.088 344.943, 169.912 344.943, 172.250 344.732 C 174.588 344.522, 172.675 344.349, 168 344.349 C 163.325 344.349, 161.412 344.522, 163.750 344.732 M 139.320 357 C 139.320 360.575, 139.502 362.038, 139.723 360.250 C 139.945 358.462, 139.945 355.538, 139.723 353.750 C 139.502 351.962, 139.320 353.425, 139.320 357 M 63.349 361 C 63.349 365.675, 63.522 367.587, 63.732 365.250 C 63.943 362.913, 63.943 359.087, 63.732 356.750 C 63.522 354.413, 63.349 356.325, 63.349 361 M 138.168 372.550 C 138.076 374.778, 137.662 377.031, 137.250 377.557 C 136.838 378.084, 137.094 378.014, 137.819 377.402 C 138.645 376.706, 138.988 374.833, 138.737 372.395 L 138.336 368.500 138.168 372.550" stroke="none" fill="#fbfbfb" fill-rule="evenodd"/></svg>