<svg xmlns="http://www.w3.org/2000/svg" width="1080" height="1080" viewBox="0 0 1080 1080" version="1.1"><path d="M 441 671.011 C 437.425 672.005, 431.229 673.309, 427.232 673.909 C 417.209 675.413, 399.282 681.356, 388.500 686.748 C 359.725 701.139, 332.386 726.830, 313.743 757 C 303.564 773.471, 295.785 796.553, 291.329 823.500 C 288.755 839.067, 288.755 876.933, 291.329 892.500 C 297.834 931.841, 312.617 966.116, 334.859 993.426 C 345.814 1006.878, 366.551 1016.825, 396.536 1023.014 C 418.875 1027.624, 427.695 1028.089, 510.500 1029.030 C 580.466 1029.824, 590.586 1029.747, 599 1028.354 C 628.006 1023.551, 646.081 1014.091, 667.500 992.506 C 677.831 982.095, 680.597 978.566, 687.388 967.142 C 701.562 943.296, 712.412 916.512, 716.982 894.089 C 721.837 870.264, 721.951 851.273, 717.370 829.574 C 709.608 792.813, 693.683 761.558, 671.512 739.574 C 663.360 731.491, 658.501 727.737, 646.926 720.581 C 638.992 715.676, 628.900 709.132, 624.500 706.039 C 606.779 693.582, 590.871 685.073, 574.924 679.520 C 565.006 676.067, 564.080 675.924, 555.842 676.567 L 547.185 677.243 542.758 681.872 C 540.323 684.417, 535.451 691.450, 531.931 697.500 C 524.214 710.766, 518.216 717.194, 512.109 718.744 C 506.766 720.101, 506.126 719.879, 497.814 713.798 C 483.701 703.471, 475.102 691.269, 474.190 680.272 C 473.707 674.460, 474.468 674.899, 462.548 673.545 C 459.825 673.236, 455.745 672.087, 453.482 670.991 C 448.712 668.682, 449.385 668.681, 441 671.011" stroke="none" fill="#ced5d5" fill-rule="evenodd"/><path d="M 488.386 588.126 C 486.121 590.628, 485.666 596.056, 487.381 600.108 C 488.748 603.338, 489.399 603.783, 493.594 604.358 C 496.171 604.711, 499.721 605, 501.483 605 L 504.686 605 505.343 621.660 C 505.704 630.823, 506.001 641.735, 506.001 645.910 L 506.003 653.500 480.251 652.880 C 449.237 652.133, 448.097 652.464, 448.032 662.236 C 448.002 666.647, 448.267 667.149, 451.901 669.553 C 454.550 671.306, 458.159 672.452, 463.151 673.125 C 475.466 674.786, 474.643 674.288, 474.776 680.148 C 475.014 690.612, 484.477 703.817, 499.333 714.418 C 506.495 719.529, 509.166 719.977, 514.932 717.034 C 520.125 714.385, 524.977 708.528, 532.237 696.143 C 535.576 690.447, 540.454 683.641, 543.077 681.018 L 547.846 676.249 558.575 675.518 C 567.856 674.886, 569.612 674.479, 571.586 672.505 C 576.392 667.699, 575.444 658.938, 569.826 656.246 C 564.608 653.745, 547.090 651.767, 536 652.426 C 530.225 652.770, 524.331 653.304, 522.903 653.613 L 520.305 654.175 519.596 631.837 C 519.206 619.552, 518.639 608.487, 518.335 607.250 C 517.826 605.173, 518.123 605, 522.192 605 C 524.616 605, 527.027 604.626, 527.550 604.169 C 528.072 603.711, 530.379 602.803, 532.676 602.151 C 537.213 600.862, 542 596.100, 542 592.878 C 542 591.795, 540.909 589.818, 539.576 588.485 L 537.152 586.061 513.505 586.281 C 493.125 586.470, 489.655 586.725, 488.386 588.126" stroke="none" fill="#94897b" fill-rule="evenodd"/><path d="M 587.500 56.989 C 579.250 57.378, 556.975 58.222, 538 58.864 C 519.025 59.506, 496.975 60.489, 489 61.048 C 481.025 61.607, 463.925 62.492, 451 63.015 C 400.416 65.060, 374.612 68.559, 329.500 79.492 C 306.014 85.183, 296.542 88.233, 285.099 93.784 C 272.963 99.672, 265.287 106.906, 262.093 115.466 C 257.918 126.653, 257.646 130.067, 257.510 173 C 257.438 195.825, 257.030 217.200, 256.603 220.500 C 253.607 243.659, 242.361 307.123, 235.870 337.500 C 224.919 388.752, 220.581 417.240, 217.519 458 C 213.314 513.963, 211.775 527.882, 207.286 550.500 C 202.603 574.102, 202.208 587.916, 206 595.500 C 208.170 599.840, 209.226 600.798, 214 602.756 C 218.460 604.585, 220.918 604.941, 227 604.636 C 231.125 604.429, 246.875 603.752, 262 603.133 C 277.125 602.513, 297.825 601.290, 308 600.414 C 318.175 599.539, 330.644 598.515, 335.708 598.140 C 346.464 597.343, 433.824 599.382, 455 600.924 C 462.975 601.505, 473.414 601.985, 478.198 601.990 L 486.896 602 485.841 598.975 C 484.486 595.087, 485.493 589.769, 488.017 587.485 C 489.779 585.890, 492.563 585.663, 513.494 585.409 L 536.994 585.124 539.997 587.651 C 541.649 589.041, 543 591.081, 543 592.185 C 543 595.902, 539.597 600.038, 534.513 602.500 L 529.500 604.927 536.500 605.035 C 540.350 605.094, 557.675 605.328, 575 605.554 C 611.450 606.029, 654.098 608.258, 680.246 611.053 C 690.286 612.126, 705.925 613.511, 715 614.130 C 735.804 615.549, 744.218 614.598, 765.560 608.412 C 782.328 603.552, 789.594 602.767, 802.107 604.464 C 814.244 606.109, 816.988 599.343, 813.550 576.243 C 810.783 557.652, 809.868 530.956, 810.561 489 C 811.509 431.590, 809.991 411.740, 800.007 351 C 794.848 319.609, 793.736 312.134, 789.070 277.500 C 783.625 237.072, 782.631 226.723, 778.051 162.710 C 775.863 132.136, 775.398 121.157, 776.193 118.875 C 777.888 114.015, 776.621 96.587, 774.009 88.816 C 771.178 80.395, 764.453 72.580, 756.334 68.276 C 745.828 62.707, 737.633 61.246, 710 60.018 C 698.725 59.517, 679.825 58.653, 668 58.098 C 636.541 56.622, 604.586 56.182, 587.500 56.989" stroke="none" fill="#fafafa" fill-rule="evenodd"/><path d="M 503.250 586.728 C 505.313 586.944, 508.688 586.944, 510.750 586.728 C 512.813 586.513, 511.125 586.336, 507 586.336 C 502.875 586.336, 501.188 586.513, 503.250 586.728" stroke="none" fill="#948c7c" fill-rule="evenodd"/><path d="" stroke="none" fill="#edf0f0" fill-rule="evenodd"/></svg>