<svg xmlns="http://www.w3.org/2000/svg" width="1080" height="1080" viewBox="0 0 1080 1080" version="1.1"><path d="M 250.500 382.026 C 233.943 383.554, 220.531 388.268, 206.241 397.583 C 186.268 410.602, 171.866 430.825, 166.104 453.940 C 163.171 465.708, 163.088 491.113, 165.946 502.289 C 174.855 537.124, 204.224 564.870, 240.315 572.550 C 246.182 573.798, 287.823 573.998, 539.315 573.987 C 820.853 573.974, 831.830 573.906, 840.565 572.103 C 858.987 568.301, 873.915 560.103, 888.064 546.020 C 902.156 531.993, 909.367 519.615, 914 501.498 C 916.831 490.431, 916.860 464.682, 914.054 453.711 C 909.182 434.663, 896.771 415.425, 881.338 403.003 C 866.929 391.404, 849.081 383.834, 831.863 382.021 C 820.886 380.865, 263.028 380.869, 250.500 382.026 M 438.500 435.399 C 426.254 439.272, 418.984 448.150, 415.898 462.997 C 414.083 471.732, 415.240 493.215, 417.899 500.145 C 424.045 516.163, 435.232 522.849, 454.128 521.798 C 474.107 520.687, 484.476 509.698, 487.188 486.758 C 489.038 471.116, 485.481 453.292, 478.904 445.249 C 475.460 441.036, 470.233 437.489, 464.715 435.620 C 458.961 433.672, 444.352 433.548, 438.500 435.399 M 523.499 435.388 C 509.521 439.769, 501.784 452.089, 500.419 472.134 C 498.792 496.038, 505.891 512.648, 520.500 519.119 C 527.312 522.137, 543.272 522.935, 551.129 520.651 C 557.528 518.791, 564.757 514.221, 566.622 510.857 C 567.521 509.237, 567.940 504.062, 567.965 494.306 C 567.998 480.734, 567.895 479.989, 565.597 477.318 C 563.398 474.762, 562.502 474.492, 555.074 474.155 C 540.951 473.514, 536 475.661, 536 482.427 C 536 486.725, 539.755 490, 544.683 490 L 548.095 490 547.798 496.250 L 547.500 502.500 543.217 503.855 C 534.677 506.557, 527.472 502.659, 524.833 493.908 C 524.021 491.218, 523.502 484.434, 523.502 476.500 C 523.499 456.499, 526.492 451, 537.378 451 C 541.023 451, 542.240 451.489, 543.927 453.635 C 545.067 455.084, 546 456.823, 546 457.500 C 546 458.177, 546.933 459.916, 548.073 461.365 C 549.852 463.627, 550.905 464, 555.517 464 C 565.663 464, 569.208 457.208, 564.193 447.378 C 561.331 441.769, 555.999 437.374, 549.833 435.543 C 543.603 433.693, 529.178 433.608, 523.499 435.388 M 359.923 437.923 L 357 440.846 357 478 L 357 515.154 359.923 518.077 L 362.846 521 380.788 521 C 397.343 521, 398.931 520.842, 401.328 518.957 C 404.556 516.418, 405.682 511.196, 403.834 507.335 C 401.918 503.334, 397.221 501.980, 387.750 502.699 L 380 503.288 380 472.067 L 380 440.846 377.077 437.923 C 374.535 435.382, 373.416 435, 368.500 435 C 363.584 435, 362.465 435.382, 359.923 437.923 M 617.923 437.923 L 615 440.846 615 478 L 615 515.154 617.923 518.077 C 620.465 520.618, 621.584 521, 626.500 521 C 631.416 521, 632.535 520.618, 635.077 518.077 L 638 515.154 638 478 L 638 440.846 635.077 437.923 C 632.535 435.382, 631.416 435, 626.500 435 C 621.584 435, 620.465 435.382, 617.923 437.923 M 660.025 437.821 L 657 440.846 657 478 L 657 515.154 659.923 518.077 C 663.864 522.018, 669.912 522.179, 673.649 518.442 L 676.208 515.883 675.547 492.692 C 675.183 479.936, 674.638 468.206, 674.336 466.625 C 673.962 464.668, 674.140 463.968, 674.893 464.434 C 675.502 464.810, 676 465.501, 676 465.969 C 676 466.437, 681.584 478.265, 688.408 492.253 C 702.210 520.542, 702.594 521, 712.478 521 C 716.313 521, 717.680 520.474, 720.077 518.077 L 723 515.154 723 477.531 L 723 439.909 720.545 437.455 C 717.021 433.930, 709.923 433.986, 706.343 437.566 L 703.777 440.132 704.429 457.316 C 704.788 466.767, 705.335 476.300, 705.644 478.500 C 706.018 481.163, 705.872 482.166, 705.207 481.500 C 704.658 480.950, 700.056 471.725, 694.980 461 C 689.903 450.275, 684.448 440.150, 682.856 438.500 C 680.162 435.707, 679.377 435.476, 671.506 435.148 C 663.226 434.804, 662.986 434.860, 660.025 437.821 M 443.537 453.372 C 439.954 456.955, 439.011 462.085, 439.011 478 C 439.011 499.821, 441.276 505, 450.820 505 C 461.043 505, 463.431 499.887, 463.431 478 C 463.431 456.113, 461.043 451, 450.820 451 C 446.986 451, 445.389 451.520, 443.537 453.372" stroke="none" fill="#b4d4fc" fill-rule="evenodd"/><path d="M 161.722 353.084 C 116.589 357.881, 74.993 390.625, 59.028 433.924 C 53.493 448.937, 51.498 460.774, 51.517 478.500 C 51.535 495.188, 52.944 504.908, 57.168 517.500 C 65.059 541.023, 82.088 564.413, 102.500 579.765 C 110.248 585.592, 128.060 594.787, 137.787 597.982 C 155.002 603.635, 147.120 603.322, 281.500 603.677 C 349.700 603.858, 522.275 603.634, 665 603.180 L 924.500 602.356 934 599.770 C 967.047 590.773, 994.187 570.690, 1010.718 543 C 1029.322 511.838, 1033.931 472.178, 1022.862 438.500 C 1019.260 427.544, 1011.113 412.235, 1003.514 402.148 C 985.890 378.752, 962.938 363.517, 932 354.677 L 924.500 352.534 547 352.396 C 339.375 352.319, 166 352.629, 161.722 353.084 M 250.500 382.026 C 233.943 383.554, 220.531 388.268, 206.241 397.583 C 186.268 410.602, 171.866 430.825, 166.104 453.940 C 163.171 465.708, 163.088 491.113, 165.946 502.289 C 174.855 537.124, 204.224 564.870, 240.315 572.550 C 246.182 573.798, 287.823 573.998, 539.315 573.987 C 820.853 573.974, 831.830 573.906, 840.565 572.103 C 858.987 568.301, 873.915 560.103, 888.064 546.020 C 902.156 531.993, 909.367 519.615, 914 501.498 C 916.831 490.431, 916.860 464.682, 914.054 453.711 C 909.182 434.663, 896.771 415.425, 881.338 403.003 C 866.929 391.404, 849.081 383.834, 831.863 382.021 C 820.886 380.865, 263.028 380.869, 250.500 382.026 M 438.500 435.399 C 426.254 439.272, 418.984 448.150, 415.898 462.997 C 414.083 471.732, 415.240 493.215, 417.899 500.145 C 424.045 516.163, 435.232 522.849, 454.128 521.798 C 474.107 520.687, 484.476 509.698, 487.188 486.758 C 489.038 471.116, 485.481 453.292, 478.904 445.249 C 475.460 441.036, 470.233 437.489, 464.715 435.620 C 458.961 433.672, 444.352 433.548, 438.500 435.399 M 523.499 435.388 C 509.521 439.769, 501.784 452.089, 500.419 472.134 C 498.792 496.038, 505.891 512.648, 520.500 519.119 C 527.312 522.137, 543.272 522.935, 551.129 520.651 C 557.528 518.791, 564.757 514.221, 566.622 510.857 C 567.521 509.237, 567.940 504.062, 567.965 494.306 C 567.998 480.734, 567.895 479.989, 565.597 477.318 C 563.398 474.762, 562.502 474.492, 555.074 474.155 C 540.951 473.514, 536 475.661, 536 482.427 C 536 486.725, 539.755 490, 544.683 490 L 548.095 490 547.798 496.250 L 547.500 502.500 543.217 503.855 C 534.677 506.557, 527.472 502.659, 524.833 493.908 C 524.021 491.218, 523.502 484.434, 523.502 476.500 C 523.499 456.499, 526.492 451, 537.378 451 C 541.023 451, 542.240 451.489, 543.927 453.635 C 545.067 455.084, 546 456.823, 546 457.500 C 546 458.177, 546.933 459.916, 548.073 461.365 C 549.852 463.627, 550.905 464, 555.517 464 C 565.663 464, 569.208 457.208, 564.193 447.378 C 561.331 441.769, 555.999 437.374, 549.833 435.543 C 543.603 433.693, 529.178 433.608, 523.499 435.388 M 359.923 437.923 L 357 440.846 357 478 L 357 515.154 359.923 518.077 L 362.846 521 380.788 521 C 397.343 521, 398.931 520.842, 401.328 518.957 C 404.556 516.418, 405.682 511.196, 403.834 507.335 C 401.918 503.334, 397.221 501.980, 387.750 502.699 L 380 503.288 380 472.067 L 380 440.846 377.077 437.923 C 374.535 435.382, 373.416 435, 368.500 435 C 363.584 435, 362.465 435.382, 359.923 437.923 M 617.923 437.923 L 615 440.846 615 478 L 615 515.154 617.923 518.077 C 620.465 520.618, 621.584 521, 626.500 521 C 631.416 521, 632.535 520.618, 635.077 518.077 L 638 515.154 638 478 L 638 440.846 635.077 437.923 C 632.535 435.382, 631.416 435, 626.500 435 C 621.584 435, 620.465 435.382, 617.923 437.923 M 660.025 437.821 L 657 440.846 657 478 L 657 515.154 659.923 518.077 C 663.864 522.018, 669.912 522.179, 673.649 518.442 L 676.208 515.883 675.547 492.692 C 675.183 479.936, 674.638 468.206, 674.336 466.625 C 673.962 464.668, 674.140 463.968, 674.893 464.434 C 675.502 464.810, 676 465.501, 676 465.969 C 676 466.437, 681.584 478.265, 688.408 492.253 C 702.210 520.542, 702.594 521, 712.478 521 C 716.313 521, 717.680 520.474, 720.077 518.077 L 723 515.154 723 477.531 L 723 439.909 720.545 437.455 C 717.021 433.930, 709.923 433.986, 706.343 437.566 L 703.777 440.132 704.429 457.316 C 704.788 466.767, 705.335 476.300, 705.644 478.500 C 706.018 481.163, 705.872 482.166, 705.207 481.500 C 704.658 480.950, 700.056 471.725, 694.980 461 C 689.903 450.275, 684.448 440.150, 682.856 438.500 C 680.162 435.707, 679.377 435.476, 671.506 435.148 C 663.226 434.804, 662.986 434.860, 660.025 437.821 M 443.537 453.372 C 439.954 456.955, 439.011 462.085, 439.011 478 C 439.011 499.821, 441.276 505, 450.820 505 C 461.043 505, 463.431 499.887, 463.431 478 C 463.431 456.113, 461.043 451, 450.820 451 C 446.986 451, 445.389 451.520, 443.537 453.372" stroke="none" fill="#fbfbfc" fill-rule="evenodd"/></svg>