<svg xmlns="http://www.w3.org/2000/svg" width="200" height="200" viewBox="0 0 200 200" version="1.1"><path d="M 136.200 105.200 C 134.374 107.026, 134.658 117.471, 136.576 119.063 C 138.622 120.761, 139.963 118.867, 139.985 114.250 C 139.993 112.463, 140.434 111, 140.965 111 C 142.273 111, 144 114.393, 144 116.966 C 144 119.491, 146.856 120.851, 148.061 118.901 C 148.971 117.428, 149.128 111.682, 148.337 108.751 C 148.033 107.621, 146.475 106.780, 143.933 106.373 C 141.770 106.027, 140 105.352, 140 104.872 C 140 103.599, 137.594 103.806, 136.200 105.200" stroke="none" fill="#e9eda4" fill-rule="evenodd"/><path d="M 98.459 100.066 C 97.270 101.990, 100.191 103.033, 106 102.759 C 110.107 102.566, 111.500 102.120, 111.500 101 C 111.500 99.095, 99.586 98.242, 98.459 100.066" stroke="none" fill="#000000" fill-rule="evenodd"/><path d="M 124.200 88.200 C 123.372 89.028, 123 94.106, 123 104.578 C 123 117.206, 123.266 119.976, 124.584 121.070 C 125.732 122.023, 126.626 122.095, 127.834 121.335 C 129.243 120.447, 129.543 118.024, 129.777 105.627 C 130.051 91.093, 129.367 87, 126.665 87 C 125.969 87, 124.860 87.540, 124.200 88.200" stroke="none" fill="#4f8bed" fill-rule="evenodd"/><path d="M 75.886 92.703 C 72.756 93.186, 68.382 97.527, 67.527 101 C 66.537 105.018, 69.074 107.500, 74.171 107.500 C 78.452 107.500, 78.503 107.542, 78.810 111.250 C 79.113 114.903, 79.033 115, 75.751 115 C 71.893 115, 68.354 117.146, 69.406 118.848 C 69.813 119.507, 72.647 120, 76.024 120 C 83.600 120, 84 119.261, 84 105.266 C 84 91.915, 83.727 91.493, 75.886 92.703 M 73.345 100.543 C 72.535 102.653, 73.887 103.793, 75.039 101.971 C 76.263 100.035, 76.239 99, 74.969 99 C 74.401 99, 73.671 99.694, 73.345 100.543" stroke="none" fill="#a7f0ae" fill-rule="evenodd"/><path d="M 51.269 65.693 C 52.242 65.947, 53.592 65.930, 54.269 65.656 C 54.946 65.382, 54.150 65.175, 52.500 65.195 C 50.850 65.215, 50.296 65.439, 51.269 65.693 M 64.269 65.693 C 65.242 65.947, 66.592 65.930, 67.269 65.656 C 67.946 65.382, 67.150 65.175, 65.500 65.195 C 63.850 65.215, 63.296 65.439, 64.269 65.693 M 32.872 68.750 C 31.629 70.336, 31.664 70.371, 33.250 69.128 C 34.916 67.821, 35.445 67, 34.622 67 C 34.415 67, 33.627 67.787, 32.872 68.750 M 101.813 67.683 C 102.534 67.972, 103.397 67.936, 103.729 67.604 C 104.061 67.272, 103.471 67.036, 102.417 67.079 C 101.252 67.127, 101.015 67.364, 101.813 67.683 M 127.250 68.689 C 128.213 68.941, 129.787 68.941, 130.750 68.689 C 131.713 68.438, 130.925 68.232, 129 68.232 C 127.075 68.232, 126.287 68.438, 127.250 68.689 M 140 68.383 C 140 68.594, 140.901 69.002, 142.001 69.290 C 143.102 69.578, 143.751 69.405, 143.442 68.907 C 142.904 68.036, 140 67.594, 140 68.383 M 133.813 69.683 C 134.534 69.972, 135.397 69.936, 135.729 69.604 C 136.061 69.272, 135.471 69.036, 134.417 69.079 C 133.252 69.127, 133.015 69.364, 133.813 69.683 M 91.269 70.693 C 92.242 70.947, 93.592 70.930, 94.269 70.656 C 94.946 70.382, 94.150 70.175, 92.500 70.195 C 90.850 70.215, 90.296 70.439, 91.269 70.693 M 144.768 72.168 C 145.350 72.750, 146.415 73.028, 147.137 72.788 C 147.886 72.538, 147.432 72.085, 146.080 71.731 C 144.417 71.296, 144.026 71.426, 144.768 72.168 M 158.250 71.689 C 159.213 71.941, 160.787 71.941, 161.750 71.689 C 162.713 71.438, 161.925 71.232, 160 71.232 C 158.075 71.232, 157.287 71.438, 158.250 71.689 M 173.100 78.705 C 173.829 79.917, 174.640 80.694, 174.903 80.431 C 175.166 80.168, 174.570 79.176, 173.579 78.226 C 171.857 76.577, 171.835 76.598, 173.100 78.705 M 24.158 80 C 24.158 81.375, 24.385 81.938, 24.662 81.250 C 24.940 80.563, 24.940 79.438, 24.662 78.750 C 24.385 78.063, 24.158 78.625, 24.158 80 M 54.475 94.325 C 50.078 98.722, 49.790 102.974, 53.646 106.548 C 56.709 109.386, 58.042 109.547, 61.916 107.543 C 66.072 105.394, 67.394 97.834, 64.250 94.198 C 61.013 90.454, 58.311 90.489, 54.475 94.325 M 75.813 92.683 C 76.534 92.972, 77.397 92.936, 77.729 92.604 C 78.061 92.272, 77.471 92.036, 76.417 92.079 C 75.252 92.127, 75.015 92.364, 75.813 92.683 M 23.079 100.583 C 23.127 101.748, 23.364 101.985, 23.683 101.188 C 23.972 100.466, 23.936 99.603, 23.604 99.271 C 23.272 98.939, 23.036 99.529, 23.079 100.583 M 58 100.500 C 58 101.325, 58.450 102, 59 102 C 59.550 102, 60 101.325, 60 100.500 C 60 99.675, 59.550 99, 59 99 C 58.450 99, 58 99.675, 58 100.500 M 173.079 100.583 C 173.127 101.748, 173.364 101.985, 173.683 101.188 C 173.972 100.466, 173.936 99.603, 173.604 99.271 C 173.272 98.939, 173.036 99.529, 173.079 100.583 M 173 107.941 C 173 108.459, 173.445 109.157, 173.989 109.493 C 174.555 109.843, 174.723 109.442, 174.382 108.552 C 173.717 106.820, 173 106.503, 173 107.941 M 140 112.059 C 140 112.641, 140.450 112.840, 141 112.500 C 141.550 112.160, 142 111.684, 142 111.441 C 142 111.198, 141.550 111, 141 111 C 140.450 111, 140 111.477, 140 112.059 M 165.750 125.662 C 166.438 125.940, 167.563 125.940, 168.250 125.662 C 168.938 125.385, 168.375 125.158, 167 125.158 C 165.625 125.158, 165.063 125.385, 165.750 125.662 M 42.813 132.683 C 43.534 132.972, 44.397 132.936, 44.729 132.604 C 45.061 132.272, 44.471 132.036, 43.417 132.079 C 42.252 132.127, 42.015 132.364, 42.813 132.683 M 52.250 133.689 C 53.212 133.941, 54.788 133.941, 55.750 133.689 C 56.712 133.438, 55.925 133.232, 54 133.232 C 52.075 133.232, 51.288 133.438, 52.250 133.689 M 71.813 134.683 C 72.534 134.972, 73.397 134.936, 73.729 134.604 C 74.061 134.272, 73.471 134.036, 72.417 134.079 C 71.252 134.127, 71.015 134.364, 71.813 134.683 M 99.269 138.693 C 100.242 138.947, 101.592 138.930, 102.269 138.656 C 102.946 138.382, 102.150 138.175, 100.500 138.195 C 98.850 138.215, 98.296 138.439, 99.269 138.693" stroke="none" fill="#f3e0f0" fill-rule="evenodd"/><path d="M 38.216 84.846 C 37.264 85.450, 37.005 88.617, 37.216 97.080 L 37.500 108.500 43.833 108.800 C 49.474 109.067, 50.130 108.903, 49.833 107.300 C 49.650 106.310, 48.047 104.825, 46.272 104 C 43.068 102.512, 43.043 102.444, 43.022 95.184 C 42.994 85.830, 41.552 82.729, 38.216 84.846" stroke="none" fill="#9beee6" fill-rule="evenodd"/><path d="M 39.250 48.628 C 38.563 48.924, 38 49.820, 38 50.619 C 38 51.744, 37.565 51.838, 36.066 51.035 C 33.696 49.767, 29.316 49.680, 28.570 50.887 C 28.269 51.374, 26.539 52.051, 24.727 52.392 C 19.732 53.328, 16.733 55.798, 17.393 58.429 C 17.701 59.656, 17.255 61.619, 16.386 62.859 C 15.203 64.548, 15.101 65.416, 15.962 66.454 C 16.742 67.394, 16.769 68.025, 16.049 68.470 C 15.472 68.826, 15 69.844, 15 70.730 C 15 71.617, 14.363 73.053, 13.584 73.921 C 11.293 76.475, 9.882 86.181, 11.533 88.023 C 12.435 89.028, 12.587 90.048, 11.981 91.023 C 11.476 91.835, 11.327 94.161, 11.650 96.191 C 11.973 98.221, 11.760 101.249, 11.178 102.919 C 10.526 104.789, 10.481 106.179, 11.060 106.537 C 11.577 106.857, 12 108.836, 12 110.937 C 12 113.193, 12.645 115.290, 13.576 116.063 C 14.689 116.987, 14.976 118.312, 14.553 120.570 C 14.113 122.913, 14.360 123.924, 15.476 124.353 C 16.314 124.674, 17.027 126.189, 17.059 127.719 C 17.091 129.248, 18.124 132.525, 19.355 135 C 21.144 138.600, 22.054 139.448, 23.905 139.242 C 25.534 139.061, 26.061 139.397, 25.685 140.378 C 24.993 142.182, 27.671 146, 29.628 146 C 30.461 146, 31.818 146.675, 32.643 147.500 C 33.468 148.325, 35.408 149, 36.955 149 C 38.904 149, 39.924 149.600, 40.278 150.954 C 40.559 152.029, 41.849 153.115, 43.144 153.367 C 44.440 153.619, 48.102 154.390, 51.282 155.080 C 55.475 155.990, 57.366 156.034, 58.161 155.239 C 58.955 154.445, 59.751 154.452, 61.054 155.266 C 62.398 156.105, 63.534 156.078, 65.555 155.157 C 67.936 154.072, 68.430 154.168, 69.686 155.962 C 71.436 158.461, 75.537 158.624, 76.920 156.250 C 77.481 155.287, 77.953 155.032, 77.970 155.683 C 78.016 157.473, 81.653 158.256, 84.026 156.986 C 85.601 156.143, 86.486 156.159, 87.559 157.049 C 88.346 157.702, 89.922 157.992, 91.063 157.694 C 92.203 157.396, 94.465 157.615, 96.089 158.181 C 98.249 158.934, 99.436 158.883, 100.508 157.993 C 101.315 157.324, 102.586 157.011, 103.333 157.297 C 104.079 157.584, 107.483 157.489, 110.896 157.087 C 114.339 156.681, 117.346 156.751, 117.651 157.244 C 117.953 157.733, 119.618 158.018, 121.350 157.877 C 123.083 157.736, 125.772 157.988, 127.327 158.438 C 129.202 158.980, 130.992 158.807, 132.642 157.924 C 134.604 156.874, 135.487 156.848, 136.815 157.803 C 140.152 160.199, 141.140 160.217, 143.578 157.927 C 145.972 155.678, 146.149 155.657, 148.923 157.295 C 151.645 158.903, 151.909 158.894, 154.108 157.113 C 155.933 155.636, 156.906 155.456, 158.683 156.265 C 160.317 157.010, 161.353 156.952, 162.432 156.057 C 163.596 155.090, 164.706 155.078, 167.500 156 C 171.334 157.265, 174 156.190, 174 153.378 C 174 152.575, 175.043 152, 176.500 152 C 178.333 152, 179 151.467, 179 150 C 179 148.527, 179.667 148, 181.531 148 C 182.924 148, 184.322 147.325, 184.638 146.500 C 184.955 145.675, 186.275 145, 187.572 145 C 189.836 145, 192.554 141.888, 191.346 140.679 C 191.025 140.358, 191.490 139.367, 192.381 138.476 C 194.375 136.482, 194.446 134.615, 192.586 133.071 C 191.369 132.061, 191.368 131.521, 192.580 129.199 C 193.354 127.714, 193.990 124.887, 193.994 122.917 C 193.997 120.946, 194.312 119.021, 194.693 118.640 C 195.711 117.622, 196.041 109.143, 195.085 108.553 C 194.636 108.275, 194.486 106.909, 194.752 105.518 C 195.018 104.127, 194.690 102.332, 194.024 101.529 C 193.230 100.572, 193.051 98.657, 193.505 95.972 C 194.042 92.793, 193.808 91.445, 192.460 89.956 C 191.040 88.387, 190.954 87.760, 191.986 86.517 C 192.866 85.457, 193.048 83.258, 192.589 79.248 C 191.767 72.059, 191.766 71.261, 192.583 67.183 C 193.140 64.399, 192.787 63.387, 190.384 60.879 C 188.743 59.167, 186.813 58.077, 185.861 58.326 C 184.846 58.591, 183.338 57.595, 181.987 55.768 C 179.887 52.928, 179.476 52.797, 173.922 53.199 C 169.548 53.516, 167.934 53.271, 167.535 52.232 C 166.956 50.723, 162.044 51.331, 158.887 53.303 C 157.616 54.096, 156.780 53.923, 155.446 52.589 C 154.234 51.377, 152.876 51.023, 151.092 51.454 C 149.666 51.798, 148.050 52.040, 147.500 51.992 C 146.950 51.943, 144.475 51.781, 142 51.633 C 139.525 51.484, 136.007 51.014, 134.183 50.587 C 131.655 49.996, 130.412 50.222, 128.958 51.538 C 127.171 53.155, 126.891 53.158, 124.499 51.591 C 122.076 50.004, 118.702 50.022, 112.750 51.655 C 111.670 51.951, 111 51.582, 111 50.692 C 111 48.075, 98.756 46.884, 97.300 49.359 C 96.426 50.843, 87.262 52.235, 86.791 50.954 C 85.975 48.734, 61.367 47.789, 60.045 49.927 C 59.520 50.777, 58.733 50.940, 57.862 50.378 C 57.113 49.895, 54.025 49.452, 51 49.394 C 47.975 49.336, 44.375 49.019, 43 48.689 C 41.625 48.359, 39.938 48.332, 39.250 48.628 M 70.913 64.421 C 70.681 64.652, 65.319 65.104, 58.996 65.425 C 52.673 65.747, 44.720 66.150, 41.322 66.323 C 34.792 66.654, 32 68.073, 32 71.059 C 32 72.366, 31.109 72.961, 28.816 73.187 C 24.760 73.586, 23.982 76.107, 23.939 89 C 23.875 107.947, 24.112 111.476, 25.502 112.258 C 26.243 112.674, 27.369 114.587, 28.003 116.508 C 28.636 118.428, 29.528 120, 29.983 120 C 31.709 120, 39.535 127.367, 40.666 130.057 C 41.634 132.359, 42.451 132.859, 45.174 132.815 C 49.509 132.746, 57.218 134.050, 58.530 135.075 C 59.097 135.518, 63.147 135.530, 67.530 135.103 C 73.635 134.508, 75.997 134.646, 77.622 135.694 C 78.790 136.447, 83.740 137.308, 88.622 137.609 C 100.837 138.359, 102.510 138.349, 110.500 137.477 C 117.133 136.754, 119.114 136.676, 125 136.912 C 126.375 136.967, 130.650 136.768, 134.500 136.470 C 138.350 136.172, 143.506 135.929, 145.957 135.931 C 148.680 135.934, 151.116 135.300, 152.217 134.304 C 153.774 132.895, 154.363 132.856, 156.537 134.020 C 158.334 134.981, 159.834 135.095, 161.777 134.415 C 163.988 133.643, 164.558 132.762, 164.810 129.732 C 165.041 126.964, 165.572 126, 166.869 126 C 167.831 126, 169.384 125.438, 170.319 124.750 C 171.783 123.675, 171.852 123.052, 170.811 120.301 C 169.691 117.344, 169.798 116.947, 172.222 115.040 C 174.736 113.063, 174.821 112.673, 174.288 105.623 C 173.862 99.986, 174.142 97.196, 175.487 93.672 C 177.362 88.764, 177.017 86, 174.531 86 C 172.727 86, 172.583 84.647, 174.088 81.835 C 175.007 80.119, 174.679 79.315, 171.993 76.689 C 167.372 72.171, 163.092 71.020, 153.444 71.701 C 146.006 72.226, 145.122 72.097, 144.186 70.348 C 143.251 68.601, 142.094 68.431, 132.132 68.576 C 123.617 68.701, 120.994 68.426, 120.588 67.369 C 119.755 65.199, 115.289 65.749, 113.548 68.235 C 112.136 70.252, 111.764 70.334, 109.750 69.076 C 106.422 66.997, 102.431 66.844, 97.985 68.623 C 95.316 69.691, 92.619 70.005, 89.757 69.582 C 87.416 69.236, 83.700 68.681, 81.500 68.349 C 79.300 68.017, 76.427 66.903, 75.115 65.873 C 72.722 63.993, 71.695 63.638, 70.913 64.421" stroke="none" fill="#f4f6f5" fill-rule="evenodd"/><path d="M 52.957 66.063 C 49.358 66.373, 45.901 66.943, 45.276 67.330 C 44.650 67.716, 43.831 67.535, 43.455 66.927 C 42.563 65.484, 36.061 66.666, 33.817 68.679 C 32.892 69.509, 32.378 70.821, 32.674 71.594 C 33.064 72.608, 32.383 73, 30.229 73 C 25.166 73, 24.748 74.464, 24.370 93.559 C 24.081 108.108, 24.266 111.165, 25.463 111.624 C 26.255 111.928, 27.398 113.675, 28.002 115.507 C 28.607 117.338, 30.277 119.607, 31.714 120.548 C 35.702 123.162, 41 128.761, 41 130.363 C 41 131.423, 43.052 131.973, 48.944 132.495 C 53.314 132.882, 57.626 133.737, 58.527 134.396 C 59.712 135.262, 62.349 135.363, 68.062 134.761 C 74.163 134.117, 76.477 134.240, 78.230 135.300 C 80.523 136.685, 90.889 137.601, 101 137.310 C 104.025 137.223, 114.150 136.863, 123.500 136.509 C 132.850 136.154, 142.793 135.783, 145.596 135.682 C 148.399 135.582, 151.427 134.890, 152.325 134.145 C 153.550 133.128, 154.682 133.042, 156.854 133.799 C 161.313 135.354, 164.424 133.370, 164.810 128.727 C 165.094 125.321, 165.379 125, 168.122 125 C 171.099 125, 171.117 124.966, 170.466 120.623 C 169.922 116.997, 170.137 116.011, 171.716 114.873 C 174.344 112.980, 175.257 111.224, 174.363 109.779 C 172.945 107.485, 173.361 99.508, 175.179 94.100 C 177.074 88.466, 176.493 86, 173.271 86 C 172.249 86, 172.011 85.454, 172.506 84.250 C 174.195 80.150, 174.128 79.097, 172.098 77.829 C 170.944 77.109, 170 75.969, 170 75.298 C 170 73.235, 161.950 71.758, 153.191 72.215 C 146.116 72.583, 144.747 72.395, 143.973 70.950 C 143.210 69.523, 141.344 69.238, 132.296 69.164 C 123.489 69.091, 121.307 68.773, 120.315 67.416 C 118.844 65.405, 114 66.250, 114 68.519 C 114 69.432, 113.041 70, 111.500 70 C 110.125 70, 109 69.550, 109 69 C 109 67.399, 100.390 67.847, 96.621 69.644 C 93.668 71.052, 92.552 71.108, 88.837 70.038 C 86.452 69.350, 82.700 68.558, 80.500 68.276 C 78.300 67.995, 76.160 67.179, 75.745 66.462 C 74.953 65.095, 66.019 64.939, 52.957 66.063 M 37.433 85.314 C 37.156 86.037, 37.057 91.550, 37.214 97.564 L 37.500 108.500 42.500 109.097 C 48.700 109.837, 50.189 109.332, 49.803 106.623 C 49.602 105.213, 48.409 104.179, 46.250 103.543 L 43 102.586 43 94.493 C 43 86.475, 42.120 84, 39.269 84 C 38.536 84, 37.710 84.591, 37.433 85.314 M 124.200 88.200 C 123.372 89.028, 123 94.106, 123 104.578 C 123 117.206, 123.266 119.976, 124.584 121.070 C 125.732 122.023, 126.626 122.095, 127.834 121.335 C 129.243 120.447, 129.543 118.024, 129.777 105.627 C 130.051 91.093, 129.367 87, 126.665 87 C 125.969 87, 124.860 87.540, 124.200 88.200 M 54.475 94.325 C 50.078 98.722, 49.790 102.974, 53.646 106.548 C 56.709 109.386, 58.042 109.547, 61.916 107.543 C 66.072 105.394, 67.394 97.834, 64.250 94.198 C 61.013 90.454, 58.311 90.489, 54.475 94.325 M 72.359 94.019 C 67.952 96.880, 66.173 101.442, 68.122 104.887 C 69.369 107.091, 70.296 107.500, 74.050 107.500 C 78.470 107.500, 78.502 107.525, 78.810 111.250 L 79.121 115 75.183 115 C 71.188 115, 68.275 117.018, 69.473 118.956 C 69.828 119.530, 72.776 120, 76.024 120 C 83.771 120, 84.141 119.250, 83.782 104.256 L 83.500 92.500 79.500 92.240 C 76.819 92.067, 74.465 92.653, 72.359 94.019 M 58 100.500 C 58 101.325, 58.450 102, 59 102 C 59.550 102, 60 101.325, 60 100.500 C 60 99.675, 59.550 99, 59 99 C 58.450 99, 58 99.675, 58 100.500 M 74.020 100.476 C 73.231 101.426, 73.155 102, 73.819 102 C 75.027 102, 76.436 100.103, 75.743 99.409 C 75.491 99.158, 74.716 99.638, 74.020 100.476 M 98.046 100.445 C 96.274 102.580, 98.218 103.186, 105.612 102.804 C 110.044 102.575, 111.500 102.129, 111.500 101 C 111.500 98.789, 99.820 98.306, 98.046 100.445 M 135.201 105.750 C 134.722 106.713, 134.594 110.200, 134.915 113.500 C 135.427 118.750, 135.781 119.540, 137.750 119.820 C 139.717 120.099, 140 119.697, 140 116.629 C 140 112.824, 141.693 110.907, 143.096 113.122 C 143.577 113.880, 143.976 115.769, 143.985 117.320 C 143.997 119.668, 144.376 120.086, 146.250 119.820 C 148.215 119.540, 148.539 118.826, 148.805 114.169 C 149.157 108.015, 147.956 106, 143.937 106 C 142.386 106, 140.840 105.550, 140.500 105 C 139.499 103.380, 136.142 103.855, 135.201 105.750" stroke="none" fill="#f38cf4" fill-rule="evenodd"/></svg>