<svg xmlns="http://www.w3.org/2000/svg" width="1080" height="1080" viewBox="0 0 1080 1080" version="1.1"><path d="M 918.379 815.560 C 910.891 823.499, 906.721 850.030, 908.925 875.704 C 910.742 896.871, 914.710 909.471, 920.162 911.388 C 924.524 912.922, 927.620 911.433, 929.799 906.754 C 931.687 902.699, 931.768 900.557, 931.529 861 C 931.392 838.175, 931.216 818.797, 931.139 817.939 C 930.907 815.335, 927.083 812, 924.329 812 C 922.653 812, 920.549 813.259, 918.379 815.560 M 664.199 833.486 C 659.734 837.243, 658.999 842.087, 659.008 867.693 C 659.018 898.756, 660.730 908.141, 666.659 909.629 C 671.179 910.764, 674.290 908.919, 676.999 903.500 C 679.294 898.907, 679.526 897.187, 679.849 882.375 C 680.178 867.292, 680.372 865.909, 682.850 860.976 C 686.336 854.038, 688.474 852.706, 691.063 855.861 C 693.534 858.872, 693.624 866.626, 691.395 884.544 C 690.062 895.262, 689.987 898.620, 690.976 903.383 C 692.995 913.110, 697.008 915.043, 703.184 909.264 C 708.593 904.202, 713.661 886.166, 714.663 868.414 C 715.926 846.036, 710.794 834.633, 698.854 833.287 C 692.662 832.589, 686.521 834.534, 681.988 838.629 L 678.090 842.151 676.633 838.663 C 674.797 834.271, 671.572 831, 669.077 831 C 668.019 831, 665.824 832.119, 664.199 833.486 M 784.500 832.653 C 782.850 833.519, 779.587 836.069, 777.250 838.322 L 773 842.416 773 839.363 C 773 835.559, 769.977 832.667, 766 832.667 C 761.992 832.667, 759.437 835.219, 757.291 841.368 C 754.616 849.034, 754.657 889.444, 757.351 899.213 C 760.169 909.432, 764.156 912.709, 770.343 909.890 C 775.171 907.690, 775.649 905.166, 774.603 887.366 C 773.759 872.996, 775.208 864.301, 779.152 860.067 C 783.915 854.954, 785.087 859.091, 785.928 884 C 786.395 897.814, 787.051 905.315, 787.939 907 C 791.227 913.238, 794.454 914.546, 797.945 911.055 C 800.987 908.013, 802.970 899.766, 804.544 883.616 C 806.116 867.487, 807.092 862.722, 809.532 859.250 C 811.457 856.511, 814.648 856.314, 815.463 858.883 C 815.792 859.919, 815.935 869.932, 815.780 881.133 C 815.523 899.826, 815.664 901.829, 817.500 905.500 C 821.269 913.038, 828.257 910.764, 831.520 900.939 C 834.723 891.298, 835.895 868.830, 833.953 854.322 C 831.289 834.423, 825.774 828.504, 815.012 833.994 C 812.863 835.090, 809.639 837.811, 807.848 840.040 L 804.591 844.093 802.683 840.296 C 799.343 833.651, 796.152 830.995, 791.563 831.040 C 789.328 831.062, 786.150 831.788, 784.500 832.653 M 487.516 838.284 C 482.698 843.102, 480.596 853.377, 481.264 868.839 C 481.823 881.780, 483.525 888.503, 487.886 894.996 C 491.998 901.119, 497.152 903.989, 504.050 903.995 C 510.529 904.001, 515.493 901.265, 520.750 894.788 L 524 890.784 523.965 895.142 C 523.911 901.943, 521.468 914.042, 518.982 919.820 C 515.185 928.647, 510.831 930.616, 502 927.500 C 495.986 925.378, 493.284 925.625, 490.343 928.566 C 483.010 935.899, 496.032 947.040, 511.865 946.978 C 525.214 946.926, 534.867 936.856, 539.867 917.765 C 545.814 895.062, 544.868 857.687, 537.987 843.472 C 535.425 838.181, 531.063 835.733, 526.826 837.211 C 522.035 838.881, 520.810 842.785, 520.090 858.669 C 519.311 875.883, 518.197 878.307, 510.847 878.797 C 503.356 879.296, 502.607 877.685, 501.939 859.649 C 501.518 848.289, 500.961 843.711, 499.712 841.345 C 495.888 834.099, 492.541 833.259, 487.516 838.284" stroke="none" fill="#b1d5ff" fill-rule="evenodd"/><path d="M 401.309 812.466 C 391.155 816.882, 383.690 841.841, 383.655 871.500 C 383.634 888.340, 384.935 897.070, 388.599 904.698 C 391.591 910.927, 394.160 912.138, 397.575 908.930 C 402.691 904.123, 405.691 890.763, 406.877 867.500 L 407.540 854.500 409.379 862.500 C 415.870 890.720, 422.934 908, 427.981 908 C 433.763 908, 439.687 893.642, 445.081 866.555 C 446.718 858.335, 448.207 851.460, 448.389 851.278 C 448.571 851.095, 449.037 854.896, 449.425 859.723 C 450.461 872.647, 454.552 895.700, 457.194 903.506 C 458.559 907.540, 460.373 910.887, 461.639 911.708 C 463.545 912.946, 464.053 912.847, 466.330 910.798 C 470.625 906.932, 472.115 899.520, 472.721 878.993 C 473.699 845.876, 469.571 823.725, 460.783 814.937 C 458.494 812.648, 456.947 812, 453.768 812 C 450.341 812, 449.108 812.612, 446.043 815.834 C 442.048 820.034, 435.422 832.089, 431.937 841.500 C 430.715 844.800, 429.298 848.623, 428.789 849.995 C 427.959 852.233, 427.469 851.444, 424.038 842.351 C 418.952 828.873, 412.453 816.559, 408.807 813.491 C 405.394 810.620, 405.516 810.636, 401.309 812.466 M 613.419 812.897 C 601.890 818.133, 593.531 834.613, 587.360 864.271 C 583.872 881.038, 583.458 898.444, 586.416 904 C 588.707 908.305, 589.661 908.965, 593.614 908.985 C 599.499 909.014, 604.640 901.401, 607.067 889.064 C 607.723 885.729, 608.539 882.997, 608.880 882.992 C 609.895 882.980, 622.332 881.019, 624.551 880.522 C 626.464 880.093, 626.681 880.767, 627.769 890.509 C 629.499 905.986, 632.340 910.437, 640.346 910.209 C 650.825 909.911, 653.274 890.912, 647.159 857.356 C 641.810 828.008, 637.484 818.036, 628.024 813.250 C 622.649 810.531, 618.833 810.439, 613.419 812.897 M 731.250 813.989 C 728.586 815.614, 728 816.598, 728 819.450 C 728 821.964, 728.584 823.242, 730.105 824.056 C 733.039 825.627, 738.741 824.349, 741.612 821.479 C 748.159 814.932, 739.714 808.828, 731.250 813.989 M 857.692 834.972 C 845.348 839.795, 839.173 850.173, 845.113 856.113 C 847.799 858.799, 852.076 858.240, 858.143 854.410 C 864.275 850.538, 871.260 849.956, 874.545 853.043 C 876.276 854.669, 877 856.418, 877 858.974 C 877 862.583, 876.973 862.605, 871.250 863.794 C 865.226 865.045, 854.819 869.568, 849.891 873.078 C 839.098 880.763, 837.652 894.480, 846.720 903.149 C 851.987 908.185, 854.412 909.213, 860.875 909.146 C 865.244 909.100, 868.007 908.317, 873.250 905.636 C 878.251 903.078, 880 902.561, 880 903.641 C 880 906.900, 883.070 910.868, 886.454 911.985 C 891.746 913.731, 895.056 911.747, 897.274 905.498 C 898.785 901.241, 898.985 897.979, 898.619 883.500 C 897.861 853.514, 891.972 839.323, 878.252 834.427 C 872.868 832.505, 863.360 832.758, 857.692 834.972 M 731.743 835.084 C 729.178 836.578, 726.339 842.715, 725.091 849.465 C 723.716 856.902, 723.706 891.011, 725.076 896.958 C 727.496 907.456, 731.334 910.977, 736.601 907.526 C 742.754 903.494, 745.563 887.473, 744.751 861.046 C 744.255 844.913, 742.760 837.861, 739.283 835.250 C 737.287 833.751, 734.150 833.682, 731.743 835.084 M 615.555 838.275 C 613.944 840.735, 610.060 856.607, 610.022 860.894 C 610 863.258, 610.088 863.279, 617.126 862.625 C 621.045 862.261, 624.645 861.720, 625.126 861.422 C 627.086 860.210, 625.440 844.785, 622.748 839.151 C 621.054 835.606, 617.581 835.183, 615.555 838.275 M 870.500 878.659 C 859.188 884.612, 859.500 893.795, 870.887 890.037 C 877.495 887.857, 878.988 886.091, 878.322 881.250 C 877.659 876.434, 875.860 875.838, 870.500 878.659" stroke="none" fill="#ffc7c2" fill-rule="evenodd"/><path d="M 281.326 73.004 C 276.301 75.568, 270.877 83.059, 268.041 91.349 C 263.999 103.163, 262.772 112.695, 262.423 135 C 262.104 155.420, 262.156 156.149, 263.452 149.500 C 267.060 130.995, 272.709 121.666, 281.987 118.886 C 288.844 116.831, 294.334 119.420, 322.076 137.788 C 364.401 165.812, 429.829 211.539, 436.904 218.040 C 440.294 221.156, 440.333 221.164, 446.404 220.075 C 471.914 215.499, 511.760 213.828, 544.935 215.944 L 563.792 217.146 584.646 202.261 C 623.699 174.385, 696.060 125.518, 704.988 120.992 C 714.014 116.416, 723.244 118.416, 728.570 126.101 C 739.636 142.070, 742.585 183.584, 735.916 229.500 C 730.099 269.543, 717.545 323.582, 705.874 358.805 C 701.934 370.698, 699.771 374.303, 695.824 375.556 C 693.510 376.290, 693.472 375.812, 696.914 389.182 C 704.175 417.381, 708.087 440.590, 708.178 456 C 708.231 465.136, 707.878 467.456, 705.462 473.864 C 699.992 488.364, 689.451 501.613, 674.500 512.779 C 660.411 523.301, 631.636 535.432, 607.802 540.897 C 600.776 542.509, 593.092 543.840, 569.333 547.563 L 566.167 548.059 571.454 559.280 C 584.617 587.211, 593.008 610.437, 594.902 624.178 C 596.578 636.338, 592.656 664.831, 585.534 692.243 L 582.089 705.500 589.295 711.907 C 600.834 722.167, 614.901 736.976, 617.812 741.928 C 619.963 745.586, 620.484 747.699, 620.422 752.500 C 620.288 762.888, 614.489 775.453, 608.590 778.141 C 604.605 779.956, 599.668 776.773, 594.567 769.101 C 589.351 761.254, 587.771 759.724, 582.743 757.648 C 579.040 756.118, 578.993 756.128, 579.475 758.298 C 579.743 759.509, 581.328 768.600, 582.997 778.500 C 584.665 788.400, 586.475 797.850, 587.019 799.500 C 587.563 801.150, 590.778 805.200, 594.163 808.500 C 597.549 811.800, 601.104 815.787, 602.065 817.360 C 603.704 820.042, 603.875 820.101, 604.836 818.307 C 605.399 817.255, 608.183 815.130, 611.023 813.584 C 615.397 811.203, 617.062 810.836, 621.904 811.187 C 637.138 812.289, 643.637 826.473, 649.994 872.500 C 651.422 882.845, 651.204 894.951, 649.484 900.743 C 646.644 910.305, 638.724 913.878, 633.017 908.171 C 629.548 904.702, 628.130 899.990, 627.323 889.250 C 626.970 884.551, 626.251 881, 625.653 881 C 625.076 881, 620.956 881.527, 616.497 882.172 L 608.391 883.344 607.184 889.708 C 604.974 901.355, 600.422 908.366, 594.268 909.596 C 590.226 910.405, 586.630 907.034, 584.952 900.865 C 581.854 889.473, 587.152 854.370, 594.856 835.250 L 596.971 830 581.235 829.985 L 565.500 829.970 561.644 824.735 C 557.092 818.553, 541.718 792.811, 537.993 785.131 L 535.388 779.762 529.444 784.976 C 520.435 792.879, 503.376 805.362, 500.038 806.495 C 497.660 807.301, 491.328 813.846, 492.262 814.532 C 492.393 814.628, 496.100 814.317, 500.500 813.841 C 518.846 811.855, 530.342 814.966, 541.133 824.835 C 546.349 829.606, 550.881 836.453, 549.641 837.692 C 549.350 837.983, 546.158 838.458, 542.548 838.748 C 537.599 839.145, 536.228 839.570, 536.978 840.474 C 542.395 847.001, 545.412 876.918, 542.958 899.789 C 539.637 930.760, 528.994 946.911, 511.865 946.978 C 500.608 947.022, 489.660 941.120, 488.377 934.316 C 487.894 931.758, 488.280 930.629, 490.343 928.566 C 493.284 925.625, 495.986 925.378, 502 927.500 C 510.831 930.616, 515.185 928.647, 518.982 919.820 C 521.468 914.042, 523.911 901.943, 523.965 895.142 L 524 890.784 520.750 894.788 C 510.650 907.230, 496.164 907.322, 487.886 894.996 C 483.314 888.189, 481.793 881.862, 481.261 867.453 C 480.805 855.077, 481.656 848.130, 484.532 840.750 C 485.142 839.186, 484.476 839, 478.256 839 L 471.299 839 472.176 844.250 C 473.477 852.032, 473.408 889.444, 472.078 897.363 C 470.199 908.549, 466.318 914.210, 461.733 912.451 C 460.065 911.811, 456.832 904.968, 455.141 898.500 C 453.830 893.483, 450.368 872.554, 449.475 864.250 C 449.106 860.812, 448.490 858, 448.106 858 C 447.722 858, 446.168 863.675, 444.653 870.611 C 437.855 901.723, 431.168 913.260, 424.287 905.750 C 423.153 904.513, 421.292 901.639, 420.151 899.365 C 417.758 894.595, 412.063 876.171, 409.375 864.500 L 407.532 856.500 406.875 870.500 C 405.659 896.377, 401.162 911, 394.418 911 C 383.204 911, 379.123 865.991, 387.449 834.139 C 388.364 830.641, 388.974 827.683, 388.806 827.565 C 388.638 827.448, 383.100 825.663, 376.500 823.600 C 359.493 818.284, 344.073 810.445, 335.625 802.820 L 328.795 796.656 329.313 802.078 C 331.121 821.006, 334.466 831.083, 341.543 838.916 C 344.591 842.290, 345 843.384, 345 848.171 C 345 851.157, 344.460 854.140, 343.800 854.800 C 343.140 855.460, 339.652 856.064, 336.050 856.141 L 329.500 856.283 337.250 857.261 C 342.826 857.964, 345 858.637, 345 859.661 C 345 861.148, 341.448 861.049, 321.613 859.004 C 306.977 857.496, 261.748 865.638, 250.585 871.791 C 241.656 876.712, 241.835 879.624, 251.353 884.290 C 262.038 889.527, 287.024 894.385, 322.750 898.171 L 344 900.423 344 903.211 C 344 906.594, 344.224 906.579, 324.707 904.450 C 266.691 898.121, 226 887.610, 226 878.954 C 226 872.544, 250.464 864.874, 289.178 859.147 C 301.276 857.358, 301.410 857.310, 296.547 856.518 C 287.263 855.007, 249.974 862.368, 235.572 868.555 C 211.936 878.709, 222.088 889.182, 264 897.881 C 280.440 901.293, 295.565 903.332, 327.920 906.497 C 336.400 907.327, 343.414 908.117, 343.506 908.253 C 343.598 908.389, 344.230 911.718, 344.910 915.651 C 348.175 934.534, 360.941 949.302, 379.338 955.478 L 386.853 958 657.676 957.988 C 952.660 957.975, 932.529 958.368, 944.869 952.391 C 951.645 949.110, 962.368 938.569, 966.217 931.406 C 971.854 920.918, 972 919.185, 972 862.971 C 972 818.662, 971.774 810.595, 970.405 805.932 C 965.536 789.357, 953.974 777.083, 937.202 770.684 L 931.500 768.508 795.519 768.223 L 659.539 767.938 648.019 756.671 C 641.684 750.474, 633.704 742.951, 630.287 739.952 L 624.075 734.500 627.039 723.500 C 633.479 699.597, 639.022 666.343, 639.094 651.174 C 639.117 646.346, 638.424 639.269, 637.554 635.448 C 633.897 619.373, 624.433 594.523, 611.976 568.287 C 608.744 561.479, 606.669 555.999, 607.321 555.997 C 607.970 555.996, 615.590 554.884, 624.255 553.525 C 698.054 541.958, 744.346 516.046, 761.920 476.467 C 767.147 464.695, 768.093 453.439, 765.511 433.741 C 763.393 417.588, 756.454 385.361, 750.494 364 C 750.221 363.021, 751.484 361.848, 754.127 360.625 C 759.086 358.330, 760.081 356.201, 766.930 333.242 C 788.356 261.419, 801.975 188.473, 801.981 145.500 C 801.987 107.293, 795.687 82.322, 783.931 73.951 C 781.856 72.473, 778.762 71.479, 775.365 71.197 C 770.832 70.821, 768.964 71.270, 762.723 74.234 C 750.497 80.040, 617.840 170.149, 605.500 181.030 C 603.732 182.589, 602.514 182.686, 595 181.873 C 590.325 181.367, 571.425 180.684, 553 180.357 C 517.457 179.724, 504.655 180.514, 476.280 185.090 C 464.321 187.019, 464.021 187.021, 462.181 185.181 C 452.372 175.372, 318.343 82.840, 301.563 74.292 C 294.613 70.751, 286.723 70.249, 281.326 73.004 M 105 229.634 C 105 229.983, 106.569 237.970, 108.487 247.384 C 117.348 290.875, 121.816 335.881, 120.661 370 C 120.335 379.625, 118.507 401.225, 116.598 418 C 110.049 475.570, 109.537 483.311, 109.525 525 C 109.517 556.092, 109.861 566.290, 111.315 578 C 119.569 644.474, 139.330 686.959, 180.626 727.018 C 209.542 755.067, 242.305 774.016, 283.388 786.450 C 296.815 790.514, 318.179 795, 324.106 795 L 328.051 795 326.370 791.750 C 323.684 786.559, 322.026 779.182, 321.349 769.407 L 320.719 760.315 307.236 758.102 C 247.093 748.233, 192.809 713.413, 159.753 663.500 C 126.372 613.096, 118.710 544.193, 132.988 422.830 C 137.233 386.746, 137.360 359.706, 133.449 324.864 C 131.672 309.040, 127.082 280.833, 124.120 267.539 C 122.689 261.117, 122.524 259, 123.454 259 C 125.730 259, 136.540 266.638, 147.070 275.686 C 171.218 296.436, 203.558 333.745, 226.220 367 C 256.853 411.952, 273.153 446.277, 281.434 483.278 C 290.107 522.026, 291.383 559.837, 286.417 631 C 284.761 654.739, 284.922 681.478, 286.757 687.500 C 287.482 689.879, 287.819 688.014, 288.383 678.500 C 288.774 671.900, 289.953 653.675, 291.003 638 C 296.105 561.817, 293.896 519.399, 282.461 473.922 C 267.266 413.493, 217.350 333.368, 155.532 270.171 C 137.504 251.741, 127.305 242.773, 115.097 234.615 C 107.067 229.249, 105 228.230, 105 229.634 M 367 532.828 C 371.624 535.846, 398.832 544.054, 418.901 548.483 C 432.893 551.572, 433.224 551.579, 432.820 548.807 C 432.529 546.815, 431.448 546.458, 421 544.906 C 403.898 542.365, 383.138 537.549, 367.500 532.495 C 365.956 531.996, 365.842 532.072, 367 532.828 M 729.923 814.923 C 726.564 818.282, 726.214 820.979, 728.829 823.345 C 733.492 827.565, 744 823.133, 744 816.946 C 744 811.255, 734.899 809.947, 729.923 814.923 M 918.379 815.560 C 910.891 823.499, 906.721 850.030, 908.925 875.704 C 910.742 896.871, 914.710 909.471, 920.162 911.388 C 924.524 912.922, 927.620 911.433, 929.799 906.754 C 931.687 902.699, 931.768 900.557, 931.529 861 C 931.392 838.175, 931.216 818.797, 931.139 817.939 C 930.907 815.335, 927.083 812, 924.329 812 C 922.653 812, 920.549 813.259, 918.379 815.560 M 664.655 832.133 C 663.640 832.723, 661.963 835.072, 660.927 837.353 C 659.248 841.050, 659.042 844.161, 659.030 866 C 659.010 898.786, 660.642 908.119, 666.659 909.629 C 671.179 910.764, 674.290 908.919, 676.999 903.500 C 679.294 898.907, 679.526 897.187, 679.849 882.375 C 680.178 867.292, 680.372 865.909, 682.850 860.976 C 686.336 854.038, 688.474 852.706, 691.063 855.861 C 693.534 858.872, 693.624 866.626, 691.395 884.544 C 690.062 895.262, 689.987 898.620, 690.976 903.383 C 692.995 913.110, 697.008 915.043, 703.184 909.264 C 708.593 904.202, 713.661 886.166, 714.663 868.414 C 715.653 850.861, 713.018 841.029, 705.913 835.769 C 699.861 831.287, 687.255 832.777, 681.553 838.648 L 678.233 842.066 677.617 839.610 C 677.278 838.259, 675.835 835.769, 674.411 834.077 C 671.681 830.832, 668.116 830.122, 664.655 832.133 M 784.500 832.653 C 782.850 833.519, 779.587 836.069, 777.250 838.322 L 773 842.416 773 839.363 C 773 835.559, 769.977 832.667, 766 832.667 C 761.992 832.667, 759.437 835.219, 757.291 841.368 C 754.616 849.034, 754.657 889.444, 757.351 899.213 C 760.169 909.432, 764.156 912.709, 770.343 909.890 C 775.171 907.690, 775.649 905.166, 774.603 887.366 C 773.759 872.996, 775.208 864.301, 779.152 860.067 C 783.915 854.954, 785.087 859.091, 785.928 884 C 786.395 897.814, 787.051 905.315, 787.939 907 C 791.227 913.238, 794.454 914.546, 797.945 911.055 C 800.987 908.013, 802.970 899.766, 804.544 883.616 C 806.116 867.487, 807.092 862.722, 809.532 859.250 C 811.457 856.511, 814.648 856.314, 815.463 858.883 C 815.792 859.919, 815.935 869.932, 815.780 881.133 C 815.523 899.826, 815.664 901.829, 817.500 905.500 C 821.269 913.038, 828.257 910.764, 831.520 900.939 C 834.723 891.298, 835.895 868.830, 833.953 854.322 C 831.289 834.423, 825.774 828.504, 815.012 833.994 C 812.863 835.090, 809.639 837.811, 807.848 840.040 L 804.591 844.093 802.683 840.296 C 799.343 833.651, 796.152 830.995, 791.563 831.040 C 789.328 831.062, 786.150 831.788, 784.500 832.653 M 861.081 833.540 C 854.424 835.389, 850.085 838.001, 846.070 842.573 C 840.448 848.976, 842.285 858, 849.210 858 C 850.805 858, 855.079 856.425, 858.706 854.500 C 862.508 852.483, 866.739 851, 868.696 851 C 873.076 851, 877 854.740, 877 858.916 C 877 861.615, 876.565 862.035, 872.750 863.018 C 852.213 868.308, 840.078 878.130, 840.032 889.500 C 839.998 897.709, 848.618 908.087, 856.734 909.610 C 861.597 910.522, 869.874 908.466, 875.372 904.979 L 880 902.044 880 904.599 C 880 908.418, 885.044 913, 889.249 913 C 897.753 913, 900.844 901.714, 898.995 877.419 C 897.477 857.474, 893.503 845.283, 886.522 839.153 C 879.522 833.007, 870.314 830.976, 861.081 833.540 M 730.222 836.264 C 725.336 841.464, 722.975 853.680, 723.031 873.474 C 723.072 888.098, 724.502 898.439, 727.250 903.971 C 729.139 907.774, 730.018 908.550, 732.733 908.812 C 737.026 909.227, 740.324 905.891, 742.565 898.870 C 745.156 890.748, 745.853 852.877, 743.575 843.985 C 742.673 840.465, 741.205 836.779, 740.313 835.793 C 738.009 833.247, 732.829 833.489, 730.222 836.264 M 616.538 838.302 C 614.798 840.958, 611.612 851.968, 610.587 858.869 L 609.938 863.238 615.719 862.560 C 625.840 861.372, 625.340 861.931, 624.749 852.458 C 624.234 844.199, 621.827 837.019, 619.314 836.242 C 618.661 836.041, 617.412 836.968, 616.538 838.302 M 425.376 843.939 C 426.520 847.205, 427.674 849.659, 427.941 849.393 C 428.556 848.777, 431.998 839.751, 431.999 838.750 C 432 838.337, 430.041 838, 427.648 838 L 423.295 838 425.376 843.939 M 500.704 843.250 C 501.729 846.211, 502.150 851.478, 502.092 860.621 C 502.016 872.522, 502.204 873.990, 504.116 876.421 C 505.935 878.733, 506.846 879.059, 510.761 878.800 C 514.386 878.560, 515.721 877.932, 517.399 875.678 C 519.237 873.208, 519.568 871.019, 520.044 858.178 C 520.370 849.383, 521.086 842.598, 521.829 841.250 L 523.070 839 511.152 839 L 499.234 839 500.704 843.250 M 313.500 852.678 C 305.755 853.560, 307.400 855.002, 316.050 854.912 C 324.316 854.827, 337.045 853.398, 331.897 853.134 C 330.465 853.060, 326.640 852.825, 323.397 852.611 C 320.154 852.397, 315.700 852.427, 313.500 852.678 M 872.132 878.281 C 868.113 879.565, 862 885.063, 862 887.393 C 862 891.043, 868.060 891.301, 875.250 887.958 C 877.695 886.821, 878 886.142, 878 881.839 C 878 876.604, 877.785 876.474, 872.132 878.281" stroke="none" fill="#ffffff" fill-rule="evenodd"/><path d="M 289.376 183.294 C 297.920 188.157, 311.805 197.501, 316.983 201.871 C 326.771 210.134, 337 220.221, 337 221.610 C 337 223.016, 344.464 227.194, 351.258 229.591 L 355.159 230.967 350.877 225.734 C 336.449 208.099, 316.477 193.250, 294.645 183.927 C 286.589 180.487, 283.869 180.160, 289.376 183.294 M 731.328 193.500 C 731.333 197.350, 731.513 198.802, 731.730 196.728 C 731.946 194.653, 731.943 191.503, 731.722 189.728 C 731.501 187.952, 731.324 189.650, 731.328 193.500 M 731.320 213 C 731.320 216.575, 731.502 218.037, 731.723 216.250 C 731.945 214.463, 731.945 211.537, 731.723 209.750 C 731.502 207.963, 731.320 209.425, 731.320 213 M 524.750 215.723 C 526.538 215.945, 529.462 215.945, 531.250 215.723 C 533.038 215.502, 531.575 215.320, 528 215.320 C 524.425 215.320, 522.962 215.502, 524.750 215.723 M 307.250 227.108 C 305.462 227.630, 304 228.205, 304 228.386 C 304 228.566, 306.363 228.719, 309.250 228.726 C 312.137 228.732, 316.257 229.477, 318.404 230.382 C 322.997 232.317, 323.702 232.036, 321.275 229.235 C 319.166 226.800, 312.014 225.716, 307.250 227.108 M 344.603 248.239 C 348.957 252.352, 349.447 252.562, 352.496 251.607 L 355.748 250.590 353.316 248.676 C 351.978 247.624, 349.447 246.436, 347.692 246.036 C 345.936 245.636, 343.479 244.981, 342.230 244.581 C 340.592 244.055, 341.251 245.072, 344.603 248.239 M 164.500 293 C 168.320 296.850, 171.671 300, 171.946 300 C 172.221 300, 169.320 296.850, 165.500 293 C 161.680 289.150, 158.329 286, 158.054 286 C 157.779 286, 160.680 289.150, 164.500 293 M 134.876 408.500 C 134.532 411.800, 134.420 414.688, 134.626 414.917 C 135.647 416.054, 136.077 413.660, 135.803 408.363 L 135.500 402.500 134.876 408.500 M 126.310 505.500 C 126.315 508.800, 126.502 510.029, 126.725 508.232 C 126.947 506.435, 126.943 503.735, 126.715 502.232 C 126.486 500.729, 126.304 502.200, 126.310 505.500 M 549.500 548.543 C 541.800 549.247, 522.799 549.862, 507.275 549.911 L 479.050 550 480.079 552.750 C 480.645 554.263, 482.471 558.475, 484.138 562.111 L 487.168 568.721 499.016 571.003 C 512.727 573.644, 528.152 573.458, 540.874 570.498 C 547.029 569.067, 548.387 569.008, 549.090 570.142 C 550.145 571.844, 545.467 573.124, 527.500 576.050 C 513.152 578.386, 509.408 578.211, 497.028 574.625 L 489.077 572.323 490.719 575.101 C 491.622 576.630, 492.617 577.821, 492.930 577.748 C 493.244 577.675, 496.739 578.377, 500.697 579.308 C 504.656 580.239, 510.435 581, 513.540 581 C 519.711 581, 534.864 578.132, 544.810 575.082 L 551.119 573.147 554.718 578.773 C 558.234 584.269, 566 599.989, 566 601.610 C 566 602.058, 563.750 600.209, 561 597.500 C 558.250 594.791, 556 593.033, 556 593.593 C 556 594.153, 557.529 598.411, 559.398 603.056 C 564.172 614.921, 567.012 629.011, 567.165 641.600 C 567.296 652.379, 568.277 655.788, 569.361 649.230 C 570.962 639.548, 569.307 623.192, 565.521 611.270 C 564.251 607.271, 563.368 604, 563.558 604 C 563.748 604, 565.348 606.138, 567.114 608.750 C 568.880 611.362, 570.446 613.658, 570.596 613.850 C 570.745 614.043, 571.307 613.929, 571.844 613.596 C 573.118 612.809, 570.898 603.265, 567.422 594.580 C 565.966 590.945, 562.389 584.405, 559.471 580.046 L 554.166 572.121 560.528 569.839 C 568.833 566.860, 568.097 566.272, 559.419 568.952 C 554.120 570.589, 552.476 570.771, 551.868 569.787 C 550.833 568.112, 551.827 567.680, 563.079 564.913 L 572.657 562.558 569.159 554.779 C 567.235 550.501, 565.174 547.059, 564.580 547.132 C 563.986 547.205, 557.200 547.840, 549.500 548.543 M 284.378 664 C 284.378 670.325, 284.541 672.913, 284.739 669.750 C 284.937 666.587, 284.937 661.413, 284.739 658.250 C 284.541 655.087, 284.378 657.675, 284.378 664 M 424.768 837.725 C 426.565 837.947, 429.265 837.943, 430.768 837.715 C 432.271 837.486, 430.800 837.304, 427.500 837.310 C 424.200 837.315, 422.971 837.502, 424.768 837.725" stroke="none" fill="#ddc8b9" fill-rule="evenodd"/><path d="M 707.916 129.793 L 703.500 134.500 708.135 130.155 C 711.367 127.125, 712.932 126.217, 713.306 127.155 C 713.652 128.022, 713.870 128.077, 713.921 127.309 C 714.105 124.534, 712.053 125.383, 707.916 129.793 M 310.387 389.617 C 308.744 393.548, 309.118 396, 311.362 396 C 313.136 396, 314 393.846, 314 389.418 C 314 384.964, 312.292 385.058, 310.387 389.617 M 317.607 400.582 C 316.045 404.651, 317.819 411.617, 319.876 409.492 C 320.404 408.946, 321.149 406.363, 321.531 403.750 C 322.164 399.430, 322.045 399, 320.221 399 C 319.117 399, 317.941 399.712, 317.607 400.582 M 306.454 410.429 C 304.211 413.853, 304.862 419.500, 307.500 419.500 C 309.233 419.500, 309.540 418.733, 309.800 413.750 C 310.126 407.507, 309.061 406.451, 306.454 410.429 M 312.413 419.492 C 309.384 424.115, 310.748 435.669, 313.943 432.450 C 314.977 431.408, 315.668 418.334, 314.738 417.404 C 314.420 417.087, 313.374 418.026, 312.413 419.492 M 304.486 429.380 C 301.519 436.481, 303.480 450.848, 306.950 447.433 C 308.575 445.834, 308.832 426.819, 307.236 426.264 C 306.510 426.011, 305.338 427.339, 304.486 429.380 M 311.348 447.537 C 310.504 449.736, 312.160 456.237, 313.693 456.738 C 314.977 457.159, 316.430 451.470, 315.831 448.361 C 315.369 445.960, 312.178 445.373, 311.348 447.537 M 318.667 452.667 C 317.434 453.899, 317.966 462.727, 319.342 463.869 C 321.207 465.417, 322.002 464.278, 321.986 460.083 C 321.962 453.795, 320.594 450.739, 318.667 452.667 M 304.667 454.667 C 303.640 455.693, 303.888 465.055, 305.052 469.248 C 306.217 473.442, 310.421 478.908, 311.587 477.745 C 312.496 476.838, 310.193 458.240, 308.864 455.750 C 307.917 453.976, 305.883 453.451, 304.667 454.667 M 315.393 474.419 C 313.796 478.579, 318.626 484.774, 321.345 482.055 C 322.186 481.214, 321.966 479.990, 320.488 477.280 C 318.244 473.166, 316.294 472.071, 315.393 474.419 M 319 493.132 C 319 495.346, 322.991 500.675, 325.509 501.822 C 329.933 503.838, 329.888 500.494, 325.431 495.929 C 321.656 492.063, 319 490.908, 319 493.132 M 334.378 500.458 C 333.554 502.605, 334.806 504, 337.559 504 C 340.760 504, 340.703 501.642, 337.466 500.167 C 335.414 499.232, 334.827 499.287, 334.378 500.458 M 131 530 C 131 535.727, 133.379 537.103, 134.495 532.022 C 135.307 528.326, 134.330 525, 132.433 525 C 131.380 525, 131 526.327, 131 530 M 138.667 545.667 C 136.832 547.502, 139.053 555.704, 141.050 554.469 C 142.114 553.811, 142.323 549.006, 141.393 546.582 C 140.749 544.903, 139.762 544.572, 138.667 545.667 M 133.174 555.675 C 131.862 558.127, 133.777 567.109, 135.750 567.756 C 137.515 568.336, 137.415 557.950, 135.632 555.511 C 134.303 553.694, 134.232 553.699, 133.174 555.675 M 143.623 568.540 C 142.541 571.360, 142.939 573.703, 144.916 576.139 L 146.831 578.500 147.513 575.793 C 148.726 570.977, 145.206 564.414, 143.623 568.540 M 136.226 582.314 C 137.189 590.858, 142.005 596.719, 141.994 589.333 C 141.985 582.845, 140.202 578, 137.823 578 C 135.959 578, 135.791 578.454, 136.226 582.314 M 154.460 580.244 C 154.162 581.020, 154.394 582.907, 154.976 584.436 C 155.819 586.655, 156.314 586.985, 157.419 586.067 C 158.344 585.300, 158.570 584.038, 158.098 582.274 C 157.294 579.268, 155.268 578.138, 154.460 580.244 M 146.667 588.425 C 145.422 591.671, 149.633 600.963, 151.754 599.652 C 152.795 599.009, 152.716 598.227, 150.856 590.750 C 149.921 586.991, 147.692 585.754, 146.667 588.425 M 279 600.583 C 279 604.748, 280.994 604.854, 282.092 600.748 C 282.849 597.916, 282.420 597, 280.333 597 C 279.470 597, 279 598.264, 279 600.583 M 141.557 603.631 C 140.113 609.381, 147.228 624.091, 150.093 621.282 C 151.083 620.312, 151.076 619.194, 150.057 615.782 C 145.922 601.942, 143.021 597.796, 141.557 603.631 M 153.511 611.965 C 152.765 614.317, 155.528 623.751, 157.611 625.957 C 158.688 627.099, 159.248 627.152, 160.199 626.201 C 161.149 625.251, 161.138 623.965, 160.146 620.255 C 157.757 611.324, 154.863 607.707, 153.511 611.965 M 278.115 612.362 C 276.505 614.302, 275.728 622.238, 276.976 624 C 278.720 626.463, 281 622.423, 281 616.868 C 281 611.821, 279.939 610.164, 278.115 612.362 M 270.206 622.873 C 268.334 624.030, 267.488 630.678, 268.984 632.481 C 270.800 634.669, 271.797 633.533, 272.567 628.402 C 273.280 623.646, 272.377 621.531, 270.206 622.873 M 152.267 629.179 C 151.517 630.082, 151.389 631.782, 151.901 634.034 C 154.113 643.762, 164 656.334, 164 649.418 C 164 647.011, 158.057 633.604, 155.653 630.590 C 153.803 628.270, 153.222 628.028, 152.267 629.179 M 169.663 635.750 C 169.413 636.163, 169.884 638.188, 170.711 640.250 C 171.706 642.733, 172.853 644, 174.107 644 C 176.380 644, 176.458 643.031, 174.551 638.468 C 173.222 635.286, 170.771 633.924, 169.663 635.750 M 274.068 638.873 C 272.439 641.917, 272.745 646.965, 274.601 647.677 C 276.846 648.538, 278.067 646.181, 277.761 641.578 C 277.468 637.172, 275.679 635.863, 274.068 638.873 M 168 646.016 C 168 648.682, 170.658 654.471, 172.634 656.112 C 173.663 656.966, 174.395 657.005, 175.153 656.247 C 175.912 655.488, 175.391 653.646, 173.361 649.904 C 170.240 644.152, 168 642.527, 168 646.016 M 265.701 644.632 C 264.502 645.831, 264.931 650.523, 266.425 652.559 C 267.797 654.427, 267.893 654.389, 268.971 651.566 C 269.587 649.952, 269.958 647.706, 269.795 646.576 C 269.498 644.509, 267.007 643.326, 265.701 644.632 M 273.658 660.078 C 271.737 662.820, 271.605 665.039, 273.053 670.250 C 273.802 672.948, 274.642 674, 276.047 674 C 277.778 674, 278 673.283, 278 667.691 C 278 663.991, 277.445 660.623, 276.658 659.547 C 275.376 657.794, 275.241 657.818, 273.658 660.078 M 169 661.394 C 169 663.812, 173.920 670, 175.842 670 C 178.212 670, 177.768 667.983, 174.438 663.622 C 170.495 658.458, 169 657.846, 169 661.394 M 261.250 665.139 C 259.789 666.612, 259.618 671.848, 260.962 673.972 C 262.330 676.136, 263.209 673.329, 262.813 668.054 C 262.562 664.707, 262.252 664.129, 261.250 665.139 M 439 665.748 C 439 666.220, 440.389 668.495, 442.087 670.803 L 445.173 675 442.337 675.103 C 440.776 675.160, 436.125 675.147, 432 675.073 C 427.875 674.999, 423.150 675.387, 421.500 675.933 C 418.922 676.788, 419.155 676.848, 423.160 676.364 C 425.723 676.054, 428.525 676.195, 429.387 676.677 C 430.515 677.308, 428.425 678.214, 421.940 679.906 C 416.981 681.200, 413.070 682.403, 413.247 682.580 C 413.424 682.757, 418.953 681.804, 425.534 680.461 C 432.115 679.119, 438.745 678.016, 440.266 678.011 C 444.493 677.994, 456.239 688.296, 465.500 700.141 C 469.900 705.769, 476.812 713.861, 480.861 718.123 C 488.954 726.642, 496.270 730.909, 510 735.118 C 514.125 736.382, 517.682 737.543, 517.905 737.696 C 518.674 738.228, 513.718 755.546, 509.232 768 C 506.756 774.875, 502.049 786.350, 498.773 793.500 C 495.497 800.650, 491.739 808.862, 490.421 811.750 C 487.543 818.056, 488.439 818.510, 492.325 812.713 C 493.879 810.396, 496.721 806.250, 498.640 803.500 C 506.089 792.826, 515.151 771.579, 521.567 749.750 C 524.742 738.944, 524.399 739.191, 533 741.500 C 542.850 744.144, 540.771 743.026, 525.500 737.470 C 517.250 734.468, 505.991 729.793, 500.481 727.081 C 489.259 721.558, 484.265 716.911, 471.305 699.928 C 467.348 694.743, 461.498 687.523, 458.305 683.885 C 455.112 680.247, 451.770 676.422, 450.878 675.385 C 448.229 672.306, 439 664.818, 439 665.748 M 266.667 672.667 C 266.300 673.033, 266.007 675.396, 266.015 677.917 C 266.030 682.760, 267.665 687.067, 269.750 687.754 C 271.322 688.273, 271.439 681.122, 269.947 675.750 C 268.938 672.116, 268.051 671.282, 266.667 672.667 M 447.490 679.990 C 449.065 681.634, 450.576 682.757, 450.848 682.486 C 451.508 681.826, 446.925 677, 445.639 677 C 445.082 677, 445.915 678.345, 447.490 679.990 M 276.207 682.193 C 274.457 683.943, 274.764 688.883, 276.918 693.627 C 280.898 702.392, 283.827 700.292, 281.416 690.401 C 279.503 682.552, 278.084 680.316, 276.207 682.193 M 462.619 681.807 C 461.954 682.883, 465.634 688, 467.073 688 C 467.583 688, 468 687.403, 468 686.674 C 468 684.838, 463.347 680.630, 462.619 681.807 M 471.510 695.250 C 472.433 698.472, 478.945 704.455, 480.182 703.218 C 482.279 701.121, 475.942 693, 472.210 693 C 471.291 693, 471.069 693.712, 471.510 695.250 M 481.707 695.627 C 480.923 696.410, 483.354 701.219, 485.386 702.905 C 486.221 703.598, 487.621 704.015, 488.498 703.833 C 489.792 703.563, 489.502 702.698, 486.960 699.250 C 483.863 695.049, 482.929 694.405, 481.707 695.627 M 284 706.632 C 284 708.945, 287.918 715, 289.415 715 C 292.566 715, 291.863 711.819, 287.701 707.250 C 285.279 704.591, 284 704.377, 284 706.632 M 485 708.923 C 485 713.241, 494.930 721.470, 497.291 719.109 C 498.039 718.361, 496.723 716.419, 492.828 712.524 C 486.992 706.688, 485 705.772, 485 708.923 M 498.910 714.832 C 500.322 717.469, 502.326 718.925, 504.970 719.232 C 508.576 719.651, 508.493 717.271, 504.823 715.034 C 500.473 712.381, 497.545 712.282, 498.910 714.832 M 304.973 728.028 C 299.420 733.729, 294.504 743.227, 293.471 750.250 C 292.593 756.224, 294.230 756.558, 295.921 750.750 C 297.546 745.169, 303.764 734.674, 308.899 728.847 C 313.427 723.709, 313.734 723, 311.435 723 C 310.574 723, 307.666 725.263, 304.973 728.028 M 507.097 725.454 C 510.052 728.520, 518.653 730.484, 517.809 727.900 C 517.213 726.072, 512.898 724.007, 508.224 723.312 L 504.500 722.758 507.097 725.454 M 310.126 729.936 C 305.825 736.068, 299.566 748.519, 298.471 753.122 C 297.955 755.293, 298.248 755.844, 300.174 756.318 C 304.497 757.383, 319.938 759.396, 320.339 758.946 C 320.558 758.701, 321.050 751.430, 321.432 742.790 L 322.126 727.080 318.441 725.540 C 316.414 724.693, 314.651 724, 314.523 724 C 314.395 724, 312.416 726.671, 310.126 729.936 M 521.675 724.658 C 520.537 725.796, 523.140 728, 525.622 728 C 528.494 728, 528.724 726.458, 526.066 725.035 C 523.828 723.838, 522.601 723.732, 521.675 724.658 M 557.843 755.837 C 555.497 758.952, 549.563 765.657, 544.655 770.737 L 535.731 779.974 541.458 790.186 C 548.883 803.427, 561.649 823.875, 564.285 826.750 C 566.257 828.900, 567.044 829, 582.073 829 L 597.797 829 600.303 824.756 C 603.395 819.521, 603.187 819.039, 593.515 809 L 586.290 801.500 584.087 789.500 C 582.875 782.900, 581.122 772.591, 580.190 766.590 L 578.495 755.680 570.302 752.927 L 562.109 750.174 557.843 755.837 M 346.349 772 C 346.556 780.338, 346.944 782.173, 349.520 787 C 355.341 797.908, 367.737 808.019, 385.378 816.250 C 392.409 819.531, 393.596 819.623, 395 817 C 395.821 815.467, 395.760 815, 394.742 815 C 394.012 815, 387.937 812.299, 381.242 808.998 C 359.793 798.423, 350.021 786.722, 347 768 C 346.203 763.058, 346.137 763.463, 346.349 772 M 353.735 765.200 C 353.154 766.824, 354.720 770, 356.102 770 C 357.492 770, 356.803 764.754, 355.350 764.277 C 354.717 764.070, 353.991 764.485, 353.735 765.200 M 361.667 775.667 C 361.300 776.033, 361 776.623, 361 776.978 C 361 778.022, 364.992 782, 366.039 782 C 367.680 782, 367.095 778.396, 365.171 776.655 C 363.150 774.826, 362.649 774.685, 361.667 775.667 M 354.505 776.992 C 353.322 778.906, 354.912 782.896, 357.547 784.623 C 360.749 786.721, 361.600 785.862, 360.043 782.104 C 358.444 778.242, 355.444 775.473, 354.505 776.992 M 376 785.800 C 376 787.213, 378.345 789, 380.200 789 C 382.573 789, 382.498 787.337, 380.066 786.035 C 377.755 784.799, 376 784.697, 376 785.800 M 364.304 791.651 C 363.870 792.781, 364.958 794.504, 367.754 797.112 C 372.017 801.089, 375.843 802.658, 378.648 801.582 C 380.100 801.024, 380.017 800.647, 377.957 798.455 C 375.606 795.952, 366.929 790, 365.631 790 C 365.249 790, 364.652 790.743, 364.304 791.651 M 379.662 793.671 C 378.478 794.856, 381.244 798.204, 384.548 799.585 C 390.847 802.217, 394.619 800.759, 389.750 797.574 C 386.307 795.323, 380.325 793.008, 379.662 793.671 M 384.583 803.866 C 383.396 805.786, 393.953 812, 398.401 812 C 404.302 812, 401.360 808.085, 393.101 804.947 C 387.484 802.812, 385.398 802.548, 384.583 803.866 M 404.158 806.584 C 404.621 808.984, 409.212 810.664, 411.924 809.425 C 414.966 808.035, 413.010 805.945, 408.043 805.279 C 404.277 804.774, 403.838 804.921, 404.158 806.584 M 410.547 812.923 C 409.401 814.779, 414.368 818, 418.375 818 C 421.139 818, 422.734 816.334, 421.322 814.922 C 420.135 813.735, 411.083 812.056, 410.547 812.923 M 426 815.455 C 426 817.107, 432.175 818.628, 434.087 817.446 C 434.978 816.896, 434.810 816.334, 433.460 815.347 C 430.952 813.513, 426 813.585, 426 815.455 M 416.119 823.050 C 417.010 824.397, 419.035 825.784, 420.619 826.132 C 425.348 827.169, 437.835 827.077, 438.500 826 C 438.840 825.450, 438.864 825, 438.552 825 C 436.554 825, 417.914 821.905, 416.380 821.318 C 414.599 820.637, 414.585 820.728, 416.119 823.050" stroke="none" fill="#af6348" fill-rule="evenodd"/><path d="M 278.366 120.919 C 271.911 124.854, 267.443 133.405, 264.569 147.320 C 263.706 151.498, 263.015 156.397, 263.033 158.208 L 263.067 161.500 264.955 159.236 C 265.994 157.990, 268.786 151.240, 271.159 144.236 C 274.428 134.586, 275.543 132.227, 275.761 134.500 C 276.333 140.466, 277.002 142, 279.034 142 C 281.611 142, 284.625 137.036, 286.130 130.310 L 287.299 125.084 292.400 129.701 C 304.867 140.986, 315.086 145.046, 315.793 138.995 C 316.157 135.877, 311.247 131.011, 302 125.327 C 291.047 118.595, 284.254 117.328, 278.366 120.919 M 707.625 120.507 C 700.637 123.166, 687.530 132.601, 685.444 136.474 C 683.750 139.619, 683.694 140.196, 685.002 141.023 C 689.109 143.618, 696.255 140.316, 705.943 131.346 C 710.539 127.092, 713.151 125.286, 713.447 126.159 C 713.697 126.897, 714.418 129.525, 715.050 132 C 716.715 138.522, 719.027 142, 721.697 142 C 724.025 142, 724.626 140.731, 725.254 134.500 C 725.490 132.148, 726.152 133.445, 728.314 140.500 C 733.317 156.828, 735.891 162.443, 737.591 160.742 C 738.931 159.402, 734.059 137.910, 730.928 131.349 C 727.158 123.449, 722.705 119.825, 716.208 119.366 C 713.619 119.183, 709.756 119.697, 707.625 120.507 M 409.179 357.267 C 405.245 358.526, 400 363.154, 400 365.366 C 400 372.074, 421.917 368.164, 423.679 361.142 C 424.848 356.487, 417.637 354.560, 409.179 357.267 M 582.750 357.080 C 576.661 360.627, 587.219 368.977, 597.816 368.994 C 605.172 369.007, 607.162 364.997, 601.969 360.627 C 597.066 356.501, 586.949 354.634, 582.750 357.080 M 412.379 396.398 C 406.189 399.169, 402 407.356, 402 416.681 C 402 423.063, 403.889 428.066, 407.595 431.501 C 412.149 435.721, 420.389 434.539, 424.718 429.046 C 425.679 427.826, 425.943 427.791, 425.968 428.882 C 425.986 429.641, 424.034 432.229, 421.632 434.632 C 419.107 437.156, 417.883 439, 418.732 439 C 419.539 439, 421.694 437.506, 423.520 435.680 C 432.122 427.078, 432.053 403.196, 423.410 397.533 C 419.875 395.217, 415.924 394.810, 412.379 396.398 M 580 396.738 C 572.608 400.459, 569.717 413.634, 573.463 426.521 C 575.112 432.193, 580.647 439, 583.610 439 C 584.602 439, 584.041 438.064, 582.041 436.381 C 580.329 434.940, 578.204 432.361, 577.319 430.650 L 575.710 427.538 579.390 430.769 C 586.121 436.679, 595.004 434.445, 598.386 425.993 C 604.746 410.098, 592.420 390.487, 580 396.738 M 483.895 404.374 C 478.059 405.630, 473 408.288, 473 410.097 C 473 410.675, 475.451 413.718, 478.447 416.859 C 484.845 423.566, 495.152 430, 499.500 430 C 503.675 430, 514.110 423.650, 520.631 417.141 C 526.466 411.318, 526.915 410.138, 524.221 407.700 C 519.480 403.409, 496.993 401.555, 483.895 404.374 M 311.500 810.113 C 289.412 812.465, 261.850 817.124, 249 820.679 C 240.986 822.895, 229.214 828.731, 227.935 831.121 C 224.363 837.796, 234.433 843.776, 259 849.571 C 267.379 851.547, 289.615 854.996, 293.500 854.922 C 298.948 854.818, 293.356 853.364, 279 851.152 C 261.983 848.529, 240.867 842.785, 235.006 839.183 C 227.682 834.683, 228.483 831.479, 238 827.209 C 251.051 821.355, 275.898 816.827, 324.250 811.491 C 327.413 811.142, 330 810.438, 330 809.928 C 330 808.842, 322.763 808.914, 311.500 810.113 M 324.500 813.703 C 311.007 814.941, 280.147 819.393, 270.281 821.526 C 252.029 825.473, 242.706 830.530, 246.114 834.637 C 250.581 840.020, 268.384 844.661, 301.500 849.077 C 316.955 851.138, 331.574 851.235, 341.048 849.340 C 345.354 848.479, 345.137 844.001, 340.543 838.916 C 335.879 833.754, 333.241 828.314, 331.358 819.974 C 330.492 816.138, 329.494 813.076, 329.141 813.168 C 328.789 813.261, 326.700 813.501, 324.500 813.703" stroke="none" fill="#42424c" fill-rule="evenodd"/><path d="M 286.619 145.074 C 276.629 147.927, 270.667 164.326, 269.378 192.500 C 267.937 223.974, 274.728 269.571, 289.484 327.500 C 297.978 360.847, 301.674 371.734, 305.210 373.817 C 306.700 374.696, 308.156 375.177, 308.445 374.888 C 308.735 374.599, 312.830 360.730, 317.547 344.068 C 328.283 306.138, 335.325 287.522, 343.405 275.706 C 344.832 273.619, 346 271.758, 346 271.572 C 346 271.385, 343.223 272.354, 339.829 273.725 C 335.407 275.511, 332.545 276.068, 329.731 275.691 C 321.055 274.527, 317.995 266.175, 324.068 260.237 C 326.613 257.749, 328.997 256.839, 338.051 254.899 L 348.966 252.560 345.733 249.189 C 343.955 247.334, 339.494 244.293, 335.820 242.431 C 332.146 240.569, 327.609 237.469, 325.738 235.542 C 321.350 231.023, 315.826 228.740, 309.250 228.726 C 306.363 228.719, 304 228.571, 304 228.396 C 304 227.178, 312.386 226.132, 316.296 226.863 L 320.894 227.722 320.347 224.983 C 320.045 223.477, 320.310 221.289, 320.935 220.122 C 322.428 217.332, 328.179 217.276, 333.265 220.002 C 335.319 221.103, 337 221.610, 337 221.129 C 337 220.133, 325.172 208.770, 316.983 201.900 C 310.635 196.574, 298.815 188.588, 291.245 184.508 C 288.355 182.951, 286.212 181.455, 286.483 181.183 C 287.137 180.529, 298.859 185.495, 307 189.875 C 323.248 198.617, 337.399 209.894, 348.201 222.710 C 354.429 230.098, 355.288 230.746, 360.359 231.881 C 369.802 233.994, 380.282 233.471, 396 230.100 C 414.764 226.076, 413.987 226.452, 409.906 223.379 C 394.540 211.810, 331.172 167.434, 314.412 156.506 C 296.993 145.148, 292.635 143.356, 286.619 145.074 M 705.254 145.439 C 699.325 147.321, 674.628 163.750, 622 200.822 C 595.910 219.201, 594.641 220.220, 596.529 221.276 C 600.336 223.407, 607.876 221.379, 621.639 214.522 C 632.173 209.274, 636.711 206.357, 641.861 201.525 C 649.260 194.580, 651.748 193, 655.279 193 C 661.993 193, 662.659 201.422, 656.658 210.459 C 652.357 216.938, 646.191 222.097, 636.919 226.976 L 629.870 230.685 637.185 231.870 C 647.505 233.541, 656.719 236.777, 660.320 239.995 C 664.048 243.325, 664.660 249.313, 661.509 251.617 C 658.868 253.549, 652.271 253.340, 645.066 251.098 L 638.953 249.195 642.497 253.848 C 650.770 264.706, 659.240 278.251, 663.872 288.028 C 669.176 299.223, 680.687 332.222, 688.511 358.662 C 693.157 374.362, 693.357 374.795, 695.519 373.810 C 698.191 372.592, 701.823 362.500, 708.408 338 C 725.723 273.575, 733.020 225.225, 730.896 189 C 728.959 155.944, 720.017 140.754, 705.254 145.439 M 739.320 185 C 739.320 188.575, 739.502 190.037, 739.723 188.250 C 739.945 186.463, 739.945 183.537, 739.723 181.750 C 739.502 179.963, 739.320 181.425, 739.320 185 M 353.208 248.637 C 354.261 249.690, 355.497 250.008, 356.672 249.529 C 358.401 248.826, 358.392 248.741, 356.500 247.963 C 355.400 247.511, 353.841 247.109, 353.036 247.070 C 351.827 247.012, 351.857 247.286, 353.208 248.637 M 123.102 260.623 C 123.691 261.332, 123.870 262.402, 123.500 263 C 123.130 263.598, 123.255 264.630, 123.778 265.294 C 124.300 265.957, 124.776 267.175, 124.835 268 C 124.938 269.445, 125.527 272.736, 126.626 278 C 126.913 279.375, 127.282 281.625, 127.445 283 C 127.608 284.375, 127.858 285.500, 128 285.500 C 128.142 285.500, 128.411 286.625, 128.598 288 C 128.922 290.380, 129.327 292.937, 130.538 300.250 C 131.844 308.130, 133.327 319.888, 134.479 331.500 C 136.180 348.636, 136.432 359.474, 136.080 400.500 C 135.912 420.132, 137.187 431.750, 140.333 439.264 C 145.009 450.428, 151.597 439.949, 153.625 418.120 C 153.992 414.181, 154.492 411.159, 154.738 411.404 C 154.984 411.650, 156.038 416.851, 157.080 422.962 C 159.638 437.954, 162.535 448.962, 165.656 455.554 C 168.261 461.057, 172.945 466, 175.554 466 C 179.587 466, 182.615 455.182, 183.614 437.205 L 184.299 424.883 187.165 431.747 C 188.741 435.523, 191.369 440.162, 193.005 442.056 C 195.932 445.444, 196.007 445.468, 197.594 443.500 C 198.974 441.789, 199.118 439.549, 198.589 428 C 198.250 420.575, 197.734 412.250, 197.444 409.500 L 196.916 404.500 199.307 410.049 C 206.643 427.072, 215.337 441, 218.628 441 C 220.843 441, 222.002 436.568, 221.980 428.185 C 221.963 421.457, 221.450 416.526, 218.522 395 L 217.910 390.500 220.205 393.417 C 231.423 407.673, 234.803 411.503, 238.091 413.679 C 240.178 415.060, 242.361 415.895, 242.942 415.536 C 244.746 414.421, 244.113 406.614, 241.484 397.542 C 240.100 392.767, 239.270 388.372, 239.639 387.776 C 240.039 387.129, 239.843 386.979, 239.155 387.405 C 238.430 387.852, 238 387.378, 238 386.130 C 238 385.037, 237.325 383.468, 236.500 382.643 C 235.675 381.818, 235 380.661, 235 380.071 C 235 379.482, 234.550 379, 234 379 C 233.450 379, 233 378.325, 233 377.500 C 233 376.675, 232.550 376, 232 376 C 231.450 376, 231 375.325, 231 374.500 C 231 373.675, 230.550 373, 230 373 C 229.450 373, 229 372.325, 229 371.500 C 229 370.675, 228.550 370, 228 370 C 227.450 370, 227 369.373, 227 368.607 C 227 367.841, 226.296 366.944, 225.437 366.614 C 224.577 366.284, 224.124 365.608, 224.431 365.112 C 224.738 364.616, 224.316 363.952, 223.494 363.636 C 222.672 363.321, 222 362.422, 222 361.638 C 222 360.855, 221.296 359.944, 220.437 359.614 C 219.577 359.284, 219.124 358.608, 219.431 358.112 C 219.738 357.616, 219.288 356.941, 218.431 356.612 C 217.574 356.283, 217.155 355.558, 217.500 355 C 217.845 354.442, 217.423 353.716, 216.563 353.386 C 215.704 353.056, 215 352.175, 215 351.428 C 215 350.681, 214.087 349.582, 212.972 348.985 C 211.857 348.388, 211.194 347.495, 211.500 347 C 211.806 346.505, 211.143 345.612, 210.028 345.015 C 208.913 344.418, 208 343.319, 208 342.572 C 208 341.825, 207.325 340.955, 206.500 340.638 C 205.675 340.322, 205 339.389, 205 338.567 C 205 337.744, 204.100 336.589, 203 336 C 201.900 335.411, 201 334.435, 201 333.829 C 201 333.224, 199.870 331.553, 198.489 330.115 C 192.678 324.064, 192 323.239, 192 322.213 C 192 321.621, 190.650 320.175, 189 319 C 187.350 317.825, 186 316.375, 186 315.777 C 186 315.179, 183.933 312.622, 181.408 310.095 C 178.882 307.568, 171.134 299.650, 164.191 292.500 C 157.248 285.350, 151.233 279.606, 150.824 279.736 C 150.416 279.867, 148.884 278.404, 147.422 276.486 C 145.959 274.569, 144.151 273, 143.404 273 C 142.657 273, 141.312 271.879, 140.414 270.509 C 139.516 269.138, 138.403 268.251, 137.941 268.537 C 137.479 268.822, 136.605 268.131, 136 267 C 135.395 265.869, 134.469 265.210, 133.943 265.535 C 133.416 265.861, 132.717 265.426, 132.388 264.569 C 132.059 263.712, 131.384 263.262, 130.888 263.569 C 130.392 263.876, 129.717 263.426, 129.388 262.569 C 129.059 261.712, 128.388 261.260, 127.895 261.565 C 127.403 261.869, 127 261.615, 127 261 C 127 260.385, 126.550 260.160, 126 260.500 C 125.450 260.840, 125 260.716, 125 260.226 C 125 259.735, 124.332 259.333, 123.516 259.333 C 122.418 259.333, 122.310 259.669, 123.102 260.623 M 464.778 410.441 C 454.655 413.373, 448.616 417.229, 442.709 424.531 C 432.289 437.412, 417.056 474.231, 411.900 499 C 409.114 512.384, 408.788 529.054, 411.223 533.586 C 412.959 536.816, 418.008 541.135, 422.373 543.124 C 423.783 543.767, 424.749 544.597, 424.519 544.969 C 424.289 545.341, 425.541 545.693, 427.300 545.751 C 431.278 545.882, 431.538 545.906, 448 547.670 C 468.822 549.900, 521.681 550.573, 544.477 548.898 C 554.939 548.129, 564.608 547.598, 565.961 547.717 C 567.315 547.837, 568.665 547.584, 568.961 547.155 C 569.258 546.726, 572.129 545.322, 575.341 544.035 C 587.570 539.134, 590.643 533.219, 589.649 516.500 C 587.889 486.919, 569.498 436.344, 554.639 420.224 C 550.050 415.245, 545.864 412.849, 537.970 410.682 C 528.087 407.969, 526.434 407.888, 526.267 410.112 C 526.061 412.836, 521.640 417.775, 514.477 423.282 C 506.964 429.058, 501.612 431.372, 497.615 430.573 C 490.695 429.189, 473.575 415.222, 472.829 410.352 L 472.500 408.203 464.778 410.441 M 289.349 565 C 289.349 569.675, 289.522 571.587, 289.732 569.250 C 289.943 566.913, 289.943 563.087, 289.732 560.750 C 289.522 558.413, 289.349 560.325, 289.349 565 M 560.142 565.562 C 550.697 568.184, 550.834 568.113, 551.877 569.801 C 552.473 570.765, 554.166 570.575, 559.419 568.952 C 568.097 566.272, 568.833 566.860, 560.528 569.839 L 554.166 572.121 559.471 580.046 C 562.389 584.405, 565.966 590.945, 567.422 594.580 C 570.898 603.265, 573.118 612.809, 571.844 613.596 C 571.307 613.929, 570.745 614.043, 570.596 613.850 C 570.446 613.658, 568.880 611.362, 567.114 608.750 C 565.348 606.138, 563.748 604, 563.558 604 C 563.368 604, 564.251 607.271, 565.521 611.270 C 569.307 623.192, 570.962 639.548, 569.361 649.230 C 568.277 655.788, 567.296 652.379, 567.165 641.600 C 567.012 629.011, 564.172 614.921, 559.398 603.056 C 557.529 598.411, 556 594.153, 556 593.593 C 556 593.033, 558.250 594.791, 561 597.500 C 563.750 600.209, 566 602.058, 566 601.610 C 566 599.989, 558.234 584.269, 554.718 578.773 L 551.119 573.147 544.810 575.082 C 534.324 578.298, 519.565 581.003, 512.843 580.942 C 509.354 580.911, 503.444 580.088, 499.709 579.114 C 493.884 577.595, 492.999 577.555, 493.490 578.834 C 494.263 580.848, 503.485 596.195, 508.012 603 C 515.177 613.770, 521.484 624.682, 527.953 637.500 C 545.683 672.634, 548.976 677.190, 569.642 695.188 C 579.338 703.632, 582.316 705.558, 582.497 703.500 C 582.546 702.950, 583.112 700.925, 583.757 699 C 584.879 695.646, 585.779 691.787, 586.437 687.500 C 586.606 686.400, 586.860 685.500, 587 685.500 C 587.140 685.500, 587.423 684.487, 587.628 683.250 C 587.832 682.013, 588.168 679.987, 588.372 678.750 C 588.577 677.513, 588.860 676.500, 589 676.500 C 589.268 676.500, 589.682 674.518, 590.465 669.500 C 590.723 667.850, 591.183 665.150, 591.488 663.500 C 594.650 646.402, 595.839 632.007, 594.711 624.500 C 594.381 622.300, 593.865 618.880, 593.564 616.900 C 592.774 611.687, 584.198 587.071, 581.841 583.250 C 580.739 581.462, 580.110 580, 580.444 580 C 580.778 580, 580.271 578.538, 579.318 576.750 C 578.364 574.962, 577.565 573.257, 577.542 572.959 C 577.519 572.662, 576.376 570.299, 575.002 567.709 C 572.108 562.255, 572.076 562.250, 560.142 565.562 M 488.937 570.883 C 489.598 572.118, 492.621 573.482, 497.723 574.848 C 510.525 578.274, 512.893 578.373, 527.156 576.082 C 545.362 573.158, 550.155 571.860, 549.090 570.142 C 548.387 569.008, 547.027 569.069, 540.874 570.509 C 528.783 573.338, 511.381 573.585, 499.343 571.098 C 487.068 568.562, 487.702 568.576, 488.937 570.883 M 537.536 751.750 C 533.157 764.209, 529.725 770.094, 517.004 786.954 C 510.402 795.704, 505.014 803.232, 505.030 803.682 C 505.047 804.132, 505.519 803.712, 506.080 802.750 C 506.641 801.788, 507.704 801, 508.443 801 C 509.182 801, 510.070 800.261, 510.417 799.357 C 510.763 798.453, 511.334 798, 511.684 798.351 C 512.034 798.701, 512.949 798.090, 513.717 796.994 C 514.485 795.897, 515.655 795, 516.316 795 C 516.978 795, 518.108 794.056, 518.829 792.903 C 519.549 791.749, 520.392 791.059, 520.702 791.369 C 521.012 791.679, 522.132 790.831, 523.190 789.485 C 524.249 788.139, 525.467 787.142, 525.897 787.269 C 526.326 787.396, 527.915 786.038, 529.428 784.250 C 530.940 782.462, 532.534 781, 532.970 781 C 534.692 781, 561 752.337, 561 750.460 C 561 750.109, 541.869 744, 540.769 744 C 540.489 744, 539.034 747.487, 537.536 751.750 M 507.768 813.725 C 509.565 813.947, 512.265 813.943, 513.768 813.715 C 515.271 813.486, 513.800 813.304, 510.500 813.310 C 507.200 813.315, 505.971 813.502, 507.768 813.725 M 473.500 838.597 C 478.118 839.348, 486.001 839.444, 486.001 838.750 C 486 838.337, 482.738 838.061, 478.750 838.136 C 474.762 838.211, 472.400 838.419, 473.500 838.597 M 625.180 855.167 C 625.071 858.615, 624.511 861.031, 623.750 861.338 C 622.771 861.733, 622.778 861.859, 623.781 861.921 C 625.625 862.035, 626.172 859.925, 625.740 854.373 L 625.360 849.500 625.180 855.167 M 447.634 853.822 C 447.181 855.648, 447.078 857.411, 447.405 857.738 C 448.535 858.868, 449.140 857.181, 448.800 853.846 L 448.459 850.500 447.634 853.822 M 723.397 873 C 723.397 880.975, 723.553 884.237, 723.743 880.250 C 723.932 876.263, 723.932 869.737, 723.743 865.750 C 723.553 861.763, 723.397 865.025, 723.397 873" stroke="none" fill="#eed7c5" fill-rule="evenodd"/><path d="M 287 127.962 C 287 130.925, 283.136 140.642, 281.378 142.101 C 279.266 143.854, 276.930 142.248, 275.526 138.078 C 274.426 134.810, 274.403 134.845, 271.642 144.067 C 268.368 155.007, 265.504 161, 263.552 161 C 261.352 161, 260.638 170.361, 261.301 190.497 C 262.237 218.918, 266.702 248.608, 276.515 291.666 C 283.702 323.199, 294.916 363.047, 298.627 370.240 C 299.405 371.747, 301.832 373.894, 304.021 375.011 C 306.209 376.127, 308 377.512, 308 378.089 C 308 378.666, 306.897 383.494, 305.549 388.819 C 299.270 413.618, 297.678 425.253, 297.586 447 C 297.491 469.599, 298.370 475.044, 303.963 486.500 C 317.486 514.202, 355.950 533.343, 420.500 544.492 L 424.500 545.183 418.353 541.078 C 410.729 535.985, 409 532.295, 409 521.111 C 409 487.953, 432.913 428.036, 450.993 415.893 C 455.195 413.071, 470.058 407.720, 472.360 408.201 C 472.987 408.332, 474.625 407.690, 476 406.775 C 480.184 403.990, 487.907 402.724, 500.500 402.757 C 512.985 402.790, 523.631 404.874, 524.631 407.480 C 524.905 408.194, 525.949 408.565, 526.951 408.303 C 529.234 407.706, 539.482 410.292, 546.079 413.129 C 549.027 414.397, 552.706 417.131, 555.053 419.798 C 571.098 438.026, 589.951 491.868, 590.192 520.151 C 590.320 535.107, 586.814 540.426, 573.775 545.060 C 571.726 545.788, 570.186 546.519, 570.352 546.685 C 570.795 547.128, 599.349 542.353, 607.500 540.473 C 611.350 539.585, 620.761 536.816, 628.414 534.320 C 668.549 521.231, 692.518 502.741, 704.240 475.830 C 707.311 468.779, 707.430 468.005, 707.355 455.500 C 707.259 439.677, 704.738 423.688, 698.024 396.325 C 695.252 385.032, 693.578 376.349, 694.132 376.149 C 694.668 375.956, 694.452 375.281, 693.652 374.649 C 692.852 374.017, 690.999 369.225, 689.532 364 C 681.749 336.264, 670.062 302.295, 663.470 288.252 C 658.724 278.142, 650.564 265.092, 642.739 255.098 C 638.424 249.586, 638.059 248.793, 640.113 249.400 C 641.426 249.788, 645.965 250.823, 650.200 251.700 C 657.336 253.179, 658.086 253.173, 660.450 251.625 C 664.384 249.047, 663.981 244.068, 659.520 240.152 C 656.120 237.167, 647.145 233.926, 638.500 232.563 C 627.777 230.871, 627.878 231.179, 636.586 226.677 C 647.269 221.153, 657.001 211.567, 659.457 204.148 C 661.452 198.120, 660.665 194.663, 657.034 193.511 C 654.185 192.607, 646.931 196.250, 644.185 199.963 C 640.296 205.224, 626.369 213.618, 610.361 220.350 C 605.376 222.446, 603.260 222.818, 599.111 222.327 C 596.300 221.994, 594 221.376, 594 220.955 C 594 219.997, 594.421 219.691, 639.500 187.990 C 675.380 162.758, 700.387 146.432, 705.232 145.075 C 711.479 143.326, 715.953 144.311, 719.706 148.260 C 733.244 162.508, 735.771 204.610, 726.383 259.500 C 719.606 299.124, 703.746 361.736, 697.948 371.752 L 696.066 375.003 698.436 373.450 C 701.408 371.503, 704.211 364.027, 711.391 338.897 C 724.841 291.824, 735.072 240.949, 738.086 206.152 C 738.722 198.810, 739.053 186.158, 738.822 178.035 C 738.415 163.712, 738.321 163.170, 735.686 160.039 C 734.029 158.069, 731.723 152.739, 729.775 146.373 L 726.580 135.937 725.037 139.205 C 724.188 141.003, 722.720 142.623, 721.774 142.805 C 719.607 143.222, 716.500 138.336, 714.392 131.195 L 712.826 125.889 708.163 130.236 C 698.627 139.126, 689.551 143.900, 685.901 141.947 C 683.414 140.616, 683.491 137.916, 686.112 134.585 C 689.287 130.548, 632.605 168.635, 588.167 200.397 C 578.085 207.603, 568.410 214.498, 566.667 215.717 C 563.584 217.876, 563.169 217.906, 551 216.856 C 544.125 216.262, 525.900 215.739, 510.500 215.693 C 487.014 215.624, 479.784 215.967, 465.654 217.822 C 456.389 219.038, 447.002 220.439, 444.794 220.935 C 440.892 221.812, 440.578 221.675, 433.640 216.092 C 421.418 206.257, 353.547 158.943, 321.266 137.754 L 314.036 133.008 315.749 136.599 C 317.390 140.040, 317.382 140.247, 315.569 141.573 C 311.918 144.243, 303.808 140.420, 294.148 131.476 C 290.894 128.464, 287.955 126, 287.616 126 C 287.277 126, 287 126.883, 287 127.962 M 284.262 145.486 C 277.589 148.387, 272.172 160.838, 269.969 178.341 C 268.062 193.492, 269.227 226.521, 272.415 247.673 C 279.132 292.241, 297.381 366.377, 303.181 372.656 C 305.548 375.219, 308.980 376.319, 309.475 374.672 C 309.669 374.028, 313.296 361.125, 317.536 346 C 328.995 305.116, 335.301 288.440, 344.288 275.250 C 346.255 272.363, 347.715 270, 347.532 270 C 347.348 270, 344.791 271.121, 341.849 272.490 C 331.776 277.180, 323.162 275.479, 321.399 268.452 C 319.858 262.312, 324.243 258.601, 336.279 255.859 C 348.549 253.064, 361.353 248.770, 359.822 247.964 C 359.095 247.582, 355.737 246.995, 352.359 246.661 C 340.917 245.529, 327.910 239.017, 323.277 232.102 C 320.770 228.361, 320.174 221.226, 322.200 219.200 C 324.015 217.385, 328.038 217.803, 332.562 220.278 C 350.255 229.954, 357.251 232.455, 369.587 233.512 C 376.418 234.098, 379.953 233.695, 395.447 230.565 C 405.317 228.571, 413.557 226.776, 413.758 226.575 C 414.686 225.648, 354.417 182.659, 319.104 159.061 C 296.705 144.093, 291.833 142.195, 284.262 145.486 M 413.500 356.100 C 404.909 357.676, 400 361.055, 400 365.393 C 400 368.309, 401.621 369.007, 408.332 368.978 C 417.196 368.940, 426.158 363.181, 424.416 358.641 C 424.069 357.738, 423.719 357, 423.636 357 C 423.554 357, 422.140 356.632, 420.493 356.183 C 418.847 355.734, 415.700 355.696, 413.500 356.100 M 584.351 356.189 C 574.788 358.667, 584.692 369, 596.630 369 C 604.660 369, 606.329 367.626, 604.401 362.602 C 602.774 358.361, 590.776 354.524, 584.351 356.189 M 310.387 389.617 C 308.744 393.548, 309.118 396, 311.362 396 C 313.136 396, 314 393.846, 314 389.418 C 314 384.964, 312.292 385.058, 310.387 389.617 M 239.019 388.093 C 239.009 388.420, 239.856 391.176, 240.903 394.219 C 245.506 407.597, 245.899 416, 241.921 416 C 239.258 416, 230.241 407.418, 223.862 398.814 C 221.084 395.066, 218.725 392, 218.621 392 C 218.516 392, 219.235 397.512, 220.219 404.250 C 222.198 417.804, 222.918 434.005, 221.731 438.250 C 220.683 441.999, 217.575 441.827, 213.826 437.814 C 212.189 436.061, 207.958 428.774, 204.425 421.621 C 197.539 407.680, 197.476 407.702, 199.045 423.500 C 200.180 434.928, 199.453 443.889, 197.324 444.706 C 195.065 445.573, 191.147 441.113, 187.592 433.629 L 184.314 426.729 183.710 439.615 C 182.791 459.254, 179.417 467.588, 173.262 465.423 C 167.342 463.341, 161.754 450.389, 157.896 429.810 C 155.030 414.521, 154.903 414.338, 153.516 423.534 C 149.798 448.188, 141.855 451.959, 137.447 431.164 C 136.670 427.499, 136.027 422.363, 136.017 419.750 C 135.982 409.991, 134.280 415.520, 132.632 430.750 C 127.041 482.418, 125.400 514.793, 126.933 543.200 C 130.753 614.014, 147.799 656.978, 187.957 697.014 C 214.436 723.412, 247.518 742.265, 286.150 752.974 L 292.800 754.817 293.475 750.316 C 294.859 741.089, 301.910 729.172, 308.727 724.539 L 312.221 722.165 309.102 720.553 C 303.644 717.730, 295.229 708.232, 291.919 701.157 C 290.206 697.496, 288.448 693.798, 288.013 692.940 C 284.145 685.323, 283.549 659.251, 286.403 622.500 C 293.110 536.139, 286.641 482.855, 263.220 431.538 C 257.357 418.693, 239.089 385.899, 239.019 388.093 M 411.060 396.828 C 408.941 397.964, 406.486 400.709, 404.575 404.078 C 401.951 408.705, 401.500 410.526, 401.500 416.500 C 401.500 424.606, 403.571 429.120, 408.952 432.747 C 413.296 435.674, 416.844 435.595, 421.451 432.469 L 425.180 429.938 423.011 432.984 C 421.818 434.659, 419.415 436.771, 417.671 437.676 C 413.401 439.893, 415.963 440.586, 420.489 438.438 C 429.669 434.082, 433.819 414.406, 427.974 402.949 C 424.100 395.355, 417.954 393.131, 411.060 396.828 M 577.532 398.106 C 567.325 407.068, 570.123 432.358, 582.002 438.501 C 586.741 440.952, 589.021 440.305, 584.753 437.721 C 582.692 436.473, 580.297 434.441, 579.431 433.205 L 577.857 430.957 581.943 433.087 C 587.384 435.923, 591.830 435.096, 595.869 430.496 C 600.936 424.725, 602.078 417.992, 599.475 409.229 C 595.754 396.699, 585.218 391.358, 577.532 398.106 M 317.607 400.582 C 316.045 404.651, 317.819 411.617, 319.876 409.492 C 320.404 408.946, 321.149 406.363, 321.531 403.750 C 322.164 399.430, 322.045 399, 320.221 399 C 319.117 399, 317.941 399.712, 317.607 400.582 M 306.454 410.429 C 304.211 413.853, 304.862 419.500, 307.500 419.500 C 309.233 419.500, 309.540 418.733, 309.800 413.750 C 310.126 407.507, 309.061 406.451, 306.454 410.429 M 312.413 419.492 C 309.384 424.115, 310.748 435.669, 313.943 432.450 C 314.977 431.408, 315.668 418.334, 314.738 417.404 C 314.420 417.087, 313.374 418.026, 312.413 419.492 M 304.486 429.380 C 301.519 436.481, 303.480 450.848, 306.950 447.433 C 308.575 445.834, 308.832 426.819, 307.236 426.264 C 306.510 426.011, 305.338 427.339, 304.486 429.380 M 311.348 447.537 C 310.504 449.736, 312.160 456.237, 313.693 456.738 C 314.977 457.159, 316.430 451.470, 315.831 448.361 C 315.369 445.960, 312.178 445.373, 311.348 447.537 M 318.667 452.667 C 317.434 453.899, 317.966 462.727, 319.342 463.869 C 321.207 465.417, 322.002 464.278, 321.986 460.083 C 321.962 453.795, 320.594 450.739, 318.667 452.667 M 304.667 454.667 C 303.640 455.693, 303.888 465.055, 305.052 469.248 C 306.217 473.442, 310.421 478.908, 311.587 477.745 C 312.496 476.838, 310.193 458.240, 308.864 455.750 C 307.917 453.976, 305.883 453.451, 304.667 454.667 M 315.393 474.419 C 313.796 478.579, 318.626 484.774, 321.345 482.055 C 322.186 481.214, 321.966 479.990, 320.488 477.280 C 318.244 473.166, 316.294 472.071, 315.393 474.419 M 319 493.132 C 319 495.346, 322.991 500.675, 325.509 501.822 C 329.933 503.838, 329.888 500.494, 325.431 495.929 C 321.656 492.063, 319 490.908, 319 493.132 M 334.378 500.458 C 333.554 502.605, 334.806 504, 337.559 504 C 340.760 504, 340.703 501.642, 337.466 500.167 C 335.414 499.232, 334.827 499.287, 334.378 500.458 M 131 530 C 131 535.727, 133.379 537.103, 134.495 532.022 C 135.307 528.326, 134.330 525, 132.433 525 C 131.380 525, 131 526.327, 131 530 M 138.667 545.667 C 136.832 547.502, 139.053 555.704, 141.050 554.469 C 142.114 553.811, 142.323 549.006, 141.393 546.582 C 140.749 544.903, 139.762 544.572, 138.667 545.667 M 432.496 553.967 C 431.508 565.706, 430.226 571.820, 427.481 577.894 C 425.304 582.709, 419.405 589, 385.647 622.500 C 341.987 665.827, 331.879 677.134, 329.547 685.257 C 325.269 700.156, 322.355 720.735, 321.406 742.750 C 320.943 753.483, 320.330 759.005, 319.602 759.015 C 318.909 759.025, 318.959 759.322, 319.737 759.816 C 320.454 760.272, 321.403 764.780, 321.997 770.551 C 322.560 776.023, 323.674 782.759, 324.471 785.520 C 328.909 800.874, 344.679 812.289, 375.572 822.506 C 383.046 824.978, 389.341 827, 389.560 827 C 389.780 827, 390.878 825.200, 392 823 C 393.577 819.909, 393.726 819, 392.656 819 C 390.829 819, 381.201 814.477, 372.523 809.542 C 363.979 804.683, 353.451 794.366, 349.520 787 C 346.944 782.173, 346.556 780.338, 346.349 772 C 346.137 763.463, 346.203 763.058, 347 768 C 350.021 786.722, 359.793 798.423, 381.242 808.998 C 387.937 812.299, 394.023 815, 394.766 815 C 395.565 815, 395.823 815.511, 395.398 816.250 C 395.002 816.938, 395.909 816.377, 397.414 815.005 L 400.150 812.510 397.325 811.919 C 393.641 811.148, 386.718 807.570, 385.070 805.585 C 383.994 804.288, 384.042 803.921, 385.350 803.419 C 388.917 802.050, 402.893 808.745, 401.426 811.120 C 401.068 811.700, 401.879 811.818, 403.472 811.418 C 405.466 810.917, 406.728 811.335, 408.638 813.128 C 410.220 814.613, 411.041 814.951, 410.832 814.032 C 410.580 812.918, 411.329 812.639, 413.934 812.876 C 418.803 813.320, 422.232 814.802, 421.754 816.256 C 421.206 817.924, 416.594 818.388, 414.057 817.030 C 412.153 816.012, 412.091 816.105, 413.136 818.400 C 413.956 820.199, 415.504 821.141, 418.879 821.897 C 424.798 823.222, 439.096 825.265, 439.412 824.831 C 439.544 824.649, 440.599 822.925, 441.756 821 C 449.343 808.378, 458.809 808.417, 465.240 821.097 C 466.748 824.069, 468.598 828.975, 469.351 832 L 470.722 837.500 478.381 837.792 C 484.040 838.008, 486.616 837.682, 488.243 836.542 C 491.244 834.440, 494.684 834.606, 497.727 837 C 499.932 838.734, 501.784 839, 511.670 839 C 520.565 839, 523.622 838.639, 525.581 837.355 C 527.679 835.980, 528.717 835.898, 531.911 836.855 C 537.446 838.514, 549 838.375, 549 836.650 C 549 832.398, 537.865 821.562, 529.037 817.222 C 523.677 814.587, 522.975 814.501, 507.068 814.545 C 495.177 814.578, 490.525 814.924, 490.235 815.795 C 490.014 816.458, 489.427 817, 488.929 817 C 488.432 817, 489.103 814.638, 490.421 811.750 C 491.739 808.862, 495.497 800.650, 498.773 793.500 C 502.049 786.350, 506.756 774.875, 509.232 768 C 513.718 755.546, 518.674 738.228, 517.905 737.696 C 517.682 737.543, 514.125 736.382, 510 735.118 C 505.875 733.853, 499.287 731.256, 495.361 729.345 C 487.174 725.361, 478.946 717.297, 465.116 699.700 C 460.505 693.833, 455.209 687.871, 453.347 686.451 C 451.486 685.031, 450.243 683.416, 450.586 682.861 C 451.271 681.752, 447.259 677, 445.639 677 C 445.082 677, 445.919 678.350, 447.500 680 C 449.081 681.650, 449.918 683, 449.361 683 C 448.804 683, 447.292 681.875, 446 680.500 C 443.044 677.353, 440.795 677.349, 425.534 680.461 C 418.953 681.804, 413.424 682.757, 413.247 682.580 C 413.070 682.403, 416.981 681.200, 421.940 679.906 C 428.425 678.214, 430.515 677.308, 429.387 676.677 C 428.525 676.195, 425.723 676.054, 423.160 676.364 C 419.155 676.848, 418.922 676.788, 421.500 675.933 C 423.150 675.387, 427.875 674.999, 432 675.073 C 436.125 675.147, 440.776 675.160, 442.337 675.103 L 445.173 675 442.087 670.803 C 440.389 668.495, 439 666.220, 439 665.748 C 439 664.818, 448.229 672.306, 450.878 675.385 C 451.770 676.422, 455.112 680.247, 458.305 683.885 C 461.498 687.523, 467.348 694.743, 471.305 699.928 C 483.525 715.941, 489.217 721.397, 498.872 726.349 C 503.617 728.783, 514.475 733.310, 523 736.408 C 531.525 739.507, 539.190 742.426, 540.034 742.895 C 540.878 743.364, 545.603 744.974, 550.534 746.473 C 555.465 747.972, 560.063 749.659, 560.750 750.222 C 561.438 750.784, 562 750.996, 562 750.691 C 562 750.043, 583.650 757.207, 586.823 758.906 C 588.009 759.540, 591.243 763.414, 594.010 767.514 C 601.350 778.393, 606.373 780.444, 611.880 774.812 C 615.811 770.791, 619.065 762.312, 619.739 754.335 C 620.166 749.280, 619.855 747.333, 618.013 743.528 C 614.698 736.679, 602.173 723.996, 577.991 703.002 C 566.160 692.732, 554.460 682.077, 551.991 679.324 C 547.561 674.387, 531.410 646.698, 526.720 636 C 524.101 630.026, 517.222 618.341, 503.466 596.500 C 494.851 582.822, 482.347 559.601, 480.249 553.384 L 479.198 550.269 467.349 549.549 C 460.832 549.153, 450.467 548.290, 444.315 547.631 L 433.130 546.434 432.496 553.967 M 133.174 555.675 C 131.862 558.127, 133.777 567.109, 135.750 567.756 C 137.515 568.336, 137.415 557.950, 135.632 555.511 C 134.303 553.694, 134.232 553.699, 133.174 555.675 M 143.623 568.540 C 142.541 571.360, 142.939 573.703, 144.916 576.139 L 146.831 578.500 147.513 575.793 C 148.726 570.977, 145.206 564.414, 143.623 568.540 M 136.226 582.314 C 137.189 590.858, 142.005 596.719, 141.994 589.333 C 141.985 582.845, 140.202 578, 137.823 578 C 135.959 578, 135.791 578.454, 136.226 582.314 M 154.460 580.244 C 154.162 581.020, 154.394 582.907, 154.976 584.436 C 155.819 586.655, 156.314 586.985, 157.419 586.067 C 158.344 585.300, 158.570 584.038, 158.098 582.274 C 157.294 579.268, 155.268 578.138, 154.460 580.244 M 146.667 588.425 C 145.422 591.671, 149.633 600.963, 151.754 599.652 C 152.795 599.009, 152.716 598.227, 150.856 590.750 C 149.921 586.991, 147.692 585.754, 146.667 588.425 M 279 600.583 C 279 604.748, 280.994 604.854, 282.092 600.748 C 282.849 597.916, 282.420 597, 280.333 597 C 279.470 597, 279 598.264, 279 600.583 M 141.557 603.631 C 140.113 609.381, 147.228 624.091, 150.093 621.282 C 151.083 620.312, 151.076 619.194, 150.057 615.782 C 145.922 601.942, 143.021 597.796, 141.557 603.631 M 153.511 611.965 C 152.765 614.317, 155.528 623.751, 157.611 625.957 C 158.688 627.099, 159.248 627.152, 160.199 626.201 C 161.149 625.251, 161.138 623.965, 160.146 620.255 C 157.757 611.324, 154.863 607.707, 153.511 611.965 M 278.115 612.362 C 276.505 614.302, 275.728 622.238, 276.976 624 C 278.720 626.463, 281 622.423, 281 616.868 C 281 611.821, 279.939 610.164, 278.115 612.362 M 270.206 622.873 C 268.334 624.030, 267.488 630.678, 268.984 632.481 C 270.800 634.669, 271.797 633.533, 272.567 628.402 C 273.280 623.646, 272.377 621.531, 270.206 622.873 M 152.267 629.179 C 151.517 630.082, 151.389 631.782, 151.901 634.034 C 154.113 643.762, 164 656.334, 164 649.418 C 164 647.011, 158.057 633.604, 155.653 630.590 C 153.803 628.270, 153.222 628.028, 152.267 629.179 M 169.663 635.750 C 169.413 636.163, 169.884 638.188, 170.711 640.250 C 171.706 642.733, 172.853 644, 174.107 644 C 176.380 644, 176.458 643.031, 174.551 638.468 C 173.222 635.286, 170.771 633.924, 169.663 635.750 M 274.068 638.873 C 272.439 641.917, 272.745 646.965, 274.601 647.677 C 276.846 648.538, 278.067 646.181, 277.761 641.578 C 277.468 637.172, 275.679 635.863, 274.068 638.873 M 168 646.016 C 168 648.682, 170.658 654.471, 172.634 656.112 C 173.663 656.966, 174.395 657.005, 175.153 656.247 C 175.912 655.488, 175.391 653.646, 173.361 649.904 C 170.240 644.152, 168 642.527, 168 646.016 M 265.701 644.632 C 264.502 645.831, 264.931 650.523, 266.425 652.559 C 267.797 654.427, 267.893 654.389, 268.971 651.566 C 269.587 649.952, 269.958 647.706, 269.795 646.576 C 269.498 644.509, 267.007 643.326, 265.701 644.632 M 273.658 660.078 C 271.737 662.820, 271.605 665.039, 273.053 670.250 C 273.802 672.948, 274.642 674, 276.047 674 C 277.778 674, 278 673.283, 278 667.691 C 278 663.991, 277.445 660.623, 276.658 659.547 C 275.376 657.794, 275.241 657.818, 273.658 660.078 M 169 661.394 C 169 663.812, 173.920 670, 175.842 670 C 178.212 670, 177.768 667.983, 174.438 663.622 C 170.495 658.458, 169 657.846, 169 661.394 M 261.250 665.139 C 259.789 666.612, 259.618 671.848, 260.962 673.972 C 262.330 676.136, 263.209 673.329, 262.813 668.054 C 262.562 664.707, 262.252 664.129, 261.250 665.139 M 266.667 672.667 C 266.300 673.033, 266.007 675.396, 266.015 677.917 C 266.030 682.760, 267.665 687.067, 269.750 687.754 C 271.322 688.273, 271.439 681.122, 269.947 675.750 C 268.938 672.116, 268.051 671.282, 266.667 672.667 M 276.207 682.193 C 274.457 683.943, 274.764 688.883, 276.918 693.627 C 280.898 702.392, 283.827 700.292, 281.416 690.401 C 279.503 682.552, 278.084 680.316, 276.207 682.193 M 462.619 681.807 C 461.954 682.883, 465.634 688, 467.073 688 C 467.583 688, 468 687.403, 468 686.674 C 468 684.838, 463.347 680.630, 462.619 681.807 M 471.510 695.250 C 472.433 698.472, 478.945 704.455, 480.182 703.218 C 482.279 701.121, 475.942 693, 472.210 693 C 471.291 693, 471.069 693.712, 471.510 695.250 M 481.707 695.627 C 480.923 696.410, 483.354 701.219, 485.386 702.905 C 486.221 703.598, 487.621 704.015, 488.498 703.833 C 489.792 703.563, 489.502 702.698, 486.960 699.250 C 483.863 695.049, 482.929 694.405, 481.707 695.627 M 284 706.632 C 284 708.945, 287.918 715, 289.415 715 C 292.566 715, 291.863 711.819, 287.701 707.250 C 285.279 704.591, 284 704.377, 284 706.632 M 485 708.923 C 485 713.241, 494.930 721.470, 497.291 719.109 C 498.039 718.361, 496.723 716.419, 492.828 712.524 C 486.992 706.688, 485 705.772, 485 708.923 M 498.910 714.832 C 500.322 717.469, 502.326 718.925, 504.970 719.232 C 508.576 719.651, 508.493 717.271, 504.823 715.034 C 500.473 712.381, 497.545 712.282, 498.910 714.832 M 310.202 727.098 C 302.081 736.336, 293.736 752.146, 295.486 754.978 C 296.685 756.918, 297.688 755.986, 298.955 751.750 C 300.713 745.877, 305.485 736.601, 310.281 729.737 C 314.972 723.024, 314.933 721.716, 310.202 727.098 M 507.097 725.454 C 510.052 728.520, 518.653 730.484, 517.809 727.900 C 517.213 726.072, 512.898 724.007, 508.224 723.312 L 504.500 722.758 507.097 725.454 M 521.675 724.658 C 520.537 725.796, 523.140 728, 525.622 728 C 528.494 728, 528.724 726.458, 526.066 725.035 C 523.828 723.838, 522.601 723.732, 521.675 724.658 M 521.567 749.750 C 515.621 769.979, 507.232 790.054, 499.426 802.729 L 496.822 806.958 499.818 805.914 C 502.016 805.147, 506.305 800.241, 515.916 787.499 C 530.037 768.777, 532.195 765.100, 536.839 751.855 L 539.870 743.210 533.479 741.605 C 529.965 740.722, 526.491 740, 525.761 740 C 524.943 740, 523.331 743.748, 521.567 749.750 M 353.735 765.200 C 353.154 766.824, 354.720 770, 356.102 770 C 357.492 770, 356.803 764.754, 355.350 764.277 C 354.717 764.070, 353.991 764.485, 353.735 765.200 M 361.667 775.667 C 361.300 776.033, 361 776.623, 361 776.978 C 361 778.022, 364.992 782, 366.039 782 C 367.680 782, 367.095 778.396, 365.171 776.655 C 363.150 774.826, 362.649 774.685, 361.667 775.667 M 354.505 776.992 C 353.322 778.906, 354.912 782.896, 357.547 784.623 C 360.749 786.721, 361.600 785.862, 360.043 782.104 C 358.444 778.242, 355.444 775.473, 354.505 776.992 M 376 785.800 C 376 787.213, 378.345 789, 380.200 789 C 382.573 789, 382.498 787.337, 380.066 786.035 C 377.755 784.799, 376 784.697, 376 785.800 M 364.304 791.651 C 363.870 792.781, 364.958 794.504, 367.754 797.112 C 372.017 801.089, 375.843 802.658, 378.648 801.582 C 380.100 801.024, 380.017 800.647, 377.957 798.455 C 375.606 795.952, 366.929 790, 365.631 790 C 365.249 790, 364.652 790.743, 364.304 791.651 M 379.662 793.671 C 378.478 794.856, 381.244 798.204, 384.548 799.585 C 390.847 802.217, 394.619 800.759, 389.750 797.574 C 386.307 795.323, 380.325 793.008, 379.662 793.671 M 592 807.500 C 594.987 810.525, 597.657 813, 597.932 813 C 598.207 813, 595.987 810.525, 593 807.500 C 590.013 804.475, 587.343 802, 587.068 802 C 586.793 802, 589.013 804.475, 592 807.500 M 404.158 806.584 C 404.621 808.984, 409.212 810.664, 411.924 809.425 C 414.966 808.035, 413.010 805.945, 408.043 805.279 C 404.277 804.774, 403.838 804.921, 404.158 806.584 M 426 815.455 C 426 817.107, 432.175 818.628, 434.087 817.446 C 434.978 816.896, 434.810 816.334, 433.460 815.347 C 430.952 813.513, 426 813.585, 426 815.455 M 419.573 830.761 C 420.908 833.779, 422 836.418, 422 836.624 C 422 836.831, 424.587 836.995, 427.750 836.988 L 433.500 836.976 436 831.738 L 438.500 826.500 432.267 826.835 C 428.839 827.019, 424.034 826.743, 421.590 826.221 L 417.146 825.274 419.573 830.761 M 564.872 828.250 C 566.076 829.785, 568.188 830, 582.063 830 C 590.764 830, 598.091 829.663, 598.347 829.250 C 598.603 828.837, 591.615 828.634, 582.817 828.799 C 570.845 829.022, 566.404 828.771, 565.161 827.799 C 563.675 826.637, 563.645 826.684, 564.872 828.250 M 333.500 850.517 L 323.500 851.534 333 852.618 C 342.520 853.704, 344.485 853.385, 343.844 850.856 C 343.561 849.742, 341.714 849.682, 333.500 850.517 M 296.500 855.039 C 293.606 855.738, 293.592 855.768, 296.103 855.882 C 297.535 855.947, 301.585 856.283, 305.103 856.629 C 309.367 857.048, 311.167 856.924, 310.500 856.258 C 309.157 854.915, 300.234 854.139, 296.500 855.039 M 320.001 857.874 C 323.647 859.069, 344.824 860.228, 343 859.133 C 342.175 858.637, 336.100 857.967, 329.500 857.643 C 322.807 857.315, 318.606 857.417, 320.001 857.874" stroke="none" fill="#ca7b5b" fill-rule="evenodd"/></svg>