<svg xmlns="http://www.w3.org/2000/svg" width="1080" height="1080" viewBox="0 0 1080 1080" version="1.1"><path d="" stroke="none" fill="#b8d4fc" fill-rule="evenodd"/><path d="M 787.500 139.114 C 770.155 140.741, 750.666 145.520, 730 153.214 C 693.228 166.905, 659.738 189.254, 626.950 221.982 C 602.066 246.821, 584.340 269.495, 566.781 298.947 C 557.928 313.796, 543.361 342.561, 539.933 351.964 C 538.722 355.284, 537.446 358, 537.097 358 C 536.748 358, 534.470 353.657, 532.035 348.349 C 522.223 326.959, 503.852 296.552, 488.625 276.500 C 448.786 224.036, 396.990 185.401, 343.898 168.546 C 272.798 145.975, 205.066 161.822, 153.994 212.978 C 116.434 250.599, 89.280 297.237, 79.893 340.250 C 75.077 362.314, 73.624 389.382, 76.052 411.789 C 86.273 506.102, 152.472 610.499, 285.138 741.524 C 343.752 799.414, 402.520 851.841, 497.153 930.663 C 518.835 948.724, 539.155 965.474, 542.307 967.887 L 548.039 972.273 569.756 955.887 C 663.163 885.410, 763.899 795.065, 835.025 717.980 C 951.973 591.237, 1016.381 478.885, 1027.013 383.078 C 1028.559 369.147, 1028.292 342.189, 1026.477 328.962 C 1019.067 274.971, 992.271 229.674, 944 189.541 C 898.449 151.669, 843.255 133.885, 787.500 139.114" stroke="none" fill="#b4d4fc" fill-rule="evenodd"/></svg>