<svg xmlns="http://www.w3.org/2000/svg" width="1080" height="1080" viewBox="0 0 1080 1080" version="1.1"><path d="M 339.516 207.659 C 313.065 213.327, 290.346 229.866, 263.957 262.666 C 231.453 303.067, 206.236 354.111, 182.033 428.500 C 175.495 448.594, 164 488.204, 164 490.638 C 164 492.752, 167.632 499.533, 173.030 507.500 C 192.627 536.419, 222.319 557.694, 255.479 566.578 C 267.016 569.669, 268.426 569.689, 267.602 566.750 C 265.693 559.939, 262.913 539.464, 261.985 525.371 C 258.662 474.901, 271.163 421.707, 296.539 378.332 C 301.859 369.238, 312.709 353, 313.465 353 C 313.645 353, 312.714 357.139, 311.396 362.197 C 310.078 367.256, 309.001 371.868, 309.002 372.447 C 309.004 373.026, 311.151 369.675, 313.774 365 C 324.666 345.591, 338.358 326.430, 354.293 308.300 C 367.555 293.210, 391.470 270.097, 406.889 257.467 L 418.921 247.611 415.711 241.568 C 413.797 237.967, 409.046 232.033, 403.951 226.883 C 396.736 219.588, 393.917 217.518, 385.874 213.605 C 370.817 206.280, 355.264 204.285, 339.516 207.659 M 771.462 207.404 C 753.800 211.451, 736.718 223.776, 727.018 239.471 L 724.652 243.300 728.076 246.284 C 743.521 259.746, 756.416 271.731, 764.353 280 C 785.816 302.362, 808.680 332.298, 820.669 353.735 C 823.988 359.671, 826.026 362.058, 824.523 358.250 C 824.143 357.288, 822.736 353.609, 821.396 350.076 C 818.983 343.715, 818.980 343.672, 821.130 345.576 C 825.591 349.528, 838.007 365.155, 844.240 374.662 C 864.371 405.368, 876.933 438.972, 882.684 477.500 C 885.204 494.379, 885.207 535.754, 882.691 551.790 C 881.404 559.992, 880.383 563.617, 878.960 565.040 C 876.528 567.472, 876.421 569.305, 878.750 568.620 C 879.712 568.337, 883.200 567.417, 886.500 566.576 C 920.505 557.910, 954.335 532.004, 973.072 500.281 L 978.145 491.694 974.486 478.097 C 968.394 455.455, 958.329 423.789, 949.504 399.500 C 924.247 329.986, 896.737 281.302, 862.026 244.695 C 845.389 227.147, 826.966 214.929, 808.808 209.399 C 798.412 206.233, 780.703 205.287, 771.462 207.404" stroke="none" fill="#f4f4f4" fill-rule="evenodd"/><path d="M 796.821 133.497 C 763.697 139.072, 736.247 160.634, 723.352 191.210 C 718.322 203.137, 716.987 209.313, 716.316 223.750 C 715.977 231.037, 715.544 237, 715.353 237 C 715.162 237, 712.226 234.954, 708.829 232.453 C 694.317 221.770, 672.665 209.919, 654.265 202.590 C 608.813 184.484, 558.093 182.516, 512.454 197.087 C 486.879 205.252, 466.622 215.298, 440.871 232.587 C 433.159 237.764, 426.659 242, 426.425 242 C 426.191 242, 426 238.697, 426 234.660 C 426 212.436, 411.218 184.796, 390.358 168.014 C 378.233 158.261, 364.581 151.996, 348.715 148.906 C 309.746 141.316, 270.458 158.616, 229 201.623 C 207.965 223.443, 190.102 248.227, 172.509 280 C 169.312 285.775, 164.781 293.893, 162.442 298.041 C 156.663 308.284, 142.722 337.891, 133.702 359.075 C 118.035 395.869, 105.016 432.393, 93.515 471.817 L 87.880 491.133 90.560 499.317 C 100.544 529.803, 118.734 563.370, 139.427 589.493 C 149.162 601.781, 169.579 622.345, 181 631.364 C 217.909 660.511, 258.395 676.202, 300.554 677.698 C 318.225 678.326, 331.603 677.177, 344.832 673.896 C 349.414 672.760, 353.335 672.001, 353.545 672.211 C 353.755 672.421, 353.273 675.047, 352.475 678.047 C 351.677 681.046, 351.025 683.725, 351.026 684 C 351.027 684.275, 352.860 681.125, 355.099 677 C 359.953 668.060, 373.082 648, 374.080 648 C 374.468 648, 378.740 650.483, 383.574 653.519 C 402.641 665.489, 425.082 675.809, 451.912 684.945 L 468.324 690.534 473.058 714.017 C 480.271 749.795, 489.955 786.605, 502.254 825 L 505.618 835.500 508.811 830 C 516.192 817.283, 518.806 803.945, 517.015 788.133 C 515.611 775.734, 512.327 765.103, 501.531 738 C 483.471 692.661, 479.237 671.717, 480.314 633.046 C 481.026 607.496, 483.369 592.830, 487.634 587.229 C 503.830 565.962, 531.014 551.505, 558.743 549.412 C 588.230 547.186, 620.562 561.498, 639.650 585.225 C 646.517 593.761, 647.134 595.683, 651.453 622 C 655.262 645.207, 656.336 658.875, 656.421 685.191 L 656.500 709.881 658 701.845 L 659.500 693.808 676 689.009 C 706.131 680.246, 729.051 670.747, 751.327 657.792 C 755.082 655.608, 758.293 653.974, 758.462 654.161 C 758.631 654.347, 761.316 658.325, 764.428 663 C 769.089 670.003, 775.715 682.579, 782.867 698 C 783.866 700.155, 783.947 699.810, 783.454 695.500 C 782.841 690.145, 775.631 656.778, 774.395 653.576 C 773.771 651.959, 773.959 651.783, 775.576 652.472 C 781.530 655.009, 800.541 660.254, 808.860 661.656 C 821.947 663.860, 849.146 663.839, 862.500 661.613 C 873.978 659.700, 892.545 654.932, 900.241 651.920 C 908.617 648.643, 926.452 640.655, 927 639.936 C 927.275 639.574, 929.075 638.474, 931 637.490 C 952.579 626.460, 984.087 599.157, 1003.390 574.762 C 1007.179 569.973, 1010.736 566.337, 1011.294 566.682 C 1011.905 567.059, 1011.997 566.805, 1011.526 566.043 C 1011.096 565.346, 1011.154 564.489, 1011.655 564.138 C 1012.965 563.220, 1023.855 546.065, 1029.912 535.376 C 1037.087 522.714, 1045.084 504.704, 1050.325 489.402 L 1054.754 476.472 1048.890 456.292 C 1024.849 373.553, 986.423 286.908, 948.151 229.143 C 912.916 175.960, 866.208 139.665, 825 133.446 C 813.718 131.743, 807.175 131.755, 796.821 133.497 M 341.500 206.503 C 312.775 211.931, 287.179 230.968, 258.814 268 C 230.735 304.658, 207.322 351.499, 186.838 412 C 179.606 433.361, 168.892 468.279, 165.015 483.125 L 162.763 491.751 166.535 498.495 C 175.813 515.087, 192.772 533.919, 208.555 545.157 C 224.174 556.278, 248.075 566.810, 263.681 569.446 C 265.970 569.833, 268.089 570.791, 268.390 571.575 C 268.799 572.639, 271.162 573.045, 277.719 573.177 L 286.500 573.353 279.721 573.927 L 272.942 574.500 279.281 582.500 C 295.126 602.499, 317.316 617.189, 338.727 621.856 L 342.955 622.777 334.317 613.139 C 324.356 602.022, 315.597 590.441, 309.749 580.655 C 307.499 576.890, 304.723 573.431, 303.579 572.968 C 301.964 572.314, 301.877 572.113, 303.189 572.063 C 304.576 572.011, 304.003 570.169, 299.974 561.736 C 290.137 541.143, 284.463 518.779, 283.169 495.500 C 279.765 434.256, 300.529 375.793, 345.678 319.500 C 361.244 300.092, 392.203 269.678, 412.810 253.550 C 420.094 247.848, 420.154 247.271, 414.401 238.278 C 398.742 213.799, 369.754 201.164, 341.500 206.503 M 772.410 206.415 C 753.111 210.834, 733.917 224.770, 725.599 240.403 L 723.699 243.975 726.599 246.236 C 739.788 256.516, 761.814 277.677, 775.275 293 C 822.021 346.212, 848.329 399.090, 855.604 454.459 C 857.301 467.378, 857.490 495.851, 855.958 508 C 853.647 526.333, 847.952 547.412, 841.459 561.660 L 838.114 569 843.807 569.168 L 849.500 569.336 843.569 569.918 L 837.639 570.500 833.044 578.505 C 827.480 588.201, 821.202 597.084, 813.103 606.722 L 807.034 613.943 810.267 613.357 C 834.512 608.962, 845.612 604.037, 858.207 592.087 C 862.768 587.759, 868.525 581.067, 871 577.216 L 875.500 570.214 883.854 568.072 C 901.328 563.591, 919.963 554.686, 934.944 543.658 C 949.162 533.191, 966.175 514.178, 974.344 499.624 L 978.983 491.359 973.073 470.430 C 942.082 360.680, 905.538 287.311, 858.547 240.498 C 840.628 222.646, 825.089 212.953, 806.500 208.030 C 796.184 205.299, 780.525 204.556, 772.410 206.415 M 697.500 461.803 C 682.020 467.235, 670.730 482.329, 668.122 501.080 C 664.742 525.379, 677.835 548.580, 698.810 555.459 C 706.666 558.036, 718.699 557.296, 726.281 553.770 C 737.909 548.364, 747.818 535.884, 751.515 521.992 C 753.405 514.888, 753.402 501.965, 751.508 494.693 C 748.042 481.385, 738.615 469.399, 727.185 463.768 C 721.367 460.901, 719.445 460.472, 711.526 460.274 C 705.007 460.111, 701.111 460.535, 697.500 461.803 M 411.286 463.451 C 397.334 467.811, 385.081 481.334, 380.434 497.500 C 376.730 510.386, 378.904 528.419, 385.607 540.413 C 401.721 569.244, 438.776 571.792, 457.634 545.365 C 472.400 524.671, 471.106 495.035, 454.618 476.303 C 449.751 470.774, 441.634 465.400, 435.200 463.448 C 429.394 461.686, 416.928 461.687, 411.286 463.451 M 725.500 559.641 C 716.355 561.509, 709.017 563.474, 706.500 564.728 C 701.552 567.195, 697 572.117, 697 575 C 697 577.889, 701.570 582.823, 706.500 585.258 C 716.635 590.262, 741.448 592.446, 757.140 589.715 C 782.839 585.241, 790.197 572.747, 771.955 564.560 C 768.571 563.041, 762.359 561.185, 758.151 560.434 C 751.128 559.182, 730.233 558.674, 725.500 559.641 M 392.527 570.618 C 383.451 572.257, 374.778 575.891, 370.750 579.744 C 360.081 589.949, 380.975 601.250, 410.500 601.244 C 441.157 601.237, 461.007 590.066, 449.812 579.120 C 441.300 570.798, 413.989 566.745, 392.527 570.618 M 557 608.447 C 546.129 610.784, 533.321 616.310, 527.997 620.960 L 525.500 623.141 538.500 622.575 C 545.650 622.263, 566.117 622.006, 583.982 622.004 L 616.464 622 612.614 619.384 C 607.356 615.811, 597.648 611.505, 590.464 609.559 C 582.057 607.282, 565.049 606.716, 557 608.447 M 563.500 665.435 C 552.577 667.992, 541.769 672.861, 535 678.276 L 532.500 680.276 541.904 679.638 C 547.076 679.287, 567.776 678.990, 587.904 678.978 L 624.500 678.956 622 676.957 C 618.142 673.871, 606.162 668.284, 599.500 666.462 C 591.232 664.201, 571.213 663.630, 563.500 665.435 M 556.387 719.975 C 549.316 721.829, 533.730 729.010, 532.517 730.973 C 532.092 731.660, 537.447 732.001, 548.691 732.003 C 566.023 732.007, 609.656 733.558, 618.500 734.486 L 623.500 735.011 620.500 732.468 C 615.748 728.441, 602.219 722.169, 593.590 719.994 C 583.136 717.359, 566.399 717.350, 556.387 719.975 M 789.130 827 C 788.423 830.575, 784.762 845.875, 780.995 861 C 767.917 913.509, 766.290 923.819, 764.972 962.500 C 764.428 978.450, 763.514 995.100, 762.939 999.500 C 760.253 1020.080, 753.897 1036.659, 744.098 1048.649 C 738.823 1055.104, 728.148 1062.889, 721.750 1064.948 C 719.688 1065.612, 718 1066.342, 718 1066.570 C 718 1066.798, 733.638 1066.980, 752.750 1066.974 C 771.862 1066.969, 797.776 1067.415, 810.335 1067.964 C 831.621 1068.896, 859.276 1068.187, 869 1066.461 C 890.222 1062.693, 899.654 1060.054, 911.622 1054.534 C 921.558 1049.950, 929.648 1044.227, 936.210 1037.140 C 951.037 1021.125, 954.728 999.870, 949.585 960.112 C 946.427 935.696, 943.812 922.990, 939.941 913.248 C 930.199 888.732, 913.969 877.301, 882.500 872.790 C 871.649 871.235, 809.215 871.236, 795.500 872.792 C 790.550 873.353, 786.343 873.660, 786.151 873.474 C 785.960 873.288, 786.509 867.818, 787.372 861.318 C 790.908 834.701, 792.061 812.181, 789.130 827 M 464.250 851.728 C 466.313 851.944, 469.688 851.944, 471.750 851.728 C 473.813 851.513, 472.125 851.336, 468 851.336 C 463.875 851.336, 462.188 851.513, 464.250 851.728 M 336.022 865.784 L 336 870.069 330.750 869.284 C 327.863 868.853, 313.800 868.536, 299.500 868.579 C 275.513 868.652, 271.340 868.943, 245.612 872.341 C 216.045 876.246, 209.803 877.600, 200.984 882.025 C 194.872 885.091, 187.249 892.626, 184.205 898.608 C 178.412 909.996, 175.273 930.534, 176.368 949.886 C 177.277 965.941, 180.708 1001.476, 182.493 1013.329 C 185.363 1032.384, 193.030 1042.438, 211.569 1051.457 C 253.290 1071.753, 300.084 1075.537, 407.815 1067.329 L 416.131 1066.695 409.259 1064.516 C 388.912 1058.065, 373.919 1038.976, 367.504 1011.352 C 365.473 1002.605, 364.209 986.828, 363.528 961.727 C 362.865 937.275, 362.173 930.163, 358.300 908.029 C 356.058 895.210, 355.071 891.744, 352.547 887.813 C 350.871 885.204, 347.346 879.341, 344.714 874.784 C 342.081 870.228, 339.054 865.375, 337.986 864 L 336.044 861.500 336.022 865.784 M 608.490 870.750 C 598.524 885.858, 581.874 902.808, 567.519 912.458 C 558.704 918.385, 541.481 926.990, 538.384 927.015 C 537.018 927.026, 536.855 927.256, 537.792 927.850 C 540.548 929.598, 550.559 959.889, 553.987 976.850 C 556.403 988.803, 556.868 1006.092, 555.041 1016 C 553.642 1023.590, 549.258 1035.046, 545.439 1041.096 C 539.540 1050.441, 528.857 1059.593, 519.708 1063.141 C 516.218 1064.494, 519.440 1064.708, 560.208 1065.826 C 584.569 1066.494, 606.975 1067.021, 610 1066.997 L 615.500 1066.953 609.736 1064.582 C 586.173 1054.892, 571.991 1030.917, 572.004 1000.792 C 572.012 981.074, 575.650 966.884, 592.175 922.118 C 606.258 883.967, 613.041 865, 612.599 865 C 612.425 865, 610.576 867.587, 608.490 870.750 M 912.512 901.221 C 904.862 905.625, 900.856 921.547, 900.867 947.500 C 900.895 1012.157, 927.866 1053.783, 937.475 1004 C 939.644 992.759, 939.658 966.406, 937.501 951.162 C 932.866 918.392, 921.644 895.965, 912.512 901.221 M 197.826 903.540 C 184.401 910.788, 182.579 968.479, 194.622 1005 C 203.745 1032.668, 215.236 1035.600, 222.057 1012 C 224.800 1002.509, 225.889 973.267, 224.058 958.241 C 221.242 935.125, 214.766 914.248, 208.209 907.150 C 203.829 902.407, 201.454 901.582, 197.826 903.540 M 424.768 1067.725 C 426.565 1067.947, 429.265 1067.943, 430.768 1067.715 C 432.271 1067.486, 430.800 1067.304, 427.500 1067.310 C 424.200 1067.315, 422.971 1067.502, 424.768 1067.725" stroke="none" fill="#99c1c7" fill-rule="evenodd"/><path d="M 870.818 567.124 C 868.243 567.619, 859.726 568.581, 851.891 569.262 L 837.646 570.500 833.048 578.505 C 827.475 588.208, 821.196 597.092, 813.103 606.722 L 807.034 613.943 810.267 613.357 C 833.905 609.072, 845.458 604.053, 857.443 592.860 C 861.665 588.917, 867.117 582.891, 869.559 579.470 C 874.015 573.225, 877.690 565.903, 876.263 566.112 C 875.844 566.173, 873.393 566.629, 870.818 567.124 M 279.721 573.927 L 272.942 574.500 279.281 582.500 C 295.123 602.495, 317.317 617.190, 338.718 621.854 L 342.936 622.773 333.864 612.637 C 325.044 602.782, 313.306 587.033, 307.775 577.632 L 305.049 573 295.775 573.177 C 290.674 573.274, 283.450 573.611, 279.721 573.927 M 983.966 596.750 L 978.500 602.500 984.250 597.034 C 989.592 591.956, 990.458 591, 989.716 591 C 989.560 591, 986.972 593.587, 983.966 596.750 M 951.466 678.500 C 951.466 707.650, 951.593 719.431, 951.749 704.680 C 951.905 689.928, 951.905 666.078, 951.749 651.680 C 951.593 637.281, 951.465 649.350, 951.466 678.500 M 365.588 659.750 C 350.890 682.017, 338.839 711.886, 335.459 734.427 C 334.777 738.970, 334.792 739, 337.692 739 C 339.298 739, 343.512 739.978, 347.056 741.174 C 352.081 742.869, 354.730 744.577, 359.087 748.931 C 365.995 755.834, 368.057 760.994, 371.500 780 C 375.132 800.049, 377.942 806.602, 387.356 816.987 C 396.588 827.170, 414.265 837.382, 435 844.511 C 449.250 849.409, 457.443 851.002, 468.315 850.988 C 482.845 850.969, 493.630 847.060, 501.563 838.936 L 505.329 835.078 498.217 811.789 C 485.739 770.927, 480.159 749.244, 473.058 714.017 L 468.324 690.534 451.912 684.945 C 425.082 675.809, 402.641 665.489, 383.574 653.519 C 378.740 650.483, 374.460 648, 374.064 648 C 373.668 648, 369.854 653.288, 365.588 659.750 M 752.500 657.102 C 743.761 662.347, 724.348 671.877, 713.747 676.125 C 698.453 682.255, 694.048 683.759, 676.010 689.012 L 659.519 693.813 658.299 699.657 C 657.628 702.871, 656.372 712.475, 655.508 721 C 650.446 770.945, 639.116 813.622, 621.839 847.823 C 616.775 857.847, 610.157 873.076, 606.553 883 C 603.057 892.625, 595.685 912.693, 590.172 927.595 C 575.794 966.456, 572.012 981.695, 572.004 1000.792 C 571.993 1028.083, 584.686 1052.115, 604.452 1062.225 C 616.830 1068.557, 615.669 1068.429, 662 1068.529 C 685.375 1068.579, 707.200 1068.232, 710.500 1067.757 C 718.848 1066.556, 724.394 1064.385, 732.286 1059.231 C 748.539 1048.615, 759.253 1027.738, 762.939 999.500 C 763.514 995.100, 764.428 978.450, 764.972 962.500 C 766.290 923.819, 767.917 913.509, 780.995 861 C 784.762 845.875, 788.386 830.696, 789.048 827.269 C 789.711 823.842, 790.646 821.281, 791.126 821.578 C 791.607 821.875, 792.008 819.729, 792.017 816.809 C 792.027 813.889, 792.713 807.450, 793.542 802.500 C 800.354 761.806, 792.220 712.611, 772.791 677 C 768.260 668.695, 758.782 653.995, 758 654.059 C 757.725 654.082, 755.250 655.451, 752.500 657.102 M 356 894.660 C 356 895.124, 356.904 900.228, 358.009 906.002 C 361.399 923.711, 362.912 938.984, 363.528 961.717 C 364.464 996.248, 365.989 1008.957, 370.913 1023.254 C 378.039 1043.944, 392.721 1059.550, 410.002 1064.805 C 415.972 1066.620, 420.147 1066.811, 461.002 1067.141 C 500.915 1067.463, 506.149 1067.321, 511.793 1065.760 C 521.101 1063.186, 528.318 1059.308, 534.915 1053.338 C 557.267 1033.112, 562.109 999.805, 548.942 956.871 C 545.897 946.941, 539.492 929.159, 538.663 928.329 C 538.404 928.071, 535.112 928.815, 531.347 929.982 C 498.622 940.127, 439.832 938.913, 404.500 927.362 C 387.121 921.681, 369.627 910.546, 360.523 899.369 C 358.035 896.315, 356 894.196, 356 894.660 M 842.768 1068.725 C 844.565 1068.947, 847.265 1068.943, 848.768 1068.715 C 850.271 1068.486, 848.800 1068.304, 845.500 1068.310 C 842.200 1068.315, 840.971 1068.502, 842.768 1068.725" stroke="none" fill="#80b1b9" fill-rule="evenodd"/><path d="M 820.038 345.224 C 820.017 345.622, 821.338 349.315, 822.973 353.431 C 824.608 357.547, 826.141 361.946, 826.380 363.207 C 826.619 364.468, 827.958 367.528, 829.356 370.006 C 833.258 376.923, 841.512 396.649, 845.539 408.684 C 858.242 446.644, 861.216 487.459, 853.901 523.458 C 851.549 535.032, 846.014 552.731, 841.882 561.888 C 840.297 565.402, 839 568.439, 839 568.638 C 839 569.536, 852.917 568.857, 863.995 567.420 C 870.693 566.551, 876.419 566.086, 876.719 566.386 C 877.020 566.686, 878.062 565.919, 879.036 564.681 C 880.231 563.162, 881.320 558.472, 882.388 550.245 C 890.212 489.937, 878.324 431.124, 848.280 381.500 C 840.675 368.940, 820.177 342.610, 820.038 345.224 M 305.341 364.794 C 284.076 396.946, 270.649 432.037, 264.323 472 C 262.879 481.124, 262.513 489.078, 262.553 510.500 C 262.604 538.026, 263.164 544.029, 267.675 565.362 L 269.337 573.223 286.108 572.838 C 295.332 572.627, 303.134 572.199, 303.446 571.887 C 303.757 571.576, 301.819 566.636, 299.138 560.911 C 293.266 548.367, 288.709 534.820, 286.050 522 C 277.193 479.308, 283.835 428.751, 304.006 385.319 C 306.096 380.820, 307.549 376.882, 307.236 376.569 C 306.923 376.256, 307.218 376, 307.892 376 C 308.566 376, 308.853 375.571, 308.528 375.046 C 308.204 374.521, 309.055 369.698, 310.418 364.328 C 311.782 358.958, 312.791 354.457, 312.660 354.326 C 312.529 354.196, 309.236 358.906, 305.341 364.794" stroke="none" fill="#dedede" fill-rule="evenodd"/><path d="M 691.315 470.071 C 683.116 472.523, 679.392 481.178, 683.666 487.844 C 686.073 491.597, 693.359 494.323, 698.802 493.507 C 704.050 492.720, 709.423 488.147, 710.597 483.469 C 712.643 475.316, 700.948 467.190, 691.315 470.071 M 400.500 473.861 C 395.318 477.061, 393.500 479.831, 393.500 484.524 C 393.500 491.638, 399.947 497, 408.500 497 C 423.478 497, 429.047 481.487, 416.759 473.995 C 412.505 471.401, 404.588 471.336, 400.500 473.861" stroke="none" fill="#f9f9f9" fill-rule="evenodd"/><path d="M 701.500 461.325 C 685.984 465.289, 673.634 478.724, 669.540 496.093 C 664.290 518.364, 674.201 542.712, 692.245 551.871 C 707.222 559.473, 721.690 557.966, 735.603 547.354 C 739.507 544.376, 746.897 533.543, 749.364 527.180 C 753.730 515.924, 753.423 499.923, 748.615 488.091 C 740.503 468.128, 720.144 456.561, 701.500 461.325 M 416.500 462.661 C 401.085 465.964, 388.071 477.951, 382.168 494.284 C 379.960 500.393, 379.557 503.188, 379.541 512.500 C 379.511 529.197, 383.824 540.039, 394.890 551.085 C 403.955 560.134, 409.877 562.491, 423.554 562.496 C 433.135 562.500, 433.960 562.326, 441.054 558.811 C 449.522 554.616, 454.300 550.126, 459.474 541.500 C 466.602 529.616, 469.152 513.405, 466.018 499.900 C 460.380 475.603, 437.256 458.213, 416.500 462.661 M 688.121 470.710 C 681.507 473.969, 679.205 481.544, 682.960 487.701 C 689.948 499.163, 711.662 494.388, 711.296 481.471 C 711.016 471.565, 698.336 465.678, 688.121 470.710 M 401.500 472.356 C 394.935 475.396, 391.214 482.089, 393.031 487.594 C 396.089 496.859, 410.004 501.121, 417.915 495.214 C 426.413 488.870, 426.337 480.074, 417.730 473.648 C 414.373 471.142, 405.627 470.446, 401.500 472.356" stroke="none" fill="#0f0f0f" fill-rule="evenodd"/><path d="M 725.500 559.641 C 716.355 561.509, 709.017 563.474, 706.500 564.728 C 701.552 567.195, 697 572.117, 697 575 C 697 577.889, 701.570 582.823, 706.500 585.258 C 716.635 590.262, 741.448 592.446, 757.140 589.715 C 782.839 585.241, 790.197 572.747, 771.955 564.560 C 768.571 563.041, 762.359 561.185, 758.151 560.434 C 751.128 559.182, 730.233 558.674, 725.500 559.641 M 392.527 570.618 C 383.451 572.257, 374.778 575.891, 370.750 579.744 C 360.081 589.949, 380.975 601.250, 410.500 601.244 C 441.157 601.237, 461.007 590.066, 449.812 579.120 C 441.300 570.798, 413.989 566.745, 392.527 570.618" stroke="none" fill="#f8689d" fill-rule="evenodd"/><path d="M 796.821 133.497 C 763.697 139.072, 736.247 160.634, 723.352 191.210 C 718.322 203.137, 716.987 209.313, 716.316 223.750 C 715.977 231.037, 715.544 237, 715.353 237 C 715.162 237, 712.226 234.954, 708.829 232.453 C 694.317 221.770, 672.665 209.919, 654.265 202.590 C 608.813 184.484, 558.093 182.516, 512.454 197.087 C 486.879 205.252, 466.622 215.298, 440.871 232.587 C 433.159 237.764, 426.659 242, 426.425 242 C 426.191 242, 426 238.697, 426 234.660 C 426 212.436, 411.218 184.796, 390.358 168.014 C 378.233 158.261, 364.581 151.996, 348.715 148.906 C 309.746 141.316, 270.458 158.616, 229 201.623 C 207.965 223.443, 190.102 248.227, 172.509 280 C 169.312 285.775, 164.781 293.893, 162.442 298.041 C 156.663 308.284, 142.722 337.891, 133.702 359.075 C 118.035 395.869, 105.016 432.393, 93.515 471.817 L 87.880 491.133 90.560 499.317 C 100.544 529.803, 118.734 563.370, 139.427 589.493 C 149.162 601.781, 169.579 622.345, 181 631.364 C 217.909 660.511, 258.395 676.202, 300.554 677.698 C 318.225 678.326, 331.603 677.177, 344.832 673.896 C 349.414 672.760, 353.335 672.001, 353.545 672.211 C 353.755 672.421, 353.273 675.047, 352.475 678.047 C 351.677 681.046, 351.025 683.725, 351.026 684 C 351.027 684.275, 352.860 681.125, 355.099 677 C 359.953 668.060, 373.082 648, 374.080 648 C 374.468 648, 378.740 650.483, 383.574 653.519 C 402.641 665.489, 425.082 675.809, 451.912 684.945 L 468.324 690.534 473.058 714.017 C 480.271 749.795, 489.955 786.605, 502.254 825 L 505.618 835.500 508.811 830 C 516.192 817.283, 518.806 803.945, 517.015 788.133 C 515.611 775.734, 512.327 765.103, 501.531 738 C 483.471 692.661, 479.237 671.717, 480.314 633.046 C 481.026 607.496, 483.369 592.830, 487.634 587.229 C 503.830 565.962, 531.014 551.505, 558.743 549.412 C 588.230 547.186, 620.562 561.498, 639.650 585.225 C 646.517 593.761, 647.134 595.683, 651.453 622 C 655.262 645.207, 656.336 658.875, 656.421 685.191 L 656.500 709.881 658 701.845 L 659.500 693.808 676 689.009 C 706.131 680.246, 729.051 670.747, 751.327 657.792 C 755.082 655.608, 758.293 653.974, 758.462 654.161 C 758.631 654.347, 761.316 658.325, 764.428 663 C 769.089 670.003, 775.715 682.579, 782.867 698 C 783.866 700.155, 783.947 699.810, 783.454 695.500 C 782.841 690.145, 775.631 656.778, 774.395 653.576 C 773.771 651.959, 773.959 651.783, 775.576 652.472 C 781.530 655.009, 800.541 660.254, 808.860 661.656 C 821.947 663.860, 849.146 663.839, 862.500 661.613 C 873.978 659.700, 892.545 654.932, 900.241 651.920 C 908.617 648.643, 926.452 640.655, 927 639.936 C 927.275 639.574, 929.075 638.474, 931 637.490 C 952.579 626.460, 984.087 599.157, 1003.390 574.762 C 1007.179 569.973, 1010.736 566.337, 1011.294 566.682 C 1011.905 567.059, 1011.997 566.805, 1011.526 566.043 C 1011.096 565.346, 1011.154 564.489, 1011.655 564.138 C 1012.965 563.220, 1023.855 546.065, 1029.912 535.376 C 1037.087 522.714, 1045.084 504.704, 1050.325 489.402 L 1054.754 476.472 1048.890 456.292 C 1024.849 373.553, 986.423 286.908, 948.151 229.143 C 912.916 175.960, 866.208 139.665, 825 133.446 C 813.718 131.743, 807.175 131.755, 796.821 133.497 M 341.500 206.503 C 312.775 211.931, 287.179 230.968, 258.814 268 C 230.735 304.658, 207.322 351.499, 186.838 412 C 179.606 433.361, 168.892 468.279, 165.015 483.125 L 162.763 491.751 166.535 498.495 C 175.813 515.087, 192.772 533.919, 208.555 545.157 C 224.174 556.278, 248.075 566.810, 263.681 569.446 C 265.970 569.833, 268.089 570.791, 268.390 571.575 C 268.799 572.639, 271.162 573.045, 277.719 573.177 L 286.500 573.353 279.721 573.927 L 272.942 574.500 279.281 582.500 C 295.126 602.499, 317.316 617.189, 338.727 621.856 L 342.955 622.777 334.317 613.139 C 324.356 602.022, 315.597 590.441, 309.749 580.655 C 307.499 576.890, 304.723 573.431, 303.579 572.968 C 301.964 572.314, 301.877 572.113, 303.189 572.063 C 304.576 572.011, 304.003 570.169, 299.974 561.736 C 290.137 541.143, 284.463 518.779, 283.169 495.500 C 279.765 434.256, 300.529 375.793, 345.678 319.500 C 361.244 300.092, 392.203 269.678, 412.810 253.550 C 420.094 247.848, 420.154 247.271, 414.401 238.278 C 398.742 213.799, 369.754 201.164, 341.500 206.503 M 772.410 206.415 C 753.111 210.834, 733.917 224.770, 725.599 240.403 L 723.699 243.975 726.599 246.236 C 739.788 256.516, 761.814 277.677, 775.275 293 C 822.021 346.212, 848.329 399.090, 855.604 454.459 C 857.301 467.378, 857.490 495.851, 855.958 508 C 853.647 526.333, 847.952 547.412, 841.459 561.660 L 838.114 569 843.807 569.168 L 849.500 569.336 843.569 569.918 L 837.639 570.500 833.044 578.505 C 827.480 588.201, 821.202 597.084, 813.103 606.722 L 807.034 613.943 810.267 613.357 C 834.512 608.962, 845.612 604.037, 858.207 592.087 C 862.768 587.759, 868.525 581.067, 871 577.216 L 875.500 570.214 883.854 568.072 C 901.328 563.591, 919.963 554.686, 934.944 543.658 C 949.162 533.191, 966.175 514.178, 974.344 499.624 L 978.983 491.359 973.073 470.430 C 942.082 360.680, 905.538 287.311, 858.547 240.498 C 840.628 222.646, 825.089 212.953, 806.500 208.030 C 796.184 205.299, 780.525 204.556, 772.410 206.415 M 697.500 461.803 C 682.020 467.235, 670.730 482.329, 668.122 501.080 C 664.742 525.379, 677.835 548.580, 698.810 555.459 C 706.666 558.036, 718.699 557.296, 726.281 553.770 C 737.909 548.364, 747.818 535.884, 751.515 521.992 C 753.405 514.888, 753.402 501.965, 751.508 494.693 C 748.042 481.385, 738.615 469.399, 727.185 463.768 C 721.367 460.901, 719.445 460.472, 711.526 460.274 C 705.007 460.111, 701.111 460.535, 697.500 461.803 M 411.286 463.451 C 397.334 467.811, 385.081 481.334, 380.434 497.500 C 376.730 510.386, 378.904 528.419, 385.607 540.413 C 401.721 569.244, 438.776 571.792, 457.634 545.365 C 472.400 524.671, 471.106 495.035, 454.618 476.303 C 449.751 470.774, 441.634 465.400, 435.200 463.448 C 429.394 461.686, 416.928 461.687, 411.286 463.451 M 725.500 559.641 C 716.355 561.509, 709.017 563.474, 706.500 564.728 C 701.552 567.195, 697 572.117, 697 575 C 697 577.889, 701.570 582.823, 706.500 585.258 C 716.635 590.262, 741.448 592.446, 757.140 589.715 C 782.839 585.241, 790.197 572.747, 771.955 564.560 C 768.571 563.041, 762.359 561.185, 758.151 560.434 C 751.128 559.182, 730.233 558.674, 725.500 559.641 M 392.527 570.618 C 383.451 572.257, 374.778 575.891, 370.750 579.744 C 360.081 589.949, 380.975 601.250, 410.500 601.244 C 441.157 601.237, 461.007 590.066, 449.812 579.120 C 441.300 570.798, 413.989 566.745, 392.527 570.618 M 557 608.447 C 546.129 610.784, 533.321 616.310, 527.997 620.960 L 525.500 623.141 538.500 622.575 C 545.650 622.263, 566.117 622.006, 583.982 622.004 L 616.464 622 612.614 619.384 C 607.356 615.811, 597.648 611.505, 590.464 609.559 C 582.057 607.282, 565.049 606.716, 557 608.447 M 563.500 665.435 C 552.577 667.992, 541.769 672.861, 535 678.276 L 532.500 680.276 541.904 679.638 C 547.076 679.287, 567.776 678.990, 587.904 678.978 L 624.500 678.956 622 676.957 C 618.142 673.871, 606.162 668.284, 599.500 666.462 C 591.232 664.201, 571.213 663.630, 563.500 665.435 M 556.387 719.975 C 549.316 721.829, 533.730 729.010, 532.517 730.973 C 532.092 731.660, 537.447 732.001, 548.691 732.003 C 566.023 732.007, 609.656 733.558, 618.500 734.486 L 623.500 735.011 620.500 732.468 C 615.748 728.441, 602.219 722.169, 593.590 719.994 C 583.136 717.359, 566.399 717.350, 556.387 719.975 M 789.130 827 C 788.423 830.575, 784.762 845.875, 780.995 861 C 767.917 913.509, 766.290 923.819, 764.972 962.500 C 764.428 978.450, 763.514 995.100, 762.939 999.500 C 760.253 1020.080, 753.897 1036.659, 744.098 1048.649 C 738.823 1055.104, 728.148 1062.889, 721.750 1064.948 C 719.688 1065.612, 718 1066.342, 718 1066.570 C 718 1066.798, 733.638 1066.980, 752.750 1066.974 C 771.862 1066.969, 797.776 1067.415, 810.335 1067.964 C 831.621 1068.896, 859.276 1068.187, 869 1066.461 C 890.222 1062.693, 899.654 1060.054, 911.622 1054.534 C 921.558 1049.950, 929.648 1044.227, 936.210 1037.140 C 951.037 1021.125, 954.728 999.870, 949.585 960.112 C 946.427 935.696, 943.812 922.990, 939.941 913.248 C 930.199 888.732, 913.969 877.301, 882.500 872.790 C 871.649 871.235, 809.215 871.236, 795.500 872.792 C 790.550 873.353, 786.343 873.660, 786.151 873.474 C 785.960 873.288, 786.509 867.818, 787.372 861.318 C 790.908 834.701, 792.061 812.181, 789.130 827 M 464.250 851.728 C 466.313 851.944, 469.688 851.944, 471.750 851.728 C 473.813 851.513, 472.125 851.336, 468 851.336 C 463.875 851.336, 462.188 851.513, 464.250 851.728 M 336.022 865.784 L 336 870.069 330.750 869.284 C 327.863 868.853, 313.800 868.536, 299.500 868.579 C 275.513 868.652, 271.340 868.943, 245.612 872.341 C 216.045 876.246, 209.803 877.600, 200.984 882.025 C 194.872 885.091, 187.249 892.626, 184.205 898.608 C 178.412 909.996, 175.273 930.534, 176.368 949.886 C 177.277 965.941, 180.708 1001.476, 182.493 1013.329 C 185.363 1032.384, 193.030 1042.438, 211.569 1051.457 C 253.290 1071.753, 300.084 1075.537, 407.815 1067.329 L 416.131 1066.695 409.259 1064.516 C 388.912 1058.065, 373.919 1038.976, 367.504 1011.352 C 365.473 1002.605, 364.209 986.828, 363.528 961.727 C 362.865 937.275, 362.173 930.163, 358.300 908.029 C 356.058 895.210, 355.071 891.744, 352.547 887.813 C 350.871 885.204, 347.346 879.341, 344.714 874.784 C 342.081 870.228, 339.054 865.375, 337.986 864 L 336.044 861.500 336.022 865.784 M 608.490 870.750 C 598.524 885.858, 581.874 902.808, 567.519 912.458 C 558.704 918.385, 541.481 926.990, 538.384 927.015 C 537.018 927.026, 536.855 927.256, 537.792 927.850 C 540.548 929.598, 550.559 959.889, 553.987 976.850 C 556.403 988.803, 556.868 1006.092, 555.041 1016 C 553.642 1023.590, 549.258 1035.046, 545.439 1041.096 C 539.540 1050.441, 528.857 1059.593, 519.708 1063.141 C 516.218 1064.494, 519.440 1064.708, 560.208 1065.826 C 584.569 1066.494, 606.975 1067.021, 610 1066.997 L 615.500 1066.953 609.736 1064.582 C 586.173 1054.892, 571.991 1030.917, 572.004 1000.792 C 572.012 981.074, 575.650 966.884, 592.175 922.118 C 606.258 883.967, 613.041 865, 612.599 865 C 612.425 865, 610.576 867.587, 608.490 870.750 M 912.512 901.221 C 904.862 905.625, 900.856 921.547, 900.867 947.500 C 900.895 1012.157, 927.866 1053.783, 937.475 1004 C 939.644 992.759, 939.658 966.406, 937.501 951.162 C 932.866 918.392, 921.644 895.965, 912.512 901.221 M 197.826 903.540 C 184.401 910.788, 182.579 968.479, 194.622 1005 C 203.745 1032.668, 215.236 1035.600, 222.057 1012 C 224.800 1002.509, 225.889 973.267, 224.058 958.241 C 221.242 935.125, 214.766 914.248, 208.209 907.150 C 203.829 902.407, 201.454 901.582, 197.826 903.540 M 424.768 1067.725 C 426.565 1067.947, 429.265 1067.943, 430.768 1067.715 C 432.271 1067.486, 430.800 1067.304, 427.500 1067.310 C 424.200 1067.315, 422.971 1067.502, 424.768 1067.725" stroke="none" fill="#99c1c7" fill-rule="evenodd"/><path d="M 372.477 289.250 L 364.500 297.500 372.750 289.523 C 377.288 285.136, 381 281.424, 381 281.273 C 381 280.544, 379.885 281.588, 372.477 289.250 M 282.320 475 C 282.320 478.575, 282.502 480.038, 282.723 478.250 C 282.945 476.462, 282.945 473.538, 282.723 471.750 C 282.502 469.962, 282.320 471.425, 282.320 475 M 857.328 475.500 C 857.333 479.350, 857.513 480.802, 857.730 478.728 C 857.946 476.653, 857.943 473.503, 857.722 471.728 C 857.501 469.952, 857.324 471.650, 857.328 475.500 M 857.336 490 C 857.336 494.125, 857.513 495.813, 857.728 493.750 C 857.944 491.688, 857.944 488.313, 857.728 486.250 C 857.513 484.188, 857.336 485.875, 857.336 490 M 282.320 490 C 282.320 493.575, 282.502 495.038, 282.723 493.250 C 282.945 491.462, 282.945 488.538, 282.723 486.750 C 282.502 484.962, 282.320 486.425, 282.320 490 M 189.500 529 C 192.766 532.300, 195.662 535, 195.937 535 C 196.212 535, 193.766 532.300, 190.500 529 C 187.234 525.700, 184.338 523, 184.063 523 C 183.788 523, 186.234 525.700, 189.500 529 M 552.955 550.099 C 532.235 552.779, 511.215 563.025, 496.677 577.530 C 485.890 588.292, 485.219 589.528, 482.784 603.097 C 480.896 613.621, 480.555 619.136, 480.537 639.500 C 480.515 664.568, 481.131 670.725, 485.597 690 C 489.029 704.815, 492.968 716.445, 502.568 740.115 C 512.401 764.356, 515.609 774.843, 517.127 787.715 C 518.484 799.225, 517.157 811.668, 513.606 820.730 C 502.086 850.124, 476.005 858.788, 437.646 845.962 C 415.071 838.415, 397.355 828.471, 387.481 817.806 C 377.694 807.235, 374.474 799.876, 370.966 780.064 C 367.475 760.349, 363.910 752.400, 355.836 746.334 C 351.742 743.258, 349.324 742.237, 341 740.071 C 328.437 736.801, 310.645 741.055, 296.389 750.736 C 288.292 756.235, 276.325 768.438, 272.011 775.596 C 262.168 791.928, 261.380 809.942, 269.989 821.825 C 275.993 830.114, 283.933 834.392, 305.500 840.957 C 325.601 847.076, 333.557 854.385, 348.002 880 C 361.813 904.491, 377.139 917.363, 403 926.194 C 425.757 933.965, 462.904 938.128, 491 936.056 C 523.444 933.662, 545.559 926.823, 566.995 912.552 C 605.792 886.724, 632.756 839.361, 647.048 771.936 C 653.698 740.566, 656.314 715.905, 656.271 685 C 656.237 660.269, 655.144 646.193, 651.496 623.470 C 647.126 596.256, 646.167 593.244, 639.180 584.797 C 630.568 574.385, 619.726 565.803, 607.443 559.674 C 597.290 554.608, 585.571 551.235, 573.991 550.047 C 562.716 548.890, 562.299 548.891, 552.955 550.099 M 555.561 608.581 C 551.744 609.437, 545.932 611.231, 542.645 612.566 C 532.521 616.680, 519.953 625.679, 527.250 623.589 C 528.487 623.235, 549.015 622.661, 572.866 622.314 C 614.869 621.703, 616.158 621.627, 613.866 619.888 C 610.096 617.026, 600.095 612.416, 592.500 610.038 C 583.109 607.098, 565.304 606.396, 555.561 608.581 M 560.023 666.128 C 552.449 668.161, 539.573 674.319, 535 678.095 L 532.500 680.159 547 679.583 C 554.975 679.266, 575.892 679.006, 593.482 679.004 L 625.464 679 621.599 676.373 C 615.428 672.180, 604.095 667.359, 596.303 665.613 C 586.132 663.334, 569.557 663.569, 560.023 666.128 M 564.500 718.062 C 553.829 719.711, 541.795 724.298, 533.707 729.797 C 530.924 731.690, 531.018 731.699, 560.207 732.393 C 576.318 732.776, 596.884 733.522, 605.910 734.052 C 614.935 734.581, 622.504 734.829, 622.730 734.603 C 623.351 733.982, 615.125 728.540, 608.433 725.146 C 596.234 718.958, 577.866 715.996, 564.500 718.062" stroke="none" fill="#afcfd3" fill-rule="evenodd"/><path d="M 870.818 567.124 C 868.243 567.619, 859.726 568.581, 851.891 569.262 L 837.646 570.500 833.048 578.505 C 827.475 588.208, 821.196 597.092, 813.103 606.722 L 807.034 613.943 810.267 613.357 C 833.905 609.072, 845.458 604.053, 857.443 592.860 C 861.665 588.917, 867.117 582.891, 869.559 579.470 C 874.015 573.225, 877.690 565.903, 876.263 566.112 C 875.844 566.173, 873.393 566.629, 870.818 567.124 M 279.721 573.927 L 272.942 574.500 279.281 582.500 C 295.123 602.495, 317.317 617.190, 338.718 621.854 L 342.936 622.773 333.864 612.637 C 325.044 602.782, 313.306 587.033, 307.775 577.632 L 305.049 573 295.775 573.177 C 290.674 573.274, 283.450 573.611, 279.721 573.927 M 983.966 596.750 L 978.500 602.500 984.250 597.034 C 989.592 591.956, 990.458 591, 989.716 591 C 989.560 591, 986.972 593.587, 983.966 596.750 M 951.466 678.500 C 951.466 707.650, 951.593 719.431, 951.749 704.680 C 951.905 689.928, 951.905 666.078, 951.749 651.680 C 951.593 637.281, 951.465 649.350, 951.466 678.500 M 365.588 659.750 C 350.890 682.017, 338.839 711.886, 335.459 734.427 C 334.777 738.970, 334.792 739, 337.692 739 C 339.298 739, 343.512 739.978, 347.056 741.174 C 352.081 742.869, 354.730 744.577, 359.087 748.931 C 365.995 755.834, 368.057 760.994, 371.500 780 C 375.132 800.049, 377.942 806.602, 387.356 816.987 C 396.588 827.170, 414.265 837.382, 435 844.511 C 449.250 849.409, 457.443 851.002, 468.315 850.988 C 482.845 850.969, 493.630 847.060, 501.563 838.936 L 505.329 835.078 498.217 811.789 C 485.739 770.927, 480.159 749.244, 473.058 714.017 L 468.324 690.534 451.912 684.945 C 425.082 675.809, 402.641 665.489, 383.574 653.519 C 378.740 650.483, 374.460 648, 374.064 648 C 373.668 648, 369.854 653.288, 365.588 659.750 M 752.500 657.102 C 743.761 662.347, 724.348 671.877, 713.747 676.125 C 698.453 682.255, 694.048 683.759, 676.010 689.012 L 659.519 693.813 658.299 699.657 C 657.628 702.871, 656.372 712.475, 655.508 721 C 650.446 770.945, 639.116 813.622, 621.839 847.823 C 616.775 857.847, 610.157 873.076, 606.553 883 C 603.057 892.625, 595.685 912.693, 590.172 927.595 C 575.794 966.456, 572.012 981.695, 572.004 1000.792 C 571.993 1028.083, 584.686 1052.115, 604.452 1062.225 C 616.830 1068.557, 615.669 1068.429, 662 1068.529 C 685.375 1068.579, 707.200 1068.232, 710.500 1067.757 C 718.848 1066.556, 724.394 1064.385, 732.286 1059.231 C 748.539 1048.615, 759.253 1027.738, 762.939 999.500 C 763.514 995.100, 764.428 978.450, 764.972 962.500 C 766.290 923.819, 767.917 913.509, 780.995 861 C 784.762 845.875, 788.386 830.696, 789.048 827.269 C 789.711 823.842, 790.646 821.281, 791.126 821.578 C 791.607 821.875, 792.008 819.729, 792.017 816.809 C 792.027 813.889, 792.713 807.450, 793.542 802.500 C 800.354 761.806, 792.220 712.611, 772.791 677 C 768.260 668.695, 758.782 653.995, 758 654.059 C 757.725 654.082, 755.250 655.451, 752.500 657.102 M 356 894.660 C 356 895.124, 356.904 900.228, 358.009 906.002 C 361.399 923.711, 362.912 938.984, 363.528 961.717 C 364.464 996.248, 365.989 1008.957, 370.913 1023.254 C 378.039 1043.944, 392.721 1059.550, 410.002 1064.805 C 415.972 1066.620, 420.147 1066.811, 461.002 1067.141 C 500.915 1067.463, 506.149 1067.321, 511.793 1065.760 C 521.101 1063.186, 528.318 1059.308, 534.915 1053.338 C 557.267 1033.112, 562.109 999.805, 548.942 956.871 C 545.897 946.941, 539.492 929.159, 538.663 928.329 C 538.404 928.071, 535.112 928.815, 531.347 929.982 C 498.622 940.127, 439.832 938.913, 404.500 927.362 C 387.121 921.681, 369.627 910.546, 360.523 899.369 C 358.035 896.315, 356 894.196, 356 894.660 M 842.768 1068.725 C 844.565 1068.947, 847.265 1068.943, 848.768 1068.715 C 850.271 1068.486, 848.800 1068.304, 845.500 1068.310 C 842.200 1068.315, 840.971 1068.502, 842.768 1068.725" stroke="none" fill="#80b1b9" fill-rule="evenodd"/><path d="M 870.818 567.124 C 868.243 567.619, 859.726 568.581, 851.891 569.262 L 837.646 570.500 833.048 578.505 C 827.475 588.208, 821.196 597.092, 813.103 606.722 L 807.034 613.943 810.267 613.357 C 833.905 609.072, 845.458 604.053, 857.443 592.860 C 861.665 588.917, 867.117 582.891, 869.559 579.470 C 874.015 573.225, 877.690 565.903, 876.263 566.112 C 875.844 566.173, 873.393 566.629, 870.818 567.124 M 279.721 573.927 L 272.942 574.500 279.281 582.500 C 295.123 602.495, 317.317 617.190, 338.718 621.854 L 342.936 622.773 333.864 612.637 C 325.044 602.782, 313.306 587.033, 307.775 577.632 L 305.049 573 295.775 573.177 C 290.674 573.274, 283.450 573.611, 279.721 573.927 M 983.966 596.750 L 978.500 602.500 984.250 597.034 C 989.592 591.956, 990.458 591, 989.716 591 C 989.560 591, 986.972 593.587, 983.966 596.750 M 951.466 678.500 C 951.466 707.650, 951.593 719.431, 951.749 704.680 C 951.905 689.928, 951.905 666.078, 951.749 651.680 C 951.593 637.281, 951.465 649.350, 951.466 678.500 M 365.588 659.750 C 350.890 682.017, 338.839 711.886, 335.459 734.427 C 334.777 738.970, 334.792 739, 337.692 739 C 339.298 739, 343.512 739.978, 347.056 741.174 C 352.081 742.869, 354.730 744.577, 359.087 748.931 C 365.995 755.834, 368.057 760.994, 371.500 780 C 375.132 800.049, 377.942 806.602, 387.356 816.987 C 396.588 827.170, 414.265 837.382, 435 844.511 C 449.250 849.409, 457.443 851.002, 468.315 850.988 C 482.845 850.969, 493.630 847.060, 501.563 838.936 L 505.329 835.078 498.217 811.789 C 485.739 770.927, 480.159 749.244, 473.058 714.017 L 468.324 690.534 451.912 684.945 C 425.082 675.809, 402.641 665.489, 383.574 653.519 C 378.740 650.483, 374.460 648, 374.064 648 C 373.668 648, 369.854 653.288, 365.588 659.750 M 752.500 657.102 C 743.761 662.347, 724.348 671.877, 713.747 676.125 C 698.453 682.255, 694.048 683.759, 676.010 689.012 L 659.519 693.813 658.299 699.657 C 657.628 702.871, 656.372 712.475, 655.508 721 C 650.446 770.945, 639.116 813.622, 621.839 847.823 C 616.775 857.847, 610.157 873.076, 606.553 883 C 603.057 892.625, 595.685 912.693, 590.172 927.595 C 575.794 966.456, 572.012 981.695, 572.004 1000.792 C 571.993 1028.083, 584.686 1052.115, 604.452 1062.225 C 616.830 1068.557, 615.669 1068.429, 662 1068.529 C 685.375 1068.579, 707.200 1068.232, 710.500 1067.757 C 718.848 1066.556, 724.394 1064.385, 732.286 1059.231 C 748.539 1048.615, 759.253 1027.738, 762.939 999.500 C 763.514 995.100, 764.428 978.450, 764.972 962.500 C 766.290 923.819, 767.917 913.509, 780.995 861 C 784.762 845.875, 788.386 830.696, 789.048 827.269 C 789.711 823.842, 790.646 821.281, 791.126 821.578 C 791.607 821.875, 792.008 819.729, 792.017 816.809 C 792.027 813.889, 792.713 807.450, 793.542 802.500 C 800.354 761.806, 792.220 712.611, 772.791 677 C 768.260 668.695, 758.782 653.995, 758 654.059 C 757.725 654.082, 755.250 655.451, 752.500 657.102 M 356 894.660 C 356 895.124, 356.904 900.228, 358.009 906.002 C 361.399 923.711, 362.912 938.984, 363.528 961.717 C 364.464 996.248, 365.989 1008.957, 370.913 1023.254 C 378.039 1043.944, 392.721 1059.550, 410.002 1064.805 C 415.972 1066.620, 420.147 1066.811, 461.002 1067.141 C 500.915 1067.463, 506.149 1067.321, 511.793 1065.760 C 521.101 1063.186, 528.318 1059.308, 534.915 1053.338 C 557.267 1033.112, 562.109 999.805, 548.942 956.871 C 545.897 946.941, 539.492 929.159, 538.663 928.329 C 538.404 928.071, 535.112 928.815, 531.347 929.982 C 498.622 940.127, 439.832 938.913, 404.500 927.362 C 387.121 921.681, 369.627 910.546, 360.523 899.369 C 358.035 896.315, 356 894.196, 356 894.660 M 842.768 1068.725 C 844.565 1068.947, 847.265 1068.943, 848.768 1068.715 C 850.271 1068.486, 848.800 1068.304, 845.500 1068.310 C 842.200 1068.315, 840.971 1068.502, 842.768 1068.725" stroke="none" fill="#80b1b9" fill-rule="evenodd"/><path d="M 796.821 133.497 C 763.697 139.072, 736.247 160.634, 723.352 191.210 C 718.322 203.137, 716.987 209.313, 716.316 223.750 C 715.977 231.037, 715.544 237, 715.353 237 C 715.162 237, 712.226 234.954, 708.829 232.453 C 694.317 221.770, 672.665 209.919, 654.265 202.590 C 608.813 184.484, 558.093 182.516, 512.454 197.087 C 486.879 205.252, 466.622 215.298, 440.871 232.587 C 433.159 237.764, 426.659 242, 426.425 242 C 426.191 242, 426 238.697, 426 234.660 C 426 212.436, 411.218 184.796, 390.358 168.014 C 378.233 158.261, 364.581 151.996, 348.715 148.906 C 309.746 141.316, 270.458 158.616, 229 201.623 C 207.965 223.443, 190.102 248.227, 172.509 280 C 169.312 285.775, 164.781 293.893, 162.442 298.041 C 156.663 308.284, 142.722 337.891, 133.702 359.075 C 118.035 395.869, 105.016 432.393, 93.515 471.817 L 87.880 491.133 90.560 499.317 C 100.544 529.803, 118.734 563.370, 139.427 589.493 C 149.162 601.781, 169.579 622.345, 181 631.364 C 217.909 660.511, 258.395 676.202, 300.554 677.698 C 318.225 678.326, 331.603 677.177, 344.832 673.896 C 349.414 672.760, 353.335 672.001, 353.545 672.211 C 353.755 672.421, 353.273 675.047, 352.475 678.047 C 351.677 681.046, 351.025 683.725, 351.026 684 C 351.027 684.275, 352.860 681.125, 355.099 677 C 359.953 668.060, 373.082 648, 374.080 648 C 374.468 648, 378.740 650.483, 383.574 653.519 C 402.641 665.489, 425.082 675.809, 451.912 684.945 L 468.324 690.534 473.058 714.017 C 480.271 749.795, 489.955 786.605, 502.254 825 L 505.618 835.500 508.811 830 C 516.192 817.283, 518.806 803.945, 517.015 788.133 C 515.611 775.734, 512.327 765.103, 501.531 738 C 483.471 692.661, 479.237 671.717, 480.314 633.046 C 481.026 607.496, 483.369 592.830, 487.634 587.229 C 503.830 565.962, 531.014 551.505, 558.743 549.412 C 588.230 547.186, 620.562 561.498, 639.650 585.225 C 646.517 593.761, 647.134 595.683, 651.453 622 C 655.262 645.207, 656.336 658.875, 656.421 685.191 L 656.500 709.881 658 701.845 L 659.500 693.808 676 689.009 C 706.131 680.246, 729.051 670.747, 751.327 657.792 C 755.082 655.608, 758.293 653.974, 758.462 654.161 C 758.631 654.347, 761.316 658.325, 764.428 663 C 769.089 670.003, 775.715 682.579, 782.867 698 C 783.866 700.155, 783.947 699.810, 783.454 695.500 C 782.841 690.145, 775.631 656.778, 774.395 653.576 C 773.771 651.959, 773.959 651.783, 775.576 652.472 C 781.530 655.009, 800.541 660.254, 808.860 661.656 C 821.947 663.860, 849.146 663.839, 862.500 661.613 C 873.978 659.700, 892.545 654.932, 900.241 651.920 C 908.617 648.643, 926.452 640.655, 927 639.936 C 927.275 639.574, 929.075 638.474, 931 637.490 C 952.579 626.460, 984.087 599.157, 1003.390 574.762 C 1007.179 569.973, 1010.736 566.337, 1011.294 566.682 C 1011.905 567.059, 1011.997 566.805, 1011.526 566.043 C 1011.096 565.346, 1011.154 564.489, 1011.655 564.138 C 1012.965 563.220, 1023.855 546.065, 1029.912 535.376 C 1037.087 522.714, 1045.084 504.704, 1050.325 489.402 L 1054.754 476.472 1048.890 456.292 C 1024.849 373.553, 986.423 286.908, 948.151 229.143 C 912.916 175.960, 866.208 139.665, 825 133.446 C 813.718 131.743, 807.175 131.755, 796.821 133.497 M 341.500 206.503 C 312.775 211.931, 287.179 230.968, 258.814 268 C 230.735 304.658, 207.322 351.499, 186.838 412 C 179.606 433.361, 168.892 468.279, 165.015 483.125 L 162.763 491.751 166.535 498.495 C 175.813 515.087, 192.772 533.919, 208.555 545.157 C 224.174 556.278, 248.075 566.810, 263.681 569.446 C 265.970 569.833, 268.089 570.791, 268.390 571.575 C 268.799 572.639, 271.162 573.045, 277.719 573.177 L 286.500 573.353 279.721 573.927 L 272.942 574.500 279.281 582.500 C 295.126 602.499, 317.316 617.189, 338.727 621.856 L 342.955 622.777 334.317 613.139 C 324.356 602.022, 315.597 590.441, 309.749 580.655 C 307.499 576.890, 304.723 573.431, 303.579 572.968 C 301.964 572.314, 301.877 572.113, 303.189 572.063 C 304.576 572.011, 304.003 570.169, 299.974 561.736 C 290.137 541.143, 284.463 518.779, 283.169 495.500 C 279.765 434.256, 300.529 375.793, 345.678 319.500 C 361.244 300.092, 392.203 269.678, 412.810 253.550 C 420.094 247.848, 420.154 247.271, 414.401 238.278 C 398.742 213.799, 369.754 201.164, 341.500 206.503 M 772.410 206.415 C 753.111 210.834, 733.917 224.770, 725.599 240.403 L 723.699 243.975 726.599 246.236 C 739.788 256.516, 761.814 277.677, 775.275 293 C 822.021 346.212, 848.329 399.090, 855.604 454.459 C 857.301 467.378, 857.490 495.851, 855.958 508 C 853.647 526.333, 847.952 547.412, 841.459 561.660 L 838.114 569 843.807 569.168 L 849.500 569.336 843.569 569.918 L 837.639 570.500 833.044 578.505 C 827.480 588.201, 821.202 597.084, 813.103 606.722 L 807.034 613.943 810.267 613.357 C 834.512 608.962, 845.612 604.037, 858.207 592.087 C 862.768 587.759, 868.525 581.067, 871 577.216 L 875.500 570.214 883.854 568.072 C 901.328 563.591, 919.963 554.686, 934.944 543.658 C 949.162 533.191, 966.175 514.178, 974.344 499.624 L 978.983 491.359 973.073 470.430 C 942.082 360.680, 905.538 287.311, 858.547 240.498 C 840.628 222.646, 825.089 212.953, 806.500 208.030 C 796.184 205.299, 780.525 204.556, 772.410 206.415 M 697.500 461.803 C 682.020 467.235, 670.730 482.329, 668.122 501.080 C 664.742 525.379, 677.835 548.580, 698.810 555.459 C 706.666 558.036, 718.699 557.296, 726.281 553.770 C 737.909 548.364, 747.818 535.884, 751.515 521.992 C 753.405 514.888, 753.402 501.965, 751.508 494.693 C 748.042 481.385, 738.615 469.399, 727.185 463.768 C 721.367 460.901, 719.445 460.472, 711.526 460.274 C 705.007 460.111, 701.111 460.535, 697.500 461.803 M 411.286 463.451 C 397.334 467.811, 385.081 481.334, 380.434 497.500 C 376.730 510.386, 378.904 528.419, 385.607 540.413 C 401.721 569.244, 438.776 571.792, 457.634 545.365 C 472.400 524.671, 471.106 495.035, 454.618 476.303 C 449.751 470.774, 441.634 465.400, 435.200 463.448 C 429.394 461.686, 416.928 461.687, 411.286 463.451 M 725.500 559.641 C 716.355 561.509, 709.017 563.474, 706.500 564.728 C 701.552 567.195, 697 572.117, 697 575 C 697 577.889, 701.570 582.823, 706.500 585.258 C 716.635 590.262, 741.448 592.446, 757.140 589.715 C 782.839 585.241, 790.197 572.747, 771.955 564.560 C 768.571 563.041, 762.359 561.185, 758.151 560.434 C 751.128 559.182, 730.233 558.674, 725.500 559.641 M 392.527 570.618 C 383.451 572.257, 374.778 575.891, 370.750 579.744 C 360.081 589.949, 380.975 601.250, 410.500 601.244 C 441.157 601.237, 461.007 590.066, 449.812 579.120 C 441.300 570.798, 413.989 566.745, 392.527 570.618 M 557 608.447 C 546.129 610.784, 533.321 616.310, 527.997 620.960 L 525.500 623.141 538.500 622.575 C 545.650 622.263, 566.117 622.006, 583.982 622.004 L 616.464 622 612.614 619.384 C 607.356 615.811, 597.648 611.505, 590.464 609.559 C 582.057 607.282, 565.049 606.716, 557 608.447 M 563.500 665.435 C 552.577 667.992, 541.769 672.861, 535 678.276 L 532.500 680.276 541.904 679.638 C 547.076 679.287, 567.776 678.990, 587.904 678.978 L 624.500 678.956 622 676.957 C 618.142 673.871, 606.162 668.284, 599.500 666.462 C 591.232 664.201, 571.213 663.630, 563.500 665.435 M 556.387 719.975 C 549.316 721.829, 533.730 729.010, 532.517 730.973 C 532.092 731.660, 537.447 732.001, 548.691 732.003 C 566.023 732.007, 609.656 733.558, 618.500 734.486 L 623.500 735.011 620.500 732.468 C 615.748 728.441, 602.219 722.169, 593.590 719.994 C 583.136 717.359, 566.399 717.350, 556.387 719.975 M 789.130 827 C 788.423 830.575, 784.762 845.875, 780.995 861 C 767.917 913.509, 766.290 923.819, 764.972 962.500 C 764.428 978.450, 763.514 995.100, 762.939 999.500 C 760.253 1020.080, 753.897 1036.659, 744.098 1048.649 C 738.823 1055.104, 728.148 1062.889, 721.750 1064.948 C 719.688 1065.612, 718 1066.342, 718 1066.570 C 718 1066.798, 733.638 1066.980, 752.750 1066.974 C 771.862 1066.969, 797.776 1067.415, 810.335 1067.964 C 831.621 1068.896, 859.276 1068.187, 869 1066.461 C 890.222 1062.693, 899.654 1060.054, 911.622 1054.534 C 921.558 1049.950, 929.648 1044.227, 936.210 1037.140 C 951.037 1021.125, 954.728 999.870, 949.585 960.112 C 946.427 935.696, 943.812 922.990, 939.941 913.248 C 930.199 888.732, 913.969 877.301, 882.500 872.790 C 871.649 871.235, 809.215 871.236, 795.500 872.792 C 790.550 873.353, 786.343 873.660, 786.151 873.474 C 785.960 873.288, 786.509 867.818, 787.372 861.318 C 790.908 834.701, 792.061 812.181, 789.130 827 M 464.250 851.728 C 466.313 851.944, 469.688 851.944, 471.750 851.728 C 473.813 851.513, 472.125 851.336, 468 851.336 C 463.875 851.336, 462.188 851.513, 464.250 851.728 M 336.022 865.784 L 336 870.069 330.750 869.284 C 327.863 868.853, 313.800 868.536, 299.500 868.579 C 275.513 868.652, 271.340 868.943, 245.612 872.341 C 216.045 876.246, 209.803 877.600, 200.984 882.025 C 194.872 885.091, 187.249 892.626, 184.205 898.608 C 178.412 909.996, 175.273 930.534, 176.368 949.886 C 177.277 965.941, 180.708 1001.476, 182.493 1013.329 C 185.363 1032.384, 193.030 1042.438, 211.569 1051.457 C 253.290 1071.753, 300.084 1075.537, 407.815 1067.329 L 416.131 1066.695 409.259 1064.516 C 388.912 1058.065, 373.919 1038.976, 367.504 1011.352 C 365.473 1002.605, 364.209 986.828, 363.528 961.727 C 362.865 937.275, 362.173 930.163, 358.300 908.029 C 356.058 895.210, 355.071 891.744, 352.547 887.813 C 350.871 885.204, 347.346 879.341, 344.714 874.784 C 342.081 870.228, 339.054 865.375, 337.986 864 L 336.044 861.500 336.022 865.784 M 608.490 870.750 C 598.524 885.858, 581.874 902.808, 567.519 912.458 C 558.704 918.385, 541.481 926.990, 538.384 927.015 C 537.018 927.026, 536.855 927.256, 537.792 927.850 C 540.548 929.598, 550.559 959.889, 553.987 976.850 C 556.403 988.803, 556.868 1006.092, 555.041 1016 C 553.642 1023.590, 549.258 1035.046, 545.439 1041.096 C 539.540 1050.441, 528.857 1059.593, 519.708 1063.141 C 516.218 1064.494, 519.440 1064.708, 560.208 1065.826 C 584.569 1066.494, 606.975 1067.021, 610 1066.997 L 615.500 1066.953 609.736 1064.582 C 586.173 1054.892, 571.991 1030.917, 572.004 1000.792 C 572.012 981.074, 575.650 966.884, 592.175 922.118 C 606.258 883.967, 613.041 865, 612.599 865 C 612.425 865, 610.576 867.587, 608.490 870.750 M 912.512 901.221 C 904.862 905.625, 900.856 921.547, 900.867 947.500 C 900.895 1012.157, 927.866 1053.783, 937.475 1004 C 939.644 992.759, 939.658 966.406, 937.501 951.162 C 932.866 918.392, 921.644 895.965, 912.512 901.221 M 197.826 903.540 C 184.401 910.788, 182.579 968.479, 194.622 1005 C 203.745 1032.668, 215.236 1035.600, 222.057 1012 C 224.800 1002.509, 225.889 973.267, 224.058 958.241 C 221.242 935.125, 214.766 914.248, 208.209 907.150 C 203.829 902.407, 201.454 901.582, 197.826 903.540 M 424.768 1067.725 C 426.565 1067.947, 429.265 1067.943, 430.768 1067.715 C 432.271 1067.486, 430.800 1067.304, 427.500 1067.310 C 424.200 1067.315, 422.971 1067.502, 424.768 1067.725" stroke="none" fill="#99c1c7" fill-rule="evenodd"/><path d="M 764 280.500 C 767.543 284.075, 770.667 287, 770.942 287 C 771.217 287, 768.543 284.075, 765 280.500 C 761.457 276.925, 758.333 274, 758.058 274 C 757.783 274, 760.457 276.925, 764 280.500 M 82 294 L -0.500 294.517 81.691 294.759 C 135.668 294.917, 164.094 294.657, 164.500 294 C 164.840 293.450, 164.979 293.109, 164.809 293.241 C 164.639 293.374, 127.375 293.715, 82 294 M 1040.310 389.748 C 1047.905 389.918, 1060.055 389.918, 1067.310 389.747 C 1074.564 389.576, 1068.350 389.437, 1053.500 389.438 C 1038.650 389.438, 1032.714 389.578, 1040.310 389.748 M 261.343 509.500 C 261.346 513.900, 261.522 515.576, 261.733 513.224 C 261.945 510.872, 261.942 507.272, 261.727 505.224 C 261.512 503.176, 261.339 505.100, 261.343 509.500 M 910.481 903.615 C 904.437 910.137, 901.547 924.707, 901.580 948.500 C 901.615 974.311, 906.015 998.292, 913.543 1013.702 C 919.205 1025.290, 925.433 1028.273, 930.346 1021.750 C 936.023 1014.214, 938.388 1001.528, 938.409 978.500 C 938.439 946.176, 931.355 915.630, 921.421 905.259 C 916.679 900.307, 913.930 899.894, 910.481 903.615 M 197.738 904.087 C 196.769 904.651, 194.893 907.251, 193.568 909.865 C 182.646 931.419, 186.361 990.755, 200.296 1017.314 C 203.803 1023.998, 207.114 1027, 210.980 1027 C 214.261 1027, 216.253 1024.943, 219.011 1018.708 C 230.851 991.941, 222.505 919.542, 205.976 905.633 C 202.640 902.826, 200.570 902.438, 197.738 904.087" stroke="none" fill="#e0ecee" fill-rule="evenodd"/><path d="M 1073.500 761.987 C 1071.850 762.431, 1063.525 764.462, 1055 766.501 C 1027.347 773.114, 996.708 783.732, 974.500 794.397 C 934.879 813.425, 905.648 837.950, 888.131 866.859 C 886.346 869.806, 885.023 872.315, 885.192 872.433 C 885.362 872.552, 889.325 873.435, 894 874.396 C 914.302 878.570, 928.698 889.397, 937.350 907 C 943.945 920.418, 946.656 932.421, 951.014 967.500 C 952.583 980.128, 952.356 1000.403, 950.549 1009.172 C 947.061 1026.092, 936.302 1041.104, 921.481 1049.732 C 913.892 1054.150, 900.077 1060.126, 893.250 1061.945 C 890.913 1062.568, 889.024 1063.622, 889.052 1064.289 C 889.081 1064.955, 890.380 1068.650, 891.939 1072.500 L 894.774 1079.500 987.387 1079.755 L 1080 1080.010 1080 920.505 C 1080 769.228, 1079.910 761.005, 1078.250 761.090 C 1077.287 761.140, 1075.150 761.543, 1073.500 761.987 M 836.750 870.723 C 838.538 870.945, 841.462 870.945, 843.250 870.723 C 845.038 870.502, 843.575 870.320, 840 870.320 C 836.425 870.320, 834.962 870.502, 836.750 870.723 M 780.768 1067.725 C 782.565 1067.947, 785.265 1067.943, 786.768 1067.715 C 788.271 1067.486, 786.800 1067.304, 783.500 1067.310 C 780.200 1067.315, 778.971 1067.502, 780.768 1067.725" stroke="none" fill="#7da34f" fill-rule="evenodd"/><path d="M 107.548 547 C 110.874 578.122, 129.758 607.303, 154.710 619.878 C 159.627 622.356, 160.831 622.442, 163.398 620.500 C 165.192 619.142, 164.806 618.550, 156.398 609.755 C 139.462 592.039, 125.360 572.981, 112.551 550.500 L 106.853 540.500 107.548 547 M 1003.453 575.750 C 995.637 585.705, 972.111 609.533, 964.250 615.455 C 961.362 617.631, 959 619.738, 959 620.138 C 959 622.279, 963.406 621.824, 968.737 619.133 C 985.878 610.480, 1000.648 593.190, 1009.001 571.998 C 1010.084 569.249, 1010.825 567, 1010.647 567 C 1010.469 567, 1007.231 570.938, 1003.453 575.750 M 1074 706.580 C 1073.175 706.771, 1061.475 709.003, 1048 711.540 C 1025.489 715.779, 964.970 728.585, 955.868 731.035 C 952.077 732.056, 952 732.171, 951.976 736.789 C 951.915 748.816, 947.662 755, 939.449 755 C 931.685 755, 927 750.101, 927 741.982 C 927 738.533, 926.716 737.948, 925.250 738.378 C 924.288 738.660, 910.225 742.237, 894 746.327 C 877.775 750.417, 849.087 758.150, 830.250 763.512 L 796 773.261 796 780.251 C 796 784.095, 795.130 793.599, 794.067 801.370 C 793.003 809.142, 791.646 822.475, 791.051 831 C 790.456 839.525, 789.240 852.252, 788.350 859.282 C 787.460 866.313, 786.950 872.283, 787.216 872.550 C 787.483 872.816, 793.056 872.544, 799.601 871.945 C 813.218 870.698, 869.442 870.596, 878.634 871.801 L 884.769 872.606 888.056 867.053 C 917.143 817.917, 979.816 782.535, 1074.250 761.936 L 1080 760.682 1080 733.341 L 1080 706 1077.750 706.116 C 1076.513 706.180, 1074.825 706.388, 1074 706.580 M 880 1065.201 C 863.052 1068.591, 849.813 1069.323, 817.500 1068.656 C 800.450 1068.304, 780.650 1067.736, 773.500 1067.394 L 760.500 1066.771 767.017 1073.394 L 773.534 1080.016 834.127 1079.758 L 894.719 1079.500 891.609 1071.500 L 888.500 1063.500 880 1065.201" stroke="none" fill="#729549" fill-rule="evenodd"/><path d="M 0 927.933 L 0 1080 287.711 1080 L 575.421 1080 568.039 1073.250 C 561.017 1066.830, 560.359 1066.469, 554.578 1065.867 C 541.347 1064.489, 516.377 1064.938, 509.312 1066.681 C 503.828 1068.034, 498.893 1068.289, 484 1067.993 C 440.743 1067.132, 402.057 1067.669, 377 1069.478 C 343.144 1071.923, 297.719 1072.016, 279 1069.679 C 241.303 1064.973, 209.932 1054.239, 195.894 1041.241 C 184.962 1031.121, 182.979 1024.217, 179.019 982.500 C 175.955 950.222, 175.564 939.607, 176.967 926.886 C 178.996 908.486, 182.774 898.363, 190.823 889.758 C 199.702 880.266, 208.864 877.148, 239.197 873.295 C 251.189 871.771, 261 870.237, 261 869.884 C 261 869.531, 251.255 864.873, 239.344 859.533 C 170.538 828.685, 100.206 803.547, 23.910 782.532 C 12.684 779.440, 2.712 776.675, 1.750 776.388 C 0.089 775.892, 0 783.574, 0 927.933" stroke="none" fill="#b8d15c" fill-rule="evenodd"/><path d="M 163.458 621.028 L 160.605 622.899 163.361 623.947 C 166.593 625.176, 174 626.462, 174 625.795 C 174 625.542, 172.270 623.944, 170.156 622.245 L 166.311 619.156 163.458 621.028 M 953.500 623.242 L 949.500 626.219 953 625.482 C 957.271 624.583, 961 623.221, 961 622.560 C 961 622.291, 960.212 621.664, 959.250 621.168 C 957.952 620.498, 956.468 621.034, 953.500 623.242 M -0 730.824 C -0 772.855, 0.117 775.900, 1.750 776.388 C 2.712 776.675, 12.684 779.440, 23.910 782.532 C 99.530 803.361, 171.439 829.032, 235 857.891 L 260.500 869.469 271 868.984 C 286.739 868.258, 322.640 868.416, 329.750 869.243 L 336 869.969 336 865.425 C 336 861.340, 335.492 860.343, 330.973 855.565 C 328.208 852.642, 323.219 848.797, 319.886 847.020 C 314.392 844.092, 297.160 838, 294.370 838 C 291.569 838, 276.989 829.675, 273.346 825.995 C 267.018 819.603, 264.670 813.941, 264.185 803.902 C 263.522 790.172, 267.458 779.764, 278.187 766.871 C 281.451 762.949, 282.660 760.817, 281.797 760.505 C 260.742 752.894, 235.900 744.626, 207.250 735.694 L 196 732.186 196 739.445 C 196 748.487, 193.573 752.820, 187.408 754.786 C 181.873 756.552, 176.407 754.739, 173.287 750.102 C 171.255 747.083, 171 745.499, 171 735.891 L 171 725.077 166.750 723.975 C 164.412 723.369, 157.775 721.583, 152 720.006 C 119.873 711.234, 56.817 696.791, 21 690.001 C 11.925 688.281, 3.488 686.628, 2.250 686.328 L 0 685.783 -0 730.824 M 567.931 1072.988 L 575.362 1080 673.902 1080 L 772.442 1080 765.971 1073.434 L 759.500 1066.868 733.500 1067.354 C 719.200 1067.622, 693.550 1068.157, 676.500 1068.543 C 635.852 1069.463, 631.743 1069.434, 621.861 1068.161 C 617.263 1067.568, 601.575 1066.834, 587 1066.529 L 560.500 1065.976 567.931 1072.988" stroke="none" fill="#9cc549" fill-rule="evenodd"/><path d="M 171 685.032 C 171 732.937, 171.260 744.686, 172.379 747.364 C 176.878 758.132, 191.864 757.350, 194.965 746.186 C 195.600 743.900, 195.991 723.609, 195.994 692.782 L 196 643.063 190.250 638.848 C 187.088 636.529, 182.096 632.690, 179.158 630.316 C 176.220 627.942, 173.183 626, 172.408 626 C 171.213 626, 171 634.934, 171 685.032 M 944.088 630.020 C 940.562 632.300, 935.274 635.521, 932.338 637.178 L 927 640.191 927 693.145 C 927 750.456, 926.938 749.764, 932.414 753.352 C 933.813 754.269, 936.935 755, 939.449 755 C 945.048 755, 949.750 751.275, 950.809 746 C 951.195 744.075, 951.284 716.259, 951.006 684.188 L 950.500 625.875 944.088 630.020" stroke="none" fill="#97653e" fill-rule="evenodd"/><path d="M 171 685.032 C 171 732.937, 171.260 744.686, 172.379 747.364 C 176.878 758.132, 191.864 757.350, 194.965 746.186 C 195.600 743.900, 195.991 723.609, 195.994 692.782 L 196 643.063 190.250 638.848 C 187.088 636.529, 182.096 632.690, 179.158 630.316 C 176.220 627.942, 173.183 626, 172.408 626 C 171.213 626, 171 634.934, 171 685.032 M 944.088 630.020 C 940.562 632.300, 935.274 635.521, 932.338 637.178 L 927 640.191 927 693.145 C 927 750.456, 926.938 749.764, 932.414 753.352 C 933.813 754.269, 936.935 755, 939.449 755 C 945.048 755, 949.750 751.275, 950.809 746 C 951.195 744.075, 951.284 716.259, 951.006 684.188 L 950.500 625.875 944.088 630.020" stroke="none" fill="#97653e" fill-rule="evenodd"/><path d="M 775.304 654.599 C 777.008 660.660, 781.279 680.396, 783.463 692.303 C 784.856 699.895, 787.112 710.020, 788.478 714.803 C 793.372 731.949, 795.833 747.609, 796.106 763.349 L 796.260 772.198 799.255 771.599 C 800.902 771.270, 802.611 771, 803.052 771 C 804.170 771, 809.230 757.534, 812.822 745 C 819.235 722.624, 821.880 705.693, 822.693 681.823 L 823.296 664.146 819.898 663.654 C 801.579 661, 787.922 657.745, 776.139 653.223 C 775.182 652.856, 774.930 653.270, 775.304 654.599 M 351.824 672.509 C 350.387 673.946, 331.765 677.103, 319 678.073 C 311.025 678.680, 304.351 679.323, 304.170 679.502 C 303.572 680.091, 305.998 705.313, 307.536 714.500 C 308.365 719.450, 310.003 727.587, 311.178 732.582 L 313.313 741.665 318.906 740.348 C 321.983 739.624, 326.606 739.024, 329.179 739.016 L 333.858 739 334.997 733.250 C 337.227 721.990, 341.254 708.319, 345.969 696 C 351.870 680.581, 354.565 669.768, 351.824 672.509" stroke="none" fill="#fff158" fill-rule="evenodd"/><path d="M 496.310 124.500 C 496.315 127.800, 496.502 129.029, 496.725 127.232 C 496.947 125.435, 496.943 122.735, 496.715 121.232 C 496.486 119.729, 496.304 121.200, 496.310 124.500 M 437.750 228.323 L 427 231.440 427 236.875 C 427 241.985, 427.105 242.216, 428.750 240.734 C 429.712 239.867, 435.200 235.973, 440.945 232.079 C 446.689 228.186, 450.739 225.046, 449.945 225.102 C 449.150 225.159, 443.663 226.608, 437.750 228.323 M 1009.683 572.089 C 1000.512 597.231, 979.869 618.040, 957.707 624.483 L 952 626.142 952 678.688 L 952 731.233 954.250 730.619 C 957.222 729.807, 1014.456 717.340, 1019.151 716.482 C 1022.029 715.956, 1022.934 715.251, 1023.423 713.157 C 1023.764 711.696, 1024.313 697.675, 1024.643 682 C 1025.115 659.600, 1024.882 649.326, 1023.556 634 C 1021.895 614.801, 1017.659 586.699, 1014.210 572 L 1012.451 564.500 1009.683 572.089 M 110.075 586.250 C 104.122 618.290, 101.460 652.025, 102.331 684.377 C 102.656 696.410, 103.112 706.445, 103.345 706.679 C 103.703 707.036, 161.958 722.227, 168.750 723.734 L 171 724.233 171 675.346 L 171 626.459 163.628 624.171 C 153.757 621.107, 145.264 615.949, 136.179 607.500 C 128.293 600.167, 118.486 586.457, 115.462 578.539 C 114.508 576.043, 113.418 574, 113.040 574 C 112.661 574, 111.327 579.513, 110.075 586.250 M 923.312 642.193 C 921.143 643.241, 921.128 643.420, 921.699 662.375 C 922.335 683.546, 921.050 704.985, 917.893 725.853 C 916.782 733.197, 916.015 739.348, 916.188 739.521 C 916.361 739.695, 918.640 739.347, 921.251 738.750 L 926 737.663 926 689.332 C 926 662.749, 925.888 641.030, 925.750 641.068 C 925.612 641.105, 924.515 641.611, 923.312 642.193 M 196 687.386 L 196 731.690 203.167 733.845 C 207.109 735.030, 210.425 735.887, 210.536 735.750 C 210.648 735.612, 209.910 729.650, 208.897 722.500 C 206.244 703.773, 204.706 676.471, 205.486 661.949 L 206.159 649.398 201.080 646.240 L 196 643.083 196 687.386" stroke="none" fill="#a8ddf8" fill-rule="evenodd"/><path d="M 126.500 76.902 C 114.764 79.844, 103.160 85.630, 94.162 93.026 L 90.824 95.769 84.662 92.081 C 67.394 81.747, 50.743 77.447, 31.500 78.354 C 20.210 78.885, 9.360 81.056, 2.600 84.136 L 0 85.321 0 189.661 L 0 294 81.932 294 L 163.863 294 169.110 284.250 C 187.012 250.977, 210.235 218.663, 231.464 197.483 C 239.769 189.198, 255.310 175.755, 260.403 172.452 L 263.306 170.570 256.988 164.758 C 250.157 158.476, 236.844 151.170, 228.180 148.950 C 223.371 147.717, 222.982 147.385, 222.453 144.064 C 217.697 114.195, 200.664 91.583, 174.925 80.969 C 160.115 74.862, 141.032 73.259, 126.500 76.902 M 1014.660 174.048 C 989.810 178.218, 965.626 194.040, 952.092 214.979 C 946.192 224.108, 946.138 224.840, 950.859 231.792 C 972.852 264.178, 1003.523 326.193, 1023.045 377.750 L 1027.305 389 1053.653 389 L 1080 389 1080 288.549 L 1080 188.098 1073.620 184.530 C 1056.700 175.068, 1033.333 170.913, 1014.660 174.048" stroke="none" fill="#ffffff" fill-rule="evenodd"/><path d="M 0 42.107 C 0 81.818, 0.100 84.173, 1.750 83.490 C 22.719 74.812, 50.406 75.294, 72.129 84.715 C 78.070 87.292, 78.386 87.328, 79.420 85.559 C 82.480 80.319, 91.235 70.512, 96.886 65.994 C 110.166 55.376, 125.253 49.987, 142.500 49.700 C 148 49.609, 154.104 49.868, 156.064 50.277 L 159.628 51.021 161.436 45.260 C 165.831 31.258, 174.691 17.307, 185.909 6.725 L 193.037 -0 96.519 -0 L 0 0 0 42.107 M 418.869 6.250 C 421.566 9.688, 425.208 14.942, 426.964 17.927 C 430.702 24.280, 435.537 38.331, 436.480 45.579 L 437.141 50.658 442.240 51.965 C 445.045 52.684, 451.426 55.314, 456.420 57.809 C 468.651 63.921, 481.567 76.600, 487.740 88.557 C 501.924 116.028, 499.077 146.413, 480.077 170.322 C 466.526 187.375, 444.990 198, 423.976 198 C 417.792 198, 415.923 198.306, 416.347 199.250 C 420.856 209.297, 424.172 218.866, 425.149 224.649 L 426.356 231.797 430.928 230.388 C 433.443 229.613, 439.550 227.900, 444.500 226.581 C 450.686 224.933, 456.627 222.375, 463.500 218.402 C 484.532 206.244, 514.655 194.887, 536.136 191.019 C 594.021 180.595, 649.979 193.055, 702.302 228.021 L 715.500 236.840 716.150 224.170 C 716.873 210.068, 718.456 202.818, 723.342 191.233 C 736.969 158.923, 765.950 137.352, 801.734 132.887 C 833.686 128.899, 870.942 145.098, 905.147 177.851 C 917.849 190.014, 928.751 202.296, 939.096 216.098 L 945.540 224.695 949.420 217.890 C 963.774 192.715, 993.248 174.473, 1023 172.348 C 1039.177 171.193, 1059.645 175.734, 1073.750 183.609 L 1080 187.098 1080 93.549 L 1080 0 1049.036 -0 L 1018.071 -0 1020.108 4.750 C 1024.891 15.907, 1026.692 35.509, 1024.037 47.500 C 1019.762 66.801, 1007.181 84.872, 990.663 95.439 C 983.180 100.226, 978.198 102.302, 968.012 104.878 C 959.644 106.994, 959.175 107, 811.560 106.993 C 666.934 106.986, 663.306 106.940, 655.153 104.985 C 630.054 98.968, 609.501 80.098, 601.253 55.500 C 598.825 48.259, 598.568 46.077, 598.544 32.500 C 598.520 18.321, 598.685 17.021, 601.569 8.750 L 604.621 0 509.293 0 L 413.966 0 418.869 6.250 M 0.003 490.250 L 0.007 685.500 25.253 690.389 C 46.504 694.504, 90.670 703.990, 100.226 706.491 L 102.952 707.205 102.346 684.852 C 101.441 651.529, 104.308 615.871, 110.393 584.749 L 112.811 572.385 110.422 564.134 C 109.107 559.596, 107.532 551.747, 106.922 546.692 C 106.043 539.409, 104.800 535.184, 100.936 526.348 C 98.254 520.215, 94.212 509.808, 91.954 503.221 L 87.848 491.245 93.499 471.872 C 105.017 432.390, 118.028 395.888, 133.703 359.073 C 142.151 339.233, 155.563 310.508, 160.703 301.250 L 164.172 295 82.086 295 L 0 295 0.003 490.250 M 1030.044 397.750 C 1034.321 409.173, 1044.227 440.075, 1049.837 459.496 L 1054.747 476.492 1050.322 489.411 C 1042.582 512.007, 1032.523 532.459, 1018.197 554.724 L 1012.263 563.948 1014.124 571.724 C 1017.589 586.200, 1021.861 614.407, 1023.556 634 C 1024.882 649.326, 1025.115 659.600, 1024.643 682 C 1024.313 697.675, 1023.765 711.688, 1023.426 713.140 L 1022.809 715.780 1031.654 714.006 C 1036.519 713.031, 1049.388 710.551, 1060.250 708.495 L 1080 704.757 1080 547.379 L 1080 390 1053.571 390 L 1027.142 390 1030.044 397.750" stroke="none" fill="#8bd2f6" fill-rule="evenodd"/><path d="M 186.854 6.259 C 183.199 9.691, 178.627 14.525, 176.694 17 C 171.892 23.148, 165.211 35.767, 162.490 43.828 L 160.238 50.500 148.369 50.163 C 125.688 49.519, 107.902 55.936, 92.132 70.452 C 88.234 74.040, 79 85.890, 79 87.305 C 79 87.607, 81.733 89.515, 85.073 91.545 L 91.147 95.234 93.823 92.724 C 98.025 88.784, 107.579 83.060, 115.193 79.920 C 153.256 64.224, 196.824 81.057, 215.406 118.639 C 219.053 126.015, 222.955 139.119, 222.985 144.091 C 222.999 146.449, 223.746 146.928, 231.250 149.390 C 241.270 152.677, 250.938 158.263, 258.377 165.061 L 263.935 170.141 268.217 167.201 C 274.631 162.798, 289.406 155.617, 299 152.241 C 323.594 143.586, 349.837 145.086, 373.576 156.505 C 387.050 162.985, 402.182 176.569, 411.157 190.239 L 416.252 198 422.168 198 C 429.502 198, 441.321 195.615, 449.799 192.424 C 458.761 189.051, 468.613 182.225, 476.119 174.190 C 484.014 165.739, 488.320 158.589, 492.337 147.261 C 495.240 139.077, 495.446 137.578, 495.472 124.500 C 495.496 112.570, 495.154 109.391, 493.158 103 C 485.436 78.269, 469.446 61.999, 444.061 53.046 L 436.623 50.422 435.304 42.612 C 433.022 29.103, 425.894 14.530, 416.461 4.089 L 412.767 -0 303.134 0.009 L 193.500 0.017 186.854 6.259 M 603.163 5.750 C 599.285 16.463, 598.602 20.476, 598.609 32.500 C 598.617 46.183, 600.176 53.379, 605.588 64.704 C 614.708 83.787, 631.841 97.984, 653.500 104.405 C 660.424 106.457, 662.091 106.483, 807.500 106.782 C 910.123 106.993, 956.414 106.756, 960.841 105.997 C 990.859 100.850, 1013.342 81.536, 1021.952 53.500 C 1026.328 39.252, 1025.569 20.501, 1020.020 5.750 L 1017.856 0 811.550 0 L 605.244 0 603.163 5.750 M 31.750 77.723 C 33.538 77.945, 36.462 77.945, 38.250 77.723 C 40.038 77.502, 38.575 77.320, 35 77.320 C 31.425 77.320, 29.962 77.502, 31.750 77.723 M 913 647.114 C 902.205 652.132, 884.835 657.736, 871.295 660.569 C 861.288 662.662, 854.687 663.354, 841 663.743 L 823.500 664.241 823.274 677.870 C 822.997 694.545, 821.714 706.502, 818.381 723.467 C 815.824 736.481, 810.829 754.285, 807.034 763.914 C 804.562 770.185, 804.552 770.386, 806.750 769.540 C 811.102 767.866, 867.930 752.178, 890.355 746.461 C 904.025 742.976, 915.351 739.982, 915.524 739.809 C 916.272 739.062, 920.077 710.403, 920.996 698.605 C 922.586 678.182, 922.025 643.900, 920.103 644.046 C 919.771 644.071, 916.575 645.452, 913 647.114 M 205.492 661.291 C 204.308 680.230, 208.624 733.246, 211.562 735.858 C 212.078 736.317, 223.091 740.120, 236.035 744.311 C 248.979 748.502, 264.966 753.879, 271.562 756.262 L 283.555 760.593 290 755.272 C 293.544 752.345, 300.171 748.049, 304.726 745.725 C 309.679 743.199, 312.823 741.011, 312.548 740.283 C 309.700 732.745, 304 695.439, 304 684.336 L 304 679.159 297.250 678.541 C 266.755 675.750, 244.688 669.532, 219.525 656.637 C 212.938 653.262, 207.246 650.365, 206.876 650.201 C 206.506 650.036, 205.883 655.026, 205.492 661.291" stroke="none" fill="#bce5fa" fill-rule="evenodd"/><path d="" stroke="none" fill="#91ac4c" fill-rule="evenodd"/><path d="M 926.463 689 C 926.463 715.675, 926.592 726.587, 926.749 713.250 C 926.907 699.913, 926.907 678.087, 926.749 664.750 C 926.592 651.413, 926.463 662.325, 926.463 689" stroke="none" fill="#aad0d9" fill-rule="evenodd"/></svg>