<svg xmlns="http://www.w3.org/2000/svg" width="1080" height="1080" viewBox="0 0 1080 1080" version="1.1"><path d="M 161.722 353.084 C 116.589 357.881, 74.993 390.625, 59.028 433.924 C 53.493 448.937, 51.498 460.774, 51.517 478.500 C 51.535 495.188, 52.944 504.908, 57.168 517.500 C 65.059 541.023, 82.088 564.413, 102.500 579.765 C 110.248 585.592, 128.060 594.787, 137.787 597.982 C 155.002 603.635, 147.120 603.322, 281.500 603.677 C 349.700 603.858, 522.275 603.634, 665 603.180 L 924.500 602.356 934 599.770 C 967.047 590.773, 994.187 570.690, 1010.718 543 C 1029.322 511.838, 1033.931 472.178, 1022.862 438.500 C 1019.260 427.544, 1011.113 412.235, 1003.514 402.148 C 985.890 378.752, 962.938 363.517, 932 354.677 L 924.500 352.534 547 352.396 C 339.375 352.319, 166 352.629, 161.722 353.084 M 241.698 382.590 C 206.063 389.030, 177.320 414.974, 166.328 450.620 C 163.754 458.968, 163.589 460.639, 163.578 478.500 C 163.567 496.715, 163.683 497.851, 166.401 506 C 178.684 542.836, 208.962 568.855, 245.451 573.930 C 255.200 575.286, 817.311 575.405, 830.149 574.054 C 842.172 572.789, 851.108 570.425, 860.727 565.965 C 887.139 553.721, 905.800 531.896, 914.140 503.500 C 916.210 496.450, 916.490 493.421, 916.495 478 C 916.501 457.380, 915.367 451.843, 907.991 436.500 C 894.408 408.243, 868.830 388.214, 839.140 382.585 C 831.622 381.160, 801.474 381.009, 540.140 381.090 C 294.672 381.166, 248.287 381.399, 241.698 382.590 M 573.344 434.978 C 555.689 438.740, 547.051 452.791, 547.015 477.803 C 546.981 501.423, 554.777 515.593, 570.343 520.204 C 576.688 522.084, 590.530 521.747, 596.968 519.555 C 604.349 517.043, 611.925 509.490, 614.818 501.757 C 619.825 488.376, 619.825 467.624, 614.818 454.243 C 612.036 446.807, 604.384 439.018, 597.492 436.606 C 591.627 434.554, 579.250 433.719, 573.344 434.978 M 471.270 435.643 C 470.043 435.913, 468.131 437.289, 467.020 438.702 C 465.076 441.173, 465 442.663, 465 478.079 L 465 514.888 467.316 517.581 C 469.172 519.739, 470.497 520.273, 474 520.273 C 477.503 520.273, 478.828 519.739, 480.684 517.581 C 483.395 514.429, 483.369 515.118, 481.901 485.810 C 481.297 473.740, 481.056 463.611, 481.366 463.301 C 481.675 462.991, 487.945 475.086, 495.299 490.179 C 506.995 514.184, 509.034 517.759, 511.584 518.729 C 516.709 520.677, 519.532 520.968, 523.281 519.933 C 530.106 518.048, 530 518.711, 530 477.912 C 530 442.973, 529.908 441.153, 528.031 438.766 C 524.509 434.289, 515.381 434.551, 512.893 439.201 C 512.168 440.554, 512.059 447.883, 512.550 462.096 C 512.948 473.593, 512.981 483, 512.624 483 C 512.267 483, 510.911 480.637, 509.611 477.750 C 500.977 458.578, 490.692 438.844, 488.628 437.492 C 486.228 435.919, 475.300 434.755, 471.270 435.643 M 577.055 451.267 C 572.778 453.431, 570.824 458.249, 570.045 468.548 C 569.652 473.746, 569.652 482.254, 570.045 487.452 C 571.119 501.647, 574.822 506.544, 583.812 505.657 C 588.898 505.155, 592.390 502.281, 594.205 497.103 C 596.255 491.252, 595.934 463.624, 593.750 457.965 C 591.025 450.909, 583.628 447.940, 577.055 451.267" stroke="none" fill="#ffffff" fill-rule="evenodd"/><path d="M 247 382.666 C 225.792 386.006, 208.688 394.058, 194.095 407.569 C 180.784 419.895, 171.015 436.454, 166.409 454.500 C 164.060 463.706, 163.890 465.811, 164.271 481 C 164.653 496.209, 164.931 498.243, 167.824 507 C 171.485 518.076, 177.911 529.831, 185.318 539 C 196.517 552.863, 216.912 565.964, 235.500 571.232 L 243.500 573.500 534 573.786 C 740.536 573.989, 826.936 573.755, 832.928 572.975 C 873.408 567.707, 906.459 536.978, 914.540 497.099 C 916.881 485.546, 916.145 461.560, 913.144 451.620 C 904.586 423.272, 882.947 399.406, 855.739 388.306 C 852.308 386.905, 845.450 384.920, 840.500 383.893 C 831.826 382.094, 820.964 382.031, 540.500 382.149 C 380.450 382.217, 248.375 382.450, 247 382.666 M 573.407 434.031 C 561.220 436.447, 553.041 443.842, 548.557 456.500 C 545.956 463.842, 545.290 485.342, 547.386 494.259 C 550.687 508.297, 558.141 517.465, 568.913 520.735 C 576.871 523.150, 590.923 522.938, 597.632 520.300 C 610.833 515.109, 616.889 505.638, 619.016 486.856 C 620.839 470.768, 617.695 454.401, 611.010 445.172 C 604.262 435.858, 588.198 431.098, 573.407 434.031 M 471.024 434.964 C 463.839 436.775, 464 435.787, 464 478.156 L 464 516.091 466.455 518.545 C 468.382 520.473, 469.945 521, 473.732 521 C 479.486 521, 482.603 519.085, 483.501 514.998 C 483.863 513.348, 483.636 501.836, 482.996 489.416 C 482.356 476.996, 482.004 466.663, 482.214 466.452 C 482.425 466.242, 487.973 477.329, 494.543 491.090 C 501.114 504.852, 507.533 517.091, 508.808 518.289 C 510.647 520.017, 512.628 520.543, 518.390 520.834 C 525.508 521.194, 525.706 521.138, 528.327 518.024 L 531 514.847 531 478.374 C 531 447.892, 530.753 441.424, 529.498 438.997 C 526.728 433.640, 516.754 432.962, 512.885 437.866 C 510.892 440.393, 510.832 441.290, 511.410 460 L 512.013 479.500 501.757 459.007 C 495.282 446.071, 490.578 437.868, 489 436.761 C 486.060 434.698, 476.050 433.697, 471.024 434.964 M 576.942 452.415 C 575.535 453.211, 573.809 455.125, 573.106 456.667 C 570.129 463.201, 569.554 486.036, 572.111 496.177 C 573.294 500.870, 578.090 505.005, 582.327 504.985 C 587.002 504.964, 590.060 502.997, 592.410 498.500 C 594.276 494.928, 594.500 492.788, 594.500 478.500 C 594.500 461.737, 593.605 456.763, 590.003 453.503 C 587.431 451.175, 580.197 450.573, 576.942 452.415" stroke="none" fill="#81fec2" fill-rule="evenodd"/><path d="M 399.250 381.750 C 477.762 381.891, 606.237 381.891, 684.750 381.750 C 763.262 381.609, 699.025 381.493, 542 381.493 C 384.975 381.493, 320.737 381.609, 399.250 381.750 M 579.768 433.725 C 581.565 433.947, 584.265 433.943, 585.768 433.715 C 587.271 433.486, 585.800 433.304, 582.500 433.310 C 579.200 433.315, 577.971 433.502, 579.768 433.725 M 511.838 475.574 C 511.637 478.090, 511.810 480.678, 512.222 481.324 C 512.633 481.971, 512.976 479.913, 512.985 476.750 C 513.003 469.864, 512.345 469.190, 511.838 475.574 M 482.310 484.500 C 482.315 487.800, 482.502 489.029, 482.725 487.232 C 482.947 485.435, 482.943 482.735, 482.715 481.232 C 482.486 479.729, 482.304 481.200, 482.310 484.500" stroke="none" fill="#84fcc4" fill-rule="evenodd"/><path d="M 511.310 446.500 C 511.315 449.800, 511.502 451.029, 511.725 449.232 C 511.947 447.435, 511.943 444.735, 511.715 443.232 C 511.486 441.729, 511.304 443.200, 511.310 446.500 M 464.452 478 C 464.452 498.075, 464.585 506.288, 464.749 496.250 C 464.912 486.213, 464.912 469.788, 464.749 459.750 C 464.585 449.713, 464.452 457.925, 464.452 478 M 530.450 478 C 530.450 496.975, 530.584 504.738, 530.748 495.250 C 530.913 485.762, 530.913 470.238, 530.748 460.750 C 530.584 451.262, 530.450 459.025, 530.450 478 M 512.310 465.500 C 512.315 468.800, 512.502 470.029, 512.725 468.232 C 512.947 466.435, 512.943 463.735, 512.715 462.232 C 512.486 460.729, 512.304 462.200, 512.310 465.500 M 481 470 C 481 474.033, 481.189 477.145, 481.419 476.914 C 482.150 476.183, 482.378 464.044, 481.674 463.341 C 481.303 462.970, 481 465.967, 481 470 M 916.400 477.500 C 916.401 485.750, 916.556 488.992, 916.744 484.704 C 916.932 480.417, 916.931 473.667, 916.742 469.704 C 916.552 465.742, 916.399 469.250, 916.400 477.500 M 163.400 478.500 C 163.401 486.750, 163.556 489.992, 163.744 485.704 C 163.932 481.417, 163.931 474.667, 163.742 470.704 C 163.552 466.742, 163.399 470.250, 163.400 478.500 M 595.370 478 C 595.370 483.775, 595.535 486.137, 595.737 483.250 C 595.939 480.363, 595.939 475.637, 595.737 472.750 C 595.535 469.863, 595.370 472.225, 595.370 478 M 546.349 478 C 546.349 482.675, 546.522 484.587, 546.732 482.250 C 546.943 479.913, 546.943 476.087, 546.732 473.750 C 546.522 471.413, 546.349 473.325, 546.349 478 M 887.971 546.750 L 881.500 553.500 888.250 547.029 C 891.962 543.470, 895 540.432, 895 540.279 C 895 539.543, 893.982 540.480, 887.971 546.750 M 393.169 574.750 C 472.187 574.891, 601.787 574.891, 681.169 574.750 C 760.551 574.609, 695.900 574.493, 537.500 574.493 C 379.100 574.493, 314.151 574.609, 393.169 574.750" stroke="none" fill="#fbfcfb" fill-rule="evenodd"/></svg>