<svg xmlns="http://www.w3.org/2000/svg" width="1080" height="1080" viewBox="0 0 1080 1080" version="1.1"><path d="M 173.348 355.420 C 159.121 358.871, 145.833 369.859, 139.274 383.597 L 135.500 391.500 135.500 540 L 135.500 688.500 139.274 696.403 C 145.988 710.467, 160.195 721.862, 174.799 724.898 C 182.329 726.464, 897.671 726.464, 905.201 724.898 C 919.805 721.862, 934.012 710.467, 940.726 696.403 L 944.500 688.500 944.500 540 L 944.500 391.500 940.726 383.597 C 933.941 369.385, 919.978 358.187, 905.201 355.105 C 897.056 353.407, 180.377 353.715, 173.348 355.420 M 228.447 409.403 C 213.618 414.048, 201.533 425.080, 194.933 440 L 192.500 445.500 192.229 536.290 L 191.959 627.080 194.328 633.892 C 199.104 647.627, 207.440 656.956, 221 663.745 L 228.500 667.500 536 667.500 L 843.500 667.500 851.024 663.907 C 865.468 657.008, 875.848 644.230, 879.463 628.897 C 881.629 619.708, 881.717 458.047, 879.562 447.878 C 875.803 430.146, 862.347 415.327, 845.145 409.977 C 838.871 408.025, 834.884 408.001, 535.645 408.067 C 293.602 408.120, 231.683 408.390, 228.447 409.403 M 631.014 497.959 C 621.014 501.411, 616.018 509.094, 616.006 521.038 C 615.995 531.971, 622.653 539.748, 635.698 544.040 C 644.851 547.051, 651.706 550.582, 652.964 552.933 C 655.686 558.019, 653.388 563.123, 647.743 564.532 C 642.663 565.800, 638.368 564.203, 633.667 559.298 C 629.642 555.098, 628.799 554.667, 624.606 554.667 C 618.109 554.667, 614.607 557.931, 615.322 563.322 C 616.126 569.383, 620.116 574.420, 626.643 577.614 C 637.471 582.911, 657.587 581.826, 667.289 575.421 C 677.936 568.393, 679.856 550.856, 670.953 541.953 C 667.711 538.711, 665.176 537.485, 655.293 534.379 C 640.792 529.821, 637 526.794, 637 519.774 C 637 513.703, 639.884 511, 646.360 511 C 650.050 511, 651.631 511.540, 653.545 513.455 C 654.895 514.805, 656 516.649, 656 517.553 C 656 523.565, 662.263 528.896, 667.731 527.539 C 675.278 525.666, 677.237 517.850, 672.517 508.446 C 668.190 499.826, 659.687 495.977, 645.091 496.033 C 639.333 496.055, 634.691 496.690, 631.014 497.959 M 403.306 499.412 L 400.500 501.825 400.213 536.891 C 399.898 575.377, 400.104 576.929, 405.798 579.131 C 409.952 580.737, 417.796 579.648, 420.333 577.113 C 422.208 575.240, 422.546 573.605, 422.844 564.974 L 423.187 555 428.884 555 C 439.902 555, 450.725 550.982, 457.190 544.491 C 469.962 531.669, 468.324 508.261, 454.153 501.094 C 447.978 497.971, 440.593 497, 423.007 497 C 406.591 497, 406.032 497.068, 403.306 499.412 M 484.315 498.007 C 483.114 498.491, 481.651 499.783, 481.065 500.878 C 479.914 503.029, 479.500 572.533, 480.621 575.455 C 482.095 579.295, 486.108 580, 506.500 580 C 521.746 580, 526.728 579.675, 528.928 578.537 C 533.730 576.054, 534.487 570.396, 530.545 566.455 C 528.190 564.099, 527.563 564, 515.045 564 L 502 564 502 555.500 L 502 547 512.045 547 C 521.378 547, 522.265 546.826, 524.545 544.545 C 527.525 541.566, 527.750 537.148, 525.090 533.861 C 523.338 531.696, 522.303 531.472, 512.590 531.159 L 502 530.818 502 521.909 L 502 513 513.550 513 C 521.738 513, 525.924 512.574, 527.932 511.535 C 533.030 508.899, 533.030 501.101, 527.932 498.465 C 525.717 497.319, 520.891 497.014, 505.800 497.063 C 495.185 497.098, 485.517 497.523, 484.315 498.007 M 544.866 498.511 C 539.891 501.214, 540.354 509.473, 545.615 511.870 C 546.978 512.492, 551.223 513, 555.047 513 L 562 513 562 543.577 L 562 574.154 564.923 577.077 C 567.314 579.468, 568.691 580, 572.489 580 C 577.372 580, 580.687 578.732, 582.718 576.087 C 583.613 574.921, 583.945 566.345, 583.968 543.750 L 584 513 591.944 513 C 598.775 513, 600.239 512.685, 602.389 510.750 C 606.527 507.027, 606.036 500.249, 601.477 498.171 C 597.448 496.336, 548.327 496.631, 544.866 498.511 M 423 525.541 L 423 538.278 429.153 537.720 C 436.738 537.032, 440.032 534.772, 441.904 528.972 C 443.109 525.237, 443.109 524.049, 441.904 520.571 C 440.239 515.768, 437.912 514.468, 429.250 513.501 L 423 512.804 423 525.541" stroke="none" fill="#ffffff" fill-rule="evenodd"/><path d="M 228.447 409.403 C 213.618 414.048, 201.533 425.080, 194.933 440 L 192.500 445.500 192.229 536.290 L 191.959 627.080 194.328 633.892 C 199.104 647.627, 207.440 656.956, 221 663.745 L 228.500 667.500 536 667.500 L 843.500 667.500 851.024 663.907 C 865.468 657.008, 875.848 644.230, 879.463 628.897 C 881.629 619.708, 881.717 458.047, 879.562 447.878 C 875.803 430.146, 862.347 415.327, 845.145 409.977 C 838.871 408.025, 834.884 408.001, 535.645 408.067 C 293.602 408.120, 231.683 408.390, 228.447 409.403 M 631.014 497.959 C 621.014 501.411, 616.018 509.094, 616.006 521.038 C 615.995 531.971, 622.653 539.748, 635.698 544.040 C 644.851 547.051, 651.706 550.582, 652.964 552.933 C 655.686 558.019, 653.388 563.123, 647.743 564.532 C 642.663 565.800, 638.368 564.203, 633.667 559.298 C 629.642 555.098, 628.799 554.667, 624.606 554.667 C 618.109 554.667, 614.607 557.931, 615.322 563.322 C 616.126 569.383, 620.116 574.420, 626.643 577.614 C 637.471 582.911, 657.587 581.826, 667.289 575.421 C 677.936 568.393, 679.856 550.856, 670.953 541.953 C 667.711 538.711, 665.176 537.485, 655.293 534.379 C 640.792 529.821, 637 526.794, 637 519.774 C 637 513.703, 639.884 511, 646.360 511 C 650.050 511, 651.631 511.540, 653.545 513.455 C 654.895 514.805, 656 516.649, 656 517.553 C 656 523.565, 662.263 528.896, 667.731 527.539 C 675.278 525.666, 677.237 517.850, 672.517 508.446 C 668.190 499.826, 659.687 495.977, 645.091 496.033 C 639.333 496.055, 634.691 496.690, 631.014 497.959 M 403.306 499.412 L 400.500 501.825 400.213 536.891 C 399.898 575.377, 400.104 576.929, 405.798 579.131 C 409.952 580.737, 417.796 579.648, 420.333 577.113 C 422.208 575.240, 422.546 573.605, 422.844 564.974 L 423.187 555 428.884 555 C 439.902 555, 450.725 550.982, 457.190 544.491 C 469.962 531.669, 468.324 508.261, 454.153 501.094 C 447.978 497.971, 440.593 497, 423.007 497 C 406.591 497, 406.032 497.068, 403.306 499.412 M 484.315 498.007 C 483.114 498.491, 481.651 499.783, 481.065 500.878 C 479.914 503.029, 479.500 572.533, 480.621 575.455 C 482.095 579.295, 486.108 580, 506.500 580 C 521.746 580, 526.728 579.675, 528.928 578.537 C 533.730 576.054, 534.487 570.396, 530.545 566.455 C 528.190 564.099, 527.563 564, 515.045 564 L 502 564 502 555.500 L 502 547 512.045 547 C 521.378 547, 522.265 546.826, 524.545 544.545 C 527.525 541.566, 527.750 537.148, 525.090 533.861 C 523.338 531.696, 522.303 531.472, 512.590 531.159 L 502 530.818 502 521.909 L 502 513 513.550 513 C 521.738 513, 525.924 512.574, 527.932 511.535 C 533.030 508.899, 533.030 501.101, 527.932 498.465 C 525.717 497.319, 520.891 497.014, 505.800 497.063 C 495.185 497.098, 485.517 497.523, 484.315 498.007 M 544.866 498.511 C 539.891 501.214, 540.354 509.473, 545.615 511.870 C 546.978 512.492, 551.223 513, 555.047 513 L 562 513 562 543.577 L 562 574.154 564.923 577.077 C 567.314 579.468, 568.691 580, 572.489 580 C 577.372 580, 580.687 578.732, 582.718 576.087 C 583.613 574.921, 583.945 566.345, 583.968 543.750 L 584 513 591.944 513 C 598.775 513, 600.239 512.685, 602.389 510.750 C 606.527 507.027, 606.036 500.249, 601.477 498.171 C 597.448 496.336, 548.327 496.631, 544.866 498.511 M 423 525.541 L 423 538.278 429.153 537.720 C 436.738 537.032, 440.032 534.772, 441.904 528.972 C 443.109 525.237, 443.109 524.049, 441.904 520.571 C 440.239 515.768, 437.912 514.468, 429.250 513.501 L 423 512.804 423 525.541" stroke="none" fill="#fcc4c4" fill-rule="evenodd"/></svg>