<svg xmlns="http://www.w3.org/2000/svg" width="1080" height="1080" viewBox="0 0 1080 1080" version="1.1"><path d="M 534.193 63.072 C 499.785 67.540, 470.355 93.271, 459.304 128.549 L 456.500 137.500 456.229 296.726 L 455.958 455.953 297.229 456.232 L 138.500 456.512 131 458.667 C 98.270 468.074, 75.102 490.670, 65.335 522.712 C 62.952 530.527, 62.651 533.160, 62.612 546.500 C 62.576 559.044, 62.941 562.881, 64.839 569.933 C 73.695 602.835, 97.968 627.131, 131 636.157 L 139.500 638.480 297.729 638.764 L 455.958 639.048 456.251 797.274 L 456.544 955.500 458.773 963.818 C 464.363 984.678, 475.547 1001.458, 492.307 1014.133 C 508.985 1026.746, 526.076 1032.385, 547.500 1032.343 C 562.687 1032.313, 575.135 1029.521, 587.322 1023.410 C 615.368 1009.348, 633.463 984.009, 637.961 952.500 C 638.591 948.086, 638.968 888.900, 638.980 792.274 L 639 639.048 797.250 638.755 L 955.500 638.462 964.500 635.802 C 976.574 632.234, 981.985 629.760, 991.618 623.404 C 1006.410 613.645, 1019.776 597.260, 1026.327 580.853 C 1030.838 569.556, 1032.271 561.599, 1032.245 548 C 1032.216 532.946, 1029.850 521.743, 1024.115 509.504 C 1012.030 483.717, 991.670 466.696, 963 458.415 C 956.783 456.620, 949.586 456.525, 797.782 456.245 L 639.065 455.953 638.740 298.226 C 638.439 152.043, 638.288 140.024, 636.673 134 C 631.480 114.628, 624.504 102.163, 611.381 88.807 C 591.443 68.515, 563.648 59.248, 534.193 63.072" stroke="none" fill="#ffffff" fill-rule="evenodd"/><path d="" stroke="none" fill="#fffcfc" fill-rule="evenodd"/><path d="" stroke="none" fill="#fcfcfc" fill-rule="evenodd"/></svg>