<?xml version="1.0" encoding="UTF-8" standalone="no"?>
<svg
   version="1.0"
   width="348.000000pt"
   height="367.000000pt"
   viewBox="0 0 348.000000 367.000000"
   preserveAspectRatio="xMidYMid meet"
   id="svg39"
   sodipodi:docname="pokemon.svg"
   inkscape:version="1.2.2 (732a01da63, 2022-12-09)"
   xmlns:inkscape="http://www.inkscape.org/namespaces/inkscape"
   xmlns:sodipodi="http://sodipodi.sourceforge.net/DTD/sodipodi-0.dtd"
   xmlns="http://www.w3.org/2000/svg"
   xmlns:svg="http://www.w3.org/2000/svg">
  <defs
     id="defs43" />
  <sodipodi:namedview
     id="namedview41"
     pagecolor="#ffffff"
     bordercolor="#000000"
     borderopacity="0.25"
     inkscape:showpageshadow="2"
     inkscape:pageopacity="0.0"
     inkscape:pagecheckerboard="0"
     inkscape:deskcolor="#d1d1d1"
     inkscape:document-units="pt"
     showgrid="false"
     inkscape:zoom="1.5408719"
     inkscape:cx="220.65429"
     inkscape:cy="346.88152"
     inkscape:window-width="1920"
     inkscape:window-height="986"
     inkscape:window-x="-11"
     inkscape:window-y="-11"
     inkscape:window-maximized="1"
     inkscape:current-layer="svg39" />
  <g
     transform="matrix(0.1,0,0,-0.1,0.4867374,368.46021)"
     fill="#000000"
     stroke="none"
     id="g37">
    <path
       d="m 2163,3627 c -137,-183 -262,-563 -282,-855 l -6,-93 -55,42 c -173,130 -424,198 -626,170 l -86,-12 -81,78 c -192,184 -509,357 -811,444 -106,30 -216,47 -216,33 0,-19 132,-183 208,-260 194,-195 482,-385 647,-426 63,-15 62,-14 38,-41 -26,-27 -94,-164 -128,-254 -14,-38 -49,-103 -77,-146 -28,-43 -54,-96 -59,-120 -15,-79 12,-200 75,-340 14,-32 26,-59 26,-60 0,-1 -40,-2 -88,-3 -74,-1 -99,-6 -148,-28 -69,-32 -97,-56 -131,-114 -71,-120 5,-298 153,-359 24,-10 44,-21 44,-25 0,-4 -49,-148 -109,-321 C 324,571 317,541 330,468 c 11,-55 27,-86 68,-130 l 25,-27 -24,-9 c -54,-21 -159,-74 -182,-92 -30,-23 -31,-57 -4,-72 35,-18 112,-13 347,24 133,21 166,35 181,75 2,6 61,15 136,21 104,8 145,8 200,-3 162,-32 342,-64 396,-71 45,-5 57,-10 57,-24 0,-28 19,-37 130,-59 58,-12 162,-37 233,-57 97,-27 134,-33 155,-26 36,12 41,46 10,79 -29,31 -170,119 -215,134 -37,12 -41,20 -16,40 49,41 65,150 39,264 -8,33 -13,61 -12,62 1,1 41,-10 89,-24 48,-14 89,-24 91,-22 2,2 8,59 13,126 6,68 13,126 16,130 4,4 31,-1 61,-10 29,-9 59,-17 67,-17 8,0 58,77 112,170 l 98,169 42,-13 c 23,-7 162,-48 309,-91 l 267,-78 230,230 c 127,127 231,233 231,236 0,11 -155,79 -265,115 -238,80 -462,126 -688,142 -165,12 -212,19 -202,28 4,4 21,7 38,7 24,0 31,4 29,16 -1,9 4,22 12,28 8,7 13,18 10,25 -3,8 2,16 11,20 12,4 15,13 11,31 -5,18 -2,25 9,25 24,0 17,16 -22,51 -25,22 -38,41 -38,58 v 26 l -85,-2 c -108,-3 -179,-18 -259,-54 -35,-16 -66,-29 -69,-29 -9,0 11,139 39,269 16,74 29,161 29,194 0,48 6,70 34,120 88,160 154,437 177,745 15,207 -9,437 -47,449 -5,1 -23,-17 -41,-40 z m -52,-331 c 30,-30 67,-79 84,-109 l 29,-55 -13,-104 c -31,-259 -134,-579 -182,-570 -13,2 -14,-7 -6,-61 8,-56 4,-83 -27,-230 -20,-92 -36,-178 -36,-192 0,-22 -3,-25 -24,-19 -53,13 -148,-53 -188,-131 -42,-80 -41,-162 2,-185 11,-6 20,-14 20,-19 0,-9 -80,-54 -158,-87 -54,-24 -55,-25 -17,-19 60,10 191,82 254,141 59,54 104,125 116,181 5,27 16,37 60,58 75,35 155,54 258,62 l 88,6 -7,-51 c -4,-36 -3,-52 5,-52 6,0 11,9 11,21 0,20 0,20 32,-3 27,-19 30,-23 15,-26 -14,-3 -17,-10 -13,-28 5,-17 2,-26 -9,-30 -10,-4 -13,-13 -10,-25 5,-14 1,-19 -10,-19 -13,0 -16,-6 -12,-21 5,-19 2,-21 -24,-15 -27,5 -32,1 -63,-47 -103,-160 -332,-382 -496,-482 -41,-25 -59,-41 -49,-43 15,-3 17,-27 22,-185 4,-180 5,-184 46,-312 60,-187 64,-209 50,-273 -9,-43 -20,-63 -55,-98 -24,-24 -42,-44 -41,-45 1,0 16,-2 32,-3 17,-2 51,-14 75,-26 57,-29 170,-100 170,-107 0,-3 -12,3 -27,12 -60,40 -93,57 -104,53 -6,-2 18,-21 55,-43 67,-39 109,-75 88,-75 -7,0 -12,4 -12,8 0,9 -142,92 -159,92 -27,0 -4,-18 70,-53 74,-37 98,-57 64,-57 -8,0 -63,13 -122,29 -59,17 -161,42 -225,56 -69,16 -118,32 -118,39 0,7 33,16 86,23 48,7 89,15 92,18 14,13 -11,15 -75,3 -66,-11 -84,-9 -309,29 -222,39 -234,42 -161,42 50,1 77,5 77,12 0,14 -265,6 -482,-14 -136,-12 -193,-27 -105,-27 78,0 54,-31 -40,-50 -65,-13 -365,-52 -369,-47 -4,3 37,22 116,55 l 25,11 h -26 c -14,1 -53,-12 -85,-29 -64,-32 -79,-36 -68,-19 4,6 35,24 70,40 35,16 64,34 64,39 0,6 -32,-6 -71,-25 -39,-20 -68,-32 -64,-26 9,16 85,58 153,86 l 61,25 43,-20 c 45,-20 78,-26 78,-12 0,4 -19,13 -42,19 -98,27 -167,113 -176,218 -4,55 -4,55 148,485 34,96 69,196 77,222 l 15,48 h 92 c 103,0 172,15 285,62 42,18 78,32 81,31 3,0 15,-4 28,-8 19,-5 22,-3 22,19 0,21 5,26 26,26 24,0 26,3 21,30 -6,26 -3,30 14,30 15,0 19,5 15,15 -3,8 -9,22 -12,30 -4,9 0,15 9,15 29,0 31,23 3,47 -19,16 -25,29 -21,42 4,14 -1,21 -23,29 -16,5 -49,25 -73,44 -58,43 -153,86 -226,100 -32,6 -64,16 -71,22 -6,7 -28,49 -47,94 -30,71 -32,82 -17,82 36,0 83,40 107,93 33,69 34,171 4,233 -11,24 -28,46 -38,49 -16,5 -13,18 34,133 51,127 82,184 137,255 30,37 30,37 5,26 -49,-22 -219,49 -397,166 -106,70 -107,72 -130,186 -13,67 -18,195 -8,205 11,11 279,-125 388,-196 153,-101 310,-238 283,-247 -23,-8 -14,-25 10,-19 89,22 217,27 329,12 192,-25 353,-103 478,-230 30,-31 61,-56 69,-56 9,0 0,16 -24,40 -38,39 -38,39 -37,117 2,137 28,275 93,486 25,80 45,127 53,127 7,0 38,-24 67,-54 z M 833,1751 c 84,-22 140,-48 207,-96 25,-18 55,-35 66,-39 15,-4 20,-13 17,-24 -2,-10 5,-26 16,-36 26,-24 27,-36 1,-36 -24,0 -26,-13 -5,-30 21,-18 19,-30 -6,-30 -17,0 -20,-4 -15,-24 5,-20 2,-25 -16,-28 -17,-2 -22,-9 -21,-26 2,-19 -1,-21 -22,-16 -17,4 -52,-5 -110,-30 -153,-66 -344,-78 -441,-28 -46,24 -105,83 -128,130 -10,18 -20,55 -23,82 -8,66 32,149 89,187 97,65 244,81 391,44 z m 1682,-106 c 227,-19 367,-45 584,-107 96,-28 335,-118 349,-133 3,-3 -39,-52 -93,-108 -277,-284 -330,-337 -340,-337 -5,0 -147,41 -315,90 -167,49 -307,86 -311,82 -3,-4 -48,-79 -99,-167 -51,-88 -94,-162 -96,-164 -2,-2 -35,5 -74,16 -38,11 -72,18 -75,15 -3,-3 -5,-16 -5,-29 0,-14 -4,-21 -10,-18 -5,3 -10,-3 -10,-15 0,-12 -4,-18 -10,-15 -5,3 -10,18 -10,33 l -1,27 -16,-30 -17,-30 -6,30 -7,30 -8,-29 -8,-28 -14,38 c -13,36 -43,231 -36,238 2,1 48,-6 104,-17 55,-10 102,-17 103,-15 1,1 26,120 55,262 l 53,259 51,69 c 34,45 58,68 72,68 11,0 97,-7 190,-15 z m -372,-317 c -18,-90 -40,-196 -49,-236 l -16,-74 -31,6 c -18,3 -65,12 -105,20 -40,7 -74,11 -76,7 -1,-3 5,-78 15,-166 10,-87 17,-160 16,-162 -2,-1 -26,5 -55,14 l -51,16 -8,56 c -9,60 -8,251 2,316 5,34 12,45 51,69 69,44 191,146 269,225 39,39 70,71 71,71 0,0 -14,-73 -33,-162 z"
       id="path27" />
    <path
       d="m 990,2529 c -123,-26 -113,-209 12,-209 50,0 82,19 103,60 22,43 19,84 -10,118 -28,34 -54,41 -105,31 z m 94,-51 c 16,-26 -4,-53 -40,-53 -23,0 -30,5 -32,23 -2,13 -1,30 2,38 8,20 56,14 70,-8 z"
       id="path29" />
    <path
       d="m 1684,2286 c -29,-29 -34,-41 -34,-81 0,-38 5,-52 29,-75 16,-16 40,-32 55,-36 60,-15 126,45 126,115 0,25 -9,42 -39,72 -51,51 -89,53 -137,5 z m 91,-6 c 33,-36 -13,-83 -53,-54 -26,18 -28,37 -6,58 21,21 37,20 59,-4 z"
       id="path31" />
    <path
       d="m 1320,2275 c 0,-19 24,-29 46,-21 13,5 14,9 4,21 -16,20 -50,19 -50,0 z"
       id="path33" />
    <path
       d="m 1094,2185 c 14,-21 16,-40 10,-108 -7,-93 9,-261 30,-312 20,-47 51,-75 85,-75 69,0 181,116 276,286 27,48 54,84 66,87 35,9 20,25 -19,20 -46,-6 -86,12 -155,69 l -48,40 -107,-7 c -93,-6 -110,-5 -121,9 -22,26 -35,18 -17,-9 z"
       id="path35" />
  </g>
  <path
     style="fill:#ffff00;stroke-width:0.648983"
     d="m 239.22244,479.60559 c -15.13031,-3.84763 -28.41824,-7.43685 -29.52874,-7.97604 l -2.01908,-0.98036 1.62246,-0.63762 c 0.89235,-0.3507 6.14118,-1.41019 11.66405,-2.35443 10.23523,-1.74992 11.93796,-2.35717 10.53723,-3.7579 -0.59767,-0.59766 -2.67715,-0.50309 -9.17817,0.41739 -5.94616,0.84192 -9.88794,1.05811 -13.47245,0.73888 -5.2867,-0.47082 -39.30632,-6.04793 -48.87338,-8.01221 l -5.51636,-1.1326 6.65934,-0.3642 c 6.20764,-0.33951 8.89498,-1.1732 7.68191,-2.38316 -0.70112,-0.69933 -27.14016,-0.41688 -40.67856,0.43456 -15.33365,0.96435 -33.055781,2.57433 -38.510969,3.49856 -6.022715,1.02039 -6.477596,2.38365 -0.795353,2.38365 2.326624,0 5.048961,0.31128 6.049642,0.69173 l 1.819411,0.69175 -1.614917,1.22393 c -0.888209,0.67316 -3.805241,1.81433 -6.482297,2.53594 -6.914985,1.86394 -48.828201,7.67666 -50.745389,7.03759 -0.413832,-0.13794 2.87643,-1.80115 7.311692,-3.69603 10.683248,-4.56419 10.851778,-4.693 5.792671,-4.42735 -3.423495,0.17976 -5.610627,0.85782 -11.606779,3.59833 -4.063615,1.85725 -7.699543,3.37682 -8.079841,3.37682 -1.441901,0 0.835258,-1.4458 8.990555,-5.70822 12.182368,-6.3672 11.536432,-8.51785 -0.819272,-2.72778 -3.059572,1.43377 -5.685432,2.48427 -5.835245,2.33446 -0.547333,-0.54733 9.136366,-5.73464 17.184741,-9.20543 l 8.26273,-3.56322 4.226091,1.93888 c 5.235826,2.40214 9.833652,3.65557 11.3188,3.08567 2.122012,-0.81429 0.589271,-2.05511 -5.042052,-4.08174 -6.502284,-2.34007 -9.851311,-4.39779 -13.844292,-8.50626 -5.151355,-5.30036 -8.32997,-12.40704 -9.058174,-20.25206 -0.56187,-6.0531 0.74385,-10.4663 15.853217,-53.5822 7.129839,-20.34563 13.638109,-39.10935 14.462821,-41.69717 l 1.499477,-4.70513 6.199845,-0.0103 c 17.292387,-0.0286 27.570367,-2.01166 43.897537,-8.4695 9.99523,-3.95339 10.25164,-4.01634 13.3999,-3.28963 1.76532,0.40748 3.47535,0.57668 3.80007,0.37599 0.32472,-0.20068 0.5904,-1.33404 0.5904,-2.51856 0,-2.58895 0.88529,-3.43408 3.8965,-3.71979 l 2.26884,-0.21529 -0.12135,-3.6671 -0.12135,-3.6671 2.23054,-0.41845 c 2.52763,-0.47419 2.61797,-0.77208 1.23674,-4.07783 -1.15006,-2.75248 -0.86073,-4.06961 0.89398,-4.06961 1.67266,0 2.81739,-1.50936 2.27558,-3.00041 -0.24342,-0.66989 -1.56265,-2.45264 -2.93162,-3.96166 -2.0027,-2.20758 -2.48904,-3.24445 -2.48904,-5.30653 0,-2.46282 -0.13376,-2.6241 -3.4266,-4.13161 -1.88463,-0.86281 -6.22607,-3.4801 -9.64765,-5.81619 -10.00273,-6.8294 -17.53556,-10.01653 -33.50729,-14.1769 -5.18426,-1.35041 -5.43148,-1.50211 -7.106481,-4.36027 -2.483055,-4.23702 -7.926721,-17.07212 -7.947677,-18.73907 -0.01339,-1.0651 0.492508,-1.52071 2.074287,-1.86813 10.657251,-2.34072 18.200801,-18.5258 16.048271,-34.43239 -0.81404,-6.01553 -3.59376,-12.50684 -6.53045,-15.25012 -2.53993,-2.37264 -2.45864,-2.88448 2.40785,-15.1613 5.54055,-13.97729 11.9527,-26.51397 17.1063,-33.44529 2.52125,-3.39093 4.76304,-6.54299 4.98176,-7.00456 0.59329,-1.25202 -0.13136,-1.62789 -1.61137,-0.83582 -2.31815,1.24064 -7.6667,0.76686 -13.90615,-1.23181 C 96.551613,116.29054 64.365313,97.263224 60.005344,90.388266 58.0528,87.309424 56.038181,79.751821 54.869374,71.121291 54.19174,66.117617 53.836484,50.108992 54.390777,49.554699 c 0.863917,-0.863917 20.334978,8.339446 35.817888,16.93 19.640805,10.897527 44.103715,29.058124 51.471835,38.211301 1.88189,2.33782 2.0231,2.7619 1.13572,3.41077 -0.55737,0.40755 -1.01339,1.25704 -1.01339,1.88775 0,1.29205 0.051,1.28963 13.95314,-0.66349 10.04723,-1.41154 27.14285,-1.00066 37.96552,0.91247 23.08371,4.0805 41.02154,13.08345 57.7595,28.98932 6.40783,6.08928 8.91377,8.08637 10.14676,8.08637 1.69173,0 0.8666,-1.74716 -2.6717,-5.6571 -1.95671,-2.16224 -3.85499,-4.71338 -4.21839,-5.6692 -1.59943,-4.20681 -0.42155,-23.16237 2.3409,-37.671935 2.98318,-15.668967 10.51712,-42.06117 14.31074,-50.132046 1.89092,-4.022918 1.81384,-4.039593 8.14386,1.761856 5.1475,4.717675 10.9482,12.223126 14.70082,19.021197 l 2.6911,4.875087 -1.63832,12.084434 c -1.95996,14.456747 -3.53804,22.943197 -6.52772,35.103887 -5.29614,21.54238 -12.69414,39.83801 -16.92624,41.85941 l -2.0381,0.97348 0.0912,11.03271 0.0912,11.03272 -3.76175,17.9249 c -2.06895,9.85869 -3.96723,19.78813 -4.21839,22.06543 l -0.45664,4.14052 -4.21839,0.0667 c -5.88241,0.093 -11.19105,2.85161 -17.21778,8.94722 -6.96549,7.04511 -10.6885,15.35386 -10.6885,23.85387 0,4.95162 0.80971,6.89961 4.07591,9.80574 2.67587,2.38089 2.70877,2.45973 1.44045,3.45182 -2.30032,1.79934 -9.31658,5.54726 -17.02587,9.0948 -7.96433,3.66491 -9.76917,4.81083 -7.57715,4.81083 7.79286,0 29.47702,-11.68832 38.58937,-20.80067 6.86024,-6.86024 11.68375,-14.56849 13.91133,-22.23109 0.79456,-2.73318 1.64425,-4.13405 3.25075,-5.35939 4.84984,-3.69915 18.71834,-8.37118 29.5315,-9.9486 5.15583,-0.75213 20.32237,-2.02812 20.61603,-1.73447 0.0955,0.0955 -0.11761,2.18861 -0.47359,4.65135 -0.90502,6.2611 -0.83662,8.02503 0.32852,8.47213 1.28904,0.49465 1.65252,0.0927 2.16006,-2.38891 l 0.41512,-2.02974 3.18333,2.43064 c 2.95675,2.25766 3.08352,2.46758 1.78108,2.94938 -1.18072,0.43677 -1.40224,1.03104 -1.40224,3.76171 0,2.5788 -0.26584,3.38528 -1.29797,3.93765 -0.95693,0.51214 -1.29796,1.35886 -1.29796,3.22261 0,2.12745 -0.23135,2.56084 -1.46022,2.73549 -1.25392,0.1782 -1.43941,0.5566 -1.31303,2.67857 l 0.14719,2.47106 -2.83114,-0.42456 c -1.69615,-0.25435 -3.38037,-0.13061 -4.20116,0.30867 -0.75351,0.40326 -3.12912,3.34935 -5.27912,6.54687 -6.04726,8.99356 -13.74485,18.24576 -23.61702,28.38672 -13.99166,14.37261 -24.81669,23.58799 -39.03248,33.22845 -9.75486,6.61527 -10.67953,7.48084 -9.23143,8.64139 1.57396,1.2614 1.75237,2.95819 2.47154,23.50535 0.3748,10.70822 1.09923,21.95186 1.60986,24.98585 0.51063,3.034 2.84002,11.62049 5.17645,19.0811 7.09445,22.65384 7.76013,26.39782 6.09244,34.26583 -1.07434,5.06867 -2.8062,8.03239 -8.11468,13.88658 -2.62113,2.89059 -4.57535,5.44596 -4.3427,5.67861 0.23265,0.23264 1.32345,0.42461 2.42402,0.42661 3.97428,0.007 12.04171,3.25365 19.19909,7.72603 l 2.27144,1.41933 -2.51706,-0.44396 c -4.75092,-0.838 -1.94966,1.84731 8.71584,8.35502 2.21557,1.35187 3.88407,2.60217 3.70779,2.77845 -0.17628,0.17628 -2.55101,-0.99819 -5.27718,-2.60994 -7.45012,-4.40464 -11.22128,-6.19584 -13.0446,-6.19584 -3.84663,0 -1.44414,1.95369 9.08605,7.38869 3.93837,2.03273 8.02696,4.40381 9.08577,5.26907 l 1.92509,1.57319 -2.27144,-0.0447 c -1.2493,-0.0246 -14.65079,-3.19277 -29.7811,-7.04041 z M 169.59839,264.39428 c 7.74446,-3.85923 19.24698,-17.10854 28.90282,-33.29206 6.59025,-11.04548 8.4571,-13.527 11.1382,-14.80553 4.08417,-1.9476 2.67698,-2.96615 -4.24827,-3.07498 -6.44428,-0.10127 -10.86476,-2.2177 -19.78194,-9.47118 -6.41783,-5.22044 -6.52222,-5.27465 -9.4085,-4.88626 -1.60526,0.21601 -8.0302,0.57153 -14.27763,0.79004 l -11.35897,0.39732 -1.57333,-1.70486 c -1.56532,-1.69616 -3.94302,-2.31729 -3.94302,-1.03002 0,0.37116 0.57968,1.81112 1.28819,3.1999 1.1759,2.30496 1.2882,3.84425 1.28835,17.65894 1.5e-4,14.50413 0.86243,25.57381 2.58632,33.2023 2.84663,12.59679 10.25235,17.56876 19.38778,13.01639 z m 68.34582,-52.28097 c 5.8868,-1.76373 10.92436,-8.7435 10.93208,-15.14691 0.005,-3.84165 -1.28792,-6.24025 -5.57777,-10.35064 -6.88866,-6.60051 -12.1405,-6.59965 -18.74319,0.003 -3.15047,3.15046 -4.22553,5.84962 -4.22553,10.609 0,4.7376 0.75894,6.87472 3.44696,9.70636 4.88655,5.14763 9.11423,6.69313 14.16745,5.17915 z M 183.57353,190.6217 c 1.48221,-1.08383 0.80281,-2.83075 -1.58016,-4.06304 -2.22915,-1.15273 -3.97421,-1.21212 -5.01565,-0.17068 -2.8319,2.83189 3.20957,6.70979 6.59581,4.23372 z m -40.57239,-10.67897 c 5.60712,-3.4954 8.59916,-11.99982 6.32074,-17.96576 -1.4001,-3.66613 -5.96844,-7.93999 -9.11879,-8.531 -7.32986,-1.37509 -14.91321,2.25099 -18.16072,8.68379 -2.46912,4.89095 -0.96852,13.09851 3.0867,16.88268 4.11828,3.84302 12.49978,4.27931 17.87207,0.93029 z"
     id="path341"
     transform="scale(0.75)" />
  <path
     style="fill:#ffff00;stroke-width:0.648983"
     d="m 79.39067,319.93369 c -9.238495,-1.55899 -15.305471,-4.92699 -22.105343,-12.27148 -4.925944,-5.32048 -7.305496,-9.79573 -8.65829,-16.28377 -1.255491,-6.02137 -0.57447,-10.74187 2.432162,-16.85855 4.021043,-8.18038 11.662943,-13.67506 23.652944,-17.00693 4.379327,-1.21697 6.788607,-1.42241 16.794488,-1.43208 10.568159,-0.0102 12.351129,0.15652 18.704429,1.74916 10.09452,2.53048 17.78699,5.92814 27.12074,11.97884 4.50128,2.918 9.02794,5.67683 10.05924,6.13074 2.33597,1.02814 2.82608,1.69685 2.83864,3.87298 0.006,1.00819 0.95251,2.8515 2.28137,4.44204 2.75745,3.30045 2.81901,3.8939 0.40396,3.8939 -3.65181,0 -4.01838,2.53901 -0.78856,5.46196 1.88076,1.70206 1.72225,2.1107 -1.07561,2.77295 -2.3542,0.55724 -2.43369,0.6689 -2.43369,3.41887 0,2.59047 -0.16791,2.88827 -1.89163,3.35479 -2.22134,0.60121 -2.95218,1.55903 -2.96581,3.88699 -0.01,1.6282 -0.18876,1.71137 -4.39057,2.03722 -3.07785,0.23869 -6.6002,1.21654 -11.84394,3.28802 -9.88857,3.90635 -17.28675,6.00041 -25.5163,7.22238 -7.098023,1.05395 -17.4698,1.21077 -22.61823,0.34197 z"
     id="path343"
     transform="scale(0.75)" />
  <path
     style="fill:#ffff00;stroke-width:0.648983"
     d="m 268.0995,389.01235 c -0.21666,-0.5646 -0.39393,-2.3341 -0.39393,-3.9322 0,-3.55534 -0.7227,-3.25394 -3.0525,1.27303 l -1.72986,3.36123 -0.56271,-2.92042 c -0.94837,-4.92195 -1.25427,-5.08556 -2.42672,-1.29797 l -1.10491,3.56941 -1.34855,-4.27435 c -2.17103,-6.88121 -5.73249,-30.13347 -4.71204,-30.76415 0.21931,-0.13553 6.34037,0.76327 13.60236,1.99735 7.262,1.23407 13.33763,2.10977 13.5014,1.946 0.41074,-0.41073 2.97964,-12.36373 9.2873,-43.21343 l 5.3741,-26.28382 5.89331,-7.72178 c 3.24133,-4.24697 6.69034,-8.31503 7.66448,-9.04011 2.114,-1.57354 2.57873,-1.56844 24.18817,0.26537 42.6885,3.62262 70.80352,9.81913 107.73121,23.74379 11.60771,4.37703 19.79743,7.93064 19.78893,8.58665 -0.0193,1.48434 -53.02627,56.16455 -55.97531,57.74218 -1.5061,0.80572 -2.72896,0.57927 -12.91633,-2.39186 -43.57254,-12.70788 -68.48504,-19.59007 -70.91308,-19.59007 -1.22322,0 -1.73089,0.7984 -15.47487,24.33687 -6.04406,10.35128 -11.21128,19.05817 -11.48271,19.34865 -0.27144,0.29047 -4.6941,-0.51909 -9.82815,-1.79903 -8.70625,-2.17051 -9.38937,-2.25233 -10.14764,-1.21533 -0.44715,0.61152 -0.813,2.04411 -0.813,3.18355 0,1.52591 -0.34195,2.16114 -1.29796,2.41114 -0.87709,0.22936 -1.29797,0.88522 -1.29797,2.02264 0,1.86254 -0.93808,2.25919 -1.55302,0.65666 z"
     id="path345"
     transform="scale(0.75)" />
  <path
     style="fill:#f2f2f2;stroke-width:0.648983"
     d="m 136.27041,165.77296 c -0.98332,-2.58632 -0.75322,-4.70483 0.66505,-6.12309 1.44011,-1.44012 2.40767,-1.58416 4.72441,-0.70334 5.8579,2.22717 4.42496,8.49114 -1.94243,8.49114 -2.42361,0 -2.90194,-0.23101 -3.44703,-1.66471 z"
     id="path8637"
     transform="scale(0.75)" />
  <path
     style="fill:#f2f2f2;stroke-width:0.648983"
     d="m 230.5687,194.06368 c -1.16801,-0.71216 -2.28593,-2.04895 -2.5314,-3.027 -0.36789,-1.46578 -0.0546,-2.10445 1.92,-3.91403 2.88569,-2.64454 3.63607,-2.67836 6.20395,-0.2796 2.46503,2.30268 2.70622,5.21098 0.59525,7.17765 -1.78174,1.65993 -3.5161,1.67198 -6.1878,0.043 z"
     id="path8708"
     transform="scale(0.75)" />
</svg>
