<svg xmlns="http://www.w3.org/2000/svg" width="1080" height="1080" viewBox="0 0 1080 1080" version="1.1"><path d="M 70.773 291.555 C 53.661 295.703, 40.302 308.120, 34.565 325.213 L 32 332.853 32 557.500 L 32 782.147 34.540 789.715 C 37.579 798.767, 42.541 806.545, 48.778 812.036 C 54.507 817.079, 65.811 822.689, 72.886 824.001 C 76.423 824.657, 235.790 825, 536.926 825 C 945.545 825, 996.221 824.833, 1001.458 823.469 C 1019.494 818.771, 1033.842 804.507, 1038.643 786.500 C 1039.735 782.405, 1039.978 740.903, 1039.988 557.176 L 1040 332.853 1037.460 325.285 C 1032.963 311.891, 1025.210 302.588, 1013.213 296.194 C 1000.555 289.448, 1043.025 289.991, 536.040 290.083 C 147.608 290.154, 75.614 290.381, 70.773 291.555 M 166.206 369.557 C 149.031 374.180, 135.057 387.363, 130.009 403.705 C 128.035 410.099, 128 412.788, 128.012 559.855 C 128.022 681.354, 128.274 710.440, 129.357 714.500 C 134.452 733.610, 151.050 748.901, 170 751.942 C 174.428 752.652, 293.032 752.982, 542 752.975 C 855.638 752.967, 908.461 752.762, 914.270 751.531 C 934.152 747.318, 950.625 730.160, 953.954 710.199 C 954.750 705.422, 954.989 661.324, 954.785 556.500 L 954.500 409.500 952.172 403 C 945.951 385.627, 931.569 372.795, 914.201 369.121 C 910.338 368.304, 808.964 368.018, 540.201 368.066 C 224.382 368.122, 170.741 368.336, 166.206 369.557" stroke="none" fill="#ffffff" fill-rule="evenodd"/><path d="M 165 370.888 C 147.610 376.517, 134.894 389.306, 130.369 405.721 C 128.583 412.200, 128.500 419.047, 128.500 560.500 C 128.500 676.729, 128.772 709.521, 129.766 713.257 C 134.699 731.792, 150.568 747.093, 168.799 750.895 C 175.876 752.371, 905.166 752.475, 913.114 751.001 C 921.720 749.405, 932.731 743.449, 939.135 736.925 C 945.437 730.504, 951.255 719.904, 952.946 711.761 C 953.715 708.057, 953.959 662.364, 953.769 557.499 L 953.500 408.500 951.108 402.500 C 944.495 385.913, 930.951 373.761, 914.972 370.079 C 911.944 369.382, 791.014 369.058, 540.500 369.078 C 188.497 369.106, 170.232 369.194, 165 370.888 M 453.500 480.428 C 436.902 483.716, 426.960 489.615, 418.386 501.262 C 409.164 513.789, 404.948 530.987, 404.948 556.080 C 404.948 598.872, 418.603 622.521, 447.675 630.077 C 457.602 632.658, 477.462 632.891, 486.500 630.535 C 512.569 623.737, 526.428 604.852, 530.099 571.123 C 531.325 559.860, 530.811 541.560, 528.987 531.500 C 525.220 510.731, 515.561 495.042, 501.640 487.082 C 490.137 480.504, 468.328 477.490, 453.500 480.428 M 593.723 480.056 C 575.409 482.599, 563.915 489.827, 557.839 502.622 C 552.322 514.239, 552.252 532.514, 557.683 543.604 C 562.774 554.003, 572.710 560.808, 593 567.794 C 613.352 574.800, 618.963 578.435, 620.978 585.917 C 622.377 591.113, 621.348 595.292, 617.844 598.650 C 615.253 601.132, 614.004 601.511, 607.312 601.849 C 596.298 602.406, 593.279 601.179, 586.414 593.359 C 579.916 585.958, 576.305 583.990, 569.282 584.022 C 555.651 584.085, 548.738 594.200, 553.806 606.669 C 561.619 625.891, 583.248 634.915, 614.428 631.961 C 632.900 630.211, 646.566 624.387, 653.886 615.144 C 666.350 599.406, 665.452 572.506, 652.071 560.757 C 647.152 556.439, 634.605 550.881, 621 546.994 C 601.114 541.313, 594.387 536.863, 591.938 527.769 C 590.477 522.346, 592.135 514.159, 595.291 511.202 C 600.425 506.393, 610.635 505.517, 618.038 509.250 C 622.343 511.421, 622.610 511.830, 625.626 520.857 C 629.750 533.201, 632.606 536.199, 640.809 536.793 C 648.310 537.335, 655.007 534.624, 658.041 529.818 C 659.861 526.936, 660.079 525.366, 659.701 517.880 C 658.762 499.273, 647.781 486.477, 628.503 481.522 C 620.979 479.588, 602.652 478.816, 593.723 480.056 M 283.500 481.585 C 282.400 481.856, 280.496 482.292, 279.268 482.553 C 275.384 483.381, 270.350 488.672, 269.104 493.236 C 268.263 496.316, 268.018 514.305, 268.220 558 C 268.490 616.433, 268.568 618.616, 270.500 621.895 C 274.110 628.025, 277.095 629.459, 287.052 629.849 C 298.515 630.298, 303.799 628.113, 306.940 621.624 C 308.749 617.887, 309 615.476, 309 601.833 L 309 586.297 320.250 585.731 C 335.105 584.982, 344.568 582.766, 355.500 577.476 C 369.247 570.823, 378.168 560.953, 383.148 546.887 C 386.321 537.921, 386.334 518.362, 383.172 509.667 C 379.358 499.179, 373.542 492.994, 362.847 488.054 C 351.704 482.906, 344.369 481.930, 313.500 481.491 C 298.100 481.272, 284.600 481.314, 283.500 481.585 M 688.221 482.034 C 679.390 483.833, 675.379 489.181, 676.228 498.022 C 677.175 507.882, 682.992 510.946, 700.822 510.978 L 713.144 511 712.901 564.250 C 712.674 613.701, 712.785 617.769, 714.452 621.270 C 717.485 627.641, 721.100 629.447, 731.610 629.842 C 742.844 630.263, 747.805 628.262, 750.987 622.026 C 752.930 618.217, 753 616.225, 753 564.636 L 753 511.192 766.750 510.823 C 777.504 510.535, 781.218 510.068, 783.794 508.679 C 793.502 503.445, 793.329 488.652, 783.500 483.569 C 779.652 481.578, 777.849 481.494, 736 481.331 C 712.075 481.238, 690.574 481.554, 688.221 482.034 M 460.001 510.062 C 453.928 512.633, 449.854 518.943, 448.075 528.532 C 446.245 538.401, 445.669 559.663, 446.878 572.726 C 448.144 586.400, 450.571 594.265, 454.753 598.247 C 458.157 601.489, 465.583 603.440, 471.270 602.587 C 484.808 600.557, 489 589.542, 489 556 C 489 529.649, 486.153 517.093, 479.026 512.019 C 475.332 509.388, 464.277 508.251, 460.001 510.062 M 309 533.650 L 309 555.299 318.250 554.644 C 333.915 553.533, 340.736 548.630, 343.118 536.767 C 346.511 519.871, 338.471 512, 317.818 512 L 309 512 309 533.650" stroke="none" fill="#b1d5ff" fill-rule="evenodd"/><path d="M 463.776 479.733 C 466.128 479.945, 469.728 479.942, 471.776 479.727 C 473.824 479.512, 471.900 479.339, 467.500 479.343 C 463.100 479.346, 461.424 479.522, 463.776 479.733 M 603.776 479.733 C 606.128 479.945, 609.728 479.942, 611.776 479.727 C 613.824 479.512, 611.900 479.339, 607.500 479.343 C 603.100 479.346, 601.424 479.522, 603.776 479.733 M 296.306 481.747 C 302.800 481.922, 313.150 481.921, 319.306 481.746 C 325.463 481.571, 320.150 481.428, 307.500 481.429 C 294.850 481.429, 289.813 481.573, 296.306 481.747 M 712.817 481.749 C 724.542 481.909, 743.442 481.909, 754.817 481.749 C 766.193 481.588, 756.600 481.457, 733.500 481.458 C 710.400 481.458, 701.093 481.589, 712.817 481.749 M 268.442 524 C 268.442 540.225, 268.580 546.862, 268.748 538.750 C 268.916 530.638, 268.916 517.362, 268.748 509.250 C 268.580 501.137, 268.442 507.775, 268.442 524 M 755.768 510.725 C 757.565 510.947, 760.265 510.943, 761.768 510.715 C 763.271 510.486, 761.800 510.304, 758.500 510.310 C 755.200 510.315, 753.971 510.502, 755.768 510.725 M 312.776 511.733 C 315.128 511.945, 318.728 511.942, 320.776 511.727 C 322.824 511.512, 320.900 511.339, 316.500 511.343 C 312.100 511.346, 310.424 511.522, 312.776 511.733 M 385.343 528.500 C 385.346 532.900, 385.522 534.576, 385.733 532.224 C 385.945 529.872, 385.942 526.272, 385.727 524.224 C 385.512 522.176, 385.339 524.100, 385.343 528.500 M 530.382 555.500 C 530.384 562.100, 530.546 564.670, 530.741 561.211 C 530.937 557.752, 530.936 552.352, 530.738 549.211 C 530.540 546.070, 530.380 548.900, 530.382 555.500 M 489.360 556 C 489.360 561.225, 489.529 563.362, 489.735 560.750 C 489.941 558.138, 489.941 553.862, 489.735 551.250 C 489.529 548.638, 489.360 550.775, 489.360 556 M 268.442 587 C 268.442 603.225, 268.580 609.862, 268.748 601.750 C 268.916 593.638, 268.916 580.362, 268.748 572.250 C 268.580 564.138, 268.442 570.775, 268.442 587 M 662.310 587.500 C 662.315 590.800, 662.502 592.029, 662.725 590.232 C 662.947 588.435, 662.943 585.735, 662.715 584.232 C 662.486 582.729, 662.304 584.200, 662.310 587.500 M 712.310 607.500 C 712.315 610.800, 712.502 612.029, 712.725 610.232 C 712.947 608.435, 712.943 605.735, 712.715 604.232 C 712.486 602.729, 712.304 604.200, 712.310 607.500" stroke="none" fill="#b4d4fc" fill-rule="evenodd"/><path d="M 355.750 368.750 C 457.638 368.890, 624.363 368.890, 726.250 368.750 C 828.138 368.610, 744.775 368.495, 541 368.495 C 337.225 368.495, 253.863 368.610, 355.750 368.750 M 954.487 561 C 954.487 641.575, 954.605 674.538, 954.750 634.250 C 954.895 593.963, 954.895 528.038, 954.750 487.750 C 954.605 447.463, 954.487 480.425, 954.487 561 M 450 481.560 C 429.554 485.967, 414.596 501.147, 408.672 523.500 C 403.101 544.521, 404.123 576.319, 410.972 595.086 C 417.546 613.099, 428.462 623.720, 446 629.168 C 455.981 632.268, 479.044 632.526, 488.470 629.643 C 501.538 625.645, 510.846 619.060, 517.222 609.301 C 523.183 600.179, 525.471 594.389, 528.030 581.956 C 529.936 572.696, 530.127 569.270, 529.693 552 C 529.302 536.412, 528.778 530.900, 527.077 524.525 C 520.662 500.469, 506.568 486.037, 485.074 481.516 C 476.193 479.647, 458.771 479.669, 450 481.560 M 587.536 481.598 C 573.418 484.740, 563.944 491.288, 559.042 501.292 C 555.126 509.285, 553.644 517.495, 554.311 527.500 C 555.031 538.307, 557.230 543.996, 563.220 550.550 C 569.415 557.328, 576.999 561.593, 592.500 567.016 C 608.692 572.680, 614.305 575.445, 617.883 579.519 C 623.069 585.426, 623.292 595.052, 618.332 598.953 C 612.722 603.367, 601.212 604.093, 593.662 600.510 C 591.752 599.603, 588.289 596.481, 585.967 593.571 C 580.220 586.369, 577.186 584.750, 569.441 584.750 C 554.547 584.750, 548.639 595.219, 555.558 609.349 C 563.478 625.526, 581.157 632.913, 608.989 631.678 C 629.908 630.750, 641.346 626.778, 651.087 617.060 C 659.268 608.898, 661.442 602.816, 661.475 588 C 661.497 578.019, 661.188 575.810, 659.137 571.273 C 654.359 560.707, 644.840 554.672, 622.414 547.992 C 597.813 540.666, 591.929 536.256, 591.187 524.592 C 590.728 517.391, 592.700 511.898, 596.680 509.290 C 603.067 505.105, 616.174 505.877, 621.246 510.736 C 622.955 512.373, 624.675 515.631, 625.594 518.972 C 629.464 533.044, 632.798 536.499, 642.500 536.493 C 649.245 536.489, 653.916 534.350, 657.395 529.669 C 659.134 527.331, 659.482 525.504, 659.398 519.169 C 659.163 501.604, 649.669 489.066, 631.946 482.917 C 623.382 479.945, 598.307 479.200, 587.536 481.598 M 277.309 483.947 C 274.341 485.294, 272.516 487.028, 271.059 489.885 C 269.046 493.831, 269 495.303, 269 556.074 C 269 617.307, 269.031 618.283, 271.094 621.954 C 274.068 627.245, 278.033 629.238, 286.688 629.794 C 296.474 630.422, 302.079 628.348, 305.804 622.721 C 308.409 618.786, 308.512 618.096, 308.853 602.324 C 309.163 587.987, 309.406 585.997, 310.853 585.976 C 318.286 585.869, 336.638 583.798, 341.500 582.517 C 349.779 580.336, 360.511 575.087, 366.621 570.229 C 372.408 565.628, 379.851 554.964, 382.484 547.500 C 383.633 544.242, 384.420 538.257, 384.742 530.319 C 385.169 519.821, 384.944 517.196, 383.120 511.319 C 378.216 495.522, 367.019 487.281, 345.324 483.497 C 339.068 482.406, 329.244 482.006, 309.119 482.022 C 284.133 482.042, 281.100 482.225, 277.309 483.947 M 685.643 483.009 C 674.101 486.545, 672.792 502.784, 683.592 508.450 C 686.994 510.235, 689.150 510.480, 700.250 510.349 L 713 510.198 713.006 562.849 C 713.009 594.442, 713.406 616.923, 713.999 619.057 C 715.978 626.182, 722.761 630, 733.437 630 C 741.961 630, 747.739 627.009, 750.750 621.038 C 752.999 616.578, 753 616.558, 753 563.367 L 753 510.157 766.250 510.329 C 780.867 510.518, 783.999 509.577, 788.395 503.675 C 791.007 500.169, 791.146 492.398, 788.665 488.612 C 784.552 482.334, 786.114 482.518, 735.045 482.317 C 709.445 482.216, 687.214 482.528, 685.643 483.009 M 458.500 510.403 C 449.378 514.429, 446 526.751, 446 556 C 446 590.923, 450.584 601.869, 465.609 602.826 C 469.015 603.043, 473.399 602.693, 475.351 602.049 C 480.125 600.474, 484.576 595.161, 486.484 588.764 C 490.199 576.300, 490.697 541.986, 487.379 527 C 484.413 513.602, 479.420 508.971, 468.016 509.039 C 464.432 509.061, 460.150 509.674, 458.500 510.403 M 309 532.983 L 309 555.267 318.750 554.791 C 337.429 553.877, 344.804 546.233, 343.819 528.804 C 343.129 516.588, 337.193 512.295, 319.618 511.300 L 309 510.699 309 532.983 M 357.169 752.750 C 458.186 752.890, 623.786 752.890, 725.169 752.750 C 826.551 752.610, 743.900 752.495, 541.500 752.495 C 339.100 752.495, 256.151 752.610, 357.169 752.750" stroke="none" fill="#fbfbfa" fill-rule="evenodd"/></svg>