<svg xmlns="http://www.w3.org/2000/svg" width="1080" height="1080" viewBox="0 0 1080 1080" version="1.1"><path d="M 173.348 355.420 C 159.121 358.871, 145.833 369.859, 139.274 383.597 L 135.500 391.500 135.500 540 L 135.500 688.500 139.274 696.403 C 145.988 710.467, 160.195 721.862, 174.799 724.898 C 182.329 726.464, 897.671 726.464, 905.201 724.898 C 919.805 721.862, 934.012 710.467, 940.726 696.403 L 944.500 688.500 944.500 540 L 944.500 391.500 940.726 383.597 C 933.941 369.385, 919.978 358.187, 905.201 355.105 C 897.056 353.407, 180.377 353.715, 173.348 355.420 M 231 408.366 C 223.479 410.004, 214.905 414.550, 208.401 420.346 C 201.708 426.312, 198.160 431.418, 194.399 440.500 L 191.500 447.500 191.205 534 C 191.001 593.700, 191.251 622.514, 192.011 627 C 195.175 645.661, 210.863 662.604, 229.465 667.449 C 234.782 668.834, 267.631 669, 536 669 C 798.977 669, 837.295 668.814, 842.297 667.511 C 860.643 662.732, 874.786 648.717, 879.643 630.500 C 881.598 623.169, 881.598 452.831, 879.643 445.500 C 874.621 426.664, 858.335 411.453, 839.566 408.070 C 830.598 406.453, 238.458 406.741, 231 408.366 M 500.344 497.041 C 483.616 500.351, 475 514.695, 475 539.236 C 475 560.264, 481.816 573.643, 495.069 578.628 C 501.055 580.879, 516.886 580.903, 522.816 578.668 C 531.891 575.249, 537.400 568.654, 538.621 559.749 C 539.176 555.702, 538.945 554.854, 536.670 552.580 C 534.734 550.643, 533.065 550, 529.980 550 C 524.131 550, 522.141 551.432, 519.410 557.609 C 516.200 564.867, 510.720 566.975, 504.041 563.521 C 499.071 560.951, 497.500 554.821, 497.500 538 C 497.500 522.274, 498.430 517.823, 502.521 513.980 C 504.352 512.260, 506.154 511.667, 509.547 511.667 C 515.314 511.667, 517.605 513.815, 519.500 521 C 521.368 528.080, 523.709 530.333, 529.199 530.333 C 537.811 530.333, 540.838 526.355, 538.992 517.462 C 537.633 510.916, 533.276 503.952, 528.814 501.194 C 521.692 496.793, 510.127 495.106, 500.344 497.041 M 658.838 497.123 C 649.571 499.740, 642.353 510.690, 638.914 527.349 C 636.703 538.061, 634.442 567.210, 635.418 572.416 C 636.268 576.943, 639.630 579.255, 645.254 579.177 C 651.595 579.090, 654 575.863, 654 567.444 L 654 561 665.500 561 L 677 561 677 567.826 C 677 573.633, 677.336 574.956, 679.250 576.691 C 684.416 581.375, 694.003 580.158, 696.713 574.475 C 698.165 571.431, 698.213 569.234, 697.165 553.784 C 694.891 520.268, 689.419 504.826, 677.697 498.845 C 672.996 496.447, 664.106 495.635, 658.838 497.123 M 732.344 497.041 C 723.109 498.869, 716.051 504.553, 714.044 511.781 C 712.536 517.209, 712.771 525.517, 714.553 529.782 C 717.586 537.042, 721.102 539.406, 738.728 546.034 C 747.888 549.479, 751 552.402, 751 557.562 C 751 562.774, 747.040 565.306, 739.709 564.781 C 734.301 564.394, 733.632 564.056, 729.618 559.683 C 725.863 555.594, 724.808 555, 721.294 555 C 718.685 555, 716.304 555.759, 714.525 557.159 C 712.142 559.033, 711.849 559.836, 712.304 563.232 C 713.033 568.662, 717.390 574.526, 722.554 577.026 C 737.062 584.050, 761.779 580.353, 768.512 570.152 C 771.938 564.961, 773.349 557.520, 772.026 551.616 C 769.928 542.254, 765.888 539.130, 749.339 534.074 C 736.403 530.121, 733 527.301, 733 520.533 C 733 517.968, 733.433 515.060, 733.962 514.071 C 736.266 509.765, 746.009 508.888, 750.128 512.616 C 751.162 513.552, 752.458 515.987, 753.008 518.028 C 754.640 524.091, 757.536 527, 761.938 527 C 764.260 527, 766.752 526.197, 768.365 524.927 C 773.699 520.732, 770.729 507.957, 763 501.851 C 756.742 496.906, 743.516 494.831, 732.344 497.041 M 241.345 498.377 C 239.610 499.172, 237.869 500.838, 237.475 502.079 C 237.081 503.320, 236.778 520.055, 236.800 539.269 C 236.841 573.558, 236.881 574.245, 238.982 576.480 C 241.559 579.224, 246.653 580.211, 251.430 578.892 C 256.887 577.385, 258 574.930, 258 564.395 L 258 555.235 265.750 554.510 C 279.362 553.237, 288.489 549.322, 294.724 542.082 C 300.155 535.776, 302.482 522.877, 299.879 513.503 C 298.274 507.722, 291.770 501.617, 284.992 499.531 C 277.211 497.136, 245.861 496.307, 241.345 498.377 M 320.242 498.494 C 318.354 499.315, 316.544 501.069, 315.936 502.669 C 315.267 504.427, 314.998 515.414, 315.193 532.964 C 315.498 560.308, 315.518 560.539, 318.129 566.107 C 322.817 576.103, 330.723 580.131, 346 580.304 C 357.491 580.434, 364.190 578.460, 369.391 573.409 C 374.404 568.540, 375.876 565.239, 377.104 556.113 C 378.548 545.385, 377.912 504.219, 376.258 501.330 C 374.430 498.137, 368.864 496.560, 364.503 497.999 C 358.085 500.117, 358 500.534, 358 529.755 C 358 562.817, 357.319 565, 347 565 C 337.498 565, 337 563.330, 337 531.500 C 337 503.158, 336.559 500.549, 331.397 498.392 C 327.242 496.656, 324.412 496.682, 320.242 498.494 M 402.270 497.703 C 401.043 497.940, 399.131 499.289, 398.020 500.702 C 396.080 503.168, 396 504.668, 396 538.412 C 396 577.445, 395.938 577.060, 402.570 578.892 C 407.450 580.239, 412.456 579.208, 415.189 576.294 C 417.343 573.997, 417.497 573.021, 417.451 561.915 L 417.402 550 422.319 550 C 426.669 550, 427.668 550.433, 430.996 553.761 C 434.174 556.938, 435.026 558.761, 436.489 565.511 C 437.442 569.905, 438.845 574.495, 439.608 575.711 C 442.682 580.611, 455.321 580.950, 459.032 576.232 C 461.559 573.019, 461.512 571.720, 458.529 562.302 C 455.857 553.867, 451.728 547.945, 446.709 545.349 L 443.597 543.740 448.200 541.401 C 457.654 536.597, 461.830 527.745, 459.987 516.422 C 458.246 505.726, 450.920 499.950, 436.678 498.046 C 429.140 497.038, 406.862 496.816, 402.270 497.703 M 560.270 497.703 C 559.043 497.940, 557.131 499.289, 556.020 500.702 C 554.081 503.167, 554.001 504.658, 554.015 537.885 C 554.026 563.730, 554.349 573.133, 555.291 575 C 557.810 579.994, 568.044 580.992, 572.750 576.702 C 574.876 574.764, 575 573.889, 575 560.826 L 575 547 586 547 L 597 547 597 560.444 C 597 573.067, 597.142 574.053, 599.321 576.587 C 601.339 578.933, 602.390 579.286, 607.355 579.286 C 611.951 579.286, 613.549 578.833, 615.533 576.969 L 618 574.651 618 538.514 C 618 503.783, 617.922 502.294, 616.004 500.235 C 611.978 495.914, 602.579 496.178, 599.012 500.712 C 597.216 502.996, 597 504.756, 597 517.135 L 597 531 586 531 L 575 531 575 516.934 C 575 509.198, 574.559 502.045, 574.021 501.039 C 572.355 497.927, 566.484 496.503, 560.270 497.703 M 792.384 498.395 C 787.315 500.666, 787 503.023, 787 538.681 C 787 576.265, 787.158 577.158, 794.123 579.033 C 796.866 579.772, 804.985 580.062, 816.786 579.842 L 835.175 579.500 837.588 576.694 C 840.293 573.547, 840.505 572.203, 838.862 568.597 C 837.224 565.002, 833.189 564, 820.351 564 L 809 564 809 555.246 L 809 546.492 819.082 546.496 C 828.891 546.500, 829.230 546.424, 831.582 543.694 C 834.634 540.153, 834.634 537.847, 831.582 534.306 C 829.200 531.541, 829.017 531.503, 819.082 531.738 L 809 531.976 809 522.047 L 809 512.117 821.464 512.309 C 833.096 512.487, 834.075 512.353, 836.131 510.306 C 839.014 507.433, 839.018 502.575, 836.141 499.694 C 834.055 497.607, 833.012 497.488, 814.724 497.250 C 799.993 497.058, 794.772 497.325, 792.384 498.395 M 661.750 513.080 C 660.787 513.641, 659.362 515.333, 658.582 516.841 C 656.841 520.209, 655 532.917, 655 541.572 L 655 548 665.638 548 L 676.276 548 675.605 540.250 C 673.641 517.573, 669.152 508.769, 661.750 513.080 M 258 525.368 L 258 538 263.599 538 C 274.103 538, 278.500 533.979, 278.500 524.371 C 278.500 519.934, 278.055 518.600, 275.832 516.378 C 273.535 514.080, 272.113 513.643, 265.582 513.224 L 258 512.737 258 525.368 M 417.648 518.250 C 417.301 521.138, 417.013 526.538, 417.009 530.250 L 417 537 423.050 537 C 429.627 537, 433.971 535.307, 436.439 531.783 C 438.241 529.211, 438.529 520.857, 436.920 517.850 C 435.387 514.987, 429.960 513, 423.671 513 L 418.279 513 417.648 518.250" stroke="none" fill="#ffffff" fill-rule="evenodd"/><path d="M 229.628 409.110 C 216.774 412.129, 203.379 423.437, 196.683 436.924 L 192.500 445.348 192.224 536.200 L 191.949 627.052 194.323 633.878 C 199.104 647.627, 207.435 656.954, 221 663.745 L 228.500 667.500 536 667.500 L 843.500 667.500 851.024 663.907 C 865.718 656.889, 876.259 643.708, 879.533 628.257 C 881.653 618.257, 881.650 457.732, 879.531 447.730 C 875.823 430.235, 862.205 415.283, 845.145 409.977 C 838.870 408.025, 834.935 408.001, 536.145 408.100 C 358.390 408.159, 231.902 408.576, 229.628 409.110 M 497.500 497.399 C 483.800 501.732, 477.113 511.309, 474.846 529.846 C 473.424 541.463, 475.090 555.415, 478.865 563.507 C 484.266 575.084, 491.930 580.049, 505.540 580.791 C 521.330 581.651, 531.689 577.279, 536.437 567.751 C 541.205 558.183, 539.266 550.542, 531.767 549.341 C 525.783 548.383, 522.104 550.515, 519.472 556.466 C 516.584 562.997, 515.101 564.164, 509.582 564.248 C 501.998 564.362, 499.334 560.401, 497.942 546.945 C 496.854 536.432, 497.997 522.915, 500.403 517.846 C 504.953 508.257, 517.611 510.914, 519.356 521.824 C 520.298 527.719, 523.714 531, 528.907 531 C 537.300 531, 540.668 527.290, 539.700 519.114 C 538.501 508.990, 531.382 500.379, 521.878 497.556 C 515.651 495.707, 503.105 495.626, 497.500 497.399 M 655 498.242 C 644.574 503.827, 638.956 517.175, 636.075 543.211 C 635.484 548.551, 635 557.804, 635 563.772 C 635 573.290, 635.249 574.890, 637.028 576.799 C 639.530 579.486, 642.974 580.415, 647.369 579.591 C 652.648 578.600, 654.385 575.887, 654.834 567.927 L 655.226 561 665.500 561 L 675.774 561 676.177 568.121 C 676.532 574.406, 676.904 575.520, 679.345 577.621 C 681.464 579.443, 683.286 580, 687.133 580 C 691.403 580, 692.612 579.541, 695.223 576.931 L 698.291 573.862 697.698 557.681 C 696.504 525.095, 690.877 506.579, 679.977 499.366 C 676.526 497.083, 674.505 496.568, 667.674 496.232 C 660.495 495.880, 658.952 496.125, 655 498.242 M 731.500 496.672 C 718.736 499.481, 712.584 507.299, 712.644 520.635 C 712.701 533.568, 718.451 539.621, 736.371 545.613 C 747.492 549.332, 750.485 552.421, 750.115 559.801 C 749.953 563.033, 744.090 565.391, 738.353 564.530 C 735.005 564.028, 733.315 563.018, 730.685 559.946 C 726.311 554.835, 722.627 553.519, 717.446 555.216 C 709.984 557.661, 709.635 565.270, 716.630 573.012 C 721.963 578.916, 727.255 580.504, 741.500 580.478 C 751.908 580.459, 754.195 580.145, 758.742 578.109 C 768.214 573.866, 772.982 566.408, 772.994 555.815 C 773.008 544.259, 767.582 539.027, 750 533.644 C 735.922 529.333, 732.163 525.793, 733.389 518 C 734.096 513.504, 737.193 511, 742.046 511 C 748.811 511, 750.684 512.322, 752.620 518.464 C 754.872 525.608, 756.981 527.500, 762.692 527.500 C 766.362 527.500, 767.610 526.992, 769.587 524.694 C 772.313 521.525, 772.456 520.226, 770.887 512.910 C 769.396 505.957, 763.367 499.781, 755.911 497.566 C 750.992 496.105, 736.489 495.574, 731.500 496.672 M 239.027 499.819 L 236 502.846 236 538.500 L 236 574.154 238.923 577.077 C 241.353 579.507, 242.661 579.998, 246.673 579.985 C 256.465 579.955, 259.646 575.271, 258.618 562.396 L 258.050 555.293 266.775 554.727 C 288.643 553.308, 301.372 541.607, 301.287 523 C 301.230 510.465, 297.117 503.763, 287.066 499.825 C 282.192 497.916, 279.046 497.592, 261.777 497.219 L 242.054 496.792 239.027 499.819 M 319.500 498.208 C 315.148 500.704, 315.065 501.303, 315.032 530.568 C 314.996 562.605, 315.562 566.183, 321.670 572.472 C 327.996 578.986, 332.663 580.493, 346.500 580.493 C 356.595 580.493, 359.214 580.160, 363 578.394 C 368.712 575.728, 372.726 571.716, 375.397 566 C 377.358 561.803, 377.521 559.526, 377.806 532.229 L 378.111 502.957 375.010 499.856 C 372.158 497.004, 371.494 496.794, 366.768 497.248 C 358.277 498.064, 358.018 498.768, 357.900 521.361 C 357.845 531.887, 357.507 544.927, 357.150 550.337 C 356.545 559.497, 356.307 560.341, 353.694 562.587 C 350.288 565.516, 344.250 565.833, 341.061 563.250 C 337.667 560.500, 337.049 555.228, 337.024 528.797 C 336.999 502.607, 336.609 500.054, 332.343 498.110 C 329.203 496.680, 322.070 496.734, 319.500 498.208 M 398.556 499.353 C 397.078 500.832, 395.980 503.087, 395.953 504.705 C 395.624 524.230, 396.004 573.438, 396.496 574.988 C 397.409 577.864, 402.111 580, 407.527 580 C 411.308 580, 412.689 579.465, 415.077 577.077 C 417.985 574.169, 418 574.092, 418 562.077 L 418 550 421.550 550 C 429.208 550, 433.854 555.190, 436.067 566.217 C 438.446 578.071, 441.193 580.516, 451.309 579.784 C 461.080 579.077, 462.999 574.615, 459.017 561.855 C 456.446 553.618, 453.982 549.724, 449.105 546.191 L 445.144 543.321 449.051 541.598 C 462.031 535.871, 465.318 515.318, 454.917 504.917 C 448.786 498.786, 444.274 497.756, 421.306 497.245 L 401.113 496.797 398.556 499.353 M 556.455 499.455 L 554 501.909 554 537.873 C 554 557.653, 554.280 574.565, 554.621 575.455 C 555.589 577.976, 560.445 580, 565.527 580 C 569.308 580, 570.689 579.465, 573.077 577.077 L 576 574.154 576 560.542 L 576 546.930 586.123 547.215 L 596.246 547.500 596.071 559.159 C 595.812 576.521, 597.888 580, 608.509 580 C 611.697 580, 613.652 579.343, 615.694 577.587 L 618.500 575.173 618.500 538.500 L 618.500 501.827 615.694 499.413 C 613.536 497.557, 611.733 497, 607.878 497 C 597.748 497, 595.820 500.485, 596.069 518.338 L 596.239 530.500 586.119 530.785 L 576 531.070 576 516.958 L 576 502.846 573.077 499.923 C 570.539 497.386, 569.412 497, 564.531 497 C 559.895 497, 558.479 497.431, 556.455 499.455 M 791.364 498.170 C 787.253 500.160, 787 502.536, 787 539.124 L 787 574.154 789.978 577.132 L 792.957 580.111 814.568 579.805 C 835.903 579.504, 836.205 579.470, 838.090 577.139 C 840.917 573.645, 840.587 568.607, 837.365 566.073 C 835.010 564.220, 833.366 564, 821.865 564 L 809 564 809 555.500 L 809 547 818.865 547 C 827.331 547, 829.104 546.706, 831.365 544.927 C 835.087 542, 835.087 536, 831.365 533.073 C 829.104 531.294, 827.331 531, 818.865 531 L 809 531 809 522.079 L 809 513.159 822.091 512.829 C 834.445 512.519, 835.289 512.367, 837.091 510.139 C 839.750 506.851, 839.524 502.433, 836.545 499.455 C 834.096 497.005, 834.051 497, 813.795 497.068 C 802.010 497.107, 792.604 497.569, 791.364 498.170 M 258.658 518.169 C 258.305 521.101, 258.013 526.763, 258.009 530.750 L 258 538 262.250 537.994 C 269.324 537.985, 273.889 536.230, 276.048 532.689 C 277.970 529.537, 278.684 521.947, 277.379 518.545 C 276.438 516.094, 272.173 514.310, 265.399 513.536 L 259.298 512.838 258.658 518.169 M 418 524.920 L 418 537 421.750 536.994 C 431 536.981, 436.783 533.113, 437.667 526.348 C 438.287 521.607, 436.824 517.568, 433.795 515.656 C 432.533 514.860, 428.462 513.901, 424.750 513.525 L 418 512.841 418 524.920 M 661.289 513.800 C 658.900 515.319, 657.043 521.974, 656.031 532.646 C 655.465 538.616, 655.001 544.288, 655.001 545.250 C 655 546.803, 656.156 547, 665.276 547 L 675.553 547 675.251 542.750 C 674.104 526.630, 671.354 515.795, 667.945 513.971 C 665.780 512.812, 662.958 512.739, 661.289 513.800" stroke="none" fill="#ced5d5" fill-rule="evenodd"/><path d="M 385.750 407.750 C 468.387 407.891, 603.612 407.891, 686.250 407.750 C 768.887 407.609, 701.275 407.493, 536 407.493 C 370.725 407.493, 303.112 407.609, 385.750 407.750 M 191.478 538 C 191.478 585.575, 191.600 605.038, 191.750 581.250 C 191.899 557.463, 191.899 518.538, 191.750 494.750 C 191.600 470.963, 191.478 490.425, 191.478 538 M 575.397 517 C 575.397 524.975, 575.553 528.237, 575.743 524.250 C 575.932 520.263, 575.932 513.737, 575.743 509.750 C 575.553 505.762, 575.397 509.025, 575.397 517 M 618.450 538.500 C 618.451 557.750, 618.585 565.483, 618.749 555.685 C 618.913 545.888, 618.912 530.138, 618.748 520.685 C 618.584 511.233, 618.450 519.250, 618.450 538.500 M 596.385 517 C 596.385 523.875, 596.545 526.688, 596.740 523.250 C 596.936 519.813, 596.936 514.188, 596.740 510.750 C 596.545 507.313, 596.385 510.125, 596.385 517 M 236.436 538.500 C 236.436 552.800, 236.577 558.511, 236.748 551.191 C 236.919 543.871, 236.918 532.171, 236.747 525.191 C 236.575 518.211, 236.435 524.200, 236.436 538.500 M 417.355 528.500 C 417.352 533.450, 417.521 535.601, 417.731 533.280 C 417.940 530.959, 417.943 526.909, 417.736 524.280 C 417.530 521.651, 417.358 523.550, 417.355 528.500 M 474.310 538.500 C 474.315 541.800, 474.502 543.029, 474.725 541.232 C 474.947 539.435, 474.943 536.735, 474.715 535.232 C 474.486 533.729, 474.304 535.200, 474.310 538.500 M 357.336 550 C 357.336 554.125, 357.513 555.813, 357.728 553.750 C 357.944 551.688, 357.944 548.313, 357.728 546.250 C 357.513 544.188, 357.336 545.875, 357.336 550 M 575.395 560.500 C 575.396 568.200, 575.553 571.218, 575.743 567.206 C 575.934 563.195, 575.932 556.895, 575.741 553.206 C 575.549 549.518, 575.393 552.800, 575.395 560.500 M 660.287 547.740 C 663.469 547.939, 668.419 547.937, 671.287 547.736 C 674.154 547.535, 671.550 547.372, 665.500 547.374 C 659.450 547.376, 657.104 547.541, 660.287 547.740 M 596.382 560.500 C 596.384 567.100, 596.546 569.670, 596.741 566.211 C 596.937 562.752, 596.936 557.352, 596.738 554.211 C 596.540 551.070, 596.380 553.900, 596.382 560.500 M 258.310 565.500 C 258.315 568.800, 258.502 570.029, 258.725 568.232 C 258.947 566.435, 258.943 563.735, 258.715 562.232 C 258.486 560.729, 258.304 562.200, 258.310 565.500 M 654.320 567 C 654.320 570.575, 654.502 572.038, 654.723 570.250 C 654.945 568.462, 654.945 565.538, 654.723 563.750 C 654.502 561.962, 654.320 563.425, 654.320 567 M 676.320 567 C 676.320 570.575, 676.502 572.038, 676.723 570.250 C 676.945 568.462, 676.945 565.538, 676.723 563.750 C 676.502 561.962, 676.320 563.425, 676.320 567 M 384.750 668.750 C 467.937 668.891, 604.062 668.891, 687.250 668.750 C 770.437 668.609, 702.375 668.494, 536 668.494 C 369.625 668.494, 301.562 668.609, 384.750 668.750" stroke="none" fill="#fbfbfb" fill-rule="evenodd"/><path d="" stroke="none" fill="#ccd4d4" fill-rule="evenodd"/></svg>