<svg xmlns="http://www.w3.org/2000/svg" width="1080" height="1080" viewBox="0 0 1080 1080" version="1.1"><path d="M 173.348 355.420 C 159.121 358.871, 145.833 369.859, 139.274 383.597 L 135.500 391.500 135.500 540 L 135.500 688.500 139.274 696.403 C 145.988 710.467, 160.195 721.862, 174.799 724.898 C 182.329 726.464, 897.671 726.464, 905.201 724.898 C 919.805 721.862, 934.012 710.467, 940.726 696.403 L 944.500 688.500 944.500 540 L 944.500 391.500 940.726 383.597 C 933.941 369.385, 919.978 358.187, 905.201 355.105 C 897.056 353.407, 180.377 353.715, 173.348 355.420 M 228.447 409.403 C 213.502 414.084, 201.585 424.964, 194.933 440 L 192.500 445.500 192.229 535.923 C 191.988 616.533, 192.133 626.951, 193.566 631.923 C 197.458 645.426, 207.590 657.281, 220.725 663.700 L 228.500 667.500 536 667.500 L 843.500 667.500 851 663.902 C 863.773 657.773, 872.514 648.429, 877.791 635.260 L 880.500 628.500 880.781 541.291 C 881.090 445.606, 881.176 447.221, 875.120 435.250 C 869.220 423.589, 857.702 413.842, 845.295 410.009 C 838.838 408.015, 836.527 408, 535.645 408.067 C 293.602 408.120, 231.683 408.390, 228.447 409.403 M 496.205 497.894 C 481.498 502.974, 474.703 515.784, 474.665 538.500 C 474.637 555.793, 478.014 566.166, 486.033 573.411 C 491.687 578.519, 496.022 580.152, 505.500 580.746 C 521.148 581.728, 531.675 577.306, 536.437 567.751 C 538.896 562.816, 539.695 556.974, 538.379 553.545 C 537.581 551.465, 532.818 549, 529.597 549 C 524.969 549, 522.067 551.164, 519.543 556.501 C 516.401 563.142, 514.926 564.289, 509.375 564.405 C 500.729 564.586, 497.718 557.791, 497.674 538 C 497.631 519.190, 500.674 512, 508.675 512 C 515.488 512, 517.238 513.823, 519.917 523.714 C 521.284 528.758, 524.132 531, 529.175 531 C 537.290 531, 540.657 527.197, 539.700 519.114 C 538.507 509.038, 531.230 500.334, 521.612 497.477 C 514.748 495.439, 502.743 495.636, 496.205 497.894 M 657.239 497.335 C 651.717 499.337, 647.274 503.696, 644.084 510.238 C 638.523 521.644, 635 542.655, 635 564.417 C 635 573.287, 635.265 574.908, 637.028 576.799 C 639.654 579.619, 643.377 580.508, 647.887 579.393 C 652.488 578.256, 654.996 573.620, 654.998 566.250 L 655 561 665.387 561 L 675.774 561 676.170 568.005 C 676.678 576.996, 678.532 579.131, 686.397 579.783 C 691.546 580.210, 692.126 580.028, 695.108 577.046 L 698.302 573.852 697.700 557.676 C 696.413 523.049, 690.398 504.994, 678.071 498.750 C 672.063 495.707, 663.357 495.116, 657.239 497.335 M 728.148 497.913 C 720.953 500.398, 717.979 502.800, 715.050 508.491 C 709.846 518.603, 712.766 533.170, 721.103 538.687 C 723.226 540.092, 729.547 542.980, 735.150 545.104 C 746.108 549.260, 749.510 551.657, 750.298 555.778 C 751.087 559.907, 749.476 562.688, 745.541 563.986 C 739.691 565.917, 734.877 564.503, 730.047 559.435 C 727.722 556.996, 724.848 554.930, 723.660 554.844 C 715.654 554.268, 712 556.533, 712 562.073 C 712 567.069, 713.876 570.806, 718.363 574.746 C 723.694 579.427, 728.037 580.503, 741.500 580.478 C 751.908 580.459, 754.195 580.145, 758.742 578.109 C 765.201 575.215, 770.515 569.508, 772.057 563.807 C 773.849 557.184, 772.711 548.621, 769.476 544.379 C 765.767 539.517, 762.312 537.620, 750.266 533.833 C 744.249 531.941, 738.578 529.458, 736.710 527.899 C 733.852 525.513, 733.500 524.649, 733.500 520.021 C 733.500 512.868, 736.182 510.602, 743.889 511.241 C 749.968 511.745, 751.397 513.019, 753.113 519.469 C 755.080 526.858, 759.770 529.377, 766.403 526.605 C 770.747 524.790, 772.376 521.208, 771.433 515.545 C 769.840 505.969, 763.311 499.090, 753.900 497.072 C 746.163 495.413, 734.264 495.802, 728.148 497.913 M 238.991 499.855 L 235.928 502.918 236.214 538.933 C 236.494 574.198, 236.544 574.991, 238.638 577.084 C 242.980 581.424, 254.580 580.505, 257.214 575.613 C 257.876 574.384, 258.273 569.631, 258.164 564.250 L 257.976 555 263.738 554.985 C 286.612 554.927, 301.295 542.364, 301.210 522.924 C 301.154 510.136, 296.851 503.498, 285.931 499.360 C 282.514 498.064, 276.986 497.578, 261.777 497.236 L 242.054 496.792 238.991 499.855 M 319.321 498.189 C 315.210 500.177, 314.869 503.101, 315.193 533.595 L 315.500 562.500 318.418 567.767 C 323.863 577.595, 333.885 581.709, 350 580.732 C 360.347 580.105, 366.179 577.758, 371.201 572.199 C 377.370 565.371, 378 561.481, 378 530.242 L 378 502.846 375.077 499.923 C 372.921 497.767, 371.202 497, 368.527 497 C 364.328 497, 359.519 499.206, 358.621 501.545 C 358.280 502.435, 357.977 512.914, 357.949 524.832 C 357.880 553.598, 357.198 559.573, 353.627 562.644 C 350.411 565.410, 344.587 565.800, 341.261 563.471 C 337.634 560.930, 337.011 555.839, 337.006 528.673 L 337 502.846 334.077 499.923 C 331.624 497.470, 330.377 497.011, 326.327 497.068 C 323.672 497.105, 320.520 497.609, 319.321 498.189 M 400.315 497.954 C 399.114 498.467, 397.651 499.783, 397.065 500.878 C 396.368 502.181, 396 515.327, 396 538.934 C 396 573.512, 396.081 575.081, 397.975 576.975 C 402.193 581.193, 411.937 580.937, 415.748 576.506 C 417.812 574.107, 418 572.892, 418 561.944 L 418 550 421.750 550.004 C 429.570 550.012, 433.868 555.091, 436.435 567.359 C 437.162 570.834, 438.244 574.588, 438.840 575.701 C 440.492 578.788, 445.277 580.308, 451.671 579.777 C 461.309 578.978, 463.180 573.796, 458.557 560.697 C 455.752 552.747, 452.156 547.649, 447.747 545.369 L 444.597 543.740 449.239 541.381 C 466.421 532.649, 464.621 506.173, 446.393 499.492 C 442.467 498.054, 437.646 497.632, 422 497.360 C 411.275 497.173, 401.517 497.440, 400.315 497.954 M 558.315 498.007 C 557.114 498.491, 555.651 499.783, 555.065 500.878 C 554.368 502.181, 554 515.327, 554 538.934 C 554 573.512, 554.081 575.081, 555.975 576.975 C 559.890 580.890, 569.510 580.932, 573.397 577.051 C 575.298 575.152, 575.531 573.604, 575.826 560.941 L 576.152 546.932 586.326 547.216 L 596.500 547.500 596.500 560.536 C 596.500 571.242, 596.811 574.048, 598.242 576.239 C 601.240 580.828, 612.157 581.287, 616.440 577.004 C 618.445 575, 618.500 573.965, 618.500 538.386 L 618.500 501.827 615.694 499.413 C 613.503 497.529, 611.745 497, 607.667 497 C 597.822 497, 595.735 501.054, 596.208 519.262 L 596.500 530.500 586.324 530.784 L 576.149 531.068 575.824 516.445 C 575.500 501.832, 575.498 501.820, 572.694 499.411 C 570.556 497.573, 568.772 497.015, 565.194 497.063 C 562.612 497.098, 559.517 497.523, 558.315 498.007 M 791.364 498.140 C 787.251 500.189, 787 502.542, 787 539.124 L 787 574.154 789.978 577.132 L 792.957 580.111 814.568 579.805 C 835.903 579.504, 836.205 579.470, 838.090 577.139 C 840.917 573.645, 840.587 568.607, 837.365 566.073 C 835.010 564.220, 833.366 564, 821.865 564 L 809 564 809 555.500 L 809 547 818.865 547 C 827.331 547, 829.104 546.706, 831.365 544.927 C 834.587 542.393, 834.917 537.355, 832.090 533.861 C 830.338 531.696, 829.303 531.472, 819.590 531.159 L 809 530.818 809 521.988 L 809 513.159 822.091 512.829 C 834.445 512.519, 835.289 512.367, 837.091 510.139 C 839.529 507.124, 839.529 502.876, 837.090 499.861 C 835.204 497.530, 834.917 497.497, 814.340 497.288 C 801.189 497.155, 792.712 497.469, 791.364 498.140 M 258.650 514.470 C 258.293 515.401, 258 521.077, 258 527.082 L 258 538 262.250 537.994 C 268.038 537.987, 273.336 536.391, 275.496 534.005 C 277.445 531.851, 278.640 523.684, 277.608 519.572 C 276.780 516.275, 272.827 514.306, 265.337 513.459 C 260.191 512.876, 259.204 513.026, 258.650 514.470 M 418 525.139 L 418 537.278 423.750 536.745 C 426.913 536.452, 430.716 535.652, 432.202 534.968 C 435.453 533.470, 438 528.500, 438 523.655 C 438 516.908, 432.129 513.189, 421.250 513.044 L 418 513 418 525.139 M 661.289 513.775 C 658.959 515.305, 657.098 521.763, 656.054 531.946 C 654.337 548.669, 653.309 547, 665.332 547 L 675.665 547 675.267 541.250 C 674.617 531.842, 672.202 520.032, 670.239 516.656 C 668.367 513.438, 663.961 512.020, 661.289 513.775" stroke="none" fill="#ffffff" fill-rule="evenodd"/><path d="M 228.447 409.403 C 213.502 414.084, 201.585 424.964, 194.933 440 L 192.500 445.500 192.229 535.923 C 191.988 616.533, 192.133 626.951, 193.566 631.923 C 197.458 645.426, 207.590 657.281, 220.725 663.700 L 228.500 667.500 536 667.500 L 843.500 667.500 851 663.902 C 863.773 657.773, 872.514 648.429, 877.791 635.260 L 880.500 628.500 880.781 541.291 C 881.090 445.606, 881.176 447.221, 875.120 435.250 C 869.220 423.589, 857.702 413.842, 845.295 410.009 C 838.838 408.015, 836.527 408, 535.645 408.067 C 293.602 408.120, 231.683 408.390, 228.447 409.403 M 496.205 497.894 C 481.498 502.974, 474.703 515.784, 474.665 538.500 C 474.637 555.793, 478.014 566.166, 486.033 573.411 C 491.687 578.519, 496.022 580.152, 505.500 580.746 C 521.148 581.728, 531.675 577.306, 536.437 567.751 C 538.896 562.816, 539.695 556.974, 538.379 553.545 C 537.581 551.465, 532.818 549, 529.597 549 C 524.969 549, 522.067 551.164, 519.543 556.501 C 516.401 563.142, 514.926 564.289, 509.375 564.405 C 500.729 564.586, 497.718 557.791, 497.674 538 C 497.631 519.190, 500.674 512, 508.675 512 C 515.488 512, 517.238 513.823, 519.917 523.714 C 521.284 528.758, 524.132 531, 529.175 531 C 537.290 531, 540.657 527.197, 539.700 519.114 C 538.507 509.038, 531.230 500.334, 521.612 497.477 C 514.748 495.439, 502.743 495.636, 496.205 497.894 M 657.239 497.335 C 651.717 499.337, 647.274 503.696, 644.084 510.238 C 638.523 521.644, 635 542.655, 635 564.417 C 635 573.287, 635.265 574.908, 637.028 576.799 C 639.654 579.619, 643.377 580.508, 647.887 579.393 C 652.488 578.256, 654.996 573.620, 654.998 566.250 L 655 561 665.387 561 L 675.774 561 676.170 568.005 C 676.678 576.996, 678.532 579.131, 686.397 579.783 C 691.546 580.210, 692.126 580.028, 695.108 577.046 L 698.302 573.852 697.700 557.676 C 696.413 523.049, 690.398 504.994, 678.071 498.750 C 672.063 495.707, 663.357 495.116, 657.239 497.335 M 728.148 497.913 C 720.953 500.398, 717.979 502.800, 715.050 508.491 C 709.846 518.603, 712.766 533.170, 721.103 538.687 C 723.226 540.092, 729.547 542.980, 735.150 545.104 C 746.108 549.260, 749.510 551.657, 750.298 555.778 C 751.087 559.907, 749.476 562.688, 745.541 563.986 C 739.691 565.917, 734.877 564.503, 730.047 559.435 C 727.722 556.996, 724.848 554.930, 723.660 554.844 C 715.654 554.268, 712 556.533, 712 562.073 C 712 567.069, 713.876 570.806, 718.363 574.746 C 723.694 579.427, 728.037 580.503, 741.500 580.478 C 751.908 580.459, 754.195 580.145, 758.742 578.109 C 765.201 575.215, 770.515 569.508, 772.057 563.807 C 773.849 557.184, 772.711 548.621, 769.476 544.379 C 765.767 539.517, 762.312 537.620, 750.266 533.833 C 744.249 531.941, 738.578 529.458, 736.710 527.899 C 733.852 525.513, 733.500 524.649, 733.500 520.021 C 733.500 512.868, 736.182 510.602, 743.889 511.241 C 749.968 511.745, 751.397 513.019, 753.113 519.469 C 755.080 526.858, 759.770 529.377, 766.403 526.605 C 770.747 524.790, 772.376 521.208, 771.433 515.545 C 769.840 505.969, 763.311 499.090, 753.900 497.072 C 746.163 495.413, 734.264 495.802, 728.148 497.913 M 238.991 499.855 L 235.928 502.918 236.214 538.933 C 236.494 574.198, 236.544 574.991, 238.638 577.084 C 242.980 581.424, 254.580 580.505, 257.214 575.613 C 257.876 574.384, 258.273 569.631, 258.164 564.250 L 257.976 555 263.738 554.985 C 286.612 554.927, 301.295 542.364, 301.210 522.924 C 301.154 510.136, 296.851 503.498, 285.931 499.360 C 282.514 498.064, 276.986 497.578, 261.777 497.236 L 242.054 496.792 238.991 499.855 M 319.321 498.189 C 315.210 500.177, 314.869 503.101, 315.193 533.595 L 315.500 562.500 318.418 567.767 C 323.863 577.595, 333.885 581.709, 350 580.732 C 360.347 580.105, 366.179 577.758, 371.201 572.199 C 377.370 565.371, 378 561.481, 378 530.242 L 378 502.846 375.077 499.923 C 372.921 497.767, 371.202 497, 368.527 497 C 364.328 497, 359.519 499.206, 358.621 501.545 C 358.280 502.435, 357.977 512.914, 357.949 524.832 C 357.880 553.598, 357.198 559.573, 353.627 562.644 C 350.411 565.410, 344.587 565.800, 341.261 563.471 C 337.634 560.930, 337.011 555.839, 337.006 528.673 L 337 502.846 334.077 499.923 C 331.624 497.470, 330.377 497.011, 326.327 497.068 C 323.672 497.105, 320.520 497.609, 319.321 498.189 M 400.315 497.954 C 399.114 498.467, 397.651 499.783, 397.065 500.878 C 396.368 502.181, 396 515.327, 396 538.934 C 396 573.512, 396.081 575.081, 397.975 576.975 C 402.193 581.193, 411.937 580.937, 415.748 576.506 C 417.812 574.107, 418 572.892, 418 561.944 L 418 550 421.750 550.004 C 429.570 550.012, 433.868 555.091, 436.435 567.359 C 437.162 570.834, 438.244 574.588, 438.840 575.701 C 440.492 578.788, 445.277 580.308, 451.671 579.777 C 461.309 578.978, 463.180 573.796, 458.557 560.697 C 455.752 552.747, 452.156 547.649, 447.747 545.369 L 444.597 543.740 449.239 541.381 C 466.421 532.649, 464.621 506.173, 446.393 499.492 C 442.467 498.054, 437.646 497.632, 422 497.360 C 411.275 497.173, 401.517 497.440, 400.315 497.954 M 558.315 498.007 C 557.114 498.491, 555.651 499.783, 555.065 500.878 C 554.368 502.181, 554 515.327, 554 538.934 C 554 573.512, 554.081 575.081, 555.975 576.975 C 559.890 580.890, 569.510 580.932, 573.397 577.051 C 575.298 575.152, 575.531 573.604, 575.826 560.941 L 576.152 546.932 586.326 547.216 L 596.500 547.500 596.500 560.536 C 596.500 571.242, 596.811 574.048, 598.242 576.239 C 601.240 580.828, 612.157 581.287, 616.440 577.004 C 618.445 575, 618.500 573.965, 618.500 538.386 L 618.500 501.827 615.694 499.413 C 613.503 497.529, 611.745 497, 607.667 497 C 597.822 497, 595.735 501.054, 596.208 519.262 L 596.500 530.500 586.324 530.784 L 576.149 531.068 575.824 516.445 C 575.500 501.832, 575.498 501.820, 572.694 499.411 C 570.556 497.573, 568.772 497.015, 565.194 497.063 C 562.612 497.098, 559.517 497.523, 558.315 498.007 M 791.364 498.140 C 787.251 500.189, 787 502.542, 787 539.124 L 787 574.154 789.978 577.132 L 792.957 580.111 814.568 579.805 C 835.903 579.504, 836.205 579.470, 838.090 577.139 C 840.917 573.645, 840.587 568.607, 837.365 566.073 C 835.010 564.220, 833.366 564, 821.865 564 L 809 564 809 555.500 L 809 547 818.865 547 C 827.331 547, 829.104 546.706, 831.365 544.927 C 834.587 542.393, 834.917 537.355, 832.090 533.861 C 830.338 531.696, 829.303 531.472, 819.590 531.159 L 809 530.818 809 521.988 L 809 513.159 822.091 512.829 C 834.445 512.519, 835.289 512.367, 837.091 510.139 C 839.529 507.124, 839.529 502.876, 837.090 499.861 C 835.204 497.530, 834.917 497.497, 814.340 497.288 C 801.189 497.155, 792.712 497.469, 791.364 498.140 M 258.650 514.470 C 258.293 515.401, 258 521.077, 258 527.082 L 258 538 262.250 537.994 C 268.038 537.987, 273.336 536.391, 275.496 534.005 C 277.445 531.851, 278.640 523.684, 277.608 519.572 C 276.780 516.275, 272.827 514.306, 265.337 513.459 C 260.191 512.876, 259.204 513.026, 258.650 514.470 M 418 525.139 L 418 537.278 423.750 536.745 C 426.913 536.452, 430.716 535.652, 432.202 534.968 C 435.453 533.470, 438 528.500, 438 523.655 C 438 516.908, 432.129 513.189, 421.250 513.044 L 418 513 418 525.139 M 661.289 513.775 C 658.959 515.305, 657.098 521.763, 656.054 531.946 C 654.337 548.669, 653.309 547, 665.332 547 L 675.665 547 675.267 541.250 C 674.617 531.842, 672.202 520.032, 670.239 516.656 C 668.367 513.438, 663.961 512.020, 661.289 513.775" stroke="none" fill="#84fcc4" fill-rule="evenodd"/></svg>