<svg xmlns="http://www.w3.org/2000/svg" width="1080" height="1080" viewBox="0 0 1080 1080" version="1.1"><path d="M 69.724 404.434 C 65.997 405.749, 60.708 408.262, 57.971 410.018 C 47.075 417.010, 38.249 430.609, 36.044 443.801 C 35.250 448.550, 35.008 484.703, 35.213 568 L 35.502 685.500 37.755 691.419 C 44.175 708.281, 59.098 721.412, 75.799 724.895 C 82.806 726.356, 994.579 726.466, 1003.500 725.007 C 1006.800 724.467, 1012.425 722.595, 1016 720.846 C 1024.386 716.743, 1035.468 705.741, 1039.340 697.674 C 1045.084 685.707, 1044.964 688.527, 1044.975 564.500 C 1044.981 491.130, 1044.618 448.183, 1043.955 444 C 1040.965 425.128, 1026.780 409.163, 1008.068 403.612 C 1003.107 402.139, 962.553 402.002, 539.568 402.021 L 76.500 402.042 69.724 404.434 M 122.843 451.560 C 110.635 455.491, 98.848 465.537, 93.005 476.991 C 88.066 486.672, 88 487.837, 88 565.713 C 88 629.536, 88.199 639.315, 89.595 644.068 C 94.445 660.580, 106.897 673.684, 122.733 678.941 L 128.965 681.009 543.733 680.755 L 958.500 680.500 966.034 676.816 C 979.433 670.265, 989.004 659.381, 993.035 646.110 C 994.989 639.677, 995.041 637.211, 994.774 562.914 L 994.500 486.347 990.266 477.803 C 983.455 464.060, 971.640 454.384, 956.869 450.453 C 952.256 449.225, 893.734 449.029, 541 449.059 L 130.500 449.094 122.843 451.560" stroke="none" fill="#ffc7c2" fill-rule="evenodd"/><path d="M 130 450.132 C 113.118 452.911, 97.265 466.426, 90.766 483.581 C 88.531 489.482, 88.523 489.712, 88.219 561 C 87.884 639.466, 88.018 641.769, 93.552 652.831 C 99.930 665.581, 109.522 673.840, 123.338 678.478 L 130.853 681 541.216 681 C 906.673 681, 952.224 680.832, 957.465 679.467 C 975.212 674.845, 990.120 659.134, 993.966 641 C 994.812 637.013, 995.046 615.278, 994.816 562 L 994.500 488.500 992.144 482.660 C 986.324 468.230, 974.221 456.539, 960.155 451.761 L 953.500 449.500 544.500 449.363 C 304.331 449.283, 133.230 449.600, 130 450.132 M 956.693 592.640 C 956.341 592.992, 954.058 593.363, 951.619 593.465 C 945.739 593.710, 942.589 595.950, 938.170 603.030 C 936.151 606.264, 934.174 608.930, 933.776 608.955 C 933.377 608.980, 932.394 607.729, 931.590 606.175 C 929.809 602.729, 922.527 596, 920.580 596 C 919.803 596, 919.002 595.505, 918.800 594.900 C 918.585 594.255, 914.874 593.641, 909.831 593.418 C 901.637 593.054, 901.062 593.169, 897.697 595.843 C 892.689 599.823, 889.047 604.400, 887.850 608.216 C 886.640 612.078, 886.655 625.155, 887.872 625.951 C 888.334 626.253, 889.019 628.175, 889.396 630.221 C 889.772 632.268, 890.959 634.558, 892.034 635.311 C 893.108 636.064, 893.783 636.883, 893.534 637.133 C 893.285 637.382, 894.225 638.917, 895.624 640.543 C 897.023 642.169, 899.143 644.792, 900.334 646.371 C 901.525 647.950, 903.336 649.975, 904.357 650.871 C 905.378 651.767, 908.742 654.862, 911.832 657.750 C 914.922 660.638, 917.718 663, 918.045 663 C 918.372 663, 920.152 664.350, 922 666 C 923.848 667.650, 925.749 669, 926.224 669 C 926.699 669, 928.279 670.105, 929.735 671.455 C 932.009 673.563, 933.024 673.826, 936.941 673.320 C 939.448 672.996, 942.175 672.169, 943 671.484 C 943.825 670.798, 945.475 669.940, 946.668 669.577 C 950.212 668.499, 953.814 665.162, 957.918 659.157 C 960.044 656.046, 963.673 651.475, 965.983 649 C 971.668 642.908, 978.748 633.415, 981.220 628.569 C 985.555 620.072, 982.415 605.673, 974.727 598.791 C 972.449 596.751, 970.397 595.270, 970.168 595.498 C 969.940 595.727, 968.026 595.034, 965.916 593.957 C 962.105 592.013, 957.918 591.415, 956.693 592.640 M 955.996 599.008 C 954.817 601.318, 954.339 602.908, 954.933 602.541 C 956.361 601.659, 959.288 595.954, 958.643 595.310 C 958.366 595.033, 957.175 596.697, 955.996 599.008" stroke="none" fill="#ffffff" fill-rule="evenodd"/><path d="M 903.300 593.963 C 898.715 594.732, 890.456 602.659, 888.557 608.113 C 886.602 613.725, 886.571 622.949, 888.494 626.636 C 889.315 628.211, 889.990 630.261, 889.994 631.191 C 889.997 632.121, 890.455 633.163, 891.012 633.507 C 891.568 633.851, 893.534 636.465, 895.380 639.316 C 900.309 646.927, 914.500 660.969, 920.250 663.924 C 921.763 664.702, 923 665.712, 923 666.169 C 923 666.626, 923.446 667, 923.991 667 C 924.537 667, 927.050 668.578, 929.576 670.506 C 934.159 674.005, 936.646 674.272, 935.566 671.149 C 935.077 669.737, 935.191 669.751, 936.358 671.250 C 938.227 673.651, 940.234 673.444, 942.932 670.572 C 944.204 669.218, 945.858 668.392, 946.672 668.705 C 948.445 669.385, 954.233 664.054, 957.753 658.500 C 959.147 656.300, 961.685 653.124, 963.394 651.442 C 968.791 646.129, 983.045 626.625, 980.290 628.323 C 979.354 628.900, 979.331 628.327, 980.189 625.784 C 981.652 621.446, 982.448 620.736, 981.627 624.500 C 981.072 627.046, 981.146 627.213, 982.117 625.605 C 983.452 623.395, 982.617 611.217, 981.021 609.621 C 980.459 609.059, 980 607.825, 980 606.877 C 980 605.929, 978.809 603.737, 977.352 602.007 C 975.352 599.629, 974.500 599.183, 973.868 600.180 C 973.270 601.123, 973.026 600.876, 973.015 599.317 C 972.999 596.996, 969.872 595.343, 967.854 596.590 C 967.130 597.038, 966.960 596.873, 967.406 596.153 C 969.155 593.322, 957.981 591.924, 954.288 594.511 C 952.699 595.624, 951.942 595.715, 951.411 594.856 C 950.932 594.081, 951.130 593.962, 952 594.500 C 952.834 595.016, 953.067 594.917, 952.641 594.228 C 951.538 592.443, 945.859 594.662, 942.524 598.183 C 940.861 599.939, 940.288 600.786, 941.250 600.065 C 942.212 599.345, 943 599.020, 943 599.343 C 943 600.656, 935.725 613.058, 935.239 612.572 C 934.951 612.284, 935.220 611.440, 935.836 610.697 C 937.152 609.112, 940.226 602, 939.595 602 C 939.357 602, 938.148 603.688, 936.908 605.750 C 935.668 607.813, 934.517 609.677, 934.351 609.893 C 933.750 610.673, 931 607.720, 931 606.294 C 931 604.586, 924.424 597.910, 923.576 598.758 C 923.259 599.074, 923 598.797, 923 598.142 C 923 596.787, 918.723 594.796, 915 594.417 C 913.625 594.278, 911.150 593.997, 909.500 593.795 C 907.850 593.592, 905.060 593.667, 903.300 593.963 M 954.567 601.004 C 952.543 604.856, 951.168 608.463, 951.513 609.020 C 952.376 610.418, 954.251 609.097, 953.645 607.518 C 953.375 606.814, 954.249 604.626, 955.587 602.657 C 958.508 598.359, 960.276 594, 959.099 594 C 958.631 594, 956.592 597.152, 954.567 601.004 M 943.998 602.711 C 942.624 605.303, 941.643 608.048, 941.817 608.812 C 941.998 609.605, 941.666 609.911, 941.042 609.526 C 940.442 609.155, 940.071 609.222, 940.219 609.676 C 940.367 610.129, 939.446 612.179, 938.174 614.232 C 936.901 616.284, 936.111 618.371, 936.419 618.868 C 936.726 619.366, 936.308 620.329, 935.489 621.009 C 934.670 621.689, 934.010 622.752, 934.022 623.372 C 934.034 623.993, 934.888 623.403, 935.919 622.062 C 936.949 620.721, 937.538 618.959, 937.226 618.148 C 936.830 617.114, 937.057 616.917, 937.985 617.490 C 938.836 618.017, 939.069 617.921, 938.638 617.224 C 938.269 616.627, 938.462 615.832, 939.067 615.459 C 941.241 614.115, 947.352 603.493, 947.513 600.776 C 947.748 596.828, 946.858 597.318, 943.998 602.711 M 922.208 608.532 C 920.454 612.089, 919.233 615, 919.495 615 C 920.165 615, 926.211 602.878, 925.764 602.431 C 925.563 602.229, 923.962 604.975, 922.208 608.532 M 972.185 604.722 C 971.682 605.700, 971.508 607.175, 971.798 608 C 972.242 609.262, 972.073 609.292, 970.732 608.185 C 969.385 607.074, 968.981 607.168, 968.110 608.794 C 967.544 609.852, 967.303 611.942, 967.575 613.439 C 967.925 615.373, 967.724 615.948, 966.880 615.426 C 966.131 614.963, 965.955 615.118, 966.405 615.845 C 967.441 617.522, 967.781 617.323, 969.471 614.057 C 970.429 612.204, 970.624 610.885, 969.996 610.498 C 969.448 610.159, 969 609.403, 969 608.819 C 969 608.127, 969.503 608.173, 970.438 608.948 C 971.609 609.921, 972.164 609.583, 973.434 607.128 C 974.349 605.357, 974.602 603.872, 974.047 603.529 C 973.526 603.207, 972.689 603.744, 972.185 604.722 M 970.486 616.259 C 966.710 622.992, 962.758 630.075, 961.704 632 L 959.788 635.500 961.914 633 C 963.083 631.625, 966.094 626.784, 968.605 622.243 C 971.294 617.379, 973.609 614.258, 974.239 614.648 C 974.860 615.032, 975.019 614.839, 974.617 614.189 C 974.236 613.573, 974.873 611.210, 976.032 608.937 C 977.191 606.665, 977.962 604.629, 977.746 604.413 C 977.529 604.196, 974.263 609.527, 970.486 616.259 M 962.989 610.250 C 960.735 613.947, 960.603 614.637, 961.989 615.493 C 962.576 615.856, 962.710 615.407, 962.319 614.388 C 961.836 613.132, 962.015 612.891, 962.985 613.490 C 963.854 614.028, 964.070 613.922, 963.613 613.183 C 963.230 612.563, 963.662 610.919, 964.573 609.528 C 965.485 608.138, 965.947 607, 965.600 607 C 965.254 607, 964.079 608.462, 962.989 610.250 M 924.210 610.750 C 923.150 612.263, 921.717 614.625, 921.025 616 C 919.918 618.199, 919.943 618.319, 921.229 617 C 923.052 615.130, 927.347 608, 926.650 608 C 926.367 608, 925.269 609.237, 924.210 610.750 M 953.133 619.211 C 950.733 623.638, 949.283 626.943, 949.910 626.556 C 951.121 625.807, 958.349 612.015, 957.812 611.478 C 957.637 611.304, 955.532 614.784, 953.133 619.211 M 897.928 615.750 C 896.699 617.813, 895.014 620.053, 894.184 620.729 C 893.353 621.406, 892.546 623.160, 892.389 624.627 C 892.018 628.115, 893.018 626.964, 897.500 618.750 C 901.398 611.606, 901.713 609.399, 897.928 615.750 M 947.433 613.654 C 948.704 615.109, 948.469 616.104, 945.424 622.151 C 943.527 625.918, 942.200 629, 942.476 629 C 942.752 629, 944.776 625.423, 946.975 621.050 C 949.723 615.585, 950.615 612.880, 949.831 612.396 C 949.130 611.962, 948.966 612.135, 949.405 612.845 C 950.280 614.262, 948.841 614.365, 947.196 613.004 C 946.534 612.456, 946.641 612.748, 947.433 613.654 M 928.985 623.035 C 928.279 624.740, 927.409 625.662, 927.052 625.084 C 926.695 624.506, 924.653 627.289, 922.514 631.267 C 920.375 635.245, 919.301 637.952, 920.127 637.282 C 920.953 636.612, 922.681 633.816, 923.968 631.068 C 925.255 628.320, 926.670 626.296, 927.111 626.569 C 927.970 627.100, 931.447 621.113, 930.708 620.375 C 930.467 620.133, 929.691 621.331, 928.985 623.035 M 915.667 625.750 C 911.847 631.825, 904.681 645.677, 906.484 643.500 C 907.396 642.400, 908.593 641.624, 909.145 641.775 C 909.697 641.926, 909.901 641.649, 909.598 641.159 C 908.819 639.898, 914.967 628.862, 916.069 629.542 C 916.568 629.851, 916.681 629.332, 916.319 628.388 C 915.875 627.231, 916.038 626.905, 916.819 627.388 C 917.599 627.870, 917.762 627.544, 917.319 626.388 C 916.875 625.231, 917.038 624.905, 917.819 625.388 C 918.599 625.870, 918.762 625.544, 918.319 624.388 C 917.836 623.132, 918.015 622.891, 918.985 623.490 C 919.866 624.035, 920.070 623.923, 919.595 623.155 C 918.542 621.451, 918.248 621.645, 915.667 625.750 M 956.578 627.127 C 956.848 627.563, 955.674 630.684, 953.969 634.061 C 952.264 637.439, 951.033 640.366, 951.233 640.566 C 951.433 640.766, 953.221 637.645, 955.207 633.631 C 957.717 628.561, 958.402 626.333, 957.453 626.333 C 956.702 626.333, 956.309 626.690, 956.578 627.127 M 933.765 636.831 C 934.136 637.797, 933.929 638.074, 933.181 637.612 C 932.440 637.154, 932.225 637.422, 932.584 638.358 C 932.892 639.162, 932.437 641.188, 931.572 642.860 C 930.708 644.532, 930 646.248, 930 646.673 C 930 648.204, 933.094 642.985, 934.429 639.202 C 935.538 636.058, 935.550 635.333, 934.492 635.333 C 933.747 635.333, 933.436 635.974, 933.765 636.831 M 938.736 637.598 C 938.407 637.927, 938.408 638.900, 938.739 639.762 C 939.168 640.879, 938.961 641.094, 938.015 640.510 C 937.131 639.963, 936.930 640.077, 937.409 640.852 C 937.803 641.491, 937.272 643.248, 936.227 644.757 C 933.510 648.681, 932.806 650, 933.427 650 C 934.556 650, 939.288 641.880, 939.550 639.492 C 939.837 636.883, 939.720 636.613, 938.736 637.598 M 940.978 644.696 C 939.340 647.278, 938 649.828, 938 650.362 C 938 651.706, 938.357 651.235, 941.868 645.250 C 945.693 638.731, 945.025 638.315, 940.978 644.696 M 926.905 643.250 C 926.264 644.487, 924.184 648.313, 922.284 651.750 C 920.383 655.188, 919.065 658, 919.355 658 C 919.645 658, 921.855 654.396, 924.266 649.992 C 926.678 645.587, 929.026 642.325, 929.486 642.742 C 929.945 643.159, 929.997 642.938, 929.601 642.250 C 928.609 640.526, 928.246 640.661, 926.905 643.250 M 916.984 646.317 C 915.618 648.618, 914.320 650.950, 914.100 651.500 C 913.880 652.050, 913.205 652.872, 912.600 653.326 C 911.876 653.870, 911.982 654.023, 912.911 653.773 C 914.325 653.392, 920.585 643.251, 919.856 642.522 C 919.642 642.309, 918.350 644.016, 916.984 646.317 M 940.477 657.500 C 937.252 663.271, 934.313 667.506, 933.946 666.912 C 933.505 666.199, 933.093 666.314, 932.735 667.249 C 932.412 668.090, 932.810 668.667, 933.714 668.667 C 935.339 668.667, 939.996 661.923, 944.430 653.151 C 949.192 643.731, 946.542 646.646, 940.477 657.500 M 932.463 659.250 C 930.380 663.502, 930.276 664.025, 931.916 662 C 933.869 659.588, 936.348 654, 935.465 654 C 935.228 654, 933.877 656.362, 932.463 659.250" stroke="none" fill="#c6e0ff" fill-rule="evenodd"/><path d="" stroke="none" fill="#fcc4c4" fill-rule="evenodd"/><path d="M 941.971 597.531 C 940.695 598.889, 940.041 600, 940.517 600 C 940.993 600, 940.553 600.606, 939.540 601.347 C 938.263 602.281, 938.051 602.913, 938.849 603.406 C 940.284 604.294, 942.235 603.190, 941.457 601.931 C 941.141 601.419, 941.246 600.986, 941.691 600.969 C 943.019 600.917, 946.074 596.164, 945.147 595.591 C 944.676 595.300, 943.247 596.173, 941.971 597.531 M 922.208 608.532 C 920.454 612.089, 919.233 615, 919.495 615 C 920.165 615, 926.211 602.878, 925.764 602.431 C 925.563 602.229, 923.962 604.975, 922.208 608.532 M 942.726 604.886 C 941.130 607.589, 941.128 607.859, 942.703 609.136 C 943.627 609.886, 944.070 609.976, 943.686 609.335 C 943.302 608.695, 943.553 607.943, 944.244 607.664 C 945.242 607.262, 945.243 607.142, 944.250 607.079 C 943.563 607.036, 943 606.523, 943 605.941 C 943 605.359, 943.359 605.104, 943.798 605.375 C 944.237 605.646, 945.249 605.455, 946.048 604.949 C 947.133 604.263, 947.169 604.027, 946.191 604.015 C 945.471 604.007, 945.160 603.550, 945.500 603 C 945.840 602.450, 945.738 602, 945.275 602 C 944.811 602, 943.664 603.299, 942.726 604.886 M 972.185 604.722 C 971.682 605.700, 971.508 607.175, 971.798 608 C 972.242 609.262, 972.073 609.292, 970.732 608.185 C 969.385 607.074, 968.981 607.168, 968.110 608.794 C 967.544 609.852, 967.303 611.942, 967.575 613.439 C 967.925 615.373, 967.724 615.948, 966.880 615.426 C 966.131 614.963, 965.955 615.118, 966.405 615.845 C 967.441 617.522, 967.781 617.323, 969.471 614.057 C 970.429 612.204, 970.624 610.885, 969.996 610.498 C 969.448 610.159, 969 609.403, 969 608.819 C 969 608.127, 969.503 608.173, 970.438 608.948 C 971.609 609.921, 972.164 609.583, 973.434 607.128 C 974.349 605.357, 974.602 603.872, 974.047 603.529 C 973.526 603.207, 972.689 603.744, 972.185 604.722 M 947.433 613.654 C 948.704 615.109, 948.469 616.104, 945.424 622.151 C 943.527 625.918, 942.200 629, 942.476 629 C 942.752 629, 944.776 625.423, 946.975 621.050 C 949.723 615.585, 950.615 612.880, 949.831 612.396 C 949.130 611.962, 948.966 612.135, 949.405 612.845 C 950.280 614.262, 948.841 614.365, 947.196 613.004 C 946.534 612.456, 946.641 612.748, 947.433 613.654 M 928.985 623.035 C 928.190 624.956, 927.431 625.697, 926.990 624.984 C 926.506 624.200, 926.067 624.384, 925.616 625.559 C 925.251 626.509, 925.189 627.522, 925.476 627.810 C 925.764 628.098, 926 627.782, 926 627.108 C 926 626.434, 926.431 626.148, 926.957 626.474 C 927.919 627.068, 931.530 621.197, 930.708 620.375 C 930.467 620.133, 929.691 621.331, 928.985 623.035 M 956.578 627.127 C 956.848 627.563, 955.674 630.684, 953.969 634.061 C 952.264 637.439, 951.033 640.366, 951.233 640.566 C 951.433 640.766, 953.221 637.645, 955.207 633.631 C 957.717 628.561, 958.402 626.333, 957.453 626.333 C 956.702 626.333, 956.309 626.690, 956.578 627.127 M 926.905 643.250 C 926.264 644.487, 924.184 648.313, 922.284 651.750 C 920.383 655.188, 919.065 658, 919.355 658 C 919.645 658, 921.855 654.396, 924.266 649.992 C 926.678 645.587, 929.026 642.325, 929.486 642.742 C 929.945 643.159, 929.997 642.938, 929.601 642.250 C 928.609 640.526, 928.246 640.661, 926.905 643.250 M 944.500 669 C 944.149 669.568, 943.494 669.805, 943.044 669.527 C 942.595 669.249, 941.704 669.652, 941.065 670.422 C 940.332 671.304, 940.265 672.046, 940.882 672.427 C 941.421 672.760, 942.164 672.544, 942.533 671.946 C 942.903 671.349, 944.136 670.515, 945.273 670.095 C 946.554 669.621, 946.922 669.070, 946.240 668.648 C 945.634 668.274, 944.851 668.432, 944.500 669" stroke="none" fill="#fbfbfb" fill-rule="evenodd"/></svg>