<svg xmlns="http://www.w3.org/2000/svg" width="1080" height="1080" viewBox="0 0 1080 1080" version="1.1"><path d="M 375.832 458.047 C 359.038 461.627, 342.713 472.699, 337.084 484.326 C 331.503 495.856, 330.217 513.527, 334.100 525.354 C 340.412 544.584, 357.602 554.473, 390.101 557.571 C 412.366 559.693, 417.500 562.129, 417.500 570.573 C 417.500 579.235, 407.735 584.498, 393 583.775 C 382.858 583.278, 378.393 581.297, 371.202 574.107 C 366.433 569.338, 366.082 569.179, 358.897 568.518 C 351.064 567.797, 336.691 568.376, 333.741 569.532 C 331.416 570.443, 330.617 574, 331.285 580.473 C 332.052 587.907, 336.022 595.638, 342.743 602.789 C 347.373 607.714, 350.360 609.785, 358 613.366 C 369.817 618.905, 376.622 620.624, 390 621.449 C 405.041 622.377, 421.568 619.051, 432.674 612.861 C 442.727 607.259, 450.020 599.762, 454.774 590.142 C 458.478 582.648, 458.500 582.531, 458.495 570.052 C 458.489 557.927, 458.382 557.296, 455.350 551.500 C 450.763 542.734, 444.887 536.555, 438.216 533.484 C 430.010 529.707, 416.335 526.238, 402.500 524.424 C 388.518 522.591, 379.140 519.830, 374.967 516.318 C 372.516 514.256, 372 513.067, 372 509.476 C 372 503.446, 373.283 500.649, 377.536 497.404 C 380.750 494.953, 382.376 494.532, 390.849 493.953 C 396.157 493.591, 401.625 493.703, 403 494.202 C 404.375 494.701, 407.975 497.536, 411 500.500 C 414.025 503.464, 417.850 506.403, 419.500 507.029 C 421.150 507.656, 428.286 508.342, 435.358 508.553 L 448.216 508.938 451.231 505.923 C 454.014 503.140, 454.196 502.533, 453.597 498.021 C 452.133 486.983, 445.019 476.265, 434.004 468.503 C 417.934 457.178, 397.306 453.471, 375.832 458.047 M 673.761 457.383 C 668.479 459.009, 666.946 461.005, 661.003 474 C 658.110 480.325, 654.721 487.300, 653.471 489.500 C 652.221 491.700, 648.170 500.475, 644.468 509 C 640.766 517.525, 634.692 530.800, 630.971 538.500 C 627.250 546.200, 622.982 555.425, 621.487 559 C 619.992 562.575, 617.245 568.528, 615.382 572.229 C 613.520 575.930, 610.619 582.425, 608.935 586.662 C 607.252 590.900, 605.049 595.526, 604.040 596.944 C 601.237 600.880, 597.861 612.092, 598.544 615.199 C 598.871 616.690, 599.895 618.134, 600.819 618.408 C 601.744 618.682, 609.352 619.023, 617.728 619.165 C 635.222 619.462, 636.486 619.006, 641.012 610.760 C 644.103 605.129, 646.681 602.216, 650.175 600.410 C 653.638 598.619, 700.784 599.073, 705.500 600.944 C 709.331 602.463, 713 605.888, 713 607.946 C 713 610.280, 718.846 616.991, 721.886 618.148 C 727.848 620.417, 752.267 620.307, 756.009 617.994 C 758.878 616.220, 757.267 606.405, 753.054 600 C 751.937 598.303, 745 583.212, 745 582.481 C 745 581.955, 741.221 573.718, 733.997 558.500 C 731.387 553, 728.270 546.250, 727.072 543.500 C 725.117 539.013, 720.736 529.867, 714.380 517 C 713.158 514.525, 710.061 507.376, 707.498 501.114 C 704.936 494.852, 700.175 484.303, 696.920 477.672 C 693.664 471.041, 691 465.112, 691 464.495 C 691 462.808, 685.842 458.319, 683 457.533 C 678.341 456.244, 677.505 456.230, 673.761 457.383 M 56.500 458.933 C 52.259 459.735, 50.514 461.025, 48.596 464.776 C 47.061 467.780, 46.967 473.975, 47.467 539.276 C 47.833 587.111, 48.374 611.599, 49.115 613.847 C 49.865 616.121, 51.226 617.612, 53.359 618.498 C 57.445 620.196, 76.072 620.417, 82.233 618.841 C 88.491 617.241, 89.020 615.471, 89.411 594.831 C 89.581 585.849, 90.046 577.739, 90.444 576.810 C 92.035 573.096, 95.388 572.013, 101.995 573.077 C 109.928 574.354, 112.533 576.131, 115.674 582.406 C 117.076 585.208, 119.235 588.850, 120.470 590.500 C 122.556 593.285, 125.868 599.116, 130.347 607.884 C 135.536 618.043, 140.589 620, 161.631 620 C 170.920 620, 177.885 619.554, 179.404 618.862 C 182.958 617.242, 183.707 612.825, 181.122 608.734 C 179.997 606.955, 178.097 603.700, 176.898 601.500 C 175.699 599.300, 173.047 595.025, 171.004 592 C 168.961 588.975, 166.484 584.925, 165.499 583 C 164.515 581.075, 161.975 576.881, 159.855 573.679 C 154.548 565.666, 154.824 561.122, 160.965 555.419 C 165.208 551.478, 172.878 537.262, 174.561 530.221 C 176.811 520.807, 176.383 508.553, 173.447 498.362 C 170.499 488.128, 168.004 483.950, 159.580 475.144 C 152.643 467.893, 145.457 463.846, 134.144 460.818 C 127.254 458.975, 123.195 458.753, 93 458.570 C 74.575 458.458, 58.150 458.621, 56.500 458.933 M 216.087 458.949 C 211.678 459.483, 209.256 460.297, 208.337 461.554 C 206.786 463.675, 206.891 457.564, 206.877 546.500 L 206.867 614.500 209.859 617.011 L 212.851 619.521 258.176 619.472 C 290.444 619.437, 304.097 619.091, 305.574 618.271 C 308.603 616.587, 310 610.589, 310 599.269 C 310 582.596, 308.504 581.836, 276.195 582.090 C 259.354 582.223, 253.899 581.954, 252.224 580.908 C 249.620 579.281, 248.567 573.668, 249.207 564.821 C 249.915 555.031, 249.985 555.004, 275.361 554.978 C 298.125 554.954, 299.107 554.744, 301.883 549.316 C 303.291 546.562, 303.350 527.050, 301.961 523.397 C 300 518.239, 299.158 518.066, 275.827 518.032 L 254.154 518 251.077 514.923 C 248.582 512.429, 248 511.021, 248 507.488 C 248 500.743, 249.351 498.274, 253.702 497.066 C 255.837 496.473, 267.213 496.009, 279.673 496.006 L 301.847 496 304.925 493.410 L 308.003 490.819 307.598 476.660 C 307.375 468.872, 307.149 462.398, 307.096 462.273 C 307.043 462.148, 305.891 461.319, 304.535 460.431 C 302.393 459.028, 296.864 458.774, 262.285 458.495 C 240.403 458.318, 219.614 458.522, 216.087 458.949 M 476.110 459.435 C 471.918 461.689, 471.073 464.645, 471.035 477.203 C 470.998 489.646, 471.873 493.166, 475.406 494.775 C 476.609 495.323, 483.741 495.830, 491.256 495.902 C 498.772 495.974, 505.626 496.303, 506.488 496.634 C 510.359 498.119, 510.485 499.851, 511 558.339 L 511.500 615.178 513.861 617.089 C 515.948 618.778, 517.942 619, 531.064 619 C 546.129 619, 550.198 618.232, 551.634 615.115 C 552.043 614.227, 552.472 588.461, 552.587 557.858 C 552.703 527.254, 553.106 501.241, 553.484 500.050 C 554.521 496.784, 557.959 496, 571.244 496 C 584.601 496, 589.279 494.878, 590.917 491.282 C 592.354 488.128, 592.318 465.791, 590.870 462.615 C 590.249 461.251, 588.561 459.685, 587.120 459.135 C 582.921 457.533, 479.126 457.814, 476.110 459.435 M 782.350 459.210 C 778.003 461.245, 777.853 464.287, 778.360 540 C 778.623 579.325, 779.147 612.707, 779.523 614.183 C 780.711 618.838, 785.306 619.851, 801.500 619.027 C 809.200 618.636, 816.247 617.987, 817.160 617.585 C 819.738 616.451, 820.209 612.771, 820.058 594.940 C 819.980 585.832, 820.215 577.603, 820.580 576.653 C 822.121 572.637, 831.173 570.721, 837.601 573.051 C 841.439 574.442, 846.981 581.611, 852.481 592.300 C 858.301 603.609, 865.272 613.984, 868.741 616.500 C 871.284 618.344, 873.086 618.500, 891.786 618.500 C 913.486 618.500, 913.948 618.393, 913.985 613.378 C 913.993 612.211, 911.851 607.936, 909.225 603.878 C 906.600 599.820, 902.507 593.350, 900.131 589.500 C 897.755 585.650, 894.075 579.800, 891.953 576.500 C 884.700 565.219, 884.792 561.362, 892.488 554 C 896.543 550.121, 902.055 539.922, 904.445 531.873 C 906.438 525.164, 906.462 508.586, 904.492 500.231 C 900.859 484.819, 890.661 471.926, 876.391 464.700 C 873.701 463.338, 866.775 461.269, 861 460.103 C 851.478 458.180, 847.427 457.992, 817.500 458.093 C 797.688 458.159, 783.641 458.605, 782.350 459.210 M 929.110 459.435 C 924.918 461.689, 924.073 464.645, 924.035 477.203 C 923.998 489.646, 924.873 493.166, 928.406 494.775 C 929.609 495.323, 936.741 495.830, 944.256 495.902 C 951.772 495.974, 958.626 496.303, 959.488 496.634 C 963.359 498.119, 963.485 499.851, 964 558.339 L 964.500 615.178 966.861 617.089 C 968.948 618.778, 970.942 619, 984.064 619 C 999.129 619, 1003.198 618.232, 1004.634 615.115 C 1005.043 614.227, 1005.472 588.461, 1005.587 557.858 C 1005.703 527.254, 1006.106 501.241, 1006.484 500.050 C 1007.521 496.784, 1010.959 496, 1024.244 496 C 1037.601 496, 1042.279 494.878, 1043.917 491.282 C 1045.354 488.128, 1045.318 465.791, 1043.870 462.615 C 1043.249 461.251, 1041.561 459.685, 1040.120 459.135 C 1035.921 457.533, 932.126 457.814, 929.110 459.435 M 100.482 495.915 C 96.623 496.289, 92.927 496.927, 92.269 497.334 C 89.842 498.834, 89.019 505.475, 89.668 518.331 C 90.468 534.158, 90.423 534.110, 104.776 534.587 C 125.326 535.270, 134.935 528.401, 133.697 513.912 C 133.210 508.222, 131.613 504.335, 128.052 500.179 C 126.115 497.917, 125.256 497.692, 111 495.719 C 109.075 495.453, 104.342 495.541, 100.482 495.915 M 826.814 496.170 C 820.839 497.396, 820 499.610, 820 514.160 C 820 527.789, 821.125 532.344, 824.739 533.347 C 833.217 535.701, 852.504 534.476, 856.858 531.306 C 863.531 526.449, 866.440 511.513, 862.099 504.395 C 858.542 498.561, 854.137 496.794, 841.448 496.112 C 835.196 495.775, 828.611 495.801, 826.814 496.170 M 676.158 531.310 C 674.108 533.780, 665 555.220, 665 557.576 C 665 561.043, 667.813 562, 678 562 C 687.967 562, 691 561.033, 691 557.856 C 691 556.715, 688.955 550.993, 686.456 545.141 C 683.957 539.288, 681.491 533.487, 680.977 532.250 C 679.934 529.738, 677.806 529.323, 676.158 531.310" stroke="none" fill="#ffffff" fill-rule="evenodd"/><path d="" stroke="none" fill="#fffcfc" fill-rule="evenodd"/><path d="" stroke="none" fill="#fcfcfc" fill-rule="evenodd"/></svg>