<svg xmlns="http://www.w3.org/2000/svg" width="1080" height="1080" viewBox="0 0 1080 1080" version="1.1"><path d="M 161.722 353.084 C 116.589 357.881, 74.993 390.625, 59.028 433.924 C 53.493 448.937, 51.498 460.774, 51.517 478.500 C 51.535 495.188, 52.944 504.908, 57.168 517.500 C 65.059 541.023, 82.088 564.413, 102.500 579.765 C 110.248 585.592, 128.060 594.787, 137.787 597.982 C 155.002 603.635, 147.120 603.322, 281.500 603.677 C 349.700 603.858, 522.275 603.634, 665 603.180 L 924.500 602.356 934 599.770 C 967.047 590.773, 994.187 570.690, 1010.718 543 C 1029.322 511.838, 1033.931 472.178, 1022.862 438.500 C 1019.260 427.544, 1011.113 412.235, 1003.514 402.148 C 985.890 378.752, 962.938 363.517, 932 354.677 L 924.500 352.534 547 352.396 C 339.375 352.319, 166 352.629, 161.722 353.084 M 249.278 382.060 C 221.475 384.778, 195.475 400.229, 179.743 423.381 C 174.126 431.649, 168.517 444.079, 166.078 453.667 C 164.390 460.300, 164 464.916, 164 478.257 C 164 496.963, 165.439 504.589, 171.408 517.506 C 183.289 543.222, 203.630 561.056, 232 570.631 L 240.500 573.500 535.500 573.762 C 860.672 574.050, 838.106 574.461, 854.975 567.944 C 868.615 562.674, 877.609 556.641, 889 545.120 C 901.070 532.912, 906.333 524.526, 911.885 508.658 C 915.365 498.710, 915.446 498.125, 915.813 480.340 C 916.265 458.421, 914.818 451.020, 907.040 435.491 C 894.293 410.037, 871.020 390.949, 844 383.788 L 835.500 381.535 546.500 381.395 C 387.550 381.319, 253.800 381.618, 249.278 382.060 M 394.148 435.913 C 386.688 438.490, 383.924 440.773, 380.750 446.980 C 378.563 451.258, 378.004 453.703, 378.022 458.929 C 378.069 472.992, 384.170 479.277, 404.221 485.918 C 413.147 488.874, 417 492.470, 417 497.845 C 417 503.133, 414.439 505, 407.186 505 C 402.091 505, 401.557 504.745, 396.711 500 C 392.058 495.443, 391.191 495, 386.937 495 C 383.668 495, 381.447 495.647, 379.523 497.161 C 377.085 499.079, 376.832 499.817, 377.274 503.735 C 378.152 511.526, 385.836 518.941, 395.086 520.925 C 407.639 523.617, 423.551 521.469, 431.484 516.011 C 441.449 509.155, 443.969 492.058, 436.348 483.002 C 433.020 479.047, 427.886 476.458, 416.020 472.751 C 404.617 469.188, 401.393 467.082, 400.083 462.340 C 397.407 452.648, 404.765 446.368, 414.185 450.304 C 417.224 451.574, 418.035 452.622, 419.479 457.152 C 422.329 466.093, 427.952 469.145, 434.928 465.537 C 438.349 463.768, 439.007 462.246, 438.978 456.168 C 438.933 446.654, 432.390 438.402, 422.568 435.471 C 415.533 433.372, 400.845 433.601, 394.148 435.913 M 476.030 435.113 C 461.694 440.834, 454.630 460.435, 453.299 498.183 L 452.711 514.865 455.779 517.933 C 460.247 522.401, 468 521.989, 471.696 517.087 C 472.354 516.214, 473.200 512.462, 473.576 508.750 L 474.258 502 485.129 502 L 496 502 496 508.418 C 496 511.948, 496.280 515.565, 496.621 516.455 C 498.106 520.325, 507.899 522.370, 513.257 519.929 C 517.651 517.927, 518.393 515.376, 518.183 503 C 517.528 464.386, 510.408 442.353, 496.500 435.900 C 492.077 433.848, 480.331 433.396, 476.030 435.113 M 537.451 436.131 C 533.283 438.156, 532.548 440.815, 532.789 453 C 533.416 484.649, 538.776 505.657, 548.662 515.207 C 558.914 525.111, 578.437 524.238, 587.906 513.454 C 596.384 503.798, 601.999 481.494, 601.992 457.500 C 601.988 446.920, 600.864 442.180, 597.373 438.031 C 595.318 435.589, 594.047 435, 590.834 435 C 585.881 435, 581.012 439.284, 580.978 443.673 C 580.966 445.228, 580.528 455.500, 580.005 466.500 C 578.670 494.576, 576.456 502, 569.418 502 C 561.555 502, 558.812 491.735, 557.158 456.120 C 556.405 439.891, 556.372 439.717, 553.643 437.370 C 551.414 435.452, 549.803 435.013, 545.194 435.068 C 542.062 435.105, 538.578 435.583, 537.451 436.131 M 622.500 436.208 C 618.067 438.750, 618.065 438.769, 618.032 478.161 L 618 515.822 621.077 518.411 L 624.153 521 645.126 521 C 661.577 521, 666.709 520.685, 668.928 519.537 C 673.717 517.061, 674.434 511.780, 670.589 507.306 C 668.198 504.523, 668.065 504.497, 654.589 504.173 L 641 503.845 641 495.423 L 641 487 651.077 487 C 660.881 487, 661.233 486.921, 664.077 484.077 C 667.652 480.502, 667.815 477.060, 664.588 473.306 C 662.272 470.610, 661.760 470.487, 651.588 470.159 L 641 469.818 641 460.909 L 641 452 652.032 452 C 664.619 452, 669.442 450.598, 671.006 446.483 C 672.541 442.447, 672.233 441.079, 669.077 437.923 L 666.154 435 645.327 435.030 C 631.545 435.051, 623.823 435.449, 622.500 436.208 M 480.032 452.773 C 477.224 455.046, 475.248 463.423, 474.376 476.750 L 473.705 487 484.353 487 C 496.673 487, 495.714 488.300, 493.967 473.974 C 492.499 461.932, 490.470 455.515, 487.356 453.066 C 484.145 450.540, 482.854 450.488, 480.032 452.773" stroke="none" fill="#ffffff" fill-rule="evenodd"/><path d="M 249.278 382.060 C 221.475 384.778, 195.475 400.229, 179.743 423.381 C 174.126 431.649, 168.517 444.079, 166.078 453.667 C 164.390 460.300, 164 464.916, 164 478.257 C 164 496.963, 165.439 504.589, 171.408 517.506 C 183.289 543.222, 203.630 561.056, 232 570.631 L 240.500 573.500 535.500 573.762 C 860.672 574.050, 838.106 574.461, 854.975 567.944 C 868.615 562.674, 877.609 556.641, 889 545.120 C 901.070 532.912, 906.333 524.526, 911.885 508.658 C 915.365 498.710, 915.446 498.125, 915.813 480.340 C 916.265 458.421, 914.818 451.020, 907.040 435.491 C 894.293 410.037, 871.020 390.949, 844 383.788 L 835.500 381.535 546.500 381.395 C 387.550 381.319, 253.800 381.618, 249.278 382.060 M 394.148 435.913 C 386.688 438.490, 383.924 440.773, 380.750 446.980 C 378.563 451.258, 378.004 453.703, 378.022 458.929 C 378.069 472.992, 384.170 479.277, 404.221 485.918 C 413.147 488.874, 417 492.470, 417 497.845 C 417 503.133, 414.439 505, 407.186 505 C 402.091 505, 401.557 504.745, 396.711 500 C 392.058 495.443, 391.191 495, 386.937 495 C 383.668 495, 381.447 495.647, 379.523 497.161 C 377.085 499.079, 376.832 499.817, 377.274 503.735 C 378.152 511.526, 385.836 518.941, 395.086 520.925 C 407.639 523.617, 423.551 521.469, 431.484 516.011 C 441.449 509.155, 443.969 492.058, 436.348 483.002 C 433.020 479.047, 427.886 476.458, 416.020 472.751 C 404.617 469.188, 401.393 467.082, 400.083 462.340 C 397.407 452.648, 404.765 446.368, 414.185 450.304 C 417.224 451.574, 418.035 452.622, 419.479 457.152 C 422.329 466.093, 427.952 469.145, 434.928 465.537 C 438.349 463.768, 439.007 462.246, 438.978 456.168 C 438.933 446.654, 432.390 438.402, 422.568 435.471 C 415.533 433.372, 400.845 433.601, 394.148 435.913 M 476.030 435.113 C 461.694 440.834, 454.630 460.435, 453.299 498.183 L 452.711 514.865 455.779 517.933 C 460.247 522.401, 468 521.989, 471.696 517.087 C 472.354 516.214, 473.200 512.462, 473.576 508.750 L 474.258 502 485.129 502 L 496 502 496 508.418 C 496 511.948, 496.280 515.565, 496.621 516.455 C 498.106 520.325, 507.899 522.370, 513.257 519.929 C 517.651 517.927, 518.393 515.376, 518.183 503 C 517.528 464.386, 510.408 442.353, 496.500 435.900 C 492.077 433.848, 480.331 433.396, 476.030 435.113 M 537.451 436.131 C 533.283 438.156, 532.548 440.815, 532.789 453 C 533.416 484.649, 538.776 505.657, 548.662 515.207 C 558.914 525.111, 578.437 524.238, 587.906 513.454 C 596.384 503.798, 601.999 481.494, 601.992 457.500 C 601.988 446.920, 600.864 442.180, 597.373 438.031 C 595.318 435.589, 594.047 435, 590.834 435 C 585.881 435, 581.012 439.284, 580.978 443.673 C 580.966 445.228, 580.528 455.500, 580.005 466.500 C 578.670 494.576, 576.456 502, 569.418 502 C 561.555 502, 558.812 491.735, 557.158 456.120 C 556.405 439.891, 556.372 439.717, 553.643 437.370 C 551.414 435.452, 549.803 435.013, 545.194 435.068 C 542.062 435.105, 538.578 435.583, 537.451 436.131 M 622.500 436.208 C 618.067 438.750, 618.065 438.769, 618.032 478.161 L 618 515.822 621.077 518.411 L 624.153 521 645.126 521 C 661.577 521, 666.709 520.685, 668.928 519.537 C 673.717 517.061, 674.434 511.780, 670.589 507.306 C 668.198 504.523, 668.065 504.497, 654.589 504.173 L 641 503.845 641 495.423 L 641 487 651.077 487 C 660.881 487, 661.233 486.921, 664.077 484.077 C 667.652 480.502, 667.815 477.060, 664.588 473.306 C 662.272 470.610, 661.760 470.487, 651.588 470.159 L 641 469.818 641 460.909 L 641 452 652.032 452 C 664.619 452, 669.442 450.598, 671.006 446.483 C 672.541 442.447, 672.233 441.079, 669.077 437.923 L 666.154 435 645.327 435.030 C 631.545 435.051, 623.823 435.449, 622.500 436.208 M 480.032 452.773 C 477.224 455.046, 475.248 463.423, 474.376 476.750 L 473.705 487 484.353 487 C 496.673 487, 495.714 488.300, 493.967 473.974 C 492.499 461.932, 490.470 455.515, 487.356 453.066 C 484.145 450.540, 482.854 450.488, 480.032 452.773" stroke="none" fill="#84fcc4" fill-rule="evenodd"/></svg>