<svg xmlns="http://www.w3.org/2000/svg" width="1080" height="1080" viewBox="0 0 1080 1080" version="1.1"><path d="M 161.722 353.084 C 116.589 357.881, 74.993 390.625, 59.028 433.924 C 53.493 448.937, 51.498 460.774, 51.517 478.500 C 51.535 495.188, 52.944 504.908, 57.168 517.500 C 65.059 541.023, 82.088 564.413, 102.500 579.765 C 110.248 585.592, 128.060 594.787, 137.787 597.982 C 155.002 603.635, 147.120 603.322, 281.500 603.677 C 349.700 603.858, 522.275 603.634, 665 603.180 L 924.500 602.356 934 599.770 C 967.047 590.773, 994.187 570.690, 1010.718 543 C 1029.322 511.838, 1033.931 472.178, 1022.862 438.500 C 1019.260 427.544, 1011.113 412.235, 1003.514 402.148 C 985.890 378.752, 962.938 363.517, 932 354.677 L 924.500 352.534 547 352.396 C 339.375 352.319, 166 352.629, 161.722 353.084 M 249.500 382.072 C 221.131 384.968, 195.551 400.117, 179.743 423.381 C 173.942 431.919, 168.333 444.483, 166.026 454.107 C 163.189 465.942, 163.147 491.343, 165.946 502.289 C 174.061 534.020, 198.627 559.442, 232 570.646 L 240.500 573.500 535.500 573.762 C 860.672 574.050, 838.106 574.461, 854.975 567.944 C 868.083 562.880, 877.659 556.558, 888.054 546.106 C 902.225 531.857, 909.384 519.549, 914 501.498 C 916.865 490.298, 916.860 464.707, 913.991 453.410 C 911.254 442.632, 903.378 427.161, 895.676 417.436 C 883.562 402.140, 863.620 389.168, 844 383.821 L 835.500 381.505 546.500 381.380 C 387.550 381.312, 253.900 381.623, 249.500 382.072 M 324.148 435.913 C 316.688 438.490, 313.924 440.773, 310.750 446.980 C 308.563 451.258, 308.004 453.703, 308.022 458.929 C 308.066 472.075, 313.802 478.573, 330.770 484.698 C 343.201 489.186, 347 492.160, 347 497.401 C 347 502.857, 344.272 505, 337.329 505 C 331.896 505, 331.472 504.807, 327.260 500.410 C 322.257 495.189, 318.546 493.734, 313.669 495.081 C 308.505 496.507, 306.624 499.163, 307.286 504.096 C 308.298 511.641, 316.073 518.992, 325.086 520.925 C 337.639 523.617, 353.551 521.469, 361.484 516.011 C 371.449 509.155, 373.969 492.058, 366.348 483.002 C 363.065 479.100, 357.924 476.476, 346.520 472.882 C 334.688 469.154, 331.384 467.050, 330.110 462.435 C 327.408 452.650, 334.718 446.348, 344.185 450.304 C 347.224 451.574, 348.035 452.622, 349.479 457.152 C 352.329 466.093, 357.952 469.145, 364.928 465.537 C 368.349 463.768, 369.007 462.246, 368.978 456.168 C 368.933 446.654, 362.390 438.402, 352.568 435.471 C 345.533 433.372, 330.845 433.601, 324.148 435.913 M 447.500 435.345 C 437.939 438.498, 432.612 443.209, 428.547 452.106 C 424.794 460.319, 423.715 467.843, 424.261 482 C 425.032 502.027, 429.842 511.566, 442.402 517.979 C 448.614 521.151, 450.119 521.491, 459.478 521.837 C 471.500 522.282, 478.356 520.698, 484.891 515.964 C 491.229 511.373, 492.214 508.094, 491.826 492.869 C 491.508 480.373, 491.428 479.968, 488.725 477.270 C 486.028 474.578, 485.641 474.500, 474.888 474.500 C 464.006 474.500, 463.786 474.546, 461.413 477.306 C 458.717 480.441, 458.496 481.800, 460.110 485.343 C 461.407 488.190, 464.881 490, 469.047 490 C 471.949 490, 472 490.092, 472 495.345 C 472 502.567, 469.968 504.420, 462.001 504.466 C 456.842 504.496, 455.764 504.144, 453.045 501.540 C 448.554 497.241, 446.999 490.813, 447.006 476.568 C 447.012 462.612, 448.080 457.766, 452.017 453.829 C 454.310 451.536, 455.726 451, 459.489 451 C 465.458 451, 467.580 452.196, 468.944 456.329 C 470.771 461.866, 473.454 464, 478.589 464 C 490.206 464, 493.277 456.136, 486.087 444.799 C 481.578 437.688, 474.377 434.605, 461.513 434.279 C 455.238 434.120, 450.006 434.518, 447.500 435.345 M 387.923 437.923 L 385 440.846 385 478 L 385 515.154 387.923 518.077 C 390.465 520.618, 391.584 521, 396.500 521 C 401.416 521, 402.535 520.618, 405.077 518.077 L 408 515.154 408 478 L 408 440.846 405.077 437.923 C 402.535 435.382, 401.416 435, 396.500 435 C 391.584 435, 390.465 435.382, 387.923 437.923 M 512.206 436.048 C 507.405 437.974, 507 441.257, 507.002 478.218 C 507.003 508.853, 507.189 512.872, 508.752 516 C 511.845 522.193, 520.917 522.696, 525.222 516.912 C 527.074 514.424, 527.103 513.476, 525.974 492.412 C 525.328 480.360, 524.957 469.114, 525.149 467.419 C 525.441 464.853, 527.599 468.697, 538.055 490.416 C 552.611 520.651, 553.293 521.471, 563.289 520.772 C 567.566 520.473, 569.655 519.789, 571.289 518.156 C 573.493 515.952, 573.500 515.823, 573.500 477.886 L 573.500 439.827 570.694 437.413 C 566.902 434.151, 561.111 434.140, 557.336 437.388 C 554.124 440.150, 554.155 439.734, 555.264 465.500 L 555.996 482.500 552.526 475.500 C 550.618 471.650, 545.811 461.806, 541.845 453.624 C 533.285 435.964, 532.201 434.976, 521.500 435.067 C 517.650 435.100, 513.468 435.541, 512.206 436.048 M 626.306 437.414 L 623.500 439.828 623.500 470.664 L 623.500 501.500 626.500 507.500 C 631.919 518.337, 641.988 522.691, 659.513 521.775 C 670.120 521.220, 675.946 519.016, 681.256 513.549 C 687.680 506.933, 688.297 503.733, 688.763 474.585 C 689.210 446.677, 688.827 441.243, 686.185 437.980 C 682.654 433.620, 671.505 434.518, 668.712 439.387 C 667.873 440.849, 667.346 450.488, 667 470.672 L 666.500 499.843 664.035 502.465 C 661.871 504.767, 660.906 505.051, 656.137 504.793 C 651.514 504.544, 650.390 504.079, 648.602 501.678 C 646.607 499, 646.475 497.355, 646 469.339 L 645.500 439.822 642.694 437.411 C 638.699 433.978, 630.298 433.979, 626.306 437.414 M 711.500 436.152 C 707.061 438.822, 707.065 438.781, 707.032 478.061 C 707.001 514.434, 707.064 515.692, 709.028 517.799 C 711.591 520.551, 714.899 521.384, 720.672 520.734 C 728.213 519.884, 729.438 517.844, 729.841 505.475 L 730.182 495 736.381 495 C 747.884 495, 758.988 490.945, 765.604 484.330 C 771.377 478.556, 774.170 471.380, 774.208 462.218 C 774.261 449.431, 769.623 441.964, 759.051 437.818 C 754.145 435.893, 751.175 435.600, 733.500 435.295 C 719.147 435.047, 712.935 435.289, 711.500 436.152 M 730 464.500 L 730 477 735.550 477 C 741.636 477, 746.031 475.221, 748.439 471.783 C 750.499 468.843, 750.518 459.185, 748.471 456.261 C 746.655 453.669, 741.316 452.013, 734.750 452.006 L 730 452 730 464.500" stroke="none" fill="#ffffff" fill-rule="evenodd"/><path d="M 249.500 382.072 C 221.131 384.968, 195.551 400.117, 179.743 423.381 C 173.942 431.919, 168.333 444.483, 166.026 454.107 C 163.189 465.942, 163.147 491.343, 165.946 502.289 C 174.061 534.020, 198.627 559.442, 232 570.646 L 240.500 573.500 535.500 573.762 C 860.672 574.050, 838.106 574.461, 854.975 567.944 C 868.083 562.880, 877.659 556.558, 888.054 546.106 C 902.225 531.857, 909.384 519.549, 914 501.498 C 916.865 490.298, 916.860 464.707, 913.991 453.410 C 911.254 442.632, 903.378 427.161, 895.676 417.436 C 883.562 402.140, 863.620 389.168, 844 383.821 L 835.500 381.505 546.500 381.380 C 387.550 381.312, 253.900 381.623, 249.500 382.072 M 324.148 435.913 C 316.688 438.490, 313.924 440.773, 310.750 446.980 C 308.563 451.258, 308.004 453.703, 308.022 458.929 C 308.066 472.075, 313.802 478.573, 330.770 484.698 C 343.201 489.186, 347 492.160, 347 497.401 C 347 502.857, 344.272 505, 337.329 505 C 331.896 505, 331.472 504.807, 327.260 500.410 C 322.257 495.189, 318.546 493.734, 313.669 495.081 C 308.505 496.507, 306.624 499.163, 307.286 504.096 C 308.298 511.641, 316.073 518.992, 325.086 520.925 C 337.639 523.617, 353.551 521.469, 361.484 516.011 C 371.449 509.155, 373.969 492.058, 366.348 483.002 C 363.065 479.100, 357.924 476.476, 346.520 472.882 C 334.688 469.154, 331.384 467.050, 330.110 462.435 C 327.408 452.650, 334.718 446.348, 344.185 450.304 C 347.224 451.574, 348.035 452.622, 349.479 457.152 C 352.329 466.093, 357.952 469.145, 364.928 465.537 C 368.349 463.768, 369.007 462.246, 368.978 456.168 C 368.933 446.654, 362.390 438.402, 352.568 435.471 C 345.533 433.372, 330.845 433.601, 324.148 435.913 M 447.500 435.345 C 437.939 438.498, 432.612 443.209, 428.547 452.106 C 424.794 460.319, 423.715 467.843, 424.261 482 C 425.032 502.027, 429.842 511.566, 442.402 517.979 C 448.614 521.151, 450.119 521.491, 459.478 521.837 C 471.500 522.282, 478.356 520.698, 484.891 515.964 C 491.229 511.373, 492.214 508.094, 491.826 492.869 C 491.508 480.373, 491.428 479.968, 488.725 477.270 C 486.028 474.578, 485.641 474.500, 474.888 474.500 C 464.006 474.500, 463.786 474.546, 461.413 477.306 C 458.717 480.441, 458.496 481.800, 460.110 485.343 C 461.407 488.190, 464.881 490, 469.047 490 C 471.949 490, 472 490.092, 472 495.345 C 472 502.567, 469.968 504.420, 462.001 504.466 C 456.842 504.496, 455.764 504.144, 453.045 501.540 C 448.554 497.241, 446.999 490.813, 447.006 476.568 C 447.012 462.612, 448.080 457.766, 452.017 453.829 C 454.310 451.536, 455.726 451, 459.489 451 C 465.458 451, 467.580 452.196, 468.944 456.329 C 470.771 461.866, 473.454 464, 478.589 464 C 490.206 464, 493.277 456.136, 486.087 444.799 C 481.578 437.688, 474.377 434.605, 461.513 434.279 C 455.238 434.120, 450.006 434.518, 447.500 435.345 M 387.923 437.923 L 385 440.846 385 478 L 385 515.154 387.923 518.077 C 390.465 520.618, 391.584 521, 396.500 521 C 401.416 521, 402.535 520.618, 405.077 518.077 L 408 515.154 408 478 L 408 440.846 405.077 437.923 C 402.535 435.382, 401.416 435, 396.500 435 C 391.584 435, 390.465 435.382, 387.923 437.923 M 512.206 436.048 C 507.405 437.974, 507 441.257, 507.002 478.218 C 507.003 508.853, 507.189 512.872, 508.752 516 C 511.845 522.193, 520.917 522.696, 525.222 516.912 C 527.074 514.424, 527.103 513.476, 525.974 492.412 C 525.328 480.360, 524.957 469.114, 525.149 467.419 C 525.441 464.853, 527.599 468.697, 538.055 490.416 C 552.611 520.651, 553.293 521.471, 563.289 520.772 C 567.566 520.473, 569.655 519.789, 571.289 518.156 C 573.493 515.952, 573.500 515.823, 573.500 477.886 L 573.500 439.827 570.694 437.413 C 566.902 434.151, 561.111 434.140, 557.336 437.388 C 554.124 440.150, 554.155 439.734, 555.264 465.500 L 555.996 482.500 552.526 475.500 C 550.618 471.650, 545.811 461.806, 541.845 453.624 C 533.285 435.964, 532.201 434.976, 521.500 435.067 C 517.650 435.100, 513.468 435.541, 512.206 436.048 M 626.306 437.414 L 623.500 439.828 623.500 470.664 L 623.500 501.500 626.500 507.500 C 631.919 518.337, 641.988 522.691, 659.513 521.775 C 670.120 521.220, 675.946 519.016, 681.256 513.549 C 687.680 506.933, 688.297 503.733, 688.763 474.585 C 689.210 446.677, 688.827 441.243, 686.185 437.980 C 682.654 433.620, 671.505 434.518, 668.712 439.387 C 667.873 440.849, 667.346 450.488, 667 470.672 L 666.500 499.843 664.035 502.465 C 661.871 504.767, 660.906 505.051, 656.137 504.793 C 651.514 504.544, 650.390 504.079, 648.602 501.678 C 646.607 499, 646.475 497.355, 646 469.339 L 645.500 439.822 642.694 437.411 C 638.699 433.978, 630.298 433.979, 626.306 437.414 M 711.500 436.152 C 707.061 438.822, 707.065 438.781, 707.032 478.061 C 707.001 514.434, 707.064 515.692, 709.028 517.799 C 711.591 520.551, 714.899 521.384, 720.672 520.734 C 728.213 519.884, 729.438 517.844, 729.841 505.475 L 730.182 495 736.381 495 C 747.884 495, 758.988 490.945, 765.604 484.330 C 771.377 478.556, 774.170 471.380, 774.208 462.218 C 774.261 449.431, 769.623 441.964, 759.051 437.818 C 754.145 435.893, 751.175 435.600, 733.500 435.295 C 719.147 435.047, 712.935 435.289, 711.500 436.152 M 730 464.500 L 730 477 735.550 477 C 741.636 477, 746.031 475.221, 748.439 471.783 C 750.499 468.843, 750.518 459.185, 748.471 456.261 C 746.655 453.669, 741.316 452.013, 734.750 452.006 L 730 452 730 464.500" stroke="none" fill="#ecccfc" fill-rule="evenodd"/></svg>