<svg xmlns="http://www.w3.org/2000/svg" width="1080" height="1080" viewBox="0 0 1080 1080" version="1.1"><path d="M 161.722 353.084 C 116.589 357.881, 74.993 390.625, 59.028 433.924 C 53.493 448.937, 51.498 460.774, 51.517 478.500 C 51.535 495.188, 52.944 504.908, 57.168 517.500 C 65.059 541.023, 82.088 564.413, 102.500 579.765 C 110.248 585.592, 128.060 594.787, 137.787 597.982 C 155.002 603.635, 147.120 603.322, 281.500 603.677 C 349.700 603.858, 522.275 603.634, 665 603.180 L 924.500 602.356 934 599.770 C 967.047 590.773, 994.187 570.690, 1010.718 543 C 1029.322 511.838, 1033.931 472.178, 1022.862 438.500 C 1019.260 427.544, 1011.113 412.235, 1003.514 402.148 C 985.890 378.752, 962.938 363.517, 932 354.677 L 924.500 352.534 547 352.396 C 339.375 352.319, 166 352.629, 161.722 353.084 M 250.500 382.026 C 209.661 385.796, 175.392 415.037, 166.026 454.107 C 163.189 465.942, 163.147 491.343, 165.946 502.289 C 174.061 534.020, 198.627 559.442, 232 570.646 L 240.500 573.500 535.500 573.762 C 860.672 574.050, 838.106 574.461, 854.975 567.944 C 868.083 562.880, 877.659 556.558, 888.054 546.106 C 898.741 535.360, 903.881 528.099, 908.716 516.913 C 914.575 503.363, 916 495.651, 916 477.500 C 916 457.927, 914.377 450.331, 907.026 435.500 C 892.268 405.724, 863.600 385.365, 831.695 382.003 C 820.875 380.863, 262.860 380.885, 250.500 382.026 M 286.148 435.913 C 278.688 438.490, 275.924 440.773, 272.750 446.980 C 270.563 451.258, 270.004 453.703, 270.022 458.929 C 270.066 472.075, 275.802 478.573, 292.770 484.698 C 305.201 489.186, 309 492.160, 309 497.401 C 309 502.857, 306.272 505, 299.329 505 C 293.896 505, 293.472 504.807, 289.260 500.410 C 284.257 495.189, 280.546 493.734, 275.669 495.081 C 270.505 496.507, 268.624 499.163, 269.286 504.096 C 270.298 511.641, 278.073 518.992, 287.086 520.925 C 299.639 523.617, 315.551 521.469, 323.484 516.011 C 333.452 509.153, 335.968 492.058, 328.343 482.996 C 325.087 479.126, 318.928 475.992, 308 472.645 C 296.704 469.185, 293.380 467.037, 292.090 462.363 C 289.451 452.805, 295.829 447.015, 305.497 450.193 C 309.126 451.386, 309.687 452.051, 311.590 457.417 C 313.957 464.093, 316.861 467, 321.160 467 C 324.759 467, 329.539 464.644, 330.379 462.455 C 331.593 459.291, 330.929 451.439, 329.107 447.429 C 326.731 442.197, 320.822 437.337, 314.568 435.471 C 307.533 433.372, 292.845 433.601, 286.148 435.913 M 409.500 435.345 C 399.939 438.498, 394.612 443.209, 390.547 452.106 C 386.794 460.319, 385.715 467.843, 386.261 482 C 387.032 502.027, 391.842 511.566, 404.402 517.979 C 410.614 521.151, 412.119 521.491, 421.478 521.837 C 433.500 522.282, 440.356 520.698, 446.891 515.964 C 449.235 514.266, 451.794 511.343, 452.577 509.470 C 454.293 505.363, 454.541 484.850, 452.930 480.230 C 451.204 475.279, 446.558 473.693, 435.229 474.189 C 426.354 474.577, 425.584 474.783, 423.369 477.358 C 420.717 480.441, 420.501 481.810, 422.110 485.343 C 423.407 488.190, 426.881 490, 431.047 490 C 433.949 490, 434 490.092, 434 495.345 C 434 502.567, 431.968 504.420, 424.001 504.466 C 418.842 504.496, 417.764 504.144, 415.045 501.540 C 410.554 497.241, 408.999 490.813, 409.006 476.568 C 409.012 462.612, 410.080 457.766, 414.017 453.829 C 416.310 451.536, 417.726 451, 421.489 451 C 427.458 451, 429.580 452.196, 430.944 456.329 C 432.771 461.866, 435.454 464, 440.589 464 C 452.206 464, 455.277 456.136, 448.087 444.799 C 443.578 437.688, 436.377 434.605, 423.513 434.279 C 417.238 434.120, 412.006 434.518, 409.500 435.345 M 606.500 435.345 C 596.618 438.604, 589.543 445.260, 586.057 454.578 C 581.325 467.223, 581.335 488.802, 586.077 501.477 C 588.772 508.679, 595.574 516.111, 602.221 519.114 C 606.801 521.184, 609.022 521.500, 619 521.500 C 628.877 521.500, 631.221 521.174, 635.607 519.188 C 648.772 513.229, 655 500.110, 655 478.339 C 655 460.821, 652.344 451.584, 645.026 443.644 C 638.978 437.082, 632.675 434.687, 620.500 434.324 C 614.128 434.134, 609.049 434.504, 606.500 435.345 M 349.923 437.923 L 347 440.846 347 478 L 347 515.154 349.923 518.077 C 352.465 520.618, 353.584 521, 358.500 521 C 363.416 521, 364.535 520.618, 367.077 518.077 L 370 515.154 370 478 L 370 440.846 367.077 437.923 C 364.535 435.382, 363.416 435, 358.500 435 C 353.584 435, 352.465 435.382, 349.923 437.923 M 474.206 436.048 C 469.405 437.974, 469 441.257, 469.002 478.218 C 469.003 508.853, 469.189 512.872, 470.752 516 C 473.843 522.188, 482.917 522.696, 487.215 516.921 C 489.059 514.444, 489.089 513.458, 487.967 491.921 C 487.324 479.590, 486.956 468.336, 487.149 466.913 C 487.412 464.972, 490.634 470.838, 500.055 490.410 C 514.611 520.652, 515.292 521.471, 525.289 520.772 C 529.566 520.473, 531.655 519.789, 533.289 518.156 C 535.493 515.952, 535.500 515.823, 535.500 477.886 L 535.500 439.827 532.694 437.413 C 528.893 434.144, 523.111 434.140, 519.316 437.405 C 516.088 440.181, 516.101 439.993, 517.265 466 L 518.004 482.500 514.530 475.500 C 512.619 471.650, 507.811 461.806, 503.845 453.624 C 495.285 435.964, 494.201 434.976, 483.500 435.067 C 479.650 435.100, 475.468 435.541, 474.206 436.048 M 674.763 436.565 C 673.257 437.382, 671.682 439.277, 671.263 440.775 C 670.843 442.274, 670.501 456.325, 670.503 472 C 670.506 499.891, 670.557 500.613, 672.892 505.788 C 678.173 517.488, 688.846 522.626, 706.157 521.802 C 717.631 521.255, 724.500 518.570, 729.566 512.652 C 735.467 505.758, 736 502.205, 736 469.742 L 736 440.846 733.077 437.923 C 730.684 435.530, 729.310 435, 725.500 435 C 721.690 435, 720.316 435.530, 717.923 437.923 L 715 440.846 714.976 467.173 C 714.951 495.213, 714.362 500.477, 710.939 503.250 C 708.549 505.185, 701.053 505.634, 698.039 504.021 C 694.555 502.156, 694 497.527, 694 470.319 C 694 442.294, 693.445 438.379, 689.150 436.080 C 686.269 434.538, 677.984 434.818, 674.763 436.565 M 752.315 436.007 C 747.453 437.966, 746.487 445.230, 750.576 449.072 C 752.762 451.125, 754.355 451.547, 761.076 451.852 L 769 452.212 769 482.656 C 769 515.787, 769.338 518.037, 774.613 520.043 C 780.625 522.329, 789.693 520.324, 791.603 516.287 C 792.068 515.304, 792.601 500.438, 792.788 483.250 L 793.129 452 799.415 452 C 810.406 452, 814 449.693, 814 442.638 C 814 440.056, 813.313 438.605, 811.365 437.073 C 808.842 435.088, 807.583 435.003, 781.615 435.063 C 766.702 435.098, 753.517 435.523, 752.315 436.007 M 611.659 453.054 C 607.765 456.117, 606.606 461.775, 606.550 478 C 606.476 499.358, 609.134 505, 619.268 505 C 628.636 505, 631.286 499.046, 631.286 478 C 631.286 456.889, 628.645 451, 619.180 451 C 615.741 451, 613.487 451.615, 611.659 453.054" stroke="none" fill="#ffffff" fill-rule="evenodd"/><path d="M 250.500 382.026 C 209.661 385.796, 175.392 415.037, 166.026 454.107 C 163.189 465.942, 163.147 491.343, 165.946 502.289 C 174.061 534.020, 198.627 559.442, 232 570.646 L 240.500 573.500 535.500 573.762 C 860.672 574.050, 838.106 574.461, 854.975 567.944 C 868.083 562.880, 877.659 556.558, 888.054 546.106 C 898.741 535.360, 903.881 528.099, 908.716 516.913 C 914.575 503.363, 916 495.651, 916 477.500 C 916 457.927, 914.377 450.331, 907.026 435.500 C 892.268 405.724, 863.600 385.365, 831.695 382.003 C 820.875 380.863, 262.860 380.885, 250.500 382.026 M 286.148 435.913 C 278.688 438.490, 275.924 440.773, 272.750 446.980 C 270.563 451.258, 270.004 453.703, 270.022 458.929 C 270.066 472.075, 275.802 478.573, 292.770 484.698 C 305.201 489.186, 309 492.160, 309 497.401 C 309 502.857, 306.272 505, 299.329 505 C 293.896 505, 293.472 504.807, 289.260 500.410 C 284.257 495.189, 280.546 493.734, 275.669 495.081 C 270.505 496.507, 268.624 499.163, 269.286 504.096 C 270.298 511.641, 278.073 518.992, 287.086 520.925 C 299.639 523.617, 315.551 521.469, 323.484 516.011 C 333.452 509.153, 335.968 492.058, 328.343 482.996 C 325.087 479.126, 318.928 475.992, 308 472.645 C 296.704 469.185, 293.380 467.037, 292.090 462.363 C 289.451 452.805, 295.829 447.015, 305.497 450.193 C 309.126 451.386, 309.687 452.051, 311.590 457.417 C 313.957 464.093, 316.861 467, 321.160 467 C 324.759 467, 329.539 464.644, 330.379 462.455 C 331.593 459.291, 330.929 451.439, 329.107 447.429 C 326.731 442.197, 320.822 437.337, 314.568 435.471 C 307.533 433.372, 292.845 433.601, 286.148 435.913 M 409.500 435.345 C 399.939 438.498, 394.612 443.209, 390.547 452.106 C 386.794 460.319, 385.715 467.843, 386.261 482 C 387.032 502.027, 391.842 511.566, 404.402 517.979 C 410.614 521.151, 412.119 521.491, 421.478 521.837 C 433.500 522.282, 440.356 520.698, 446.891 515.964 C 449.235 514.266, 451.794 511.343, 452.577 509.470 C 454.293 505.363, 454.541 484.850, 452.930 480.230 C 451.204 475.279, 446.558 473.693, 435.229 474.189 C 426.354 474.577, 425.584 474.783, 423.369 477.358 C 420.717 480.441, 420.501 481.810, 422.110 485.343 C 423.407 488.190, 426.881 490, 431.047 490 C 433.949 490, 434 490.092, 434 495.345 C 434 502.567, 431.968 504.420, 424.001 504.466 C 418.842 504.496, 417.764 504.144, 415.045 501.540 C 410.554 497.241, 408.999 490.813, 409.006 476.568 C 409.012 462.612, 410.080 457.766, 414.017 453.829 C 416.310 451.536, 417.726 451, 421.489 451 C 427.458 451, 429.580 452.196, 430.944 456.329 C 432.771 461.866, 435.454 464, 440.589 464 C 452.206 464, 455.277 456.136, 448.087 444.799 C 443.578 437.688, 436.377 434.605, 423.513 434.279 C 417.238 434.120, 412.006 434.518, 409.500 435.345 M 606.500 435.345 C 596.618 438.604, 589.543 445.260, 586.057 454.578 C 581.325 467.223, 581.335 488.802, 586.077 501.477 C 588.772 508.679, 595.574 516.111, 602.221 519.114 C 606.801 521.184, 609.022 521.500, 619 521.500 C 628.877 521.500, 631.221 521.174, 635.607 519.188 C 648.772 513.229, 655 500.110, 655 478.339 C 655 460.821, 652.344 451.584, 645.026 443.644 C 638.978 437.082, 632.675 434.687, 620.500 434.324 C 614.128 434.134, 609.049 434.504, 606.500 435.345 M 349.923 437.923 L 347 440.846 347 478 L 347 515.154 349.923 518.077 C 352.465 520.618, 353.584 521, 358.500 521 C 363.416 521, 364.535 520.618, 367.077 518.077 L 370 515.154 370 478 L 370 440.846 367.077 437.923 C 364.535 435.382, 363.416 435, 358.500 435 C 353.584 435, 352.465 435.382, 349.923 437.923 M 474.206 436.048 C 469.405 437.974, 469 441.257, 469.002 478.218 C 469.003 508.853, 469.189 512.872, 470.752 516 C 473.843 522.188, 482.917 522.696, 487.215 516.921 C 489.059 514.444, 489.089 513.458, 487.967 491.921 C 487.324 479.590, 486.956 468.336, 487.149 466.913 C 487.412 464.972, 490.634 470.838, 500.055 490.410 C 514.611 520.652, 515.292 521.471, 525.289 520.772 C 529.566 520.473, 531.655 519.789, 533.289 518.156 C 535.493 515.952, 535.500 515.823, 535.500 477.886 L 535.500 439.827 532.694 437.413 C 528.893 434.144, 523.111 434.140, 519.316 437.405 C 516.088 440.181, 516.101 439.993, 517.265 466 L 518.004 482.500 514.530 475.500 C 512.619 471.650, 507.811 461.806, 503.845 453.624 C 495.285 435.964, 494.201 434.976, 483.500 435.067 C 479.650 435.100, 475.468 435.541, 474.206 436.048 M 674.763 436.565 C 673.257 437.382, 671.682 439.277, 671.263 440.775 C 670.843 442.274, 670.501 456.325, 670.503 472 C 670.506 499.891, 670.557 500.613, 672.892 505.788 C 678.173 517.488, 688.846 522.626, 706.157 521.802 C 717.631 521.255, 724.500 518.570, 729.566 512.652 C 735.467 505.758, 736 502.205, 736 469.742 L 736 440.846 733.077 437.923 C 730.684 435.530, 729.310 435, 725.500 435 C 721.690 435, 720.316 435.530, 717.923 437.923 L 715 440.846 714.976 467.173 C 714.951 495.213, 714.362 500.477, 710.939 503.250 C 708.549 505.185, 701.053 505.634, 698.039 504.021 C 694.555 502.156, 694 497.527, 694 470.319 C 694 442.294, 693.445 438.379, 689.150 436.080 C 686.269 434.538, 677.984 434.818, 674.763 436.565 M 752.315 436.007 C 747.453 437.966, 746.487 445.230, 750.576 449.072 C 752.762 451.125, 754.355 451.547, 761.076 451.852 L 769 452.212 769 482.656 C 769 515.787, 769.338 518.037, 774.613 520.043 C 780.625 522.329, 789.693 520.324, 791.603 516.287 C 792.068 515.304, 792.601 500.438, 792.788 483.250 L 793.129 452 799.415 452 C 810.406 452, 814 449.693, 814 442.638 C 814 440.056, 813.313 438.605, 811.365 437.073 C 808.842 435.088, 807.583 435.003, 781.615 435.063 C 766.702 435.098, 753.517 435.523, 752.315 436.007 M 611.659 453.054 C 607.765 456.117, 606.606 461.775, 606.550 478 C 606.476 499.358, 609.134 505, 619.268 505 C 628.636 505, 631.286 499.046, 631.286 478 C 631.286 456.889, 628.645 451, 619.180 451 C 615.741 451, 613.487 451.615, 611.659 453.054" stroke="none" fill="#ccd4d4" fill-rule="evenodd"/></svg>