<svg xmlns="http://www.w3.org/2000/svg" width="1080" height="1080" viewBox="0 0 1080 1080" version="1.1"><path d="M 69.724 404.434 C 65.997 405.749, 60.708 408.262, 57.971 410.018 C 47.075 417.010, 38.249 430.609, 36.044 443.801 C 35.250 448.550, 35.008 484.703, 35.213 568 L 35.502 685.500 37.755 691.419 C 44.175 708.281, 59.098 721.412, 75.799 724.895 C 82.806 726.356, 994.579 726.466, 1003.500 725.007 C 1006.800 724.467, 1012.425 722.595, 1016 720.846 C 1024.386 716.743, 1035.468 705.741, 1039.340 697.674 C 1045.084 685.707, 1044.964 688.527, 1044.975 564.500 C 1044.981 491.130, 1044.618 448.183, 1043.955 444 C 1040.965 425.128, 1026.780 409.163, 1008.068 403.612 C 1003.107 402.139, 962.553 402.002, 539.568 402.021 L 76.500 402.042 69.724 404.434 M 127.041 449.733 C 118.498 451.334, 105.042 459.567, 99.423 466.631 C 94.745 472.512, 91.329 478.903, 89.555 485.089 C 88.135 490.039, 87.983 499.486, 88.226 567.665 L 88.500 644.653 92.734 653.197 C 99.907 667.670, 113.358 678.111, 128.500 680.958 C 132.908 681.786, 243.403 682.008, 545 681.793 L 955.500 681.500 961.461 679.252 C 969.147 676.353, 977.392 670.862, 982.740 665.083 C 987.757 659.662, 993.381 648.624, 994.909 641.201 C 995.638 637.662, 995.995 612.417, 995.985 565.201 C 995.969 487.942, 995.959 487.792, 990.115 476.240 C 984.220 464.589, 972.698 454.840, 960.295 451.009 C 953.821 449.010, 951.793 449.001, 541.645 449.136 C 314.965 449.211, 128.394 449.480, 127.041 449.733" stroke="none" fill="#ffffff" fill-rule="evenodd"/><path d="M 130 450.131 C 113.185 452.901, 97.929 465.921, 90.899 483.500 L 88.500 489.500 88.207 561 C 88.005 610.321, 88.260 634.564, 89.031 639.153 C 92.100 657.434, 105.125 672.363, 123.338 678.478 L 130.853 681 541.176 680.976 C 819.180 680.959, 952.942 680.619, 955.972 679.921 C 973.543 675.872, 988.756 660.871, 993.547 642.869 C 995.746 634.610, 995.676 496.014, 993.469 487.542 C 989.152 470.969, 976.817 457.801, 960 451.814 L 953.500 449.500 544.500 449.363 C 304.128 449.282, 133.232 449.599, 130 450.131 M 786.704 506.596 C 781.205 509.578, 780.140 519.294, 784.802 523.956 C 789.550 528.704, 800.949 529.188, 806.433 524.874 C 811.546 520.852, 810.661 509.428, 805.011 506.506 C 801.213 504.542, 790.394 504.595, 786.704 506.596 M 672.923 516.923 L 670 519.846 670.032 561.173 C 670.056 592.083, 670.371 602.900, 671.282 604.087 C 673.361 606.795, 676.665 608, 682.011 608 C 686.362 608, 687.604 607.550, 690.077 605.077 L 693 602.154 693 561 L 693 519.846 690.077 516.923 C 687.535 514.382, 686.416 514, 681.500 514 C 676.584 514, 675.465 514.382, 672.923 516.923 M 710.360 515.460 C 706.103 518.442, 705.919 520.549, 706.217 562.875 L 706.500 603.175 709.306 605.587 C 711.537 607.506, 713.239 608, 717.622 608 C 720.652 608, 724.040 607.514, 725.150 606.920 C 728.588 605.080, 730 599.873, 730 589.032 C 730 579.543, 730.112 579, 732.077 579 C 735.536 579, 739.523 584.047, 741.960 591.513 C 746.799 606.335, 748.569 608, 759.496 608 C 765.254 608, 766.419 607.672, 768.675 605.416 C 770.960 603.131, 771.192 602.271, 770.684 597.977 C 769.884 591.223, 764.327 578.368, 760.263 573.870 C 758.396 571.803, 755.325 569.602, 753.440 568.980 L 750.012 567.849 754.834 564.037 C 759.940 560.001, 766.423 551.146, 767.545 546.676 C 769.255 539.865, 764.960 536, 755.685 536 C 748.329 536, 746.019 538.055, 740.541 549.468 C 738.042 554.675, 734.827 559.778, 733.279 560.998 L 730.500 563.187 729.977 541.843 C 729.689 530.104, 729.089 519.739, 728.643 518.810 C 727.168 515.735, 723.241 514, 717.758 514 C 714.718 514, 711.553 514.625, 710.360 515.460 M 145.854 517.050 C 137.196 518.046, 131.369 520.715, 126.817 525.769 C 122.457 530.609, 121.013 535.153, 121.006 544.054 C 120.995 555.897, 127.025 563.908, 139.360 568.440 C 141.637 569.276, 146.200 570.941, 149.500 572.140 C 160.694 576.206, 165.386 584.191, 159.365 588.927 C 157.518 590.380, 155.273 591, 151.856 591 C 147.341 591, 146.543 590.596, 141 585.500 C 135.800 580.720, 134.486 580, 130.959 580 C 120.997 580, 117.226 586.642, 121.941 595.885 C 126.775 605.360, 135.824 609.434, 152 609.418 C 175.428 609.396, 186.964 600.592, 186.990 582.718 C 187.010 568.761, 181.060 562.768, 162 557.549 C 148.379 553.820, 143.468 549.516, 144.303 542.039 C 144.951 536.246, 147.628 534, 153.888 534 C 160.041 534, 162.489 535.901, 164.512 542.251 C 167.375 551.242, 172.513 553.902, 180.538 550.548 C 186.068 548.238, 187.191 543.402, 184.398 533.932 C 180.551 520.892, 166.386 514.688, 145.854 517.050 M 210.316 517.943 C 205.187 520.272, 203 524.161, 203 530.950 L 203 536 199.057 536 C 194.319 536, 192 538.629, 192 544 C 192 548.985, 194.340 551.871, 198.983 552.613 L 202.858 553.233 203.179 573.949 L 203.500 594.664 206.509 599.527 C 211.223 607.146, 216.721 609.500, 229.805 609.500 L 240.164 609.500 243.082 606.234 C 246.632 602.262, 247.024 597.024, 244 594 C 242.441 592.441, 240.667 592, 235.955 592 C 230.869 592, 229.519 591.610, 227.455 589.545 C 225.040 587.131, 225 586.810, 225 570.045 L 225 553 231.550 553 C 241.140 553, 245 550.561, 245 544.500 C 245 538.463, 241.133 536, 231.656 536 L 225.212 536 224.844 527.902 C 224.524 520.852, 224.172 519.558, 222.127 517.902 C 219.170 515.508, 215.654 515.520, 210.316 517.943 M 399.333 517.097 C 397.591 517.602, 395.004 519.396, 393.583 521.084 C 391.448 523.621, 391 525.171, 391 530.019 L 391 535.885 386.750 536.193 C 383.021 536.462, 382.286 536.929, 380.752 540 C 379.701 542.103, 379.002 542.784, 379.002 541.705 C 379.001 540.717, 377.895 538.805, 376.545 537.455 C 374.608 535.517, 373.060 535, 369.193 535 C 362.605 535, 358.271 537.980, 354.750 544.930 L 352 550.359 352 545.634 C 352 538.919, 348.963 536, 341.980 536 C 336.164 536, 333.593 537.078, 331.787 540.273 C 330.200 543.082, 329.650 596.819, 331.159 601.747 C 332.579 606.386, 335.447 608, 342.270 608 C 347.285 608, 348.437 607.632, 350.548 605.354 C 352.943 602.769, 353 602.329, 353 586.322 C 353 568.278, 353.746 564.932, 358.629 561.058 C 361.159 559.051, 362.251 558.850, 367.826 559.360 C 373.691 559.897, 374.324 559.753, 376.514 557.390 C 377.813 555.989, 379.165 553.524, 379.519 551.912 L 380.163 548.983 382.716 550.991 C 384.121 552.096, 386.559 553, 388.135 553 L 391 553 391.006 572.250 C 391.009 583.208, 391.487 593.213, 392.115 595.477 C 394.522 604.145, 404.543 610.007, 416.932 609.994 C 428.669 609.983, 433.500 606.869, 433.500 599.314 C 433.500 593.515, 431.504 592, 423.865 592 C 419.255 592, 417.564 591.529, 415.358 589.631 C 412.778 587.412, 412.577 586.655, 412.183 577.644 C 411.952 572.354, 412.079 564.645, 412.467 560.513 L 413.171 553 420.162 553 C 426.556 553, 427.404 552.750, 430.077 550.077 C 431.839 548.315, 433 546.100, 433 544.500 C 433 542.900, 431.839 540.685, 430.077 538.923 C 427.397 536.243, 426.565 536, 420.077 536 L 413 536 413 530.149 C 413 518.036, 409.067 514.279, 399.333 517.097 M 476.306 520.413 C 473.706 522.650, 473.474 523.455, 473.149 531.378 C 472.682 542.736, 474.595 565.099, 477.094 577.500 C 480.696 595.373, 487.566 606.397, 496.679 608.928 C 501.752 610.336, 503.713 610.276, 509.568 608.529 C 516.295 606.522, 521.292 602.105, 524.818 595.049 L 527.777 589.127 529.406 593.393 C 534.362 606.371, 544.994 612.179, 557.265 608.611 C 572.592 604.156, 580.115 583.436, 582.559 538.941 C 583.511 521.621, 581.596 518, 571.489 518 C 567.734 518, 566.309 518.537, 564.037 520.809 C 561.256 523.590, 561.222 523.776, 560.616 539.559 C 559.724 562.800, 558.316 575.498, 556.066 580.583 C 554.396 584.358, 553.686 585, 551.179 585 C 544.193 585, 543.511 581.340, 540.669 528.599 C 540.232 520.502, 537.447 518, 528.867 518 C 523.546 518, 522.507 518.340, 519.923 520.923 L 517 523.846 516.963 538.673 C 516.942 546.828, 516.529 559.306, 516.044 566.403 C 515.016 581.435, 513.721 584.293, 507.706 584.807 C 504.623 585.070, 503.902 584.711, 502.648 582.287 C 500.096 577.352, 498.921 568.087, 498.104 546.473 C 497.631 533.961, 496.839 524.567, 496.147 523.275 C 494.124 519.495, 490.917 518, 484.833 518 C 480.227 518, 478.565 518.470, 476.306 520.413 M 922.500 534.592 C 903.167 538.965, 897.203 545.908, 898.210 562.873 C 898.707 571.258, 900.237 575.039, 905.027 579.722 C 908.057 582.685, 908.111 582.870, 906.230 583.877 C 903.684 585.240, 901 590.931, 901 594.967 C 901 598.523, 902.280 601.435, 905.299 604.750 C 906.943 606.555, 907.044 607, 905.809 607 C 903.187 607, 899.201 610.860, 897.970 614.591 C 895.958 620.686, 897.533 626.801, 902.345 631.579 C 908.870 638.056, 916.031 640.345, 930 640.418 C 943.072 640.486, 949.767 638.914, 957.101 634.056 C 968.903 626.239, 971.545 606.685, 961.897 598.567 C 957.571 594.927, 953.190 593.963, 936.716 593.026 C 925.733 592.402, 921.283 591.760, 919.404 590.529 C 918.014 589.618, 917.025 588.425, 917.207 587.878 C 917.400 587.299, 922.975 586.803, 930.520 586.691 C 942.562 586.514, 943.919 586.294, 949.301 583.652 C 957.915 579.422, 960.401 575.152, 960.850 563.816 C 961.137 556.554, 960.848 554.271, 959.225 550.991 L 957.251 547 960.602 547 C 964.602 547, 967.568 543.400, 966.634 539.679 C 965.566 535.424, 961.912 534.621, 942.500 534.371 C 932.600 534.243, 923.600 534.343, 922.500 534.592 M 271.056 536.595 C 261.943 539.044, 256.278 544.505, 255.303 551.781 C 254.595 557.059, 257.849 560.902, 263.691 561.685 C 270.241 562.564, 272.589 561.471, 277.010 555.486 C 280.832 550.312, 281.309 550, 285.377 550 C 290.988 550, 292.958 552.194, 293.687 559.257 L 294.251 564.720 285.875 565.398 C 264.502 567.130, 255.142 572.332, 251.929 584.264 C 250.108 591.026, 252.324 599.239, 257.155 603.633 C 261.879 607.930, 266.160 609.400, 274.063 609.438 C 280.535 609.468, 282.520 609.031, 287.813 606.407 C 291.216 604.721, 294 603.682, 294 604.099 C 294 604.516, 294.707 605.564, 295.571 606.429 C 296.720 607.577, 299.156 608, 304.617 608 C 311.268 608, 312.368 607.723, 314.607 605.484 L 317.123 602.968 316.811 577.234 C 316.516 552.809, 316.386 551.287, 314.259 547.308 C 311.498 542.142, 306.577 538.279, 300.386 536.416 C 294.317 534.589, 278.150 534.688, 271.056 536.595 M 612.734 536.088 C 607.300 537.368, 601.501 540.548, 599.151 543.535 C 596.384 547.053, 594.678 552.580, 595.432 555.584 C 596.319 559.119, 601.570 561.992, 607.152 561.996 C 611.279 562, 612.124 561.601, 614.652 558.453 C 620.929 550.634, 621.761 549.999, 625.705 550.015 C 627.792 550.024, 629.995 550.361, 630.600 550.765 C 632.667 552.145, 634 555.865, 634 560.249 L 634 564.629 623.250 565.761 C 600.961 568.109, 592 574.872, 592 589.348 C 592 596.333, 593.740 600.762, 597.839 604.211 C 605.610 610.750, 621.693 611.412, 630.333 605.548 L 633.868 603.150 635.457 605.575 C 636.903 607.781, 637.716 608, 644.467 608 C 650.872 608, 652.273 607.669, 654.694 605.585 L 657.500 603.170 657.186 578.835 C 657.013 565.451, 656.405 552.708, 655.834 550.517 C 654.332 544.747, 647.821 538.618, 641.061 536.611 C 635.141 534.853, 619.224 534.559, 612.734 536.088 M 855.101 536.988 C 852.682 538.114, 849.195 540.634, 847.351 542.589 L 844 546.142 844 543.144 C 844 538.798, 840.049 536, 833.912 536 C 831.262 536, 827.970 536.512, 826.595 537.139 C 821.696 539.371, 821.243 542.250, 821.189 571.500 C 821.160 586.973, 821.568 599.886, 822.146 601.747 C 823.579 606.367, 826.457 608, 833.167 608 C 837.771 608, 839.436 607.529, 841.694 605.589 L 844.500 603.178 845 581.690 C 845.562 557.545, 845.708 557.067, 853.198 554.822 C 856.599 553.804, 857.395 553.904, 859.731 555.649 C 863.605 558.541, 864.122 561.627, 863.896 580.500 C 863.630 602.749, 863.582 602.309, 866.636 605.364 C 868.837 607.565, 870.169 608, 874.702 608 C 886.045 608, 887 605.764, 887 579.216 C 887 551.652, 885.081 543.047, 877.773 537.834 C 873.112 534.510, 861.367 534.072, 855.101 536.988 M 787.923 538.923 L 785 541.846 785 572 L 785 602.154 787.923 605.077 C 790.461 607.614, 791.588 608, 796.469 608 C 801.047 608, 802.530 607.561, 804.457 605.634 C 807.745 602.346, 808.208 597.063, 807.825 567.166 L 807.500 541.833 804.234 538.916 C 801.538 536.509, 800.085 536, 795.907 536 C 791.647 536, 790.384 536.462, 787.923 538.923 M 922.900 550.880 C 920.963 552.448, 920.514 553.916, 920.184 559.746 C 919.814 566.297, 919.969 566.934, 922.667 569.953 C 925.115 572.693, 926.253 573.185, 930.289 573.246 C 933.924 573.301, 935.604 572.781, 937.476 571.023 C 941.805 566.955, 942.082 555.082, 937.944 550.944 C 935.263 548.263, 926.180 548.224, 922.900 550.880 M 280.684 578.449 C 278.585 579.197, 275.997 580.597, 274.934 581.560 C 270.304 585.750, 274.586 594, 281.389 594 C 289.728 594, 294 590.040, 294 582.311 L 294 577 289.250 577.044 C 286.637 577.068, 282.783 577.700, 280.684 578.449 M 622.500 577.929 C 613.381 580.130, 610.249 586.340, 615.575 591.666 C 617.805 593.896, 618.791 594.178, 622.947 593.779 C 625.671 593.517, 629.096 592.356, 630.872 591.091 C 633.774 589.025, 634 588.435, 634 582.932 L 634 577 629.750 577.102 C 627.413 577.159, 624.150 577.531, 622.500 577.929 M 914.947 612.450 C 912.415 614.990, 914.631 620.224, 919.280 622.683 C 923.866 625.108, 942.105 625.061, 946.809 622.611 C 949.646 621.133, 950.074 620.433, 949.809 617.701 C 949.592 615.458, 948.759 614.163, 947 613.330 C 943.907 611.866, 916.286 611.107, 914.947 612.450" stroke="none" fill="#81fec2" fill-rule="evenodd"/><path d="M 706.456 561 C 706.456 583.275, 706.588 592.388, 706.749 581.250 C 706.910 570.113, 706.910 551.888, 706.749 540.750 C 706.588 529.613, 706.456 538.725, 706.456 561 M 224.336 529 C 224.336 533.125, 224.513 534.813, 224.728 532.750 C 224.944 530.688, 224.944 527.313, 224.728 525.250 C 224.513 523.188, 224.336 524.875, 224.336 529 M 729.229 542.750 C 729.016 562.527, 729.460 566.300, 731.595 562.845 C 732.033 562.138, 731.870 561.962, 731.175 562.392 C 730.347 562.904, 729.962 557.482, 729.749 542.296 L 729.457 521.500 729.229 542.750 M 412.328 529.500 C 412.333 533.350, 412.513 534.802, 412.730 532.728 C 412.946 530.653, 412.943 527.503, 412.722 525.728 C 412.501 523.952, 412.324 525.650, 412.328 529.500 M 582.343 532.500 C 582.346 536.900, 582.522 538.576, 582.733 536.224 C 582.945 533.872, 582.942 530.272, 582.727 528.224 C 582.512 526.176, 582.339 528.100, 582.343 532.500 M 497.374 540.500 C 497.376 546.550, 497.541 548.896, 497.740 545.713 C 497.939 542.531, 497.937 537.581, 497.736 534.713 C 497.535 531.846, 497.372 534.450, 497.374 540.500 M 473.320 542 C 473.320 545.575, 473.502 547.038, 473.723 545.250 C 473.945 543.462, 473.945 540.538, 473.723 538.750 C 473.502 536.962, 473.320 538.425, 473.320 542 M 560.349 547 C 560.349 551.675, 560.522 553.587, 560.732 551.250 C 560.943 548.913, 560.943 545.087, 560.732 542.750 C 560.522 540.413, 560.349 542.325, 560.349 547 M 649.697 542.002 C 651.456 543.926, 653.576 547.075, 654.408 549 C 655.241 550.925, 655.939 551.915, 655.961 551.200 C 656.029 548.936, 653.294 544.604, 649.839 541.502 L 646.500 538.504 649.697 542.002 M 842.781 542.820 C 843.313 548.203, 843.432 548.393, 845.037 546.418 C 845.918 545.332, 846.003 544.915, 845.250 545.367 C 844.361 545.901, 844 545.252, 844 543.118 C 844 541.468, 843.644 539.898, 843.209 539.629 C 842.774 539.360, 842.582 540.796, 842.781 542.820 M 330.365 553.500 C 330.368 559, 330.536 561.122, 330.738 558.216 C 330.941 555.311, 330.939 550.811, 330.734 548.216 C 330.528 545.622, 330.363 548, 330.365 553.500 M 821.365 553.500 C 821.368 559, 821.536 561.122, 821.738 558.216 C 821.941 555.311, 821.939 550.811, 821.734 548.216 C 821.528 545.622, 821.363 548, 821.365 553.500 M 807.438 571.500 C 807.437 586.350, 807.576 592.564, 807.747 585.310 C 807.918 578.055, 807.918 565.905, 807.748 558.310 C 807.578 550.714, 807.438 556.650, 807.438 571.500 M 541.310 551.500 C 541.315 554.800, 541.502 556.029, 541.725 554.232 C 541.947 552.435, 541.943 549.735, 541.715 548.232 C 541.486 546.729, 541.304 548.200, 541.310 551.500 M 203.382 564.500 C 203.384 571.100, 203.546 573.670, 203.741 570.211 C 203.937 566.752, 203.936 561.352, 203.738 558.211 C 203.540 555.070, 203.380 557.900, 203.382 564.500 M 224.407 569 C 224.407 578.075, 224.559 581.788, 224.744 577.250 C 224.929 572.712, 224.929 565.288, 224.744 560.750 C 224.559 556.212, 224.407 559.925, 224.407 569 M 886.426 578.500 C 886.427 590.600, 886.571 595.413, 886.747 589.195 C 886.923 582.977, 886.922 573.077, 886.746 567.195 C 886.569 561.313, 886.425 566.400, 886.426 578.500 M 516.320 564 C 516.320 567.575, 516.502 569.038, 516.723 567.250 C 516.945 565.462, 516.945 562.538, 516.723 560.750 C 516.502 558.962, 516.320 560.425, 516.320 564 M 634.116 562.195 C 634.009 564.671, 633.614 564.921, 629.250 565.265 L 624.500 565.640 629.281 565.820 C 634.303 566.009, 635.632 564.903, 634.701 561.308 C 634.388 560.102, 634.193 560.397, 634.116 562.195 M 844.389 579.500 C 844.390 586.650, 844.550 589.444, 844.742 585.708 C 844.935 581.973, 844.934 576.123, 844.739 572.708 C 844.545 569.294, 844.387 572.350, 844.389 579.500 M 291.750 576.720 C 293.744 577.086, 294 577.728, 294 582.366 C 294 585.245, 293.438 588.231, 292.750 589.002 C 291.682 590.199, 291.762 590.205, 293.295 589.042 C 294.720 587.961, 295.029 586.526, 294.795 582.090 C 294.521 576.903, 294.320 576.493, 292 576.404 C 289.825 576.320, 289.792 576.361, 291.750 576.720 M 631.202 576.712 C 633.720 577.096, 633.928 577.510, 634.263 582.812 L 634.622 588.500 634.811 582.250 L 635 576 631.750 576.150 C 628.796 576.286, 628.746 576.337, 631.202 576.712 M 821.378 589 C 821.378 595.325, 821.541 597.913, 821.739 594.750 C 821.937 591.587, 821.937 586.413, 821.739 583.250 C 821.541 580.087, 821.378 582.675, 821.378 589 M 729.374 589.500 C 729.376 595.550, 729.541 597.896, 729.740 594.713 C 729.939 591.531, 729.937 586.581, 729.736 583.713 C 729.535 580.846, 729.372 583.450, 729.374 589.500 M 330.365 590.500 C 330.368 596, 330.536 598.122, 330.738 595.216 C 330.941 592.311, 330.939 587.811, 330.734 585.216 C 330.528 582.622, 330.363 585, 330.365 590.500 M 392.040 595.300 C 391.955 596.994, 394.935 601.610, 397.655 603.996 L 400.500 606.493 397.869 603.496 C 396.422 601.848, 394.527 599.150, 393.659 597.500 C 392.791 595.850, 392.062 594.860, 392.040 595.300 M 148.750 609.723 C 150.537 609.945, 153.463 609.945, 155.250 609.723 C 157.037 609.502, 155.575 609.320, 152 609.320 C 148.425 609.320, 146.963 609.502, 148.750 609.723 M 922.280 611.736 C 924.909 611.943, 928.959 611.940, 931.280 611.731 C 933.601 611.521, 931.450 611.352, 926.500 611.355 C 921.550 611.358, 919.651 611.530, 922.280 611.736 M 926.776 640.733 C 929.128 640.945, 932.728 640.942, 934.776 640.727 C 936.824 640.512, 934.900 640.339, 930.500 640.343 C 926.100 640.346, 924.424 640.522, 926.776 640.733" stroke="none" fill="#84fcc4" fill-rule="evenodd"/><path d="M 995.474 565.500 C 995.475 605.650, 995.598 621.929, 995.750 601.676 C 995.901 581.423, 995.901 548.573, 995.750 528.676 C 995.598 508.779, 995.474 525.350, 995.474 565.500 M 789.255 506.117 C 784.928 507.367, 782.669 511.046, 782.754 516.704 C 782.808 520.245, 783.413 521.868, 785.434 523.889 C 787.817 526.272, 788.750 526.500, 796.109 526.500 C 803.705 526.500, 804.313 526.337, 806.587 523.694 C 809.454 520.361, 809.920 512.758, 807.471 509.261 C 804.864 505.540, 796.346 504.070, 789.255 506.117 M 675.476 515.341 C 673.812 516.096, 671.900 517.924, 671.226 519.404 C 669.502 523.187, 669.474 598.751, 671.195 602.528 C 673.402 607.371, 681.521 609.542, 687.405 606.861 C 692.900 604.358, 693.092 602.661, 692.783 559.550 L 692.500 520.044 689.868 517.412 C 686.700 514.246, 680.012 513.283, 675.476 515.341 M 712.357 514.992 C 707.004 517.152, 707 517.189, 707 561.167 L 707 601.888 709.413 604.694 C 711.573 607.205, 712.476 607.500, 718 607.500 C 723.524 607.500, 724.427 607.205, 726.587 604.694 C 728.834 602.082, 729 601.100, 729 590.444 L 729 579 732.045 579 C 736.159 579, 739.236 582.305, 741.878 589.563 C 743.067 592.828, 744.757 597.451, 745.635 599.835 C 747.688 605.413, 751.768 607.996, 758.500 607.982 C 764.595 607.968, 768.070 606.338, 769.831 602.666 C 770.990 600.248, 770.882 598.965, 768.990 592.695 C 764.728 578.575, 759.411 571.100, 752.439 569.428 C 747.773 568.309, 747.630 567.901, 751.167 565.785 C 753 564.688, 755.563 562.825, 756.861 561.645 C 760.021 558.775, 766.530 549.083, 767.273 546.143 C 769.215 538.457, 758.465 533.313, 749.425 537.602 C 746.909 538.796, 745.393 540.645, 743.479 544.852 C 742.066 547.959, 740.193 551.850, 739.317 553.500 C 737.553 556.824, 731.046 564, 729.797 564 C 729.359 564, 729 554.295, 729 542.434 C 729 529.556, 728.585 520.094, 727.970 518.945 C 725.771 514.835, 717.767 512.808, 712.357 514.992 M 140 518.543 C 129.009 521.610, 123.777 527.172, 121.780 537.909 C 120.366 545.513, 121.914 553.201, 125.994 558.834 C 129.061 563.067, 135.286 566.529, 148.800 571.518 C 159.053 575.303, 162 577.993, 162 583.566 C 162 588.503, 159.838 590.668, 154.500 591.074 C 147.436 591.611, 145.848 591.030, 140.759 586.047 C 134.983 580.391, 132.020 579.390, 126.456 581.213 C 118.145 583.936, 118.322 592.593, 126.864 601.145 C 132.950 607.238, 137.350 608.500, 152.500 608.500 C 166.156 608.500, 172.163 606.963, 178.311 601.895 C 184.119 597.108, 186.373 591.863, 186.431 583 C 186.522 568.985, 181.899 564.176, 162.605 558.214 C 147.394 553.515, 144 550.783, 144 543.243 C 144 535.688, 146.203 533.500, 153.807 533.500 C 160.979 533.500, 163.298 535.154, 164.868 541.390 C 165.459 543.737, 166.888 546.859, 168.044 548.329 C 169.818 550.584, 170.920 551, 175.118 551 C 182.180 551, 185.008 548.073, 184.978 540.795 C 184.966 537.831, 184.145 533.715, 183.114 531.444 C 180.899 526.569, 174.460 520.821, 169.275 519.092 C 163.210 517.069, 146.409 516.754, 140 518.543 M 209.190 519.026 C 205.336 521.375, 203 526.260, 203 531.968 C 203 535.747, 202.819 536, 200.111 536 C 195.553 536, 192.938 538.790, 192.738 543.865 C 192.538 548.935, 194.861 551.508, 200.609 552.586 L 204.075 553.237 203.788 572.868 C 203.520 591.135, 203.648 592.820, 205.631 597.108 C 209.518 605.514, 216.858 609.158, 229.901 609.158 C 238.157 609.158, 243.203 607.519, 244.379 604.455 C 245.553 601.395, 245.019 595.261, 243.467 593.972 C 242.624 593.273, 239.586 592.518, 236.717 592.295 C 224.437 591.340, 224 590.524, 224 568.532 L 224 553 230.250 552.998 C 239.091 552.996, 243.400 550.706, 243.808 545.792 C 243.977 543.753, 243.634 541.185, 243.046 540.086 C 241.736 537.637, 236.244 536.013, 229.250 536.006 L 224 536 224 528.155 C 224 521.825, 223.647 519.990, 222.171 518.655 C 219.660 516.383, 213.224 516.566, 209.190 519.026 M 398.500 517.954 C 394.056 519.792, 391.644 523.773, 391.193 530.014 L 390.760 536 387.452 536 C 383.783 536, 380.070 539.636, 379.910 543.385 C 379.846 544.892, 379.554 544.583, 378.898 542.313 C 376.878 535.334, 368.494 532.823, 361.990 537.250 C 357.872 540.052, 355.305 543.468, 353.492 548.558 L 352.088 552.500 352.044 547.385 C 351.990 541.086, 349.409 537.355, 344.463 536.427 C 339.893 535.570, 336.358 536.551, 333.414 539.495 L 331 541.909 331 571.899 C 331 601.564, 331.024 601.917, 333.252 604.506 C 335.992 607.692, 342.498 608.865, 347.028 606.988 C 352.266 604.819, 353 601.974, 353.004 583.800 C 353.007 569.398, 353.235 567.127, 354.960 564.299 C 357.927 559.431, 361.943 557.781, 368.902 558.568 C 374.268 559.175, 374.858 559.041, 376.388 556.864 C 377.302 555.564, 378.514 552.784, 379.081 550.686 L 380.112 546.872 382.099 549.399 C 383.194 550.791, 385.599 552.209, 387.456 552.558 L 390.825 553.190 391.178 573.345 C 391.498 591.626, 391.729 593.872, 393.668 597.500 C 398.650 606.824, 405.495 609.603, 422.327 609.134 C 426.250 609.025, 427.712 608.442, 430.135 606.019 C 432.661 603.493, 433.070 602.388, 432.808 598.792 C 432.427 593.540, 429.988 592.036, 421.823 592.015 C 416.889 592.002, 415.873 591.655, 414.073 589.365 C 412.162 586.936, 412 585.413, 412 569.865 L 412 553 417.250 552.994 C 427.933 552.983, 432 550.532, 432 544.105 C 432 538.574, 427.197 536, 416.875 536 L 412 536 412 528.500 C 412 522.333, 411.644 520.644, 410 519 C 407.897 516.897, 402.289 516.387, 398.500 517.954 M 479 519.216 C 477.625 519.931, 475.698 522.152, 474.719 524.151 C 473.088 527.479, 473.025 529.246, 473.979 545.121 C 475.986 578.547, 480.313 595.240, 489.161 603.689 C 493.217 607.562, 496.787 609.002, 502.315 608.994 C 512.372 608.981, 519.864 603.962, 524.915 593.855 C 527.331 589.020, 528.105 588.139, 528.631 589.624 C 533.460 603.257, 539.687 608.927, 549.884 608.978 C 560.510 609.031, 567.202 604.174, 572.601 592.489 C 578.014 580.772, 582 555.919, 582 533.882 C 582 524.995, 581.782 523.858, 579.587 521.306 C 577.533 518.919, 576.418 518.500, 572.109 518.500 C 567.913 518.500, 566.572 518.973, 564.283 521.262 L 561.521 524.025 560.829 544.063 C 559.870 571.875, 558.425 580.522, 554.084 584.432 C 550.517 587.646, 546.888 585.641, 544.775 579.289 C 542.596 572.738, 541.002 556.156, 540.999 540 C 540.996 521.984, 538.200 517.440, 527.661 518.320 C 524.099 518.617, 522.120 519.425, 520.161 521.383 L 517.500 524.042 516.958 550.271 C 516.476 573.614, 516.201 576.940, 514.458 580.495 C 512.277 584.945, 508.099 587.155, 505.197 585.393 C 500.287 582.411, 498.353 572.114, 497.188 542.745 C 496.455 524.267, 496.405 523.951, 493.811 521.357 C 490.690 518.236, 483.017 517.127, 479 519.216 M 924 535.018 C 906.298 537.493, 898.762 544.906, 898.605 560 C 898.509 569.334, 900.142 574.142, 905.093 579.093 C 908.824 582.824, 908.884 582.992, 906.883 584.063 C 905.744 584.672, 903.933 587.158, 902.859 589.586 C 900.493 594.934, 901.413 599.734, 905.650 604.156 C 907.931 606.537, 908.083 607, 906.587 607 C 905.604 607, 903.270 608.530, 901.400 610.400 C 898.379 613.421, 898 614.397, 898.004 619.150 C 898.006 622.838, 898.667 625.582, 900.130 627.982 C 902.806 632.372, 904.196 633.494, 911 636.756 C 915.726 639.023, 918.142 639.453, 928.174 639.817 C 937.980 640.173, 940.949 639.906, 946.734 638.149 C 960.316 634.024, 967 625.813, 967 613.254 C 967 598.942, 960.052 594.388, 936.597 593.328 C 922.549 592.694, 917 591.261, 917 588.269 C 917 586.593, 918.011 586.438, 928.750 586.468 C 937.712 586.492, 941.774 586.056, 945.870 584.630 C 952.805 582.215, 958.226 576.837, 959.956 570.656 C 961.533 565.026, 960.876 555.462, 958.600 550.899 C 956.563 546.817, 956.505 547, 959.845 547 C 963.344 547, 966 544.247, 966 540.620 C 966 538.461, 965.285 537.599, 962.546 536.455 C 958.249 534.659, 933.234 533.727, 924 535.018 M 275.871 535.955 C 265.438 537.859, 258.364 542.989, 256.007 550.359 C 254.911 553.787, 254.992 554.514, 256.732 556.859 C 257.809 558.312, 260.377 560.065, 262.438 560.755 C 268.134 562.661, 271.852 561.233, 276.219 555.463 C 278.264 552.760, 280.739 550.231, 281.719 549.844 C 285.381 548.397, 289.097 549.006, 291.545 551.455 C 293.610 553.519, 294 554.869, 294 559.955 L 294 566 287.250 566.017 C 274.614 566.050, 262.290 569.814, 257.298 575.166 C 251.721 581.145, 250.409 591.422, 254.250 599.038 C 257.247 604.981, 262.944 608.122, 271.872 608.754 C 279.579 609.299, 285.247 608, 290.392 604.509 L 294.058 602.021 294.984 604.457 C 296.837 609.331, 310.618 609.308, 314.819 604.425 L 317.203 601.652 316.733 578.076 C 316.443 563.523, 315.790 552.969, 315.027 550.500 C 313.400 545.234, 306.665 538.817, 300.965 537.102 C 295.432 535.437, 282.055 534.825, 275.871 535.955 M 614.333 536.436 C 607.391 538.017, 604.553 539.296, 601.155 542.375 C 597.872 545.350, 596 549.316, 596 553.295 C 596 557.408, 598.408 559.843, 603.677 561.061 C 609.464 562.399, 613.527 560.663, 616.505 555.581 C 620.432 548.881, 627.064 546.973, 631.390 551.299 C 633.680 553.589, 635.781 562.928, 634.480 565.033 C 634.151 565.565, 630.871 566.008, 627.191 566.017 C 618.235 566.041, 607.758 568.366, 602.364 571.527 C 590.771 578.321, 588.480 594.780, 597.939 603.326 C 602.556 607.497, 607.217 608.987, 615.677 608.994 C 620.773 608.999, 623.006 608.400, 628.427 605.574 C 632.989 603.196, 635 602.567, 635 603.517 C 635 606.143, 639.267 608, 645.299 608 C 650.472 608, 651.504 607.650, 654.155 604.999 L 657.156 601.998 656.828 577.749 C 656.527 555.518, 656.324 553.126, 654.380 549 C 651.674 543.257, 647.653 539.508, 641.986 537.444 C 635.832 535.204, 621.968 534.698, 614.333 536.436 M 857.618 536.638 C 854.201 537.688, 851.276 539.637, 847.868 543.135 L 843 548.133 843 544.138 C 843 541.883, 842.333 539.476, 841.468 538.611 C 837.383 534.526, 825.783 536.051, 823.289 541 C 822.363 542.838, 822.026 551.234, 822.015 572.694 C 822 601.663, 822.018 601.909, 824.283 604.543 C 826.901 607.587, 833.731 608.858, 838.198 607.132 C 843.713 605.001, 844.226 602.849, 844.376 581.243 C 844.525 559.831, 844.893 558.141, 849.980 555.510 C 854.649 553.096, 859.503 553.553, 861.927 556.635 C 863.870 559.105, 864 560.546, 864 579.685 C 864 602.308, 864.531 604.735, 869.972 606.988 C 874.502 608.865, 881.008 607.692, 883.748 604.506 C 885.947 601.950, 886 601.332, 886 578.126 C 886 559.271, 885.670 553.252, 884.403 548.984 C 880.930 537.292, 870.758 532.603, 857.618 536.638 M 792.374 536.689 C 791.205 536.919, 789.180 538.244, 787.874 539.634 L 785.500 542.161 785.500 572.058 L 785.500 601.955 788.273 604.727 C 790.625 607.079, 791.873 607.500, 796.495 607.500 C 800.831 607.500, 802.410 607.035, 804.222 605.224 C 806.474 602.974, 806.503 602.612, 806.794 573.787 C 807.008 552.573, 806.757 543.827, 805.872 541.691 C 804.086 537.379, 798.815 535.426, 792.374 536.689 M 924.308 549.412 C 918.121 552.208, 917.328 565.482, 923.009 571.163 C 925.312 573.466, 926.722 574, 930.500 574 C 934.310 574, 935.684 573.470, 938.077 571.077 C 940.753 568.401, 941 567.560, 941 561.133 C 941 555.263, 940.626 553.676, 938.717 551.457 C 935.911 548.195, 929.130 547.233, 924.308 549.412 M 284 577.110 C 277.719 578.157, 274.003 580.492, 272.780 584.159 C 269.624 593.627, 283.954 598.209, 292.153 590.353 C 294.803 587.814, 295.058 587.011, 294.793 582.022 C 294.457 575.681, 293.950 575.450, 284 577.110 M 624.903 577.013 C 619.344 577.953, 614.465 580.346, 613.621 582.545 C 610.672 590.230, 616.589 596.080, 625.278 594.071 C 632.439 592.416, 634.927 589.252, 634.968 581.750 C 634.999 576.108, 634.948 576.002, 632.250 576.118 C 630.737 576.182, 627.431 576.585, 624.903 577.013 M 914.171 613.068 C 912.650 617.177, 914.213 620.307, 919.042 622.823 C 923.092 624.933, 924.506 625.110, 934.500 624.755 C 948.341 624.264, 952.415 622.034, 950.500 615.999 C 949.443 612.668, 946.845 612.063, 930.623 611.363 L 915.050 610.692 914.171 613.068 M 336.332 681.750 C 449.539 681.890, 634.489 681.890, 747.332 681.750 C 860.174 681.610, 767.550 681.495, 541.500 681.495 C 315.450 681.495, 223.124 681.610, 336.332 681.750" stroke="none" fill="#fbfcf9" fill-rule="evenodd"/></svg>