<?xml version="1.0" encoding="UTF-8" standalone="no"?>
<svg
   version="1.0"
   width="328.000000pt"
   height="82.000000pt"
   viewBox="0 0 328.000000 82.000000"
   preserveAspectRatio="xMidYMid meet"
   id="svg211"
   sodipodi:docname="statusBar10.svg"
   inkscape:version="1.2.2 (732a01da63, 2022-12-09)"
   xmlns:inkscape="http://www.inkscape.org/namespaces/inkscape"
   xmlns:sodipodi="http://sodipodi.sourceforge.net/DTD/sodipodi-0.dtd"
   xmlns="http://www.w3.org/2000/svg"
   xmlns:svg="http://www.w3.org/2000/svg">
  <defs
     id="defs215" />
  <sodipodi:namedview
     id="namedview213"
     pagecolor="#ffffff"
     bordercolor="#000000"
     borderopacity="0.25"
     inkscape:showpageshadow="2"
     inkscape:pageopacity="0.0"
     inkscape:pagecheckerboard="0"
     inkscape:deskcolor="#d1d1d1"
     inkscape:document-units="pt"
     showgrid="false"
     inkscape:zoom="2.9512301"
     inkscape:cx="202.11911"
     inkscape:cy="62.516304"
     inkscape:window-width="1649"
     inkscape:window-height="974"
     inkscape:window-x="198"
     inkscape:window-y="0"
     inkscape:window-maximized="0"
     inkscape:current-layer="svg211" />
  <g
     transform="translate(0.000000,82.000000) scale(0.100000,-0.100000)"
     fill="#000000"
     stroke="none"
     id="g209">
    <path
       d="M228 608 c-2 -15 -11 -24 -25 -26 -17 -3 -23 -10 -23 -28 0 -19 -5 -24 -25 -24 -26 0 -26 -1 -23 -72 3 -66 5 -73 25 -76 19 -3 22 -11 25 -50 3 -40 6 -47 25 -50 14 -2 23 -11 25 -25 2 -14 11 -23 25 -25 14 -2 23 -11 25 -25 2 -14 11 -23 25 -25 14 -2 23 -11 25 -25 2 -14 10 -22 23 -22 12 0 21 -9 25 -25 4 -16 14 -26 28 -28 14 -2 22 -10 22 -23 0 -14 7 -19 25 -19 18 0 25 5 25 19 0 13 8 21 22 23 14 2 24 12 28 28 l6 25 1239 2 c1223 3 1240 3 1243 22 2 11 13 21 25 23 14 2 23 11 25 26 3 16 10 22 28 22 19 0 24 5 24 24 0 18 6 25 23 28 21 3 22 8 22 78 0 70 -1 75 -22 78 -15 2 -23 10 -23 23 0 14 -7 19 -25 19 -20 0 -25 5 -25 24 0 18 -6 25 -22 28 -15 2 -24 11 -26 26 l-3 23 -722 -1 c-397 0 -923 -1 -1169 0 l-448 0 0 25 c0 24 -2 25 -74 25 -70 0 -75 -1 -78 -22 -2 -15 -11 -24 -25 -26 -14 -2 -23 -11 -25 -25 -2 -14 -11 -23 -25 -25 -19 -3 -23 1 -23 22 0 18 -6 25 -22 28 -15 2 -24 11 -26 26 -3 21 -8 22 -77 22 -69 0 -74 -1 -77 -22z m102 -98 c0 -25 -4 -30 -25 -30 -20 0 -25 -5 -25 -25 0 -20 -5 -25 -26 -25 -22 0 -25 4 -22 28 2 19 9 28 26 30 16 3 22 10 22 28 0 19 5 24 25 24 21 0 25 -5 25 -30z m1156 5 c8 -31 28 -32 42 -1 10 23 32 26 135 17 15 -1 17 -16 17 -171 0 -129 -3 -170 -12 -171 -7 0 -41 -1 -76 -2 l-62 -2 0 122 c0 118 -1 123 -26 150 l-26 28 2 -40 c2 -22 2 -88 1 -147 l-1 -108 -75 0 -75 0 -1 38 c-4 104 -6 122 -12 128 -4 4 -2 13 4 20 7 9 7 25 -1 55 -8 29 -8 45 -1 52 6 6 11 19 11 29 0 14 11 18 68 21 37 2 70 4 74 5 4 1 10 -9 14 -23z m-404 -132 c2 -82 1 -162 -1 -180 -3 -29 -5 -31 -28 -22 -13 5 -46 9 -73 9 l-48 0 -4 143 c-5 211 -10 197 78 197 l73 0 3 -147z m199 20 c1 -135 -1 -206 -6 -211 -1 -2 -26 -5 -55 -7 -28 -2 -54 -5 -56 -8 -3 -3 -13 -3 -22 0 -14 3 -17 15 -16 61 1 31 2 110 3 175 l1 117 75 0 75 0 1 -127z m591 104 c2 -12 2 -89 0 -170 l-5 -147 -68 0 -69 0 -2 123 c-1 67 -2 143 -2 169 l-1 48 71 0 c67 0 72 -2 76 -23z m200 0 c2 -12 2 -89 0 -170 l-5 -147 -67 0 -67 0 -5 147 c-6 204 -10 193 72 193 62 0 68 -2 72 -23z m199 -4 c2 -16 3 -92 1 -170 l-4 -143 -74 0 -74 0 0 170 0 170 74 0 c73 0 74 0 77 -27z m200 0 c2 -16 3 -92 1 -170 l-4 -141 -70 -4 c-38 -2 -72 -1 -74 1 -2 2 -4 80 -4 173 l0 168 74 0 c73 0 74 0 77 -27z m200 0 c2 -16 3 -92 1 -170 l-4 -143 -74 0 -74 0 0 170 0 170 74 0 c73 0 74 0 77 -27z m200 0 c2 -16 3 -92 1 -170 l-4 -141 -70 -4 c-38 -2 -72 -1 -74 1 -2 2 -4 80 -4 173 l0 168 74 0 c73 0 74 0 77 -27z m151 5 c2 -15 11 -24 25 -26 14 -2 23 -11 25 -25 2 -14 11 -23 26 -25 22 -3 23 -7 20 -75 -3 -66 -5 -72 -25 -75 -17 -3 -23 -10 -23 -28 0 -19 -5 -24 -25 -24 -18 0 -25 -5 -25 -19 0 -15 -9 -20 -46 -23 -25 -2 -47 -1 -50 1 -2 2 -4 80 -4 173 l0 168 49 0 c44 0 50 -3 53 -22z m-2192 -48 c0 -15 -7 -20 -25 -20 -18 0 -25 5 -25 20 0 15 7 20 25 20 18 0 25 -5 25 -20z"
       id="path207" />
  </g>
  <path
     style="fill:#000000;stroke-width:0.75"
     d="m 52.678804,33.527464 c 0.632979,-0.211543 0.937431,-0.966235 1.462835,-1.316488 0.715383,-0.476899 0.42546,-0.08636 1.023985,-0.585106 0.834915,-0.695728 1.784301,-1.222584 2.633105,-1.901594 0.190381,-0.152297 0.412736,-0.26644 0.585134,-0.438829 0.0771,-0.07709 0.06919,-0.21546 0.146284,-0.292553 0.122059,-0.122054 0.708404,-0.458139 0.877701,-0.585106 0.174455,-0.130834 0.400214,-0.176983 0.585134,-0.292553 0.124171,-0.0776 0.385614,-0.397239 0.438851,-0.43883 0.282196,-0.220455 0.702888,-0.310396 1.023985,-0.438829 0.311121,-0.124442 0.60084,-0.400541 0.877702,-0.585106 1.336685,-0.89108 1.462836,-2.776822 1.462836,-4.242017"
     id="path740" />
  <path
     style="fill:#d40000;stroke-width:0.75"
     d="m 16.138965,28.922914 c -0.51877,0.3532 -1.098849,0.173253 -1.667947,0.284592 -0.150187,0.02939 -0.275767,0.179955 -0.405955,0.198552 -0.150202,0.02146 -0.369818,0.04066 -0.494206,0.145605 -0.327549,0.276352 -0.32743,1.70931 -0.335355,2.045091 -0.02088,0.884746 -0.130923,1.758933 -0.09708,2.647365 0.03433,0.901233 0.181792,1.807918 0.202977,2.713551 0.03411,1.458225 0.03192,2.883929 0.264754,4.328442 0.058,0.359826 0.02836,0.949258 0.238278,1.264118 0.152165,0.228232 0.365234,0.466167 0.591283,0.622131 0.276613,0.190851 0.634275,0.188387 0.944287,0.284592 0.785315,0.243703 1.69784,0.749847 1.976826,1.548709 0.0822,0.235368 0.09554,0.491946 0.150027,0.728025 0.09455,0.409709 0.268472,0.79938 0.353004,1.217789 0.226745,1.122313 0.309076,2.271443 0.476556,3.401865 0.131389,0.88681 0.219738,2.027514 0.74131,2.779734 0.459794,0.663122 1.255634,0.373312 1.870925,0.754499 0.449194,0.278288 0.834329,0.819431 1.182564,1.211171 0.511313,0.575189 0.932091,1.363398 1.279642,2.045089 0.125822,0.24679 0.516518,1.342607 0.767785,1.429578 1.033784,0.357825 2.211797,0.25993 3.150566,0.91996 0.920954,0.647504 0.65387,2.543083 1.844449,3.520996 0.390898,0.321075 0.879812,0.46329 1.376718,0.46329 0.129179,0 0.339217,-0.03512 0.458906,0 0.534835,0.156952 1.013549,0.475043 1.385543,0.886867 0.570531,0.631619 0.703734,1.443254 0.847211,2.250261 0.01943,0.109316 0.05886,0.447503 0.09708,0.536092 0.153395,0.355575 0.314886,0.743654 0.529507,1.065565 0.722007,1.082941 2.031382,0.05631 2.965238,0.880248 0.578124,0.510078 1.191989,0.919854 1.50027,1.667841 0.257983,0.625948 0.356391,1.38226 0.79426,1.912722 0.340859,0.412937 1.79384,0.811572 2.31218,1.058946 0.772879,0.36885 1.667101,1.402745 1.773848,2.28335 0.05125,0.422767 0.1653,0.83601 0.423606,1.1847 0.211127,0.285 1.151538,0.452767 1.51792,0.509617 0.236329,0.03668 0.562881,-0.07792 0.81191,-0.08604 0.534203,-0.0174 1.060248,0.19809 1.588521,0 0.135642,-0.05085 0.182325,-0.39789 0.202978,-0.476527 0.233515,-0.889095 -0.07019,-1.789395 0.591282,-2.548088 0.532991,-0.611332 1.41165,-0.803609 2.162153,-0.99938 0.354373,-0.09244 0.646412,-0.03674 0.988413,-0.238263 0.433233,-0.255281 -0.09644,-0.0099 0.308879,-0.324302 0.03041,-0.0236 0.082,0.007 0.114726,-0.01324 0.146513,-0.09077 0.342344,-0.331699 0.441256,-0.476526 0.207814,-0.30428 0.233683,-0.622905 0.335355,-0.95967 0.231027,-0.765229 0.36018,-1.580008 0.608932,-2.349537 0.09494,-0.293695 0.09783,-0.605192 0.220629,-0.893486 0.45465,-1.067374 1.683188,-1.499002 2.109201,-2.554708 0.394887,-0.97857 -0.0087,-2.237471 0.255929,-3.249642 0.116583,-0.4459 0.281362,-1.011294 0.670708,-1.290591 0.334091,-0.239658 0.777111,-0.325428 0.961938,-0.741262 0.321044,-0.722303 0.138472,-1.541852 0.185328,-2.303209 0.04303,-0.699313 0.105144,-1.318528 0.370654,-1.965669 0.179165,-0.436685 0.80327,-1.340428 1.253167,-1.50238 0.786751,-0.283212 1.968391,-0.2715 2.515157,-1.019236 0.192848,-0.263729 0.286784,-0.641612 0.370655,-0.946433 0.133523,-0.485273 0.348924,-0.942803 0.405955,-1.456051 0.04983,-0.448432 0.06743,-0.970045 0.220628,-1.403105 0.322925,-0.912825 1.515147,-1.256041 1.870925,-2.170839 0.354943,-0.912654 -0.07075,-1.96089 0.291229,-2.865774 0.07524,-0.188088 0.172932,-0.116454 0.317703,-0.225026 0.387339,-0.290485 0.740627,-0.05836 1.164915,-0.158842 0.443811,-0.105106 0.760263,-0.613718 0.926637,-0.999381 0.04084,-0.09468 0.04046,-0.222594 0.07061,-0.324302 0.09988,-0.337063 0.281029,-0.648649 0.353005,-0.992762 0.341492,-1.632657 0.470473,-3.273032 0.538332,-4.943956 0.08342,-2.054008 0.09985,-4.091045 0.0353,-6.148507 -0.0357,-1.137845 -0.184104,-2.258494 -0.220629,-3.395247 -0.04318,-1.343748 0.01879,-2.709682 -0.0706,-4.05047 -0.02953,-0.442884 -0.129398,-0.888249 -0.150027,-1.33692 -0.03838,-0.834673 -0.02532,-1.951132 -0.555983,-2.54809 -0.06068,-0.06826 -0.216006,-0.201705 -0.300054,-0.264736 -0.04401,-0.03301 -0.245154,0.02401 -0.308878,0.01985 -0.147929,-0.0096 -0.285165,-0.110918 -0.423606,-0.12575 -0.184256,-0.01974 -0.382042,-0.02792 -0.582458,-0.05957 -0.416818,-0.06581 0.369983,0.02852 -0.141201,-0.09928 -0.195472,-0.04886 -0.628405,-0.07405 -0.811911,-0.05956 -0.08519,0.0068 -0.308664,-0.09345 -0.388305,-0.105895 -0.294522,-0.04601 -0.597003,8.25e-4 -0.891336,-0.01985 -0.222871,-0.01567 -0.219846,-0.06624 -0.441256,-0.09266 -0.233225,-0.02782 -0.662525,-0.09142 -0.891337,-0.06619 -0.09193,0.01014 -0.181988,0.0592 -0.273578,0.04633 -0.872103,-0.122632 -1.72513,-0.09375 -2.576933,0.05957 -0.53139,0.09564 -1.506165,0.0598 -2.100378,0.105894 -0.733299,0.05689 -2.214182,-0.05835 -2.868163,0.198552 -0.166179,0.06528 -0.325692,0.214213 -0.503031,0.291211 -0.209582,0.091 -0.426293,0.143515 -0.608933,0.271355 -0.349787,0.244836 -0.285043,0.96151 -0.494206,1.317065 -0.382446,0.650116 -0.812925,1.187789 -1.376718,1.681077 -0.231446,0.202503 -0.451272,0.444067 -0.72366,0.589039 -0.569096,0.302886 -1.85563,0.592545 -2.144502,1.184696 -0.708081,1.451473 -1.176226,2.872375 -2.771086,3.600418 -0.333434,0.15221 -0.639774,0.351769 -0.997238,0.45667 -0.310933,0.09125 -0.499594,-0.07397 -0.77661,-0.145605 -0.391819,-0.101326 -0.68049,-0.242164 -0.979588,-0.496381 -0.05831,-0.04956 -0.148852,-0.02024 -0.202978,-0.09928 -0.392319,-0.572951 -0.343406,-1.38677 -0.50303,-2.025227 C 42.263719,25.610092 42.087595,25.397218 41.934784,25.12394 41.777855,24.843297 41.723615,24.678339 41.493528,24.475335 41.376457,24.372056 41.297413,24.192107 41.140514,24.1378 40.738819,23.99876 39.817878,23.713146 39.534343,23.429629 39.267517,23.16282 39.136288,22.796399 38.960711,22.463341 38.811412,22.180129 38.57639,21.96146 38.422379,21.67575 c -0.305481,-0.566712 -0.489597,-1.156132 -0.997238,-1.568564 -0.08537,-0.06935 -0.122525,-0.208112 -0.202978,-0.277974 -0.07319,-0.06355 -0.173018,-0.07325 -0.255928,-0.112513 -0.321716,-0.152383 -0.612684,-0.390705 -0.979587,-0.489763 -0.357554,-0.09653 -0.734571,-0.150062 -1.094315,-0.238263 -0.170631,-0.04183 -0.334986,-0.185118 -0.503031,-0.218407 -0.170266,-0.03373 -0.34878,0.01741 -0.520682,-0.0066 -1.192508,-0.166739 -2.355155,-0.06675 -3.547696,0.04633 -0.263767,0.02501 -0.532047,-0.03275 -0.79426,-0.01985 -0.368125,0.01811 -0.859118,0.02387 -1.217866,0.105895 -0.118801,0.02717 -0.216608,0.118203 -0.335354,0.145605 -0.140663,0.03246 -0.884124,0.138987 -1.014889,0.138987 -0.663368,0 -1.38464,0.06239 -1.985651,0.311065 -0.09413,0.03895 -0.245306,-0.02414 -0.344179,0 -0.247639,0.06046 -0.49355,0.193476 -0.697184,0.330921 -0.100686,0.06796 -0.265802,0.103252 -0.36183,0.178697 -0.736389,0.578555 -0.783606,1.627803 -1.288467,2.362774 -0.267552,0.389501 -0.628347,0.759909 -0.979587,1.092038 -0.501936,0.474627 -1.727007,0.479886 -2.259229,1.118513 -0.344231,0.413051 -0.39539,1.027281 -0.511857,1.522235 -0.188402,0.800654 -0.480314,2.027191 -1.103139,2.581182 -0.06674,0.05937 -0.526019,0.515382 -0.679535,0.476526 -0.210528,-0.05329 -0.405954,-0.15443 -0.608932,-0.231645 z"
     id="path750" />
  <path
     style="fill:#d40000;stroke-width:0.75"
     d="m 68.065939,24.045142 c 0.08453,0.940764 -0.267036,1.964776 0.520681,2.653984 0.05607,0.04906 0.221943,0.258119 0.273579,0.258119 0.340581,0 0.803062,0.06371 1.023714,0.377249 0.45862,0.651683 0.276914,1.620785 0.476556,2.369393 0.172901,0.648337 1.061399,0.857353 1.447319,1.436196 0.221359,0.332017 0.208514,2.155773 0.220627,2.528235 0.0966,2.97033 0.04883,6.299986 -1.517919,8.928241 -0.666883,1.118713 -1.924627,2.244155 -3.274118,2.316445 -0.385438,0.02065 -2.106731,-0.242181 -2.268054,-0.0728 -0.878839,0.922722 -0.210593,1.798527 -0.467731,2.859156"
     id="path884" />
  <path
     style="fill:#d40000;stroke-width:0.75"
     d="m 67.324629,21.42425 c -0.0047,0.502325 -0.0051,0.92726 0.414781,1.25088 0.386065,0.297574 1.629507,0.231606 1.738547,0.317685 0.410846,0.324331 0.663395,2.729222 0.697184,3.375391 0.0115,0.220025 -0.03678,0.571616 0.05295,0.780973 0.342575,0.799289 1.685866,-0.261288 2.144503,0.972907 0.206938,0.55687 0.130615,1.197756 0.300054,1.760498 0.27776,0.922502 0.515659,1.928302 0.608932,2.898866 0.103908,1.081224 -0.02161,2.183891 0,3.269497 0.04367,2.194505 0.254387,4.098942 -0.82956,6.09556 -0.165009,0.303943 -0.383106,0.466113 -0.591283,0.734644 -0.08601,0.110946 -0.136635,0.274548 -0.255928,0.364013 -0.546065,0.409522 -1.845891,0.671304 -2.550458,0.919959 -0.272306,0.0961 -0.442794,0.297639 -0.688359,0.443434 -0.583378,0.346358 -1.475474,0.531026 -2.109203,0.284592"
     id="path886" />
  <path
     style="fill:#d40000;stroke-width:0.75"
     d="m 68.692522,43.344439 c -0.306037,0.207107 -0.464584,0.549393 -0.714834,0.807448 -1.663453,1.715326 -0.31663,3.522886 -1.403193,5.215311 -0.232624,0.362332 -0.456603,0.269115 -0.820736,0.390485 -0.483843,0.161271 -0.701009,1.047831 -0.776611,1.456052 -0.275442,1.487296 0.109322,2.844139 -0.84721,4.196075 -0.252142,0.356369 -0.607028,0.72511 -1.014889,0.913341 -0.177184,0.08177 -0.289773,0.03943 -0.467731,0.0728 -0.588147,0.11027 -1.341859,0.437071 -1.659121,0.986143 -0.325451,0.563246 -0.474277,2.032114 -0.450081,2.667221 0.02325,0.61021 0.0323,1.144155 -0.361829,1.67446 -0.342927,0.461407 -0.813417,0.926349 -1.314942,1.224406 -0.570999,0.339346 -1.211289,0.0973 -1.632647,0.747881 -0.399727,0.617187 0.05014,2.23776 -0.476556,3.084182 -0.163206,0.262278 -0.637403,0.74279 -0.944287,0.800828 -0.244958,0.04633 -0.939573,0.02765 -1.226691,0.225025 -0.521331,0.358393 -0.977449,0.778081 -1.438494,1.197934 -0.218135,0.198646 -0.523977,1.352364 -0.591282,1.667841 -0.138566,0.649482 -0.438337,1.600561 -1.111965,1.853156 -0.257878,0.0967 -0.564432,0.124164 -0.829561,0.20517"
     id="path888" />
  <path
     style="fill:#d40000;stroke-width:0.75"
     d="m 55.551926,64.007131 c 0.03976,-0.716441 -0.02623,-1.460957 0.220629,-2.150985 0.06144,-0.171747 0.201531,-0.30446 0.291228,-0.463289 0.05017,-0.08885 0.102171,-0.4386 0.202978,-0.503 0.303233,-0.19372 0.962549,-0.07785 1.164915,-0.469907 0.143716,-0.278434 -0.0353,-0.723196 -0.0353,-1.019236 0,-0.646839 0.02783,-1.310803 0.114727,-1.952432 0.05124,-0.378381 0.238447,-0.723514 0.317705,-1.092038 0.06984,-0.324739 0.104634,-0.713232 0.326529,-0.986145 0.487969,-0.600163 1.282843,-0.369882 1.870924,-0.628749 0.357912,-0.157549 0.865317,-0.445975 1.147265,-0.708171 0.615163,-0.572064 0.56155,-1.363722 0.767785,-2.111274 0.165376,-0.599451 0.372831,-1.21944 0.670709,-1.767117 0.06857,-0.126075 0.282937,-0.57054 0.405955,-0.70817 0.605745,-0.677696 1.460361,-1.284355 1.667946,-2.230405 0.202651,-0.923562 -0.590439,-2.191051 0.353005,-2.812827 0.198239,-0.130649 0.467815,-0.337222 0.714834,-0.403723 0.339911,-0.09151 0.860189,-0.164243 1.182566,0.04633 0.718752,0.469478 -0.588189,3.489568 -0.847211,4.162983 -0.271474,0.705786 -0.493688,1.460952 -0.847211,2.13113 -0.38069,0.721678 -0.994949,1.206386 -1.447319,1.866393 -0.367378,0.536005 -0.682875,1.115782 -1.032538,1.661222 -0.134064,0.209125 -0.384068,0.285461 -0.520682,0.476525 -0.402609,0.563073 -0.858268,1.189877 -1.200216,1.793591 -0.03367,0.05946 -0.232598,0.581062 -0.273579,0.66846 -0.325956,0.695161 -0.657763,1.396868 -0.997237,2.0848 -0.209252,0.424043 -0.555757,0.746771 -0.838386,1.118513 -0.218314,0.287148 -0.356775,0.625216 -0.538332,0.933196 -0.208306,0.353355 -0.484445,0.679447 -0.723659,1.012618 -0.467781,0.65151 -0.719514,0.975351 -1.270817,1.568564 -0.116311,0.125153 -0.221788,0.372361 -0.405955,0.436815 -0.139592,0.04885 -0.294171,0.03088 -0.441256,0.04633 z"
     id="path890" />
  <path
     style="fill:#d40000;stroke-width:0.75"
     d="m 58.190635,53.808154 c 0.01471,-0.194141 -0.05126,-0.412694 0.04412,-0.582421 0.246257,-0.438165 1.499339,-0.371304 1.809149,-0.218408 1.386658,0.684339 0.419325,2.333979 -0.388305,2.96505 -0.314369,0.245644 -0.606171,0.740802 -0.997238,0.661842 -0.04565,-0.0092 -2.26115,-1.439507 -1.279642,-2.230407 0.261366,-0.210607 0.541274,-0.397104 0.811911,-0.595656 z"
     id="path892" />
  <path
     style="fill:#d40000;stroke-width:0.75"
     d="m 66.953974,44.277636 c -0.866825,0.105313 -1.509749,1.114282 -1.288466,1.985524 0.04627,0.18221 0.301745,0.283324 0.441255,0.178698 0.336694,-0.252504 0.376343,-0.64734 0.626583,-0.853776 0.121532,-0.100257 0.08869,-0.08144 0.247103,-0.238263 0.0483,-0.04781 0.215535,-0.07184 0.238278,-0.112513 0.09009,-0.161114 0.04609,-0.179852 0.167678,-0.2515 0.07588,-0.04471 0.157406,0.0051 0.238278,-0.01985 0.300069,-0.09266 0.08238,-0.580122 0.05295,-0.774355 -0.01167,-0.07702 0.04399,-0.195325 -0.0353,-0.244881 -0.215896,-0.134927 -0.486425,0.175874 -0.688359,0.33092 -0.945178,0.725716 -1.224064,0.815377 -1.253165,2.157604 -0.0076,0.351418 -0.0321,0.638887 0.300053,0.840538 0.342016,0.20764 0.544894,-0.193531 0.732484,-0.383868 0.172161,-0.174681 0.409331,-0.264796 0.591283,-0.430197 0.803458,-0.730369 1.042809,-1.501116 0.194152,-2.243643"
     id="path894" />
  <path
     style="fill:#d40000;stroke-width:0.75"
     d="m 39.604945,23.859826 c 0.7693,0.263466 1.590168,-0.18108 2.312179,0.225027 0.538883,0.303102 1.024605,1.376499 1.217866,1.939195 0.225358,0.656149 0.132805,1.411543 0.520682,2.018617 0.253837,0.397285 0.921431,1.03909 1.420844,1.03909 0.114413,0 0.782476,-0.0472 0.379479,0.01324"
     id="path896" />
  <path
     style="fill:#d40000;stroke-width:0.75"
     d="m 41.714146,26.460863 c -0.02353,0.189729 -0.09911,0.38014 -0.0706,0.569184 0.04903,0.325158 0.494681,1.268919 0.714834,1.542091 0.399745,0.496015 1.107421,1.128971 1.817974,1.005999 0.09081,-0.01571 0.03609,-0.180752 0.05295,-0.271355 0.01913,-0.102809 0.08127,-0.237969 0.05295,-0.344158 -0.140912,-0.528384 -0.351744,-0.847787 -0.679534,-1.257499 -0.154557,-0.193184 -0.183935,-0.474437 -0.317705,-0.675078 -0.523397,-0.785046 -0.05612,-0.04272 -0.335354,-0.397105 -0.124159,-0.157577 -0.134539,-0.397164 -0.229453,-0.569184 -0.139861,-0.253483 -0.230163,-0.355019 -0.450081,-0.138986 -0.183657,0.180413 -0.570691,0.279065 -0.555982,0.536091 0.01499,0.261986 0.859817,1.421066 1.182566,1.75388"
     id="path898" />
  <path
     style="fill:#d40000;stroke-width:0.75"
     d="m 17.33918,43.953334 c -0.147085,-0.05074 -0.289173,-0.119361 -0.441255,-0.152224 -0.08716,-0.01883 -0.258364,0.09095 -0.353005,0.105895 -0.226237,0.03572 -0.512698,0.01441 -0.741309,0.0066 -0.466762,-0.01591 -1.527677,-0.431985 -1.853274,-0.767736 -0.845216,-0.871573 -1.008496,-2.442692 -1.17374,-3.587181 -0.164984,-1.142678 -0.353005,-2.180955 -0.353005,-3.3423 0,-0.778782 -0.05146,-1.592025 0.01765,-2.369392 0.05393,-0.606691 0.192549,-1.191986 0.273578,-1.793591 0.139834,-1.038198 0.2335,-2.261061 1.032539,-3.017997 0.127014,-0.120321 0.218545,-0.308196 0.37948,-0.390486 0.136092,-0.06959 0.52412,-0.293039 0.661884,-0.330921 0.193483,-0.05321 2.254645,0.06817 2.515157,0.119131 1.09274,0.213784 1.537805,1.784741 1.888574,2.653985 0.958316,2.374803 1.099151,4.978287 0.811911,7.498664 -0.290131,2.545741 -0.06563,4.082606 -2.665185,5.367534 z"
     id="path902" />
  <path
     style="fill:#d40000;stroke-width:0.75"
     d="m 17.912813,30.048044 c -0.561006,-1.034933 -0.435634,-2.191209 -0.291229,-3.315825 0.0917,-0.714123 0.09386,-1.485823 0.34418,-2.177459 0.09381,-0.259183 0.682764,-0.462409 0.926637,-0.562565 0.293707,-0.120622 0.644124,-0.260784 0.944287,-0.344158 0.178883,-0.04969 0.370326,0.03309 0.555982,0.03309 0.693262,0 1.18243,-0.09581 1.756198,0.383868 1.325603,1.108221 0.566497,3.011491 -0.238278,4.202693 -0.04209,0.0623 -0.198747,0.32323 -0.220628,0.344158 -0.481456,0.460494 -1.118172,1.026305 -1.720897,1.323683 -0.629969,0.31082 -1.408754,0.0914 -2.056252,0.112513 z"
     id="path904" />
  <path
     style="fill:#d40000;stroke-width:0.75"
     d="m 21.795863,24.627563 c -0.144648,-0.670369 -0.160638,-1.966777 0.132377,-2.5878 0.02267,-0.04805 0.0706,-0.07942 0.105901,-0.119132 0.04412,-0.105895 0.09791,-0.208263 0.132377,-0.317684 0.146985,-0.466648 0.415329,-1.860186 0.838386,-2.177458 0.161484,-0.121106 0.469036,-0.150711 0.661884,-0.218408 0.373601,-0.13115 0.189721,-0.166108 0.608932,-0.238263 0.310985,-0.05353 0.650183,-0.007 0.961938,-0.0728 0.291574,-0.0615 0.531149,-0.169835 0.838386,-0.178697 0.526269,-0.01518 1.016554,0.02627 1.544395,-0.03971 0.22711,-0.02839 0.490127,0.06818 0.723659,0.05295 1.227605,-0.08005 -0.11918,0.01837 0.644234,-0.158841 0.09877,-0.02293 0.593795,0.05421 0.608932,0.05295 0.219768,-0.01831 0.43407,-0.07988 0.653059,-0.105895 0.220432,-0.02619 0.441318,0.03645 0.661884,0.01324 0.513047,-0.054 1.032175,-0.087 1.55322,-0.09266 0.283168,-0.0031 0.574602,0.06587 0.856036,0.05295 1.198816,-0.05504 2.42457,-0.308213 3.530046,0.344157 0.266972,0.157548 0.277372,0.220603 0.458906,0.46329 0.123451,0.165039 0.354477,0.332952 0.467731,0.509618 0.811078,1.2652 -0.204013,3.041473 -1.129615,3.911482 -0.35869,0.337148 -1.135939,0.625827 -1.606171,0.794211 -1.839079,0.658547 -3.850693,0.859158 -5.789275,0.933196 -1.813598,0.06926 -3.476552,0.09983 -5.277418,-0.198553 -0.465828,-0.07718 -1.145956,-0.0285 -1.579696,-0.238262 -0.213773,-0.103384 -0.400072,-0.255913 -0.600108,-0.383868 z"
     id="path906" />
  <path
     style="fill:#d40000;stroke-width:0.75"
     d="m 52.816141,22.827354 c 0.243525,-0.729859 -0.314316,-2.488769 0.123552,-3.0908 0.329484,-0.453012 0.819,-0.453965 1.332591,-0.483144 0.372067,-0.02114 0.756973,-0.116922 1.129615,-0.158842 0.987647,-0.111104 1.892604,-0.422699 2.903463,-0.529473 0.306576,-0.03238 0.624846,0.03189 0.926637,0.05295 0.387117,0.02701 0.782865,-0.06727 1.164915,-0.05295 0.512709,0.01922 1.061026,0.145339 1.588521,0.132368 0.475955,-0.0117 0.930035,-0.0242 1.385543,-0.105895 0.587048,-0.105279 1.234593,0.12575 1.809148,0.12575 0.820313,0 1.690729,-0.09522 2.409257,0.403723 0.44335,0.307863 0.326825,1.05759 0.353005,1.522236 0.02429,0.431088 0.202109,1.325355 0.05295,1.707551 -0.173669,0.444996 -0.729201,0.518712 -1.129615,0.661841 -0.133829,0.04784 -1.951901,0.740684 -2.418082,0.847157 -0.787244,0.179803 -1.594725,0.203224 -2.391606,0.311066 -0.622141,0.08419 -1.174981,0.175369 -1.809148,0.16546 -0.667919,-0.01043 -1.335396,-0.04169 -2.003301,-0.05295 C 57.251943,24.266692 56.1431,24.386617 55.181271,24.098087 54.34023,23.845791 53.4935,23.370373 52.81614,22.827352 Z"
     id="path908" />
  <path
     style="fill:#d40000;stroke-width:0.75"
     d="M 48.244732,28.426533 C 48.089588,27.992586 48.102,27.534814 48.041754,27.082994 c -0.15719,-1.178845 -0.222872,-2.344014 0.529507,-3.342299 0.270459,-0.358855 2.906303,-0.299022 3.371193,-0.152224 0.137633,0.04346 0.304296,0.183884 0.370656,0.311066 0.348837,0.668563 0.448391,2.147337 0.123551,2.852537 -0.147072,0.31928 -0.371991,0.40149 -0.635408,0.622131 -0.219669,0.183997 -0.38468,0.426568 -0.600108,0.615512 -0.432182,0.379051 -1.921113,0.841568 -2.444557,0.661842 -0.176278,-0.06052 -0.341237,-0.150018 -0.511856,-0.225026 z"
     id="path910" />
  <path
     style="fill:#d40000;stroke-width:0.75"
     d="m 51.6071,23.462722 c 0.697183,-0.02278 0.829561,-0.44099 0.829561,-1.052328 0,-0.828187 -0.08357,-1.819713 0.202978,-2.607656 0.153441,-0.421937 1.120107,-0.115134 1.332592,0.112513 0.16743,0.179378 0.32975,0.459608 0.405955,0.694934 0.257844,0.796232 0.155473,1.904828 -0.326529,2.594418 -0.224023,0.320504 -0.511408,0.458916 -0.81191,0.675079 -0.26534,0.19087 -0.592004,0.542169 -0.926637,0.29121"
     id="path912" />
  <path
     style="fill:#d40000;stroke-width:0.75"
     d="m 64.977148,49.823868 c 0.728955,0.08295 1.354208,-0.103489 1.888576,-0.575802 0.202103,-0.178633 0.564252,-0.162791 0.794259,-0.317684 0.380382,-0.256159 0.570777,-0.674493 0.794261,-1.065565 0.493336,-0.863283 0.151587,-2.849694 0.06178,-3.746023 -0.06632,-0.66189 0.04851,-2.235879 -0.908986,-2.263497 -0.264933,-0.0076 -0.579627,0.17181 -0.811911,0.271355 -1.408743,0.603708 -1.823116,1.851129 -2.162154,3.25626 -0.141914,0.58816 -0.242667,1.154559 -0.282403,1.760498 -0.01929,0.294181 -0.13671,2.15167 0.167677,2.37601 0.147772,0.108912 0.305937,0.202965 0.458906,0.304448 z"
     id="path914" />
  <path
     style="fill:#d40000;stroke-width:0.75"
     d="m 28.017569,59.341148 c -0.03897,0.351685 -0.30057,-0.823411 -0.450081,-0.655223 -0.132564,0.149126 0.306482,0.203339 0.450081,0.655223 0.09448,0.297305 0.02513,0.624574 0.0706,0.933197 0.03478,0.236046 0.225709,0.497298 0.291228,0.728026 0.1776,0.625417 0.251958,1.24812 0.388306,1.873011 0.141451,0.648275 0.898966,0.865096 1.482619,0.992762 0.510757,0.111721 1.202721,-0.136862 1.756198,-0.03309 0.599165,0.112336 0.919383,0.884303 1.500269,0.635368 C 35.00457,63.828557 34.365594,61.946725 33.242036,61.22078 32.620906,60.81946 31.884781,60.564903 31.22991,60.228017 30.760777,59.986681 30.913441,59.930453 30.382699,59.75811 30.089491,59.6629 29.72469,59.69677 29.420761,59.638979 28.887385,59.537569 28.626517,59.420573 28.017568,59.34115 Z"
     id="path916" />
  <path
     style="fill:#d40000;stroke-width:0.75"
     d="m 27.090932,59.036702 c 0.09296,0.629689 0.26787,1.242006 0.388305,1.866393 0.181623,0.941614 0.280937,2.330564 1.103139,2.965049 0.753907,0.581782 2.572779,1.074239 3.547697,1.005999 0.332928,-0.0233 0.610956,-0.19029 0.926637,-0.277973 0.355745,-0.09881 0.906689,-0.245281 0.926637,-0.701552 0.0268,-0.612895 -0.513198,-1.342002 -0.864862,-1.806827 -0.768178,-1.015373 -1.837183,-1.833332 -3.000539,-2.349538 -0.392168,-0.174014 -0.849198,-0.237786 -1.261991,-0.357395 -0.292816,-0.08484 -1.004239,-0.462939 -1.235516,-0.45667 -0.180376,0.0049 -0.374261,0.204481 -0.529507,0.112513 -1.546106,1.251795 -0.291163,-0.569135 -0.538332,-0.754499 -0.05846,-0.04384 0.06292,0.13284 0.105902,0.191934"
     id="path918" />
  <path
     style="fill:#d40000;stroke-width:0.75"
     d="m 37.001536,68.348811 c 0.43251,0.575322 0.449835,1.275289 0.573632,1.945813 0.113046,0.612295 0.341148,1.224001 0.476556,1.833302 0.05735,0.258077 0.08604,0.514964 0.220628,0.747881 0.261525,0.45261 1.941005,1.05909 2.479857,1.105275 0.297983,0.02554 0.548,-0.02569 0.856037,0.02648 0.388816,0.06584 0.940122,0.319245 1.314942,0.178697 0.532527,-0.199686 0.498858,-0.859388 0.291228,-1.290591 -0.04133,-0.08582 -0.720351,-0.796405 -0.811911,-0.886868 -0.458434,-0.452948 -1.031226,-0.824276 -1.447318,-1.330302 -0.305591,-0.37164 -0.04425,-0.135996 -0.370655,-0.509617 -0.975384,-1.116488 -2.138611,-1.654395 -3.582996,-1.820064 z"
     id="path920" />
  <path
     style="fill:#d40000;stroke-width:0.75"
     d="m 42.455456,73.186872 c 0.333565,0.693783 0.220629,1.460114 0.220629,2.203931 0,0.756442 0.266827,1.15386 0.741309,1.720792 0.964184,1.152045 2.695147,0.889523 3.980126,0.47652 0.469653,-0.150945 0.560826,-1.277977 0.591283,-1.614892 0.08085,-0.894285 0.566872,-1.889892 0.105902,-2.746641 -0.06868,-0.12764 -0.130091,-0.336192 -0.255929,-0.443433 -0.171688,-0.146316 -0.543184,-0.411996 -0.77661,-0.450052 -0.182912,-0.02982 -0.371924,0.02165 -0.555982,0 -0.412352,-0.04851 -0.790426,-0.116907 -1.209041,-0.125751 -0.591448,-0.0125 -1.151505,0.173669 -1.694422,0.377251 -0.12968,0.04863 -0.389911,0.05965 -0.503031,0.132368 -0.22359,0.143727 -0.429489,0.313271 -0.644234,0.469907 z"
     id="path922" />
  <path
     style="fill:#d40000;stroke-width:0.75"
     d="m 41.820048,72.769912 c 0.372711,0.738931 0.444916,1.576489 0.485381,2.395868 0.03979,0.805695 0.318854,2.092905 0.829561,2.753258 0.469785,0.607439 2.185277,0.203482 2.779911,0.01987 0.45389,-0.140167 1.618245,-0.277717 1.888575,-0.661845 0.404355,-0.574574 0.355446,-2.105625 0.326529,-2.799589 -0.02014,-0.483386 0.171591,-1.166428 -0.141202,-1.568564 -0.295669,-0.380121 -0.599175,-0.710144 -1.094314,-0.833921 -0.07337,-0.01835 -0.145148,0.04816 -0.220628,0.05295 -0.135119,0.0086 -0.271999,0.0065 -0.405955,-0.01324 -0.138365,-0.0203 -0.267283,-0.08781 -0.405955,-0.105894 -0.405892,-0.05294 -0.443041,0.106845 -0.785435,0.145605 -0.534038,0.06045 -1.07078,0.03224 -1.606171,0.04633 -0.2737,0.0072 -0.6257,0.228718 -0.882511,0.185315 -0.278467,-0.04706 -0.718369,-0.208404 -0.74131,-0.09266 -0.03093,0.156051 -0.01765,0.317685 -0.02648,0.476526 z"
     id="path924" />
  <path
     style="fill:#d40000;stroke-width:0.75"
     d="m 47.115117,74.589976 c 1.545499,-0.289521 3.26679,-0.252623 4.553759,-1.217788 0.116641,-0.08748 0.322883,-0.13949 0.423606,-0.277974 0.343018,-0.47162 0.942875,-3.068921 1.085489,-3.759259 0.09944,-0.48137 0.654209,-1.732299 0.353004,-2.184077 -0.14654,-0.219797 -0.667368,-0.05463 -0.81191,0.01324 -0.385515,0.181012 -0.796261,0.37546 -1.182566,0.562565 -0.349728,0.169389 -0.17966,0.175086 -0.617758,0.436815 -0.753348,0.450065 -1.18652,0.634728 -1.747372,1.343539 -0.604601,0.764098 -0.983334,1.88774 -1.332593,2.786351 -0.295817,0.761113 -0.342599,1.567367 -0.723659,2.296591 z"
     id="path926" />
  <path
     style="fill:#d40000;stroke-width:0.75"
     d="m 49.745001,72.730201 c 0.312068,-0.06628 0.630928,0.07221 0.944288,0.03971 0.335873,-0.03484 1.637556,-0.380492 1.897399,-0.622131 0.471715,-0.438667 1.085794,-2.840445 1.164915,-3.567326 0.04875,-0.447877 0.508018,-1.572904 0.06178,-1.95905 -0.650809,-0.563165 -2.036421,1.029682 -2.34748,1.50238 -0.499139,0.758512 -0.906245,1.659107 -1.191391,2.521616 -0.220233,0.666162 -0.48056,1.38736 -0.529507,2.084801 z"
     id="path928" />
  <path
     style="fill:#00ff00;stroke-width:0.169421"
     d="m 140.67273,85.216655 c -2.87406,-0.912521 -4.75879,-1.12334 -10.90708,-1.220022 l -5.4322,-0.08542 -0.32811,-11.629269 c -0.39547,-14.017238 -0.44208,-27.904454 -0.0987,-29.403208 0.48958,-2.136776 1.26989,-3.219323 2.71746,-3.770009 0.69566,-0.264647 1.66779,-0.303378 8.95494,-0.35678 4.496,-0.03295 8.17676,-0.0362 8.17946,-0.0072 0.12537,1.346009 0.49552,24.732324 0.49558,31.310821 9e-5,8.989894 -0.12053,12.386555 -0.50318,14.170346 -0.35434,1.651785 -0.67312,1.754393 -3.07819,0.990776 z"
     id="path1070"
     transform="scale(0.75)" />
  <path
     style="fill:#00ff00;stroke-width:0.169421"
     d="m 152.56773,85.709529 c -1.13101,-0.303932 -1.60056,-0.720601 -1.94231,-1.723584 -0.43088,-1.264563 -0.47779,-3.417357 -0.2814,-12.913886 0.1031,-4.98521 0.23786,-14.305476 0.29948,-20.711703 l 0.11204,-11.647685 h 9.85702 9.85702 l 0.11098,2.313969 c 0.061,1.272683 0.11028,9.449358 0.10944,18.170389 -0.002,17.697351 -0.1811,23.563244 -0.74413,24.333235 -0.25292,0.345886 -2.28579,0.650566 -6.70885,1.005496 -4.68913,0.37628 -7.2063,0.723288 -8.05662,1.110653 -0.85901,0.391324 -1.34742,0.403122 -2.61267,0.06312 z"
     id="path1072"
     transform="scale(0.75)" />
  <path
     style="fill:#00ff00;stroke-width:0.169421"
     d="m 204.06494,71.983409 c -0.004,-19.656359 -0.0348,-19.85965 -3.62144,-23.803538 -0.94205,-1.035881 -2.0671,-2.274642 -2.50013,-2.7528 -0.43302,-0.478159 -0.82975,-0.828436 -0.88162,-0.778392 -0.0519,0.05004 0.0145,2.070387 0.14744,4.489653 0.27261,4.960598 0.30051,9.923031 0.13836,24.61654 l -0.11248,10.193173 h -9.8689 -9.86889 l -0.0894,-1.228301 c -0.0492,-0.675566 -0.17386,-3.700371 -0.27706,-6.721787 -0.32128,-9.406325 -0.60461,-12.433712 -1.29857,-13.875497 -0.51467,-1.069268 -0.46192,-1.583052 0.28143,-2.74147 1.03258,-1.609126 1.00937,-3.242394 -0.11154,-7.849987 -0.4722,-1.940992 -0.62808,-2.944663 -0.63817,-4.10885 -0.0133,-1.539437 -0.0129,-1.541158 0.68654,-2.541313 0.79864,-1.142048 1.19607,-2.189804 1.36014,-3.585735 0.26224,-2.231283 1.16929,-2.475029 11.49365,-3.088644 3.16817,-0.188296 6.19162,-0.389195 6.71877,-0.446442 l 0.95846,-0.104086 0.43771,0.661431 c 0.24075,0.363788 0.66558,1.335545 0.94409,2.159462 0.67737,2.003934 1.20395,2.866805 1.97192,3.231229 1.23971,0.588279 2.51193,-0.279843 3.72055,-2.538782 0.34899,-0.65227 0.82206,-1.390071 1.05128,-1.639559 0.56198,-0.611691 1.76519,-1.104746 3.27671,-1.342744 1.46261,-0.230297 7.79315,-0.09682 11.7087,0.246865 2.86419,0.251405 3.04298,0.340205 3.43564,1.706378 0.53696,1.868205 0.6209,3.86461 0.70956,16.874919 0.12608,18.502661 -0.20145,25.806812 -1.20209,26.807452 -0.17929,0.179293 -1.96061,0.273391 -8.25479,0.436066 -4.41439,0.114089 -8.54078,0.253206 -9.16975,0.309149 l -1.14359,0.101712 -0.003,-12.686102 z"
     id="path1074"
     transform="scale(0.75)" />
  <path
     style="fill:#00ff00;stroke-width:0.338842"
     d="m 230.79328,78.865419 c -0.11226,-2.748854 -0.30111,-12.904374 -0.41966,-22.567823 l -0.21555,-17.569907 8.44401,0.119557 c 9.25595,0.131052 9.88059,0.263074 10.66943,2.255038 0.36842,0.930352 0.18434,26.087698 -0.27385,37.424293 l -0.21569,5.336758 h -8.89229 -8.89229 z"
     id="path1076"
     transform="scale(0.75)" />
  <path
     style="fill:#00ff00;stroke-width:0.338842"
     d="m 257.88746,82.762099 c -0.30761,-1.978226 -0.96574,-29.76877 -0.83252,-35.154832 0.14123,-5.709996 0.39576,-6.671654 2.09957,-7.932308 0.89258,-0.660419 1.39509,-0.708157 7.45452,-0.708157 3.57358,0 6.91481,0.11678 7.42495,0.259511 1.80149,0.504035 2.10912,1.532107 2.24984,7.518693 0.13382,5.693464 -0.52827,33.651469 -0.84893,35.847672 l -0.18553,1.270657 h -8.59533 -8.59532 z"
     id="path1078"
     transform="scale(0.75)" />
  <path
     style="fill:#00ff00;stroke-width:0.338842"
     d="M 282.76345,61.301273 V 38.739212 l 8.89459,0.114028 c 6.37247,0.0817 9.10752,0.235697 9.64548,0.54311 1.48897,0.850848 1.55473,2.004308 1.34266,23.551126 -0.10963,11.139376 -0.29145,20.402463 -0.40404,20.584638 -0.12557,0.203172 -3.93033,0.331221 -9.8417,0.331221 h -9.63699 z"
     id="path1080"
     transform="scale(0.75)" />
  <path
     style="fill:#00ff00;stroke-width:0.338842"
     d="m 310.00817,83.831324 c -0.17181,-0.266875 -0.3589,-10.283799 -0.42556,-22.784538 l -0.11896,-22.308287 8.92875,0.114385 c 9.62859,0.12335 10.23575,0.231274 10.70366,1.902618 0.32541,1.162375 0.2736,33.44862 -0.0622,38.747129 l -0.24975,3.94092 -1.40918,0.203857 c -0.77505,0.112123 -4.93066,0.306526 -9.23468,0.432013 -6.53237,0.190453 -7.87617,0.149456 -8.1321,-0.248097 z"
     id="path1082"
     transform="scale(0.75)" />
  <path
     style="fill:#00ff00;stroke-width:0.338842"
     d="M 336.30044,61.301273 V 38.739212 l 8.97032,0.113795 c 10.85939,0.137759 10.24271,-0.133781 10.75819,4.737091 0.33056,3.12352 0.16672,22.041659 -0.29743,34.345119 l -0.22365,5.928118 h -9.60371 -9.60372 z"
     id="path1084"
     transform="scale(0.75)" />
  <path
     style="fill:#00ff00;stroke-width:0.338842"
     d="m 363.2835,83.492462 c -0.12698,-0.448291 -0.32772,-10.699514 -0.44608,-22.780498 l -0.21521,-21.965425 8.96435,0.110131 c 10.62287,0.130508 10.60119,0.124269 10.98054,3.160445 0.33878,2.711557 0.34895,16.825844 0.0216,30.030665 l -0.28246,11.395106 -1.57117,0.217083 c -0.86415,0.119397 -5.09232,0.313943 -9.39595,0.432328 l -7.82477,0.215239 z"
     id="path1086"
     transform="scale(0.75)" />
  <path
     style="fill:#ffffff;stroke-width:0.338842"
     d="m 389.94914,83.778624 c -0.14693,-0.232953 -0.32577,-10.464748 -0.39743,-22.73732 l -0.1303,-22.313768 5.76362,0.119633 c 6.66829,0.138411 6.82072,0.202238 7.69917,3.223989 0.58071,1.997589 1.61985,2.916183 3.75119,3.316025 1.33766,0.250946 2.3724,1.444825 2.87727,3.319794 0.48773,1.811284 1.65091,2.900857 3.39447,3.179664 0.78651,0.125768 1.73365,0.532298 2.10475,0.903402 0.64426,0.644264 0.66592,0.997685 0.47949,7.82652 -0.12177,4.460737 -0.36714,7.72553 -0.65209,8.676576 -0.42953,1.43356 -0.56773,1.560887 -2.30997,2.128144 -2.48085,0.807747 -3.37789,1.850109 -3.37789,3.925139 0,2.348194 -0.50372,2.837772 -3.20772,3.117646 -1.25296,0.129688 -2.49522,0.452892 -2.76056,0.718232 -0.26534,0.265337 -0.59814,1.160249 -0.73957,1.988683 -0.29948,1.754289 -0.97164,2.203898 -4.04808,2.707779 -2.9087,0.476408 -8.1217,0.414604 -8.44635,-0.100138 z"
     id="path1088"
     transform="scale(0.75)" />
</svg>
