<svg xmlns="http://www.w3.org/2000/svg" width="1080" height="1080" viewBox="0 0 1080 1080" version="1.1"><path d="M 256.364 51.170 C 255.189 51.738, 253.727 53.304, 253.114 54.649 C 252.300 56.435, 252 184.441, 252 529.491 L 252 1001.888 254.413 1004.694 L 256.827 1007.500 537.500 1007.500 L 818.173 1007.500 820.590 1004.691 L 823.006 1001.881 822.753 528.354 L 822.500 54.827 819.694 52.413 L 816.888 50 537.694 50.068 C 347.583 50.114, 257.818 50.465, 256.364 51.170 M 303.679 88.543 C 297.903 90.662, 292.729 95.256, 289.449 101.176 C 286.866 105.839, 286.502 107.494, 286.517 114.500 C 286.531 120.746, 287.005 123.377, 288.679 126.500 C 291.805 132.330, 296.764 136.975, 302.861 139.781 C 307.433 141.885, 309.274 142.180, 315.361 141.782 C 319.840 141.490, 324.016 140.539, 326.568 139.231 C 331.439 136.733, 337.594 130.164, 339.771 125.140 C 341.845 120.355, 341.845 108.645, 339.771 103.860 C 337.389 98.362, 331.095 91.964, 325.500 89.353 C 319.672 86.633, 309.876 86.269, 303.679 88.543 M 749.500 89.353 C 743.905 91.964, 737.611 98.362, 735.229 103.860 C 733.118 108.731, 733.199 120.342, 735.378 125.272 C 737.662 130.439, 743.537 136.721, 748.432 139.231 C 750.984 140.539, 755.160 141.490, 759.639 141.782 C 765.715 142.179, 767.576 141.883, 772.145 139.791 C 778.380 136.937, 783.173 132.473, 786.271 126.634 C 787.996 123.384, 788.469 120.790, 788.483 114.500 C 788.498 107.494, 788.134 105.839, 785.551 101.176 C 782.291 95.291, 776.796 90.408, 771.175 88.400 C 765.104 86.232, 755.260 86.665, 749.500 89.353 M 377.270 155.483 C 375.493 156.255, 373.132 158.375, 372.023 160.193 C 370.092 163.361, 370.007 165.159, 370.004 203.070 C 370 241.297, 370.322 248.016, 379.500 401 L 389 559.359 389 711.712 C 389 837.193, 389.238 864.632, 390.347 867.282 C 392.178 871.655, 399.024 877.635, 403.679 878.928 C 408.976 880.399, 665.982 880.410, 671.277 878.940 C 676.007 877.627, 681.523 872.855, 684.059 867.885 C 685.955 864.167, 686 860.558, 686 711.048 L 686 558.016 695.500 398.474 C 704.474 247.757, 705 236.872, 704.998 201.716 C 704.997 159.984, 704.875 159.186, 698 155.752 C 694.711 154.109, 685.013 154.005, 537.500 154.041 C 404.960 154.072, 379.997 154.297, 377.270 155.483 M 308.147 916.103 C 287.561 920.019, 279.003 946.200, 293.255 961.661 C 298.638 967.501, 303.970 970.148, 311.583 970.759 C 323.144 971.687, 333.402 965.973, 338.727 955.638 C 342.177 948.943, 342.430 938.820, 339.320 931.911 C 334.015 920.122, 321.195 913.621, 308.147 916.103 M 755.903 916.028 C 742.790 918.202, 733.621 929.312, 733.643 943 C 733.669 959.860, 746.791 972.093, 763.417 970.759 C 783.264 969.166, 794.758 948.270, 785.661 930.318 C 780.225 919.591, 768.469 913.945, 755.903 916.028" stroke="none" fill="#daedeb" fill-rule="evenodd"/><path d="M 250.699 27.422 C 240.777 30.098, 231.103 40.338, 229.038 50.349 C 228.295 53.953, 228.055 198.614, 228.238 532 L 228.500 1008.500 231.150 1013.500 C 234.654 1020.110, 240.351 1025.722, 246.500 1028.622 L 251.500 1030.980 537.554 1030.990 L 823.607 1031 828.721 1028.452 C 834.841 1025.402, 841.372 1018.596, 844.339 1012.176 L 846.500 1007.500 846.500 528.979 L 846.500 50.458 843.205 43.765 C 839.687 36.620, 835.405 32.384, 828 28.724 L 823.500 26.500 539.500 26.313 C 309.676 26.162, 254.584 26.373, 250.699 27.422 M 256.312 50.462 C 253.958 51.488, 252.836 52.850, 252.020 55.675 C 251.219 58.449, 250.996 189.140, 251.208 531.169 L 251.500 1002.839 253.924 1005.419 L 256.349 1008 537.039 1008 L 817.730 1008 820.365 1005.927 L 823 1003.855 823 529.102 L 823 54.349 820.419 51.924 L 817.839 49.500 538.669 49.286 C 302.275 49.105, 259.012 49.285, 256.312 50.462 M 306.951 88.314 C 297.837 90.868, 291.148 97.128, 288.159 105.899 C 283.941 118.273, 290.384 133.135, 302.511 139.005 C 308.495 141.902, 318.888 141.731, 325.556 138.626 C 338.744 132.485, 344.739 115.209, 338.158 102.309 C 335.790 97.669, 329.119 91.365, 324.557 89.460 C 319.616 87.395, 311.997 86.899, 306.951 88.314 M 753.806 88.350 C 748.851 89.735, 747.526 90.543, 742.162 95.448 C 728.693 107.765, 733.059 131.617, 750.127 138.959 C 754.365 140.782, 756.749 141.132, 763.001 140.848 C 769.881 140.536, 771.247 140.119, 776.228 136.812 C 783.704 131.848, 788.037 123.617, 787.924 114.590 C 787.834 107.405, 786.619 103.713, 782.361 97.694 C 776.721 89.720, 763.906 85.527, 753.806 88.350 M 376.314 156.950 C 374.561 158.019, 372.649 159.787, 372.064 160.881 C 371.361 162.195, 371 177.088, 371 204.825 C 371 245.877, 371.194 250.015, 380 396.834 L 389 546.886 389.006 703.693 C 389.009 810.028, 389.349 861.716, 390.060 864.277 C 391.425 869.193, 396.450 874.845, 401.491 877.135 C 405.303 878.867, 411.977 878.957, 537.282 878.978 C 681.654 879.002, 672.851 879.360, 679.339 873.197 C 686.017 866.854, 685.444 881.977, 686.036 696.500 L 686.572 528.500 695.280 386 C 703.682 248.497, 703.988 242.104, 703.994 203.700 C 703.999 170.073, 703.765 163.446, 702.483 160.967 C 699.182 154.584, 710.684 155, 537.300 155.004 C 382.813 155.007, 379.433 155.048, 376.314 156.950 M 394 200 L 394 222 537.500 222 L 681 222 681 200 L 681 178 537.500 178 L 394 178 394 200 M 510.540 253.209 C 446.762 253.692, 394.493 254.180, 394.386 254.293 C 394.279 254.407, 397.962 317.050, 402.571 393.500 C 407.180 469.950, 410.961 533.962, 410.975 535.750 L 411 539 537.500 539 L 664 539 664.048 534.250 C 664.075 531.638, 667.833 467.400, 672.399 391.500 C 676.965 315.600, 680.516 253.162, 680.291 252.750 C 679.844 251.931, 678.976 251.933, 510.540 253.209 M 412 709 L 412 856 537.500 856 L 663 856 663 709 L 663 562 537.500 562 L 412 562 412 709 M 483.148 651.858 C 473.730 655.208, 469.218 660.002, 466.419 669.632 C 465.140 674.032, 464.940 681.136, 465.195 713.195 C 465.498 751.203, 465.518 751.537, 467.873 756.277 C 472.795 766.187, 482.468 771.221, 496.479 771.167 C 514.164 771.097, 524.091 763.597, 526.991 748.114 C 528.291 741.171, 528.308 679.900, 527.012 673.063 C 525.112 663.046, 520.200 656.367, 512 652.651 C 505.453 649.684, 490.418 649.271, 483.148 651.858 M 545 710.500 L 545 770 554 770 L 563 770 563 726.800 C 563 702.928, 563.381 684.025, 563.852 684.550 C 564.321 685.072, 570.281 704.513, 577.098 727.750 L 589.493 770 600.246 770 L 611 770 611 710.500 L 611 651 601.513 651 L 592.025 651 591.763 686.750 L 591.500 722.500 581.054 686.750 L 570.607 651 557.804 651 L 545 651 545 710.500 M 488.543 669.366 C 485.174 672.735, 484.816 677.613, 485.182 715.179 C 485.487 746.566, 485.583 747.968, 487.602 750.670 C 490.381 754.391, 494.905 755.645, 500.017 754.113 C 506.997 752.022, 507 752.001, 507 709.973 L 507 672.846 504.077 669.923 C 501.607 667.453, 500.360 667, 496.031 667 C 491.978 667, 490.415 667.494, 488.543 669.366 M 307.332 916.901 C 298.766 919.099, 291.404 925.769, 288.520 933.944 C 282.198 951.863, 295.019 969.962, 314.054 969.990 C 342.252 970.032, 351.119 931.815, 325.897 918.947 C 321.529 916.719, 312.094 915.679, 307.332 916.901 M 752.431 917.757 C 746.174 919.995, 742.321 922.942, 738.759 928.216 C 726.648 946.147, 739.329 970.022, 760.946 969.990 C 779.558 969.962, 792.035 953.069, 786.954 934.775 C 783.235 921.381, 766.021 912.896, 752.431 917.757" stroke="none" fill="#382e50" fill-rule="evenodd"/><path d="M 465.828 178.750 C 505.609 178.895, 570.409 178.895, 609.828 178.750 C 649.248 178.605, 616.700 178.487, 537.500 178.487 C 458.300 178.487, 426.048 178.605, 465.828 178.750 M 562.750 253.745 C 567.837 253.927, 576.163 253.927, 581.250 253.745 C 586.337 253.564, 582.175 253.415, 572 253.415 C 561.825 253.415, 557.663 253.564, 562.750 253.745 M 417.750 254.745 C 422.837 254.927, 431.162 254.927, 436.250 254.745 C 441.337 254.564, 437.175 254.415, 427 254.415 C 416.825 254.415, 412.662 254.564, 417.750 254.745 M 413 709.500 L 413 856 537.500 856 L 662 856 662 709.500 L 662 563 537.500 563 L 413 563 413 709.500 M 486.500 650.342 C 476.736 652.880, 470.847 657.710, 466.801 666.500 C 464.526 671.443, 464.500 671.935, 464.500 710 C 464.500 754.453, 464.720 755.887, 472.727 763.669 C 484.612 775.219, 509.740 774.600, 520.910 762.482 C 527.688 755.129, 528 752.837, 528 710.433 C 528 677.977, 527.780 672.545, 526.278 667.865 C 524.036 660.878, 517.311 653.977, 510.465 651.638 C 503.741 649.340, 492.660 648.741, 486.500 650.342 M 544.242 710.722 L 544.500 770.500 554 770.500 L 563.500 770.500 564 728.605 L 564.500 686.711 575.880 725.605 C 582.139 746.997, 587.860 765.978, 588.594 767.785 L 589.928 771.071 600.214 770.785 L 610.500 770.500 610.758 710.750 L 611.016 651 601.508 651 L 592 651 591.936 686.250 L 591.871 721.500 581.564 686.500 L 571.257 651.500 557.621 651.222 L 543.984 650.943 544.242 710.722 M 491.357 667.992 C 486.052 670.132, 486 670.542, 486 710.288 C 486 747.904, 486.180 749.852, 489.913 752.718 C 491.894 754.239, 499.453 754.363, 502.150 752.920 C 506.631 750.522, 507.004 747.243, 506.944 710.782 C 506.883 674.006, 506.481 670.552, 502 668.291 C 499.149 666.853, 494.503 666.722, 491.357 667.992" stroke="none" fill="#d3246c" fill-rule="evenodd"/><path d="M 394 200.500 L 394 222 537.500 222 L 681 222 681 200.500 L 681 179 537.500 179 L 394 179 394 200.500 M 493.170 254.081 C 439.639 254.491, 395.647 255.020, 395.410 255.256 C 395.020 255.647, 410.098 513.038, 411.578 531.250 L 412.208 539 537.604 539 C 606.572 539, 663 538.686, 663 538.302 C 663 535.951, 679.056 267.056, 679.573 260.750 L 680.208 253 635.354 253.168 C 610.684 253.260, 546.702 253.671, 493.170 254.081" stroke="none" fill="#f54880" fill-rule="evenodd"/><path d="M 398.331 49.750 C 475.238 49.891, 600.788 49.891, 677.331 49.750 C 753.874 49.609, 690.950 49.493, 537.500 49.493 C 384.050 49.493, 321.424 49.609, 398.331 49.750 M 251.496 528.500 C 251.496 788.100, 251.610 894.449, 251.750 764.832 C 251.890 635.214, 251.890 422.814, 251.750 292.832 C 251.610 162.849, 251.496 268.900, 251.496 528.500 M 370.457 205.500 C 370.456 228.050, 370.588 237.418, 370.749 226.317 C 370.909 215.216, 370.910 196.766, 370.749 185.317 C 370.589 173.868, 370.457 182.950, 370.457 205.500 M 652.929 252.741 C 675.850 252.989, 679.929 253.256, 680.328 254.536 C 680.647 255.561, 680.745 255.476, 680.635 254.270 C 680.485 252.625, 678.554 252.498, 653.236 252.475 L 625.999 252.451 652.929 252.741 M 499.750 253.749 C 509.788 253.912, 526.213 253.912, 536.250 253.749 C 546.288 253.585, 538.075 253.452, 518 253.452 C 497.925 253.452, 489.713 253.585, 499.750 253.749 M 394.136 256.750 C 394.250 259.043, 394.343 259.133, 394.700 257.293 C 395.086 255.301, 395.831 255.051, 402.314 254.741 L 409.500 254.397 401.750 254.199 L 394 254 394.136 256.750 M 412.247 709.250 L 412.493 856.500 412.750 709.750 L 413.007 563 537.500 563 L 661.993 563 662.250 709.750 L 662.507 856.500 662.753 709.250 L 663 562 537.500 562 L 412 562 412.247 709.250 M 544.488 710.500 L 544.500 770.500 554 770.500 L 563.500 770.500 564 728 C 564.275 704.625, 564.163 685.072, 563.750 684.550 C 563.337 684.027, 563 703.040, 563 726.800 L 563 770 554.008 770 L 545.016 770 544.746 710.250 L 544.476 650.500 544.488 710.500 M 464.449 710.500 C 464.449 729.200, 464.584 736.709, 464.749 727.186 C 464.913 717.663, 464.913 702.363, 464.748 693.186 C 464.583 684.009, 464.449 691.800, 464.449 710.500 M 485.450 711 C 485.450 729.975, 485.584 737.737, 485.748 728.250 C 485.913 718.763, 485.913 703.237, 485.748 693.750 C 485.584 684.263, 485.450 692.025, 485.450 711 M 594.750 770.737 C 597.638 770.939, 602.362 770.939, 605.250 770.737 C 608.138 770.535, 605.775 770.370, 600 770.370 C 594.225 770.370, 591.862 770.535, 594.750 770.737 M 472.172 879.750 C 507.742 879.895, 566.242 879.895, 602.172 879.750 C 638.103 879.604, 609 879.485, 537.500 879.485 C 466 879.485, 436.603 879.604, 472.172 879.750" stroke="none" fill="#8f3366" fill-rule="evenodd"/><path d="M 458.829 154.750 C 502.460 154.894, 573.560 154.894, 616.829 154.750 C 660.098 154.606, 624.400 154.488, 537.500 154.488 C 450.600 154.488, 415.198 154.606, 458.829 154.750 M 704.458 205.500 C 704.458 228.600, 704.589 237.907, 704.749 226.183 C 704.909 214.458, 704.909 195.558, 704.749 184.183 C 704.588 172.807, 704.457 182.400, 704.458 205.500" stroke="none" fill="#dbebeb" fill-rule="evenodd"/></svg>