<svg xmlns="http://www.w3.org/2000/svg" width="1080" height="1080" viewBox="0 0 1080 1080" version="1.1"><path d="M 165 352.703 C 112.939 356.799, 67.665 394.927, 54.445 445.809 C 43.311 488.661, 54.498 532.234, 84.830 564.161 C 102.903 583.185, 125.530 595.812, 150.751 600.950 L 161.001 603.038 539.790 603.038 C 956.805 603.038, 924.027 603.527, 943.971 597.010 C 968.873 588.872, 993.803 570.007, 1008.128 548.461 C 1032.506 511.796, 1036.518 464.268, 1018.454 426.135 C 999.182 385.452, 961.177 357.921, 917.576 353.059 C 911.034 352.330, 793.176 352.054, 538.789 352.175 C 335.680 352.271, 167.475 352.509, 165 352.703 M 244.539 382.106 C 225.476 384.904, 207.536 393.848, 192.684 407.955 C 171.911 427.687, 161.811 453.596, 163.281 483.378 C 164.487 507.807, 173.422 527.795, 191.161 545.749 C 204.010 558.754, 218.864 567.194, 237.635 572.156 L 246.500 574.500 539.500 574.500 C 821.186 574.500, 832.805 574.428, 840.402 572.648 C 877.554 563.940, 904.366 538.251, 914.136 502 C 917.397 489.898, 917.416 465.329, 914.173 453.500 C 904.651 418.768, 877.143 392.251, 841.344 383.297 C 834.970 381.702, 814.442 381.573, 542.500 381.408 C 379.748 381.309, 247.861 381.618, 244.539 382.106 M 617.326 434.982 C 604.107 437.794, 597.676 445.676, 597.648 459.098 C 597.620 472.293, 602.414 477.749, 619.500 483.965 C 630.940 488.126, 634.455 490.271, 636.017 494.042 C 638.067 498.990, 636.286 503.218, 631.486 504.799 C 625.026 506.927, 620.337 505.537, 614.881 499.877 C 610.993 495.843, 609.568 495, 606.637 495 C 601.705 495, 598.339 496.766, 596.969 500.075 C 595.973 502.480, 596.163 503.675, 598.273 508.285 C 599.632 511.253, 602.121 514.662, 603.806 515.862 C 610.899 520.912, 622.930 522.941, 634.837 521.093 C 651.149 518.562, 659 510.544, 659 496.416 C 659 490.015, 657.742 486.419, 654.186 482.658 C 650.565 478.827, 646.363 476.802, 634.385 473.113 C 620.535 468.847, 616.931 465.045, 618.348 456.196 C 618.673 454.163, 619.903 451.712, 621.080 450.750 C 624.763 447.740, 634.769 448.761, 637.250 452.400 C 637.663 453.005, 638.452 455.129, 639.004 457.119 C 640.761 463.461, 643.510 466, 648.618 466 C 652.034 466, 653.671 465.420, 655.545 463.545 C 658.410 460.680, 658.634 457.499, 656.482 450.250 C 654.721 444.320, 648.559 438.172, 642.326 436.126 C 637.399 434.509, 622.709 433.836, 617.326 434.982 M 534.242 436.494 C 532.431 437.281, 530.544 439.069, 529.992 440.520 C 529.405 442.066, 529 457.391, 529 478.115 C 529 518.038, 529.014 518.119, 536.200 520.054 C 538.844 520.766, 547.240 521.056, 558.989 520.841 C 580.899 520.439, 583 519.755, 583 513.016 C 583 510.253, 582.347 508.470, 580.811 507.039 C 578.828 505.191, 577.329 505, 564.811 505 L 551 505 551 495.436 L 551 485.873 558.750 486.007 C 571.726 486.232, 572.915 486.085, 575 484 C 577.978 481.022, 577.667 475.670, 574.365 473.073 C 572.084 471.279, 570.337 471, 561.365 471 L 551 471 551 461 L 551 451 563.865 451 C 575.366 451, 577.010 450.780, 579.365 448.927 C 584.273 445.067, 582.506 437.790, 576.238 436.049 C 570.408 434.430, 538.207 434.771, 534.242 436.494 M 449.325 438.584 C 446.912 440.997, 446.784 441.590, 447.395 447.553 C 448.404 457.404, 452.543 472.362, 456.111 479.056 C 457.887 482.389, 461.746 487.309, 464.705 490.013 L 470.075 494.921 469.796 504.947 C 469.527 514.637, 469.606 515.061, 472.174 517.629 C 474.425 519.880, 475.697 520.286, 480.500 520.286 C 485.308 520.286, 486.574 519.881, 488.834 517.619 C 491.428 515.024, 491.493 514.664, 491.250 504.226 L 491.001 493.500 495.153 491 C 503.100 486.216, 509.434 473.431, 512.506 455.972 C 514.610 444.017, 514.461 440.782, 511.686 438.174 C 508.696 435.365, 501.246 435.171, 497.979 437.816 C 496.023 439.400, 495.568 441.264, 494.415 452.398 C 492.345 472.401, 489.735 479, 483.894 479 C 477.450 479, 474.710 472.882, 472.971 454.618 C 471.812 442.445, 470.664 438.426, 467.929 436.962 C 466.940 436.433, 462.931 436, 459.020 436 C 452.707 436, 451.619 436.290, 449.325 438.584" stroke="none" fill="#ffffff" fill-rule="evenodd"/><path d="M 250.363 382.061 C 207.924 386.175, 174.265 416.331, 165.475 458.117 C 163.186 468.998, 163.503 490.626, 166.104 501.060 C 173.501 530.735, 195.708 555.925, 224.500 567.300 C 242.857 574.553, 216.897 574.001, 539.208 573.992 C 732.624 573.987, 831.669 573.643, 836 572.959 C 845.378 571.480, 854.153 568.431, 865.139 562.837 C 888.911 550.732, 906.967 527.891, 913.532 501.622 C 915.576 493.440, 915.999 489.318, 915.993 477.622 C 915.985 460.882, 914.011 451.085, 908.107 438.488 C 897.861 416.624, 882.678 401.390, 860.876 391.101 C 841.300 381.861, 858.697 382.718, 675 381.947 C 458.161 381.036, 260.391 381.089, 250.363 382.061 M 613.148 435.913 C 605.688 438.490, 602.924 440.773, 599.750 446.980 C 597.568 451.248, 597 453.727, 597 458.983 C 597 472.310, 602.913 478.788, 620.902 485.166 C 632.024 489.110, 636 492.282, 636 497.210 C 636 502.698, 634.137 504.290, 627.120 504.798 L 620.971 505.242 615.930 500.121 C 610.974 495.086, 609.484 494.464, 603.500 494.934 C 593.969 495.681, 593.575 506.881, 602.788 515.194 C 608.169 520.049, 614.986 522, 626.576 522 C 644.270 522, 655.085 516.188, 658.445 504.873 C 661.447 494.764, 659.909 487.539, 653.423 481.293 C 649.726 477.733, 647.320 476.542, 637.777 473.551 C 623.655 469.125, 620.427 467.207, 619.117 462.461 C 617.801 457.694, 619.602 452.026, 623 450.245 C 625.604 448.879, 631.782 449.278, 635.042 451.022 C 636.027 451.550, 637.587 454.348, 638.508 457.240 C 641.330 466.098, 646.977 469.132, 653.941 465.530 C 657.782 463.544, 659.249 459.073, 657.955 453.300 C 655.867 443.981, 650.558 438.134, 641.833 435.543 C 634.523 433.372, 619.962 433.560, 613.148 435.913 M 451.465 435.952 C 446.578 437.933, 445.677 441.883, 447.598 452.912 C 450.798 471.289, 456.022 483.137, 464.142 490.438 L 469 494.806 469 504.980 C 469 514.891, 469.075 515.229, 471.923 518.077 C 474.465 520.618, 475.584 521, 480.500 521 C 485.416 521, 486.535 520.618, 489.077 518.077 C 491.928 515.226, 492 514.900, 492.013 504.827 L 492.025 494.500 497.471 489.724 C 501.327 486.343, 503.952 482.841, 506.465 477.724 C 510.368 469.781, 514.052 454.756, 514.325 445.668 C 514.483 440.413, 514.223 439.598, 511.694 437.418 C 509.916 435.886, 507.644 435, 505.491 435 C 497.662 435, 494.025 439.623, 493.965 449.651 C 493.919 457.345, 491.648 469.846, 489.564 473.875 C 487.141 478.562, 483.657 479.881, 480.306 477.379 C 476.606 474.617, 475.121 469.526, 473.488 454 C 472.121 441.004, 471.954 440.397, 469.018 437.750 C 466.356 435.349, 465.177 435.008, 459.734 435.063 C 456.305 435.098, 452.584 435.498, 451.465 435.952 M 533.500 436.208 C 529.065 438.751, 529.064 438.766, 529.064 478 C 529.064 517.483, 529.051 517.369, 533.684 519.837 C 537.140 521.677, 576.280 521.424, 579.928 519.537 C 584.831 517.002, 585.563 510.819, 581.423 506.924 C 579.002 504.648, 578.025 504.480, 565.423 504.173 L 552 503.845 552 495.423 L 552 487 562.077 487 C 571.881 487, 572.233 486.921, 575.077 484.077 C 578.652 480.502, 578.815 477.060, 575.588 473.306 C 573.272 470.610, 572.760 470.487, 562.588 470.159 L 552 469.818 552 461.009 L 552 452.201 565.087 451.850 C 577.999 451.505, 578.207 451.463, 580.587 448.694 C 584.295 444.382, 583.216 438.331, 578.343 436.110 C 574.971 434.574, 536.202 434.658, 533.500 436.208" stroke="none" fill="#ced5d5" fill-rule="evenodd"/><path d="" stroke="none" fill="#ccd4d4" fill-rule="evenodd"/><path d="M 619.672 381.750 C 657.716 381.895, 720.266 381.895, 758.672 381.750 C 797.077 381.605, 765.950 381.486, 689.500 381.486 C 613.050 381.486, 581.627 381.605, 619.672 381.750 M 455.728 435.722 C 457.503 435.943, 460.653 435.946, 462.728 435.730 C 464.802 435.513, 463.350 435.333, 459.500 435.328 C 455.650 435.324, 453.952 435.501, 455.728 435.722 M 551 461 L 551 471 561.250 470.791 L 571.500 470.581 561.750 470.254 L 552 469.928 552 460.996 L 552 452.063 563.750 451.747 L 575.500 451.430 563.250 451.215 L 551 451 551 461 M 916.382 477.500 C 916.384 484.100, 916.546 486.670, 916.741 483.211 C 916.937 479.752, 916.936 474.352, 916.738 471.211 C 916.540 468.070, 916.380 470.900, 916.382 477.500 M 163.382 478.500 C 163.384 485.100, 163.546 487.670, 163.741 484.211 C 163.937 480.752, 163.936 475.352, 163.738 472.211 C 163.540 469.070, 163.380 471.900, 163.382 478.500 M 551 495.500 L 551 505 564.250 504.783 L 577.500 504.565 564.750 504.253 L 552 503.940 552 495.514 L 552 487.088 559.250 486.743 L 566.500 486.397 558.750 486.199 L 551 486 551 495.500 M 492.250 492.662 C 491.387 493.011, 491.060 495.383, 491.193 500.333 L 491.385 507.500 491.746 501.038 C 491.944 497.484, 492.588 493.997, 493.176 493.288 C 494.310 491.921, 494.226 491.865, 492.250 492.662 M 468.990 500.795 L 469.480 508.500 469.789 501.599 C 469.959 497.804, 469.739 494.337, 469.299 493.894 C 468.860 493.452, 468.720 496.558, 468.990 500.795 M 397.331 574.750 C 475.888 574.891, 604.138 574.891, 682.331 574.750 C 760.524 574.609, 696.250 574.493, 539.500 574.493 C 382.750 574.493, 318.774 574.609, 397.331 574.750" stroke="none" fill="#fbfbfb" fill-rule="evenodd"/></svg>