<svg xmlns="http://www.w3.org/2000/svg" width="1080" height="1080" viewBox="0 0 1080 1080" version="1.1"><path d="M 512.754 84.993 C 469.371 87.452, 419.693 98.171, 378 114.067 C 258.124 159.772, 161.876 255.279, 115.549 374.500 C 54.030 532.812, 84.224 709.807, 194.788 839 C 204.021 849.788, 227.765 873.650, 240 884.436 C 302.500 939.531, 381.690 977.230, 463.610 990.887 C 494.523 996.040, 500.727 996.493, 540.500 996.497 C 579.412 996.500, 588.790 995.862, 615.500 991.393 C 688.320 979.209, 756.338 950.162, 814.764 906.299 C 919.046 828.008, 984.950 708.999, 995.979 579.062 C 997.312 563.357, 997.344 519.288, 996.034 503.500 C 989.665 426.731, 963.959 352.755, 921.177 288.080 C 869.832 210.459, 793.858 149.114, 707.500 115.547 C 669.087 100.616, 623.702 89.788, 584 86.083 C 568.451 84.632, 529.602 84.037, 512.754 84.993 M 518 196.584 C 516.075 196.802, 509.550 197.478, 503.500 198.085 C 461.207 202.332, 412.300 217.653, 375.500 238.183 C 276.746 293.278, 213.119 387.134, 198.348 499.500 C 196.161 516.136, 195.860 562.481, 197.838 578 C 205.631 639.137, 225.223 690.979, 258.493 738.500 C 315.975 820.605, 406.575 873.767, 506.567 884.062 C 524.178 885.876, 574.340 884.772, 590.531 882.214 C 644.765 873.649, 696.744 852.905, 739 822.963 C 770.809 800.424, 798.814 772.642, 821.119 741.500 C 856.153 692.585, 878.106 634.323, 884.044 574.500 C 885.687 557.955, 885.398 518.987, 883.510 502.500 C 874.392 422.834, 838.361 349.273, 781.363 293.957 C 768.807 281.771, 760.777 274.809, 749.353 266.204 C 700.634 229.506, 643.831 206.430, 582.500 198.421 C 571.218 196.947, 526.121 195.663, 518 196.584 M 438 421.960 C 365.680 431.695, 341.661 435.262, 339.044 436.658 C 337.143 437.671, 334.712 440.009, 333.642 441.853 C 331.738 445.132, 331.733 445.517, 333.408 459.353 C 335.507 476.691, 336.350 480.062, 339.239 482.677 C 344.483 487.423, 341.402 487.677, 445.154 473.933 C 521.345 463.840, 543.254 460.626, 545.969 459.141 C 547.876 458.097, 550.294 455.593, 551.340 453.576 C 553.214 449.965, 553.213 449.665, 551.238 433.956 C 549.968 423.859, 548.634 417.090, 547.602 415.516 C 545.296 411.995, 541.687 409.878, 537.288 409.463 C 535.205 409.266, 490.525 414.890, 438 421.960" stroke="none" fill="#ffffff" fill-rule="evenodd"/><path d="M 713.173 290.484 C 703.583 293.477, 696.456 300.988, 693.652 311.059 C 692.818 314.051, 689.796 330.143, 686.936 346.817 C 683.197 368.609, 682.040 377.440, 682.819 378.219 C 684.680 380.080, 685.688 375.877, 691.487 342.044 C 697.634 306.189, 698.522 303.532, 706.221 297.955 C 714.500 291.957, 726.314 291.439, 734.843 296.700 C 740.350 300.096, 745.597 308.130, 746.577 314.666 C 747.288 319.404, 737.758 384.638, 735.796 388.469 C 728.404 402.902, 708.104 403.012, 701.420 388.655 C 700.100 385.820, 699.016 382.375, 699.012 381 C 698.999 376.800, 707.759 328.319, 708.924 326.142 C 711.593 321.155, 719.220 319.365, 723.883 322.631 C 728.795 326.071, 729.109 329.047, 726.464 347.069 C 723.628 366.387, 723.500 369, 725.389 369 C 726.955 369, 727.072 368.459, 730.069 347.255 C 732.437 330.508, 732.179 326.554, 728.427 322.096 C 721.971 314.424, 708.822 316.477, 705.164 325.730 C 703.455 330.053, 695.892 374.878, 695.874 380.794 C 695.825 396.484, 713.468 407.793, 727.442 401.028 C 732.897 398.387, 738.671 391.950, 739.976 387.053 C 741.847 380.033, 750.142 324.371, 750.195 318.476 C 750.272 310.019, 747.163 303.263, 740.312 297.002 C 732.213 289.600, 723.054 287.401, 713.173 290.484 M 596 426.838 L 596 429.675 626.250 435.870 C 642.888 439.277, 675.625 446.022, 699 450.859 C 727.245 456.704, 742.087 459.364, 743.250 458.792 C 745.691 457.589, 745.433 455.135, 742.750 454.031 C 740.747 453.207, 598.603 423.957, 596.750 423.988 C 596.337 423.994, 596 425.277, 596 426.838 M 602 476 C 602 477.650, 602.364 479, 602.808 479 C 603.253 479, 631.228 484.645, 664.974 491.543 C 698.720 498.442, 726.931 503.857, 727.665 503.575 C 729.604 502.831, 729.302 499.226, 727.250 498.608 C 725.357 498.037, 603.420 473, 602.536 473 C 602.241 473, 602 474.350, 602 476 M 527.478 510.448 C 510.660 512.797, 507.527 513.766, 506.523 516.927 C 505.992 518.600, 508.134 538.349, 509.540 544.737 C 509.810 545.968, 511.131 547.695, 512.474 548.575 C 514.736 550.057, 516.368 549.979, 534.655 547.517 C 555.192 544.752, 557.290 544.195, 558.964 541.067 C 560.529 538.143, 556.871 512.620, 554.514 510.015 C 552.192 507.450, 548.529 507.509, 527.478 510.448 M 607.015 515.775 C 607.024 516.724, 607.411 518.101, 607.877 518.835 C 608.811 520.308, 718.584 543.296, 720.820 542.487 C 721.546 542.224, 721.996 540.994, 721.820 539.754 C 721.515 537.608, 718.880 536.963, 667 526.326 C 637.025 520.181, 611.263 514.905, 609.750 514.601 C 607.596 514.170, 607.003 514.424, 607.015 515.775 M 451 520.607 C 431.682 523.255, 429.355 523.929, 428.105 527.238 C 426.767 530.780, 430.337 555.610, 432.533 558.036 C 434.843 560.589, 437.453 560.542, 459.500 557.546 C 475.432 555.381, 477.712 554.838, 479.348 552.818 C 480.781 551.049, 481.068 549.522, 480.625 546.018 C 480.311 543.533, 479.521 537.247, 478.870 532.048 C 477.925 524.497, 477.224 522.133, 475.389 520.298 C 472.663 517.572, 473.195 517.565, 451 520.607 M 613.015 561.642 C 613.024 562.664, 613.377 564.045, 613.801 564.712 C 614.436 565.712, 704.494 585, 708.527 585 C 710.388 585, 711.273 581.825, 709.787 580.481 C 709.079 579.840, 688.025 575.158, 663 570.075 C 637.975 564.992, 616.487 560.597, 615.250 560.308 C 613.532 559.907, 613.004 560.223, 613.015 561.642 M 619.786 612.992 C 620.023 614.610, 620.956 616.151, 621.859 616.416 C 625.789 617.569, 697.297 632, 699.083 632 C 701.375 632, 702.746 629.346, 701.235 627.835 C 700.668 627.268, 682.945 623.262, 661.852 618.932 C 640.758 614.603, 622.567 610.834, 621.427 610.556 C 619.621 610.116, 619.410 610.430, 619.786 612.992 M 547.649 648.059 C 530.996 650.323, 527.459 651.096, 525.694 652.861 L 523.591 654.965 525.293 669.232 C 526.861 682.376, 527.204 683.684, 529.650 685.833 C 531.640 687.582, 533.079 688.033, 535.402 687.636 C 537.106 687.345, 546.269 686.097, 555.764 684.864 C 574.917 682.377, 577 681.473, 577 675.647 C 577 673.846, 576.326 667.263, 575.502 661.018 C 574.006 649.671, 572.762 646.671, 569.185 645.780 C 568.258 645.549, 558.567 646.574, 547.649 648.059" stroke="none" fill="#b74646" fill-rule="evenodd"/><path d="M 713.173 290.484 C 703.583 293.477, 696.456 300.988, 693.652 311.059 C 692.818 314.051, 689.796 330.143, 686.936 346.817 C 683.197 368.609, 682.040 377.440, 682.819 378.219 C 684.680 380.080, 685.688 375.877, 691.487 342.044 C 697.634 306.189, 698.522 303.532, 706.221 297.955 C 714.500 291.957, 726.314 291.439, 734.843 296.700 C 740.350 300.096, 745.597 308.130, 746.577 314.666 C 747.288 319.404, 737.758 384.638, 735.796 388.469 C 728.404 402.902, 708.104 403.012, 701.420 388.655 C 700.100 385.820, 699.016 382.375, 699.012 381 C 698.999 376.800, 707.759 328.319, 708.924 326.142 C 711.593 321.155, 719.220 319.365, 723.883 322.631 C 728.795 326.071, 729.109 329.047, 726.464 347.069 C 723.628 366.387, 723.500 369, 725.389 369 C 726.955 369, 727.072 368.459, 730.069 347.255 C 732.437 330.508, 732.179 326.554, 728.427 322.096 C 721.971 314.424, 708.822 316.477, 705.164 325.730 C 703.455 330.053, 695.892 374.878, 695.874 380.794 C 695.825 396.484, 713.468 407.793, 727.442 401.028 C 732.897 398.387, 738.671 391.950, 739.976 387.053 C 741.847 380.033, 750.142 324.371, 750.195 318.476 C 750.272 310.019, 747.163 303.263, 740.312 297.002 C 732.213 289.600, 723.054 287.401, 713.173 290.484 M 596 426.838 L 596 429.675 626.250 435.870 C 642.888 439.277, 675.625 446.022, 699 450.859 C 727.245 456.704, 742.087 459.364, 743.250 458.792 C 745.691 457.589, 745.433 455.135, 742.750 454.031 C 740.747 453.207, 598.603 423.957, 596.750 423.988 C 596.337 423.994, 596 425.277, 596 426.838 M 602 476 C 602 477.650, 602.364 479, 602.808 479 C 603.253 479, 631.228 484.645, 664.974 491.543 C 698.720 498.442, 726.931 503.857, 727.665 503.575 C 729.604 502.831, 729.302 499.226, 727.250 498.608 C 725.357 498.037, 603.420 473, 602.536 473 C 602.241 473, 602 474.350, 602 476 M 527.478 510.448 C 510.660 512.797, 507.527 513.766, 506.523 516.927 C 505.992 518.600, 508.134 538.349, 509.540 544.737 C 509.810 545.968, 511.131 547.695, 512.474 548.575 C 514.736 550.057, 516.368 549.979, 534.655 547.517 C 555.192 544.752, 557.290 544.195, 558.964 541.067 C 560.529 538.143, 556.871 512.620, 554.514 510.015 C 552.192 507.450, 548.529 507.509, 527.478 510.448 M 607.015 515.775 C 607.024 516.724, 607.411 518.101, 607.877 518.835 C 608.811 520.308, 718.584 543.296, 720.820 542.487 C 721.546 542.224, 721.996 540.994, 721.820 539.754 C 721.515 537.608, 718.880 536.963, 667 526.326 C 637.025 520.181, 611.263 514.905, 609.750 514.601 C 607.596 514.170, 607.003 514.424, 607.015 515.775 M 451 520.607 C 431.682 523.255, 429.355 523.929, 428.105 527.238 C 426.767 530.780, 430.337 555.610, 432.533 558.036 C 434.843 560.589, 437.453 560.542, 459.500 557.546 C 475.432 555.381, 477.712 554.838, 479.348 552.818 C 480.781 551.049, 481.068 549.522, 480.625 546.018 C 480.311 543.533, 479.521 537.247, 478.870 532.048 C 477.925 524.497, 477.224 522.133, 475.389 520.298 C 472.663 517.572, 473.195 517.565, 451 520.607 M 613.015 561.642 C 613.024 562.664, 613.377 564.045, 613.801 564.712 C 614.436 565.712, 704.494 585, 708.527 585 C 710.388 585, 711.273 581.825, 709.787 580.481 C 709.079 579.840, 688.025 575.158, 663 570.075 C 637.975 564.992, 616.487 560.597, 615.250 560.308 C 613.532 559.907, 613.004 560.223, 613.015 561.642 M 619.786 612.992 C 620.023 614.610, 620.956 616.151, 621.859 616.416 C 625.789 617.569, 697.297 632, 699.083 632 C 701.375 632, 702.746 629.346, 701.235 627.835 C 700.668 627.268, 682.945 623.262, 661.852 618.932 C 640.758 614.603, 622.567 610.834, 621.427 610.556 C 619.621 610.116, 619.410 610.430, 619.786 612.992 M 547.649 648.059 C 530.996 650.323, 527.459 651.096, 525.694 652.861 L 523.591 654.965 525.293 669.232 C 526.861 682.376, 527.204 683.684, 529.650 685.833 C 531.640 687.582, 533.079 688.033, 535.402 687.636 C 537.106 687.345, 546.269 686.097, 555.764 684.864 C 574.917 682.377, 577 681.473, 577 675.647 C 577 673.846, 576.326 667.263, 575.502 661.018 C 574.006 649.671, 572.762 646.671, 569.185 645.780 C 568.258 645.549, 558.567 646.574, 547.649 648.059" stroke="none" fill="#b74646" fill-rule="evenodd"/><path d="M 499.500 366.003 C 459.900 371.369, 396.907 379.882, 359.515 384.920 C 322.124 389.958, 290.510 394.336, 289.262 394.649 C 285.587 395.571, 281.995 400.632, 282.037 404.827 C 282.057 406.847, 293.022 493.747, 306.404 597.937 L 330.735 787.374 333.883 790.187 C 336.408 792.443, 337.970 792.996, 341.766 792.978 C 344.370 792.966, 409.860 784.453, 487.300 774.060 C 592.269 759.973, 628.744 754.742, 630.633 753.505 C 636.134 749.900, 636.242 747.895, 632.499 718.894 C 630.625 704.378, 628.819 689.800, 628.485 686.500 C 628.151 683.200, 626.093 666.775, 623.911 650 C 621.729 633.225, 619.490 615.675, 618.937 611 C 618.384 606.325, 616.820 594.175, 615.462 584 C 614.105 573.825, 612.772 563.700, 612.501 561.500 C 612.229 559.300, 611.099 550.075, 609.989 541 C 608.879 531.925, 607.528 521.575, 606.987 518 C 606.446 514.425, 605.325 505.650, 604.495 498.500 C 603.665 491.350, 602.539 482.575, 601.992 479 C 601.446 475.425, 600.097 464.850, 598.995 455.500 C 597.894 446.150, 596.546 435.575, 596.001 432 C 595.455 428.425, 593.404 412.450, 591.443 396.500 C 589.481 380.550, 587.424 366.052, 586.872 364.283 C 585.331 359.351, 580.697 355.975, 575.673 356.123 C 573.378 356.191, 539.100 360.637, 499.500 366.003 M 438 421.960 C 365.680 431.695, 341.661 435.262, 339.044 436.658 C 337.143 437.671, 334.712 440.009, 333.642 441.853 C 331.738 445.132, 331.733 445.517, 333.408 459.353 C 335.507 476.691, 336.350 480.062, 339.239 482.677 C 344.483 487.423, 341.402 487.677, 445.154 473.933 C 521.345 463.840, 543.254 460.626, 545.969 459.141 C 547.876 458.097, 550.294 455.593, 551.340 453.576 C 553.214 449.965, 553.213 449.665, 551.238 433.956 C 549.968 423.859, 548.634 417.090, 547.602 415.516 C 545.296 411.995, 541.687 409.878, 537.288 409.463 C 535.205 409.266, 490.525 414.890, 438 421.960 M 528.067 509.545 C 509.902 512.088, 507.381 512.869, 506.052 516.362 C 504.915 519.353, 508.281 545.429, 510.085 547.602 C 512.923 551.022, 514.647 551.080, 534.723 548.440 C 556.235 545.611, 559.228 544.534, 559.853 539.401 C 560.303 535.709, 558.183 516.538, 556.850 512.242 C 554.979 506.211, 553.127 506.037, 528.067 509.545 M 450.312 519.910 C 428.756 522.906, 427 523.664, 427 529.969 C 427 535.848, 429.862 555.873, 431.008 558.014 C 431.585 559.094, 433.219 560.268, 434.638 560.624 C 438.045 561.479, 476.803 556.409, 478.663 554.864 C 481.862 552.210, 482.039 550.223, 480.320 536.295 C 478.772 523.747, 478.371 522.251, 475.886 519.750 C 472.698 516.541, 474.643 516.529, 450.312 519.910 M 371.393 530.843 C 360.884 532.314, 351.591 534.095, 350.741 534.800 C 348.172 536.932, 348.029 539.923, 349.841 553.688 C 351.866 569.064, 352.945 571.015, 359.405 570.974 C 366.840 570.927, 397.993 566.250, 399.566 564.945 C 400.415 564.241, 401.532 562.875, 402.048 561.911 C 403.324 559.527, 399.683 532.254, 397.843 530.414 C 395.456 528.028, 390.986 528.100, 371.393 530.843 M 537.766 578.857 C 516.332 581.881, 514.989 582.494, 515.018 589.240 C 515.045 595.390, 517.775 613.710, 519.008 616.015 C 519.585 617.094, 521.254 618.277, 522.716 618.644 C 525.557 619.357, 558.273 615.514, 563.817 613.816 C 569.119 612.193, 569.536 609.989, 567.498 594.348 C 565.985 582.726, 565.356 580.265, 563.401 578.310 C 560.641 575.550, 561.300 575.536, 537.766 578.857 M 457.414 589.499 C 448.567 590.739, 440.360 592.272, 439.176 592.906 C 437.992 593.539, 436.751 595.142, 436.419 596.468 C 435.697 599.343, 438.673 623.520, 440.069 626.130 C 442.194 630.099, 444.130 630.203, 464.763 627.454 C 484.083 624.880, 488.436 623.634, 489.711 620.310 C 490.401 618.513, 488.342 598.383, 486.894 592.767 C 485.195 586.176, 482.922 585.924, 457.414 589.499 M 381.500 599.600 C 360.244 602.547, 360.363 602.516, 358.393 605.522 C 356.882 607.830, 356.891 609.008, 358.525 621.555 C 360.547 637.079, 361.963 640, 367.466 640 C 374.057 640, 407.268 635.022, 408.721 633.817 C 411.947 631.140, 411.878 627.930, 408.030 601.289 C 408.014 601.173, 407.015 600.160, 405.811 599.039 C 403.199 596.605, 403.086 596.607, 381.500 599.600 M 544.652 647.563 C 527.937 649.899, 525.833 650.574, 523.874 654.235 C 522.698 656.433, 525.378 681.064, 527.190 684.702 C 529.201 688.740, 532.204 688.879, 553.969 685.940 C 580.652 682.337, 579.424 683.685, 576.396 661.338 C 574.454 647.008, 573.142 644.943, 566.076 645.104 C 563.559 645.161, 553.919 646.268, 544.652 647.563 M 465.620 658.567 C 446.737 661.206, 445 661.998, 445 667.969 C 445 674.534, 447.959 694.245, 449.162 695.695 C 451.851 698.935, 453.745 698.995, 473.168 696.449 C 483.801 695.056, 493.519 693.491, 494.765 692.972 C 499.040 691.192, 499.445 688.297, 497.505 673.400 C 495.408 657.297, 494.605 655.943, 487.250 656.104 C 484.637 656.161, 474.904 657.270, 465.620 658.567 M 388.500 668.713 C 372.799 670.861, 370.190 671.477, 368.075 673.536 L 365.649 675.896 367.344 689.698 C 369.219 704.978, 370.657 708.302, 375.599 708.782 C 380.730 709.281, 415.139 704.139, 417.641 702.499 C 420.502 700.625, 420.666 696.537, 418.488 681.500 C 417.691 676, 417.030 671.180, 417.019 670.789 C 417.009 670.398, 416.015 669.160, 414.811 668.039 C 412.150 665.559, 411.405 665.578, 388.500 668.713" stroke="none" fill="#f7ecd5" fill-rule="evenodd"/><path d="M 454.759 290.423 C 443.064 294.597, 442.503 295.858, 433.165 339 C 428.820 359.075, 425.326 375.583, 425.401 375.685 C 425.475 375.787, 459.886 371.310, 501.868 365.736 C 570.992 356.559, 578.441 355.739, 580.753 357.051 C 586.550 360.341, 587.015 361.967, 591.050 392.999 C 593.137 409.048, 595.001 422.335, 595.193 422.526 C 595.385 422.718, 628.607 429.658, 669.021 437.949 C 709.434 446.240, 743.063 453.229, 743.750 453.481 C 745.543 454.136, 745.295 458.950, 743.430 459.665 C 740.824 460.665, 597.730 430.984, 596.115 429.109 C 594.859 427.649, 594.788 427.666, 595.350 429.292 C 595.691 430.278, 597.123 440.162, 598.533 451.257 C 599.942 462.351, 601.237 471.570, 601.409 471.742 C 601.582 471.915, 630.233 477.913, 665.079 485.071 C 699.925 492.230, 728.781 498.630, 729.202 499.293 C 729.624 499.957, 729.976 501.007, 729.985 501.628 C 730.035 505.351, 727.449 504.974, 664.925 492.142 C 630.591 485.095, 602.421 479.372, 602.324 479.424 C 602.228 479.476, 602.999 486.039, 604.038 494.009 C 605.077 501.979, 605.996 510.300, 606.080 512.500 C 606.164 514.700, 606.420 515.804, 606.650 514.953 C 607.005 513.640, 615.677 515.172, 664.169 525.113 C 699.623 532.381, 721.597 537.327, 722.134 538.159 C 723.595 540.428, 722.610 542.485, 719.909 542.800 C 717.845 543.041, 612.295 522.018, 608.435 520.597 C 607.750 520.345, 608.240 527.042, 609.807 539.352 C 611.148 549.884, 612.366 558.639, 612.514 558.808 C 612.662 558.977, 634.544 563.592, 661.141 569.062 C 695.459 576.120, 709.843 579.471, 710.681 580.601 C 712.010 582.393, 711.490 584.598, 709.563 585.337 C 708.858 585.608, 686.956 581.433, 660.891 576.060 C 634.826 570.687, 613.440 566.338, 613.366 566.396 C 613.086 566.613, 618.795 609.124, 619.139 609.386 C 619.338 609.537, 637.725 613.373, 660 617.910 C 698.752 625.803, 703 627.004, 703 630.069 C 703 630.446, 702.342 631.301, 701.537 631.969 C 700.368 632.940, 692.117 631.553, 660.313 625.037 C 638.444 620.557, 620.159 616.353, 619.681 615.696 C 619.090 614.883, 618.975 615.018, 619.323 616.116 C 619.604 617.005, 621.740 632.755, 624.069 651.116 C 626.397 669.477, 628.583 684.826, 628.926 685.225 C 630.208 686.715, 721.363 702.155, 724.929 701.485 C 733.154 699.942, 739.491 694.518, 741.852 687 C 742.456 685.075, 755.830 613.525, 771.571 528 C 798.381 382.339, 800.121 372.187, 799.070 367.560 C 798.453 364.843, 796.798 361.113, 795.393 359.271 C 790.508 352.866, 786.883 351.382, 766.645 347.496 C 756.275 345.505, 747.692 344.017, 747.572 344.188 C 747.453 344.360, 745.891 354.151, 744.101 365.946 C 740.776 387.871, 739.742 391.376, 735.136 396.342 C 723.544 408.838, 702.055 404.348, 696.582 388.286 C 694.398 381.876, 694.565 379.427, 698.832 355.320 C 700.894 343.671, 702.254 334.343, 701.855 334.590 C 701.455 334.837, 699.396 334.650, 697.278 334.174 L 693.428 333.309 690.608 349.904 C 689.057 359.032, 687.332 369.122, 686.774 372.328 C 685.790 377.974, 683.921 380.321, 681.964 378.364 C 681.429 377.829, 682.653 368.341, 684.976 355.010 C 687.129 342.660, 688.802 332.510, 688.695 332.453 C 687.734 331.944, 462.010 288.997, 460.500 289.036 C 459.400 289.065, 456.817 289.689, 454.759 290.423 M 706.600 338.711 C 704.218 350.247, 700 376.736, 700 380.163 C 700 395.986, 718.513 404.759, 730.001 394.380 C 735.253 389.636, 736.500 385.709, 739.958 363.036 C 743.031 342.892, 742.988 342.054, 738.875 342.015 C 737.981 342.007, 735.932 341.736, 734.321 341.414 L 731.392 340.828 729.569 354.397 C 727.758 367.874, 726.409 371.403, 724.122 368.646 C 723.256 367.604, 723.455 364.019, 724.939 353.912 C 726.241 345.047, 726.557 340.344, 725.880 339.926 C 725.319 339.579, 721.629 338.745, 717.680 338.072 C 713.731 337.399, 709.752 336.640, 708.838 336.385 C 707.654 336.054, 707.011 336.722, 706.600 338.711 M 371.393 530.843 C 360.884 532.314, 351.591 534.095, 350.741 534.800 C 348.172 536.932, 348.029 539.923, 349.841 553.688 C 351.866 569.064, 352.945 571.015, 359.405 570.974 C 366.840 570.927, 397.993 566.250, 399.566 564.945 C 400.415 564.241, 401.532 562.875, 402.048 561.911 C 403.324 559.527, 399.683 532.254, 397.843 530.414 C 395.456 528.028, 390.986 528.100, 371.393 530.843 M 537.766 578.857 C 516.332 581.881, 514.989 582.494, 515.018 589.240 C 515.045 595.390, 517.775 613.710, 519.008 616.015 C 519.585 617.094, 521.254 618.277, 522.716 618.644 C 525.557 619.357, 558.273 615.514, 563.817 613.816 C 569.119 612.193, 569.536 609.989, 567.498 594.348 C 565.985 582.726, 565.356 580.265, 563.401 578.310 C 560.641 575.550, 561.300 575.536, 537.766 578.857 M 457.414 589.499 C 448.567 590.739, 440.360 592.272, 439.176 592.906 C 437.992 593.539, 436.751 595.142, 436.419 596.468 C 435.697 599.343, 438.673 623.520, 440.069 626.130 C 442.194 630.099, 444.130 630.203, 464.763 627.454 C 484.083 624.880, 488.436 623.634, 489.711 620.310 C 490.401 618.513, 488.342 598.383, 486.894 592.767 C 485.195 586.176, 482.922 585.924, 457.414 589.499 M 381.500 599.600 C 360.244 602.547, 360.363 602.516, 358.393 605.522 C 356.882 607.830, 356.891 609.008, 358.525 621.555 C 360.547 637.079, 361.963 640, 367.466 640 C 374.057 640, 407.268 635.022, 408.721 633.817 C 411.947 631.140, 411.878 627.930, 408.030 601.289 C 408.014 601.173, 407.015 600.160, 405.811 599.039 C 403.199 596.605, 403.086 596.607, 381.500 599.600 M 465.620 658.567 C 446.737 661.206, 445 661.998, 445 667.969 C 445 674.534, 447.959 694.245, 449.162 695.695 C 451.851 698.935, 453.745 698.995, 473.168 696.449 C 483.801 695.056, 493.519 693.491, 494.765 692.972 C 499.040 691.192, 499.445 688.297, 497.505 673.400 C 495.408 657.297, 494.605 655.943, 487.250 656.104 C 484.637 656.161, 474.904 657.270, 465.620 658.567 M 388.500 668.713 C 372.799 670.861, 370.190 671.477, 368.075 673.536 L 365.649 675.896 367.344 689.698 C 369.219 704.978, 370.657 708.302, 375.599 708.782 C 380.730 709.281, 415.139 704.139, 417.641 702.499 C 420.502 700.625, 420.666 696.537, 418.488 681.500 C 417.691 676, 417.030 671.180, 417.019 670.789 C 417.009 670.398, 416.015 669.160, 414.811 668.039 C 412.150 665.559, 411.405 665.578, 388.500 668.713" stroke="none" fill="#ffc7a1" fill-rule="evenodd"/><path d="M 512.754 84.993 C 469.371 87.452, 419.693 98.171, 378 114.067 C 258.124 159.772, 161.876 255.279, 115.549 374.500 C 54.030 532.812, 84.224 709.807, 194.788 839 C 204.021 849.788, 227.765 873.650, 240 884.436 C 302.500 939.531, 381.690 977.230, 463.610 990.887 C 494.523 996.040, 500.727 996.493, 540.500 996.497 C 579.412 996.500, 588.790 995.862, 615.500 991.393 C 688.320 979.209, 756.338 950.162, 814.764 906.299 C 919.046 828.008, 984.950 708.999, 995.979 579.062 C 997.312 563.357, 997.344 519.288, 996.034 503.500 C 989.665 426.731, 963.959 352.755, 921.177 288.080 C 869.832 210.459, 793.858 149.114, 707.500 115.547 C 669.087 100.616, 623.702 89.788, 584 86.083 C 568.451 84.632, 529.602 84.037, 512.754 84.993 M 518 196.584 C 516.075 196.802, 509.550 197.478, 503.500 198.085 C 461.207 202.332, 412.300 217.653, 375.500 238.183 C 276.746 293.278, 213.119 387.134, 198.348 499.500 C 196.161 516.136, 195.860 562.481, 197.838 578 C 205.631 639.137, 225.223 690.979, 258.493 738.500 C 315.975 820.605, 406.575 873.767, 506.567 884.062 C 524.178 885.876, 574.340 884.772, 590.531 882.214 C 644.765 873.649, 696.744 852.905, 739 822.963 C 770.809 800.424, 798.814 772.642, 821.119 741.500 C 856.153 692.585, 878.106 634.323, 884.044 574.500 C 885.687 557.955, 885.398 518.987, 883.510 502.500 C 874.392 422.834, 838.361 349.273, 781.363 293.957 C 768.807 281.771, 760.777 274.809, 749.353 266.204 C 700.634 229.506, 643.831 206.430, 582.500 198.421 C 571.218 196.947, 526.121 195.663, 518 196.584 M 438 421.960 C 365.680 431.695, 341.661 435.262, 339.044 436.658 C 337.143 437.671, 334.712 440.009, 333.642 441.853 C 331.738 445.132, 331.733 445.517, 333.408 459.353 C 335.507 476.691, 336.350 480.062, 339.239 482.677 C 344.483 487.423, 341.402 487.677, 445.154 473.933 C 521.345 463.840, 543.254 460.626, 545.969 459.141 C 547.876 458.097, 550.294 455.593, 551.340 453.576 C 553.214 449.965, 553.213 449.665, 551.238 433.956 C 549.968 423.859, 548.634 417.090, 547.602 415.516 C 545.296 411.995, 541.687 409.878, 537.288 409.463 C 535.205 409.266, 490.525 414.890, 438 421.960" stroke="none" fill="#ffffff" fill-rule="evenodd"/><path d="M 520.711 197.042 C 486.373 199.206, 455.071 205.732, 422.424 217.534 C 335.541 248.944, 263.712 315.975, 226.397 400.467 C 204.357 450.372, 194.802 501.607, 197.110 557.500 C 199.855 623.964, 222.753 688.949, 262.815 743.974 C 314.526 814.999, 394.227 864.788, 480.400 879.899 C 504.237 884.079, 509.946 884.501, 542 884.448 C 569.483 884.403, 575.349 884.111, 588 882.155 C 628.738 875.857, 658.084 866.598, 694.500 848.553 C 717.371 837.219, 738.150 824.098, 756.500 809.401 C 770.822 797.929, 798.306 770.444, 809.400 756.500 C 819.651 743.613, 834.349 721.726, 842.418 707.332 C 862.208 672.030, 876.489 628.306, 882.539 584.500 C 884.731 568.631, 885.551 530.405, 884.075 512.898 C 874.179 395.527, 805.840 291.517, 702.743 236.915 C 657.774 213.099, 611.699 200.262, 559.500 197.005 C 542.114 195.921, 538.444 195.924, 520.711 197.042 M 454.759 290.423 C 443.062 294.598, 442.479 295.908, 433.361 338.500 C 429.122 358.300, 425.394 374.809, 425.077 375.187 C 424.760 375.565, 394.019 379.938, 356.764 384.905 C 308.952 391.279, 288.314 394.403, 286.600 395.526 C 285.265 396.401, 283.473 398.590, 282.619 400.390 C 281.145 403.496, 282.317 413.415, 305.606 595.029 C 326.496 757.937, 330.434 786.801, 332.089 789.126 C 336.328 795.078, 328.219 795.830, 483.715 775.052 C 567.206 763.895, 627.854 755.359, 629.761 754.497 C 631.713 753.614, 633.697 751.605, 634.705 749.492 C 636.324 746.097, 636.244 744.825, 632.613 716.396 C 630.536 700.134, 629.029 686.637, 629.265 686.402 C 629.500 686.167, 650.338 689.611, 675.572 694.056 C 706.818 699.560, 722.561 701.930, 724.929 701.485 C 733.154 699.942, 739.491 694.518, 741.852 687 C 742.456 685.075, 755.830 613.525, 771.571 528 C 798.381 382.339, 800.121 372.187, 799.070 367.560 C 798.453 364.843, 796.798 361.113, 795.393 359.271 C 790.534 352.900, 786.850 351.378, 767.107 347.583 C 756.991 345.638, 748.494 343.828, 748.226 343.559 C 747.958 343.291, 748.472 338.359, 749.369 332.599 C 751.388 319.639, 751.408 315.736, 749.490 309.279 C 747.529 302.673, 740.228 294.481, 733.520 291.357 C 725.842 287.782, 716.224 288.048, 708.200 292.058 C 697.761 297.274, 694.044 303.339, 691.032 320.066 C 689.916 326.261, 688.775 331.558, 688.495 331.838 C 688.216 332.117, 637.253 322.590, 575.244 310.665 C 513.235 298.741, 461.600 289.008, 460.500 289.036 C 459.400 289.065, 456.817 289.689, 454.759 290.423 M 716.500 293.933 C 707.696 296.323, 702.231 300.710, 699.156 307.859 C 697.177 312.459, 693.211 332.544, 694.105 333.438 C 694.333 333.667, 696.294 333.999, 698.461 334.177 C 702.400 334.500, 702.402 334.498, 703.171 330.120 C 704.614 321.903, 710.071 317.010, 717.800 317.004 C 723.162 316.999, 727.159 319.012, 730.171 323.235 C 732.154 326.015, 732.471 327.571, 732.302 333.714 L 732.104 340.929 735.802 341.552 C 737.836 341.894, 740.237 342.375, 741.138 342.619 C 742.449 342.975, 743.004 341.812, 743.926 336.782 C 747.276 318.492, 746.455 310.396, 740.451 302.525 C 735.730 296.335, 723.635 291.997, 716.500 293.933 M 714.500 321.908 C 713.400 322.379, 711.754 323.605, 710.843 324.632 C 709.106 326.590, 706.511 334.844, 707.364 335.697 C 708.114 336.448, 726.432 339.859, 726.966 339.348 C 727.222 339.102, 727.447 336.235, 727.466 332.976 C 727.495 327.963, 727.115 326.665, 725 324.549 C 722.223 321.772, 717.558 320.598, 714.500 321.908" stroke="none" fill="#efccff" fill-rule="evenodd"/><path d="M 454.759 290.423 C 443.064 294.597, 442.503 295.858, 433.165 339 C 428.820 359.075, 425.326 375.583, 425.401 375.685 C 425.475 375.787, 459.886 371.310, 501.868 365.736 C 570.992 356.559, 578.441 355.739, 580.753 357.051 C 586.550 360.341, 587.015 361.967, 591.050 392.999 C 593.137 409.048, 595.001 422.335, 595.193 422.526 C 595.385 422.718, 628.607 429.658, 669.021 437.949 C 709.434 446.240, 743.063 453.229, 743.750 453.481 C 745.543 454.136, 745.295 458.950, 743.430 459.665 C 740.824 460.665, 597.730 430.984, 596.115 429.109 C 594.859 427.649, 594.788 427.666, 595.350 429.292 C 595.691 430.278, 597.123 440.162, 598.533 451.257 C 599.942 462.351, 601.237 471.570, 601.409 471.742 C 601.582 471.915, 630.233 477.913, 665.079 485.071 C 699.925 492.230, 728.781 498.630, 729.202 499.293 C 729.624 499.957, 729.976 501.007, 729.985 501.628 C 730.035 505.351, 727.449 504.974, 664.925 492.142 C 630.591 485.095, 602.421 479.372, 602.324 479.424 C 602.228 479.476, 602.999 486.039, 604.038 494.009 C 605.077 501.979, 605.996 510.300, 606.080 512.500 C 606.164 514.700, 606.420 515.804, 606.650 514.953 C 607.005 513.640, 615.677 515.172, 664.169 525.113 C 699.623 532.381, 721.597 537.327, 722.134 538.159 C 723.595 540.428, 722.610 542.485, 719.909 542.800 C 717.845 543.041, 612.295 522.018, 608.435 520.597 C 607.750 520.345, 608.240 527.042, 609.807 539.352 C 611.148 549.884, 612.366 558.639, 612.514 558.808 C 612.662 558.977, 634.544 563.592, 661.141 569.062 C 695.459 576.120, 709.843 579.471, 710.681 580.601 C 712.010 582.393, 711.490 584.598, 709.563 585.337 C 708.858 585.608, 686.956 581.433, 660.891 576.060 C 634.826 570.687, 613.440 566.338, 613.366 566.396 C 613.086 566.613, 618.795 609.124, 619.139 609.386 C 619.338 609.537, 637.725 613.373, 660 617.910 C 698.752 625.803, 703 627.004, 703 630.069 C 703 630.446, 702.342 631.301, 701.537 631.969 C 700.368 632.940, 692.117 631.553, 660.313 625.037 C 638.444 620.557, 620.159 616.353, 619.681 615.696 C 619.090 614.883, 618.975 615.018, 619.323 616.116 C 619.604 617.005, 621.740 632.755, 624.069 651.116 C 626.397 669.477, 628.583 684.826, 628.926 685.225 C 630.208 686.715, 721.363 702.155, 724.929 701.485 C 733.154 699.942, 739.491 694.518, 741.852 687 C 742.456 685.075, 755.830 613.525, 771.571 528 C 798.381 382.339, 800.121 372.187, 799.070 367.560 C 798.453 364.843, 796.798 361.113, 795.393 359.271 C 790.508 352.866, 786.883 351.382, 766.645 347.496 C 756.275 345.505, 747.692 344.017, 747.572 344.188 C 747.453 344.360, 745.891 354.151, 744.101 365.946 C 740.776 387.871, 739.742 391.376, 735.136 396.342 C 723.544 408.838, 702.055 404.348, 696.582 388.286 C 694.398 381.876, 694.565 379.427, 698.832 355.320 C 700.894 343.671, 702.254 334.343, 701.855 334.590 C 701.455 334.837, 699.396 334.650, 697.278 334.174 L 693.428 333.309 690.608 349.904 C 689.057 359.032, 687.332 369.122, 686.774 372.328 C 685.790 377.974, 683.921 380.321, 681.964 378.364 C 681.429 377.829, 682.653 368.341, 684.976 355.010 C 687.129 342.660, 688.802 332.510, 688.695 332.453 C 687.734 331.944, 462.010 288.997, 460.500 289.036 C 459.400 289.065, 456.817 289.689, 454.759 290.423 M 706.600 338.711 C 704.218 350.247, 700 376.736, 700 380.163 C 700 395.986, 718.513 404.759, 730.001 394.380 C 735.253 389.636, 736.500 385.709, 739.958 363.036 C 743.031 342.892, 742.988 342.054, 738.875 342.015 C 737.981 342.007, 735.932 341.736, 734.321 341.414 L 731.392 340.828 729.569 354.397 C 727.758 367.874, 726.409 371.403, 724.122 368.646 C 723.256 367.604, 723.455 364.019, 724.939 353.912 C 726.241 345.047, 726.557 340.344, 725.880 339.926 C 725.319 339.579, 721.629 338.745, 717.680 338.072 C 713.731 337.399, 709.752 336.640, 708.838 336.385 C 707.654 336.054, 707.011 336.722, 706.600 338.711 M 371.393 530.843 C 360.884 532.314, 351.591 534.095, 350.741 534.800 C 348.172 536.932, 348.029 539.923, 349.841 553.688 C 351.866 569.064, 352.945 571.015, 359.405 570.974 C 366.840 570.927, 397.993 566.250, 399.566 564.945 C 400.415 564.241, 401.532 562.875, 402.048 561.911 C 403.324 559.527, 399.683 532.254, 397.843 530.414 C 395.456 528.028, 390.986 528.100, 371.393 530.843 M 537.766 578.857 C 516.332 581.881, 514.989 582.494, 515.018 589.240 C 515.045 595.390, 517.775 613.710, 519.008 616.015 C 519.585 617.094, 521.254 618.277, 522.716 618.644 C 525.557 619.357, 558.273 615.514, 563.817 613.816 C 569.119 612.193, 569.536 609.989, 567.498 594.348 C 565.985 582.726, 565.356 580.265, 563.401 578.310 C 560.641 575.550, 561.300 575.536, 537.766 578.857 M 457.414 589.499 C 448.567 590.739, 440.360 592.272, 439.176 592.906 C 437.992 593.539, 436.751 595.142, 436.419 596.468 C 435.697 599.343, 438.673 623.520, 440.069 626.130 C 442.194 630.099, 444.130 630.203, 464.763 627.454 C 484.083 624.880, 488.436 623.634, 489.711 620.310 C 490.401 618.513, 488.342 598.383, 486.894 592.767 C 485.195 586.176, 482.922 585.924, 457.414 589.499 M 381.500 599.600 C 360.244 602.547, 360.363 602.516, 358.393 605.522 C 356.882 607.830, 356.891 609.008, 358.525 621.555 C 360.547 637.079, 361.963 640, 367.466 640 C 374.057 640, 407.268 635.022, 408.721 633.817 C 411.947 631.140, 411.878 627.930, 408.030 601.289 C 408.014 601.173, 407.015 600.160, 405.811 599.039 C 403.199 596.605, 403.086 596.607, 381.500 599.600 M 465.620 658.567 C 446.737 661.206, 445 661.998, 445 667.969 C 445 674.534, 447.959 694.245, 449.162 695.695 C 451.851 698.935, 453.745 698.995, 473.168 696.449 C 483.801 695.056, 493.519 693.491, 494.765 692.972 C 499.040 691.192, 499.445 688.297, 497.505 673.400 C 495.408 657.297, 494.605 655.943, 487.250 656.104 C 484.637 656.161, 474.904 657.270, 465.620 658.567 M 388.500 668.713 C 372.799 670.861, 370.190 671.477, 368.075 673.536 L 365.649 675.896 367.344 689.698 C 369.219 704.978, 370.657 708.302, 375.599 708.782 C 380.730 709.281, 415.139 704.139, 417.641 702.499 C 420.502 700.625, 420.666 696.537, 418.488 681.500 C 417.691 676, 417.030 671.180, 417.019 670.789 C 417.009 670.398, 416.015 669.160, 414.811 668.039 C 412.150 665.559, 411.405 665.578, 388.500 668.713" stroke="none" fill="#ffc7a1" fill-rule="evenodd"/><path d="M 713.173 290.484 C 703.583 293.477, 696.456 300.988, 693.652 311.059 C 692.818 314.051, 689.796 330.143, 686.936 346.817 C 683.197 368.609, 682.040 377.440, 682.819 378.219 C 684.680 380.080, 685.688 375.877, 691.487 342.044 C 697.634 306.189, 698.522 303.532, 706.221 297.955 C 714.500 291.957, 726.314 291.439, 734.843 296.700 C 740.350 300.096, 745.597 308.130, 746.577 314.666 C 747.288 319.404, 737.758 384.638, 735.796 388.469 C 728.404 402.902, 708.104 403.012, 701.420 388.655 C 700.100 385.820, 699.016 382.375, 699.012 381 C 698.999 376.800, 707.759 328.319, 708.924 326.142 C 711.593 321.155, 719.220 319.365, 723.883 322.631 C 728.795 326.071, 729.109 329.047, 726.464 347.069 C 723.628 366.387, 723.500 369, 725.389 369 C 726.955 369, 727.072 368.459, 730.069 347.255 C 732.437 330.508, 732.179 326.554, 728.427 322.096 C 721.971 314.424, 708.822 316.477, 705.164 325.730 C 703.455 330.053, 695.892 374.878, 695.874 380.794 C 695.825 396.484, 713.468 407.793, 727.442 401.028 C 732.897 398.387, 738.671 391.950, 739.976 387.053 C 741.847 380.033, 750.142 324.371, 750.195 318.476 C 750.272 310.019, 747.163 303.263, 740.312 297.002 C 732.213 289.600, 723.054 287.401, 713.173 290.484 M 596 426.838 L 596 429.675 626.250 435.870 C 642.888 439.277, 675.625 446.022, 699 450.859 C 727.245 456.704, 742.087 459.364, 743.250 458.792 C 745.691 457.589, 745.433 455.135, 742.750 454.031 C 740.747 453.207, 598.603 423.957, 596.750 423.988 C 596.337 423.994, 596 425.277, 596 426.838 M 602 476 C 602 477.650, 602.364 479, 602.808 479 C 603.253 479, 631.228 484.645, 664.974 491.543 C 698.720 498.442, 726.931 503.857, 727.665 503.575 C 729.604 502.831, 729.302 499.226, 727.250 498.608 C 725.357 498.037, 603.420 473, 602.536 473 C 602.241 473, 602 474.350, 602 476 M 527.478 510.448 C 510.660 512.797, 507.527 513.766, 506.523 516.927 C 505.992 518.600, 508.134 538.349, 509.540 544.737 C 509.810 545.968, 511.131 547.695, 512.474 548.575 C 514.736 550.057, 516.368 549.979, 534.655 547.517 C 555.192 544.752, 557.290 544.195, 558.964 541.067 C 560.529 538.143, 556.871 512.620, 554.514 510.015 C 552.192 507.450, 548.529 507.509, 527.478 510.448 M 607.015 515.775 C 607.024 516.724, 607.411 518.101, 607.877 518.835 C 608.811 520.308, 718.584 543.296, 720.820 542.487 C 721.546 542.224, 721.996 540.994, 721.820 539.754 C 721.515 537.608, 718.880 536.963, 667 526.326 C 637.025 520.181, 611.263 514.905, 609.750 514.601 C 607.596 514.170, 607.003 514.424, 607.015 515.775 M 451 520.607 C 431.682 523.255, 429.355 523.929, 428.105 527.238 C 426.767 530.780, 430.337 555.610, 432.533 558.036 C 434.843 560.589, 437.453 560.542, 459.500 557.546 C 475.432 555.381, 477.712 554.838, 479.348 552.818 C 480.781 551.049, 481.068 549.522, 480.625 546.018 C 480.311 543.533, 479.521 537.247, 478.870 532.048 C 477.925 524.497, 477.224 522.133, 475.389 520.298 C 472.663 517.572, 473.195 517.565, 451 520.607 M 613.015 561.642 C 613.024 562.664, 613.377 564.045, 613.801 564.712 C 614.436 565.712, 704.494 585, 708.527 585 C 710.388 585, 711.273 581.825, 709.787 580.481 C 709.079 579.840, 688.025 575.158, 663 570.075 C 637.975 564.992, 616.487 560.597, 615.250 560.308 C 613.532 559.907, 613.004 560.223, 613.015 561.642 M 619.786 612.992 C 620.023 614.610, 620.956 616.151, 621.859 616.416 C 625.789 617.569, 697.297 632, 699.083 632 C 701.375 632, 702.746 629.346, 701.235 627.835 C 700.668 627.268, 682.945 623.262, 661.852 618.932 C 640.758 614.603, 622.567 610.834, 621.427 610.556 C 619.621 610.116, 619.410 610.430, 619.786 612.992 M 547.649 648.059 C 530.996 650.323, 527.459 651.096, 525.694 652.861 L 523.591 654.965 525.293 669.232 C 526.861 682.376, 527.204 683.684, 529.650 685.833 C 531.640 687.582, 533.079 688.033, 535.402 687.636 C 537.106 687.345, 546.269 686.097, 555.764 684.864 C 574.917 682.377, 577 681.473, 577 675.647 C 577 673.846, 576.326 667.263, 575.502 661.018 C 574.006 649.671, 572.762 646.671, 569.185 645.780 C 568.258 645.549, 558.567 646.574, 547.649 648.059" stroke="none" fill="#b74646" fill-rule="evenodd"/><path d="" stroke="none" fill="#cd6e62" fill-rule="evenodd"/><path d="" stroke="none" fill="#b64847" fill-rule="evenodd"/><path d="M 523.768 196.725 C 525.565 196.947, 528.265 196.943, 529.768 196.715 C 531.271 196.486, 529.800 196.304, 526.500 196.310 C 523.200 196.315, 521.971 196.502, 523.768 196.725 M 552.768 196.725 C 554.565 196.947, 557.265 196.943, 558.768 196.715 C 560.271 196.486, 558.800 196.304, 555.500 196.310 C 552.200 196.315, 550.971 196.502, 552.768 196.725 M 196.349 530 C 196.349 534.675, 196.522 536.587, 196.732 534.250 C 196.943 531.913, 196.943 528.087, 196.732 525.750 C 196.522 523.413, 196.349 525.325, 196.349 530 M 196.355 551.500 C 196.352 556.450, 196.521 558.601, 196.731 556.280 C 196.940 553.959, 196.943 549.909, 196.736 547.280 C 196.530 544.651, 196.358 546.550, 196.355 551.500 M 785 783.500 C 780.903 787.625, 777.775 791, 778.050 791 C 778.325 791, 781.903 787.625, 786 783.500 C 790.097 779.375, 793.225 776, 792.950 776 C 792.675 776, 789.097 779.375, 785 783.500" stroke="none" fill="#f6e5eb" fill-rule="evenodd"/></svg>