<svg xmlns="http://www.w3.org/2000/svg" width="1080" height="1080" viewBox="0 0 1080 1080" version="1.1"><path d="" stroke="none" fill="#df8e78" fill-rule="evenodd"/><path d="M 270.299 387.503 C 269.119 388.330, 267.693 390.467, 267.130 392.253 C 265.675 396.874, 261.715 416.059, 262.143 416.418 C 262.339 416.584, 273.525 415.227, 287 413.403 C 313.656 409.796, 315.847 409.617, 317.828 410.872 C 318.854 411.523, 321.700 426.908, 321.968 433.250 C 321.986 433.663, 322.563 433.993, 323.250 433.985 C 323.938 433.977, 335.863 436.299, 349.750 439.145 C 367.617 442.806, 375 444.711, 375 445.660 C 375 446.397, 374.438 446.987, 373.750 446.971 C 373.063 446.954, 361.134 444.564, 347.242 441.659 C 326.493 437.320, 322.061 436.656, 322.411 437.938 C 322.645 438.797, 323.127 442.062, 323.483 445.193 L 324.130 450.885 329.815 452.031 C 355.789 457.268, 368.523 460.123, 369.281 460.881 C 371.561 463.161, 366.721 462.656, 346.891 458.547 C 335.150 456.114, 325.367 454.300, 325.151 454.516 C 324.935 454.732, 325.057 457.301, 325.422 460.226 L 326.087 465.543 345.625 469.513 C 366.049 473.662, 367.650 474.140, 366.636 475.780 C 366.242 476.417, 359.160 475.364, 347.258 472.900 C 336.941 470.764, 328.024 468.835, 327.443 468.614 C 326.727 468.341, 326.623 469.873, 327.120 473.355 C 327.524 476.185, 327.887 479.217, 327.927 480.093 C 327.984 481.338, 331.613 482.424, 344.564 485.073 C 361.987 488.637, 363.638 489.159, 362.634 490.782 C 362.238 491.424, 356.150 490.562, 345.830 488.404 C 336.929 486.543, 329.470 485.197, 329.254 485.413 C 329.037 485.630, 329.166 488.911, 329.540 492.705 L 330.219 499.602 344.360 502.451 C 358.170 505.233, 361.100 506.234, 359.658 507.676 C 358.955 508.379, 336.525 504.464, 332.298 502.900 C 330.735 502.322, 330.228 502.436, 330.550 503.293 C 330.799 503.957, 331.640 509.375, 332.418 515.333 C 333.196 521.291, 334.043 526.376, 334.299 526.632 C 334.555 526.888, 342.119 528.385, 351.107 529.958 C 365.463 532.471, 367.772 532.652, 370.104 531.446 C 371.563 530.692, 373.071 529.270, 373.455 528.287 C 374.615 525.311, 394 418.902, 394 415.507 C 394 411.143, 390.739 408.525, 383.583 407.143 C 380.329 406.514, 377.331 406, 376.921 406 C 376.511 406, 375.882 407.913, 375.522 410.250 C 375.162 412.587, 374.616 415.995, 374.309 417.821 C 373.494 422.666, 369.493 427, 365.834 427 C 362.153 427, 356.977 422.183, 357.053 418.827 C 357.082 417.547, 357.689 413.238, 358.403 409.250 C 359.431 403.505, 359.443 402, 358.459 402 C 357.129 402, 356.527 403.836, 355.483 411.085 C 355.120 413.606, 354.437 416.293, 353.966 417.056 C 352.234 419.857, 352.020 417.131, 353.405 409.909 C 354.186 405.834, 354.527 402.218, 354.162 401.874 C 353.566 401.311, 275.660 386, 273.391 386 C 272.870 386, 271.479 386.676, 270.299 387.503 M 361.623 404.750 C 360.916 407.169, 359 418.076, 359 419.684 C 359 421.798, 362.799 425, 365.309 425 C 369.551 425, 371.166 422.758, 372.567 414.926 C 374.309 405.185, 374.316 405.316, 372 404.710 C 370.314 404.269, 369.998 404.682, 369.986 407.344 C 369.968 411.550, 368.988 415, 367.811 415 C 367.240 415, 367.125 412.847, 367.526 409.642 C 368.155 404.604, 368.055 404.247, 365.847 403.656 C 362.454 402.747, 362.189 402.816, 361.623 404.750 M 241.250 472.215 C 237.813 472.743, 234.954 473.698, 234.899 474.337 C 234.690 476.727, 235.133 482.564, 235.658 484.356 C 236.144 486.014, 236.911 486.140, 242.851 485.545 C 252.786 484.548, 253 484.431, 253 479.998 C 253 474.685, 251.441 470.972, 249.275 471.127 C 248.299 471.198, 244.688 471.687, 241.250 472.215 M 300.250 489.215 C 296.813 489.743, 293.954 490.698, 293.899 491.337 C 293.690 493.727, 294.133 499.564, 294.658 501.356 C 295.144 503.014, 295.911 503.140, 301.851 502.545 C 311.786 501.548, 312 501.431, 312 496.998 C 312 491.685, 310.441 487.972, 308.275 488.127 C 307.299 488.198, 303.688 488.687, 300.250 489.215 M 275 492.549 C 274.175 492.724, 271.813 493.142, 269.750 493.479 C 266.060 494.081, 266 494.163, 266 498.611 C 266 505.528, 267.329 507.271, 272.075 506.575 C 285.373 504.626, 284 505.343, 284 500.346 C 284 492.833, 281.970 491.075, 275 492.549 M 244.500 496.655 C 243.400 496.888, 241.488 497.294, 240.250 497.558 C 238.381 497.957, 238 498.702, 238 501.954 C 238 504.108, 238.424 506.985, 238.942 508.348 C 239.793 510.587, 240.298 510.774, 244.192 510.296 C 254.416 509.039, 255.479 508.606, 255.832 505.553 C 256.014 503.975, 255.881 501.180, 255.536 499.342 C 254.939 496.157, 254.712 496.005, 250.705 496.116 C 248.392 496.180, 245.600 496.422, 244.500 496.655 M 276.500 517.369 C 269.823 518.448, 269.485 518.634, 269.168 521.408 C 268.986 523.007, 269.130 525.879, 269.488 527.790 L 270.140 531.263 277.820 530.572 C 282.044 530.192, 285.933 529.453, 286.462 528.929 C 288.354 527.055, 286.374 515.761, 284.215 516.119 C 283.822 516.184, 280.350 516.746, 276.500 517.369 M 252 520.552 C 251.175 520.729, 248.310 521.162, 245.633 521.515 L 240.765 522.158 241.218 527.614 C 241.838 535.098, 242.406 535.478, 251.031 534.198 C 254.973 533.613, 258.463 532.870, 258.785 532.548 C 259.740 531.593, 258.976 522.677, 257.820 521.283 C 256.800 520.054, 255.248 519.859, 252 520.552" stroke="none" fill="#ffc7a1" fill-rule="evenodd"/><path d="" stroke="none" fill="#f9dcc0" fill-rule="evenodd"/><path d="M 290 413.431 C 277.075 415.187, 254.620 418.171, 240.101 420.061 C 225.581 421.951, 212.992 424.017, 212.125 424.651 C 210.707 425.688, 211.427 432.667, 219.298 494.140 C 225.210 540.313, 228.488 562.917, 229.406 563.834 C 230.549 564.978, 238.849 564.113, 282.027 558.350 C 310.222 554.587, 333.972 551.010, 334.804 550.401 C 336.420 549.220, 336.814 552.821, 325.505 465.500 C 323.581 450.650, 321.302 432.650, 320.440 425.500 C 318.900 412.737, 317.762 409.760, 314.559 410.119 C 313.976 410.184, 302.925 411.674, 290 413.431 M 264 433.616 C 227.311 438.596, 227.750 438.439, 228.714 446.244 C 229.488 452.513, 231.125 455.454, 234.028 455.794 C 235.410 455.956, 251.832 454.042, 270.521 451.542 C 307.917 446.537, 307.643 446.625, 306.582 440 C 306.274 438.075, 306.017 435.520, 306.011 434.321 C 305.995 431.174, 303.339 428.985, 299.679 429.102 C 297.930 429.158, 281.875 431.189, 264 433.616 M 298.259 464.014 C 289.673 465.268, 289.647 465.292, 290.287 471.496 C 290.597 474.495, 291.165 477.458, 291.550 478.080 C 292.400 479.456, 306.824 478.353, 308.766 476.764 C 310.196 475.594, 309.446 466.399, 307.744 464.250 C 306.668 462.890, 306.065 462.875, 298.259 464.014 M 269 467.887 C 262.127 468.903, 261.663 469.450, 262.317 475.779 C 262.629 478.807, 263.319 481.719, 263.850 482.250 C 264.995 483.395, 279.739 481.661, 281.189 480.211 C 281.754 479.646, 281.804 476.912, 281.315 473.384 C 280.501 467.519, 280.487 467.500, 276.999 467.361 C 275.075 467.285, 271.475 467.521, 269 467.887 M 240.230 471.945 C 237.882 472.327, 235.471 473.129, 234.873 473.727 C 233.527 475.073, 234.666 484.492, 236.337 485.832 C 237.772 486.983, 250.902 485.326, 252.795 483.755 C 254.041 482.721, 253.856 478.049, 252.360 472.750 C 251.825 470.859, 248.331 470.627, 240.230 471.945 M 299.230 488.945 C 296.882 489.327, 294.471 490.129, 293.873 490.727 C 292.527 492.073, 293.666 501.492, 295.337 502.832 C 296.772 503.983, 309.902 502.326, 311.795 500.755 C 313.041 499.721, 312.856 495.049, 311.360 489.750 C 310.825 487.859, 307.331 487.627, 299.230 488.945 M 273.783 492.427 C 270.088 493.017, 266.559 494.014, 265.939 494.643 C 265.159 495.435, 265.082 497.432, 265.686 501.143 L 266.558 506.500 274.495 506.248 C 279.491 506.089, 282.929 505.500, 283.772 504.657 C 285.619 502.809, 284.352 493.229, 282.116 492.141 C 281.227 491.708, 277.477 491.837, 273.783 492.427 M 244 496.358 L 237.500 497.500 237.573 501.500 C 237.613 503.700, 237.972 506.788, 238.370 508.361 L 239.094 511.223 245.748 510.510 C 249.407 510.118, 253.478 509.389, 254.793 508.889 C 257.033 508.037, 257.140 507.648, 256.480 502.740 C 255.366 494.449, 255.238 494.383, 244 496.358 M 304.259 512.994 C 295.617 514.289, 295.676 514.230, 296.472 520.762 C 296.856 523.918, 297.542 526.887, 297.996 527.360 C 299.130 528.543, 312.482 527.099, 314.577 525.567 C 316.032 524.503, 316.148 523.479, 315.388 518.413 C 314.381 511.709, 314.017 511.531, 304.259 512.994 M 274.800 517.005 C 267.994 518.185, 267.745 518.476, 268.518 524.358 C 269.507 531.879, 270.147 532.263, 279.391 530.889 C 283.957 530.209, 287.373 529.192, 287.668 528.423 C 287.944 527.702, 287.793 524.725, 287.331 521.807 C 286.510 516.613, 286.418 516.497, 282.996 516.345 C 281.073 516.260, 277.385 516.557, 274.800 517.005 M 245.699 520.943 C 240.487 521.983, 239.883 522.871, 240.639 528.382 C 241.610 535.469, 242.452 535.950, 251.423 534.543 C 255.577 533.891, 259.279 533.054, 259.650 532.683 C 260.021 532.312, 259.914 529.419, 259.412 526.254 L 258.500 520.500 254 520.343 C 251.525 520.256, 247.790 520.526, 245.699 520.943" stroke="none" fill="#f7ecd5" fill-rule="evenodd"/><path d="M 165 352.703 C 112.939 356.799, 67.665 394.927, 54.445 445.809 C 43.311 488.661, 54.498 532.234, 84.830 564.161 C 102.903 583.185, 125.530 595.812, 150.751 600.950 L 161.001 603.038 539.790 603.038 C 956.805 603.038, 924.027 603.527, 943.971 597.010 C 968.873 588.872, 993.803 570.007, 1008.128 548.461 C 1032.506 511.796, 1036.518 464.268, 1018.454 426.135 C 999.182 385.452, 961.177 357.921, 917.576 353.059 C 911.034 352.330, 793.176 352.054, 538.789 352.175 C 335.680 352.271, 167.475 352.509, 165 352.703 M 247.269 382.064 C 226.159 384.810, 206.627 394.394, 191.432 409.462 C 165.550 435.126, 156.481 474.425, 168.400 509.262 C 173.069 522.907, 179.755 533.591, 190.500 544.579 C 204.288 558.677, 218.482 566.954, 236.867 571.618 L 246.256 574 539.040 574 C 859.464 574, 838.273 574.396, 854.566 568.102 C 872.767 561.071, 889.958 547.387, 900.505 531.535 C 907.246 521.404, 910.411 514.351, 913.736 502.044 C 917.325 488.760, 917.480 467.861, 914.087 454.634 C 906.806 426.251, 886.950 402.656, 859.727 390.035 C 850.108 385.575, 841.172 383.211, 829.149 381.946 C 818.395 380.814, 256.001 380.928, 247.269 382.064 M 264 433.616 C 227.311 438.596, 227.750 438.439, 228.714 446.244 C 229.488 452.513, 231.125 455.454, 234.028 455.794 C 235.410 455.956, 251.832 454.042, 270.521 451.542 C 307.917 446.537, 307.643 446.625, 306.582 440 C 306.274 438.075, 306.017 435.520, 306.011 434.321 C 305.995 431.174, 303.339 428.985, 299.679 429.102 C 297.930 429.158, 281.875 431.189, 264 433.616 M 806.455 433.455 C 804.118 435.792, 804 436.492, 804 448.071 L 804 460.233 800.025 456.642 C 795.272 452.348, 792.830 451.627, 784.958 452.197 C 774.315 452.967, 766.827 460.537, 763.412 473.981 C 761.023 483.388, 761.816 500.555, 764.974 507.794 C 769.047 517.128, 777.107 522, 788.475 522 C 793.845 522, 798.280 520.332, 802.605 516.685 L 805.709 514.067 806.842 516.553 C 809.723 522.876, 821.658 522.290, 823.950 515.713 C 825.432 511.462, 825.377 438.922, 823.890 435.657 C 821.525 430.467, 810.797 429.112, 806.455 433.455 M 420.020 436.284 C 415.194 438.726, 415.030 440.078, 415.015 477.685 C 415.006 497.708, 415.412 513.954, 415.957 515.387 C 418.739 522.705, 434.261 522.705, 437.043 515.387 C 437.569 514.003, 438 507.724, 438 501.435 L 438 490 442.096 490 C 450.368 490, 454.579 494.969, 457.475 508.149 C 459.641 518.006, 461.821 520.238, 469.764 520.729 C 476.390 521.139, 479.902 519.689, 481.783 515.767 C 482.844 513.554, 482.803 511.960, 481.545 506.537 C 479.049 495.774, 473.972 487.633, 467.680 484.305 C 466.107 483.473, 466.513 483.006, 470.671 480.866 C 479.516 476.315, 483.796 466.534, 481.938 455.119 C 479.468 439.942, 468.861 435.037, 438.500 435.032 C 427.646 435.030, 421.702 435.433, 420.020 436.284 M 519.427 451.966 C 509.041 453.548, 500.594 460.027, 497.496 468.787 C 495.210 475.253, 494.439 489.469, 495.956 497.183 C 499.186 513.598, 507.630 520.870, 524.531 521.790 C 533.714 522.291, 543.415 520.265, 548.221 516.843 C 551.658 514.395, 555.009 507.751, 554.257 504.875 C 552.835 499.438, 544.040 498.289, 538.785 502.853 C 534.092 506.930, 531.671 508, 527.142 508 C 522.098 508, 517.461 504.321, 516.035 499.186 C 513.908 491.527, 512.633 492, 535.393 492 C 558.422 492, 557 492.551, 557 483.628 C 557 477.161, 554.604 467.713, 551.822 463.212 C 546.388 454.420, 533.251 449.859, 519.427 451.966 M 591.040 452.129 C 582.732 453.521, 576.091 457.712, 572.310 463.948 C 568.355 470.472, 567 476.576, 567 487.868 C 567 503.893, 571.719 513.751, 581.746 518.675 C 586.896 521.203, 588.550 521.500, 597.500 521.500 C 609.598 521.500, 615.292 519.633, 620.383 513.998 C 628.497 505.016, 626.714 496.016, 616.816 495.992 C 614.075 495.985, 612.615 496.940, 608.398 501.492 C 603.678 506.588, 602.962 507, 598.823 507 C 590.742 507, 588 501.909, 588 486.903 C 588 471.738, 590.252 468, 599.388 468 C 604.163 468, 604.193 468.024, 609.305 475.968 C 612.188 480.449, 616.329 481.725, 621.278 479.657 C 627.239 477.167, 627.545 470.405, 622.087 461.799 C 616.996 453.770, 604.489 449.875, 591.040 452.129 M 659.610 452.055 C 643.599 454.738, 635.704 466.279, 635.704 487 C 635.704 503.563, 639.997 512.960, 650.077 518.458 C 654.679 520.967, 656.863 521.476, 664.500 521.815 C 680.413 522.521, 688.657 518.505, 694.134 507.378 C 697.191 501.169, 697.515 499.628, 697.856 489.665 C 698.650 466.461, 691.288 454.858, 674 452.065 C 666.774 450.898, 666.514 450.898, 659.610 452.055 M 742.643 451.992 C 738.348 453.333, 735.992 455.874, 732.895 462.500 L 730.092 468.500 730.046 463.184 C 729.987 456.381, 728.830 454.323, 724.371 453.092 C 719.651 451.789, 715.669 452.659, 712.909 455.597 C 710.709 457.939, 710.677 458.371, 710.677 486.251 C 710.677 505.701, 711.038 515.202, 711.831 516.684 C 714.501 521.674, 725.221 522.077, 728.957 517.328 C 730.814 514.966, 731 513.325, 731 499.266 C 731 481.917, 731.966 478.242, 737.420 474.846 C 739.907 473.297, 741.580 473.047, 746.113 473.546 C 751.358 474.124, 751.863 473.989, 753.836 471.481 C 757.867 466.357, 757.529 457.598, 753.147 453.633 C 750.866 451.569, 746.286 450.854, 742.643 451.992 M 438 463.891 L 438 476 443.532 476 C 451.186 476, 455.718 473.919, 457.536 469.568 C 459.881 463.957, 459.417 459.499, 456.104 455.790 C 453.402 452.766, 452.700 452.524, 445.604 452.165 L 438 451.781 438 463.891 M 520.871 466.508 C 518.236 467.940, 515 474.286, 515 478.020 C 515 479.868, 515.702 480, 525.500 480 L 536 480 536 477.468 C 536 468.219, 528.166 462.545, 520.871 466.508 M 660.966 468.750 C 658.378 471.071, 657.733 472.627, 656.832 478.733 C 655.579 487.217, 656.440 497.368, 658.817 502.128 C 660.881 506.263, 665.914 508.275, 670.337 506.733 C 675.092 505.075, 677.144 498.972, 677.125 486.545 C 677.107 475.209, 675.760 470.346, 671.883 467.631 C 668.425 465.208, 664.461 465.615, 660.966 468.750 M 787.881 469.447 C 783.676 471.823, 781.698 477.282, 781.715 486.467 C 781.724 491.461, 782.318 495.893, 783.286 498.184 C 785.872 504.303, 793.614 506.802, 799.907 503.548 C 803.227 501.831, 804 498.031, 804 483.416 C 804 475.169, 803.741 473.810, 801.717 471.457 C 798.902 468.185, 791.912 467.169, 787.881 469.447" stroke="none" fill="#ffffff" fill-rule="evenodd"/><path d="M 322 434.933 C 322 435.520, 322.346 436, 322.770 436 C 323.193 436, 334.457 438.250, 347.802 441 C 361.146 443.750, 372.800 446, 373.699 446 C 378.129 446, 372.158 444.478, 349.868 439.925 C 336.465 437.188, 324.712 434.704, 323.750 434.407 C 322.788 434.109, 322 434.346, 322 434.933 M 325.550 452.847 C 326.825 453.984, 367.983 462.350, 368.713 461.621 C 369.547 460.786, 368.495 460.526, 346.272 456.062 C 324.140 451.618, 324.178 451.623, 325.550 452.847 M 300 464.635 C 290.117 466.233, 290.998 465.629, 291.015 470.795 C 291.039 478.011, 291.544 478.371, 300.455 477.536 C 305.113 477.100, 308.323 476.323, 308.615 475.560 C 308.880 474.869, 308.730 472.098, 308.281 469.402 C 307.411 464.180, 306.404 463.600, 300 464.635 M 326.833 467.233 C 327.394 467.794, 336.324 469.957, 346.677 472.038 C 363.392 475.399, 367.382 475.936, 365.917 474.628 C 364.875 473.698, 325.929 466.329, 326.833 467.233 M 270 468.643 C 262.441 469.903, 262.721 469.618, 263.212 475.548 C 263.461 478.545, 263.921 481.255, 264.236 481.569 C 264.998 482.331, 278.416 480.979, 280.037 479.977 C 281.004 479.380, 281.093 477.894, 280.406 473.844 C 279.519 468.614, 279.425 468.497, 276 468.364 C 274.075 468.288, 271.375 468.414, 270 468.643 M 329.550 483.856 C 330.072 484.328, 336.800 485.929, 344.500 487.414 C 352.200 488.900, 359.288 490.345, 360.250 490.625 C 361.212 490.905, 362 490.741, 362 490.259 C 362 489.777, 354.913 487.943, 346.250 486.183 C 329.114 482.701, 328.114 482.562, 329.550 483.856 M 331.215 501.490 C 332.222 502.579, 359 507.882, 359 506.992 C 359 506.590, 354.387 505.290, 348.750 504.104 C 335.381 501.290, 330.335 500.538, 331.215 501.490 M 302.652 514.049 C 299.986 514.496, 297.569 515.098, 297.281 515.385 C 296.994 515.673, 297.077 518.463, 297.467 521.584 L 298.176 527.260 305.779 526.571 C 309.961 526.192, 313.746 525.657, 314.191 525.382 C 315.308 524.691, 315.207 518.674, 314.025 515.565 C 312.956 512.755, 311.511 512.562, 302.652 514.049" stroke="none" fill="#b74646" fill-rule="evenodd"/><path d="M 165 352.703 C 112.939 356.799, 67.665 394.927, 54.445 445.809 C 43.311 488.661, 54.498 532.234, 84.830 564.161 C 102.903 583.185, 125.530 595.812, 150.751 600.950 L 161.001 603.038 539.790 603.038 C 956.805 603.038, 924.027 603.527, 943.971 597.010 C 968.873 588.872, 993.803 570.007, 1008.128 548.461 C 1032.506 511.796, 1036.518 464.268, 1018.454 426.135 C 999.182 385.452, 961.177 357.921, 917.576 353.059 C 911.034 352.330, 793.176 352.054, 538.789 352.175 C 335.680 352.271, 167.475 352.509, 165 352.703 M 247.269 382.064 C 226.159 384.810, 206.627 394.394, 191.432 409.462 C 165.550 435.126, 156.481 474.425, 168.400 509.262 C 173.069 522.907, 179.755 533.591, 190.500 544.579 C 204.288 558.677, 218.482 566.954, 236.867 571.618 L 246.256 574 539.040 574 C 859.464 574, 838.273 574.396, 854.566 568.102 C 872.767 561.071, 889.958 547.387, 900.505 531.535 C 907.246 521.404, 910.411 514.351, 913.736 502.044 C 917.325 488.760, 917.480 467.861, 914.087 454.634 C 906.806 426.251, 886.950 402.656, 859.727 390.035 C 850.108 385.575, 841.172 383.211, 829.149 381.946 C 818.395 380.814, 256.001 380.928, 247.269 382.064 M 264 433.616 C 227.311 438.596, 227.750 438.439, 228.714 446.244 C 229.488 452.513, 231.125 455.454, 234.028 455.794 C 235.410 455.956, 251.832 454.042, 270.521 451.542 C 307.917 446.537, 307.643 446.625, 306.582 440 C 306.274 438.075, 306.017 435.520, 306.011 434.321 C 305.995 431.174, 303.339 428.985, 299.679 429.102 C 297.930 429.158, 281.875 431.189, 264 433.616 M 806.455 433.455 C 804.118 435.792, 804 436.492, 804 448.071 L 804 460.233 800.025 456.642 C 795.272 452.348, 792.830 451.627, 784.958 452.197 C 774.315 452.967, 766.827 460.537, 763.412 473.981 C 761.023 483.388, 761.816 500.555, 764.974 507.794 C 769.047 517.128, 777.107 522, 788.475 522 C 793.845 522, 798.280 520.332, 802.605 516.685 L 805.709 514.067 806.842 516.553 C 809.723 522.876, 821.658 522.290, 823.950 515.713 C 825.432 511.462, 825.377 438.922, 823.890 435.657 C 821.525 430.467, 810.797 429.112, 806.455 433.455 M 420.020 436.284 C 415.194 438.726, 415.030 440.078, 415.015 477.685 C 415.006 497.708, 415.412 513.954, 415.957 515.387 C 418.739 522.705, 434.261 522.705, 437.043 515.387 C 437.569 514.003, 438 507.724, 438 501.435 L 438 490 442.096 490 C 450.368 490, 454.579 494.969, 457.475 508.149 C 459.641 518.006, 461.821 520.238, 469.764 520.729 C 476.390 521.139, 479.902 519.689, 481.783 515.767 C 482.844 513.554, 482.803 511.960, 481.545 506.537 C 479.049 495.774, 473.972 487.633, 467.680 484.305 C 466.107 483.473, 466.513 483.006, 470.671 480.866 C 479.516 476.315, 483.796 466.534, 481.938 455.119 C 479.468 439.942, 468.861 435.037, 438.500 435.032 C 427.646 435.030, 421.702 435.433, 420.020 436.284 M 519.427 451.966 C 509.041 453.548, 500.594 460.027, 497.496 468.787 C 495.210 475.253, 494.439 489.469, 495.956 497.183 C 499.186 513.598, 507.630 520.870, 524.531 521.790 C 533.714 522.291, 543.415 520.265, 548.221 516.843 C 551.658 514.395, 555.009 507.751, 554.257 504.875 C 552.835 499.438, 544.040 498.289, 538.785 502.853 C 534.092 506.930, 531.671 508, 527.142 508 C 522.098 508, 517.461 504.321, 516.035 499.186 C 513.908 491.527, 512.633 492, 535.393 492 C 558.422 492, 557 492.551, 557 483.628 C 557 477.161, 554.604 467.713, 551.822 463.212 C 546.388 454.420, 533.251 449.859, 519.427 451.966 M 591.040 452.129 C 582.732 453.521, 576.091 457.712, 572.310 463.948 C 568.355 470.472, 567 476.576, 567 487.868 C 567 503.893, 571.719 513.751, 581.746 518.675 C 586.896 521.203, 588.550 521.500, 597.500 521.500 C 609.598 521.500, 615.292 519.633, 620.383 513.998 C 628.497 505.016, 626.714 496.016, 616.816 495.992 C 614.075 495.985, 612.615 496.940, 608.398 501.492 C 603.678 506.588, 602.962 507, 598.823 507 C 590.742 507, 588 501.909, 588 486.903 C 588 471.738, 590.252 468, 599.388 468 C 604.163 468, 604.193 468.024, 609.305 475.968 C 612.188 480.449, 616.329 481.725, 621.278 479.657 C 627.239 477.167, 627.545 470.405, 622.087 461.799 C 616.996 453.770, 604.489 449.875, 591.040 452.129 M 659.610 452.055 C 643.599 454.738, 635.704 466.279, 635.704 487 C 635.704 503.563, 639.997 512.960, 650.077 518.458 C 654.679 520.967, 656.863 521.476, 664.500 521.815 C 680.413 522.521, 688.657 518.505, 694.134 507.378 C 697.191 501.169, 697.515 499.628, 697.856 489.665 C 698.650 466.461, 691.288 454.858, 674 452.065 C 666.774 450.898, 666.514 450.898, 659.610 452.055 M 742.643 451.992 C 738.348 453.333, 735.992 455.874, 732.895 462.500 L 730.092 468.500 730.046 463.184 C 729.987 456.381, 728.830 454.323, 724.371 453.092 C 719.651 451.789, 715.669 452.659, 712.909 455.597 C 710.709 457.939, 710.677 458.371, 710.677 486.251 C 710.677 505.701, 711.038 515.202, 711.831 516.684 C 714.501 521.674, 725.221 522.077, 728.957 517.328 C 730.814 514.966, 731 513.325, 731 499.266 C 731 481.917, 731.966 478.242, 737.420 474.846 C 739.907 473.297, 741.580 473.047, 746.113 473.546 C 751.358 474.124, 751.863 473.989, 753.836 471.481 C 757.867 466.357, 757.529 457.598, 753.147 453.633 C 750.866 451.569, 746.286 450.854, 742.643 451.992 M 438 463.891 L 438 476 443.532 476 C 451.186 476, 455.718 473.919, 457.536 469.568 C 459.881 463.957, 459.417 459.499, 456.104 455.790 C 453.402 452.766, 452.700 452.524, 445.604 452.165 L 438 451.781 438 463.891 M 520.871 466.508 C 518.236 467.940, 515 474.286, 515 478.020 C 515 479.868, 515.702 480, 525.500 480 L 536 480 536 477.468 C 536 468.219, 528.166 462.545, 520.871 466.508 M 660.966 468.750 C 658.378 471.071, 657.733 472.627, 656.832 478.733 C 655.579 487.217, 656.440 497.368, 658.817 502.128 C 660.881 506.263, 665.914 508.275, 670.337 506.733 C 675.092 505.075, 677.144 498.972, 677.125 486.545 C 677.107 475.209, 675.760 470.346, 671.883 467.631 C 668.425 465.208, 664.461 465.615, 660.966 468.750 M 787.881 469.447 C 783.676 471.823, 781.698 477.282, 781.715 486.467 C 781.724 491.461, 782.318 495.893, 783.286 498.184 C 785.872 504.303, 793.614 506.802, 799.907 503.548 C 803.227 501.831, 804 498.031, 804 483.416 C 804 475.169, 803.741 473.810, 801.717 471.457 C 798.902 468.185, 791.912 467.169, 787.881 469.447" stroke="none" fill="#ffffff" fill-rule="evenodd"/><path d="M 245 382.682 C 213.135 388.048, 186.492 407.825, 173.076 436.072 C 166.158 450.636, 164.499 458.846, 164.504 478.500 C 164.508 493.158, 164.819 496.573, 166.762 503.289 C 171.758 520.557, 179.403 533.163, 192.784 546.192 C 205.669 558.738, 216.316 564.972, 234.716 570.745 L 243.500 573.500 535 573.795 C 741.948 574.004, 828.735 573.772, 834.205 572.997 C 866.721 568.385, 895.908 546.025, 908.533 516.054 C 914.446 502.015, 915.485 496.262, 915.493 477.500 C 915.499 462.807, 915.194 459.443, 913.242 452.711 C 908.573 436.603, 900.892 423.388, 889.201 411.351 C 877.086 398.877, 861.458 389.611, 844.284 384.718 L 836.500 382.500 542 382.380 C 380.025 382.315, 246.375 382.450, 245 382.682 M 269.785 387.954 C 267.707 389.589, 266.841 392.086, 264.494 403.204 C 262.951 410.517, 261.646 416.575, 261.594 416.667 C 261.542 416.759, 250.924 418.234, 238 419.944 C 225.075 421.654, 213.713 423.297, 212.750 423.594 C 211.403 424.010, 211.007 425.214, 211.029 428.817 C 211.067 434.797, 227.500 562.381, 228.425 563.879 C 229.528 565.663, 232.616 565.361, 284.403 558.412 C 317.506 553.970, 333.974 551.367, 334.954 550.422 C 336.197 549.224, 336.234 547.471, 335.213 538.334 C 334.556 532.457, 334.144 527.523, 334.296 527.370 C 334.449 527.218, 341.918 528.393, 350.893 529.981 C 368.194 533.043, 370.903 532.919, 373.019 528.964 C 374.413 526.361, 393.967 420.936, 393.986 415.924 C 394.006 410.853, 390.980 408.406, 382.838 406.911 L 376.177 405.687 376.725 400.379 C 377.665 391.270, 373.716 386, 365.950 386 C 361.773 386, 356.007 391.584, 355.985 395.650 C 355.951 401.943, 357.500 402.016, 314.327 393.680 C 292.422 389.451, 273.998 385.992, 273.385 385.995 C 272.772 385.998, 271.152 386.879, 269.785 387.954 M 361.237 389.993 C 359.298 391.800, 357.020 397.592, 357.006 400.750 C 357.003 401.438, 357.675 402, 358.500 402 C 359.325 402, 360 401.395, 360 400.655 C 360 398.719, 363.315 396, 365.674 396 C 368.410 396, 371 399.078, 371 402.329 C 371 403.945, 371.550 405, 372.393 405 C 374.243 405, 375 402.785, 375 397.373 C 375 393.967, 374.418 392.327, 372.545 390.455 C 369.475 387.384, 364.266 387.172, 361.237 389.993 M 362.476 400.075 C 361.667 402.623, 361.854 402.821, 365.823 403.615 C 369.130 404.276, 369.794 403.234, 368.393 399.582 C 367.491 397.231, 363.267 397.583, 362.476 400.075 M 808.476 431.341 C 804.068 433.341, 803 436.688, 803 448.502 L 803 458.909 800.490 456.400 C 790.422 446.331, 772.845 451.309, 765.585 466.286 C 760.770 476.218, 759.826 494.564, 763.580 505.240 C 767.126 515.325, 772.625 520.023, 783.267 522.060 C 790.494 523.443, 797.175 521.740, 802.146 517.249 C 805.577 514.149, 806 513.993, 806 515.827 C 806 518.977, 809.774 521, 815.650 521 C 820.082 521, 821.163 520.609, 822.927 518.365 C 824.945 515.800, 825 514.681, 825 475.921 L 825 436.112 822.717 433.457 C 819.955 430.247, 813.125 429.232, 808.476 431.341 M 417.718 437.555 L 415 440.273 415.032 477.886 C 415.055 505.877, 415.375 515.906, 416.282 517.087 C 418.311 519.730, 421.627 521, 426.500 521 C 431.373 521, 434.689 519.730, 436.718 517.087 C 437.525 516.036, 437.947 511.192, 437.968 502.750 L 438 490 441.032 490 C 445.796 490, 450.773 492.579, 452.977 496.190 C 454.089 498.010, 455.766 503.100, 456.705 507.500 C 459.127 518.843, 461.405 521, 470.969 521 C 477.197 521, 478.399 520.692, 480.545 518.545 C 483.476 515.615, 483.701 511.725, 481.388 503.932 C 478.814 495.254, 475.277 489.213, 470.927 486.062 L 466.897 483.143 470.425 481.469 C 478.264 477.748, 482.983 469.643, 482.994 459.876 C 483.007 449.773, 477.955 442.028, 468.618 437.834 C 463.889 435.709, 461.863 435.508, 441.968 435.186 L 420.436 434.836 417.718 437.555 M 514 452.717 C 509.933 453.951, 507.186 455.704, 503.455 459.443 C 496.827 466.086, 494.617 472.765, 494.668 486 C 494.752 507.969, 502.941 519.515, 520.103 521.862 C 528.213 522.972, 539.742 521.682, 544.803 519.100 C 555.655 513.564, 558.256 502.553, 549.299 500.066 C 543.927 498.574, 543.934 498.572, 538 503 C 533.458 506.389, 531.893 507, 527.754 507 C 525.067 507, 521.960 506.514, 520.850 505.920 C 518.419 504.619, 516 499.198, 516 495.053 L 516 492.041 536.250 491.771 L 556.500 491.500 556.794 483.656 C 557.337 469.156, 552.474 459.336, 542.280 454.349 C 535.124 450.847, 522.549 450.122, 514 452.717 M 587.500 452.399 C 575.322 456.250, 569.359 463.530, 566.923 477.523 C 563.440 497.524, 570.345 514.992, 583.713 519.994 C 589.611 522.201, 601.466 522.923, 608.138 521.482 C 616.520 519.672, 622.965 514.188, 625.105 507.046 C 626.672 501.812, 625.623 498.373, 621.864 496.430 C 616.969 493.898, 612.630 495.234, 608.747 500.469 C 603.927 506.967, 599.681 508.438, 594.091 505.547 C 589.755 503.305, 588.500 498.989, 588.500 486.323 C 588.500 476.526, 588.760 474.797, 590.602 472.323 C 593.245 468.774, 596.667 467.527, 601.355 468.407 C 604.472 468.992, 605.382 469.821, 607.505 474.011 C 610.313 479.552, 612.342 481, 617.299 481 C 622.636 481, 626.005 477.770, 625.978 472.677 C 625.931 463.638, 619.284 455.350, 609.833 452.543 C 603.648 450.706, 593.067 450.638, 587.500 452.399 M 654.431 452.761 C 640.840 457.612, 635.500 467.270, 635.500 487 C 635.500 500.723, 637.203 506.676, 643.016 513.281 C 648.907 519.973, 655.257 522.383, 667 522.383 C 678.664 522.383, 685.102 519.963, 690.870 513.411 C 697.483 505.898, 700.439 491.108, 698.064 477.420 C 695.875 464.808, 691.096 457.731, 682.011 453.650 C 675.584 450.762, 661.317 450.302, 654.431 452.761 M 740.179 452.682 C 738.150 453.682, 735.773 456.220, 734.065 459.209 L 731.272 464.101 730.636 460.123 C 729.787 454.814, 726.203 452, 720.288 452 C 716.712 452, 715.276 452.570, 712.923 454.923 L 710 457.846 710 486.500 L 710 515.154 712.923 518.077 C 715.314 520.468, 716.691 521, 720.489 521 C 730.545 521, 732 517.896, 732 496.432 L 732 480.800 735.536 477.264 C 738.947 473.853, 739.275 473.747, 744.858 474.253 C 748.041 474.542, 751.400 474.356, 752.323 473.839 C 758.534 470.363, 758.351 455.399, 752.055 452.030 C 749.239 450.522, 743.975 450.811, 740.179 452.682 M 438.667 452.667 C 438.300 453.033, 438 458.433, 438 464.667 L 438 476 442.250 475.994 C 453.117 475.980, 458 472.133, 458 463.588 C 458 456.744, 456.226 454.429, 449.952 453.083 C 444.220 451.854, 439.648 451.685, 438.667 452.667 M 520.750 467.080 C 518.317 468.497, 516 473.312, 516 476.950 L 516 480 525.500 480 L 535 480 535 476.450 C 535 472.318, 532.778 467.512, 530.455 466.621 C 528.008 465.682, 522.721 465.932, 520.750 467.080 M 661.364 468.457 C 658.100 470.744, 656.722 477.610, 657.158 489.406 C 657.480 498.098, 657.907 500.400, 659.626 502.708 C 663.971 508.544, 670.793 508.216, 674.447 501.995 C 676.196 499.017, 676.500 496.797, 676.500 487 C 676.500 474.889, 675.266 469.748, 671.929 467.962 C 669.265 466.536, 663.737 466.796, 661.364 468.457 M 789.001 469.738 C 784.421 472.045, 782.735 475.847, 782.236 485 C 781.513 498.253, 785.428 504.386, 794.524 504.248 C 802.434 504.129, 803 502.979, 803 487.019 C 803 474.121, 802.873 473.232, 800.750 471.282 C 797.424 468.228, 793.124 467.662, 789.001 469.738" stroke="none" fill="#efccff" fill-rule="evenodd"/><path d="" stroke="none" fill="#bb5150" fill-rule="evenodd"/><path d="M 395.831 381.750 C 474.663 381.891, 603.363 381.891, 681.831 381.750 C 760.299 381.609, 695.800 381.493, 538.500 381.493 C 381.200 381.493, 316.999 381.609, 395.831 381.750 M 803.382 448.500 C 803.384 455.100, 803.546 457.670, 803.741 454.211 C 803.937 450.752, 803.936 445.352, 803.738 442.211 C 803.540 439.070, 803.380 441.900, 803.382 448.500 M 730.133 463.500 C 730.084 466.867, 730.352 468.004, 730.951 466.980 C 731.445 466.137, 731.477 463.911, 731.023 461.980 C 730.235 458.628, 730.202 458.683, 730.133 463.500 M 710.409 486.500 C 710.408 495.850, 710.558 499.810, 710.743 495.299 C 710.928 490.789, 710.929 483.139, 710.745 478.299 C 710.562 473.460, 710.410 477.150, 710.409 486.500 M 163.336 478 C 163.336 482.125, 163.513 483.813, 163.728 481.750 C 163.944 479.688, 163.944 476.313, 163.728 474.250 C 163.513 472.188, 163.336 473.875, 163.336 478 M 916.328 477.500 C 916.333 481.350, 916.513 482.802, 916.730 480.728 C 916.946 478.653, 916.943 475.503, 916.722 473.728 C 916.501 471.952, 916.324 473.650, 916.328 477.500 M 803.378 485 C 803.378 491.325, 803.541 493.913, 803.739 490.750 C 803.937 487.587, 803.937 482.413, 803.739 479.250 C 803.541 476.087, 803.378 478.675, 803.378 485 M 566.336 487 C 566.336 491.125, 566.513 492.813, 566.728 490.750 C 566.944 488.688, 566.944 485.313, 566.728 483.250 C 566.513 481.188, 566.336 482.875, 566.336 487 M 698.336 487 C 698.336 491.125, 698.513 492.813, 698.728 490.750 C 698.944 488.688, 698.944 485.313, 698.728 483.250 C 698.513 481.188, 698.336 482.875, 698.336 487 M 656.320 487 C 656.320 490.575, 656.502 492.038, 656.723 490.250 C 656.945 488.462, 656.945 485.538, 656.723 483.750 C 656.502 481.962, 656.320 483.425, 656.320 487 M 761.328 488.500 C 761.333 492.350, 761.513 493.802, 761.730 491.728 C 761.946 489.653, 761.943 486.503, 761.722 484.728 C 761.501 482.952, 761.324 484.650, 761.328 488.500 M 731.402 498 C 731.402 506.525, 731.556 510.012, 731.743 505.750 C 731.931 501.488, 731.931 494.512, 731.743 490.250 C 731.556 485.988, 731.402 489.475, 731.402 498 M 191 545.500 C 194.543 549.075, 197.667 552, 197.942 552 C 198.217 552, 195.543 549.075, 192 545.500 C 188.457 541.925, 185.333 539, 185.058 539 C 184.783 539, 187.457 541.925, 191 545.500" stroke="none" fill="#f5e5f6" fill-rule="evenodd"/></svg>