<svg xmlns="http://www.w3.org/2000/svg" width="1080" height="1080" viewBox="0 0 1080 1080" version="1.1"><path d="M 566.343 591.500 C 566.346 595.900, 566.522 597.576, 566.733 595.224 C 566.945 592.872, 566.942 589.272, 566.727 587.224 C 566.512 585.176, 566.339 587.100, 566.343 591.500 M 642.310 613.500 C 642.315 616.800, 642.502 618.029, 642.725 616.232 C 642.947 614.435, 642.943 611.735, 642.715 610.232 C 642.486 608.729, 642.304 610.200, 642.310 613.500 M 531.310 614.500 C 531.315 617.800, 531.502 619.029, 531.725 617.232 C 531.947 615.435, 531.943 612.735, 531.715 611.232 C 531.486 609.729, 531.304 611.200, 531.310 614.500 M 871 610.651 C 864.681 612.933, 857.959 618.073, 853.161 624.292 C 846.980 632.303, 844.718 638.207, 844.202 647.671 C 842.967 670.365, 859.132 695.885, 901.385 737.944 C 917.915 754.398, 919.039 755.317, 921.204 754.158 C 922.467 753.481, 928.988 749.007, 935.695 744.214 C 973.980 716.856, 997.843 692.061, 1007.138 669.982 C 1014.475 652.552, 1012.380 638.191, 1000.617 625.286 C 994.643 618.732, 989.440 615.584, 981.015 613.425 C 963.918 609.045, 943.494 619.517, 930.112 639.524 L 925.157 646.933 922.223 640.716 C 916.032 627.597, 905.574 616.759, 894.500 611.986 C 887.818 609.106, 876.985 608.491, 871 610.651" stroke="none" fill="#b1d5ff" fill-rule="evenodd"/><path d="M 837.056 660.771 C 832.722 665.177, 829.714 669.489, 826.942 675.271 C 823.272 682.924, 820.058 694.341, 820.017 699.868 C 820.001 702.069, 819.704 701.939, 815.777 698.012 C 804.614 686.850, 791.450 681.035, 777.288 681.012 C 763.121 680.989, 752.769 687.615, 746.961 700.426 C 731.851 733.750, 753.214 760.002, 819.073 789.040 C 832.511 794.965, 852.802 803, 854.328 803 C 855.040 803, 858.800 798.163, 862.683 792.250 C 875.348 772.964, 884.473 756.389, 891.669 739.597 L 895.055 731.693 887.225 723.597 C 872.120 707.978, 857.684 689.123, 851.316 676.696 C 849.852 673.838, 847.433 667.675, 845.939 663 L 843.225 654.500 837.056 660.771" stroke="none" fill="#ffc7c2" fill-rule="evenodd"/><path d="M 702.866 520.884 C 698.147 524.608, 696.933 529.785, 695.451 552.492 C 694.698 564.047, 694.063 573.591, 694.040 573.702 C 694.018 573.814, 691.836 571.741, 689.192 569.096 C 674.481 554.386, 655.763 560.963, 647.969 583.581 C 641.245 603.093, 641.611 624.621, 648.967 642.212 C 656.395 659.974, 667.354 667.365, 680.568 663.523 C 685.150 662.191, 687.484 660.676, 692.166 655.994 L 698.028 650.132 699.378 653.363 C 702.898 661.786, 712.487 664.775, 717.371 658.971 C 721.649 653.887, 722.041 648.596, 721.038 609.500 C 720.784 599.600, 720.966 578.601, 721.442 562.836 C 722.401 531.111, 721.975 527.266, 716.970 522.471 C 713.088 518.752, 706.506 518.011, 702.866 520.884 M 276 526.638 C 267.348 528.302, 253.827 532.482, 247.221 535.534 C 238.173 539.714, 234.361 543.040, 232.999 547.943 C 231.585 553.033, 231.682 646.382, 233.108 653.201 C 234.556 660.122, 238.559 667.478, 241.642 668.883 C 252.212 673.699, 258.864 663.669, 261.130 639.503 C 261.697 633.455, 262.237 628.471, 262.330 628.429 C 267.089 626.265, 273.229 624, 274.334 624 C 275.255 624, 276.821 626.873, 278.559 631.750 C 286.312 653.501, 291.651 664.242, 296.346 667.530 C 299.701 669.880, 307.252 669.439, 309.701 666.750 C 313.104 663.013, 314 660.410, 314 654.254 C 314 645.307, 310.577 633.792, 303.880 620.216 L 297.822 607.932 304.299 601.066 C 308.130 597.004, 312.150 591.410, 314.138 587.371 C 317.416 580.712, 317.500 580.230, 317.480 568.021 C 317.463 557.296, 317.128 554.671, 315.146 549.718 C 310.899 539.105, 302.285 530.594, 293.177 528.011 C 288.662 526.731, 279.377 525.989, 276 526.638 M 760.254 554.460 C 745.290 559.135, 734.633 572.842, 734.566 587.500 C 734.527 596.011, 735.671 598.561, 745.652 612.208 C 751.728 620.515, 753 622.912, 753 626.051 C 753 631.833, 749.516 635.262, 740.789 638.068 C 731.571 641.032, 727.087 644.930, 726.321 650.647 C 725.089 659.832, 732.248 664.772, 745.213 663.685 C 755.145 662.853, 763.581 658.579, 772.073 650.079 C 788.624 633.512, 789.251 616.534, 773.766 604.212 C 766.237 598.221, 763.591 593.699, 764.567 588.494 C 765.524 583.396, 768.100 580.671, 776.935 575.416 C 781.342 572.795, 785.282 569.677, 785.899 568.322 C 788.423 562.782, 786.490 557.339, 780.989 554.494 C 777.404 552.641, 766.138 552.622, 760.254 554.460 M 354.296 556.388 C 337.737 561.799, 324.927 583.379, 323.309 608.585 C 321.910 630.381, 332.624 652.269, 348.500 660.049 C 352.547 662.033, 355.034 662.500, 361.546 662.500 C 368.851 662.500, 370.302 662.149, 377.318 658.684 C 394.955 649.975, 405.152 633.061, 397.424 625.333 C 393.682 621.591, 388.510 622.445, 378.999 628.372 C 368.147 635.136, 364.780 635.757, 356.713 632.483 C 355.010 631.792, 352 627.128, 352 625.180 C 352 624.674, 354.587 623.751, 357.750 623.129 C 371.280 620.466, 384.906 610.546, 390.544 599.255 C 394.287 591.759, 395.132 580.252, 392.453 573.239 C 390.049 566.944, 384.019 560.688, 377.727 557.961 C 371.288 555.170, 360.283 554.431, 354.296 556.388 M 440.344 557.013 C 427.580 559.626, 415.444 572.250, 409.428 589.171 C 402.991 607.276, 403.381 630.499, 410.387 646.341 C 413.324 652.982, 420.864 661.380, 426.446 664.228 C 444.317 673.345, 472 657.812, 472 638.667 C 472 633.439, 469.304 629.445, 465.162 628.535 C 461.202 627.666, 458.419 629.038, 451.186 635.425 C 445.795 640.186, 444.295 641, 440.922 641 C 437.540 641, 436.682 640.531, 434.973 637.750 C 432.027 632.956, 430.913 627.891, 430.903 619.230 C 430.884 603.510, 439.275 585, 446.419 585 C 449.705 585, 450.999 587.592, 451.004 594.184 C 451.006 597.688, 451.672 600.589, 452.956 602.696 C 456.915 609.189, 466.510 607.817, 471.812 600 C 473.953 596.845, 474.148 595.661, 473.790 588 C 472.789 566.546, 458.488 553.297, 440.344 557.013 M 511.882 560.321 C 494.197 566.934, 482.984 587.804, 482.773 614.500 C 482.629 632.645, 487.318 646.716, 497.060 657.375 C 503.923 664.885, 509.452 667.428, 519 667.468 C 525.206 667.495, 527.471 667.023, 532.125 664.738 C 545.847 657.999, 554.082 642.913, 557.060 619.055 C 560.101 594.704, 550.335 569.889, 534.500 561.730 C 529.451 559.128, 517.125 558.360, 511.882 560.321 M 267 562.832 L 262.500 564.554 262.223 579.353 L 261.946 594.152 264.223 593.447 C 276.316 589.700, 286 579.710, 286 570.982 C 286 567.259, 283.677 562.474, 281.455 561.621 C 278.526 560.497, 271.578 561.079, 267 562.832 M 576.388 563.980 C 573.165 565.282, 570.132 569.737, 568.391 575.727 C 567.051 580.337, 566.915 585.235, 567.475 608.819 C 568.393 647.464, 569.855 657.108, 575.726 663.236 C 579.161 666.821, 583.750 666.923, 587.813 663.504 C 593.057 659.091, 594.117 654.580, 595.450 631 C 596.521 612.052, 596.935 608.966, 598.943 605 C 604.717 593.590, 612.917 589.560, 622.346 593.500 C 631.915 597.498, 642 592.799, 642 584.343 C 642 573.536, 632.787 566.044, 619.500 566.044 C 610.425 566.044, 605.919 568.120, 599.319 575.341 C 596.475 578.454, 593.889 581, 593.574 581 C 593.258 581, 593 580.040, 593 578.866 C 593 574.854, 590.629 568.815, 587.912 565.906 C 585.082 562.876, 580.865 562.171, 576.388 563.980 M 362 579.706 C 357.359 581.403, 352.529 588.838, 351.374 596.064 L 350.695 600.311 354.514 599.691 C 361.105 598.622, 368.954 594.165, 370.702 590.499 C 374.071 583.435, 369.001 577.147, 362 579.706 M 518.749 586.690 C 515.867 587.443, 512.245 594.961, 510.439 603.940 C 508.696 612.610, 509.194 621.365, 511.985 631.118 C 514.892 641.271, 521.398 644.881, 526.297 639.059 C 534.263 629.592, 533.422 597.268, 524.989 588.835 C 522.115 585.961, 521.865 585.875, 518.749 586.690 M 671.556 594.353 C 667.854 598.055, 666.512 606.575, 667.876 617.707 C 668.496 622.771, 669.539 628.171, 670.193 629.707 C 671.827 633.545, 675.029 637.004, 676.924 636.978 C 679.826 636.938, 686.495 633.342, 690.266 629.786 L 694 626.264 694 617.599 C 694 610.315, 693.605 608.181, 691.524 604.217 C 685.523 592.782, 677.225 588.684, 671.556 594.353" stroke="none" fill="#aaadad" fill-rule="evenodd"/><path d="M 469.944 333.341 C 469.700 333.559, 465.675 333.990, 461 334.299 C 452.551 334.857, 443.672 336.447, 441.589 337.775 C 440.990 338.157, 440.275 338.502, 440 338.541 C 434.570 339.321, 423.228 344.127, 421.888 346.217 C 421.552 346.741, 421.102 347.091, 420.888 346.993 C 420.082 346.624, 415 349.358, 415 350.161 C 415 350.622, 414.344 351, 413.541 351 C 409.772 351, 386.626 373.544, 382.835 380.907 C 382.101 382.333, 380.712 384.372, 379.750 385.439 C 378.788 386.505, 378 388.137, 378 389.066 C 378 389.995, 377.339 391.303, 376.532 391.973 C 375.725 392.644, 375.141 393.486, 375.234 393.846 C 375.328 394.206, 374.476 396.300, 373.341 398.500 C 372.206 400.700, 371.478 403.063, 371.722 403.750 C 371.967 404.438, 371.732 405, 371.200 405 C 370.668 405, 369.983 405.958, 369.676 407.130 C 369.257 408.732, 368.671 409.070, 367.310 408.494 C 363.312 406.801, 353.193 406.035, 340.687 406.476 C 325.039 407.029, 318.158 408.020, 311 410.754 C 310.175 411.069, 309.275 411.385, 309 411.456 C 303.207 412.951, 292.992 417.687, 291.765 419.446 C 291.361 420.026, 291.024 420.155, 291.015 419.734 C 291.007 419.313, 287.512 421.325, 283.250 424.206 C 274.921 429.836, 257 447.129, 257 449.537 C 257 450.341, 256.550 451, 256 451 C 255.450 451, 255 451.675, 255 452.500 C 255 453.325, 254.576 454, 254.058 454 C 253.539 454, 251.852 456.279, 250.308 459.064 C 247.540 464.056, 247.443 464.121, 243.500 463.598 C 234.713 462.431, 218.054 461.771, 216.330 462.521 C 215.324 462.959, 214.154 463.243, 213.731 463.153 C 212.210 462.826, 198.480 465.249, 196.018 466.279 C 192.814 467.619, 193.154 467.518, 188.750 468.439 C 186.688 468.870, 185 469.623, 185 470.111 C 185 470.600, 184.132 471, 183.071 471 C 182.011 471, 180.436 471.707, 179.571 472.571 C 178.707 473.436, 178 473.843, 178 473.476 C 178 472.833, 169.017 477.719, 168 478.915 C 167.725 479.239, 166.194 480.177, 164.598 481.002 C 163.002 481.826, 159.507 484.555, 156.831 487.067 C 154.156 489.578, 151.805 491.472, 151.608 491.275 C 150.526 490.192, 131.503 514.738, 130.786 518.142 C 130.629 518.889, 130.159 519.753, 129.743 520.063 C 129.327 520.373, 127.447 524.387, 125.566 528.983 C 123.684 533.579, 121.484 537.709, 120.675 538.162 C 119.867 538.614, 117.472 539.185, 115.353 539.430 C 113.234 539.674, 110.600 540.115, 109.500 540.409 C 108.400 540.703, 105.493 541.430, 103.039 542.024 C 100.586 542.618, 98.111 543.479, 97.539 543.937 C 96.968 544.395, 95.037 545.082, 93.250 545.464 C 91.462 545.846, 90 546.573, 90 547.079 C 90 547.586, 89.662 547.927, 89.250 547.839 C 88.176 547.607, 82.639 549.974, 82.020 550.928 C 81.734 551.370, 79.700 552.671, 77.500 553.820 C 75.300 554.968, 72.229 556.941, 70.677 558.204 C 69.124 559.467, 65.186 562.676, 61.927 565.337 C 58.667 567.997, 56 570.884, 56 571.753 C 56 572.622, 55.713 573.046, 55.363 572.696 C 54.516 571.850, 42.941 586.095, 43.603 587.167 C 43.886 587.625, 43.714 588, 43.220 588 C 42.255 588, 39.536 593.006, 39.825 594.250 C 39.921 594.663, 39.630 595, 39.178 595 C 37.253 595, 30.925 611.987, 28.022 624.948 C 25.976 634.081, 25.313 658.457, 27.081 659.550 C 27.604 659.873, 27.758 660.582, 27.422 661.126 C 26.054 663.340, 32.421 684.903, 36.687 692.500 C 37.922 694.700, 39.598 697.958, 40.411 699.739 C 45.264 710.374, 60.531 726.859, 73.500 735.468 C 83.945 742.401, 89.860 745.303, 100.097 748.517 C 104.719 749.969, 109.850 751.632, 111.500 752.214 C 115.513 753.630, 146.454 754.187, 151.500 752.935 C 153.700 752.389, 156.400 751.709, 157.500 751.423 C 158.600 751.137, 160.850 750.712, 162.500 750.478 C 164.150 750.244, 167.300 749.315, 169.500 748.414 C 171.700 747.512, 175.170 746.090, 177.211 745.253 L 180.922 743.731 185.711 748.268 C 192.561 754.756, 196.995 758.309, 197.030 757.339 C 197.047 756.878, 197.519 757.288, 198.080 758.250 C 198.641 759.212, 199.752 760, 200.550 760 C 201.347 760, 202 760.380, 202 760.845 C 202 761.309, 206.162 763.763, 211.250 766.297 C 224.040 772.668, 227.056 773.874, 229.169 773.467 C 230.176 773.273, 231 773.614, 231 774.224 C 231 774.834, 231.276 775.057, 231.613 774.720 C 231.951 774.383, 234.088 774.870, 236.363 775.803 C 239.779 777.204, 243.899 777.494, 260 777.466 C 280.179 777.430, 286.561 776.442, 298.245 771.547 C 300.305 770.683, 302.105 770.050, 302.245 770.140 C 302.385 770.229, 305.987 768.455, 310.250 766.196 C 318.582 761.782, 333.794 750.700, 334.676 748.403 C 335.436 746.422, 337.627 746.654, 344.457 749.436 C 347.733 750.770, 350.771 751.642, 351.207 751.372 C 351.643 751.103, 352 751.411, 352 752.058 C 352 752.741, 352.838 753.014, 354 752.710 C 355.100 752.423, 356 752.670, 356 753.260 C 356 753.850, 356.271 754.062, 356.603 753.731 C 356.934 753.399, 358.262 753.529, 359.554 754.020 C 360.845 754.511, 363.753 755.022, 366.015 755.156 C 368.277 755.289, 370.364 755.781, 370.653 756.248 C 370.942 756.715, 371.899 756.513, 372.781 755.799 C 373.983 754.825, 374.196 754.813, 373.633 755.750 C 373.088 756.657, 373.864 757, 376.462 757 C 379.438 757, 380.227 757.465, 381.133 759.750 C 384.240 767.591, 386.434 772, 387.230 772 C 387.718 772, 387.870 772.401, 387.567 772.892 C 386.984 773.834, 391.905 782.508, 396.576 788.772 C 400.973 794.669, 414.245 807.966, 415.166 807.398 C 415.624 807.114, 416 807.320, 416 807.854 C 416 809.389, 424.179 815.002, 425.401 814.306 C 426.005 813.961, 426.157 814.057, 425.738 814.519 C 424.857 815.488, 433.680 820.958, 436.167 820.983 C 437.083 820.992, 438.006 821.519, 438.217 822.152 C 438.429 822.786, 439.479 823.398, 440.551 823.511 C 441.623 823.624, 443.625 824.177, 445 824.739 C 446.375 825.301, 447.950 825.853, 448.500 825.965 C 449.050 826.078, 450.043 826.621, 450.706 827.171 C 451.370 827.722, 452.382 827.882, 452.956 827.527 C 453.530 827.172, 454 827.260, 454 827.723 C 454 828.185, 455.012 828.666, 456.250 828.792 C 460.055 829.177, 461.444 829.521, 462.930 830.448 C 465.056 831.775, 496.908 832.321, 498.431 831.057 C 499.120 830.485, 499.950 830.284, 500.275 830.609 C 501.016 831.349, 513.418 828.373, 517.651 826.439 C 519.384 825.648, 521.522 825, 522.401 825 C 523.281 825, 524 824.475, 524 823.833 C 524 823.192, 524.280 822.946, 524.622 823.288 C 525.252 823.919, 535.080 819.354, 536 818.004 C 536.275 817.600, 537.519 816.952, 538.765 816.563 C 540.010 816.174, 540.774 815.444, 540.463 814.939 C 540.151 814.435, 540.548 814.273, 541.344 814.579 C 542.179 814.899, 543.480 814.153, 544.416 812.817 C 545.308 811.543, 546.221 810.725, 546.445 811 C 547.913 812.807, 571 789.696, 571 786.420 C 571 785.639, 571.344 785, 571.764 785 C 572.184 785, 573.612 783.245, 574.938 781.101 C 577.175 777.481, 577.532 777.282, 579.924 778.330 C 581.341 778.951, 582.725 779.758, 583 780.122 C 584.111 781.595, 595.977 787.021, 603.321 789.414 C 614.505 793.059, 618.346 793.503, 638.500 793.478 C 659.803 793.451, 664.382 792.465, 682.250 784.052 C 685.962 782.305, 689 780.426, 689 779.878 C 689 779.330, 689.403 779.131, 689.896 779.436 C 690.788 779.987, 698.816 774.911, 704.481 770.213 L 707.462 767.741 709.205 771.620 C 710.163 773.754, 710.959 776.063, 710.974 776.750 C 710.988 777.438, 711.450 778, 712 778 C 712.550 778, 712.922 778.337, 712.827 778.750 C 712.521 780.080, 716.187 788, 717.109 788 C 717.599 788, 718 788.675, 718 789.500 C 718 790.325, 718.477 791, 719.059 791 C 719.641 791, 719.842 791.446, 719.505 791.992 C 719.168 792.537, 720.021 794.112, 721.401 795.492 C 722.780 796.871, 723.639 798, 723.309 798 C 722.978 798, 723.922 799.125, 725.405 800.500 C 726.889 801.875, 727.774 803, 727.373 803 C 726.971 803, 730.224 806.487, 734.603 810.750 C 742.496 818.435, 747 822.364, 747 821.566 C 747 821.338, 748.040 822.078, 749.312 823.211 C 752.740 826.264, 766.610 834.198, 769 834.473 C 769.275 834.505, 770.063 834.888, 770.750 835.324 C 771.437 835.761, 772.450 835.840, 773 835.500 C 773.550 835.160, 774 835.297, 774 835.804 C 774 836.947, 782.425 839.562, 790.760 841.007 C 798.061 842.272, 822.810 842.197, 831.500 840.884 C 840.853 839.470, 848.582 836.756, 861.750 830.262 C 864.637 828.838, 867 827.297, 867 826.836 C 867 826.376, 867.653 826, 868.450 826 C 869.248 826, 870.359 825.212, 870.920 824.250 C 871.481 823.288, 871.953 822.867, 871.970 823.316 C 872.016 824.573, 884 814.860, 884 813.565 C 884 812.938, 885.442 812.316, 887.204 812.181 C 891.080 811.886, 901.075 809.097, 902.592 807.888 C 903.193 807.409, 903.970 807.303, 904.319 807.652 C 905.147 808.480, 928 797.072, 928 795.830 C 928 795.309, 928.453 795.162, 929.007 795.504 C 929.561 795.847, 930.284 795.423, 930.614 794.563 C 930.944 793.704, 931.663 793, 932.212 793 C 933.938 793, 948 780.632, 948 779.114 C 948 778.318, 948.286 777.952, 948.635 778.301 C 948.984 778.650, 950.582 777.263, 952.187 775.218 C 953.792 773.173, 955.913 770.475, 956.900 769.222 C 958.128 767.664, 960.401 766.657, 964.098 766.034 C 967.069 765.533, 971.750 764.399, 974.500 763.515 C 977.250 762.631, 980.625 761.677, 982 761.395 C 983.375 761.113, 984.650 760.459, 984.833 759.941 C 985.017 759.424, 985.822 759, 986.623 759 C 988.411 759, 996.270 755.089, 997.112 753.780 C 997.448 753.257, 997.970 752.980, 998.271 753.165 C 999.417 753.866, 1012.031 744.662, 1019.746 737.494 C 1024.172 733.383, 1029.501 727.427, 1031.588 724.260 C 1033.676 721.092, 1035.747 718.350, 1036.192 718.167 C 1036.636 717.983, 1037 717.251, 1037 716.539 C 1037 715.827, 1037.670 714.689, 1038.489 714.009 C 1039.308 713.329, 1039.731 712.374, 1039.430 711.887 C 1039.129 711.399, 1039.434 711, 1040.108 711 C 1040.782 711, 1041.047 710.713, 1040.696 710.363 C 1040.346 710.012, 1040.851 708.550, 1041.820 707.113 C 1042.788 705.676, 1044.586 701.990, 1045.814 698.922 C 1047.904 693.705, 1048.317 692.305, 1049.599 686.095 C 1049.872 684.773, 1050.446 682.973, 1050.874 682.095 C 1051.303 681.218, 1051.809 678.925, 1051.999 677 C 1052.594 670.970, 1052.489 644.668, 1051.855 641 C 1050.514 633.236, 1046.578 620.713, 1044.705 618.250 C 1044.183 617.563, 1044.105 617, 1044.533 617 C 1044.960 617, 1044.597 616.212, 1043.726 615.250 C 1042.855 614.288, 1042.157 613.143, 1042.175 612.707 C 1042.240 611.106, 1039.731 606, 1038.879 606 C 1038.395 606, 1038.112 605.663, 1038.248 605.250 C 1038.642 604.061, 1034.179 597, 1033.034 597 C 1032.465 597, 1032.113 596.593, 1032.250 596.097 C 1032.516 595.134, 1021.166 581.003, 1020.120 580.995 C 1019.779 580.993, 1017.955 579.530, 1016.066 577.745 C 1010.689 572.663, 1006.792 570.011, 1005.696 570.688 C 1005.143 571.029, 1004.973 570.853, 1005.317 570.297 C 1005.661 569.740, 1004.268 568.433, 1002.221 567.392 C 1000.175 566.351, 998.275 565.222, 998 564.881 C 997.016 563.663, 987 558.982, 986.985 559.733 C 986.976 560.155, 986.639 560.046, 986.235 559.492 C 985.140 557.990, 975.247 554.729, 974.042 555.474 C 973.469 555.828, 973 555.703, 973 555.196 C 973 553.556, 957.825 551.517, 945.250 551.467 C 938.513 551.440, 933 551.662, 932.999 551.959 C 932.999 552.257, 931.086 552.557, 928.749 552.627 C 926.412 552.697, 922.803 553.094, 920.730 553.511 C 917.515 554.157, 917.050 554.034, 917.571 552.675 C 917.907 551.799, 917.649 549.467, 916.998 547.494 C 916.346 545.520, 915.666 542.914, 915.486 541.702 C 914.535 535.315, 909.302 521.274, 905.908 516 C 905.376 515.175, 904.678 513.712, 904.354 512.750 C 904.031 511.788, 903.369 511, 902.883 511 C 902.398 511, 902 510.502, 902 509.894 C 902 508.821, 897.520 502.569, 893.837 498.500 C 892.841 497.400, 890.151 494.363, 887.859 491.750 C 885.568 489.137, 883.359 487, 882.952 487 C 882.545 487, 880.800 485.682, 879.075 484.070 C 875.455 480.688, 864.336 473.225, 858.500 470.259 C 852.366 467.141, 836.374 462.032, 829.584 461.020 C 821.423 459.803, 791.058 460.302, 790.177 461.667 C 789.805 462.244, 788.697 462.593, 787.715 462.442 C 785.413 462.087, 772.727 466.068, 771.765 467.447 C 771.361 468.026, 771.024 468.107, 771.015 467.628 C 771.007 467.148, 770.325 467.315, 769.500 468 C 768.675 468.685, 768 468.953, 768 468.597 C 768 468.240, 766.672 468.635, 765.050 469.474 C 760.468 471.844, 759.674 471.477, 760.230 467.250 C 760.502 465.188, 760.325 461.025, 759.838 458 C 759.351 454.975, 758.972 451.235, 758.996 449.688 C 759.021 448.141, 758.716 446.349, 758.318 445.705 C 757.920 445.062, 757.538 443.852, 757.469 443.018 C 757.149 439.170, 751.062 422.780, 749.576 421.765 C 748.984 421.361, 748.849 421.024, 749.276 421.015 C 751.366 420.974, 738.519 401.456, 733.772 397.461 C 732.163 396.108, 731.194 395, 731.619 395 C 732.045 395, 730.856 393.415, 728.978 391.477 C 727.099 389.539, 724.992 388.173, 724.293 388.441 C 723.595 388.709, 723.131 388.555, 723.262 388.099 C 723.666 386.692, 715.942 380.195, 708.570 375.740 C 704.710 373.408, 701.315 371.480, 701.026 371.455 C 700.737 371.430, 698.700 370.472, 696.500 369.327 C 694.300 368.181, 690.925 366.912, 689 366.507 C 687.075 366.101, 685.050 365.413, 684.500 364.979 C 683.950 364.544, 682.150 363.964, 680.500 363.690 C 678.850 363.417, 674.125 362.475, 670 361.597 C 661.567 359.803, 640.488 359.402, 639.490 361.016 C 639.144 361.575, 638.555 361.847, 638.181 361.620 C 636.027 360.315, 610 367.240, 610 369.118 C 610 369.603, 609.663 369.908, 609.250 369.795 C 607.586 369.340, 601.032 372.241, 598.573 374.520 C 597.132 375.856, 595.733 376.951, 595.466 376.954 C 594.102 376.969, 589 380.182, 589 381.026 C 589 381.562, 588.358 382, 587.573 382 C 586.787 382, 585.260 383.125, 584.179 384.500 C 583.097 385.875, 581.808 387, 581.314 387 C 580.058 387, 571.838 395.505, 572.477 396.144 C 572.765 396.432, 572.366 396.667, 571.592 396.667 C 570.817 396.667, 569.939 395.446, 569.641 393.954 C 569.342 392.462, 568.488 390.624, 567.743 389.871 C 566.998 389.117, 566.125 387.805, 565.804 386.956 C 563.428 380.668, 541.908 356, 538.799 356 C 538.214 356, 537.007 355.181, 536.117 354.181 C 535.228 353.180, 533.825 352.064, 533 351.702 C 532.175 351.339, 529.700 349.918, 527.500 348.543 C 514.432 340.379, 502.485 336.253, 487 334.556 C 476.561 333.411, 470.361 332.970, 469.944 333.341 M 703.723 519.121 C 697.827 521.380, 695.469 530.515, 694.395 555.250 C 694.019 563.913, 693.411 571, 693.043 571 C 692.675 571, 691.052 569.609, 689.437 567.908 C 684.751 562.976, 679.339 560.660, 672.500 560.660 C 658.929 560.660, 650.485 569.804, 644.859 590.590 C 641.957 601.312, 641.693 622.455, 644.342 632 C 649.097 649.137, 658.844 662.464, 668.377 664.865 C 677.558 667.177, 689.643 662.523, 695.086 654.580 L 697.407 651.193 699.145 655.076 C 702.053 661.571, 710.476 664.956, 716.160 661.914 C 717.275 661.317, 719.135 658.730, 720.292 656.164 C 722.269 651.782, 722.371 650.198, 721.986 630 C 721.409 599.792, 721.453 590.188, 722.315 559.500 C 723.006 534.910, 722.914 532.061, 721.287 527.581 C 720.304 524.876, 718.336 521.806, 716.913 520.758 C 713.779 518.450, 707.506 517.672, 703.723 519.121 M 270.785 526.978 C 254.639 530.383, 239.845 536.548, 234.839 541.957 C 231.043 546.059, 230.804 550.241, 231.204 605.500 C 231.521 649.232, 231.717 653.962, 233.412 658.701 C 236.280 666.720, 239.591 670.087, 245.235 670.723 C 249.587 671.214, 250.207 670.993, 253.370 667.830 C 257.794 663.406, 260.650 654.263, 261.975 640.287 C 262.527 634.457, 263.105 629.561, 263.260 629.407 C 263.796 628.871, 273.169 625, 273.931 625 C 274.872 625, 276.837 629.507, 281.560 642.500 C 286.038 654.820, 291.016 663.994, 295.075 667.410 C 298.669 670.433, 306.140 670.991, 309.694 668.502 C 315.677 664.311, 316.456 650.519, 311.549 635.658 C 309.228 628.628, 303.329 615.702, 300.033 610.424 C 298.927 608.654, 299.450 607.761, 304.901 602.103 C 308.689 598.171, 312.392 592.963, 314.656 588.382 C 317.922 581.774, 318.354 579.964, 318.780 571.118 C 319.323 559.845, 318.108 553.255, 313.963 545 C 308.680 534.477, 299.720 527.972, 287.862 526.047 C 280.183 524.801, 281.432 524.733, 270.785 526.978 M 760.286 553.451 C 750.008 556.663, 740.808 564.830, 736.210 574.825 C 734.211 579.168, 733.587 582.143, 733.549 587.500 C 733.489 596.021, 735.080 599.560, 744.996 612.972 C 750.795 620.814, 752 623.101, 752 626.267 C 752 631.075, 749.208 634.045, 742.457 636.421 C 728.144 641.458, 725.500 644.010, 725.500 652.793 C 725.500 657.430, 725.882 658.502, 728.266 660.552 C 735.023 666.365, 747.905 666.308, 759.858 660.413 C 777.573 651.676, 788.556 633.037, 784.976 617.785 C 783.869 613.071, 782.783 611.581, 774.930 604 C 765.508 594.905, 764.115 592.211, 765.953 586.642 C 767.078 583.233, 769.025 581.632, 781.790 573.613 C 784.150 572.131, 786.512 569.782, 787.040 568.394 C 789.343 562.338, 787.108 556.228, 781.643 553.635 C 777.460 551.650, 766.354 551.554, 760.286 553.451 M 354.324 555.380 C 339.253 560.308, 327.685 576.569, 323.409 598.838 C 321.472 608.927, 321.644 618.289, 323.932 627.234 C 330.910 654.518, 351.044 669.109, 371.946 662.030 C 387.726 656.686, 400.914 642.896, 400.978 631.673 C 400.995 628.724, 400.301 627.147, 397.952 624.798 C 395.242 622.088, 394.412 621.806, 390.462 622.251 C 387.563 622.578, 383.846 624.167, 379.760 626.826 C 367.356 634.899, 361.521 635.674, 355.850 630.003 C 352.282 626.436, 352.260 625.181, 355.750 624.509 C 372.615 621.262, 385.260 612.344, 391.721 599.139 C 395.685 591.035, 396.148 579.188, 392.787 571.846 C 387.883 561.134, 378.243 554.938, 365.555 554.344 C 361.387 554.149, 356.791 554.573, 354.324 555.380 M 441.361 556.067 C 426.539 558.049, 413.059 572.971, 406.931 594.179 C 403.999 604.329, 403.240 623.818, 405.384 633.906 C 410.738 659.101, 427.730 672.245, 447.572 666.541 C 462.230 662.328, 472.922 650.664, 472.978 638.827 C 473.015 630.979, 466.239 625.438, 459.663 627.938 C 458.378 628.427, 454.490 631.300, 451.024 634.323 C 443.274 641.082, 440.627 641.781, 436.900 638.054 C 433.406 634.560, 431.761 628.469, 431.755 619 C 431.746 606.246, 439.108 587.766, 444.763 586.345 C 448.467 585.415, 449.744 587.467, 450.172 595.041 C 450.511 601.033, 450.955 602.409, 453.306 604.761 C 458.952 610.407, 469.614 607.548, 473.507 599.345 C 474.908 596.391, 475.149 594.030, 474.708 587.575 C 474.030 577.659, 472.108 571.992, 467.239 565.558 C 461.196 557.572, 452.890 554.526, 441.361 556.067 M 513.500 558.880 C 501.521 562.043, 490.716 573.923, 485.651 589.500 C 479.438 608.605, 480.859 632.574, 489.122 648.077 C 493.097 655.535, 500.422 663.053, 506.688 666.106 C 513.718 669.530, 524.411 669.395, 532.220 665.784 C 542.777 660.901, 550.840 649.954, 554.920 634.965 C 563.712 602.664, 555.174 571.331, 534.722 560.848 C 530.144 558.501, 518.887 557.457, 513.500 558.880 M 267.250 563.662 L 263 565.167 263 579.059 L 263 592.950 265.507 591.997 C 280.654 586.238, 289.273 572.701, 282.927 564.635 C 281.194 562.431, 280.090 562.013, 276.177 562.079 C 273.605 562.122, 269.587 562.835, 267.250 563.662 M 576.500 562.954 C 573.610 564.149, 570.363 567.933, 568.298 572.514 C 566.676 576.111, 566.527 579.381, 566.779 606 C 567.161 646.410, 568.693 657.248, 574.971 663.969 C 578.432 667.674, 584.275 668.145, 588.226 665.037 C 593.537 660.859, 595.142 654.384, 596.157 633.051 C 597.199 611.162, 597.700 608.442, 601.913 601.799 C 607.172 593.505, 612.858 591.223, 621.063 594.112 C 627.905 596.522, 632.103 596.498, 636.955 594.023 C 641.512 591.698, 643.574 586.951, 642.532 581.185 C 640.769 571.437, 631.789 565, 619.953 565 C 609.238 565, 602.805 568.144, 596.932 576.253 C 594.799 579.196, 593.998 579.782, 593.994 578.400 C 593.971 570.429, 587.670 561.953, 581.850 562.063 C 580.008 562.098, 577.600 562.499, 576.500 562.954 M 360.387 581.906 C 357.152 583.878, 353.510 590.198, 352.395 595.774 C 351.606 599.718, 352.613 599.865, 360.421 596.944 C 369.328 593.611, 373.104 587.450, 369.443 582.223 C 367.538 579.502, 364.503 579.396, 360.387 581.906 M 517.017 589.829 C 513.903 592.943, 512.538 596.870, 510.810 607.685 C 508.767 620.468, 513.899 639.184, 519.857 640.679 C 523.011 641.471, 524.937 640.208, 527.187 635.872 C 530.016 630.420, 531.282 621.416, 530.683 611 C 530.075 600.416, 528.051 593.426, 524.478 589.571 C 521.459 586.313, 520.500 586.346, 517.017 589.829 M 672.080 595.145 C 668.725 598.746, 667.534 607.112, 668.856 617.797 C 670.090 627.768, 672.766 634.474, 675.910 635.471 C 678.718 636.363, 684.916 633.471, 689.250 629.248 C 692.991 625.603, 693 625.574, 693 617.264 C 693 610.419, 692.566 608.076, 690.564 604.127 C 685.569 594.268, 676.845 590.030, 672.080 595.145 M 868.263 611.397 C 858.734 615.944, 849.141 626.736, 845.469 637.043 C 844.596 639.494, 843.716 644.243, 843.515 647.596 C 843.158 653.520, 842.982 653.859, 837.277 659.596 C 828.315 668.610, 821.638 682.598, 820.331 695.103 L 819.724 700.918 813.782 695.541 C 790.402 674.383, 758.914 675.464, 747.597 697.813 C 739.962 712.890, 740.281 728.963, 748.473 742 C 755.087 752.524, 770.093 764.632, 790 775.505 C 809.515 786.164, 854.567 805.195, 855.869 803.328 C 870.956 781.692, 886.850 753.628, 893.344 737.160 L 895.056 732.821 907.076 744.410 L 919.097 755.999 924.799 752.365 C 943.918 740.176, 974.043 715.399, 985.584 702.369 C 1015.160 668.981, 1019.673 644.090, 999.839 623.769 C 996.373 620.218, 991.913 616.916, 988.339 615.254 C 983.244 612.886, 981.290 612.547, 973 612.587 C 965.497 612.624, 962.348 613.109, 958.021 614.893 C 946.756 619.536, 935.608 629.440, 928.302 641.294 L 925.347 646.088 921.514 638.294 C 916.553 628.205, 905.007 616.270, 896.372 612.304 C 887.689 608.315, 875.543 607.924, 868.263 611.397" stroke="none" fill="#fafdfd" fill-rule="evenodd"/><path d="M 722.370 547 C 722.370 552.775, 722.535 555.138, 722.737 552.250 C 722.939 549.362, 722.939 544.638, 722.737 541.750 C 722.535 538.862, 722.370 541.225, 722.370 547 M 231.374 566.500 C 231.376 572.550, 231.541 574.896, 231.740 571.713 C 231.939 568.531, 231.937 563.581, 231.736 560.713 C 231.535 557.846, 231.372 560.450, 231.374 566.500 M 262.160 583.750 C 262.072 589.388, 262.337 594.001, 262.750 594.002 C 263.163 594.003, 263.377 590.741, 263.226 586.752 C 262.756 574.297, 262.327 573.087, 262.160 583.750 M 693.343 615.500 C 693.346 619.900, 693.522 621.576, 693.733 619.224 C 693.945 616.872, 693.942 613.272, 693.727 611.224 C 693.512 609.176, 693.339 611.100, 693.343 615.500 M 231.402 629 C 231.402 637.525, 231.556 641.013, 231.743 636.750 C 231.931 632.487, 231.931 625.513, 231.743 621.250 C 231.556 616.987, 231.402 620.475, 231.402 629 M 595.328 636.500 C 595.333 640.350, 595.513 641.802, 595.730 639.728 C 595.946 637.653, 595.943 634.503, 595.722 632.728 C 595.501 630.952, 595.324 632.650, 595.328 636.500" stroke="none" fill="#aeb7c2" fill-rule="evenodd"/><path d="M 231.370 596 C 231.370 601.775, 231.535 604.138, 231.737 601.250 C 231.939 598.362, 231.939 593.638, 231.737 590.750 C 231.535 587.862, 231.370 590.225, 231.370 596 M 774.750 680.723 C 776.538 680.945, 779.462 680.945, 781.250 680.723 C 783.038 680.502, 781.575 680.320, 778 680.320 C 774.425 680.320, 772.962 680.502, 774.750 680.723 M 978.469 709.250 L 972.500 715.500 978.750 709.531 C 984.556 703.987, 985.458 703, 984.719 703 C 984.564 703, 981.751 705.813, 978.469 709.250 M 894.399 733.250 C 894.003 733.938, 894.066 734.148, 894.539 733.717 C 895.012 733.287, 899.921 737.337, 905.449 742.717 L 915.500 752.500 905.519 742.250 C 900.029 736.612, 895.443 732, 895.328 732 C 895.212 732, 894.794 732.563, 894.399 733.250" stroke="none" fill="#fbfbfb" fill-rule="evenodd"/></svg>