<?xml version="1.0" encoding="UTF-8" standalone="no"?>
<!-- Created with Inkscape (http://www.inkscape.org/) -->

<svg
   width="200mm"
   height="200mm"
   viewBox="0 0 200 200"
   version="1.1"
   id="svg5"
   inkscape:version="1.2.2 (732a01da63, 2022-12-09)"
   sodipodi:docname="cat.svg"
   xmlns:inkscape="http://www.inkscape.org/namespaces/inkscape"
   xmlns:sodipodi="http://sodipodi.sourceforge.net/DTD/sodipodi-0.dtd"
   xmlns="http://www.w3.org/2000/svg"
   xmlns:svg="http://www.w3.org/2000/svg">
  <sodipodi:namedview
     id="namedview7"
     pagecolor="#ffffff"
     bordercolor="#000000"
     borderopacity="0.25"
     inkscape:showpageshadow="2"
     inkscape:pageopacity="0.0"
     inkscape:pagecheckerboard="0"
     inkscape:deskcolor="#d1d1d1"
     inkscape:document-units="mm"
     showgrid="false"
     inkscape:zoom="0.51276154"
     inkscape:cx="269.13095"
     inkscape:cy="415.39777"
     inkscape:window-width="1920"
     inkscape:window-height="986"
     inkscape:window-x="-11"
     inkscape:window-y="-11"
     inkscape:window-maximized="1"
     inkscape:current-layer="layer1" />
  <defs
     id="defs2">
    <inkscape:path-effect
       effect="spiro"
       id="path-effect83838"
       is_visible="true"
       lpeversion="1" />
    <inkscape:path-effect
       effect="spiro"
       id="path-effect83780"
       is_visible="true"
       lpeversion="1" />
    <inkscape:path-effect
       effect="spiro"
       id="path-effect81594"
       is_visible="true"
       lpeversion="1" />
    <inkscape:path-effect
       effect="spiro"
       id="path-effect79343"
       is_visible="true"
       lpeversion="1" />
    <inkscape:path-effect
       effect="spiro"
       id="path-effect74600"
       is_visible="true"
       lpeversion="1" />
    <inkscape:path-effect
       effect="spiro"
       id="path-effect74542"
       is_visible="true"
       lpeversion="1" />
    <inkscape:path-effect
       effect="spiro"
       id="path-effect71094"
       is_visible="true"
       lpeversion="1" />
    <inkscape:path-effect
       effect="spiro"
       id="path-effect71090"
       is_visible="true"
       lpeversion="1" />
    <inkscape:path-effect
       effect="spiro"
       id="path-effect69634"
       is_visible="true"
       lpeversion="1" />
    <inkscape:path-effect
       effect="spiro"
       id="path-effect69630"
       is_visible="true"
       lpeversion="1" />
    <inkscape:path-effect
       effect="spiro"
       id="path-effect68174"
       is_visible="true"
       lpeversion="1" />
    <inkscape:path-effect
       effect="spiro"
       id="path-effect68032"
       is_visible="true"
       lpeversion="1" />
    <inkscape:path-effect
       effect="spiro"
       id="path-effect64206"
       is_visible="true"
       lpeversion="1" />
    <inkscape:path-effect
       effect="spiro"
       id="path-effect64010"
       is_visible="true"
       lpeversion="1" />
    <inkscape:path-effect
       effect="spiro"
       id="path-effect63254"
       is_visible="true"
       lpeversion="1" />
    <inkscape:path-effect
       effect="spiro"
       id="path-effect63250"
       is_visible="true"
       lpeversion="1" />
    <inkscape:path-effect
       effect="spiro"
       id="path-effect63246"
       is_visible="true"
       lpeversion="1" />
    <inkscape:path-effect
       effect="spiro"
       id="path-effect62516"
       is_visible="true"
       lpeversion="1" />
    <inkscape:path-effect
       effect="spiro"
       id="path-effect62026"
       is_visible="true"
       lpeversion="1" />
    <inkscape:path-effect
       effect="spiro"
       id="path-effect62022"
       is_visible="true"
       lpeversion="1" />
    <inkscape:path-effect
       effect="spiro"
       id="path-effect61292"
       is_visible="true"
       lpeversion="1" />
    <inkscape:path-effect
       effect="spiro"
       id="path-effect61288"
       is_visible="true"
       lpeversion="1" />
    <inkscape:path-effect
       effect="spiro"
       id="path-effect59106"
       is_visible="true"
       lpeversion="1" />
    <inkscape:path-effect
       effect="spiro"
       id="path-effect59102"
       is_visible="true"
       lpeversion="1" />
    <inkscape:path-effect
       effect="spiro"
       id="path-effect58277"
       is_visible="true"
       lpeversion="1" />
    <inkscape:path-effect
       effect="spiro"
       id="path-effect56821"
       is_visible="true"
       lpeversion="1" />
    <inkscape:path-effect
       effect="spiro"
       id="path-effect56748"
       is_visible="true"
       lpeversion="1" />
    <inkscape:path-effect
       effect="spiro"
       id="path-effect49940"
       is_visible="true"
       lpeversion="1" />
    <inkscape:path-effect
       effect="spiro"
       id="path-effect44621"
       is_visible="true"
       lpeversion="1" />
    <inkscape:path-effect
       effect="spiro"
       id="path-effect38083"
       is_visible="true"
       lpeversion="1" />
    <inkscape:path-effect
       effect="spiro"
       id="path-effect33074"
       is_visible="true"
       lpeversion="1" />
    <inkscape:path-effect
       effect="spiro"
       id="path-effect27984"
       is_visible="true"
       lpeversion="1" />
    <inkscape:path-effect
       effect="spiro"
       id="path-effect26872"
       is_visible="true"
       lpeversion="1" />
    <inkscape:path-effect
       effect="spiro"
       id="path-effect20980"
       is_visible="true"
       lpeversion="1" />
    <inkscape:path-effect
       effect="spiro"
       id="path-effect16764"
       is_visible="true"
       lpeversion="1" />
    <inkscape:path-effect
       effect="spiro"
       id="path-effect20980-1"
       is_visible="true"
       lpeversion="1" />
    <inkscape:path-effect
       effect="spiro"
       id="path-effect44621-4"
       is_visible="true"
       lpeversion="1" />
    <inkscape:path-effect
       effect="spiro"
       id="path-effect58277-2"
       is_visible="true"
       lpeversion="1" />
    <inkscape:path-effect
       effect="spiro"
       id="path-effect62022-9"
       is_visible="true"
       lpeversion="1" />
  </defs>
  <g
     inkscape:label="Layer 1"
     inkscape:groupmode="layer"
     id="layer1">
    <g
       id="g83050"
       transform="matrix(1.0869565,0,0,1,-1.4911868,0)" />
    <g
       id="g86741">
      <path
         style="fill:#fff3df;fill-opacity:1;stroke-width:0.275847"
         d="m 52.841948,176.59459 c -9.774941,0.67978 -19.771609,-2.8367 -26.968271,-9.48648 -3.740992,-3.45671 -6.736673,-7.71603 -8.725029,-12.40541 1.988331,0.46424 3.971458,0.95077 5.948883,1.45946 0.926651,0.23838 1.85205,0.48163 2.776146,0.72973 -4.165958,-1.64544 -7.399029,-5.4697 -8.328437,-9.85135 -0.473895,-2.23416 -0.378109,-4.56444 0.06922,-6.80407 0.447329,-2.23963 1.239059,-4.39738 2.150461,-6.49151 1.822803,-4.18827 4.146618,-8.19421 5.315572,-12.60983 0.973567,-3.67756 1.110191,-7.57409 0.396591,-11.31081 3.69204,0.74206 7.167379,2.53256 9.914806,5.10811 4.518676,4.23599 6.931478,10.61785 6.345476,16.78378 0.873764,-1.57953 2.102621,-2.96131 3.569329,-4.01351 1.633007,-1.1715 3.55919,-1.93097 5.552293,-2.18919 -1.312432,2.18243 -2.378897,4.51266 -3.17274,6.93243 -1.769372,5.39336 -2.160612,11.23268 -1.126547,16.81387 1.034065,5.5812 3.491305,10.89276 7.075433,15.29424 z"
         id="path79341"
         inkscape:path-effect="#path-effect79343"
         inkscape:original-d="m 52.841948,176.59459 c 0,0 -17.978561,-6.32406 -26.968271,-9.48648 -8.989711,-3.16243 -8.725029,-12.40541 -8.725029,-12.40541 0,0 3.96621,0.97324 5.948883,1.45946 1.982674,0.48622 2.776146,0.72973 2.776146,0.72973 0,0 -5.552003,-6.5673 -8.328437,-9.85135 -2.776433,-3.28405 5.023789,-17.27001 7.535253,-25.90541 2.511463,-8.6354 0.396591,-11.31081 0.396591,-11.31081 0,0 6.61016,3.40567 9.914806,5.10811 3.304648,1.70244 6.345476,16.78378 6.345476,16.78378 0,0 2.379841,-2.67541 3.569329,-4.01351 1.189489,-1.3381 5.552293,-2.18919 5.552293,-2.18919 0,0 -2.114873,4.62189 -3.17274,6.93243 -1.057864,2.31055 5.948886,32.10811 5.948886,32.10811 0,0 -0.793186,12.04054 -0.793186,12.04054 z" />
      <path
         style="fill:#ffbf52;fill-opacity:1;stroke-width:0.275847"
         d="m 51.090012,176.21292 c -1.057004,-2.94013 -1.673575,-6.03816 -1.822815,-9.15895 -0.121811,-2.54721 0.06698,-5.10912 0.560865,-7.61095 -1.058437,-2.73698 -1.948705,-5.53898 -2.664113,-8.38495 -0.375538,-1.49393 -0.702937,-2.99996 -0.981517,-4.51497 -3.714346,0.065 -7.404023,1.1965 -10.516238,3.22498 -3.713828,2.42059 -6.577806,6.11864 -7.992343,10.31994 -1.046499,-0.11021 -2.081779,-0.32668 -3.084763,-0.645 -2.70845,-0.8596 -5.17235,-2.47596 -7.039474,-4.61803 2.628089,6.50751 7.30992,12.16794 13.209002,15.96996 5.992074,3.86195 13.212111,5.78597 20.331396,5.41797 z"
         id="path81592"
         inkscape:path-effect="#path-effect81594"
         inkscape:original-d="m 51.090012,176.21292 c 0,0 -1.214923,-6.1057 -1.822815,-9.15895 -0.607895,-3.05324 0.560865,-7.61095 0.560865,-7.61095 0,0 -1.775788,-5.5897 -2.664113,-8.38495 -0.888327,-2.79525 -0.981517,-4.51497 -0.981517,-4.51497 0,0 -7.010538,2.15025 -10.516238,3.22498 -3.505701,1.07473 -7.992343,10.31994 -7.992343,10.31994 0,0 -2.056221,-0.42973 -3.084763,-0.645 -1.028543,-0.21526 -7.039474,-4.61803 -7.039474,-4.61803 0,0 9.049531,11.49825 13.209002,15.96996 4.159468,4.47171 20.331396,5.41797 20.331396,5.41797 z"
         sodipodi:nodetypes="cscscscscsc" />
      <path
         style="fill:#ffb230;fill-opacity:1;stroke-width:0.264583"
         d="m 39.222973,174.49662 c 1.290122,0.0349 2.585195,-0.11933 3.83108,-0.45608 0.62251,-0.16826 1.232761,-0.38185 1.824326,-0.63852 -0.281542,-3.67639 -0.524803,-7.35571 -0.729732,-11.03716 -0.289226,-5.19582 -0.502094,-10.39589 -0.638511,-15.59797 l 2.736485,-0.0912 2.097974,8.66554 c -1.160197,2.95819 -1.78149,6.12678 -1.824326,9.30406 -0.05235,3.8832 0.763816,7.7757 2.371621,11.31081 l -1.003376,0.45608 c -1.500854,0.0233 -3.004371,-0.13016 -4.469595,-0.45608 -1.448751,-0.32225 -2.859929,-0.8131 -4.195946,-1.45946 z"
         id="path83778"
         inkscape:path-effect="#path-effect83780"
         inkscape:original-d="m 39.222973,174.49662 c 0,0 2.55432,-0.30379 3.83108,-0.45608 1.276763,-0.15229 1.824326,-0.63852 1.824326,-0.63852 0,0 -0.486222,-7.35784 -0.729732,-11.03716 -0.243506,-3.67931 -0.638511,-15.59797 -0.638511,-15.59797 0,0 2.736485,-0.0912 2.736485,-0.0912 0,0 2.097974,8.66554 2.097974,8.66554 0,0 -1.215951,6.20297 -1.824326,9.30406 -0.608372,3.10109 2.371621,11.31081 2.371621,11.31081 0,0 -1.003376,0.45608 -1.003376,0.45608 0,0 -2.979465,-0.30379 -4.469595,-0.45608 -1.490128,-0.15229 -4.195946,-1.45946 -4.195946,-1.45946 z" />
      <path
         style="fill:#eed5ab;fill-opacity:1;stroke-width:0.264583"
         d="m 43.464526,143.52871 c 0.01414,-1.15574 0.183352,-2.30948 0.501691,-3.4206 0.540635,-1.88701 1.515566,-3.64818 2.827703,-5.10811 -0.451996,2.00786 -0.727055,4.05552 -0.820947,6.11148 -0.08405,1.84052 -0.02299,3.68764 0.182434,5.51859 l -2.645271,0.0912 z"
         id="path83836"
         inkscape:path-effect="#path-effect83838"
         inkscape:original-d="m 43.464526,143.52871 c 0,0 0.410737,-1.29196 0.501691,-3.4206 C 44.057168,137.97946 46.79392,135 46.79392,135 c 0,0 -0.547034,4.07459 -0.820947,6.11148 -0.273913,2.0369 0.182434,5.51859 0.182434,5.51859 l -2.645271,0.0912 z"
         sodipodi:nodetypes="cscsccc" />
      <path
         style="fill:#fff3df;fill-opacity:1;stroke-width:0.539481"
         d="m 74.427314,107.83782 c -1.332448,4.71696 -2.336184,9.52674 -3.001522,14.38292 -0.51928,3.79013 -0.832552,7.60848 -0.937972,11.43256 -4.940754,1.35536 -9.548795,3.90718 -13.319238,7.37587 -5.183479,4.76864 -8.737832,11.27697 -9.947938,18.21556 -1.210106,6.93859 -0.06872,14.26587 3.194519,20.50764 17.220096,4.68823 35.055069,7.11271 52.901777,7.19145 18.21373,0.0804 36.43671,-2.28306 54.02734,-7.00707 3.29894,-6.23218 4.46131,-13.57068 3.24981,-20.51728 -1.21151,-6.9466 -4.7894,-13.45839 -10.00323,-18.20592 -3.53575,-3.21953 -7.80089,-5.63335 -12.38127,-7.00706 -0.001,-5.32584 -0.56816,-10.65137 -1.68835,-15.85807 -0.93504,-4.34609 -2.25504,-8.60929 -3.9395,-12.72334 z"
         id="path38081"
         inkscape:path-effect="#path-effect38083"
         inkscape:original-d="m 74.427314,107.83782 c 0,0 -1.437682,8.35983 -3.001522,14.38292 -1.563834,6.02306 -0.937972,11.43256 -0.937972,11.43256 0,0 -9.42671,1.66557 -13.319238,7.37587 -4.315229,6.33038 -6.753419,38.7232 -6.753419,38.7232 0,0 40.270926,3.99577 52.901777,7.19145 12.63085,3.19567 54.02734,-7.00707 54.02734,-7.00707 0,0 -5.25212,-28.58086 -6.75342,-38.7232 -1.5013,-10.14233 -12.38127,-7.00706 -12.38127,-7.00706 0,0 -0.31211,-10.2642 -1.68835,-15.85807 -1.37624,-5.5939 -3.9395,-12.72334 -3.9395,-12.72334 z"
         sodipodi:nodetypes="cscscscscscc" />
      <path
         style="fill:#ffbf52;fill-opacity:1;stroke-width:0.4479"
         d="m 68.010871,134.66748 c -0.677698,8.09232 -0.807401,16.23049 -0.387927,24.3403 0.277607,5.36707 0.795536,10.72169 1.551714,16.04247 -1.489435,0.66208 -2.859901,1.59074 -4.026863,2.7287 -1.129991,1.10191 -2.068742,2.39941 -2.761894,3.81738 l -6.012899,-1.93616 c -2.939369,-7.30451 -3.603496,-15.50613 -1.877683,-23.1884 1.909578,-8.50028 6.752156,-16.31269 13.515552,-21.80429 z"
         id="path56746"
         inkscape:path-effect="#path-effect56748"
         inkscape:original-d="m 68.010871,134.66748 c 0,0 -0.258244,16.2274 -0.387927,24.3403 -0.129689,8.1129 1.551714,16.04247 1.551714,16.04247 0,0 -2.539427,1.96093 -4.026863,2.7287 -1.487439,0.7678 -2.761894,3.81738 -2.761894,3.81738 l -6.012899,-1.93616 c 0,0 -1.769547,-16.08861 -1.877683,-23.1884 -0.108136,-7.09979 13.515552,-21.80429 13.515552,-21.80429 z"
         sodipodi:nodetypes="cscsccsc" />
      <g
         id="g27980"
         transform="matrix(2.0565964,0,0,2.0215292,-43.569902,-109.93414)">
        <path
           style="fill:#ffd997;fill-opacity:1;stroke-width:0.300835"
           d="m 51.794079,87.719463 c -2.192231,-3.893877 -3.90473,-8.057534 -5.086511,-12.367006 -1.24501,-4.540042 -1.900504,-9.241385 -1.944843,-13.948832 3.984374,0.493729 7.870062,1.771499 11.369846,3.738863 4.019445,2.259485 7.523533,5.429571 10.173023,9.203351 z"
           id="path20978"
           inkscape:path-effect="#path-effect20980"
           inkscape:original-d="m 51.794079,87.719463 c 0,0 -3.390699,-8.244378 -5.086511,-12.367006 -1.695809,-4.12263 -1.944843,-13.948832 -1.944843,-13.948832 0,0 7.580204,2.492869 11.369846,3.738863 3.789643,1.245991 10.173023,9.203351 10.173023,9.203351 0,0 -14.511515,13.373624 -14.511515,13.373624 z" />
        <path
           style="fill:#ff8e7d;fill-opacity:1;stroke-width:0.264583"
           d="m 52.905405,85.013513 c -2.258381,-3.306835 -3.961548,-6.991868 -5.016891,-10.854729 -0.859394,-3.145632 -1.290278,-6.408033 -1.277028,-9.66892 3.050977,1.466359 5.887527,3.377947 8.391892,5.655406 2.485547,2.260346 4.643344,4.880528 6.385135,7.753378 z"
           id="path26870"
           inkscape:path-effect="#path-effect26872"
           inkscape:original-d="m 52.905405,85.013513 c 0,0 -3.34433,-7.236222 -5.016891,-10.854729 -1.672564,-3.618508 -1.277028,-9.66892 -1.277028,-9.66892 0,0 5.777292,3.588103 8.391892,5.655406 2.614599,2.067304 6.385135,7.753378 6.385135,7.753378 z"
           sodipodi:nodetypes="cscscc" />
      </g>
      <g
         id="g27988"
         transform="matrix(2.0565964,0,0,2.0215292,-43.569902,-109.93414)">
        <path
           style="fill:#ffd997;fill-opacity:1;stroke-width:0.304835"
           d="m 97.155217,87.912961 c 2.168678,-4.068479 3.859173,-8.39159 5.025593,-12.851987 1.23634,-4.727746 1.88342,-9.609266 1.92155,-14.495845 -3.95117,0.540531 -7.792902,1.869303 -11.233677,3.885485 -4.025817,2.358998 -7.495352,5.660453 -10.05119,9.564267 z"
           id="path20978-7"
           inkscape:path-effect="#path-effect20980-1"
           inkscape:original-d="m 97.155217,87.912961 c 0,0 3.350093,-8.567687 5.025593,-12.851987 1.6755,-4.284302 1.92155,-14.495845 1.92155,-14.495845 0,0 -7.48942,2.590628 -11.233677,3.885485 -3.744258,1.294853 -10.05119,9.564267 -10.05119,9.564267 0,0 14.337724,13.89808 14.337724,13.89808 z" />
        <path
           style="fill:#ff8e7d;fill-opacity:1;stroke-width:0.264583"
           d="m 95.959458,86.655404 c 1.777788,-4.013424 3.243123,-8.165206 4.378382,-12.405405 0.85951,-3.210279 1.52997,-6.471164 2.00675,-9.760135 -2.27877,1.270546 -4.448162,2.737179 -6.476347,4.378378 -3.220493,2.606009 -6.083268,5.65348 -8.483108,9.030406 z"
           id="path27982"
           inkscape:path-effect="#path-effect27984"
           inkscape:original-d="m 95.959458,86.655404 c 0,0 2.919185,-8.270005 4.378382,-12.405405 1.45919,-4.135401 2.00675,-9.760135 2.00675,-9.760135 0,0 -4.3173,2.919185 -6.476347,4.378378 -2.159051,1.459195 -8.483108,9.030406 -8.483108,9.030406 0,0 8.574323,8.756756 8.574323,8.756756 z" />
      </g>
      <path
         style="fill:#eed5ab;fill-opacity:1;stroke-width:0.579382"
         d="m 63.793969,176.43712 c -2.892426,-2.38601 -6.887014,-3.3756 -10.55877,-2.61574 -2.065092,0.42736 -4.018483,1.38407 -5.621587,2.75421 -1.603103,1.37015 -2.852465,3.15091 -3.594519,5.12489 -0.348689,0.92757 -0.587864,1.90366 -0.61766,2.89415 -0.0298,0.9905 0.156245,1.99752 0.61766,2.87448 0.387907,0.73725 0.962884,1.36881 1.63189,1.86525 0.669005,0.49643 1.430647,0.86052 2.222828,1.11833 1.584362,0.51561 3.271205,0.60797 4.936026,0.67456 1.948352,0.0779 3.912361,0.12521 5.835692,-0.19565 1.923332,-0.32085 3.822191,-1.03399 5.288013,-2.31988 1.732212,-1.51958 2.756344,-3.81527 2.729931,-6.11939 -0.02641,-2.30413 -1.102901,-4.57574 -2.869492,-6.05521 z"
         id="path58275"
         inkscape:path-effect="#path-effect58277"
         inkscape:original-d="m 63.793969,176.43712 c 0,0 -7.013533,-1.81784 -10.55877,-2.61574 -3.545241,-0.79785 -6.143487,5.25331 -9.216106,7.8791 -3.072611,2.62578 5.82e-4,3.84632 0,5.76863 -5.82e-4,1.92229 5.86108,2.43932 8.790744,3.65814 2.929667,1.2188 6.965228,-1.57693 11.123705,-2.51553 4.158479,-0.93855 -0.139561,-12.1746 -0.139561,-12.1746 z"
         sodipodi:nodetypes="csssssc" />
      <path
         style="fill:#fff3df;fill-opacity:1;stroke-width:0.539481"
         d="m 71.425798,106.73144 c -2.617038,8.85753 -4.07161,18.05778 -4.314685,27.29064 -0.403459,15.32481 2.563227,30.72943 8.629369,44.80829 -2.901419,-2.16985 -6.844337,-2.87452 -10.317726,-1.84396 -2.178985,0.64651 -4.171742,1.95677 -5.550229,3.7639 -1.378487,1.80713 -2.119283,4.11107 -1.953565,6.37789 0.214658,2.93626 1.937933,5.65012 4.305803,7.39966 2.367869,1.74954 5.322751,2.59279 8.263055,2.74215 5.978036,0.30366 12.037314,-2.28893 15.945569,-6.82266 3.362226,-3.25634 6.006443,-7.25012 7.691395,-11.61696 2.35385,-6.1004 2.809991,-12.82427 2.019564,-19.31508 -0.790426,-6.49082 -2.7877,-12.78088 -5.208677,-18.85495 -4.84672,-12.1601 -11.438259,-23.62321 -19.509873,-33.92892 z"
         id="path44619"
         inkscape:path-effect="#path-effect44621"
         inkscape:original-d="m 71.425798,106.73144 c 0,0 -2.875911,18.19431 -4.314685,27.29064 -1.438775,9.09636 8.629369,44.80829 8.629369,44.80829 0,0 -6.502752,-1.22877 -10.317726,-1.84396 -3.814972,-0.61519 -4.001479,7.19198 -7.503794,10.14179 -3.502322,2.9498 12.006617,8.66717 12.568858,10.14181 0.562244,1.47463 10.005611,-8.48169 15.945569,-6.82266 15.407891,2.69336 5.845789,-0.27012 7.691395,-11.61696 0.749837,-4.61044 -2.688315,-27.22866 -3.189113,-38.17003 -0.500802,-10.94138 -19.509873,-33.92892 -19.509873,-33.92892 z"
         sodipodi:nodetypes="cscsssccsc" />
      <path
         style="fill:#ffbf52;fill-opacity:1;stroke-width:0.463276"
         d="m 138.82337,134.54305 c 1.55128,5.35791 2.56875,10.87022 3.03245,16.42887 0.73489,8.80948 0.072,17.73412 -1.95642,26.33834 0.90981,0.3489 1.74744,0.88481 2.44553,1.56464 0.94662,0.92185 1.63186,2.10925 1.95641,3.39009 1.69346,0.11639 3.41232,-0.15314 4.98887,-0.78231 0.97974,-0.39099 1.90456,-0.91931 2.73898,-1.56467 2.30207,-5.63979 3.37747,-11.77663 3.13027,-17.86314 -0.22504,-5.54091 -1.56387,-11.08617 -4.30412,-15.90731 -2.79146,-4.91124 -7.023,-8.99246 -12.03197,-11.60451 z"
         id="path56819"
         inkscape:path-effect="#path-effect56821"
         inkscape:original-d="m 138.82337,134.54305 c 0,0 3.08176,8.3019 3.03245,16.42887 -0.0466,7.67629 -1.95642,26.33834 -1.95642,26.33834 0,0 1.63075,1.04364 2.44553,1.56464 0.81477,0.52103 1.95641,3.39009 1.95641,3.39009 0,0 3.32631,-0.52101 4.98887,-0.78231 1.66255,-0.26133 2.73898,-1.56467 2.73898,-1.56467 0,0 2.08725,-11.90822 3.13027,-17.86314 1.04302,-5.9549 -2.86901,-10.60433 -4.30412,-15.90731 -1.4351,-5.30298 -12.03197,-11.60451 -12.03197,-11.60451 z"
         sodipodi:nodetypes="cscscscssc" />
      <path
         style="fill:#eed5ab;fill-opacity:1;stroke-width:0.576575"
         d="m 158.85797,175.49889 c -3.05334,-2.22959 -7.06211,-3.10087 -10.76545,-2.33982 -2.06056,0.42345 -4.02347,1.33522 -5.65309,2.66546 -1.62962,1.33025 -2.92043,3.07926 -3.67698,5.04213 -0.34898,0.90544 -0.58628,1.86122 -0.61493,2.83116 -0.0286,0.96995 0.15778,1.95595 0.61493,2.81189 0.39494,0.73945 0.98372,1.36717 1.66594,1.85434 0.68222,0.48718 1.45644,0.83707 2.25845,1.08111 1.604,0.48809 3.3007,0.55586 4.97506,0.64307 2.22167,0.11572 4.45984,0.27118 6.66268,-0.0398 2.20285,-0.31095 4.40254,-1.13306 5.96878,-2.71296 1.60833,-1.62236 2.42252,-3.99791 2.1475,-6.26576 -0.27501,-2.26786 -1.6334,-4.37994 -3.58289,-5.57086 z"
         id="path58275-9"
         inkscape:path-effect="#path-effect58277-2"
         inkscape:original-d="m 158.85797,175.49889 c 0,0 -7.17638,-1.55931 -10.76545,-2.33982 -3.58908,-0.78049 -6.21946,5.13895 -9.33007,7.70759 -3.1106,2.56863 5.9e-4,3.76261 0,5.64305 -5.9e-4,1.88045 5.93355,2.38622 8.89945,3.57852 2.96589,1.19227 8.42156,-1.83458 12.63146,-2.75272 4.2099,-0.91814 -1.43539,-11.83662 -1.43539,-11.83662 z" />
      <path
         style="fill:#fff3df;fill-opacity:1;stroke-width:0.539481"
         d="m 134.27539,108.42263 c 6.37197,12.15074 9.19291,26.13721 8.02888,39.80789 -0.82719,9.71476 -3.64057,19.25611 -8.21647,27.86553 1.13862,-1.00118 2.55325,-1.68521 4.04507,-1.95595 1.49182,-0.27073 3.0566,-0.12741 4.47441,0.40984 1.33252,0.50493 2.52945,1.35292 3.47146,2.42211 0.94202,1.0692 1.6299,2.35636 2.02577,3.72524 0.79175,2.73778 0.38815,5.75676 -0.88506,8.30651 -1.90787,3.82074 -5.66047,6.53083 -9.75494,7.74464 -3.18163,0.9432 -6.60659,1.0523 -9.8418,0.3135 -3.2352,-0.73879 -6.27329,-2.32381 -8.7301,-4.55461 -2.75564,-3.98954 -4.8557,-8.4308 -6.19063,-13.09213 -2.94581,-10.2862 -2.09913,-21.35287 0.56278,-31.71616 3.72949,-14.5196 11.00252,-28.11551 21.01063,-39.27641 z"
         id="path44619-1"
         inkscape:path-effect="#path-effect44621-4"
         inkscape:original-d="m 134.27539,108.42263 c 0,0 6.59011,30.71156 8.02888,39.80789 1.43878,9.09636 -8.21647,27.86553 -8.21647,27.86553 0,0 4.70451,-0.93091 8.51948,-1.54611 3.81497,-0.61519 1.10985,11.50404 4.61217,14.45386 3.50232,2.94979 -9.1927,6.26999 -9.75494,7.74464 -0.56224,1.47462 -12.63194,-5.90014 -18.5719,-4.24111 -15.40789,2.69336 -4.34503,-1.74529 -6.19063,-13.09213 -0.74984,-4.61044 0.062,-20.77479 0.56278,-31.71616 0.5008,-10.94138 21.01063,-39.27641 21.01063,-39.27641 z"
         sodipodi:nodetypes="cscsssccsc" />
      <path
         style="fill:#fff3df;fill-opacity:1;stroke-width:0.539481"
         d="m 68.394215,37.909846 c -2.241299,0.756289 -4.291076,2.073073 -5.910718,3.797067 -0.887745,0.944942 -1.650315,2.015036 -2.188718,3.194497 -0.749472,1.641842 -1.050542,3.485744 -0.862226,5.280707 1.323577,-0.577778 2.711691,-1.007568 4.130184,-1.278793 0.791418,-0.151324 1.592244,-0.253424 2.396313,-0.305515 -1.580058,5.972327 -4.678852,11.536326 -8.924423,16.024132 -3.948979,4.174291 -8.880745,7.412786 -14.280645,9.377532 3.13192,2.455004 7.075491,3.856107 11.054294,3.927457 1.725276,0.03094 3.454741,-0.181674 5.121151,-0.62957 -0.8674,2.221329 -2.444837,4.159131 -4.443969,5.459191 -1.999131,1.30006 -4.410171,1.956013 -6.792398,1.847957 -2.176509,-0.09873 -4.320514,-0.831751 -6.101884,-2.086206 0.435647,3.184055 2.196989,6.165754 4.775388,8.084047 1.338434,0.995776 2.884609,1.710985 4.510087,2.086214 -0.83232,0.364034 -1.744809,0.543414 -2.652993,0.521534 -1.703048,-0.04103 -3.376104,-0.814922 -4.510087,-2.086197 0.598246,1.492101 1.404327,2.900702 2.387692,4.172416 2.646605,3.42266 6.611136,5.798834 10.877273,6.519394 -2.499746,0.0202 -4.954891,1.32742 -6.367186,3.39008 -0.739294,1.07974 -1.200239,2.34838 -1.326496,3.65086 2.372456,-1.24286 5.018353,-1.96032 7.693682,-2.08622 1.781458,-0.0838 3.574947,0.0925 5.305985,0.52156 -1.060358,0.43164 -1.937881,1.29419 -2.387692,2.34697 -0.348585,0.81586 -0.442443,1.73844 -0.2653,2.60778 0.872133,-0.87879 1.984609,-1.51668 3.18359,-1.82544 1.125183,-0.28976 2.323709,-0.28976 3.448892,0 12.592409,6.87475 26.843214,10.68633 41.186239,11.01585 14.26162,0.32765 28.59045,-2.78721 41.42898,-9.00601 1.16917,-0.42063 2.43178,-0.57928 3.66867,-0.46099 2.13864,0.20454 4.18411,1.25994 5.59014,2.88434 0.13793,-1.38387 -0.22858,-2.81252 -1.01568,-3.95908 -0.59373,-0.86487 -1.42051,-1.56812 -2.36944,-2.01538 -0.94893,-0.44727 -2.01756,-0.63742 -3.06253,-0.54493 2.78147,-0.69737 5.75616,-0.60599 8.48958,0.26078 2.5168,0.79808 4.82348,2.24917 6.63247,4.17239 -0.62742,-3.20711 -2.00032,-6.26597 -3.97949,-8.86637 -2.26111,-2.97084 -5.31281,-5.334217 -8.75487,-6.780164 4.54514,2.192361 10.12757,2.092593 14.59147,-0.260777 3.12697,-1.648541 5.68647,-4.350749 7.16308,-7.562488 -1.42824,0.604139 -2.96162,0.958781 -4.51009,1.043101 -1.51841,0.08268 -3.05064,-0.0945 -4.5101,-0.521551 1.62332,-0.305663 3.22199,-0.742164 4.7754,-1.303878 3.05361,-1.104189 5.93071,-2.694961 8.48957,-4.693962 -3.26416,1.293255 -6.89006,1.6588 -10.34668,1.043101 -4.86684,-0.86689 -9.35075,-3.715249 -12.20376,-7.752318 2.18324,1.326012 4.71665,2.069518 7.27022,2.133661 3.40183,0.08545 6.82159,-1.054359 9.49191,-3.163657 -6.08743,-2.833033 -11.51648,-7.069561 -15.74415,-12.285847 -3.95355,-4.878067 -6.85389,-10.605393 -8.44636,-16.679118 l 5.23966,5.47629 c 0.93636,-2.914202 0.485,-6.241716 -1.19384,-8.801178 -0.76171,-1.161259 -1.76107,-2.165902 -2.91829,-2.933726 0.7689,0.244339 1.50109,0.603865 2.16458,1.062875 0.27722,0.191785 0.54251,0.400822 0.79381,0.6255 -1.59463,-2.809767 -3.4782,-5.455444 -5.61138,-7.881795 -1.54892,-1.761795 -3.23387,-3.412118 -5.10702,-4.824351 -4.90894,-3.701029 -11.09963,-5.666994 -17.24446,-5.476288 -0.19565,-2.164404 -1.00437,-4.270035 -2.30789,-6.008931 -1.30352,-1.738897 -3.09783,-3.105713 -5.12049,-3.900543 -1.59017,-0.624875 -3.33159,-0.911882 -4.77538,-1.825435 -1.68212,-1.064361 -2.80305,-2.9674926 -2.91829,-4.9547333 -0.66665,1.0240481 -1.12113,2.1855454 -1.3265,3.3900843 -0.31516,1.848438 -0.0324,3.794031 0.7959,5.476284 -2.02066,-1.382196 -3.68107,-3.28631 -4.77539,-5.476284 -1.35811,-2.7178832 -1.82971,-5.8700189 -1.3265,-8.8663746 -2.42099,4.336936 -3.54232,9.3887176 -3.18359,14.3426586 0.0889,1.227589 0.26637,2.448755 0.5306,3.650862 -2.144113,-0.974868 -4.56129,-1.340401 -6.897783,-1.043105 -2.66445,0.339025 -5.21163,1.544533 -7.163084,3.390084 l 6.101884,-0.521551 c -3.557925,0.313982 -7.064949,1.197887 -10.346668,2.607757 -3.600739,1.546925 -6.928238,3.727434 -9.783889,6.411377 -3.133472,-0.1182 -6.288061,1.317972 -8.256464,3.758874 -0.96325,1.19447 -1.649466,2.610953 -1.989747,4.107221 0.871585,-0.680278 1.948135,-1.094355 3.050939,-1.173491 0.625845,-0.04491 1.259162,0.01613 1.864907,0.179754 z"
         id="path16762"
         inkscape:path-effect="#path-effect16764"
         inkscape:original-d="m 68.394215,37.909846 c 0,0 -0.604121,1.711396 -5.910718,3.797067 -5.306529,2.085666 -0.154203,-0.368899 -2.188718,3.194497 -2.034505,3.563402 -0.862226,5.280707 -0.862226,5.280707 0,0 4.622453,-1.989894 4.130184,-1.278793 -1.247437,1.801971 2.396313,-0.305515 2.396313,-0.305515 0,0 -6.359319,10.722229 -8.924423,16.024132 -2.565108,5.301905 -14.280645,9.377532 -14.280645,9.377532 0,0 2.902614,-11.102924 11.054294,3.927457 1.37691,2.538799 5.121151,-0.62957 5.121151,-0.62957 0,0 -7.521635,5.91688 -11.236367,7.307148 -3.714737,1.390271 -6.101884,-2.086206 -6.101884,-2.086206 0,0 3.184136,5.389901 4.775388,8.084047 1.591248,2.694149 4.510087,2.086214 4.510087,2.086214 0,0 -1.768115,0.348229 -2.652993,0.521534 -0.884877,0.173246 -4.510087,-2.086197 -4.510087,-2.086197 0,0 1.592338,2.782149 2.387692,4.172416 0.795356,1.390266 10.877273,6.519394 10.877273,6.519394 0,0 -4.244248,2.26057 -6.367186,3.39008 -2.122934,1.12949 -1.326496,3.65086 -1.326496,3.65086 0,0 5.129667,-1.39028 7.693682,-2.08622 2.564014,-0.69593 5.305985,0.52156 5.305985,0.52156 0,0 -1.591248,1.56519 -2.387692,2.34697 -0.796443,0.78181 -0.2653,2.60778 -0.2653,2.60778 0,0 2.122938,-1.21644 3.18359,-1.82544 1.060655,-0.60901 3.448892,0 3.448892,0 0,0 31.655701,11.3713 41.186239,11.01585 9.48325,-0.35366 41.42898,-9.00601 41.42898,-9.00601 0,0 2.69644,-0.46046 3.66867,-0.46099 0.97221,-5.4e-4 5.59014,2.88434 5.59014,2.88434 0,0 -0.92669,-2.91545 -1.01568,-3.95908 -0.089,-1.04364 -5.43197,-2.56031 -5.43197,-2.56031 0,0 5.66026,0.17446 8.48958,0.26078 2.82931,0.0863 6.63247,4.17239 6.63247,4.17239 0,0 -2.65245,-5.91036 -3.97949,-8.86637 -1.32703,-2.956 -8.75487,-6.780164 -8.75487,-6.780164 0,0 9.7282,-0.173245 14.59147,-0.260777 4.86328,-0.08753 7.16308,-7.562488 7.16308,-7.562488 0,0 -3.00618,0.695938 -4.51009,1.043101 -1.50391,0.347167 -4.5101,-0.521551 -4.5101,-0.521551 0,0 3.18415,-0.86872 4.7754,-1.303878 1.59125,-0.435158 8.48957,-4.693962 8.48957,-4.693962 0,0 -6.89723,0.695937 -10.34668,1.043101 -3.44942,0.347167 -12.20376,-7.752318 -12.20376,-7.752318 0,0 4.4409,1.699572 7.27022,2.133661 2.8293,0.434089 9.49191,-3.163657 9.49191,-3.163657 0,0 -13.09063,-10.894508 -15.74415,-12.285847 -2.65355,-1.39134 -8.44636,-16.679118 -8.44636,-16.679118 l 5.23966,5.47629 c 0,0 -0.83957,-6.801364 -1.19384,-8.801178 -0.35428,-1.999816 -2.91829,-2.933726 -2.91829,-2.933726 0,0 -0.39945,0.628784 2.16458,1.062875 2.56402,0.434093 0.79381,0.6255 0.79381,0.6255 0,0 -5.43398,-6.142758 -5.61138,-7.881795 -0.17748,-1.739043 -0.41952,-0.129843 -5.10702,-4.824351 -4.6875,-4.694496 -17.24446,-5.476288 -17.24446,-5.476288 0,0 -4.9517,-6.605782 -7.42838,-9.909474 -2.47667,-3.303694 -3.18304,-1.216423 -4.77538,-1.825435 -1.59234,-0.60901 -2.91829,-4.9547333 -2.91829,-4.9547333 0,0 -0.88379,2.2605871 -1.3265,3.3900843 -0.44271,1.129491 0.7959,5.476284 0.7959,5.476284 0,0 -3.18305,-3.650322 -4.77539,-5.476284 -1.59234,-1.8259686 -1.3265,-8.8663746 -1.3265,-8.8663746 0,0 -2.12185,9.5623106 -3.18359,14.3426586 -1.06174,4.780355 0.5306,3.650862 0.5306,3.650862 0,0 -4.597982,-0.694867 -6.897783,-1.043105 -2.299807,-0.348233 -7.163084,3.390084 -7.163084,3.390084 l 6.101884,-0.521551 c 0,0 -6.897234,1.739043 -10.346668,2.607757 -3.449437,0.86872 -9.783889,6.411377 -9.783889,6.411377 0,0 -4.983897,2.281684 -8.256464,3.758874 -3.272573,1.477194 -1.989747,4.107221 -1.989747,4.107221 0,0 -0.132115,0.565547 3.050939,-1.173491 3.183051,-1.739043 1.864907,0.179754 1.864907,0.179754 z"
         sodipodi:nodetypes="csscscscscscscccscscscscscscscscscscscscscscscsccscsccscsscscscscsccscscscc" />
      <path
         style="fill:#ffc96c;fill-opacity:1;stroke-width:0.539481"
         d="m 133.49324,25.054099 c -4.96552,-0.401657 -9.99223,-0.03781 -14.84814,1.074742 -6.25086,1.432155 -12.21363,4.110281 -17.43642,7.83141 l 8.90028,0.20733 c -2.7341,1.777441 -5.19838,3.969124 -7.28273,6.477131 -4.168469,5.015734 -6.774676,11.311605 -7.370915,17.806082 2.565776,-2.818364 5.717225,-5.101116 9.195015,-6.660403 1.70545,-0.764648 3.48812,-1.356919 5.31208,-1.764869 -1.56127,1.784853 -2.87315,3.787551 -3.88569,5.931854 -3.63073,7.688966 -3.09382,17.199311 1.37925,24.430774 0.0563,-2.733798 0.80418,-5.450618 2.15482,-7.828139 1.81332,-3.191988 4.72122,-5.748616 8.1191,-7.138331 1.17872,4.482541 3.71897,8.597418 7.19803,11.659877 5.63838,4.963202 13.74716,6.966425 21.0481,5.199797 7.30093,-1.766628 13.59686,-7.255399 16.34243,-14.247288 -3.29972,-3.322844 -6.10836,-7.132538 -8.30669,-11.267359 -1.58662,-2.984261 -2.85621,-6.13695 -3.78052,-9.387925 l 5.10701,5.345902 c 0.76887,-1.88783 0.91067,-4.024979 0.39795,-5.997841 -0.59319,-2.282524 -2.06657,-4.324332 -4.04581,-5.606679 0.50371,0.193778 1.00075,0.404893 1.48995,0.632844 0.43065,0.200669 0.85522,0.414385 1.27293,0.640756 -1.59462,-3.074792 -3.6511,-5.909542 -6.07912,-8.379736 -4.10207,-4.173323 -9.27334,-7.286987 -14.88091,-8.959929 z"
         id="path33072"
         inkscape:path-effect="#path-effect33074"
         inkscape:original-d="m 133.49324,25.054099 c -4.86327,0.261313 -9.98377,0.814498 -14.84814,1.074742 -4.86436,0.260244 -17.43642,7.83141 -17.43642,7.83141 l 8.90028,0.20733 c 0,0 -3.56799,4.217614 -7.28273,6.477131 -3.714732,2.259522 -7.370915,17.806082 -7.370915,17.806082 0,0 6.454125,-5.095213 9.195015,-6.660403 2.74088,-1.565187 5.31208,-1.764869 5.31208,-1.764869 0,0 -2.55865,1.846901 -3.88569,5.931854 -1.32704,4.08495 1.37925,24.430774 1.37925,24.430774 0,0 2.24378,-5.48062 2.15482,-7.828139 -0.089,-2.347513 8.1191,-7.138331 8.1191,-7.138331 0,0 3.92655,7.835704 7.19803,11.659877 3.27148,3.82418 37.39053,-9.047491 37.39053,-9.047491 0,0 -6.64803,-8.6808 -8.30669,-11.267359 -1.65867,-2.586561 -3.78052,-9.387925 -3.78052,-9.387925 l 5.10701,5.345902 c 0,0 0.26585,-3.998027 0.39795,-5.997841 0.13212,-1.999816 -4.04581,-5.606679 -4.04581,-5.606679 0,0 0.91568,0.4378 1.48995,0.632844 0.57427,0.195037 1.27293,0.640756 1.27293,0.640756 0,0 -4.17727,-5.662787 -6.07912,-8.379736 -1.90186,-2.71695 -11.56412,-6.699336 -14.88091,-8.959929 z"
         sodipodi:nodetypes="csccscscscscscsccscscsc" />
      <path
         style="fill:#eed5ab;fill-opacity:1;stroke-width:0.539481"
         d="m 90.560482,186.20622 c 2.881773,-5.42945 4.439854,-11.5555 4.502279,-17.70202 0.05794,-5.70437 -1.169231,-11.41814 -3.564304,-16.59567 1.786416,2.78352 3.599949,5.54964 5.440253,8.29783 1.115752,1.66619 2.241345,3.32579 3.3767,4.97869 0.28861,-2.08498 0.5388,-4.17527 0.75039,-6.26947 0.36548,-3.61728 0.61577,-7.24619 0.75038,-10.87939 0.56795,3.25193 1.384,6.4605 2.43873,9.58862 0.84862,2.51684 1.85163,4.98161 3.00152,7.37585 0.006,-1.98423 0.0842,-3.96823 0.23449,-5.94677 0.18647,-2.45501 0.4839,-4.90158 0.89107,-7.32976 0.80856,2.00487 1.40693,4.09442 1.78215,6.22338 0.33498,1.90065 0.49222,3.83259 0.46899,5.76239 0.46847,-0.99919 0.96907,-1.98332 1.50076,-2.95036 1.62743,-2.95997 3.54696,-5.75924 5.72164,-8.34395 -1.43078,5.00775 -2.35927,10.15886 -2.76702,15.35101 -0.49248,6.27106 -0.22414,12.60152 0.79727,18.80841 -3.87014,0.27504 -7.75109,0.3981 -11.63088,0.36881 -4.572926,-0.0345 -9.144249,-0.28074 -13.694428,-0.7376 z"
         id="path49938"
         inkscape:path-effect="#path-effect49940"
         inkscape:original-d="m 90.560482,186.20622 c 0,0 3.002059,-11.80082 4.502279,-17.70202 1.500213,-5.90123 -3.564304,-16.59567 -3.564304,-16.59567 0,0 3.627375,5.53242 5.440253,8.29783 1.812871,2.7654 3.3767,4.97869 3.3767,4.97869 0,0 0.5008,-4.17911 0.75039,-6.26947 0.24958,-2.09036 0.75038,-10.87939 0.75038,-10.87939 0,0 1.62637,6.39295 2.43873,9.58862 0.81237,3.19568 3.00152,7.37585 3.00152,7.37585 0,0 -0.0776,-3.97934 0.23449,-5.94677 0.31212,-1.96743 0.89107,-7.32976 0.89107,-7.32976 0,0 1.34498,4.13409 1.78215,6.22338 0.43718,2.08929 0.46899,5.76239 0.46899,5.76239 0,0 0.25067,-1.35172 1.50076,-2.95036 1.25009,-1.59863 5.72164,-8.34395 5.72164,-8.34395 0,0 -2.26623,10.61871 -2.76702,15.35101 -0.5008,4.73232 0.79727,18.80841 0.79727,18.80841 0,0 -7.75337,0.2464 -11.63088,0.36881 -3.87751,0.1223 -13.694428,-0.7376 -13.694428,-0.7376 z"
         sodipodi:nodetypes="cscscscscscscscscccc" />
      <path
         style="fill:#eed5ab;fill-opacity:1;stroke-width:0.539481"
         d="m 70.110854,112.50751 c 9.930478,3.70029 20.354016,6.07485 30.907366,7.04093 12.31494,1.12734 24.80395,0.33249 36.87661,-2.34698 l 2.12239,4.69395 c -11.70033,3.2663 -23.96322,4.50714 -36.0807,3.65089 -12.048798,-0.8514 -23.948418,-3.77558 -35.019518,-8.60561 z"
         id="path61290"
         inkscape:path-effect="#path-effect61292"
         inkscape:original-d="m 70.110854,112.50751 c 0,0 20.605455,4.6945 30.907366,7.04093 10.30192,2.34645 36.87661,-2.34698 36.87661,-2.34698 l 2.12239,4.69395 c 0,0 -24.89338,2.78215 -36.0807,3.65089 -11.187338,0.86871 -35.019518,-8.60561 -35.019518,-8.60561 z"
         sodipodi:nodetypes="csccscc" />
      <path
         style="fill:#ffc96c;fill-opacity:1;stroke-width:0.668074"
         d="m 66.131364,137.01752 c 1.621798,-2.19994 4.02673,-3.80992 6.678685,-4.47104 2.651955,-0.66113 5.531207,-0.36848 7.99591,0.8127 2.237805,1.07244 4.114626,2.85544 5.376845,4.99196 1.262219,2.13652 1.915928,4.61537 1.960462,7.09648 0.09114,5.07798 -2.484875,10.12953 -6.648564,13.03777 -4.16369,2.90824 -9.793239,3.58809 -14.529554,1.75465 -0.190706,-4.02844 -0.357468,-8.05802 -0.500274,-12.08844 -0.131478,-3.71071 -0.24265,-7.42215 -0.33351,-11.13408 z"
         id="path62020"
         inkscape:path-effect="#path-effect62022"
         inkscape:original-d="m 66.131364,137.01752 c 0,0 10.284017,-2.22616 14.674595,-3.65834 4.390583,-1.43217 4.892217,8.0596 7.337307,12.08844 2.445081,4.02881 -21.178118,14.79242 -21.178118,14.79242 0,0 -0.332832,-8.0583 -0.500274,-12.08844 -0.167448,-4.03012 -0.33351,-11.13408 -0.33351,-11.13408 z"
         sodipodi:nodetypes="csscsc" />
      <path
         style="fill:#ffc96c;fill-opacity:1;stroke-width:0.668727"
         d="m 140.10788,130.68559 c -2.04152,-2.00202 -4.80561,-3.25102 -7.65731,-3.46008 -2.8517,-0.20906 -5.76839,0.62348 -8.08005,2.30637 -1.92977,1.40487 -3.42782,3.37959 -4.32474,5.59165 -0.89691,2.21206 -1.19785,4.65364 -0.93362,7.02595 0.56263,5.0515 3.80909,9.7252 8.34642,12.01579 4.53733,2.29058 10.22559,2.1274 14.62415,-0.41953 0.77448,-5.39161 0.92064,-10.8732 0.43458,-16.29842 -0.14801,-1.65203 -0.3544,-3.29883 -0.61867,-4.93629 z"
         id="path62020-1"
         inkscape:path-effect="#path-effect62022-9"
         inkscape:original-d="m 140.10788,130.68559 c 0,0 -10.96548,-0.48848 -15.73736,-1.15371 -4.77188,-0.66528 -3.50615,8.41248 -5.25836,12.6176 -1.7522,4.20514 22.97057,11.59626 22.97057,11.59626 0,0 1.01872,-12.45127 0.43458,-16.29842 -0.58412,-3.84713 -0.61867,-4.93629 -0.61867,-4.93629 z"
         sodipodi:nodetypes="csscscc" />
      <path
         style="fill:#e4bd7c;fill-opacity:1;stroke-width:0.539481"
         d="m 64.804862,176.91909 c -0.171311,0.0942 -0.341712,0.19015 -0.511169,0.28769 -2.097175,1.20715 -4.105877,2.72922 -5.294605,4.83689 -0.751481,1.33241 -1.144343,2.86489 -1.126563,4.3945 0.01778,1.52962 0.446157,3.05255 1.228406,4.36713 l -3.249916,0.45636 c -0.627559,-1.90393 -0.749846,-3.97188 -0.351053,-5.9365 0.526525,-2.59387 1.972394,-4.99145 4.020868,-6.66751 l 5.284032,-1.73866 z"
         id="path64008"
         inkscape:path-effect="#path-effect64010"
         inkscape:original-d="m 64.804862,176.91909 c 0,0 -0.355867,0.2232 -0.511169,0.28769 -0.155294,0.0647 -3.591727,3.42487 -5.294605,4.83689 -1.702884,1.412 0.101843,8.76163 0.101843,8.76163 l -3.249916,0.45636 c 0,0 -0.21786,-3.21955 -0.351053,-5.9365 -0.133185,-2.71694 4.020868,-6.66751 4.020868,-6.66751 l 5.284032,-1.73866 z"
         sodipodi:nodetypes="ccsccsccc" />
      <path
         style="fill:#e4bd7c;fill-opacity:1;stroke-width:0.539481"
         d="m 143.66509,174.89809 c 1.19273,0.60059 2.24516,1.47765 3.05094,2.54256 1.7511,2.31424 2.25057,5.43866 1.65812,8.27962 -0.30901,1.48177 -0.89716,2.90484 -1.72445,4.17241 l 3.05094,0.26078 c 0.83888,-2.42774 1.03668,-5.07383 0.56808,-7.59931 -0.35045,-1.8887 -1.06975,-3.70824 -2.1055,-5.32602 z"
         id="path64204"
         inkscape:path-effect="#path-effect64206"
         inkscape:original-d="m 143.66509,174.89809 c 0,0 2.0345,1.69556 3.05094,2.54256 1.01644,0.84698 1.10596,5.52029 1.65812,8.27962 0.55216,2.75934 -1.72445,4.17241 -1.72445,4.17241 l 3.05094,0.26078 c 0,0 0.0822,-4.77372 0.56808,-7.59931 0.48583,-2.82561 -2.1055,-5.32602 -2.1055,-5.32602 z"
         sodipodi:nodetypes="cssccscc" />
      <path
         style="fill:#e4bd7c;fill-opacity:1;stroke-width:0.539481"
         d="m 43.56795,184.45447 c -0.214646,1.24646 0.09726,2.575 0.844175,3.59571 0.7506,1.02575 1.893871,1.7129 3.099455,2.11555 1.205585,0.40264 2.481257,0.54306 3.747761,0.65041 2.526132,0.21411 5.062583,0.30645 7.597597,0.27658 l -1.125573,-3.50353 c -1.480147,0.48684 -3.03792,0.73684 -4.596077,0.7376 -1.103507,5.4e-4 -2.207028,-0.12343 -3.282912,-0.36879 -0.388219,-1.00113 -0.353583,-2.15862 0.0938,-3.13475 0.305968,-0.66758 0.798453,-1.24848 1.406965,-1.65957 -0.983711,-0.0745 -1.992469,0.35043 -2.626331,1.10638 -0.610693,0.72832 -0.860455,1.74541 -0.656581,2.67376 l -2.157341,-0.7376 c 0.09725,-0.7371 0.320284,-1.45745 0.656577,-2.12054 0.391529,-0.772 0.936819,-1.46564 1.594561,-2.02836 -0.856838,0.0224 -1.702269,0.35484 -2.344937,0.92198 -0.666103,0.58783 -1.108211,1.42353 -1.219366,2.30494 -0.302557,-0.71241 -0.462937,-1.48487 -0.468989,-2.25885 -0.0063,-0.80471 0.154417,-1.61035 0.468989,-2.35106 l -1.031774,3.78014 z"
         id="path68030"
         inkscape:path-effect="#path-effect68032"
         inkscape:original-d="m 43.56795,184.45447 c -0.34447,1.25949 0.563326,2.39767 0.844175,3.59571 0.280847,1.19806 4.565354,1.8445 6.847216,2.76596 2.281861,0.92143 7.597597,0.27658 7.597597,0.27658 l -1.125573,-3.50353 c 0,0 -3.063508,0.49226 -4.596077,0.7376 -1.532568,0.24533 -3.282912,-0.36879 -3.282912,-0.36879 0,0 0.06307,-2.08929 0.0938,-3.13475 0.03075,-1.04545 1.406965,-1.65957 1.406965,-1.65957 0,0 -1.750345,0.73812 -2.626331,1.10638 -0.875985,0.36826 -0.656581,2.67376 -0.656581,2.67376 l -2.157341,-0.7376 c 0,0 0.438263,-1.41317 0.656577,-2.12054 0.21832,-0.7074 1.594561,-2.02836 1.594561,-2.02836 0,0 -1.56275,0.61517 -2.344937,0.92198 -0.782192,0.30678 -1.219366,2.30494 -1.219366,2.30494 0,0 -0.468444,-1.55146 -0.468989,-2.25885 -5.43e-4,-0.70738 0.468989,-2.35106 0.468989,-2.35106 0,0 -0.687305,2.52062 -1.031774,3.78014 z"
         sodipodi:nodetypes="sssccscscsccscscscs" />
      <path
         style="fill:#e4bd7c;fill-opacity:1;stroke-width:0.539481"
         d="m 148.29282,188.11934 c 1.01869,0.12037 2.04703,0.15894 3.07187,0.11522 1.80922,-0.0772 3.60725,-0.41197 5.323,-0.99113 0.17127,-0.63015 0.25827,-1.28315 0.25795,-1.93616 -7.2e-4,-1.48789 -0.46537,-2.97228 -1.31316,-4.19502 0.78207,0.60182 1.42797,1.37957 1.87594,2.25886 0.48128,0.94468 0.7328,2.0054 0.72693,3.06559 l 1.26627,-0.76064 c 0.17419,-0.67532 0.1984,-1.38889 0.0704,-2.07446 -0.14063,-0.75321 -0.46535,-1.47136 -0.93798,-2.07445 0.63469,0.32563 1.16064,0.85902 1.47731,1.49822 0.28437,0.574 0.3998,1.23044 0.3283,1.86702 0.40771,-0.17697 0.78305,-0.42818 1.10211,-0.7376 0.40963,-0.39726 0.72539,-0.89068 0.91452,-1.42905 -0.0761,1.2642 -0.50253,2.50552 -1.21936,3.54962 -0.7545,1.09898 -1.81774,1.96859 -3.00152,2.58153 -1.56733,0.81153 -3.33048,1.18055 -5.08851,1.33688 -1.94548,0.173 -3.91311,0.0953 -5.83889,-0.2305 l 0.98487,-1.84395 z"
         id="path68172"
         inkscape:path-effect="#path-effect68174"
         inkscape:original-d="m 148.29282,188.11934 c 0,0 2.04846,0.0774 3.07187,0.11522 1.02341,0.0378 5.323,-0.99113 5.323,-0.99113 0,0 0.17251,-1.29024 0.25795,-1.93616 0.0854,-0.64592 -1.31316,-4.19502 -1.31316,-4.19502 0,0 1.25117,1.50645 1.87594,2.25886 0.62477,0.75241 0.72693,3.06559 0.72693,3.06559 0,0 1.26627,-0.76064 1.26627,-0.76064 0,0 0.0474,-1.38243 0.0704,-2.07446 0.0229,-0.69201 -0.93798,-2.07445 -0.93798,-2.07445 0,0 0.98542,0.99934 1.47731,1.49822 0.4919,0.49887 0.3283,1.86702 0.3283,1.86702 0,0 0.73528,-0.49119 1.10211,-0.7376 0.36683,-0.24638 0.91452,-1.42905 0.91452,-1.42905 0,0 -0.81236,2.36694 -1.21936,3.54962 -0.407,1.18267 -2.00047,1.72155 -3.00152,2.58153 -1.00104,0.86 -3.39179,0.8918 -5.08851,1.33688 -1.69672,0.4451 -5.83889,-0.2305 -5.83889,-0.2305 0,0 0.98487,-1.84395 0.98487,-1.84395 z" />
      <path
         style="fill:#eacc99;fill-opacity:1;stroke-width:0.539481"
         d="m 59.631529,191.65293 c 0.269897,0.41096 0.564486,0.8057 0.88165,1.18138 1.359207,1.60999 3.131684,2.85691 5.079638,3.66002 1.947954,0.80312 4.067562,1.16713 6.174309,1.13343 4.213495,-0.0674 8.300442,-1.71666 11.741343,-4.14941 3.609546,-2.55199 6.593795,-5.98177 8.622225,-9.90948 -2.673447,4.0297 -6.554477,7.24705 -11.009923,9.12715 -2.278672,0.96155 -4.702129,1.57915 -7.163078,1.82544 -0.530348,-1.45435 -0.757664,-3.01843 -0.663249,-4.56358 0.115405,-1.88867 0.714465,-3.7458 1.724442,-5.3459 -1.59736,0.5482 -3.012303,1.61449 -3.979487,2.99892 -1.203259,1.72235 -1.691225,3.92871 -1.326497,5.99784 l -3.581538,-0.43592 c -0.114121,-1.20091 -0.06939,-2.41683 0.132651,-3.60611 0.464399,-2.73356 1.778344,-5.31664 3.714192,-7.30172 -1.39567,0.71882 -2.62869,1.75127 -3.581542,2.99894 -1.582836,2.07257 -2.363007,4.74252 -2.145153,7.34126 -0.840761,0.0231 -1.684313,-0.0572 -2.50563,-0.2384 -0.727816,-0.16061 -1.438126,-0.40043 -2.114349,-0.71386 z"
         id="path69628"
         inkscape:path-effect="#path-effect69630"
         inkscape:original-d="m 59.631529,191.65293 c 0,0 0.572675,0.83422 0.88165,1.18138 0.308969,0.34718 15.346368,0.38381 22.99529,0.64404 7.648914,0.26025 8.622225,-9.90948 8.622225,-9.90948 0,0 -7.339403,6.08531 -11.009923,9.12715 -3.670515,3.04185 -7.163078,1.82544 -7.163078,1.82544 0,0 -0.441622,-3.04186 -0.663249,-4.56358 -0.221629,-1.52173 1.724442,-5.3459 1.724442,-5.3459 0,0 -2.652448,1.99982 -3.979487,2.99892 -1.327042,0.9991 -1.326497,5.99784 -1.326497,5.99784 l -3.581538,-0.43592 c 0,0 0.08897,-2.6494 0.132651,-3.60611 0.0437,-0.95671 3.714192,-7.30172 3.714192,-7.30172 0,0 -2.387153,1.99982 -3.581542,2.99894 -1.194391,0.9991 -2.145153,7.34126 -2.145153,7.34126 0,0 -1.841836,-0.28125 -2.50563,-0.2384 -0.663793,0.0429 -2.114349,-0.71386 -2.114349,-0.71386 z"
         sodipodi:nodetypes="csscscscsccscscscc" />
      <path
         style="fill:#eacc99;fill-opacity:1;stroke-width:0.539481"
         d="m 115.87498,186.95896 c 1.99671,4.95473 6.39166,8.87749 11.54052,10.30064 4.26536,1.17895 8.97628,0.65584 12.87909,-1.43014 3.90282,-2.08597 6.9552,-5.71217 8.34486,-9.91361 -0.65122,1.25532 -1.50583,2.40485 -2.52035,3.39008 -1.58769,1.54185 -3.56956,2.67446 -5.70393,3.2597 0.69942,-1.63099 0.88724,-3.47708 0.5306,-5.21551 -0.51948,-2.53221 -2.22161,-4.79583 -4.51009,-5.99783 1.48901,2.08804 2.12196,4.76812 1.72444,7.3017 -0.30056,1.91557 -1.17735,3.73692 -2.48718,5.16663 l -4.46034,-0.14677 c 1.82595,-1.36635 3.03198,-3.53059 3.23333,-5.80225 0.12338,-1.39202 -0.11933,-2.81488 -0.69722,-4.08727 -0.57789,-1.2724 -1.48962,-2.39141 -2.61902,-3.21445 0.5222,1.90575 0.56819,3.94004 0.13265,5.86744 -0.53987,2.38912 -1.82509,4.60424 -3.63128,6.25864 -2.53875,-0.0492 -5.0628,-0.73299 -7.27915,-1.97213 -1.71215,-0.95724 -3.24025,-2.24232 -4.47693,-3.76495 z"
         id="path69632"
         inkscape:path-effect="#path-effect69634"
         inkscape:original-d="m 115.87498,186.95896 c 0,0 -222.0113,-74.38759 11.54052,10.30064 4.87429,1.76746 21.22395,-11.34375 21.22395,-11.34375 0,0 -1.67969,2.2606 -2.52035,3.39008 -0.84066,1.12949 -5.70393,3.2597 -5.70393,3.2597 0,0 0.35428,-3.47646 0.5306,-5.21551 0.17631,-1.73904 -4.51009,-5.99783 -4.51009,-5.99783 0,0 1.15017,4.86835 1.72444,7.3017 0.57428,2.43338 -2.48718,5.16663 -2.48718,5.16663 l -4.46034,-0.14677 c 0,0 2.65906,-4.32399 3.23333,-5.80225 0.57427,-1.47829 -3.31624,-7.30172 -3.31624,-7.30172 0,0 0.089,3.91216 0.13265,5.86744 0.0437,1.95529 -3.63128,6.25864 -3.63128,6.25864 0,0 -4.66983,-1.53697 -7.27915,-1.97213 -2.60933,-0.43515 -4.47693,-3.76495 -4.47693,-3.76495 z"
         sodipodi:nodetypes="cscscscsccscscsc" />
      <path
         style="fill:#eed5ab;fill-opacity:1;stroke-width:0.539481"
         d="m 67.922133,126.13303 c 1.274406,-1.20119 2.651811,-2.29306 4.11214,-3.2597 2.183353,-1.44524 4.55242,-2.60957 7.030428,-3.45528 l -9.749746,-3.78123 c -0.573461,2.00327 -0.973391,4.05619 -1.193846,6.12823 -0.154295,1.45021 -0.220782,2.90975 -0.198976,4.36798 z"
         id="path71088"
         inkscape:path-effect="#path-effect71090"
         inkscape:original-d="m 67.922133,126.13303 c 0,0 2.74197,-2.17258 4.11214,-3.2597 1.370168,-1.0871 7.030428,-3.45528 7.030428,-3.45528 0,0 -9.749746,-3.78123 -9.749746,-3.78123 0,0 -0.795356,4.08602 -1.193846,6.12823 -0.398496,2.04221 -0.198976,4.36798 -0.198976,4.36798 z" />
      <path
         style="fill:#eed5ab;fill-opacity:1;stroke-width:0.552176"
         d="m 131.39499,121.96063 c 2.98925,0.2047 5.8822,1.58569 7.92108,3.78125 0.9706,1.04518 1.75136,2.26612 2.29294,3.58565 -0.30321,-1.70884 -0.67417,-3.40565 -1.11173,-5.08512 -0.40624,-1.55927 -0.86988,-3.10359 -1.38966,-4.62878 z"
         id="path71092"
         inkscape:path-effect="#path-effect71094"
         inkscape:original-d="m 131.39499,121.96063 c 0,0 5.28129,2.52135 7.92108,3.78125 2.63979,1.25988 2.29294,3.58565 2.29294,3.58565 0,0 -0.74058,-3.38954 -1.11173,-5.08512 -0.37114,-1.69558 -1.38966,-4.62878 -1.38966,-4.62878 0,0 -7.71263,2.347 -7.71263,2.347 z" />
      <path
         style="fill:#e3a53c;fill-opacity:1;stroke-width:0.612914"
         d="m 107.22165,96.042669 0.0319,4.179271 c -0.28049,0.81458 -0.97345,1.475 -1.80057,1.71601 -0.63517,0.18508 -1.33816,0.12632 -1.93379,-0.16165 -0.59563,-0.28797 -1.07829,-0.80243 -1.32773,-1.4152 0.10898,0.76535 0.52721,1.48214 1.13989,1.95359 0.75243,0.57899 1.78894,0.76855 2.69758,0.49336 0.90865,-0.27519 1.66582,-1.00798 1.97058,-1.90714 0.24456,0.63659 0.70702,1.18716 1.29183,1.53795 0.58481,0.35079 1.28827,0.49958 1.96504,0.41563 0.65247,-0.0809 1.2764,-0.37725 1.75146,-0.83176 0.47505,-0.45452 0.79862,-1.06476 0.9083,-1.71302 -0.23447,0.55561 -0.65009,1.03305 -1.16809,1.34183 -0.51801,0.30878 -1.13567,0.44727 -1.73593,0.38923 -0.54995,-0.0532 -1.08301,-0.2703 -1.5136,-0.61651 -0.43059,-0.3462 -0.75711,-0.82021 -0.92713,-1.34591 l -0.16473,-4.087129 -1.53496,-0.113408 z"
         id="path74598"
         inkscape:path-effect="#path-effect74600"
         inkscape:original-d="m 107.22165,96.042669 0.0319,4.179271 c 0,0 -1.16667,1.20248 -1.80057,1.71601 -0.63393,0.51351 -3.26152,-1.57685 -3.26152,-1.57685 0,0 0.76055,1.303 1.13989,1.95359 0.37936,0.6506 4.66816,-1.41378 4.66816,-1.41378 0,0 2.28044,1.4401 3.25687,1.95358 0.97643,0.51351 2.65976,-2.54478 2.65976,-2.54478 0,0 -1.92636,1.26896 -2.90402,1.73106 -0.97769,0.4621 -2.44073,-1.96242 -2.44073,-1.96242 l -0.16473,-4.087129 -1.53496,-0.113408 z"
         sodipodi:nodetypes="ccscscscscccc" />
      <ellipse
         style="fill:#000000;fill-opacity:1;stroke-width:0.525374"
         id="path72630"
         cx="79.417679"
         cy="80.855972"
         rx="9.3034229"
         ry="9.7157154" />
      <ellipse
         style="fill:#fbfbfb;fill-opacity:1;stroke-width:0.525374"
         id="path72840"
         cx="82.982529"
         cy="76.799889"
         rx="2.7823322"
         ry="3.2071297" />
      <ellipse
         style="fill:#000000;fill-opacity:1;stroke-width:0.504883"
         id="path72630-6"
         cx="133.87708"
         cy="80.689034"
         rx="8.975131"
         ry="9.3008242" />
      <ellipse
         style="fill:#fbfbfb;fill-opacity:1;stroke-width:0.504883"
         id="path72840-1"
         cx="137.31613"
         cy="76.80616"
         rx="2.6841514"
         ry="3.0701752" />
      <path
         style="fill:#ffbe50;fill-opacity:1;stroke-width:0.568998"
         d="m 106.67883,90.420129 c 0.93425,-0.0063 1.86853,-0.0048 2.80277,-0.01253 0.78813,-0.0065 1.60161,-0.01493 2.33021,0.285632 0.21023,0.08672 0.41154,0.199246 0.58246,0.349251 0.17092,0.150005 0.31079,0.33894 0.38533,0.553787 0.11334,0.326677 0.0685,0.692067 -0.0572,1.014172 -0.12575,0.322106 -0.32713,0.608372 -0.53221,0.886773 -0.42568,0.577872 -0.87822,1.140105 -1.4073,1.625098 -0.52907,0.484994 -1.1389,0.892546 -1.81788,1.125202 -0.60221,0.206352 -1.25246,0.271047 -1.88353,0.187396 -1.01287,-0.49649 -1.95039,-1.146353 -2.77073,-1.920594 -0.54002,-0.509675 -1.0349,-1.081155 -1.3606,-1.748472 -0.12731,-0.260841 -0.22868,-0.538113 -0.25796,-0.826884 -0.0293,-0.288772 0.0178,-0.590983 0.16936,-0.838494 0.15751,-0.257149 0.42031,-0.439525 0.70611,-0.535718 0.2858,-0.09619 0.592,-0.108875 0.89349,-0.114911 0.73917,-0.0148 1.47843,-0.0247 2.21773,-0.02971 z"
         id="path74540"
         inkscape:path-effect="#path-effect74542"
         inkscape:original-d="m 106.67883,90.420129 c 0.27602,-0.0036 1.27501,0.126406 2.80277,-0.01253 1.52776,-0.139061 0.96123,0.137606 2.33021,0.285632 1.36895,0.147996 0.90015,0.500408 0.96779,0.903038 0.0239,0.13619 -0.3924,1.346631 -0.58946,1.900945 -0.19702,0.554319 -2.11116,1.755324 -3.22518,2.7503 -1.11399,0.994936 -1.29347,0.204255 -1.88353,0.187396 -0.0699,-0.412028 -1.93509,-1.299864 -2.77073,-1.920594 -0.83566,-0.620755 -0.70506,-0.621815 -1.3606,-1.748472 -0.65554,-1.126656 -0.26806,-1.648504 -0.0886,-1.665378 0.17954,-0.01698 1.3236,-0.646948 1.5996,-0.650629 z"
         sodipodi:nodetypes="sssssscsscss" />
      <ellipse
         style="fill:#ff7a66;fill-opacity:1;stroke-width:0.539481"
         id="path74762"
         cx="75.179596"
         cy="94.966492"
         rx="9.3518009"
         ry="3.5856655" />
      <ellipse
         style="fill:#ff7a66;fill-opacity:1;stroke-width:0.539481"
         id="path74762-9"
         cx="138.25452"
         cy="93.988594"
         rx="9.3518009"
         ry="3.5856655" />
    </g>
  </g>
</svg>
