<svg xmlns="http://www.w3.org/2000/svg" width="1080" height="1080" viewBox="0 0 1080 1080" version="1.1"><path d="M 440.388 602.376 C 437.026 603.626, 432.256 605.832, 429.788 607.278 C 423.792 610.792, 414.796 620.662, 411.627 627.202 C 405.918 638.988, 406 637.577, 406 723.574 C 406 772.928, 406.382 804.755, 407.015 808.114 C 410.526 826.739, 426.716 843.704, 445 847.915 C 447.864 848.574, 474.238 848.960, 517.540 848.976 C 591.705 849.002, 591.575 849.011, 602.425 843.230 C 608.944 839.757, 619.757 828.944, 623.230 822.425 C 629.088 811.430, 629 812.931, 629 724.500 C 629 654.921, 628.783 642.586, 627.469 637.542 C 622.977 620.297, 609.649 606.657, 592.091 601.336 C 588.584 600.273, 573.245 600.011, 517.091 600.052 L 446.500 600.104 440.388 602.376" stroke="none" fill="#ffc7c2" fill-rule="evenodd"/><path d="M 620.724 333.434 C 603.422 339.540, 591.580 352.752, 587.451 370.556 C 586.146 376.184, 585.971 388.114, 586.215 454.806 L 586.500 532.500 589.209 539.260 C 595.294 554.444, 607.004 565.715, 621.568 570.407 C 626.093 571.865, 634.179 572.011, 697.121 571.770 L 767.606 571.500 775.553 567.584 C 788.514 561.197, 798.161 549.516, 802.405 535.068 C 803.805 530.302, 804 520.140, 804 452.029 C 804 367.366, 804.066 368.439, 798.217 357.627 C 794.235 350.265, 785.610 341.434, 778.621 337.563 C 766.439 330.815, 768.791 330.998, 694.568 331.021 L 627.500 331.042 620.724 333.434" stroke="none" fill="#fefa9d" fill-rule="evenodd"/><path d="M 315.452 282.378 C 296.622 287.022, 282.294 300.984, 277.357 319.500 C 276.294 323.487, 276.021 342.539, 276.012 413.522 C 276.001 497.181, 276.112 502.946, 277.855 509.234 C 282.666 526.582, 296.594 539.928, 314.669 544.510 C 320.041 545.872, 330.257 546.037, 393.669 545.787 L 466.500 545.500 472.236 543.184 C 481.549 539.422, 489.454 533.513, 494.967 526.191 C 500.765 518.489, 503.626 511.637, 504.995 502.172 C 506.275 493.328, 506.249 334.893, 504.966 325.011 C 503.205 311.435, 494.761 297.753, 483.260 289.836 C 480.929 288.231, 475.979 285.699, 472.260 284.209 L 465.500 281.500 393 281.316 C 337.994 281.177, 319.282 281.433, 315.452 282.378 M 486.250 599.749 C 503.712 599.903, 532.287 599.903, 549.750 599.749 C 567.212 599.596, 552.925 599.471, 518 599.471 C 483.075 599.471, 468.787 599.596, 486.250 599.749" stroke="none" fill="#b1d5ff" fill-rule="evenodd"/><path d="M 500 33.617 C 384.580 42.894, 273.871 92.278, 191 171.453 C 129.716 230.004, 86.028 298.194, 59.070 377.375 C 47.588 411.101, 40.258 443.657, 35.401 482.500 C 33.202 500.090, 32.333 559.879, 33.969 581 C 41.244 674.908, 76.215 767.557, 133.052 843.500 C 167.177 889.096, 210.453 930.305, 256.500 961.051 C 295.853 987.329, 335.040 1006.677, 378 1021.042 C 417.430 1034.227, 457.057 1042.466, 498 1045.992 C 515.912 1047.535, 569.171 1047.240, 587.362 1045.498 C 658.438 1038.689, 723.007 1018.670, 786.500 983.757 C 864.704 940.755, 933.730 873.110, 978.752 795.351 C 1010.563 740.409, 1029.830 686.959, 1040.883 622.990 C 1045.792 594.577, 1046.481 584.563, 1046.491 541.500 C 1046.500 499.577, 1045.933 489.889, 1041.951 464 C 1033.746 410.644, 1020.084 366.894, 996.418 318.181 C 968.490 260.697, 933.014 212.757, 885.500 168.292 C 819.784 106.794, 735.800 62.849, 648 44.022 C 608.139 35.474, 591.598 33.801, 544 33.503 C 522.275 33.367, 502.475 33.418, 500 33.617 M 498 110.485 C 426.889 117.030, 356.569 142.755, 295.021 184.737 C 178.282 264.366, 108 398.060, 108 540.500 C 108 680.097, 173.913 808.568, 287.827 891 C 344.537 932.038, 413.793 959.503, 483 968.401 C 514.128 972.403, 560.297 972.929, 588.500 969.603 C 655.722 961.676, 717.474 939.510, 773.500 903.194 C 816.400 875.387, 854.093 840.360, 884.010 800.500 C 930.501 738.557, 957.695 671.752, 968.067 594 C 970.725 574.073, 971.797 528.472, 970.093 507.785 C 963.176 423.800, 934.369 347.357, 884.630 281 C 844.601 227.597, 790.746 183.025, 730.115 153.119 C 684.801 130.768, 642.841 118.279, 589.979 111.409 C 572.985 109.200, 517.960 108.647, 498 110.485" stroke="none" fill="#ffffff" fill-rule="evenodd"/><path d="M 511.500 110.076 C 434.403 115.127, 359.009 141.409, 294.609 185.682 C 243.881 220.556, 198.743 269.393, 166.703 324.071 C 153.210 347.096, 138.342 380.328, 129.870 406.393 C 115.207 451.509, 108.887 491.923, 108.897 540.500 C 108.909 597.687, 118.204 647.122, 138.688 698.939 C 173.872 787.940, 238.116 862.825, 321.758 912.331 C 370.132 940.963, 427.765 960.650, 484.500 967.925 C 510.042 971.199, 553.509 972.164, 577.500 969.989 C 666.732 961.899, 746.517 928.620, 817.500 869.884 C 830.607 859.039, 859.218 830.336, 870.534 816.680 C 954.590 715.246, 987.894 583.548, 962.022 454.899 C 935.708 324.047, 848.773 211.657, 728.500 152.999 C 701.101 139.637, 677.037 130.719, 647.500 122.982 C 604.457 111.707, 556.318 107.139, 511.500 110.076 M 311 283.276 C 294.734 288.842, 282.672 300.741, 277.975 315.855 C 276.069 321.989, 276 325.410, 276 414.060 L 276 505.909 278.423 512.584 C 282.771 524.562, 290.478 533.709, 301.500 539.972 C 312.348 546.136, 310.337 546, 390.500 546 C 470.906 546, 468.106 546.194, 480.211 539.786 C 486.704 536.349, 495.285 527.819, 499.490 520.623 C 501.057 517.940, 503.163 512.775, 504.170 509.144 C 505.880 502.976, 506 496.738, 506 413.982 C 506 337.708, 505.787 324.593, 504.468 319.460 C 499.768 301.170, 484.721 286.169, 466.972 282.079 C 464.122 281.423, 436.210 281.049, 390 281.050 C 317.681 281.052, 317.484 281.057, 311 283.276 M 628 331.017 C 608.689 334.374, 593.423 348.327, 587.610 367.932 C 586.190 372.722, 586 382.564, 586 451.287 C 586 519.095, 586.205 530.009, 587.582 535.356 C 591.786 551.680, 605.508 565.988, 621.783 571.015 C 627.920 572.910, 631.200 573, 694.395 573 C 765.814 573, 766.220 572.973, 776.767 567.609 C 786.905 562.453, 795.200 553.481, 800.554 541.882 L 803.500 535.500 803.773 453.573 C 804.042 372.838, 804.015 371.556, 801.961 365.383 C 799.257 357.257, 793.592 348.572, 787.498 343.208 C 781.189 337.654, 770.065 332.216, 762.500 330.986 C 755.388 329.831, 634.666 329.859, 628 331.017 M 444.209 600.556 C 426.722 605.263, 413.139 618.097, 407.985 634.783 C 406.072 640.977, 406 644.242, 406 724.500 C 406 805.092, 406.065 808, 408.009 814.295 C 410.448 822.189, 416.502 831.511, 422.779 837.037 C 428.627 842.184, 439.697 847.522, 447.434 848.924 C 451.278 849.621, 476.282 849.995, 518.434 849.985 C 590.765 849.969, 590.522 849.988, 603.160 843.346 C 615.626 836.796, 625.522 823.463, 628.562 809.122 C 630.687 799.095, 630.621 649.594, 628.486 639.517 C 626.391 629.626, 622.718 622.799, 615.209 614.839 C 608.065 607.265, 598.995 602.124, 589.201 600.097 C 585.642 599.360, 561.825 599.022, 516.701 599.066 C 461.860 599.120, 448.527 599.394, 444.209 600.556" stroke="none" fill="#81fec2" fill-rule="evenodd"/><path d="M 843 234.500 C 849.307 240.825, 854.692 246, 854.967 246 C 855.242 246, 850.307 240.825, 844 234.500 C 837.693 228.175, 832.308 223, 832.033 223 C 831.758 223, 836.693 228.175, 843 234.500 M 233.982 235.750 L 223.500 246.500 234.250 236.018 C 240.162 230.253, 245 225.415, 245 225.268 C 245 224.546, 243.718 225.765, 233.982 235.750 M 663.822 330.750 C 681.600 330.903, 710.400 330.903, 727.822 330.749 C 745.245 330.596, 730.700 330.471, 695.500 330.471 C 660.300 330.471, 646.045 330.597, 663.822 330.750 M 970.310 523.500 C 970.315 526.800, 970.502 528.029, 970.725 526.232 C 970.947 524.435, 970.943 521.735, 970.715 520.232 C 970.486 518.729, 970.304 520.200, 970.310 523.500 M 108.355 529.500 C 108.352 534.450, 108.521 536.601, 108.731 534.280 C 108.940 531.959, 108.943 527.909, 108.736 525.280 C 108.530 522.651, 108.358 524.550, 108.355 529.500 M 108.355 551.500 C 108.352 556.450, 108.521 558.601, 108.731 556.280 C 108.940 553.959, 108.943 549.909, 108.736 547.280 C 108.530 544.651, 108.358 546.550, 108.355 551.500 M 660.823 572.750 C 679.701 572.902, 710.301 572.902, 728.823 572.749 C 747.345 572.597, 731.900 572.473, 694.500 572.473 C 657.100 572.473, 641.945 572.597, 660.823 572.750 M 629.477 724.500 C 629.477 768.500, 629.600 786.354, 629.750 764.176 C 629.900 741.997, 629.900 705.997, 629.750 684.176 C 629.599 662.354, 629.476 680.500, 629.477 724.500 M 843.980 845.750 L 834.500 855.500 844.250 846.020 C 853.306 837.215, 854.455 836, 853.730 836 C 853.582 836, 849.194 840.388, 843.980 845.750 M 484.250 849.750 C 502.813 849.902, 533.188 849.902, 551.750 849.750 C 570.313 849.597, 555.125 849.472, 518 849.472 C 480.875 849.472, 465.688 849.597, 484.250 849.750 M 527.250 971.728 C 529.313 971.944, 532.688 971.944, 534.750 971.728 C 536.813 971.513, 535.125 971.336, 531 971.336 C 526.875 971.336, 525.188 971.513, 527.250 971.728 M 546.250 971.735 C 548.862 971.941, 553.138 971.941, 555.750 971.735 C 558.362 971.529, 556.225 971.360, 551 971.360 C 545.775 971.360, 543.638 971.529, 546.250 971.735" stroke="none" fill="#84fbc4" fill-rule="evenodd"/><path d="" stroke="none" fill="#fbf2e3" fill-rule="evenodd"/></svg>