<svg xmlns="http://www.w3.org/2000/svg" width="1080" height="1080" viewBox="0 0 1080 1080" version="1.1"><path d="M 237.500 457 C 236.400 457.473, 233.925 457.896, 232 457.941 C 221.005 458.195, 202.384 468.878, 194.839 479.260 C 188.203 488.390, 184.927 504.523, 187.032 517.700 C 189.369 532.332, 196.083 541.473, 209.500 548.290 C 221.386 554.329, 222.559 554.631, 243.302 556.989 C 266.224 559.595, 272.200 562.381, 272.200 570.462 C 272.200 575.204, 269.898 578.499, 264.735 581.146 C 261.190 582.964, 258.708 583.333, 249.500 583.409 C 239.230 583.494, 238.191 583.318, 233.845 580.763 C 231.284 579.258, 227.792 576.263, 226.085 574.108 C 224.379 571.953, 221.748 569.781, 220.241 569.281 C 217.198 568.273, 195.902 568.423, 191.057 569.488 C 186.342 570.523, 184.768 574.380, 186.107 581.618 C 188.189 592.884, 194.631 602.137, 204.750 608.396 C 207.088 609.842, 209 611.401, 209 611.861 C 209 612.320, 210.688 613.400, 212.750 614.261 C 234.860 623.488, 251.241 624.393, 275.681 617.739 C 281.791 616.076, 298.386 606.398, 302.089 602.338 C 309.164 594.582, 312.610 586.111, 313.621 573.993 C 315.049 556.866, 308.321 542.608, 295 534.530 C 287.955 530.258, 270.783 525.272, 260.500 524.513 C 248.157 523.602, 239.928 521.947, 235 519.387 C 227.357 515.415, 226.935 514.845, 226.858 508.407 C 226.792 502.871, 226.983 502.406, 230.782 498.863 C 235.796 494.185, 241.463 492.574, 249.881 493.432 C 258.644 494.325, 261.931 495.922, 268.370 502.413 C 271.419 505.486, 274.495 508.038, 275.206 508.084 C 275.918 508.130, 282.426 508.181, 289.669 508.197 C 303.450 508.228, 305.573 507.675, 307.703 503.500 C 309.933 499.127, 304.185 484.110, 296.767 474.932 C 293.851 471.323, 279.059 462.124, 273 460.151 C 261.791 456.501, 242.621 454.800, 237.500 457 M 528.500 457.204 C 525.059 458.403, 520 462.795, 520 464.582 C 520 465.247, 516.468 472.925, 512.151 481.645 C 507.834 490.365, 501.951 502.900, 499.079 509.500 C 496.207 516.100, 490.289 528.822, 485.928 537.770 C 481.568 546.719, 478 554.519, 478 555.105 C 478 555.690, 474.912 562.544, 471.139 570.335 C 467.365 578.126, 463.692 586.075, 462.977 588 C 462.262 589.925, 460.235 594.200, 458.472 597.500 C 452.754 608.207, 451.588 617.157, 455.752 618.380 C 456.714 618.662, 464.025 619.007, 472 619.147 C 491.092 619.481, 490.848 619.600, 499 605.923 C 502.981 599.243, 504.339 598.979, 532.804 599.345 C 561.590 599.714, 563.865 600.264, 567.507 607.737 C 569.977 612.803, 573.688 616.892, 577 618.198 C 582.597 620.405, 607.265 620.308, 610.895 618.065 C 613.680 616.343, 612.482 609.427, 607.723 599.751 C 605.220 594.663, 600.384 584.200, 596.977 576.500 C 593.570 568.800, 588.754 558.225, 586.275 553 C 583.796 547.775, 579.569 538.775, 576.882 533 C 574.195 527.225, 570.694 519.800, 569.102 516.500 C 565.226 508.463, 560 496.503, 560 495.668 C 560 495.298, 556.850 488.472, 553 480.500 C 549.150 472.528, 546 465.588, 546 465.079 C 546 462.628, 540.710 458.164, 536.571 457.122 C 534.120 456.505, 531.976 456.036, 531.807 456.079 C 531.638 456.122, 530.150 456.629, 528.500 457.204 M 330.775 459.602 C 329.276 460.391, 327.589 461.900, 327.025 462.953 C 325.644 465.534, 325.712 488.274, 327.110 491.343 C 328.843 495.145, 331.747 495.836, 346.411 495.936 C 355.028 495.995, 360.772 496.465, 361.966 497.211 C 365.996 499.728, 366.203 501.987, 365.973 541 C 365.852 561.625, 365.808 586.508, 365.876 596.295 C 365.998 613.779, 366.043 614.134, 368.455 616.545 C 370.842 618.933, 371.317 619, 385.907 619 C 402.735 619, 405.561 618.277, 406.562 613.718 C 406.925 612.065, 407.285 585.762, 407.361 555.268 L 407.500 499.823 409.861 497.912 C 412.261 495.968, 416.524 495.608, 432.672 495.987 C 439.315 496.143, 444.220 494.348, 445.512 491.287 C 445.927 490.304, 446.456 484.141, 446.689 477.591 C 447.161 464.255, 446.297 460.732, 442.164 459.155 C 440.479 458.512, 420.021 458.144, 386.500 458.153 C 342.395 458.164, 333.043 458.407, 330.775 459.602 M 637.350 459.210 C 633.003 461.245, 632.853 464.287, 633.360 540 C 633.623 579.325, 634.147 612.707, 634.523 614.183 C 635.711 618.838, 640.306 619.851, 656.500 619.027 C 664.200 618.636, 671.247 617.987, 672.160 617.585 C 674.738 616.451, 675.209 612.771, 675.058 594.940 C 674.980 585.832, 675.215 577.603, 675.580 576.653 C 677.121 572.637, 686.173 570.721, 692.601 573.051 C 696.439 574.442, 701.981 581.611, 707.481 592.300 C 713.301 603.609, 720.272 613.984, 723.741 616.500 C 726.284 618.344, 728.086 618.500, 746.786 618.500 C 768.486 618.500, 768.948 618.393, 768.985 613.378 C 768.993 612.211, 766.851 607.936, 764.225 603.878 C 761.600 599.820, 757.507 593.350, 755.131 589.500 C 752.755 585.650, 749.075 579.800, 746.953 576.500 C 739.700 565.219, 739.792 561.362, 747.488 554 C 751.543 550.121, 757.055 539.922, 759.445 531.873 C 761.438 525.164, 761.462 508.586, 759.492 500.231 C 755.859 484.819, 745.661 471.926, 731.391 464.700 C 728.701 463.338, 721.775 461.269, 716 460.103 C 706.478 458.180, 702.427 457.992, 672.500 458.093 C 652.688 458.159, 638.641 458.605, 637.350 459.210 M 784.110 459.435 C 779.918 461.689, 779.073 464.645, 779.035 477.203 C 778.998 489.646, 779.873 493.166, 783.406 494.775 C 784.609 495.323, 791.741 495.830, 799.256 495.902 C 806.772 495.974, 813.626 496.303, 814.488 496.634 C 818.359 498.119, 818.485 499.851, 819 558.339 L 819.500 615.178 821.861 617.089 C 823.948 618.778, 825.942 619, 839.064 619 C 854.129 619, 858.198 618.232, 859.634 615.115 C 860.043 614.227, 860.472 588.461, 860.587 557.858 C 860.703 527.254, 861.106 501.241, 861.484 500.050 C 862.521 496.784, 865.959 496, 879.244 496 C 892.601 496, 897.279 494.878, 898.917 491.282 C 900.354 488.128, 900.318 465.791, 898.870 462.615 C 898.249 461.251, 896.561 459.685, 895.120 459.135 C 890.921 457.533, 787.126 457.814, 784.110 459.435 M 681.814 496.170 C 675.839 497.396, 675 499.610, 675 514.160 C 675 527.789, 676.125 532.344, 679.739 533.347 C 688.217 535.701, 707.504 534.476, 711.858 531.306 C 718.531 526.449, 721.440 511.513, 717.099 504.395 C 713.542 498.561, 709.137 496.794, 696.448 496.112 C 690.196 495.775, 683.611 495.801, 681.814 496.170 M 530.258 532.750 C 527.381 536.961, 519.636 555.246, 519.781 557.481 C 520.011 561, 522.842 562, 532.580 562 C 540.089 562, 542.204 561.655, 544.097 560.122 L 546.416 558.244 543.502 550.872 C 541.899 546.817, 540.055 542.600, 539.405 541.500 C 538.755 540.400, 537.658 537.700, 536.967 535.500 C 535.035 529.352, 533.116 528.565, 530.258 532.750" stroke="none" fill="#ffffff" fill-rule="evenodd"/><path d="" stroke="none" fill="#fffcfc" fill-rule="evenodd"/><path d="" stroke="none" fill="#fcfcfc" fill-rule="evenodd"/></svg>