<svg xmlns="http://www.w3.org/2000/svg" width="1080" height="1080" viewBox="0 0 1080 1080" version="1.1"><path d="M 252.081 35.583 C 249.101 36.387, 245.177 37.964, 243.360 39.086 C 238.371 42.170, 232.342 49.549, 230.575 54.734 C 229.150 58.916, 229 105.693, 229 545.500 C 229 987.494, 229.145 1032.068, 230.592 1036.316 C 232.765 1042.693, 239.841 1050.284, 246.797 1053.700 L 252.500 1056.500 542.500 1056.500 L 832.500 1056.500 837.702 1054.148 C 844.276 1051.174, 852.049 1043.043, 854.573 1036.497 C 856.466 1031.588, 856.500 1022.974, 856.500 545.500 C 856.500 68.026, 856.466 59.412, 854.573 54.503 C 852.049 47.957, 844.276 39.826, 837.702 36.852 L 832.500 34.500 545 34.311 C 295.484 34.146, 256.784 34.314, 252.081 35.583 M 254.923 60.923 L 252 63.846 252 545.500 L 252 1027.154 254.923 1030.077 L 257.846 1033 542.969 1033 L 828.091 1033 830.545 1030.545 L 833 1028.091 832.968 545.795 C 832.943 168.250, 832.672 63.155, 831.718 61.913 C 831.048 61.041, 829.517 59.803, 828.316 59.163 C 826.670 58.287, 756.096 58, 541.989 58 L 257.846 58 254.923 60.923 M 303.199 99.588 C 285.723 108.297, 282.750 131.915, 297.499 144.865 C 302.886 149.595, 307.587 151.284, 315.500 151.332 C 321.164 151.367, 323.480 150.870, 327.638 148.727 C 348.384 138.038, 347.710 108.536, 326.500 98.867 C 320.246 96.016, 309.713 96.342, 303.199 99.588 M 758.500 99.358 C 748.169 104.190, 743 112.505, 743 124.293 C 743 130.149, 743.514 132.638, 745.578 136.780 C 752.172 150.014, 768.618 155.336, 782.273 148.655 C 792.203 143.797, 797.176 135.536, 797.176 123.904 C 797.176 108.377, 785.695 97.020, 770 97.020 C 765.278 97.020, 762.132 97.659, 758.500 99.358 M 406.585 190.242 C 401.518 191.581, 394.495 198.553, 393.081 203.649 C 392.342 206.308, 392.009 256.503, 392.006 365.802 L 392 524.103 382.459 684.302 C 373.053 842.242, 372.922 845.015, 373.209 881.046 C 373.475 914.469, 373.656 917.830, 375.328 920.379 C 379.251 926.363, 369.360 926.048, 544.247 925.762 C 695.457 925.515, 704.646 925.400, 707.096 923.736 C 711.892 920.477, 712 919.454, 712 877.138 C 712 838.692, 711.684 832.106, 702.501 678.935 L 693.002 520.500 692.979 363 C 692.957 212.821, 692.871 205.314, 691.135 201.491 C 688.845 196.450, 683.193 191.425, 678.277 190.060 C 673.079 188.617, 412.073 188.791, 406.585 190.242 M 415.247 362.250 L 415.500 511.500 542.750 511.754 L 670 512.008 670 362.504 L 670 213 542.497 213 L 414.993 213 415.247 362.250 M 469 293.049 C 457.477 294.379, 448.612 300.852, 445.295 310.357 C 443.689 314.960, 443.500 319.545, 443.500 354 C 443.500 398.959, 443.591 399.570, 451.441 407.633 C 458.077 414.447, 464.304 416.400, 477.547 415.821 C 489.506 415.298, 496.843 411.922, 501.681 404.718 C 506.752 397.166, 507.143 393.092, 506.806 351.324 L 506.500 313.500 503.641 307.677 C 498.124 296.441, 485.565 291.138, 469 293.049 M 525 354.500 L 525 415 535 415 L 545 415 545 390 L 545 365 559 365 L 573 365 573 356.500 L 573 348 559.500 348 L 546 348 546 329.500 L 546 311 563 311 L 580 311 580 302.500 L 580 294 552.500 294 L 525 294 525 354.500 M 594 354.500 L 594 415 604.500 415 L 615 415 615 390 L 615 365 629 365 L 643 365 643 356.500 L 643 348 629 348 L 615 348 615 329.500 L 615 311 632.500 311 L 650 311 650 302.500 L 650 294 622 294 L 594 294 594 354.500 M 467.306 312.413 L 464.500 314.825 464.215 352.620 C 463.915 392.324, 464.122 394.571, 468.360 397.540 C 471.767 399.926, 479.402 399.418, 482.694 396.587 L 485.500 394.175 485.784 355.044 L 486.067 315.914 483.111 312.957 C 479.136 308.982, 471.597 308.722, 467.306 312.413 M 414.582 537.250 C 413.988 540.178, 397.038 826.371, 397.435 826.768 C 397.894 827.228, 687.440 824.892, 687.908 824.425 C 688.300 824.033, 672.563 555.528, 671.341 541.750 L 670.742 535 542.890 535 L 415.038 535 414.582 537.250 M 397 880 L 397 902 543 902 L 689 902 689 880 L 689 858 543 858 L 397 858 397 880 M 310.344 940.057 C 289.342 944.134, 280.862 969.202, 295.037 985.305 C 305.535 997.230, 325.504 997.186, 336.042 985.215 C 350.699 968.563, 340.655 942.532, 318.500 939.752 C 316.300 939.476, 312.630 939.613, 310.344 940.057 M 764.707 940.094 C 758.036 941.141, 750.806 946.069, 746.813 952.289 C 743.874 956.869, 743.460 958.381, 743.148 965.700 C 742.852 972.663, 743.147 974.671, 745.040 978.583 C 749.947 988.720, 758.681 994.176, 770 994.176 C 785.877 994.176, 797.176 982.917, 797.176 967.096 C 797.176 949.173, 782.837 937.248, 764.707 940.094" stroke="none" fill="#382e50" fill-rule="evenodd"/><path d="M 255.174 61.314 L 253 63.629 253 545.640 L 253 1027.651 255.314 1029.826 L 257.629 1032 542.814 1032 C 826.667 1032, 828.009 1031.991, 830 1030 C 831.994 1028.006, 832 1026.667, 832 545.674 L 832 63.349 829.686 61.174 L 827.371 59 542.360 59 L 257.349 59 255.174 61.314 M 305.385 97.617 C 299.610 99.666, 293.386 105.323, 290.265 111.362 C 288.077 115.594, 287.611 117.823, 287.622 124 C 287.638 132.788, 289.187 136.983, 294.653 143.046 C 305.537 155.119, 325.407 155.182, 336.227 143.179 C 341.470 137.363, 343.259 132.698, 343.389 124.500 C 343.648 108.175, 331.367 95.848, 315.072 96.079 C 312.007 96.122, 307.648 96.815, 305.385 97.617 M 761.994 96.875 C 754.016 99.491, 747.807 105.067, 744.238 112.821 C 742.178 117.295, 741.852 119.284, 742.186 125.321 C 742.664 133.950, 744.876 138.963, 750.720 144.653 C 760.912 154.579, 779.510 154.551, 789.453 144.594 C 795.155 138.884, 797.342 133.843, 797.814 125.321 C 798.148 119.296, 797.819 117.285, 795.773 112.815 C 790.983 102.353, 782.910 96.883, 771.500 96.368 C 767.650 96.195, 763.372 96.423, 761.994 96.875 M 403.500 190.662 C 399.088 192.988, 396.076 195.996, 393.653 200.500 L 391.500 204.500 390.956 375 L 390.413 545.500 381.712 688 C 373.058 829.750, 373.012 830.733, 373.006 874.850 L 373 919.200 376.400 922.600 L 379.800 926 541.950 926 C 687.183 926, 704.415 925.837, 707.128 924.434 C 712.780 921.511, 713 919.801, 713 878.780 C 713 843.469, 712.497 833.108, 703.500 683.053 L 694 524.610 693.994 366.055 C 693.991 258.501, 693.651 206.285, 692.940 203.723 C 691.627 198.993, 686.855 193.477, 681.885 190.941 C 678.172 189.047, 674.774 189.001, 542.290 189.040 C 420.457 189.076, 406.192 189.243, 403.500 190.662 M 306.994 939.876 C 302.012 941.508, 298.281 943.946, 294.698 947.913 C 289.319 953.867, 287.695 958.293, 287.695 967 C 287.695 975.710, 289.319 980.133, 294.705 986.095 C 300.711 992.743, 305.026 994.485, 315.500 994.489 C 325.322 994.493, 328.033 993.544, 334.551 987.821 C 340.505 982.593, 343.391 975.796, 343.391 967 C 343.391 960.857, 342.915 958.579, 340.760 954.410 C 337.981 949.035, 333.113 944.153, 327.737 941.350 C 324.136 939.473, 311.060 938.543, 306.994 939.876 M 757.146 942.085 C 747.321 946.994, 742.044 955.701, 742.044 967 C 742.044 978.299, 747.321 987.006, 757.146 991.915 C 762.194 994.438, 764.537 995, 770 995 C 786.053 995, 797.924 983.081, 797.978 966.910 C 798.049 945.710, 776.324 932.502, 757.146 942.085" stroke="none" fill="#daedeb" fill-rule="evenodd"/><path d="M 416 362 L 416 511 543 511 L 670 511 670 362 L 670 213 543 213 L 416 213 416 362 M 464.734 293.025 C 458.545 294.587, 453.433 297.677, 449.571 302.189 C 443.128 309.716, 442.877 311.864, 443.207 356.655 L 443.500 396.500 446.216 401.649 C 450.960 410.645, 458.800 415.357, 471.209 416.672 C 477.750 417.365, 487.766 415.670, 493.044 412.978 C 498.261 410.316, 503.473 404.063, 505.624 397.886 C 507.331 392.985, 507.500 389.079, 507.500 354.500 C 507.500 319.839, 507.334 316.024, 505.613 311.079 C 503.196 304.138, 497.373 297.837, 490.727 294.976 C 484.827 292.435, 471.142 291.408, 464.734 293.025 M 524.682 293.651 C 524.307 294.026, 524 321.483, 524 354.667 L 524 415 535 415 L 546 415 546 390 L 546 365 559.539 365 L 573.078 365 572.789 356.250 L 572.500 347.500 559.250 347.221 L 546 346.942 546 328.971 L 546 311 563.539 311 L 581.078 311 580.789 302.250 L 580.500 293.500 552.932 293.235 C 537.770 293.088, 525.057 293.276, 524.682 293.651 M 594.667 293.667 C 594.300 294.033, 594 321.483, 594 354.667 L 594 415 605 415 L 616 415 616 390 L 616 365 629.539 365 L 643.078 365 642.789 356.250 L 642.500 347.500 629.250 347.221 L 616 346.942 616 328.971 L 616 311 633 311 L 650 311 650 302 L 650 293 622.667 293 C 607.633 293, 595.033 293.300, 594.667 293.667 M 469.364 311.170 C 465.223 313.175, 465 315.410, 465 354.991 L 465 392.888 467.413 395.694 C 469.467 398.081, 470.582 398.500, 474.891 398.500 C 479.091 398.500, 480.427 398.027, 482.727 395.728 L 485.500 392.957 485.796 356.697 C 486.117 317.278, 485.738 313.686, 481 311.293 C 478.023 309.789, 472.340 309.729, 469.364 311.170 M 541.943 535.748 C 642.311 535.953, 669.574 536.272, 670.269 537.254 C 670.921 538.173, 671.045 538.107, 670.743 537 C 670.382 535.677, 655.269 535.499, 542.417 535.494 L 414.500 535.488 541.943 535.748 M 652.750 824.745 C 657.837 824.927, 666.163 824.927, 671.250 824.745 C 676.337 824.564, 672.175 824.415, 662 824.415 C 651.825 824.415, 647.663 824.564, 652.750 824.745 M 508.750 825.745 C 513.837 825.927, 522.163 825.927, 527.250 825.745 C 532.337 825.564, 528.175 825.415, 518 825.415 C 507.825 825.415, 503.663 825.564, 508.750 825.745 M 397 880 L 397 902 542.500 902 L 688 902 688 880 L 688 858 542.500 858 L 397 858 397 880" stroke="none" fill="#d3246c" fill-rule="evenodd"/><path d="M 415 538.130 C 415 539.301, 411.155 604.381, 406.455 682.752 C 401.756 761.122, 398.140 825.473, 398.421 825.754 C 398.960 826.293, 687.035 824.364, 687.424 823.818 C 687.624 823.537, 670.357 536.877, 670.102 536.250 C 670.046 536.112, 612.625 536, 542.500 536 L 415 536 415 538.130" stroke="none" fill="#f54880" fill-rule="evenodd"/><path d="M 252.081 35.583 C 249.101 36.387, 245.177 37.964, 243.360 39.086 C 238.371 42.170, 232.342 49.549, 230.575 54.734 C 229.150 58.916, 229 105.693, 229 545.500 C 229 987.494, 229.145 1032.068, 230.592 1036.316 C 232.765 1042.693, 239.841 1050.284, 246.797 1053.700 L 252.500 1056.500 542.500 1056.500 L 832.500 1056.500 837.702 1054.148 C 844.276 1051.174, 852.049 1043.043, 854.573 1036.497 C 856.466 1031.588, 856.500 1022.974, 856.500 545.500 C 856.500 68.026, 856.466 59.412, 854.573 54.503 C 852.049 47.957, 844.276 39.826, 837.702 36.852 L 832.500 34.500 545 34.311 C 295.484 34.146, 256.784 34.314, 252.081 35.583 M 254.923 60.923 L 252 63.846 252 545.500 L 252 1027.154 254.923 1030.077 L 257.846 1033 542.969 1033 L 828.091 1033 830.545 1030.545 L 833 1028.091 832.968 545.795 C 832.943 168.250, 832.672 63.155, 831.718 61.913 C 831.048 61.041, 829.517 59.803, 828.316 59.163 C 826.670 58.287, 756.096 58, 541.989 58 L 257.846 58 254.923 60.923 M 303.199 99.588 C 285.723 108.297, 282.750 131.915, 297.499 144.865 C 302.886 149.595, 307.587 151.284, 315.500 151.332 C 321.164 151.367, 323.480 150.870, 327.638 148.727 C 348.384 138.038, 347.710 108.536, 326.500 98.867 C 320.246 96.016, 309.713 96.342, 303.199 99.588 M 758.500 99.358 C 748.169 104.190, 743 112.505, 743 124.293 C 743 130.149, 743.514 132.638, 745.578 136.780 C 752.172 150.014, 768.618 155.336, 782.273 148.655 C 792.203 143.797, 797.176 135.536, 797.176 123.904 C 797.176 108.377, 785.695 97.020, 770 97.020 C 765.278 97.020, 762.132 97.659, 758.500 99.358 M 406.585 190.242 C 401.518 191.581, 394.495 198.553, 393.081 203.649 C 392.342 206.308, 392.009 256.503, 392.006 365.802 L 392 524.103 382.459 684.302 C 373.053 842.242, 372.922 845.015, 373.209 881.046 C 373.475 914.469, 373.656 917.830, 375.328 920.379 C 379.251 926.363, 369.360 926.048, 544.247 925.762 C 695.457 925.515, 704.646 925.400, 707.096 923.736 C 711.892 920.477, 712 919.454, 712 877.138 C 712 838.692, 711.684 832.106, 702.501 678.935 L 693.002 520.500 692.979 363 C 692.957 212.821, 692.871 205.314, 691.135 201.491 C 688.845 196.450, 683.193 191.425, 678.277 190.060 C 673.079 188.617, 412.073 188.791, 406.585 190.242 M 415.247 362.250 L 415.500 511.500 542.750 511.754 L 670 512.008 670 362.504 L 670 213 542.497 213 L 414.993 213 415.247 362.250 M 469 293.049 C 457.477 294.379, 448.612 300.852, 445.295 310.357 C 443.689 314.960, 443.500 319.545, 443.500 354 C 443.500 398.959, 443.591 399.570, 451.441 407.633 C 458.077 414.447, 464.304 416.400, 477.547 415.821 C 489.506 415.298, 496.843 411.922, 501.681 404.718 C 506.752 397.166, 507.143 393.092, 506.806 351.324 L 506.500 313.500 503.641 307.677 C 498.124 296.441, 485.565 291.138, 469 293.049 M 525 354.500 L 525 415 535 415 L 545 415 545 390 L 545 365 559 365 L 573 365 573 356.500 L 573 348 559.500 348 L 546 348 546 329.500 L 546 311 563 311 L 580 311 580 302.500 L 580 294 552.500 294 L 525 294 525 354.500 M 594 354.500 L 594 415 604.500 415 L 615 415 615 390 L 615 365 629 365 L 643 365 643 356.500 L 643 348 629 348 L 615 348 615 329.500 L 615 311 632.500 311 L 650 311 650 302.500 L 650 294 622 294 L 594 294 594 354.500 M 467.306 312.413 L 464.500 314.825 464.215 352.620 C 463.915 392.324, 464.122 394.571, 468.360 397.540 C 471.767 399.926, 479.402 399.418, 482.694 396.587 L 485.500 394.175 485.784 355.044 L 486.067 315.914 483.111 312.957 C 479.136 308.982, 471.597 308.722, 467.306 312.413 M 414.582 537.250 C 413.988 540.178, 397.038 826.371, 397.435 826.768 C 397.894 827.228, 687.440 824.892, 687.908 824.425 C 688.300 824.033, 672.563 555.528, 671.341 541.750 L 670.742 535 542.890 535 L 415.038 535 414.582 537.250 M 397 880 L 397 902 543 902 L 689 902 689 880 L 689 858 543 858 L 397 858 397 880 M 310.344 940.057 C 289.342 944.134, 280.862 969.202, 295.037 985.305 C 305.535 997.230, 325.504 997.186, 336.042 985.215 C 350.699 968.563, 340.655 942.532, 318.500 939.752 C 316.300 939.476, 312.630 939.613, 310.344 940.057 M 764.707 940.094 C 758.036 941.141, 750.806 946.069, 746.813 952.289 C 743.874 956.869, 743.460 958.381, 743.148 965.700 C 742.852 972.663, 743.147 974.671, 745.040 978.583 C 749.947 988.720, 758.681 994.176, 770 994.176 C 785.877 994.176, 797.176 982.917, 797.176 967.096 C 797.176 949.173, 782.837 937.248, 764.707 940.094" stroke="none" fill="#382e50" fill-rule="evenodd"/><path d="M 832.496 545.500 C 832.496 810.600, 832.610 918.901, 832.750 786.168 C 832.890 653.436, 832.890 436.536, 832.750 304.168 C 832.610 171.801, 832.496 280.400, 832.496 545.500 M 391.488 366 C 391.488 453.725, 391.606 489.612, 391.750 445.750 C 391.894 401.887, 391.894 330.112, 391.750 286.250 C 391.606 242.387, 391.488 278.275, 391.488 366 M 400.750 1032.750 C 478.988 1032.891, 607.013 1032.891, 685.250 1032.750 C 763.488 1032.609, 699.475 1032.493, 543 1032.493 C 386.525 1032.493, 322.513 1032.609, 400.750 1032.750" stroke="none" fill="#dbebeb" fill-rule="evenodd"/><path d="M 400.331 58.750 C 478.888 58.891, 607.138 58.891, 685.331 58.750 C 763.524 58.609, 699.250 58.493, 542.500 58.493 C 385.750 58.493, 321.774 58.609, 400.331 58.750 M 252.496 545.500 C 252.496 810.600, 252.610 918.901, 252.750 786.168 C 252.890 653.436, 252.890 436.536, 252.750 304.168 C 252.610 171.801, 252.496 280.400, 252.496 545.500 M 693.488 368.500 C 693.488 457.050, 693.606 493.127, 693.750 448.671 C 693.894 404.215, 693.894 331.765, 693.750 287.671 C 693.606 243.577, 693.488 279.950, 693.488 368.500 M 415.495 362 L 415.500 511.500 542.750 511.506 L 670 511.511 543.003 511.252 L 416.007 510.992 415.748 361.746 L 415.490 212.500 415.495 362 M 524.465 294.234 C 524.199 294.930, 524.102 322.500, 524.249 355.500 L 524.516 415.500 524.758 354.750 L 525 294 552.461 294 L 579.922 294 580.277 302.750 L 580.631 311.500 580.566 302.500 L 580.500 293.500 552.725 293.234 C 531.044 293.027, 524.843 293.246, 524.465 294.234 M 608.811 293.748 C 616.681 293.917, 629.281 293.917, 636.811 293.747 C 644.340 293.578, 637.900 293.439, 622.500 293.440 C 607.100 293.440, 600.940 293.579, 608.811 293.748 M 615.226 329.250 L 615 348 628.750 347.782 L 642.500 347.563 629.272 347.253 L 616.045 346.942 615.748 328.721 L 615.452 310.500 615.226 329.250 M 464.454 354.500 C 464.453 375.400, 464.586 384.092, 464.748 373.816 C 464.911 363.540, 464.911 346.440, 464.749 335.816 C 464.587 325.192, 464.454 333.600, 464.454 354.500 M 507.446 354.500 C 507.447 372.100, 507.583 379.159, 507.749 370.187 C 507.914 361.215, 507.914 346.815, 507.748 338.187 C 507.581 329.559, 507.446 336.900, 507.446 354.500 M 552.250 347.742 C 555.962 347.934, 562.038 347.934, 565.750 347.742 C 569.462 347.549, 566.425 347.392, 559 347.392 C 551.575 347.392, 548.538 347.549, 552.250 347.742 M 545.435 390 C 545.435 404.025, 545.575 409.762, 545.747 402.750 C 545.919 395.738, 545.919 384.262, 545.747 377.250 C 545.575 370.238, 545.435 375.975, 545.435 390 M 615.435 390 C 615.435 404.025, 615.575 409.762, 615.747 402.750 C 615.919 395.738, 615.919 384.262, 615.747 377.250 C 615.575 370.238, 615.435 375.975, 615.435 390 M 471.750 416.723 C 473.538 416.945, 476.462 416.945, 478.250 416.723 C 480.038 416.502, 478.575 416.320, 475 416.320 C 471.425 416.320, 469.962 416.502, 471.750 416.723 M 397.160 823.250 L 397 827 430.250 826.764 L 463.500 826.528 430.812 826.251 L 398.125 825.973 397.722 822.736 C 397.328 819.567, 397.317 819.577, 397.160 823.250 M 553.750 825.749 C 563.788 825.912, 580.213 825.912, 590.250 825.749 C 600.288 825.585, 592.075 825.452, 572 825.452 C 551.925 825.452, 543.712 825.585, 553.750 825.749 M 712.455 876 C 712.455 897.725, 712.587 906.612, 712.749 895.750 C 712.910 884.888, 712.910 867.112, 712.749 856.250 C 712.587 845.388, 712.455 854.275, 712.455 876 M 688.428 880 C 688.428 892.375, 688.571 897.438, 688.747 891.250 C 688.922 885.063, 688.922 874.938, 688.747 868.750 C 688.571 862.563, 688.428 867.625, 688.428 880" stroke="none" fill="#8e3265" fill-rule="evenodd"/></svg>