<svg xmlns="http://www.w3.org/2000/svg" width="600" height="600" viewBox="0 0 600 600" version="1.1"><path d="M 100.436 188.876 C 94.328 192.601, 89.186 203.844, 85.973 220.500 C 85.337 223.800, 84.574 234.428, 84.277 244.117 L 83.738 261.734 75.619 262.395 C 48.556 264.598, 24.833 269.975, 17.502 275.566 C 10.524 280.889, 10.952 287.128, 18.832 294.949 C 27.153 303.208, 42.407 311.674, 65.578 320.896 C 74.980 324.637, 75.493 324.993, 75.359 327.672 C 75.281 329.227, 74.631 338.903, 73.915 349.173 C 70.141 403.302, 82.734 422.117, 106.112 397.280 C 116.273 386.484, 125.800 370.827, 132.998 353.091 L 136.817 343.682 140.158 348.529 C 152.132 365.895, 168.743 384.179, 178.198 390.398 C 188.128 396.929, 194.403 396.588, 199.047 389.265 C 200.676 386.696, 202.262 382.507, 202.616 379.835 L 203.254 375.027 379.377 374.764 L 555.500 374.500 560.221 372.154 C 565.863 369.349, 571.507 363.368, 574.151 357.393 C 575.975 353.268, 576.061 350.618, 575.788 306.770 L 575.500 260.500 572.839 256 C 569.305 250.023, 565.553 246.593, 559.500 243.804 L 554.500 241.500 391.876 241.238 L 229.252 240.976 228.631 237.097 C 227.870 232.336, 222.696 227.409, 217.417 226.419 C 215.423 226.044, 209.676 225.958, 204.646 226.227 C 193.241 226.836, 181.104 230.784, 165.285 239.030 L 154.071 244.876 149.401 235.700 C 130.286 198.138, 112.749 181.367, 100.436 188.876 M 108.948 216.468 C 102.538 219.955, 97.566 236.637, 96.365 258.686 L 95.702 270.873 89.101 271.485 C 69.696 273.285, 52.472 277.268, 47.632 281.075 C 43.497 284.327, 42.742 286.446, 44.347 290.288 C 47.133 296.956, 58.937 304.564, 80.500 313.588 C 87.149 316.371, 90.379 318.230, 90.138 319.137 C 89.027 323.325, 88.859 361.068, 89.928 366.188 C 91.253 372.530, 94.445 377.917, 97.544 379.042 C 106.209 382.185, 122.257 363.996, 132.212 339.750 C 133.962 335.488, 135.642 332.003, 135.947 332.007 C 136.251 332.011, 137.625 333.767, 139 335.908 C 143.873 343.497, 158.111 359.843, 163.411 363.931 C 174.327 372.353, 181.241 371.124, 184.114 360.250 L 185.237 356 325.119 356 L 465 356 465 308 L 465 260 334.201 260 L 203.402 260 203.813 256.478 C 204.859 247.519, 199.287 243.451, 187.097 244.273 C 178.214 244.871, 169.968 247.490, 157.626 253.632 C 152.732 256.068, 148.635 257.935, 148.523 257.781 C 148.410 257.626, 146.373 253.900, 143.996 249.500 C 131.659 226.661, 121.144 214.863, 113.282 215.040 C 112.302 215.062, 110.352 215.705, 108.948 216.468" stroke="none" fill="#ffffff" fill-rule="evenodd"/><path d="M 107.650 218.003 C 101.089 223.763, 98.151 234.492, 97.314 255.750 C 96.983 264.137, 96.437 271, 96.100 271 C 93.012 271, 68.967 274.246, 63.497 275.402 C 40.997 280.154, 37.703 288.933, 54.213 300.145 C 60.541 304.442, 76.711 312.327, 85.824 315.560 C 90.693 317.287, 91.097 317.664, 90.555 319.974 C 90.230 321.363, 89.688 331.050, 89.351 341.500 C 88.694 361.864, 89.821 370.458, 93.872 376 C 96.683 379.844, 102.447 379.907, 107.633 376.151 C 115.556 370.411, 125.953 355.001, 131.966 340.083 C 133.759 335.637, 135.512 332.028, 135.862 332.063 C 136.213 332.097, 138.975 335.543, 142 339.719 C 149.300 349.799, 161.429 362.660, 166.946 366.171 C 172.286 369.569, 177.841 369.938, 180.440 367.066 C 187.122 359.682, 186.251 332.192, 178.495 305.688 L 175.916 296.876 184.077 287.688 C 204.921 264.223, 209.288 250.361, 197.401 245.394 C 189.521 242.102, 173.297 245.551, 157.427 253.893 L 148.355 258.662 143.584 249.307 C 132.919 228.396, 121.006 215, 113.075 215 C 111.972 215, 109.531 216.351, 107.650 218.003 M 147.037 278.931 C 145.899 281.057, 147.930 284, 150.536 284 C 152.728 284, 154.387 280.171, 152.947 278.436 C 151.261 276.404, 148.255 276.656, 147.037 278.931 M 138.362 288.232 C 136.297 295.435, 126.499 298.185, 119.595 293.500 C 115.146 290.481, 114 290.375, 114 292.986 C 114 296.275, 121.053 300.231, 126.919 300.231 C 134.940 300.231, 142.985 293.735, 142.996 287.250 C 143.002 283.605, 139.475 284.352, 138.362 288.232 M 101.569 287.573 C 99.550 289.593, 99.593 290.322, 101.857 292.371 C 103.600 293.948, 103.856 293.937, 106.016 292.188 C 108.446 290.220, 108.149 288.686, 105.014 287.007 C 103.624 286.263, 102.733 286.410, 101.569 287.573 M 148.455 289.455 C 145.739 292.170, 145.428 294.045, 147.150 297.316 C 148.668 300.201, 149.941 300.966, 153.250 300.985 C 159.563 301.020, 162.339 292.985, 157.365 289.073 C 153.905 286.351, 151.453 286.456, 148.455 289.455 M 103.039 299.189 C 101.918 300.392, 101 302.438, 101 303.734 C 101 306.569, 105.158 311, 107.820 311 C 111.107 311, 115 307.165, 115 303.927 C 115 297.743, 107.247 294.672, 103.039 299.189" stroke="none" fill="#f6d87d" fill-rule="evenodd"/><path d="M 148.455 289.455 C 145.739 292.170, 145.428 294.045, 147.150 297.316 C 148.668 300.201, 149.941 300.966, 153.250 300.985 C 159.563 301.020, 162.339 292.985, 157.365 289.073 C 153.905 286.351, 151.453 286.456, 148.455 289.455 M 103.039 299.189 C 101.918 300.392, 101 302.438, 101 303.734 C 101 306.569, 105.158 311, 107.820 311 C 111.107 311, 115 307.165, 115 303.927 C 115 297.743, 107.247 294.672, 103.039 299.189" stroke="none" fill="#f8aaa3" fill-rule="evenodd"/><path d="M 200.828 265.250 C 197.517 271.966, 191.092 280.587, 182.599 289.710 L 175.887 296.919 178.446 305.017 C 182.093 316.563, 185.085 334.453, 185.308 346.044 L 185.500 355.998 324.750 355.999 L 464 356 464 308 L 464 260 333.708 260 L 203.417 260 200.828 265.250" stroke="none" fill="#b1d5ff" fill-rule="evenodd"/><path d="M 147.389 278.430 C 146.393 281.025, 147.788 283.169, 150.246 282.820 C 151.898 282.585, 152.500 281.833, 152.500 280 C 152.500 278.167, 151.898 277.415, 150.246 277.180 C 148.893 276.988, 147.750 277.488, 147.389 278.430 M 138.940 287.669 C 135.560 296.588, 125.109 299.209, 118.327 292.837 C 116.728 291.335, 115.647 290.953, 114.954 291.646 C 112.067 294.533, 120.117 300.026, 127.136 299.958 C 134.582 299.887, 141.884 294.313, 142.309 288.376 C 142.573 284.706, 140.247 284.218, 138.940 287.669 M 101.389 288.430 C 100.393 291.025, 101.788 293.169, 104.246 292.820 C 105.898 292.585, 106.500 291.833, 106.500 290 C 106.500 288.167, 105.898 287.415, 104.246 287.180 C 102.893 286.988, 101.750 287.488, 101.389 288.430" stroke="none" fill="#565574" fill-rule="evenodd"/><path d="M 96.349 263 C 96.349 267.675, 96.522 269.587, 96.732 267.250 C 96.943 264.913, 96.943 261.087, 96.732 258.750 C 96.522 256.413, 96.349 258.325, 96.349 263 M 464.463 308 C 464.463 334.675, 464.592 345.587, 464.749 332.250 C 464.907 318.913, 464.907 297.087, 464.749 283.750 C 464.592 270.413, 464.463 281.325, 464.463 308 M 185.252 348.500 C 185.263 350.700, 185.468 351.482, 185.707 350.238 C 185.946 348.994, 185.937 347.194, 185.687 346.238 C 185.437 345.282, 185.241 346.300, 185.252 348.500" stroke="none" fill="#dfe7e4" fill-rule="evenodd"/></svg>