<svg xmlns="http://www.w3.org/2000/svg" width="600" height="600" viewBox="0 0 600 600" version="1.1"><path d="M 107.781 217.887 C 105.841 219.591, 103.304 223.190, 102.145 225.885 C 99.213 232.699, 96.911 247.088, 96.688 259.982 L 96.500 270.862 90.500 271.483 C 56.576 274.999, 44 279.409, 44 287.788 C 44 293.453, 51.258 299.553, 67.369 307.430 C 74.591 310.961, 82.840 314.656, 85.701 315.642 L 90.902 317.435 90.201 321.967 C 88.926 330.209, 89.378 366.156, 90.807 370.188 C 94.132 379.569, 100.052 381.643, 107.698 376.104 C 115.482 370.465, 126.079 354.781, 132.169 339.887 C 133.942 335.549, 135.642 332.031, 135.947 332.070 C 136.251 332.108, 139.573 336.337, 143.329 341.467 C 155.548 358.153, 167.956 369.019, 175.023 369.220 C 182.124 369.422, 185.019 361.974, 184.977 343.614 C 184.950 332.149, 181.382 311.912, 178.065 304.413 C 175.378 298.340, 175.459 296.846, 178.635 293.924 C 181.137 291.623, 188.776 282.134, 195.653 272.786 C 200.202 266.603, 203.110 260.598, 203.705 256.159 C 205.702 241.276, 184.689 240.096, 157.832 253.584 C 150.668 257.183, 148.531 257.877, 147.846 256.831 C 147.367 256.099, 144.617 251.088, 141.737 245.696 C 132.490 228.384, 121.964 216.517, 114.828 215.360 C 111.876 214.881, 110.742 215.287, 107.781 217.887 M 147.037 278.931 C 145.899 281.057, 147.930 284, 150.536 284 C 152.728 284, 154.387 280.171, 152.947 278.436 C 151.261 276.404, 148.255 276.656, 147.037 278.931 M 138.362 288.232 C 136.297 295.435, 126.499 298.185, 119.595 293.500 C 115.146 290.481, 114 290.375, 114 292.986 C 114 294.202, 115.585 296.021, 118.090 297.678 C 125.674 302.697, 135.613 300.666, 140.747 293.048 C 143.555 288.881, 143.747 285, 141.145 285 C 139.911 285, 138.979 286.084, 138.362 288.232 M 101.571 287.571 C 100.707 288.436, 100 289.529, 100 290 C 100 291.068, 102.871 294, 103.916 294 C 104.342 294, 105.505 293.100, 106.500 292 C 108.247 290.070, 108.247 289.930, 106.500 288 C 104.318 285.589, 103.615 285.528, 101.571 287.571 M 148.455 289.455 C 143.770 294.139, 146.758 301, 153.482 301 C 159.823 301, 162.413 293.044, 157.365 289.073 C 153.905 286.351, 151.453 286.456, 148.455 289.455 M 103 299 C 100.297 301.703, 100.482 305.572, 103.455 308.545 C 106.453 311.544, 108.905 311.649, 112.365 308.927 C 117.449 304.929, 114.547 297, 108 297 C 106.333 297, 104.111 297.889, 103 299" stroke="none" fill="#f6d87d" fill-rule="evenodd"/><path d="M 148.455 289.455 C 143.770 294.139, 146.758 301, 153.482 301 C 159.823 301, 162.413 293.044, 157.365 289.073 C 153.905 286.351, 151.453 286.456, 148.455 289.455 M 103 299 C 100.297 301.703, 100.482 305.572, 103.455 308.545 C 106.453 311.544, 108.905 311.649, 112.365 308.927 C 117.449 304.929, 114.547 297, 108 297 C 106.333 297, 104.111 297.889, 103 299" stroke="none" fill="#f7b19c" fill-rule="evenodd"/><path d="M 100.436 188.876 C 94.328 192.601, 89.186 203.844, 85.973 220.500 C 85.337 223.800, 84.574 234.428, 84.277 244.117 L 83.738 261.734 75.619 262.395 C 48.556 264.598, 24.833 269.975, 17.502 275.566 C 10.524 280.889, 10.952 287.128, 18.832 294.949 C 27.153 303.208, 42.407 311.674, 65.578 320.896 C 74.980 324.637, 75.493 324.993, 75.359 327.672 C 75.281 329.227, 74.631 338.903, 73.915 349.173 C 70.141 403.302, 82.734 422.117, 106.112 397.280 C 116.273 386.484, 125.800 370.827, 132.998 353.091 L 136.817 343.682 140.158 348.529 C 152.132 365.895, 168.743 384.179, 178.198 390.398 C 188.128 396.929, 194.403 396.588, 199.047 389.265 C 200.676 386.696, 202.262 382.507, 202.616 379.835 L 203.254 375.027 379.377 374.764 L 555.500 374.500 560.221 372.154 C 565.863 369.349, 571.507 363.368, 574.151 357.393 C 575.975 353.268, 576.061 350.618, 575.788 306.770 L 575.500 260.500 572.839 256 C 569.305 250.023, 565.553 246.593, 559.500 243.804 L 554.500 241.500 391.876 241.238 L 229.252 240.976 228.631 237.097 C 227.870 232.336, 222.696 227.409, 217.417 226.419 C 215.423 226.044, 209.676 225.958, 204.646 226.227 C 193.241 226.836, 181.104 230.784, 165.285 239.030 L 154.071 244.876 149.401 235.700 C 130.286 198.138, 112.749 181.367, 100.436 188.876 M 107.781 217.887 C 105.841 219.591, 103.304 223.190, 102.145 225.885 C 99.213 232.699, 96.911 247.088, 96.688 259.982 L 96.500 270.862 90.500 271.483 C 56.576 274.999, 44 279.409, 44 287.788 C 44 293.453, 51.258 299.553, 67.369 307.430 C 74.591 310.961, 82.840 314.656, 85.701 315.642 L 90.902 317.435 90.201 321.967 C 88.926 330.209, 89.378 366.156, 90.807 370.188 C 94.132 379.569, 100.052 381.643, 107.698 376.104 C 115.482 370.465, 126.079 354.781, 132.169 339.887 C 133.942 335.549, 135.642 332.031, 135.947 332.070 C 136.251 332.108, 139.573 336.337, 143.329 341.467 C 155.548 358.153, 167.956 369.019, 175.023 369.220 C 182.124 369.422, 185.019 361.974, 184.977 343.614 C 184.950 332.149, 181.382 311.912, 178.065 304.413 C 175.378 298.340, 175.459 296.846, 178.635 293.924 C 181.137 291.623, 188.776 282.134, 195.653 272.786 C 200.202 266.603, 203.110 260.598, 203.705 256.159 C 205.702 241.276, 184.689 240.096, 157.832 253.584 C 150.668 257.183, 148.531 257.877, 147.846 256.831 C 147.367 256.099, 144.617 251.088, 141.737 245.696 C 132.490 228.384, 121.964 216.517, 114.828 215.360 C 111.876 214.881, 110.742 215.287, 107.781 217.887" stroke="none" fill="#ffffff" fill-rule="evenodd"/><path d="M 147.362 278.500 C 146.498 280.750, 147.701 283, 149.769 283 C 152.586 283, 154.084 281.025, 152.918 278.847 C 151.729 276.626, 148.166 276.404, 147.362 278.500 M 138.940 287.669 C 135.560 296.588, 125.109 299.209, 118.327 292.837 C 116.728 291.335, 115.647 290.953, 114.954 291.646 C 112.067 294.533, 120.117 300.026, 127.136 299.958 C 134.582 299.887, 141.884 294.313, 142.309 288.376 C 142.573 284.706, 140.247 284.218, 138.940 287.669 M 101.389 288.430 C 100.393 291.025, 101.788 293.169, 104.246 292.820 C 105.898 292.585, 106.500 291.833, 106.500 290 C 106.500 288.167, 105.898 287.415, 104.246 287.180 C 102.893 286.988, 101.750 287.488, 101.389 288.430" stroke="none" fill="#565574" fill-rule="evenodd"/></svg>