<svg xmlns="http://www.w3.org/2000/svg" width="600" height="600" viewBox="0 0 600 600" version="1.1"><path d="M 100.436 188.876 C 94.328 192.601, 89.186 203.844, 85.973 220.500 C 85.337 223.800, 84.574 234.428, 84.277 244.117 L 83.738 261.734 75.619 262.395 C 48.556 264.598, 24.833 269.975, 17.502 275.566 C 10.524 280.889, 10.952 287.128, 18.832 294.949 C 27.153 303.208, 42.407 311.674, 65.578 320.896 C 74.980 324.637, 75.493 324.993, 75.359 327.672 C 75.281 329.227, 74.631 338.903, 73.915 349.173 C 70.141 403.302, 82.734 422.117, 106.112 397.280 C 116.273 386.484, 125.800 370.827, 132.998 353.091 L 136.817 343.682 140.158 348.529 C 152.132 365.895, 168.743 384.179, 178.198 390.398 C 188.128 396.929, 194.403 396.588, 199.047 389.265 C 200.676 386.696, 202.262 382.507, 202.616 379.835 L 203.254 375.027 379.377 374.764 L 555.500 374.500 560.221 372.154 C 565.863 369.349, 571.507 363.368, 574.151 357.393 C 575.975 353.268, 576.061 350.618, 575.788 306.770 L 575.500 260.500 572.839 256 C 569.305 250.023, 565.553 246.593, 559.500 243.804 L 554.500 241.500 391.876 241.238 L 229.252 240.976 228.631 237.097 C 227.870 232.336, 222.696 227.409, 217.417 226.419 C 215.423 226.044, 209.676 225.958, 204.646 226.227 C 193.241 226.836, 181.104 230.784, 165.285 239.030 L 154.071 244.876 149.401 235.700 C 130.286 198.138, 112.749 181.367, 100.436 188.876 M 108.948 216.468 C 102.539 219.954, 97.627 236.453, 96.395 258.634 L 95.715 270.871 89.107 271.517 C 67.551 273.624, 52.147 277.322, 47.046 281.615 C 37.635 289.534, 49.096 300.482, 80.500 313.571 C 88.595 316.945, 90.443 318.097, 90.202 319.619 C 89.098 326.599, 88.896 361.220, 89.931 366.188 C 91.249 372.514, 94.455 377.937, 97.500 378.993 C 106.656 382.168, 124.146 361.637, 133.489 336.750 C 134.469 334.137, 135.548 332.017, 135.886 332.038 C 136.224 332.059, 138.202 334.528, 140.283 337.525 C 151.324 353.427, 165.037 367.003, 172.108 369.031 C 178.153 370.765, 182.416 367.237, 184.531 358.750 L 185.217 356 348.608 356 L 512 356 512 308 L 512 260 357.743 260 L 203.486 260 203.834 255.618 C 204.130 251.892, 203.732 250.732, 201.171 247.868 C 198.179 244.522, 198.102 244.500, 189.330 244.518 C 179.096 244.540, 171.713 246.680, 157.646 253.704 C 152.776 256.135, 148.677 257.984, 148.538 257.812 C 148.399 257.641, 145.695 252.775, 142.529 247 C 135.441 234.067, 129.471 225.562, 124.039 220.654 C 117.742 214.965, 113.748 213.857, 108.948 216.468" stroke="none" fill="#ffffff" fill-rule="evenodd"/><path d="M 148.455 289.455 C 145.456 292.453, 145.351 294.905, 148.073 298.365 C 149.468 300.140, 151.101 301, 153.073 301 C 159.552 301, 162.415 293.045, 157.365 289.073 C 153.905 286.351, 151.453 286.456, 148.455 289.455 M 103.039 299.189 C 97.332 305.315, 105.699 314.171, 112.293 308.984 C 114.134 307.536, 115 305.919, 115 303.927 C 115 297.743, 107.247 294.672, 103.039 299.189" stroke="none" fill="#f8aaa3" fill-rule="evenodd"/><path d="M 107.661 217.993 C 100.939 223.895, 97 239.253, 97 259.559 L 97 270.856 91.250 271.432 C 78.006 272.760, 58.468 276.238, 53.662 278.124 C 40.453 283.308, 40.644 290.930, 54.213 300.145 C 60.541 304.442, 76.711 312.327, 85.824 315.560 C 90.693 317.287, 91.097 317.664, 90.555 319.974 C 90.230 321.363, 89.688 331.050, 89.351 341.500 C 88.694 361.864, 89.821 370.458, 93.872 376 C 96.683 379.844, 102.447 379.907, 107.633 376.151 C 115.501 370.452, 125.730 355.335, 132.007 340.132 C 133.854 335.659, 135.620 332.028, 135.932 332.063 C 136.244 332.097, 138.975 335.543, 142 339.719 C 149.300 349.799, 161.429 362.660, 166.946 366.171 C 175.222 371.438, 181.489 369.341, 183.899 360.500 C 186.651 350.401, 184.144 324.991, 178.487 305.662 C 176.335 298.310, 176.119 296.560, 177.200 295.253 C 177.915 294.388, 180.975 291.003, 184 287.730 C 199.285 271.190, 206.603 256.731, 203.049 250.091 C 201.020 246.301, 196.052 244.008, 189.862 244.004 C 182.064 243.999, 168.229 248.215, 157.444 253.884 L 148.389 258.644 143.053 248.328 C 134.568 231.922, 125.744 220.497, 118.790 216.912 C 113.717 214.298, 111.640 214.500, 107.661 217.993 M 147.037 278.931 C 145.899 281.057, 147.930 284, 150.536 284 C 152.728 284, 154.387 280.171, 152.947 278.436 C 151.261 276.404, 148.255 276.656, 147.037 278.931 M 138.362 288.232 C 136.297 295.435, 126.499 298.185, 119.595 293.500 C 115.146 290.481, 114 290.375, 114 292.986 C 114 296.275, 121.053 300.231, 126.919 300.231 C 134.940 300.231, 142.985 293.735, 142.996 287.250 C 143.002 283.605, 139.475 284.352, 138.362 288.232 M 101.569 287.573 C 99.550 289.593, 99.593 290.322, 101.857 292.371 C 103.600 293.948, 103.856 293.937, 106.016 292.188 C 108.446 290.220, 108.149 288.686, 105.014 287.007 C 103.624 286.263, 102.733 286.410, 101.569 287.573 M 148.455 289.455 C 145.456 292.453, 145.351 294.905, 148.073 298.365 C 149.468 300.140, 151.101 301, 153.073 301 C 159.552 301, 162.415 293.045, 157.365 289.073 C 153.905 286.351, 151.453 286.456, 148.455 289.455 M 103.039 299.189 C 97.332 305.315, 105.699 314.171, 112.293 308.984 C 114.134 307.536, 115 305.919, 115 303.927 C 115 297.743, 107.247 294.672, 103.039 299.189" stroke="none" fill="#f6d87d" fill-rule="evenodd"/><path d="M 200.828 265.250 C 197.514 271.972, 191.091 280.588, 182.571 289.740 L 175.831 296.981 177.909 303.240 C 182.589 317.332, 186.896 345.366, 185.517 352.750 L 184.909 356 348.455 356 L 512 356 512 308 L 512 260 357.708 260 L 203.417 260 200.828 265.250" stroke="none" fill="#b1d5ff" fill-rule="evenodd"/><path d="M 147.389 278.430 C 146.393 281.025, 147.788 283.169, 150.246 282.820 C 151.898 282.585, 152.500 281.833, 152.500 280 C 152.500 278.167, 151.898 277.415, 150.246 277.180 C 148.893 276.988, 147.750 277.488, 147.389 278.430 M 138.940 287.669 C 135.560 296.588, 125.109 299.209, 118.327 292.837 C 116.728 291.335, 115.647 290.953, 114.954 291.646 C 112.067 294.533, 120.117 300.026, 127.136 299.958 C 134.582 299.887, 141.884 294.313, 142.309 288.376 C 142.573 284.706, 140.247 284.218, 138.940 287.669 M 101.389 288.430 C 100.393 291.025, 101.788 293.169, 104.246 292.820 C 105.898 292.585, 106.500 291.833, 106.500 290 C 106.500 288.167, 105.898 287.415, 104.246 287.180 C 102.893 286.988, 101.750 287.488, 101.389 288.430" stroke="none" fill="#565574" fill-rule="evenodd"/><path d="M 96.343 263.500 C 96.346 267.900, 96.522 269.576, 96.733 267.224 C 96.945 264.872, 96.942 261.272, 96.727 259.224 C 96.512 257.176, 96.339 259.100, 96.343 263.500 M 185.286 348.500 C 185.294 351.250, 185.488 352.256, 185.718 350.736 C 185.947 349.216, 185.941 346.966, 185.704 345.736 C 185.467 344.506, 185.279 345.750, 185.286 348.500" stroke="none" fill="#dbe4e4" fill-rule="evenodd"/></svg>