<svg xmlns="http://www.w3.org/2000/svg" width="1080" height="1080" viewBox="0 0 1080 1080" version="1.1"><path d="M 197.500 339.951 C 174.660 345.393, 160 391.533, 160 457.975 L 160 475.841 153.750 476.409 C 99.863 481.308, 78.778 484.686, 58.654 491.646 C 41.680 497.516, 33.957 503.039, 31.594 510.996 C 29.908 516.673, 30.623 520.974, 34.292 527.235 C 43.986 543.776, 83.135 566.661, 134 585.520 L 145.500 589.784 145.453 593.142 C 145.427 594.989, 144.527 605.050, 143.453 615.500 C 140.785 641.458, 140.700 689.890, 143.298 704 C 149.704 738.792, 162.857 748.975, 184.524 735.915 C 205.386 723.340, 232.854 682.583, 250.981 637.309 L 256.263 624.118 265.562 637.034 C 295.385 678.456, 319.936 704.085, 338.447 713.121 C 345.167 716.401, 347.388 717, 352.829 717 C 357.560 717, 360.138 716.460, 362.564 714.961 C 368.975 710.998, 374.900 698.771, 376.593 686.011 L 377.258 681 693.080 681 C 924.102 681, 1010.324 680.697, 1014.201 679.870 C 1033.474 675.759, 1048.545 661.361, 1053.505 642.320 C 1055.785 633.567, 1055.728 487.097, 1053.441 477.041 C 1049.677 460.491, 1034.567 444.690, 1018.540 440.542 C 1013.235 439.170, 980.192 439, 717.921 439 L 423.261 439 423.145 433.846 C 422.921 423.877, 416.718 415.816, 406.532 412.258 C 402.608 410.887, 398.308 410.506, 387 410.525 C 374.652 410.546, 370.925 410.947, 361.888 413.222 C 341.785 418.285, 318.049 428.067, 297.711 439.671 C 292.327 442.743, 287.766 445.086, 287.576 444.878 C 287.385 444.670, 284.645 439.325, 281.486 433 C 256.711 383.385, 230.728 349.281, 211.874 341.633 C 207.355 339.799, 201.171 339.076, 197.500 339.951 M 206.439 392.874 C 192.058 401.644, 183.015 434.900, 183.003 479.055 L 183 492.610 167.250 493.890 C 126.771 497.179, 99.711 504.165, 91.049 513.563 C 87.897 516.982, 87 518.744, 87 521.517 C 87 532.574, 101.117 544.796, 130.500 559.175 C 141.825 564.717, 161.500 573.004, 171.233 576.332 C 172.496 576.763, 172.836 577.680, 172.488 579.712 C 169.299 598.332, 168.060 644.631, 170.350 659.570 C 172.945 676.497, 177.472 685.628, 184.785 688.683 C 189.543 690.672, 196.998 688.356, 204.857 682.448 C 219.398 671.517, 237.739 643.118, 249.981 612.577 C 254.297 601.808, 254.381 601.689, 255.926 604.077 C 260.507 611.159, 279.017 634.824, 286.973 643.772 C 307.585 666.954, 324.285 675.917, 333.989 669.008 C 337.342 666.620, 341.354 659.506, 342.451 654 C 342.835 652.075, 343.371 649.712, 343.642 648.750 C 344.110 647.088, 360.100 647, 661.462 647 C 975.178 647, 978.862 646.977, 985.217 645.015 C 998.557 640.894, 1010.128 630.476, 1016.244 617.078 C 1020.543 607.661, 1021.279 597.001, 1020.772 551.500 C 1020.350 513.645, 1020.269 512.324, 1018.019 506.500 C 1011.341 489.211, 996.535 476.136, 980.109 473.021 C 976.524 472.341, 874.944 472, 675.796 472 L 376.865 472 377.575 469.762 C 378.869 465.685, 378.315 457.467, 376.487 453.613 C 369.077 437.999, 336.656 440.043, 298.500 458.531 C 292.450 461.462, 285.363 465.092, 282.751 466.598 C 280.139 468.103, 277.854 469.147, 277.673 468.918 C 277.492 468.688, 273.625 461.525, 269.080 453 C 243.721 405.436, 221.234 383.852, 206.439 392.874" stroke="none" fill="#ffffff" fill-rule="evenodd"/><path d="M 279.190 524.026 C 277.354 525.145, 275.202 527.665, 274.359 529.684 C 268.922 542.696, 286.375 553.662, 295.417 542.916 C 298.904 538.772, 299.583 535.411, 297.905 530.597 C 295.218 522.886, 286.233 519.732, 279.190 524.026 M 198.050 540.783 C 196.153 541.828, 193.742 544.338, 192.693 546.360 C 186.305 558.669, 203.175 570.671, 213.022 560.824 C 223.232 550.614, 210.688 533.822, 198.050 540.783" stroke="none" fill="#f8aaa3" fill-rule="evenodd"/><path d="M 206.500 392.877 C 199.689 397.121, 195.265 403.947, 191.142 416.571 C 186.068 432.106, 183.002 455.829, 183.001 479.566 L 183 492.632 168.250 493.864 C 127.013 497.308, 101.456 503.698, 91.838 512.969 C 87.755 516.905, 87 518.214, 87 521.356 C 87 532.813, 102.267 545.719, 133.212 560.422 C 144.142 565.615, 162.867 573.448, 171.330 576.367 C 172.710 576.843, 173.026 577.675, 172.617 579.749 C 170.731 589.322, 169.500 609.952, 169.500 632 C 169.500 659.957, 170.613 668.519, 175.569 678.704 C 182.029 691.977, 192.849 692.589, 207.318 680.500 C 220.802 669.233, 239.163 639.924, 250.004 612.364 C 252.138 606.939, 254.160 602.594, 254.498 602.710 C 254.835 602.825, 258.299 607.325, 262.194 612.710 C 289.611 650.606, 311.818 671.007, 325.640 670.996 C 336.654 670.988, 342.132 662.636, 343.994 643.009 C 346.150 620.291, 340.280 580.674, 330.024 548.717 L 326.885 538.934 338.552 526.717 C 353.678 510.878, 366.735 493.508, 372.639 481.373 C 376.559 473.315, 377.392 470.573, 377.786 464.435 C 378.206 457.883, 377.982 456.646, 375.659 452.681 C 372.317 446.979, 366.282 444.013, 356.567 443.298 C 339.001 442.005, 307.665 451.828, 284.608 465.856 C 280.817 468.162, 277.627 469.925, 277.520 469.774 C 277.412 469.623, 273.620 462.300, 269.094 453.500 C 245.053 406.763, 221.235 383.695, 206.500 392.877 M 276.055 505.657 C 272.651 509.984, 275.073 515, 280.566 515 C 286.247 515, 288.936 508.936, 285 505 C 282.201 502.201, 278.563 502.468, 276.055 505.657 M 261.737 518.406 C 260.914 519.229, 259.960 521.398, 259.617 523.227 C 258.770 527.744, 253.912 533.380, 248.685 535.910 C 240.299 539.970, 227.563 537.712, 221.595 531.108 C 219.362 528.637, 216.748 528.393, 215.004 530.495 C 212.267 533.794, 221.316 541.873, 230.853 544.646 C 244.951 548.744, 261.447 540.401, 266.067 526.835 C 267.574 522.409, 267.666 521.169, 266.606 519.555 C 264.887 516.937, 263.527 516.616, 261.737 518.406 M 194.205 521.120 C 192.983 521.572, 191.459 523.093, 190.818 524.500 C 189.835 526.657, 189.970 527.485, 191.675 529.779 C 194.238 533.226, 197.856 533.714, 200.765 531.005 C 203.363 528.584, 203.592 526.290, 201.531 523.347 C 199.748 520.802, 197.178 520.020, 194.205 521.120 M 279.190 524.026 C 277.354 525.145, 275.202 527.665, 274.359 529.684 C 268.922 542.696, 286.375 553.662, 295.417 542.916 C 298.904 538.772, 299.583 535.411, 297.905 530.597 C 295.218 522.886, 286.233 519.732, 279.190 524.026 M 198.050 540.783 C 196.153 541.828, 193.742 544.338, 192.693 546.360 C 186.305 558.669, 203.175 570.671, 213.022 560.824 C 223.232 550.614, 210.688 533.822, 198.050 540.783" stroke="none" fill="#f6d87d" fill-rule="evenodd"/><path d="M 372.790 481.773 C 366.042 495.709, 354.963 510.143, 336.874 528.563 L 326.992 538.626 329.556 546.063 C 339.045 573.584, 345.871 614.464, 344.776 637.206 L 344.304 647 660.442 647 C 1006.957 647, 981.777 647.436, 993.425 641.230 C 1000.121 637.663, 1011.080 626.749, 1014.248 620.494 C 1019.927 609.279, 1020.002 608.481, 1019.979 559.068 C 1019.958 513.906, 1019.937 513.441, 1017.623 506.887 C 1011.290 488.946, 996.082 476.004, 977.859 473.047 C 973.590 472.354, 873.899 472.020, 674.500 472.030 L 377.500 472.046 372.790 481.773" stroke="none" fill="#b1d5ff" fill-rule="evenodd"/><path d="M 277.223 504.557 C 274.478 506.479, 274.274 511.033, 276.829 513.345 C 282.228 518.231, 289.453 511.388, 284.945 505.657 C 282.561 502.627, 280.414 502.321, 277.223 504.557 M 261.206 519.689 C 260.695 520.685, 259.983 522.729, 259.624 524.232 C 258.724 527.997, 253.506 533.690, 248.595 536.264 C 245.734 537.763, 242.692 538.411, 238.500 538.413 C 231.846 538.417, 227.430 536.606, 222.356 531.794 C 218.611 528.244, 215.632 528.384, 215.196 532.132 C 214.959 534.167, 215.767 535.440, 218.844 537.876 C 225.348 543.028, 230.679 544.954, 238.500 544.977 C 250.842 545.015, 261.456 538.227, 265.464 527.734 C 267.634 522.051, 267.220 518.603, 264.318 518.189 C 262.990 518, 261.771 518.588, 261.206 519.689 M 192.517 522.625 C 190.053 525.089, 190.930 530.119, 194.135 531.909 C 196.494 533.227, 197.043 533.202, 199.385 531.667 C 202.694 529.499, 203.106 523.662, 200.066 522.035 C 197.266 520.537, 194.380 520.762, 192.517 522.625" stroke="none" fill="#585774" fill-rule="evenodd"/><path d="M 1020.453 560 C 1020.453 580.625, 1020.586 589.063, 1020.749 578.750 C 1020.911 568.438, 1020.911 551.563, 1020.749 541.250 C 1020.586 530.938, 1020.453 539.375, 1020.453 560" stroke="none" fill="#d7e2e5" fill-rule="evenodd"/></svg>