<svg xmlns="http://www.w3.org/2000/svg" width="600" height="600" viewBox="0 0 600 600" version="1.1"><path d="M 201.402 264.226 C 198.875 269.839, 192.324 278.683, 183.318 288.639 L 175.956 296.778 178.958 307.639 C 183.145 322.790, 185 334.604, 185 346.131 L 185 356 216 356 L 247 356 247 308 L 247 260 225.152 260 L 203.304 260 201.402 264.226" stroke="none" fill="#b1d5ff" fill-rule="evenodd"/><path d="M 100.436 188.876 C 94.328 192.601, 89.186 203.844, 85.973 220.500 C 85.337 223.800, 84.574 234.428, 84.277 244.117 L 83.738 261.734 75.619 262.395 C 48.556 264.598, 24.833 269.975, 17.502 275.566 C 10.524 280.889, 10.952 287.128, 18.832 294.949 C 27.153 303.208, 42.407 311.674, 65.578 320.896 C 74.980 324.637, 75.493 324.993, 75.359 327.672 C 75.281 329.227, 74.631 338.903, 73.915 349.173 C 70.141 403.302, 82.734 422.117, 106.112 397.280 C 116.273 386.484, 125.800 370.827, 132.998 353.091 L 136.817 343.682 140.158 348.529 C 152.132 365.895, 168.743 384.179, 178.198 390.398 C 188.128 396.929, 194.403 396.588, 199.047 389.265 C 200.676 386.696, 202.262 382.507, 202.616 379.835 L 203.254 375.027 379.377 374.764 L 555.500 374.500 560.221 372.154 C 565.863 369.349, 571.507 363.368, 574.151 357.393 C 575.975 353.268, 576.061 350.618, 575.788 306.770 L 575.500 260.500 572.839 256 C 569.305 250.023, 565.553 246.593, 559.500 243.804 L 554.500 241.500 391.876 241.238 L 229.252 240.976 228.631 237.097 C 227.870 232.336, 222.696 227.409, 217.417 226.419 C 215.423 226.044, 209.676 225.958, 204.646 226.227 C 193.241 226.836, 181.104 230.784, 165.285 239.030 L 154.071 244.876 149.401 235.700 C 130.286 198.138, 112.749 181.367, 100.436 188.876 M 106.400 218.538 C 100.403 224.896, 96.029 243.667, 96.008 263.133 L 96 270.765 88.250 271.444 C 66.267 273.370, 50.904 277.249, 46.053 282.101 C 42.632 285.522, 42.372 286.901, 44.415 290.800 C 47.872 297.399, 59.343 305.004, 77.029 312.424 C 83.029 314.941, 88.451 317, 89.078 317 C 89.910 317, 90.009 320.041, 89.442 328.250 C 88.381 343.614, 88.654 361.018, 90.063 367.802 C 91.660 375.497, 96.439 380.490, 101.233 379.474 C 110.808 377.443, 124.437 359.980, 132.916 338.877 L 135.686 331.982 142.585 341.241 C 156.852 360.388, 169.905 371.058, 177.122 369.473 C 180.497 368.732, 183.623 364.462, 184.608 359.250 L 185.223 356 216.111 356 L 247 356 247 308 L 247 260 225.201 260 L 203.402 260 203.810 256.503 C 204.853 247.566, 200.681 244.010, 189.148 244.004 C 180.493 243.999, 167.987 247.790, 156.087 254.026 C 151.975 256.181, 148.537 257.844, 148.448 257.722 C 148.359 257.600, 146.404 253.851, 144.105 249.390 C 138.847 239.193, 131.528 228.177, 126.449 222.818 C 118.056 213.961, 111.946 212.657, 106.400 218.538" stroke="none" fill="#ffffff" fill-rule="evenodd"/><path d="M 107.584 218.060 C 101.131 223.727, 97.011 240.130, 97.004 260.189 L 97 270.877 92.750 271.403 C 90.412 271.692, 85.800 272.192, 82.500 272.514 C 72.301 273.510, 58.739 276.172, 53.500 278.208 C 40.460 283.274, 40.711 290.975, 54.213 300.145 C 60.541 304.442, 76.711 312.327, 85.824 315.560 C 90.693 317.287, 91.097 317.664, 90.555 319.974 C 90.230 321.363, 89.688 331.050, 89.351 341.500 C 88.694 361.864, 89.821 370.458, 93.872 376 C 96.708 379.879, 102.446 379.909, 107.742 376.072 C 115.711 370.299, 125.409 355.852, 131.936 340.029 L 135.620 331.097 142.034 339.781 C 150.185 350.818, 161.220 362.503, 166.946 366.160 C 169.746 367.949, 172.742 369, 175.041 369 C 182.036 369, 184.891 362.630, 184.956 346.881 C 185.006 334.691, 183.239 323.129, 178.958 307.639 L 175.956 296.778 183.297 288.639 C 196.856 273.608, 202.539 264.643, 203.651 256.530 C 205.726 241.388, 185.505 239.924, 158.844 253.284 L 148.188 258.624 145.344 252.609 C 141.711 244.926, 133.245 231.360, 128.320 225.332 C 123.978 220.016, 116.704 215, 113.339 215 C 112.091 215, 109.501 216.377, 107.584 218.060 M 147.037 278.931 C 145.899 281.057, 147.930 284, 150.536 284 C 152.728 284, 154.387 280.171, 152.947 278.436 C 151.261 276.404, 148.255 276.656, 147.037 278.931 M 138.362 288.232 C 136.297 295.435, 126.499 298.185, 119.595 293.500 C 115.146 290.481, 114 290.375, 114 292.986 C 114 296.275, 121.053 300.231, 126.919 300.231 C 134.940 300.231, 142.985 293.735, 142.996 287.250 C 143.002 283.605, 139.475 284.352, 138.362 288.232 M 101.569 287.573 C 99.550 289.593, 99.593 290.322, 101.857 292.371 C 103.600 293.948, 103.856 293.937, 106.016 292.188 C 108.446 290.220, 108.149 288.686, 105.014 287.007 C 103.624 286.263, 102.733 286.410, 101.569 287.573 M 148.455 289.455 C 145.739 292.170, 145.428 294.045, 147.150 297.316 C 148.668 300.201, 149.941 300.966, 153.250 300.985 C 159.563 301.020, 162.339 292.985, 157.365 289.073 C 153.905 286.351, 151.453 286.456, 148.455 289.455 M 103.039 299.189 C 101.918 300.392, 101 302.438, 101 303.734 C 101 306.569, 105.158 311, 107.820 311 C 111.107 311, 115 307.165, 115 303.927 C 115 297.743, 107.247 294.672, 103.039 299.189" stroke="none" fill="#f6d87d" fill-rule="evenodd"/><path d="M 148.455 289.455 C 145.739 292.170, 145.428 294.045, 147.150 297.316 C 148.668 300.201, 149.941 300.966, 153.250 300.985 C 159.563 301.020, 162.339 292.985, 157.365 289.073 C 153.905 286.351, 151.453 286.456, 148.455 289.455 M 103.039 299.189 C 101.918 300.392, 101 302.438, 101 303.734 C 101 306.569, 105.158 311, 107.820 311 C 111.107 311, 115 307.165, 115 303.927 C 115 297.743, 107.247 294.672, 103.039 299.189" stroke="none" fill="#f8aaa3" fill-rule="evenodd"/><path d="M 147.389 278.430 C 146.393 281.025, 147.788 283.169, 150.246 282.820 C 151.898 282.585, 152.500 281.833, 152.500 280 C 152.500 278.167, 151.898 277.415, 150.246 277.180 C 148.893 276.988, 147.750 277.488, 147.389 278.430 M 138.940 287.669 C 135.560 296.588, 125.109 299.209, 118.327 292.837 C 116.728 291.335, 115.647 290.953, 114.954 291.646 C 112.067 294.533, 120.117 300.026, 127.136 299.958 C 134.582 299.887, 141.884 294.313, 142.309 288.376 C 142.573 284.706, 140.247 284.218, 138.940 287.669 M 101.389 288.430 C 100.393 291.025, 101.788 293.169, 104.246 292.820 C 105.898 292.585, 106.500 291.833, 106.500 290 C 106.500 288.167, 105.898 287.415, 104.246 287.180 C 102.893 286.988, 101.750 287.488, 101.389 288.430" stroke="none" fill="#565574" fill-rule="evenodd"/><path d="M 96.365 261.500 C 96.368 267, 96.536 269.122, 96.738 266.216 C 96.941 263.311, 96.939 258.811, 96.734 256.216 C 96.528 253.622, 96.363 256, 96.365 261.500 M 156.500 358 C 159.209 360.750, 161.650 363, 161.925 363 C 162.200 363, 160.209 360.750, 157.500 358 C 154.791 355.250, 152.350 353, 152.075 353 C 151.800 353, 153.791 355.250, 156.500 358" stroke="none" fill="#f4f2e4" fill-rule="evenodd"/></svg>