<svg xmlns="http://www.w3.org/2000/svg" width="600" height="600" viewBox="0 0 600 600" version="1.1"><path d="M 113.500 186.987 C 106.117 188.578, 101.674 191.141, 95.548 197.340 C 91.720 201.214, 88.187 206.097, 86.029 210.500 C 84.141 214.350, 82.473 217.677, 82.322 217.893 C 82.170 218.110, 78.931 215.347, 75.123 211.755 C 65.410 202.592, 57.020 198.604, 46.524 198.162 C 37.023 197.761, 30.527 199.874, 22.365 206.023 C 15.816 210.956, 13.286 215.112, 11.439 223.969 C 6.916 245.661, 21.888 278.682, 46.969 302.334 C 65.013 319.351, 91.023 334.697, 100.310 333.806 L 103.500 333.500 104.126 339.500 C 105.709 354.677, 113.097 379.526, 117.267 383.696 C 119.451 385.880, 128.961 387.104, 144 387.137 C 165.333 387.184, 181.126 383.543, 199.500 374.343 C 208.463 369.856, 216.762 364.281, 222.533 358.871 L 225.566 356.029 394.533 355.764 L 563.500 355.500 568.122 353.363 C 574.719 350.312, 580.540 344.665, 583.469 338.473 L 586 333.124 586 285.590 L 586 238.057 583.634 232.707 C 580.983 226.714, 575.497 220.869, 569.500 217.648 L 565.500 215.500 365.500 215.500 L 165.500 215.500 161.304 217.743 C 158.997 218.976, 156.911 219.651, 156.670 219.243 C 156.428 218.834, 155.931 216.688, 155.565 214.473 C 154.513 208.105, 147.943 196.908, 143.427 193.784 C 135.643 188.401, 121.667 185.227, 113.500 186.987 M 117.500 208.893 C 108.542 211.171, 100.172 218.528, 95.349 228.362 L 92.654 233.855 86.884 228.633 C 77.907 220.510, 73.171 218.500, 63 218.500 C 56.041 218.500, 53.684 218.924, 50 220.837 C 43.410 224.260, 39.256 228.701, 36.998 234.736 C 34.478 241.470, 34.471 247.611, 36.971 257.386 C 40.921 272.829, 48.987 286.075, 62.955 300.053 C 78.424 315.534, 102.494 329.947, 107.977 327.012 C 109.582 326.154, 109.851 326.668, 110.476 331.775 C 112.063 344.754, 117.217 362.018, 120.992 367 L 122.886 369.500 142.193 369.494 C 159.505 369.489, 162.317 369.247, 169.404 367.149 C 186.648 362.044, 199.716 354.327, 211.161 342.490 L 217.436 336 363.227 336 L 509.018 336 508.759 285.250 L 508.500 234.500 341.536 234.247 C 158.012 233.969, 167.708 233.664, 158.506 239.996 C 156.105 241.648, 153.947 243, 153.712 243 C 153.477 243, 152.997 240.247, 152.645 236.882 C 151.862 229.386, 147.903 220.260, 143.664 216.180 C 138.238 210.957, 124.467 207.122, 117.500 208.893" stroke="none" fill="#ffffff" fill-rule="evenodd"/><path d="M 114.841 209.975 C 107.314 212.249, 99.326 220.487, 94.860 230.583 L 92.862 235.100 86.594 229.237 C 74.998 218.389, 63.444 215.361, 52.597 220.327 C 44.211 224.166, 40.475 227.467, 37.996 233.230 C 36.097 237.646, 35.841 239.685, 36.218 247.443 C 37.055 264.668, 44.987 280.575, 61.158 297.461 C 74.485 311.377, 88.905 321.418, 102.294 326.105 C 108.700 328.348, 109.402 327.207, 110.109 313.395 C 111.297 290.167, 117.433 273.363, 128.904 261.919 C 136.188 254.653, 141.879 252.297, 149.175 253.530 L 153 254.176 153 246.298 C 153 233.015, 148.512 220.018, 142.285 215.268 C 135.844 210.356, 122.257 207.735, 114.841 209.975" stroke="none" fill="#ffc7c2" fill-rule="evenodd"/><path d="M 139.500 254.210 C 133.431 255.877, 123.233 266.572, 118.685 276.040 C 112.448 289.022, 110.500 298.982, 110.577 317.500 C 110.652 335.879, 112.662 347.523, 117.952 360.230 C 120.956 367.446, 121.396 367.990, 124.831 368.720 C 126.849 369.149, 135.475 369.472, 144 369.438 C 162.739 369.363, 171.351 367.449, 186.522 359.986 C 207.275 349.776, 222.358 332.739, 223.784 317.894 C 224.630 309.094, 216.926 296.706, 207.500 291.710 C 201.908 288.746, 189.817 288.799, 181.535 291.822 C 178.254 293.020, 175.495 294, 175.405 294 C 175.315 294, 175.211 290.797, 175.174 286.882 C 175.092 278.115, 174.397 274.766, 171.466 269 C 165.648 257.554, 151.371 250.949, 139.500 254.210" stroke="none" fill="#b1d5ff" fill-rule="evenodd"/><path d="M 163.500 237.457 C 160.750 238.798, 157.235 240.970, 155.689 242.284 C 153.212 244.389, 152.914 245.248, 153.189 249.503 C 153.472 253.896, 153.781 254.430, 156.612 255.416 C 164.563 258.185, 171.744 266.248, 174.054 275 C 174.707 277.475, 175.299 282.766, 175.371 286.757 C 175.478 292.791, 175.753 293.907, 177 293.382 C 197.613 284.702, 213.255 289.325, 221.372 306.494 C 225.077 314.331, 224.753 320.838, 220.214 329.750 L 217.030 336 362.515 336 L 508 336 508 285.500 L 508 235 338.250 235.010 L 168.500 235.020 163.500 237.457" stroke="none" fill="#fefa9d" fill-rule="evenodd"/><path d="" stroke="none" fill="#fcfc9c" fill-rule="evenodd"/><path d="M 87.916 230.207 C 92.053 234.617, 94.105 235.466, 93.921 232.691 C 93.870 231.923, 93.652 231.978, 93.306 232.845 C 92.932 233.783, 91.367 232.875, 88.135 229.845 L 83.500 225.500 87.916 230.207 M 340.741 234.749 L 507.982 235.006 508.255 285.253 L 508.527 335.500 508.514 285 L 508.500 234.500 341 234.496 L 173.500 234.491 340.741 234.749 M 35.320 245 C 35.320 248.575, 35.502 250.037, 35.723 248.250 C 35.945 246.463, 35.945 243.537, 35.723 241.750 C 35.502 239.963, 35.320 241.425, 35.320 245 M 62.500 300 C 66.320 303.850, 69.671 307, 69.946 307 C 70.221 307, 67.320 303.850, 63.500 300 C 59.680 296.150, 56.329 293, 56.054 293 C 55.779 293, 58.680 296.150, 62.500 300" stroke="none" fill="#fbf0ef" fill-rule="evenodd"/></svg>