<svg xmlns="http://www.w3.org/2000/svg" width="600" height="600" viewBox="0 0 600 600" version="1.1"><path d="M 113.500 186.987 C 106.117 188.578, 101.674 191.141, 95.548 197.340 C 91.720 201.214, 88.187 206.097, 86.029 210.500 C 84.141 214.350, 82.473 217.677, 82.322 217.893 C 82.170 218.110, 78.931 215.347, 75.123 211.755 C 65.410 202.592, 57.020 198.604, 46.524 198.162 C 37.023 197.761, 30.527 199.874, 22.365 206.023 C 15.816 210.956, 13.286 215.112, 11.439 223.969 C 6.916 245.661, 21.888 278.682, 46.969 302.334 C 65.013 319.351, 91.023 334.697, 100.310 333.806 L 103.500 333.500 104.126 339.500 C 105.709 354.677, 113.097 379.526, 117.267 383.696 C 119.451 385.880, 128.961 387.104, 144 387.137 C 165.333 387.184, 181.126 383.543, 199.500 374.343 C 208.463 369.856, 216.762 364.281, 222.533 358.871 L 225.566 356.029 394.533 355.764 L 563.500 355.500 568.122 353.363 C 574.719 350.312, 580.540 344.665, 583.469 338.473 L 586 333.124 586 285.590 L 586 238.057 583.634 232.707 C 580.983 226.714, 575.497 220.869, 569.500 217.648 L 565.500 215.500 365.500 215.500 L 165.500 215.500 161.304 217.743 C 158.997 218.976, 156.911 219.651, 156.670 219.243 C 156.428 218.834, 155.931 216.688, 155.565 214.473 C 154.513 208.105, 147.943 196.908, 143.427 193.784 C 135.643 188.401, 121.667 185.227, 113.500 186.987 M 116.500 208.888 C 108.174 211.046, 101.212 217.299, 95.872 227.415 L 92.456 233.886 87.478 229.113 C 77.736 219.774, 67.112 215.707, 57.966 217.818 C 48.156 220.083, 39.730 226.783, 36.648 234.770 C 31.991 246.839, 37.421 267.209, 50.240 285.753 C 56.739 295.154, 71.442 309.161, 82.752 316.726 C 93.439 323.875, 105.418 328.844, 108.031 327.213 C 109.575 326.249, 109.828 326.787, 110.429 332.317 C 111.478 341.966, 114.616 354.123, 118.026 361.750 L 121.141 368.717 129.321 369.860 C 140.123 371.369, 147.600 371.277, 158.445 369.499 C 173.190 367.083, 187.420 361.555, 198.860 353.799 C 206.279 348.770, 216.298 337.948, 220.011 330.955 C 222.966 325.390, 223.427 323.588, 223.354 317.883 C 223.270 311.397, 220.399 303.112, 216.809 299 C 214.562 296.426, 208.153 291.962, 204.532 290.449 C 199.690 288.426, 189.582 288.685, 183 291 C 179.975 292.064, 177.050 292.945, 176.500 292.957 C 175.940 292.970, 175.414 289.767, 175.305 285.674 C 174.936 271.861, 168.858 260.863, 159.125 256.395 L 153.410 253.772 153.471 247.136 C 153.546 239.050, 151.428 227.798, 148.893 222.806 C 146.005 217.121, 140.704 212.585, 134.801 210.747 C 128.115 208.666, 120.385 207.880, 116.500 208.888" stroke="none" fill="#ffffff" fill-rule="evenodd"/><path d="M 113.885 210.380 C 106.139 213.148, 99.925 219.554, 95.402 229.432 L 92.837 235.036 85.935 228.646 C 71.349 215.142, 54.957 214.541, 42.078 227.040 C 37.427 231.554, 36.013 235.861, 36.006 245.540 C 35.987 269.546, 54.546 297.292, 83.466 316.495 C 93.505 323.160, 103.805 327.517, 107.396 326.616 C 109.975 325.968, 110 325.869, 110 316.388 C 110 280.640, 129.054 250.130, 149.249 253.542 L 153.272 254.222 152.774 243.861 C 152.025 228.273, 147.369 217.311, 139.846 213.420 C 131.539 209.125, 120.888 207.877, 113.885 210.380" stroke="none" fill="#ffc7c2" fill-rule="evenodd"/><path d="M 140 254.176 C 131.856 256.494, 122.319 267.040, 117.078 279.525 C 107.270 302.892, 107.962 338.067, 118.706 362.228 C 121.863 369.326, 122.556 369.524, 144 369.438 C 162.739 369.363, 171.351 367.449, 186.522 359.986 C 202.532 352.110, 214.345 341.169, 220.563 328.460 C 222.990 323.500, 223.219 322.156, 222.698 315.943 C 221.952 307.045, 218.333 300.125, 212.063 295.609 C 206.470 291.581, 200.029 288.988, 195.730 289.036 C 191.783 289.079, 182.135 291.322, 179.247 292.868 C 178.084 293.490, 176.714 294, 176.204 294 C 175.695 294, 175.048 290.063, 174.768 285.250 C 174.355 278.150, 173.657 275.231, 171.067 269.772 C 167.205 261.630, 163.007 257.940, 154.384 255.110 C 147.375 252.808, 145.284 252.673, 140 254.176" stroke="none" fill="#b4d4fb" fill-rule="evenodd"/><path d="M 60.750 217.706 C 61.987 217.944, 64.013 217.944, 65.250 217.706 C 66.487 217.467, 65.475 217.272, 63 217.272 C 60.525 217.272, 59.513 217.467, 60.750 217.706 M 87.916 230.207 C 92.053 234.617, 94.105 235.466, 93.921 232.691 C 93.870 231.923, 93.652 231.978, 93.306 232.845 C 92.932 233.783, 91.367 232.875, 88.135 229.845 L 83.500 225.500 87.916 230.207 M 35.336 245 C 35.336 249.125, 35.513 250.813, 35.728 248.750 C 35.944 246.688, 35.944 243.313, 35.728 241.250 C 35.513 239.188, 35.336 240.875, 35.336 245 M 175.272 288 C 175.272 290.475, 175.467 291.488, 175.706 290.250 C 175.944 289.012, 175.944 286.988, 175.706 285.750 C 175.467 284.512, 175.272 285.525, 175.272 288 M 67 304.500 C 68.866 306.425, 70.617 308, 70.892 308 C 71.167 308, 69.866 306.425, 68 304.500 C 66.134 302.575, 64.383 301, 64.108 301 C 63.833 301, 65.134 302.575, 67 304.500 M 209.453 344.250 L 205.500 348.500 209.750 344.547 C 213.702 340.871, 214.460 340, 213.703 340 C 213.540 340, 211.627 341.913, 209.453 344.250 M 138.250 370.735 C 140.863 370.941, 145.137 370.941, 147.750 370.735 C 150.363 370.529, 148.225 370.360, 143 370.360 C 137.775 370.360, 135.637 370.529, 138.250 370.735" stroke="none" fill="#fbfbfb" fill-rule="evenodd"/></svg>