<svg xmlns="http://www.w3.org/2000/svg" width="600" height="600" viewBox="0 0 600 600" version="1.1"><path d="M 113.500 186.987 C 106.117 188.578, 101.674 191.141, 95.548 197.340 C 91.720 201.214, 88.187 206.097, 86.029 210.500 C 84.141 214.350, 82.473 217.677, 82.322 217.893 C 82.170 218.110, 78.931 215.347, 75.123 211.755 C 65.410 202.592, 57.020 198.604, 46.524 198.162 C 37.023 197.761, 30.527 199.874, 22.365 206.023 C 15.816 210.956, 13.286 215.112, 11.439 223.969 C 6.916 245.661, 21.888 278.682, 46.969 302.334 C 65.013 319.351, 91.023 334.697, 100.310 333.806 L 103.500 333.500 104.126 339.500 C 105.709 354.677, 113.097 379.526, 117.267 383.696 C 119.451 385.880, 128.961 387.104, 144 387.137 C 165.333 387.184, 181.126 383.543, 199.500 374.343 C 208.463 369.856, 216.762 364.281, 222.533 358.871 L 225.566 356.029 394.533 355.764 L 563.500 355.500 568.122 353.363 C 574.719 350.312, 580.540 344.665, 583.469 338.473 L 586 333.124 586 285.590 L 586 238.057 583.634 232.707 C 580.983 226.714, 575.497 220.869, 569.500 217.648 L 565.500 215.500 365.500 215.500 L 165.500 215.500 161.304 217.743 C 158.997 218.976, 156.911 219.651, 156.670 219.243 C 156.428 218.834, 155.931 216.688, 155.565 214.473 C 154.513 208.105, 147.943 196.908, 143.427 193.784 C 135.643 188.401, 121.667 185.227, 113.500 186.987 M 116.500 208.888 C 108.174 211.046, 101.212 217.299, 95.872 227.415 L 92.456 233.886 87.478 229.113 C 77.736 219.774, 67.112 215.707, 57.966 217.818 C 48.156 220.083, 39.730 226.783, 36.648 234.770 C 31.991 246.839, 37.421 267.209, 50.240 285.753 C 56.739 295.154, 71.442 309.161, 82.752 316.726 C 93.439 323.875, 105.418 328.844, 108.031 327.213 C 109.575 326.249, 109.828 326.787, 110.429 332.317 C 111.478 341.966, 114.616 354.123, 118.026 361.750 L 121.141 368.717 129.321 369.860 C 149.110 372.625, 169.246 369.324, 187.360 360.345 C 197.413 355.362, 202.646 351.545, 210.678 343.336 L 217.856 336 346.928 336 L 476 336 476 285 L 476 234 323.511 234 C 175.385 234, 170.876 234.055, 165.952 235.926 C 163.163 236.986, 159.365 239.010, 157.511 240.424 L 154.141 242.995 152.994 237.247 C 150.428 224.387, 147.666 218.604, 142 214.226 C 136.809 210.215, 122.739 207.270, 116.500 208.888" stroke="none" fill="#ffffff" fill-rule="evenodd"/><path d="M 113.885 210.380 C 106.139 213.148, 99.925 219.554, 95.402 229.432 L 92.837 235.036 85.935 228.646 C 71.349 215.142, 54.957 214.541, 42.078 227.040 C 37.427 231.554, 36.013 235.861, 36.006 245.540 C 35.987 269.546, 54.546 297.292, 83.466 316.495 C 93.308 323.030, 103.817 327.514, 107.262 326.649 C 109.691 326.039, 109.743 325.809, 110.285 313.264 C 111.295 289.910, 117.217 273.578, 128.904 261.919 C 136.235 254.606, 141.870 252.295, 149.311 253.552 L 153.272 254.222 152.774 243.861 C 152.025 228.273, 147.369 217.311, 139.846 213.420 C 131.539 209.125, 120.888 207.877, 113.885 210.380" stroke="none" fill="#ffc7c2" fill-rule="evenodd"/><path d="M 139.500 254.210 C 133.436 255.876, 123.233 266.572, 118.692 276.024 C 107.393 299.545, 107.355 336.987, 118.606 362.057 C 121.879 369.350, 122.477 369.524, 144 369.438 C 162.739 369.363, 171.351 367.449, 186.522 359.986 C 207.275 349.776, 222.358 332.739, 223.784 317.894 C 224.630 309.094, 216.926 296.706, 207.500 291.710 C 201.908 288.746, 189.817 288.799, 181.535 291.822 C 178.254 293.020, 175.389 294, 175.168 294 C 174.947 294, 174.990 292.833, 175.263 291.407 C 175.535 289.980, 175.389 285.516, 174.937 281.487 C 173.567 269.272, 167.617 260.360, 158 256.117 C 152.273 253.590, 144.626 252.802, 139.500 254.210" stroke="none" fill="#b1d5ff" fill-rule="evenodd"/><path d="M 164.180 237.004 C 156.284 240.588, 154.558 242.548, 153.988 248.582 C 153.481 253.952, 153.505 254.012, 156.659 255.052 C 168.095 258.827, 175.956 271.922, 175.988 287.250 C 175.995 290.413, 176.113 292.997, 176.250 292.992 C 176.387 292.988, 179.425 292.092, 183 291 C 196.417 286.903, 208.654 289.286, 215.759 297.378 C 224.817 307.694, 226.397 317.997, 220.668 329.380 L 217.336 336 346.668 336 L 476 336 476 285.500 L 476 235 322.250 235.022 C 171.694 235.043, 168.410 235.085, 164.180 237.004" stroke="none" fill="#fefa9d" fill-rule="evenodd"/><path d="M 60.750 217.706 C 61.987 217.944, 64.013 217.944, 65.250 217.706 C 66.487 217.467, 65.475 217.272, 63 217.272 C 60.525 217.272, 59.513 217.467, 60.750 217.706 M 87.916 230.207 C 92.053 234.617, 94.105 235.466, 93.921 232.691 C 93.870 231.923, 93.652 231.978, 93.306 232.845 C 92.932 233.783, 91.367 232.875, 88.135 229.845 L 83.500 225.500 87.916 230.207 M 246.250 234.750 C 288.463 234.894, 357.538 234.894, 399.750 234.750 C 441.963 234.606, 407.425 234.487, 323 234.487 C 238.575 234.487, 204.038 234.606, 246.250 234.750 M 35.336 245 C 35.336 249.125, 35.513 250.813, 35.728 248.750 C 35.944 246.688, 35.944 243.313, 35.728 241.250 C 35.513 239.188, 35.336 240.875, 35.336 245 M 67 304.500 C 68.866 306.425, 70.617 308, 70.892 308 C 71.167 308, 69.866 306.425, 68 304.500 C 66.134 302.575, 64.383 301, 64.108 301 C 63.833 301, 65.134 302.575, 67 304.500 M 209.453 344.250 L 205.500 348.500 209.750 344.547 C 213.702 340.871, 214.460 340, 213.703 340 C 213.540 340, 211.627 341.913, 209.453 344.250 M 138.250 370.735 C 140.863 370.941, 145.137 370.941, 147.750 370.735 C 150.363 370.529, 148.225 370.360, 143 370.360 C 137.775 370.360, 135.637 370.529, 138.250 370.735" stroke="none" fill="#fbfbfb" fill-rule="evenodd"/><path d="M 153.286 248.500 C 153.294 251.250, 153.488 252.256, 153.718 250.736 C 153.947 249.216, 153.941 246.966, 153.704 245.736 C 153.467 244.506, 153.279 245.750, 153.286 248.500 M 175.252 283.500 C 175.263 285.700, 175.468 286.482, 175.707 285.238 C 175.946 283.994, 175.937 282.194, 175.687 281.238 C 175.437 280.282, 175.241 281.300, 175.252 283.500 M 214 296.500 C 215.866 298.425, 217.617 300, 217.892 300 C 218.167 300, 216.866 298.425, 215 296.500 C 213.134 294.575, 211.383 293, 211.108 293 C 210.833 293, 212.134 294.575, 214 296.500" stroke="none" fill="#fbefa4" fill-rule="evenodd"/></svg>