<svg xmlns="http://www.w3.org/2000/svg" width="1080" height="1080" viewBox="0 0 1080 1080" version="1.1"><path d="M 234 373.494 C 224.477 375.644, 214.303 381.071, 206.650 388.083 C 198.787 395.289, 189.449 408.948, 184.940 419.842 C 183.197 424.054, 181.633 427.652, 181.465 427.837 C 181.297 428.022, 177.861 424.700, 173.830 420.455 C 144.224 389.277, 111.322 383.449, 81 404.011 C 63.849 415.642, 57.137 430.605, 58.353 454.500 C 60.597 498.585, 90.842 548.785, 138 586.700 C 160.096 604.464, 181.507 617.046, 202.397 624.542 L 210.294 627.375 214.087 625.193 L 217.879 623.010 218.477 627.755 C 218.806 630.365, 219.305 634.525, 219.585 637 C 221.775 656.320, 226.656 677.414, 232.152 691.310 C 236.577 702.499, 241.484 712.563, 242.958 713.474 C 244.994 714.732, 260.908 717.001, 274.500 717.970 C 327.387 721.741, 384.077 703.509, 422 670.530 L 429.500 664.008 717 663.989 C 1027.685 663.969, 1010.593 664.255, 1021.281 658.892 C 1033.678 652.671, 1043.032 641.904, 1047.435 628.787 L 1050 621.147 1050 542.755 C 1050 473.927, 1049.805 463.700, 1048.405 458.932 C 1043.646 442.730, 1032.249 430.597, 1015.500 423.899 L 1009.500 421.500 676.500 421.228 C 463.276 421.054, 340.317 421.310, 334.650 421.939 C 327.732 422.707, 324.086 423.752, 317.955 426.725 L 310.111 430.529 308.595 423.816 C 305.102 408.352, 297.873 394.579, 289.276 387.012 C 277.111 376.303, 250.442 369.782, 234 373.494 M 243.121 411.083 C 227.627 413.784, 213.889 425.753, 204.250 444.948 C 201.912 449.602, 200 453.976, 200 454.667 C 200 455.358, 196.022 452.003, 191.161 447.212 C 181.900 438.084, 175.253 433.540, 164.779 429.173 C 159.451 426.953, 156.982 426.552, 148.476 426.528 C 139.754 426.504, 137.538 426.868, 131.416 429.333 C 122.835 432.787, 112.102 440.496, 108.011 446.144 C 99.379 458.060, 98.640 480.689, 106.138 503.500 C 108.977 512.135, 116.977 528.220, 123.049 537.500 C 130.472 548.845, 138.160 557.912, 150.647 570.049 C 171.224 590.050, 190.984 603.453, 212.488 611.995 C 221.146 615.434, 223.109 615.630, 226.525 613.392 C 229.533 611.421, 229.423 611.130, 230.902 624.923 C 231.517 630.656, 233.181 640.556, 234.600 646.923 C 237.326 659.153, 245.937 681.728, 248.899 684.409 C 253.543 688.611, 291.292 690.460, 311.257 687.462 C 350.095 681.631, 386.692 662.434, 407.532 636.961 L 413.227 630 693.403 630 C 1000.478 630, 978.906 630.420, 990.373 624.217 C 996.832 620.723, 1005.994 612.252, 1009.836 606.222 C 1011.490 603.625, 1013.779 598.702, 1014.922 595.282 C 1016.907 589.342, 1017 586.980, 1017 542.690 C 1017 493.387, 1016.988 493.239, 1011.956 482.500 C 1008.795 475.753, 997.017 464.083, 989.869 460.614 C 977.504 454.614, 1002.068 455.025, 654.960 455.012 C 372.234 455.001, 335.750 455.172, 330.460 456.530 C 322.030 458.695, 314.907 462.379, 309.159 467.547 L 304.203 472.003 303.486 464.751 C 301.835 448.068, 296.252 433.391, 288.340 424.932 C 282.931 419.150, 279.317 417.063, 268.729 413.606 C 259.915 410.729, 250.482 409.800, 243.121 411.083" stroke="none" fill="#ffffff" fill-rule="evenodd"/><path d="M 238.500 412.402 C 230.684 414.880, 225.402 418.360, 217.825 426.023 C 211.430 432.489, 209.245 435.622, 204.733 444.795 L 199.316 455.805 192.408 448.801 C 170.757 426.849, 149.406 421.123, 127.622 431.427 C 107.723 440.838, 99.892 454.474, 101.267 477.316 C 102.594 499.371, 112.879 524.216, 130.320 547.500 C 143.606 565.236, 167.973 586.966, 189.635 600.395 C 198.632 605.973, 218.745 614.942, 222.342 614.980 C 223.356 614.991, 225.302 614.121, 226.667 613.047 C 229.108 611.127, 229.156 610.808, 229.487 594.297 C 229.884 574.485, 232.237 559.497, 237.446 543.596 C 246.121 517.111, 262.027 496.025, 278 489.832 C 283.696 487.624, 294.927 486.834, 300.188 488.272 C 302.772 488.978, 302.905 488.822, 303.603 484.254 C 304.505 478.356, 302.566 456.543, 300.431 448.567 C 296.582 434.192, 288.032 422.053, 278.620 417.600 C 265.797 411.534, 248.362 409.275, 238.500 412.402" stroke="none" fill="#ffc7c2" fill-rule="evenodd"/><path d="M 282.024 488.603 C 263.836 493.491, 247.058 514.253, 237.352 543.882 C 227.020 575.422, 226.734 613.906, 236.542 652.726 C 239.299 663.641, 247.651 683.743, 249.936 684.966 C 250.818 685.438, 257.606 686.600, 265.020 687.548 C 293.626 691.207, 326.143 686.841, 351.973 675.874 C 371.874 667.425, 386.121 657.941, 400.557 643.536 C 417.019 627.107, 425.192 611.598, 425.393 596.406 C 425.495 588.678, 425.288 587.886, 420.810 578.866 C 413.515 564.170, 406.070 556.838, 393.500 551.972 C 381.875 547.471, 359.989 549.373, 346.967 556.017 C 344.829 557.108, 342.894 558, 342.668 558 C 342.442 558, 342.042 551.813, 341.779 544.250 C 341.380 532.729, 340.862 529.203, 338.583 522.500 C 337.088 518.100, 334.527 512.407, 332.891 509.848 C 326.038 499.127, 314.367 491.455, 300.412 488.499 C 291.935 486.703, 289.033 486.720, 282.024 488.603" stroke="none" fill="#b1d5ff" fill-rule="evenodd"/><path d="M 330 456.591 C 321.903 458.741, 314.767 462.505, 309.058 467.638 L 304 472.185 304 480.593 C 304 487.087, 304.315 489, 305.384 489 C 306.146 489, 310.384 490.810, 314.804 493.022 C 333.082 502.170, 342.373 520.048, 342.463 546.248 C 342.483 552.159, 342.782 556.996, 343.126 556.998 C 343.470 556.999, 346.170 555.941, 349.126 554.647 C 358.983 550.333, 368.134 548.695, 379.331 549.242 C 399.910 550.248, 411.070 558.110, 421.577 579.002 C 428.472 592.714, 427.310 606.445, 417.889 622.567 C 415.750 626.227, 414 629.397, 414 629.611 C 414 629.825, 539.905 630, 693.790 630 C 1000.355 630, 978.800 630.419, 990.425 624.234 C 997.286 620.584, 1009.044 608.714, 1011.956 602.500 C 1016.986 591.764, 1017 591.599, 1017 542.500 C 1017 493.401, 1016.986 493.236, 1011.956 482.500 C 1008.795 475.753, 997.017 464.083, 989.869 460.614 C 977.500 454.612, 1002.151 455.019, 654.500 455.078 C 378.140 455.124, 334.765 455.327, 330 456.591" stroke="none" fill="#fefa9d" fill-rule="evenodd"/><path d="" stroke="none" fill="#e8f0fb" fill-rule="evenodd"/><path d="" stroke="none" fill="#fbf2a3" fill-rule="evenodd"/></svg>