<svg xmlns="http://www.w3.org/2000/svg" width="600" height="600" viewBox="0 0 600 600" version="1.1"><path d="M 106.500 189.640 C 97.837 190.557, 85.385 193.207, 83.250 194.589 C 81.116 195.971, 81 196.685, 81 208.440 L 81 220.833 89.750 222.871 C 99.447 225.128, 113.089 227, 119.847 227 L 124.247 227 123.823 238.887 L 123.399 250.774 132.949 252.921 C 151.049 256.991, 170.132 257.424, 188.500 254.182 L 192.500 253.476 193.082 247.488 L 193.664 241.500 193.832 247.164 L 194 252.827 196.750 252.093 L 199.500 251.359 199.780 239.912 C 199.980 231.728, 199.690 227.958, 198.762 226.689 C 196.538 223.648, 173.899 219, 161.309 219 L 157.066 219 156.783 207.761 L 156.500 196.523 153.664 195.166 C 146.216 191.601, 118.571 188.362, 106.500 189.640 M 101.567 194.788 C 100.547 198.003, 101.979 201.961, 104.361 202.512 C 107.482 203.234, 131.194 202.442, 133.250 201.548 C 135.704 200.480, 135.427 198.326, 132.599 196.473 C 131.003 195.427, 127.232 194.788, 121.349 194.566 C 116.482 194.383, 110.186 193.898, 107.358 193.490 C 102.714 192.819, 102.152 192.945, 101.567 194.788 M 102.380 195.452 C 102.026 196.374, 102.237 198.224, 102.847 199.564 C 104.102 202.318, 108.318 202.831, 113.851 200.902 C 119.735 198.851, 116.836 195.848, 107.642 194.469 C 103.833 193.898, 102.910 194.070, 102.380 195.452 M 104 197.441 C 104 200.605, 105.773 201.655, 107.760 199.669 C 109.052 198.377, 109.102 197.827, 108.042 196.550 C 106.093 194.203, 104 194.664, 104 197.441 M 105 198 C 105 199.949, 106.061 200.606, 107.264 199.402 C 108.066 198.601, 107.017 196, 105.893 196 C 105.402 196, 105 196.900, 105 198 M 85.597 199.983 C 87.424 201.833, 100.079 205.838, 108.023 207.081 C 121.138 209.132, 142.480 206.301, 150.894 201.393 C 152.327 200.557, 152.600 200.192, 151.500 200.582 C 137.487 205.552, 133.342 206.313, 120 206.364 C 105.931 206.418, 99.502 205.278, 89.298 200.922 C 86.659 199.795, 84.994 199.373, 85.597 199.983 M 85.187 210.161 C 85.469 213.012, 86.039 213.507, 91 215.212 C 100.175 218.366, 104.873 218.984, 106.593 217.264 C 109.501 214.356, 108.557 213.647, 96.460 209.654 C 85.787 206.131, 84.792 206.175, 85.187 210.161 M 86 210.354 C 86 212.419, 86.920 212.982, 93.463 214.924 C 97.568 216.143, 102.181 216.996, 103.713 216.820 C 108.326 216.290, 106.994 213.855, 101.294 212.396 C 98.430 211.663, 94.438 210.374, 92.422 209.532 C 87.367 207.420, 86 207.595, 86 210.354 M 117.568 213.083 C 116.310 216.670, 116.533 220.500, 118 220.500 C 118.973 220.500, 119.613 219.315, 119.823 217.123 C 120.164 213.550, 118.470 210.513, 117.568 213.083 M 150.168 215.059 L 150 218.617 141.250 219.911 C 130.309 221.528, 124.790 223.131, 124.214 224.859 C 123.874 225.877, 124.335 225.827, 126.134 224.648 C 128.728 222.948, 143.566 220.079, 150.881 219.864 C 153.421 219.789, 154.513 219.536, 153.307 219.302 C 151.618 218.974, 151.024 218.027, 150.725 215.188 L 150.336 211.500 150.168 215.059 M 111 216.500 C 111 220.643, 113.607 221.413, 114.575 217.557 C 115.288 214.716, 114.484 213, 112.441 213 C 111.461 213, 111 214.119, 111 216.500 M 144.667 223.667 C 143.419 224.914, 143.994 229.852, 145.571 231.429 C 146.436 232.293, 148.348 232.939, 149.821 232.864 L 152.500 232.728 150 232.268 C 146.071 231.546, 144.787 229.947, 145.212 226.306 C 145.634 222.697, 145.634 222.699, 144.667 223.667 M 151.716 224.350 C 158.191 226.024, 160.484 227.712, 158.890 229.633 C 158.266 230.385, 156.573 231.062, 155.128 231.137 C 153.682 231.212, 155.425 231.612, 159 232.025 C 162.575 232.439, 167.975 232.380, 171 231.894 C 174.025 231.409, 176.613 231.009, 176.750 231.006 C 176.887 231.003, 177 230.116, 177 229.035 C 177 225.964, 173.220 224.622, 164 224.418 C 159.325 224.315, 153.475 223.954, 151 223.616 C 146.519 223.005, 146.522 223.008, 151.716 224.350 M 146.590 225.854 C 145.567 227.509, 147.121 230, 149.177 230 C 150.638 230, 151.057 229.428, 150.820 227.760 C 150.489 225.442, 147.639 224.157, 146.590 225.854 M 147.229 227.188 C 147.847 229.042, 150 229.349, 150 227.583 C 150 226.713, 149.287 226, 148.417 226 C 147.546 226, 147.011 226.534, 147.229 227.188 M 129.132 230.407 C 130.580 231.250, 135.755 233.140, 140.632 234.606 C 148.203 236.882, 151.328 237.270, 162 237.263 C 174.975 237.253, 186.507 235.084, 192.717 231.486 C 194.247 230.599, 194.600 230.183, 193.500 230.561 C 171.773 238.042, 155.636 238.639, 137.805 232.621 C 126.470 228.796, 126.289 228.750, 129.132 230.407 M 80.252 237.500 C 80.263 239.700, 80.468 240.482, 80.707 239.238 C 80.946 237.994, 80.937 236.194, 80.687 235.238 C 80.437 234.282, 80.241 235.300, 80.252 237.500 M 128.441 240.379 C 127.469 244.250, 128.335 248.452, 130.176 248.801 C 133.084 249.352, 140 244.279, 140 241.594 C 140 238.834, 138.362 238, 132.937 238 C 129.665 238, 128.942 238.382, 128.441 240.379 M 84.500 257.625 C 83.400 257.841, 78.797 258.745, 74.270 259.632 C 69.744 260.520, 65.567 261.817, 64.988 262.514 C 63.434 264.387, 64.126 288.212, 65.750 288.752 C 66.636 289.046, 67 287.743, 67 284.274 C 67 281.584, 67.563 278.638, 68.250 277.729 C 69.410 276.195, 69.897 276.206, 75 277.884 C 80.397 279.659, 80.506 279.771, 80.807 283.847 C 81.106 287.879, 81.026 288, 78.057 288 C 74.690 288, 73.734 290.482, 76.750 291.395 C 85.288 293.978, 109.930 294.843, 122 292.983 C 133.556 291.203, 132.857 291.683, 133.261 285.243 L 133.622 279.500 133.811 285.198 L 134 290.896 137 289.850 L 140 288.804 140 277.057 C 140 267.108, 139.732 265.080, 138.250 263.808 C 136.015 261.891, 126.691 259.404, 116.678 258.054 C 109.256 257.054, 88.793 256.781, 84.500 257.625 M 85.200 261.200 C 83.788 262.612, 83.645 266.890, 84.940 268.937 C 85.671 270.093, 88.523 270.324, 99.535 270.120 C 107.062 269.981, 114.345 269.439, 115.721 268.916 C 118.035 268.036, 118.113 267.803, 116.770 265.781 C 114.899 262.962, 111.074 261.933, 103 262.075 C 99.425 262.138, 94.700 261.923, 92.500 261.598 C 88.788 261.049, 88.852 261.109, 93.379 262.433 C 99.767 264.299, 101.125 265.673, 98.501 267.610 C 97.165 268.595, 94.675 268.988, 91.001 268.792 C 85.730 268.512, 85.486 268.376, 85.164 265.549 C 84.941 263.586, 85.423 262.164, 86.605 261.299 C 87.583 260.585, 87.936 260, 87.391 260 C 86.846 260, 85.860 260.540, 85.200 261.200 M 86.590 263.854 C 85.567 265.509, 87.121 268, 89.177 268 C 90.638 268, 91.057 267.428, 90.820 265.760 C 90.489 263.442, 87.639 262.157, 86.590 263.854 M 87.229 265.188 C 87.847 267.042, 90 267.349, 90 265.583 C 90 264.712, 89.287 264, 88.417 264 C 87.546 264, 87.011 264.534, 87.229 265.188 M 71.316 268.999 C 76.273 271.748, 89.193 275.035, 94.410 274.874 C 97.569 274.776, 96.943 274.547, 91.664 273.869 C 85.834 273.119, 80.916 271.730, 69.500 267.605 C 68.400 267.208, 69.217 267.835, 71.316 268.999 M 126.642 270.590 C 122.871 271.908, 117.021 273.384, 113.642 273.870 C 109.162 274.514, 108.471 274.787, 111.090 274.877 C 115.330 275.022, 128.746 271.743, 132.717 269.590 C 136.625 267.470, 134.632 267.798, 126.642 270.590 M 102.500 275 L 98.500 275.716 102.191 275.858 C 104.221 275.936, 106.160 275.550, 106.500 275 C 106.840 274.450, 106.979 274.064, 106.809 274.142 C 106.639 274.220, 104.700 274.606, 102.500 275 M 85.667 280.667 C 84.344 281.990, 84.972 288.775, 86.471 289.351 C 88.186 290.009, 91 287.531, 91 285.363 C 91 281.646, 87.643 278.690, 85.667 280.667 M 86.658 281.675 C 86.296 282.037, 86 283.641, 86 285.240 C 86 287.469, 86.408 288.069, 87.750 287.813 C 89.940 287.396, 90.564 283.713, 88.706 282.171 C 87.942 281.537, 87.020 281.313, 86.658 281.675 M 194.750 315.689 C 193.313 316.065, 192.987 317.342, 192.930 322.823 C 192.891 326.495, 192.491 330.400, 192.041 331.500 C 191.579 332.629, 191.459 329.840, 191.765 325.094 L 192.307 316.688 188.404 317.345 C 172.006 320.103, 159.480 320.398, 144.721 318.375 L 140 317.728 140 329.297 C 140 339.452, 140.214 340.928, 141.750 341.380 C 156.132 345.606, 196.203 343.975, 197.807 339.097 C 198.174 337.983, 197.470 337.833, 194.384 338.367 C 190.045 339.118, 176.650 340.153, 179 339.556 C 179.825 339.346, 184.438 338.639, 189.250 337.984 C 195.504 337.133, 198 336.395, 198 335.396 C 198 334.211, 215.173 333.963, 311.750 333.754 L 425.500 333.509 312.250 333.250 L 199 332.991 199 323.996 C 199 314.726, 198.934 314.596, 194.750 315.689 M 143 337.951 C 145.498 338.800, 151.704 339.331, 150.917 338.628 C 150.688 338.424, 148.250 337.996, 145.500 337.679 C 142.128 337.289, 141.314 337.378, 143 337.951 M 157 340.021 C 162.645 340.823, 177.663 341.287, 176.917 340.637 C 176.688 340.438, 170.875 340.042, 164 339.757 C 156.080 339.429, 153.515 339.526, 157 340.021 M 63.738 361.831 C 63.873 367.746, 64.465 372.855, 65.104 373.625 C 66.274 375.035, 75.118 377.873, 85.500 380.171 C 89.396 381.033, 97.811 381.459, 109.500 381.385 C 129.332 381.260, 137.202 379.932, 137.840 376.604 C 138.106 375.214, 137.779 374.871, 136.614 375.318 C 135.740 375.653, 132.656 376.161, 129.762 376.447 L 124.500 376.966 130.745 375.654 C 134.180 374.933, 137.330 374.004, 137.745 373.590 C 138.160 373.176, 138.657 368.310, 138.848 362.776 L 139.196 352.715 136.848 353.344 C 135.557 353.690, 134.162 353.979, 133.750 353.986 C 133.338 353.994, 132.913 357.038, 132.807 360.750 L 132.615 367.500 132.256 361.130 L 131.898 354.761 127.767 355.421 C 108.322 358.531, 88.613 357.920, 72.393 353.707 L 63.500 351.396 63.738 361.831 M 64.470 369.952 C 65.182 371.103, 79.863 375.223, 81.254 374.661 C 82.008 374.356, 81.824 374.127, 80.788 374.079 C 79.847 374.036, 75.688 372.924, 71.546 371.609 C 67.405 370.294, 64.221 369.548, 64.470 369.952 M 102.296 377.744 C 106.583 377.932, 113.333 377.931, 117.296 377.742 C 121.258 377.552, 117.750 377.399, 109.500 377.400 C 101.250 377.401, 98.008 377.556, 102.296 377.744" stroke="none" fill="#d8eaf7" fill-rule="evenodd"/><path d="M 80.966 228.642 C 80.948 232.964, 80.667 241.298, 80.341 247.162 L 79.750 257.823 92.125 257.289 C 103.594 256.795, 104.698 256.571, 107.202 254.237 C 109.633 251.971, 110.198 251.840, 112.835 252.932 C 114.447 253.599, 116.716 255.238, 117.876 256.573 C 119.037 257.908, 120.973 259, 122.178 259 C 125.724 259, 136.352 262.180, 138.250 263.808 C 139.511 264.890, 140 266.803, 140 270.655 C 140 273.595, 140.353 276, 140.784 276 C 141.729 276, 145 281.358, 145 282.904 C 145 283.507, 143.875 284, 142.500 284 C 140.527 284, 140 284.507, 140 286.402 C 140 288.161, 139.213 289.079, 137.061 289.829 C 134.523 290.714, 134.069 291.443, 133.736 295.177 L 133.349 299.500 133.175 295.231 C 133.016 291.354, 132.793 291.009, 130.750 291.472 C 115.913 294.834, 87.986 294.794, 76.750 291.395 C 75.229 290.935, 75 291.595, 75 296.433 C 75 302.373, 74.523 302.783, 69.250 301.370 C 67.246 300.833, 67 300.135, 67 294.990 C 67 290.922, 66.580 289.053, 65.580 288.669 C 63.473 287.861, 62.833 298.133, 63.194 326.972 L 63.500 351.445 72.464 353.737 C 84.793 356.890, 101.300 358.210, 113.667 357.032 C 126.215 355.836, 131.999 354.918, 132.002 354.122 C 132.004 353.780, 133.365 353.452, 135.027 353.392 C 136.689 353.333, 138.375 352.959, 138.774 352.562 C 139.173 352.164, 139.642 344.201, 139.817 334.865 L 140.133 317.892 147.317 318.696 C 162.187 320.360, 192 318.501, 192 315.909 C 192 315.444, 192.597 315.292, 193.328 315.572 C 194.058 315.852, 195.858 315.624, 197.328 315.066 L 200 314.050 200 282.611 L 200 251.173 197.250 251.908 L 194.500 252.643 193.977 282.071 L 193.454 311.500 193.227 282.379 L 193 253.258 188.250 254.161 C 171.078 257.426, 150.019 256.973, 133.171 252.976 C 128.590 251.889, 124.428 251, 123.921 251 C 123.414 251, 123 252.440, 123 254.200 C 123 256.492, 122.693 257.093, 121.920 256.320 C 121.146 255.546, 121.309 253.857, 122.494 250.370 C 123.803 246.515, 124.005 243.600, 123.465 236.379 L 122.782 227.258 113.525 226.579 C 105.461 225.987, 92.556 223.784, 83.750 221.497 L 81 220.783 80.966 228.642 M 102.445 240.361 C 101.707 243.303, 102.541 246.398, 104.637 248.494 C 106.846 250.703, 107.763 250.356, 108.492 247.036 C 109.787 241.139, 103.885 234.624, 102.445 240.361 M 115.260 242.250 C 113.289 246.362, 113.126 247.790, 114.424 249.565 C 117.092 253.214, 121.911 247.766, 120.608 242.574 C 119.799 239.349, 116.738 239.164, 115.260 242.250 M 93.429 247.750 C 94.071 250.482, 98.220 255, 100.087 255 C 102.140 255, 102.106 251.908, 100.016 248.525 C 98.453 245.996, 97.123 245, 95.310 245 C 93.064 245, 92.855 245.305, 93.429 247.750 M 145.667 268.667 C 144.199 270.134, 145.066 276.066, 147.036 278.036 C 149.664 280.664, 151 279.767, 151 275.375 C 151 269.827, 148.124 266.209, 145.667 268.667 M 158.689 270.791 C 156.262 273.473, 155.506 278.345, 157.287 279.823 C 160.542 282.525, 163.542 278.531, 162.828 272.448 C 162.422 268.992, 160.877 268.374, 158.689 270.791 M 166.573 278.570 C 164.497 280.646, 163.488 284.888, 164.766 286.166 C 167.345 288.745, 172.159 282.463, 170.639 278.502 C 169.899 276.573, 168.547 276.596, 166.573 278.570 M 149.693 283.787 C 147.380 286.343, 144.199 293.901, 143.441 298.645 C 142.632 303.706, 144.317 304.657, 150.036 302.369 C 153.679 300.911, 154.218 300.913, 156.471 302.389 C 157.823 303.275, 159.776 304, 160.810 304 C 163.274 304, 166 300.918, 166 298.131 C 166 292.740, 157.702 282, 153.536 282 C 152.312 282, 150.582 282.804, 149.693 283.787 M 133.252 303.500 C 133.263 305.700, 133.468 306.482, 133.707 305.238 C 133.946 303.994, 133.937 302.194, 133.687 301.238 C 133.437 300.282, 133.241 301.300, 133.252 303.500 M 85.667 306.667 C 84.289 308.044, 85.052 313.737, 86.829 315.345 C 90.327 318.511, 91.701 316.922, 91.018 310.500 C 90.640 306.947, 87.579 304.754, 85.667 306.667 M 98.668 309.188 C 96.339 312.877, 95.895 315.474, 97.272 317.357 C 99.068 319.813, 101.813 318.476, 102.842 314.643 C 104.396 308.861, 101.370 304.907, 98.668 309.188 M 76.701 312.632 C 74.291 315.042, 78.652 322, 82.573 322 C 85.616 322, 85.656 320.270, 82.715 315.905 C 80.462 312.562, 78.072 311.261, 76.701 312.632 M 105.375 318.339 C 103.723 321.805, 104.007 325, 105.969 325 C 108.168 325, 111.118 320.855, 110.811 318.198 C 110.335 314.096, 107.362 314.174, 105.375 318.339 M 133.272 321 C 133.272 323.475, 133.467 324.488, 133.706 323.250 C 133.944 322.012, 133.944 319.988, 133.706 318.750 C 133.467 317.512, 133.272 318.525, 133.272 321 M 89.693 321.787 C 87.147 324.600, 83.974 332.530, 83.726 336.698 C 83.477 340.879, 82.809 340.649, 93 339.880 C 94.375 339.777, 96.940 340.301, 98.700 341.046 C 101.558 342.256, 102.118 342.203, 103.950 340.545 C 107.644 337.202, 105.789 330.099, 99.471 323.400 C 95.875 319.588, 92.228 318.986, 89.693 321.787 M 133.382 337.500 C 133.384 344.100, 133.546 346.670, 133.741 343.211 C 133.937 339.752, 133.936 334.352, 133.738 331.211 C 133.540 328.070, 133.380 330.900, 133.382 337.500" stroke="none" fill="#eacff9" fill-rule="evenodd"/><path d="M 101.392 195.573 C 101.037 196.988, 101.158 198.558, 101.662 199.062 C 102.215 199.615, 102.562 198.895, 102.539 197.239 C 102.501 194.594, 102.665 194.509, 107.314 194.749 C 109.961 194.886, 112.999 195.464, 114.064 196.034 C 115.150 196.615, 116 196.668, 116 196.154 C 116 195.106, 108.372 193, 104.576 193 C 102.684 193, 101.874 193.654, 101.392 195.573 M 104.015 196.750 C 104.028 198.248, 104.172 198.284, 105.015 197 C 105.891 195.667, 106.109 195.667, 106.981 197 C 107.687 198.079, 107.493 198.851, 106.290 199.750 C 105.370 200.438, 105.099 201, 105.686 201 C 106.274 201, 107.315 200.325, 108 199.500 C 108.993 198.303, 108.993 197.697, 108 196.500 C 106.308 194.461, 103.997 194.606, 104.015 196.750 M 128 200.833 C 128 201.588, 125.616 202.068, 121.250 202.193 L 114.500 202.385 120.898 202.744 C 126.831 203.077, 130.333 202, 128.683 200.350 C 128.308 199.974, 128 200.192, 128 200.833 M 103.690 206.010 C 104.622 206.850, 114.622 208.289, 113.797 207.464 C 113.498 207.164, 110.919 206.550, 108.066 206.100 C 105.214 205.649, 103.244 205.608, 103.690 206.010 M 126.500 207 C 123.952 208.095, 126.581 208.095, 130 207 C 132.010 206.356, 132.108 206.194, 130.500 206.170 C 129.400 206.154, 127.600 206.527, 126.500 207 M 150.116 217.059 C 150.028 218.239, 147.872 218.919, 141.228 219.859 C 136.403 220.542, 131.790 221.558, 130.978 222.116 C 129.803 222.923, 129.910 223.023, 131.500 222.603 C 135.385 221.579, 146.557 220.013, 151 219.871 C 153.475 219.792, 154.515 219.536, 153.311 219.302 C 152.108 219.068, 150.922 218.117, 150.677 217.189 C 150.314 215.811, 150.211 215.787, 150.116 217.059 M 126.250 223.031 C 125.013 223.529, 124 224.410, 124 224.991 C 124 225.576, 125.114 225.316, 126.500 224.408 C 127.875 223.507, 129 222.597, 129 222.385 C 129 221.919, 129.043 221.909, 126.250 223.031 M 144.667 223.667 C 143.419 224.914, 143.994 229.852, 145.571 231.429 C 146.436 232.293, 148.348 232.939, 149.821 232.864 L 152.500 232.728 150 232.268 C 146.071 231.546, 144.787 229.947, 145.212 226.306 C 145.634 222.697, 145.634 222.699, 144.667 223.667 M 151.716 224.434 C 154.584 225.129, 157.734 226.329, 158.716 227.099 C 160.337 228.372, 160.376 228.341, 159.142 226.767 C 157.722 224.955, 151.930 222.954, 148.500 223.091 C 147.400 223.134, 148.847 223.739, 151.716 224.434 M 162.264 224.718 C 163.784 224.947, 166.034 224.941, 167.264 224.704 C 168.494 224.467, 167.250 224.279, 164.500 224.286 C 161.750 224.294, 160.744 224.488, 162.264 224.718 M 146.590 225.854 C 145.780 227.164, 146.955 230, 148.307 230 C 149.038 230, 149.003 229.603, 148.200 228.800 C 146.588 227.188, 146.686 226, 148.430 226 C 149.217 226, 150.078 227.012, 150.344 228.250 C 150.773 230.245, 150.809 230.218, 150.664 228.010 C 150.498 225.493, 147.722 224.024, 146.590 225.854 M 123.300 232 C 123.300 235.025, 123.487 236.262, 123.716 234.750 C 123.945 233.238, 123.945 230.762, 123.716 229.250 C 123.487 227.738, 123.300 228.975, 123.300 232 M 136.659 233.032 C 139.555 235.833, 162.396 238.843, 169.275 237.330 C 172.123 236.704, 170.158 236.463, 161.275 236.351 C 152.836 236.245, 147.562 235.638, 142.659 234.210 C 138.897 233.115, 136.197 232.584, 136.659 233.032 M 184 233.512 C 181.525 234.229, 178.209 235.104, 176.632 235.456 C 175.055 235.809, 173.949 236.282, 174.175 236.508 C 174.817 237.150, 187.378 234.022, 188.446 232.954 C 188.971 232.429, 189.197 232.047, 188.950 232.104 C 188.703 232.161, 186.475 232.795, 184 233.512 M 256.327 238.750 C 287.582 238.897, 338.432 238.897, 369.327 238.750 C 400.222 238.603, 374.650 238.483, 312.500 238.483 C 250.350 238.483, 225.072 238.603, 256.327 238.750 M 193.300 247 C 193.300 250.025, 193.487 251.262, 193.716 249.750 C 193.945 248.238, 193.945 245.762, 193.716 244.250 C 193.487 242.738, 193.300 243.975, 193.300 247 M 193.420 276.500 C 193.419 287.500, 193.565 292.136, 193.745 286.803 C 193.924 281.470, 193.925 272.470, 193.746 266.803 C 193.568 261.136, 193.421 265.500, 193.420 276.500 M 85.200 261.200 C 83.771 262.629, 83.650 266.898, 84.979 269 C 85.658 270.072, 87.412 270.438, 91.132 270.282 C 98.610 269.968, 99.081 268.500, 91.704 268.500 C 85.576 268.500, 85.496 268.464, 85.164 265.549 C 84.941 263.586, 85.423 262.164, 86.605 261.299 C 87.583 260.585, 87.936 260, 87.391 260 C 86.846 260, 85.860 260.540, 85.200 261.200 M 89.500 261.432 C 92.353 262.716, 98.242 263.842, 97.329 262.929 C 96.778 262.378, 94.566 261.715, 92.414 261.455 C 90.261 261.195, 88.950 261.184, 89.500 261.432 M 101.750 262.723 C 103.537 262.945, 106.463 262.945, 108.250 262.723 C 110.037 262.502, 108.575 262.320, 105 262.320 C 101.425 262.320, 99.963 262.502, 101.750 262.723 M 86.590 263.854 C 85.567 265.509, 87.121 268, 89.177 268 C 90.638 268, 91.057 267.428, 90.820 265.760 C 90.489 263.442, 87.639 262.157, 86.590 263.854 M 111 264.195 C 109.625 264.783, 107.037 265.263, 105.250 265.262 C 103.463 265.260, 102 265.558, 102 265.922 C 102 266.286, 103.990 266.579, 106.423 266.572 C 108.856 266.566, 110.661 266.260, 110.434 265.894 C 109.643 264.614, 114.409 264.094, 115.948 265.292 C 117.312 266.353, 117.334 266.288, 116.128 264.750 C 114.564 262.757, 114.406 262.740, 111 264.195 M 87.229 265.188 C 87.847 267.042, 90 267.349, 90 265.583 C 90 264.712, 89.287 264, 88.417 264 C 87.546 264, 87.011 264.534, 87.229 265.188 M 71.316 268.999 C 76.273 271.748, 89.193 275.035, 94.410 274.874 C 97.569 274.776, 96.943 274.547, 91.664 273.869 C 85.834 273.119, 80.916 271.730, 69.500 267.605 C 68.400 267.208, 69.217 267.835, 71.316 268.999 M 106.250 268.175 C 101.514 269.460, 102.255 270.008, 108.534 269.863 C 111.578 269.793, 113.941 269.631, 113.784 269.503 C 111.868 267.938, 108.992 267.431, 106.250 268.175 M 128.762 269.908 C 123.689 271.765, 120.845 273.735, 125 272.514 C 128.431 271.506, 135.732 268.168, 134.500 268.171 C 133.950 268.173, 131.368 268.954, 128.762 269.908 M 120.477 272.587 C 119.915 272.822, 116.765 273.445, 113.477 273.969 L 107.500 274.924 113.956 274.456 C 117.507 274.198, 120.860 273.540, 121.406 272.994 C 122.440 271.960, 122.211 271.860, 120.477 272.587 M 102.500 275 L 98.500 275.716 102.191 275.858 C 104.221 275.936, 106.160 275.550, 106.500 275 C 106.840 274.450, 106.979 274.064, 106.809 274.142 C 106.639 274.220, 104.700 274.606, 102.500 275 M 133.252 288.500 C 133.263 290.700, 133.468 291.482, 133.707 290.238 C 133.946 288.994, 133.937 287.194, 133.687 286.238 C 133.437 285.282, 133.241 286.300, 133.252 288.500 M 133.252 303.500 C 133.263 305.700, 133.468 306.482, 133.707 305.238 C 133.946 303.994, 133.937 302.194, 133.687 301.238 C 133.437 300.282, 133.241 301.300, 133.252 303.500 M 193.252 307.500 C 193.263 309.700, 193.468 310.482, 193.707 309.238 C 193.946 307.994, 193.937 306.194, 193.687 305.238 C 193.437 304.282, 193.241 305.300, 193.252 307.500 M 192.199 320.625 C 192.089 323.994, 191.763 328.269, 191.473 330.125 C 190.994 333.194, 191.043 333.279, 192.013 331.055 C 192.600 329.710, 192.926 325.435, 192.739 321.555 L 192.397 314.500 192.199 320.625 M 133.272 321 C 133.272 323.475, 133.467 324.488, 133.706 323.250 C 133.944 322.012, 133.944 319.988, 133.706 318.750 C 133.467 317.512, 133.272 318.525, 133.272 321 M 133.252 329.500 C 133.263 331.700, 133.468 332.482, 133.707 331.238 C 133.946 329.994, 133.937 328.194, 133.687 327.238 C 133.437 326.282, 133.241 327.300, 133.252 329.500 M 133.343 341.500 C 133.346 345.900, 133.522 347.576, 133.733 345.224 C 133.945 342.872, 133.942 339.272, 133.727 337.224 C 133.512 335.176, 133.339 337.100, 133.343 341.500 M 143 337.951 C 145.498 338.800, 151.704 339.331, 150.917 338.628 C 150.688 338.424, 148.250 337.996, 145.500 337.679 C 142.128 337.289, 141.314 337.378, 143 337.951 M 192.500 337.567 C 191.950 337.792, 188.350 338.374, 184.500 338.862 C 179.679 339.471, 178.745 339.772, 181.500 339.827 C 183.700 339.871, 188.425 339.306, 192 338.573 C 195.575 337.839, 197.375 337.220, 196 337.198 C 194.625 337.176, 193.050 337.342, 192.500 337.567 M 157 340.021 C 162.645 340.823, 177.663 341.287, 176.917 340.637 C 176.688 340.438, 170.875 340.042, 164 339.757 C 156.080 339.429, 153.515 339.526, 157 340.021 M 132.336 360 C 132.336 364.125, 132.513 365.813, 132.728 363.750 C 132.944 361.688, 132.944 358.313, 132.728 356.250 C 132.513 354.188, 132.336 355.875, 132.336 360 M 64.470 369.952 C 65.182 371.103, 79.863 375.223, 81.254 374.661 C 82.008 374.356, 81.824 374.127, 80.788 374.079 C 79.847 374.036, 75.688 372.924, 71.546 371.609 C 67.405 370.294, 64.221 369.548, 64.470 369.952 M 130.500 375.600 L 124.500 376.943 129.947 376.411 C 132.943 376.118, 136.093 375.470, 136.947 374.970 C 138.888 373.834, 138 373.921, 130.500 375.600 M 102.296 377.744 C 106.583 377.932, 113.333 377.931, 117.296 377.742 C 121.258 377.552, 117.750 377.399, 109.500 377.400 C 101.250 377.401, 98.008 377.556, 102.296 377.744" stroke="none" fill="#d1dadc" fill-rule="evenodd"/><path d="M 116 195.800 C 116 196.240, 116.488 197.088, 117.084 197.684 C 117.863 198.463, 117.519 199.223, 115.862 200.384 C 113.647 201.936, 113.842 202, 120.777 202 C 125.881 202, 128.004 201.633, 128.015 200.750 C 128.027 199.782, 128.205 199.774, 128.801 200.712 C 129.917 202.469, 134 201.110, 134 198.981 C 134 197.878, 132.797 196.776, 130.851 196.098 C 127.223 194.833, 116 194.608, 116 195.800 M 158.800 226.200 C 160.656 228.056, 160.226 229.980, 157.750 230.904 C 156.208 231.479, 158.224 231.791, 164.154 231.897 C 170.709 232.013, 173.175 231.682, 174.323 230.534 C 175.468 229.390, 175.962 229.322, 176.341 230.259 C 176.645 231.012, 176.873 230.834, 176.921 229.807 C 177.069 226.634, 173.043 225, 165.077 225 C 159.262 225, 157.867 225.267, 158.800 226.200 M 200 275.344 C 200 295.334, 199.707 316.484, 199.348 322.344 L 198.696 333 311.848 333 L 425 333 425 286 L 425 239 312.500 239 L 200 239 200 275.344 M 98.510 264.016 C 98.856 264.575, 99.557 264.774, 100.069 264.457 C 102.093 263.207, 100.857 266.858, 98.750 268.355 C 96.532 269.931, 96.550 269.949, 100 269.553 C 101.925 269.332, 104.848 268.748, 106.495 268.255 C 108.377 267.692, 110.509 267.743, 112.231 268.393 C 114.276 269.165, 115.293 269.101, 116.236 268.143 C 117.257 267.105, 117.047 266.488, 115.139 264.929 C 113.277 263.408, 111.205 263, 105.330 263 C 100.540 263, 98.106 263.363, 98.510 264.016 M 109.641 264.771 C 109.379 265.195, 107.553 265.467, 105.582 265.374 C 103.612 265.281, 102 265.516, 102 265.895 C 102 266.274, 103.990 266.579, 106.423 266.572 C 108.856 266.566, 110.650 266.243, 110.411 265.856 C 110.171 265.468, 110.769 264.945, 111.738 264.692 C 113.313 264.281, 113.321 264.220, 111.809 264.116 C 110.879 264.052, 109.904 264.347, 109.641 264.771 M 193.272 300 C 193.272 302.475, 193.467 303.488, 193.706 302.250 C 193.944 301.012, 193.944 298.988, 193.706 297.750 C 193.467 296.512, 193.272 297.525, 193.272 300" stroke="none" fill="#ced5d5" fill-rule="evenodd"/><path d="" stroke="none" fill="#ccd4d5" fill-rule="evenodd"/><path d="M 100.032 174.019 C 89.830 175.451, 78.143 178.175, 76.240 179.565 C 74.672 180.711, 74.415 184.371, 73.641 216.668 C 73.086 239.848, 72.410 252.733, 71.726 253.161 C 71.145 253.525, 68.606 254.130, 66.085 254.506 C 58.380 255.656, 55.377 257.364, 54.648 261.012 C 54.291 262.793, 54 291.333, 54 324.434 C 54 371.073, 54.281 384.973, 55.250 386.195 C 56.644 387.955, 65.881 391.146, 76.500 393.536 C 87.243 395.954, 117.283 396.610, 128.414 394.670 C 134.019 393.693, 137.997 392.445, 139.130 391.308 C 140.680 389.751, 141.014 386.998, 141.528 371.500 C 142.333 347.221, 141.808 348.854, 148.247 350.620 C 152.736 351.851, 180.472 352.051, 339 351.997 C 458.603 351.957, 525.817 351.581, 528.208 350.940 C 533.450 349.534, 539.942 344.265, 543.479 338.544 L 546.500 333.657 546.500 286.078 C 546.500 239.171, 546.469 238.443, 544.330 234.447 C 541.473 229.110, 536.448 224.196, 531.500 221.900 C 527.657 220.117, 521.291 220.043, 369.725 220.022 L 211.950 220 211.016 217.541 C 210.283 215.615, 208.609 214.642, 203.290 213.054 C 194.151 210.324, 179.077 208.009, 170.404 208.004 L 163.309 208 162.665 195.296 C 162.251 187.134, 161.570 182.167, 160.760 181.402 C 155.415 176.353, 116.825 171.661, 100.032 174.019 M 106.500 189.640 C 97.837 190.557, 85.385 193.207, 83.250 194.589 C 81.069 196.002, 80.996 196.571, 80.878 213.273 C 80.811 222.748, 80.473 236.770, 80.128 244.434 L 79.500 258.368 73 259.778 C 69.425 260.554, 65.869 261.792, 65.099 262.531 C 63.199 264.352, 62.496 368.342, 64.358 372.117 C 65.657 374.753, 71.490 377.037, 84 379.809 C 97.975 382.906, 135.265 381.616, 137.527 377.957 C 137.835 377.457, 138.541 369.065, 139.094 359.307 C 139.648 349.550, 140.190 341.491, 140.300 341.398 C 140.410 341.306, 144.325 341.881, 149 342.676 C 159.036 344.382, 184.622 343.873, 192.500 341.810 C 197.089 340.608, 197.526 340.233, 197.813 337.250 L 198.127 334 311.563 334 L 425 334 425 286 L 425 238 312.500 238 L 200 238 200 233.191 C 200 230.546, 199.430 227.602, 198.732 226.648 C 196.538 223.648, 173.796 219, 161.309 219 L 157.066 219 156.783 207.761 L 156.500 196.523 153.664 195.166 C 146.216 191.601, 118.571 188.362, 106.500 189.640 M 85.187 210.161 C 85.469 213.012, 86.039 213.507, 91 215.212 C 100.175 218.366, 104.873 218.984, 106.593 217.264 C 109.501 214.356, 108.557 213.647, 96.460 209.654 C 85.787 206.131, 84.792 206.175, 85.187 210.161 M 86 210.354 C 86 212.419, 86.920 212.982, 93.463 214.924 C 97.568 216.143, 102.181 216.996, 103.713 216.820 C 108.326 216.290, 106.994 213.855, 101.294 212.396 C 98.430 211.663, 94.438 210.374, 92.422 209.532 C 87.367 207.420, 86 207.595, 86 210.354 M 117.568 213.083 C 116.310 216.670, 116.533 220.500, 118 220.500 C 118.973 220.500, 119.613 219.315, 119.823 217.123 C 120.164 213.550, 118.470 210.513, 117.568 213.083 M 111 216.500 C 111 220.643, 113.607 221.413, 114.575 217.557 C 115.288 214.716, 114.484 213, 112.441 213 C 111.461 213, 111 214.119, 111 216.500 M 102.445 240.361 C 101.707 243.303, 102.541 246.398, 104.637 248.494 C 106.846 250.703, 107.763 250.356, 108.492 247.036 C 109.787 241.139, 103.885 234.624, 102.445 240.361 M 128.441 240.379 C 127.469 244.250, 128.335 248.452, 130.176 248.801 C 133.084 249.352, 140 244.279, 140 241.594 C 140 238.834, 138.362 238, 132.937 238 C 129.665 238, 128.942 238.382, 128.441 240.379 M 115.260 242.250 C 113.289 246.362, 113.126 247.790, 114.424 249.565 C 117.092 253.214, 121.911 247.766, 120.608 242.574 C 119.799 239.349, 116.738 239.164, 115.260 242.250 M 93.429 247.750 C 94.071 250.482, 98.220 255, 100.087 255 C 102.140 255, 102.106 251.908, 100.016 248.525 C 98.453 245.996, 97.123 245, 95.310 245 C 93.064 245, 92.855 245.305, 93.429 247.750 M 121.468 253.101 C 121.101 254.256, 121.296 255.696, 121.901 256.301 C 122.700 257.100, 123 256.526, 123 254.200 C 123 250.506, 122.423 250.092, 121.468 253.101 M 107 254.500 C 104.735 256.911, 104.723 257, 106.686 257 C 107.805 257, 110.809 257.286, 113.360 257.636 C 118.960 258.403, 119.532 256.904, 114.750 253.989 C 110.567 251.438, 109.831 251.487, 107 254.500 M 145.667 268.667 C 144.199 270.134, 145.066 276.066, 147.036 278.036 C 149.664 280.664, 151 279.767, 151 275.375 C 151 269.827, 148.124 266.209, 145.667 268.667 M 158.689 270.791 C 156.262 273.473, 155.506 278.345, 157.287 279.823 C 160.542 282.525, 163.542 278.531, 162.828 272.448 C 162.422 268.992, 160.877 268.374, 158.689 270.791 M 68.035 277.934 C 67.466 278.998, 67 284.571, 67 290.318 C 67 300.308, 67.099 300.793, 69.250 301.370 C 74.707 302.832, 75 302.508, 75 295 L 75 288 78.057 288 C 81.026 288, 81.106 287.879, 80.807 283.847 C 80.506 279.772, 80.395 279.659, 75 277.875 C 71.975 276.875, 69.403 276.044, 69.285 276.028 C 69.167 276.013, 68.605 276.870, 68.035 277.934 M 140 280 C 140 283.600, 140.250 284, 142.500 284 C 145.444 284, 145.620 282.857, 143.284 278.904 C 140.944 274.943, 140 275.258, 140 280 M 166.573 278.570 C 164.497 280.646, 163.488 284.888, 164.766 286.166 C 167.345 288.745, 172.159 282.463, 170.639 278.502 C 169.899 276.573, 168.547 276.596, 166.573 278.570 M 85.667 280.667 C 84.344 281.990, 84.972 288.775, 86.471 289.351 C 88.186 290.009, 91 287.531, 91 285.363 C 91 281.646, 87.643 278.690, 85.667 280.667 M 86.658 281.675 C 86.296 282.037, 86 283.641, 86 285.240 C 86 287.469, 86.408 288.069, 87.750 287.813 C 89.940 287.396, 90.564 283.713, 88.706 282.171 C 87.942 281.537, 87.020 281.313, 86.658 281.675 M 149.693 283.787 C 147.380 286.343, 144.199 293.901, 143.441 298.645 C 142.632 303.706, 144.317 304.657, 150.036 302.369 C 153.679 300.911, 154.218 300.913, 156.471 302.389 C 157.823 303.275, 159.776 304, 160.810 304 C 163.274 304, 166 300.918, 166 298.131 C 166 292.740, 157.702 282, 153.536 282 C 152.312 282, 150.582 282.804, 149.693 283.787 M 85.667 306.667 C 84.289 308.044, 85.052 313.737, 86.829 315.345 C 90.327 318.511, 91.701 316.922, 91.018 310.500 C 90.640 306.947, 87.579 304.754, 85.667 306.667 M 98.668 309.188 C 96.339 312.877, 95.895 315.474, 97.272 317.357 C 99.068 319.813, 101.813 318.476, 102.842 314.643 C 104.396 308.861, 101.370 304.907, 98.668 309.188 M 76.701 312.632 C 74.291 315.042, 78.652 322, 82.573 322 C 85.616 322, 85.656 320.270, 82.715 315.905 C 80.462 312.562, 78.072 311.261, 76.701 312.632 M 105.375 318.339 C 103.723 321.805, 104.007 325, 105.969 325 C 108.168 325, 111.118 320.855, 110.811 318.198 C 110.335 314.096, 107.362 314.174, 105.375 318.339 M 89.693 321.787 C 87.147 324.600, 83.974 332.530, 83.726 336.698 C 83.477 340.879, 82.809 340.649, 93 339.880 C 94.375 339.777, 96.940 340.301, 98.700 341.046 C 101.558 342.256, 102.118 342.203, 103.950 340.545 C 107.644 337.202, 105.789 330.099, 99.471 323.400 C 95.875 319.588, 92.228 318.986, 89.693 321.787" stroke="none" fill="#f5f8fa" fill-rule="evenodd"/></svg>