<svg xmlns="http://www.w3.org/2000/svg" width="600" height="600" viewBox="0 0 600 600" version="1.1"><path d="M 100.032 174.019 C 89.830 175.451, 78.143 178.175, 76.240 179.565 C 74.672 180.711, 74.415 184.371, 73.641 216.668 C 73.086 239.848, 72.410 252.733, 71.726 253.161 C 71.145 253.525, 68.606 254.130, 66.085 254.506 C 58.380 255.656, 55.377 257.364, 54.648 261.012 C 54.291 262.793, 54 291.333, 54 324.434 C 54 371.073, 54.281 384.973, 55.250 386.195 C 56.644 387.955, 65.881 391.146, 76.500 393.536 C 87.243 395.954, 117.283 396.610, 128.414 394.670 C 134.019 393.693, 137.997 392.445, 139.130 391.308 C 140.680 389.751, 141.014 386.998, 141.528 371.500 C 142.333 347.221, 141.808 348.854, 148.247 350.620 C 152.736 351.851, 180.472 352.051, 339 351.997 C 458.603 351.957, 525.817 351.581, 528.208 350.940 C 533.450 349.534, 539.942 344.265, 543.479 338.544 L 546.500 333.657 546.500 286.078 C 546.500 239.171, 546.469 238.443, 544.330 234.447 C 541.473 229.110, 536.448 224.196, 531.500 221.900 C 527.657 220.117, 521.291 220.043, 369.725 220.022 L 211.950 220 211.016 217.541 C 210.283 215.615, 208.609 214.642, 203.290 213.054 C 194.151 210.324, 179.077 208.009, 170.404 208.004 L 163.309 208 162.665 195.296 C 162.251 187.134, 161.570 182.167, 160.760 181.402 C 155.415 176.353, 116.825 171.661, 100.032 174.019 M 102 189.637 C 91.332 191.192, 82.825 193.458, 82.022 194.959 C 81.525 195.888, 80.801 210.339, 80.413 227.074 C 79.961 246.579, 79.329 257.746, 78.652 258.184 C 78.071 258.560, 75.434 259.165, 72.792 259.529 C 70.149 259.892, 66.978 261.007, 65.744 262.006 L 63.500 263.822 63.187 317.983 C 62.953 358.496, 63.171 372.501, 64.053 373.564 C 65.600 375.428, 77.328 378.880, 87.996 380.612 C 104.324 383.262, 132.658 381.822, 136.997 378.121 C 138.674 376.691, 138.980 374.452, 139.592 359.142 L 140.286 341.785 143.893 342.400 C 160.081 345.160, 172.820 345.303, 189 342.907 C 195.805 341.900, 199 339.657, 199 335.889 C 199 334.047, 202.227 334, 330 334 L 461 334 461 286 L 461 238 330.500 238 L 200 238 200 232.655 C 200 228.789, 199.505 226.862, 198.210 225.690 C 195.463 223.204, 180.695 219.998, 168.883 219.322 L 158.267 218.714 157.587 207.607 C 157.076 199.274, 156.514 196.201, 155.335 195.303 C 153.523 193.924, 143.265 191.463, 133.342 190.029 C 126.865 189.092, 107.405 188.849, 102 189.637 M 111.667 213.667 C 110.358 214.976, 110.986 219, 112.500 219 C 113.500 219, 114 218, 114 216 C 114 213.133, 113.100 212.233, 111.667 213.667 M 129.035 239.934 C 128.466 240.998, 128 243.248, 128 244.934 C 128 247.586, 128.359 248, 130.656 248 C 133.732 248, 140 243.589, 140 241.424 C 140 238.094, 130.697 236.830, 129.035 239.934 M 102.465 240.057 C 102.106 240.638, 102.115 242.323, 102.486 243.801 C 103.987 249.779, 108 251.075, 108 245.582 C 108 243.702, 107.727 241.452, 107.393 240.582 C 106.708 238.796, 103.458 238.449, 102.465 240.057 M 116.102 241.377 C 114.033 243.870, 113.559 249.617, 115.364 250.310 C 117.899 251.282, 120.144 248.194, 119.803 244.203 C 119.470 240.299, 117.956 239.143, 116.102 241.377 M 94 247.311 C 94 250.198, 97.432 254, 100.039 254 C 102.734 254, 102.495 251.742, 99.411 248.077 C 96.327 244.412, 94 244.083, 94 247.311 M 107.746 254.007 C 106.511 255.008, 105.725 256.029, 106 256.275 C 106.275 256.521, 109.180 257.024, 112.455 257.394 L 118.410 258.066 116.119 255.627 C 113.020 252.328, 110.434 251.827, 107.746 254.007 M 145.667 268.667 C 143.316 271.018, 147.188 280.238, 149.838 278.600 C 151.667 277.470, 151.223 271.512, 149.171 269.655 C 147.150 267.826, 146.649 267.685, 145.667 268.667 M 157.633 273.362 C 155.786 277.254, 156.345 280, 158.985 280 C 161.641 280, 163.175 277.529, 162.818 273.824 C 162.373 269.200, 159.720 268.963, 157.633 273.362 M 140.047 277.500 C 140.012 281.018, 141.191 284, 142.617 284 C 144.632 284, 144.308 280.592, 142.033 277.861 C 140.184 275.641, 140.065 275.620, 140.047 277.500 M 67.485 286.353 C 66.646 297.544, 67.228 300.939, 70.019 301.150 C 71.109 301.233, 72.563 301.345, 73.250 301.400 C 74.098 301.468, 74.661 299.246, 75 294.500 C 75.498 287.522, 75.509 287.501, 78.313 287.798 C 81.001 288.082, 81.112 287.926, 80.813 284.305 C 80.471 280.160, 78.117 278.380, 71.576 277.319 L 68.204 276.771 67.485 286.353 M 165.989 280.250 C 162.803 285.476, 163.792 288.235, 167.837 285.402 C 169.342 284.347, 170 282.839, 170 280.443 C 170 276.122, 168.549 276.052, 165.989 280.250 M 150.409 283.734 C 148.256 285.886, 144.427 294.391, 143.631 298.788 C 142.883 302.916, 144.619 303.776, 150.071 301.976 C 153.547 300.829, 154.395 300.898, 157.512 302.576 C 162.005 304.996, 164.376 303.742, 164.806 298.719 C 165.184 294.306, 162.225 288.208, 157.967 284.626 C 154.311 281.549, 152.775 281.368, 150.409 283.734 M 85.460 307.065 C 84.483 308.645, 85.838 314.621, 87.483 315.986 C 89.522 317.678, 91 316.370, 91 312.875 C 91 307.567, 87.451 303.844, 85.460 307.065 M 98.035 309.934 C 97.466 310.998, 97 313.248, 97 314.934 C 97 317.220, 97.458 318, 98.800 318 C 101.605 318, 103 315.941, 103 311.800 C 103 308.689, 102.644 308, 101.035 308 C 99.955 308, 98.605 308.870, 98.035 309.934 M 76.531 312.950 C 74.833 315.697, 80.549 322.771, 83.539 321.623 C 85.039 321.048, 85.022 320.725, 83.340 317.862 C 81.085 314.024, 77.476 311.421, 76.531 312.950 M 106.034 318.177 C 103.507 322.321, 103.462 324, 105.878 324 C 108.333 324, 110.050 321.843, 110.300 318.447 C 110.591 314.478, 108.374 314.338, 106.034 318.177 M 90.291 322.250 C 87.067 325.776, 84.945 330.672, 84.307 336.054 C 83.652 341.586, 83.862 341.721, 90.169 339.831 C 93.434 338.853, 94.642 338.936, 97.585 340.339 C 107.559 345.095, 108.373 331.803, 98.632 323.250 C 94.250 319.402, 93.029 319.256, 90.291 322.250" stroke="none" fill="#ffffff" fill-rule="evenodd"/><path d="M 106.500 189.640 C 97.837 190.557, 85.385 193.207, 83.250 194.589 C 81.117 195.970, 81 196.688, 81 208.365 L 81 220.683 84.750 221.781 C 91.754 223.830, 105.468 226.068, 114.851 226.692 L 124.203 227.315 123.851 238.907 L 123.500 250.500 132.500 252.763 C 149.360 257.003, 169.609 257.516, 188.500 254.182 L 192.500 253.476 193.082 247.488 L 193.664 241.500 193.832 247.250 C 193.924 250.412, 194.196 253, 194.435 253 C 194.674 253, 196.024 252.561, 197.435 252.025 C 199.980 251.057, 200 250.962, 200 239.716 C 200 232.143, 199.579 227.807, 198.732 226.648 C 196.538 223.648, 173.796 219, 161.309 219 L 157.066 219 156.783 207.761 L 156.500 196.523 153.664 195.166 C 146.216 191.601, 118.571 188.362, 106.500 189.640 M 101.567 194.788 C 100.547 198.003, 101.979 201.961, 104.361 202.512 C 107.482 203.234, 131.194 202.442, 133.250 201.548 C 135.698 200.482, 135.429 198.327, 132.618 196.486 C 131.041 195.452, 127.240 194.813, 121.368 194.594 C 116.491 194.412, 110.186 193.922, 107.358 193.505 C 102.708 192.820, 102.153 192.942, 101.567 194.788 M 102.380 195.452 C 102.026 196.374, 102.237 198.224, 102.847 199.564 C 103.753 201.551, 104.652 201.982, 107.729 201.900 C 113.116 201.758, 116.444 200.650, 116.784 198.884 C 117.144 197.015, 113.779 195.389, 107.642 194.469 C 103.833 193.898, 102.910 194.070, 102.380 195.452 M 104 197.441 C 104 200.605, 105.773 201.655, 107.760 199.669 C 109.052 198.377, 109.102 197.827, 108.042 196.550 C 106.093 194.203, 104 194.664, 104 197.441 M 105 198 C 105 199.289, 105.506 199.998, 106.250 199.750 C 106.938 199.521, 107.500 198.733, 107.500 198 C 107.500 197.267, 106.938 196.479, 106.250 196.250 C 105.506 196.002, 105 196.711, 105 198 M 85 199.627 C 85 200.323, 94.214 204.096, 95.146 203.781 C 95.605 203.627, 93.510 202.529, 90.490 201.342 C 87.471 200.155, 85 199.383, 85 199.627 M 145.500 202.642 C 142.200 203.968, 140.850 204.782, 142.500 204.450 C 145.607 203.825, 154.267 200.144, 152.500 200.200 C 151.950 200.217, 148.800 201.316, 145.500 202.642 M 98.500 205 C 99.600 205.473, 101.400 205.846, 102.500 205.830 C 104.108 205.806, 104.010 205.644, 102 205 C 98.581 203.905, 95.952 203.905, 98.500 205 M 130 206.199 C 126.975 206.730, 120 206.958, 114.500 206.705 C 106.595 206.343, 105.443 206.444, 109 207.188 C 114.065 208.247, 131.919 207.549, 136.500 206.113 C 140.393 204.892, 137.207 204.934, 130 206.199 M 85.187 210.161 C 85.469 213.012, 86.039 213.507, 91 215.212 C 100.175 218.366, 104.873 218.984, 106.593 217.264 C 109.531 214.326, 108.334 213.428, 96.379 209.600 C 85.629 206.158, 84.794 206.200, 85.187 210.161 M 86 210.354 C 86 212.419, 86.920 212.982, 93.463 214.924 C 97.568 216.143, 102.181 216.996, 103.713 216.820 C 108.243 216.300, 107.014 213.862, 101.500 212.429 C 98.750 211.714, 94.531 210.425, 92.124 209.565 C 86.403 207.519, 86 207.571, 86 210.354 M 117.568 213.083 C 116.310 216.670, 116.533 220.500, 118 220.500 C 118.973 220.500, 119.613 219.315, 119.823 217.123 C 120.164 213.550, 118.470 210.513, 117.568 213.083 M 150.168 215.040 L 150 218.579 139.723 220.210 C 129.442 221.841, 124 223.562, 124 225.184 C 124 225.658, 125.013 225.383, 126.250 224.572 C 128.749 222.935, 143.708 220.075, 150.881 219.864 C 153.421 219.789, 154.513 219.536, 153.307 219.302 C 151.618 218.974, 151.024 218.027, 150.725 215.188 L 150.336 211.500 150.168 215.040 M 111 216.500 C 111 220.643, 113.607 221.413, 114.575 217.557 C 115.288 214.716, 114.484 213, 112.441 213 C 111.461 213, 111 214.119, 111 216.500 M 144.667 223.667 C 143.419 224.914, 143.994 229.852, 145.571 231.429 C 146.436 232.293, 148.348 232.939, 149.821 232.864 L 152.500 232.728 150 232.268 C 146.071 231.546, 144.787 229.947, 145.212 226.306 C 145.634 222.697, 145.634 222.699, 144.667 223.667 M 151.716 224.350 C 158.100 226, 160.478 227.719, 158.939 229.573 C 158.342 230.293, 156.649 231.066, 155.177 231.291 C 152.134 231.756, 161.573 232.461, 167 232.174 C 174.500 231.777, 177 230.981, 177 228.990 C 177 225.964, 173.180 224.621, 164 224.418 C 159.325 224.315, 153.475 223.954, 151 223.616 C 146.519 223.005, 146.522 223.008, 151.716 224.350 M 148.250 225.631 C 149.213 225.914, 150 226.837, 150 227.680 C 150 228.633, 149.432 228.996, 148.500 228.638 C 147.675 228.322, 147 228.499, 147 229.031 C 147 229.564, 147.931 230, 149.070 230 C 151.898 230, 151.364 225.608, 148.500 225.318 C 146.942 225.160, 146.887 225.229, 148.250 225.631 M 128.269 230.091 C 130.587 231.440, 141.003 235.016, 142.407 234.944 C 143.415 234.892, 128.124 229.050, 127 229.057 C 126.725 229.059, 127.296 229.524, 128.269 230.091 M 186.877 232.605 C 183.234 233.883, 177.384 235.339, 173.877 235.841 C 169.375 236.485, 168.556 236.789, 171.090 236.877 C 175.330 237.022, 188.746 233.743, 192.717 231.590 C 196.502 229.537, 194.758 229.840, 186.877 232.605 M 150.762 236.707 C 152.006 236.946, 153.806 236.937, 154.762 236.687 C 155.718 236.437, 154.700 236.241, 152.500 236.252 C 150.300 236.263, 149.518 236.468, 150.762 236.707 M 128.907 239.174 C 128.344 240.225, 128.023 242.749, 128.192 244.784 C 128.584 249.493, 130.549 249.941, 135.926 246.547 C 140.697 243.535, 141.649 239.374, 137.750 238.580 C 131.028 237.210, 129.918 237.285, 128.907 239.174 M 159.250 237.716 C 160.762 237.945, 163.238 237.945, 164.750 237.716 C 166.262 237.487, 165.025 237.300, 162 237.300 C 158.975 237.300, 157.738 237.487, 159.250 237.716 M 460.240 285.250 L 460 333 329.500 333 L 199 333 199 323.883 C 199 314.917, 198.963 314.777, 196.750 315.370 C 195.512 315.701, 194.162 315.979, 193.750 315.986 C 193.338 315.994, 192.955 318.813, 192.900 322.250 C 192.845 325.688, 192.458 329.625, 192.040 331 C 191.622 332.375, 191.506 329.788, 191.782 325.250 C 192.059 320.712, 191.961 317, 191.563 317 C 191.165 317, 185.364 317.722, 178.670 318.604 C 167.089 320.130, 156.913 320.044, 144.250 318.310 L 140 317.728 140 329.297 C 140 339.452, 140.214 340.928, 141.750 341.380 C 156.132 345.606, 196.203 343.975, 197.807 339.097 C 198.174 337.983, 197.470 337.833, 194.384 338.367 C 190.045 339.118, 176.650 340.153, 179 339.556 C 179.825 339.346, 184.438 338.639, 189.250 337.984 C 195.504 337.133, 198 336.395, 198 335.396 C 198 334.208, 217.545 334, 329.031 334 C 432.934 334, 460.162 333.741, 460.542 332.750 C 460.805 332.063, 460.899 310.350, 460.750 284.500 L 460.480 237.500 460.240 285.250 M 84.500 257.625 C 83.400 257.841, 78.797 258.745, 74.270 259.632 C 69.744 260.520, 65.567 261.817, 64.988 262.514 C 63.434 264.387, 64.126 288.212, 65.750 288.752 C 66.636 289.046, 67 287.743, 67 284.274 C 67 281.584, 67.564 278.611, 68.253 277.668 C 69.434 276.053, 69.825 276.062, 75.003 277.817 C 80.388 279.642, 80.506 279.764, 80.807 283.840 C 81.106 287.880, 81.027 288, 78.057 288 C 74.694 288, 73.728 290.493, 76.750 291.377 C 85.946 294.065, 109.162 294.868, 122.500 292.958 C 133.170 291.431, 132.855 291.658, 133.263 285.198 L 133.622 279.500 133.811 285.198 L 134 290.896 137 289.850 L 140 288.804 140 277.057 C 140 267.134, 139.728 265.066, 138.250 263.739 C 136.130 261.836, 127.252 259.501, 116.678 258.063 C 109.268 257.056, 88.812 256.778, 84.500 257.625 M 85.200 261.200 C 83.867 262.533, 83.622 266.857, 84.775 268.671 C 85.855 270.368, 91 271.508, 91 270.049 C 91 269.407, 90.662 269.081, 90.250 269.324 C 89.838 269.566, 88.487 269.383, 87.250 268.915 C 84.432 267.850, 84.099 262.624, 86.750 261.080 C 87.713 260.519, 88.028 260.047, 87.450 260.030 C 86.873 260.014, 85.860 260.540, 85.200 261.200 M 96.750 263.515 C 101.668 265.616, 100.943 267.490, 94.587 269.103 C 92.699 269.582, 96.239 269.811, 103.703 269.693 C 117.261 269.479, 119.218 268.725, 116.128 264.910 C 114.315 262.671, 113.444 262.487, 103.838 262.313 C 94.210 262.139, 93.723 262.222, 96.750 263.515 M 86.556 263.910 C 85.577 265.494, 87.140 268, 89.107 268 C 91.075 268, 91.824 264.627, 90.093 263.558 C 89.595 263.249, 89.438 263.958, 89.745 265.133 C 90.149 266.677, 89.916 267.132, 88.902 266.776 C 88.131 266.506, 87.563 265.546, 87.639 264.642 C 87.794 262.809, 87.401 262.543, 86.556 263.910 M 71.316 268.999 C 76.087 271.645, 89.139 275.041, 93.910 274.877 C 96.417 274.790, 95.551 274.475, 91.042 273.831 C 85.534 273.044, 80.640 271.630, 69.500 267.605 C 68.400 267.208, 69.217 267.835, 71.316 268.999 M 126.642 270.590 C 122.871 271.908, 117.021 273.384, 113.642 273.870 C 109.412 274.478, 108.589 274.787, 111 274.862 C 115.486 275.001, 125.226 272.701, 131 270.138 C 137.059 267.450, 135.028 267.660, 126.642 270.590 M 100.762 275.707 C 102.006 275.946, 103.806 275.937, 104.762 275.687 C 105.718 275.437, 104.700 275.241, 102.500 275.252 C 100.300 275.263, 99.518 275.468, 100.762 275.707 M 85.667 280.667 C 84.344 281.990, 84.972 288.775, 86.471 289.351 C 88.186 290.009, 91 287.531, 91 285.363 C 91 281.646, 87.643 278.690, 85.667 280.667 M 86.658 281.675 C 86.296 282.037, 86 283.641, 86 285.240 C 86 287.469, 86.408 288.069, 87.750 287.813 C 89.940 287.396, 90.564 283.713, 88.706 282.171 C 87.942 281.537, 87.020 281.313, 86.658 281.675 M 154.264 339.718 C 155.784 339.947, 158.034 339.941, 159.264 339.704 C 160.494 339.467, 159.250 339.279, 156.500 339.286 C 153.750 339.294, 152.744 339.488, 154.264 339.718 M 165.776 340.733 C 168.128 340.945, 171.728 340.942, 173.776 340.727 C 175.824 340.512, 173.900 340.339, 169.500 340.343 C 165.100 340.346, 163.424 340.522, 165.776 340.733 M 63.738 361.831 C 63.873 367.746, 64.465 372.855, 65.104 373.625 C 66.281 375.043, 75.229 377.908, 85.500 380.156 C 97.566 382.797, 136.540 381.305, 137.128 378.179 C 137.988 373.599, 138.238 371.096, 138.681 362.608 L 139.196 352.715 136.848 353.344 C 135.557 353.690, 134.162 353.979, 133.750 353.986 C 133.338 353.994, 132.913 357.038, 132.807 360.750 L 132.615 367.500 132.256 361.130 L 131.898 354.761 127.767 355.421 C 108.342 358.527, 89.216 357.918, 72.417 353.657 L 63.500 351.396 63.738 361.831 M 64.470 369.952 C 65.182 371.103, 79.863 375.223, 81.254 374.661 C 82.008 374.356, 81.824 374.127, 80.788 374.079 C 79.847 374.036, 75.688 372.924, 71.546 371.609 C 67.405 370.294, 64.221 369.548, 64.470 369.952 M 102.296 377.744 C 106.583 377.932, 113.333 377.931, 117.296 377.742 C 121.258 377.552, 117.750 377.399, 109.500 377.400 C 101.250 377.401, 98.008 377.556, 102.296 377.744" stroke="none" fill="#d7eaf7" fill-rule="evenodd"/><path d="M 80.966 228.633 C 80.948 232.960, 80.667 241.298, 80.341 247.162 L 79.750 257.823 92.125 257.289 C 103.594 256.795, 104.698 256.571, 107.202 254.237 C 109.633 251.971, 110.198 251.840, 112.835 252.932 C 114.447 253.599, 116.716 255.238, 117.876 256.573 C 119.037 257.908, 120.937 259, 122.099 259 C 125.822 259, 136.441 262.116, 138.250 263.739 C 139.503 264.863, 140 266.829, 140 270.655 C 140 273.595, 140.353 276, 140.784 276 C 141.729 276, 145 281.358, 145 282.904 C 145 283.507, 143.875 284, 142.500 284 C 140.527 284, 140 284.507, 140 286.402 C 140 288.166, 139.212 289.079, 137.036 289.838 L 134.071 290.871 133.747 301.186 L 133.422 311.500 133.211 301.183 C 133.020 291.867, 132.830 290.918, 131.250 291.411 C 120.327 294.815, 88.442 294.795, 76.750 291.377 C 75.232 290.933, 75 291.602, 75 296.433 C 75 302.373, 74.523 302.783, 69.250 301.370 C 67.246 300.833, 67 300.135, 67 294.990 C 67 290.922, 66.580 289.053, 65.580 288.669 C 63.473 287.861, 62.833 298.133, 63.194 326.972 L 63.500 351.445 72.492 353.689 C 85.295 356.884, 101.434 358.197, 113.618 357.036 C 126.213 355.836, 131.999 354.919, 132.002 354.122 C 132.004 353.780, 133.365 353.452, 135.027 353.392 C 136.689 353.333, 138.375 352.959, 138.774 352.562 C 139.173 352.164, 139.642 344.209, 139.816 334.884 L 140.133 317.929 147.816 318.714 C 165.824 320.556, 191.985 318.444, 192.015 315.147 C 192.027 313.841, 192.209 313.781, 192.890 314.857 C 193.840 316.355, 197.961 315.548, 199.235 313.615 C 199.639 313.002, 199.976 298.686, 199.985 281.802 L 200 251.104 197.015 252.145 L 194.030 253.185 193.749 282.343 L 193.469 311.500 193.234 282.394 L 193 253.288 185.250 254.724 C 180.857 255.538, 171.219 256.170, 163 256.184 C 148.919 256.208, 146.802 255.932, 125.250 251.255 C 123.271 250.826, 123 251.166, 123 254.083 C 123 256.573, 122.715 257.115, 121.856 256.256 C 121.024 255.424, 121.002 254.343, 121.774 252.306 C 123.771 247.037, 124.088 243.799, 123.418 235.541 L 122.748 227.282 114.019 226.662 C 106.314 226.115, 89.585 223.266, 83.250 221.422 C 81.054 220.782, 80.999 220.954, 80.966 228.633 M 102.445 240.361 C 101.707 243.303, 102.541 246.398, 104.637 248.494 C 106.846 250.703, 107.763 250.356, 108.492 247.036 C 109.787 241.139, 103.885 234.624, 102.445 240.361 M 115.260 242.250 C 113.289 246.362, 113.126 247.790, 114.424 249.565 C 117.092 253.214, 121.911 247.766, 120.608 242.574 C 119.799 239.349, 116.738 239.164, 115.260 242.250 M 93.429 247.750 C 94.071 250.482, 98.220 255, 100.087 255 C 102.140 255, 102.106 251.908, 100.016 248.525 C 98.453 245.996, 97.123 245, 95.310 245 C 93.064 245, 92.855 245.305, 93.429 247.750 M 145.667 268.667 C 144.199 270.134, 145.066 276.066, 147.036 278.036 C 149.664 280.664, 151 279.767, 151 275.375 C 151 269.827, 148.124 266.209, 145.667 268.667 M 158.689 270.791 C 156.262 273.473, 155.506 278.345, 157.287 279.823 C 160.542 282.525, 163.542 278.531, 162.828 272.448 C 162.422 268.992, 160.877 268.374, 158.689 270.791 M 166.573 278.570 C 164.497 280.646, 163.488 284.888, 164.766 286.166 C 167.345 288.745, 172.159 282.463, 170.639 278.502 C 169.899 276.573, 168.547 276.596, 166.573 278.570 M 149.693 283.787 C 147.380 286.343, 144.199 293.901, 143.441 298.645 C 142.632 303.706, 144.317 304.657, 150.036 302.369 C 153.679 300.911, 154.218 300.913, 156.471 302.389 C 157.823 303.275, 159.776 304, 160.810 304 C 163.274 304, 166 300.918, 166 298.131 C 166 292.740, 157.702 282, 153.536 282 C 152.312 282, 150.582 282.804, 149.693 283.787 M 85.667 306.667 C 84.289 308.044, 85.052 313.737, 86.829 315.345 C 90.327 318.511, 91.701 316.922, 91.018 310.500 C 90.640 306.947, 87.579 304.754, 85.667 306.667 M 98.668 309.188 C 96.339 312.877, 95.895 315.474, 97.272 317.357 C 99.068 319.813, 101.813 318.476, 102.842 314.643 C 104.396 308.861, 101.370 304.907, 98.668 309.188 M 76.701 312.632 C 74.291 315.042, 78.652 322, 82.573 322 C 85.616 322, 85.656 320.270, 82.715 315.905 C 80.462 312.562, 78.072 311.261, 76.701 312.632 M 105.375 318.339 C 103.723 321.805, 104.007 325, 105.969 325 C 108.168 325, 111.118 320.855, 110.811 318.198 C 110.335 314.096, 107.362 314.174, 105.375 318.339 M 133.409 332.500 C 133.408 341.850, 133.558 345.810, 133.743 341.299 C 133.928 336.789, 133.929 329.139, 133.745 324.299 C 133.562 319.460, 133.410 323.150, 133.409 332.500 M 89.693 321.787 C 87.147 324.600, 83.974 332.530, 83.726 336.698 C 83.477 340.879, 82.809 340.649, 93 339.880 C 94.375 339.777, 96.940 340.301, 98.700 341.046 C 101.558 342.256, 102.118 342.203, 103.950 340.545 C 107.644 337.202, 105.789 330.099, 99.471 323.400 C 95.875 319.588, 92.228 318.986, 89.693 321.787" stroke="none" fill="#efceff" fill-rule="evenodd"/><path d="M 101.500 195 C 100.432 198.364, 102.577 202.930, 105.250 202.985 C 105.662 202.993, 105.072 202.072, 103.939 200.939 C 102.790 199.790, 102.015 197.908, 102.189 196.689 C 102.466 194.742, 103.032 194.527, 107.314 194.749 C 109.961 194.886, 112.999 195.464, 114.064 196.034 C 115.150 196.615, 116 196.668, 116 196.154 C 116 195.112, 108.381 193, 104.625 193 C 103.013 193, 101.911 193.705, 101.500 195 M 104.116 197.250 C 104.203 198.943, 104.345 199.067, 104.689 197.750 C 105.213 195.744, 106.553 195.468, 107.594 197.152 C 107.985 197.785, 107.476 198.910, 106.462 199.652 C 105.447 200.393, 105.099 201, 105.686 201 C 106.274 201, 107.315 200.325, 108 199.500 C 108.993 198.303, 108.993 197.697, 108 196.500 C 106.133 194.250, 103.983 194.665, 104.116 197.250 M 127.729 196.092 C 126.755 196.659, 126.182 197.485, 126.455 197.928 C 126.729 198.371, 126.036 199.562, 124.915 200.577 C 123.170 202.156, 122.746 202.211, 121.958 200.960 C 121.334 199.970, 121.515 199.142, 122.519 198.390 C 123.333 197.779, 124 196.937, 124 196.517 C 124 196.098, 123.369 196.279, 122.597 196.919 C 121.520 197.813, 121.074 197.784, 120.676 196.792 C 120.362 196.010, 120.127 196.233, 120.079 197.357 C 120.026 198.610, 119.496 199.020, 118.448 198.618 C 117.552 198.275, 117.156 198.444, 117.511 199.019 C 117.850 199.566, 117.423 200.284, 116.563 200.614 C 115.704 200.944, 115 201.679, 115 202.248 C 115 203.317, 131.577 202.756, 132.683 201.650 C 132.993 201.340, 132.942 200.292, 132.570 199.321 C 132.001 197.840, 131.749 197.788, 131.001 198.999 C 130.510 199.793, 129.747 200.056, 129.304 199.584 C 128.862 199.112, 129.063 198.525, 129.750 198.280 C 131.081 197.805, 131.515 194.979, 130.250 195.030 C 129.838 195.047, 128.703 195.525, 127.729 196.092 M 85 199.627 C 85 200.323, 94.214 204.096, 95.146 203.781 C 95.605 203.627, 93.510 202.529, 90.490 201.342 C 87.471 200.155, 85 199.383, 85 199.627 M 130 206.199 C 126.975 206.730, 120 206.958, 114.500 206.705 C 106.595 206.343, 105.443 206.444, 109 207.188 C 114.493 208.337, 133.903 207.497, 135.353 206.047 C 135.929 205.471, 136.197 205.053, 135.950 205.117 C 135.703 205.181, 133.025 205.668, 130 206.199 M 150.168 215.040 L 150 218.579 139.723 220.210 C 129.442 221.841, 124 223.562, 124 225.184 C 124 225.658, 125.013 225.383, 126.250 224.572 C 128.749 222.935, 143.708 220.075, 150.881 219.864 C 153.421 219.789, 154.513 219.536, 153.307 219.302 C 151.618 218.974, 151.024 218.027, 150.725 215.188 L 150.336 211.500 150.168 215.040 M 144.667 223.667 C 143.419 224.914, 143.994 229.852, 145.571 231.429 C 146.436 232.293, 148.348 232.939, 149.821 232.864 L 152.500 232.728 150 232.268 C 146.071 231.546, 144.787 229.947, 145.212 226.306 C 145.634 222.697, 145.634 222.699, 144.667 223.667 M 151.716 224.350 C 154.584 225.092, 157.708 226.329, 158.658 227.099 C 160.139 228.301, 160.264 228.300, 159.537 227.095 C 158.946 226.115, 159.059 225.918, 159.911 226.445 C 160.827 227.011, 160.701 227.673, 159.405 229.105 C 158.455 230.154, 157.934 231.267, 158.246 231.579 C 158.926 232.259, 166.136 232.315, 171 231.678 C 172.925 231.426, 175.094 231.170, 175.820 231.110 C 176.595 231.045, 177.007 230.073, 176.819 228.750 C 176.617 227.332, 175.856 226.551, 174.760 226.637 C 173.804 226.712, 173.248 226.408, 173.524 225.961 C 174.107 225.018, 165.349 223.914, 159.500 224.192 C 157.300 224.297, 153.475 224.072, 151 223.693 C 146.671 223.029, 146.699 223.054, 151.716 224.350 M 148.250 225.631 C 149.213 225.914, 150 226.837, 150 227.680 C 150 228.633, 149.432 228.996, 148.500 228.638 C 147.675 228.322, 147 228.499, 147 229.031 C 147 229.564, 147.931 230, 149.070 230 C 151.898 230, 151.364 225.608, 148.500 225.318 C 146.942 225.160, 146.887 225.229, 148.250 225.631 M 123.300 232 C 123.300 235.025, 123.487 236.262, 123.716 234.750 C 123.945 233.238, 123.945 230.762, 123.716 229.250 C 123.487 227.738, 123.300 228.975, 123.300 232 M 186.500 232.589 C 182.650 233.850, 178.209 235.155, 176.632 235.489 C 175.055 235.824, 173.968 236.301, 174.217 236.550 C 174.903 237.236, 189.544 233.310, 192.717 231.590 C 196.405 229.590, 194.938 229.825, 186.500 232.589 M 136.523 232.902 C 137.060 233.428, 138.850 234.179, 140.500 234.570 C 144.370 235.488, 143.501 234.635, 139.023 233.121 C 137.110 232.475, 135.985 232.376, 136.523 232.902 M 150.762 236.707 C 152.006 236.946, 153.806 236.937, 154.762 236.687 C 155.718 236.437, 154.700 236.241, 152.500 236.252 C 150.300 236.263, 149.518 236.468, 150.762 236.707 M 159.250 237.716 C 160.762 237.945, 163.238 237.945, 164.750 237.716 C 166.262 237.487, 165.025 237.300, 162 237.300 C 158.975 237.300, 157.738 237.487, 159.250 237.716 M 264.750 238.750 C 300.637 238.895, 359.362 238.895, 395.250 238.750 C 431.137 238.604, 401.775 238.485, 330 238.485 C 258.225 238.485, 228.862 238.604, 264.750 238.750 M 193.320 248 C 193.320 251.575, 193.502 253.037, 193.723 251.250 C 193.945 249.463, 193.945 246.537, 193.723 244.750 C 193.502 242.963, 193.320 244.425, 193.320 248 M 193.420 276.500 C 193.419 287.500, 193.565 292.136, 193.745 286.803 C 193.924 281.470, 193.925 272.470, 193.746 266.803 C 193.568 261.136, 193.421 265.500, 193.420 276.500 M 85.200 261.200 C 83.867 262.533, 83.622 266.857, 84.775 268.671 C 85.855 270.368, 91 271.508, 91 270.049 C 91 269.407, 90.662 269.081, 90.250 269.324 C 89.838 269.566, 88.487 269.383, 87.250 268.915 C 84.432 267.850, 84.099 262.624, 86.750 261.080 C 87.713 260.519, 88.028 260.047, 87.450 260.030 C 86.873 260.014, 85.860 260.540, 85.200 261.200 M 96.750 263.515 C 101.672 265.618, 100.932 267.522, 94.587 269.075 C 92.736 269.529, 96.102 269.765, 103 269.666 L 114.500 269.500 114.163 267.110 C 113.887 265.148, 114.156 264.844, 115.663 265.414 C 117.427 266.080, 117.429 266.036, 115.714 264.304 C 114.254 262.829, 112.068 262.466, 103.714 262.313 C 94.191 262.139, 93.720 262.220, 96.750 263.515 M 86.556 263.910 C 85.577 265.494, 87.140 268, 89.107 268 C 91.075 268, 91.824 264.627, 90.093 263.558 C 89.595 263.249, 89.438 263.958, 89.745 265.133 C 90.149 266.677, 89.916 267.132, 88.902 266.776 C 88.131 266.506, 87.563 265.546, 87.639 264.642 C 87.794 262.809, 87.401 262.543, 86.556 263.910 M 200.252 267.500 C 200.263 269.700, 200.468 270.482, 200.707 269.238 C 200.946 267.994, 200.937 266.194, 200.687 265.238 C 200.437 264.282, 200.241 265.300, 200.252 267.500 M 71.316 268.999 C 76.087 271.645, 89.139 275.041, 93.910 274.877 C 96.417 274.790, 95.551 274.475, 91.042 273.831 C 85.534 273.044, 80.640 271.630, 69.500 267.605 C 68.400 267.208, 69.217 267.835, 71.316 268.999 M 128.762 269.908 C 123.749 271.743, 120.756 273.786, 124.996 272.479 C 128.561 271.379, 135.690 268.138, 134.500 268.158 C 133.950 268.167, 131.368 268.954, 128.762 269.908 M 120.477 272.587 C 119.915 272.822, 116.765 273.445, 113.477 273.969 L 107.500 274.924 113.956 274.456 C 117.507 274.198, 120.860 273.540, 121.406 272.994 C 122.440 271.960, 122.211 271.860, 120.477 272.587 M 100.762 275.707 C 102.006 275.946, 103.806 275.937, 104.762 275.687 C 105.718 275.437, 104.700 275.241, 102.500 275.252 C 100.300 275.263, 99.518 275.468, 100.762 275.707 M 133.320 286 C 133.320 289.575, 133.502 291.038, 133.723 289.250 C 133.945 287.462, 133.945 284.538, 133.723 282.750 C 133.502 280.962, 133.320 282.425, 133.320 286 M 133.328 304.500 C 133.333 308.350, 133.513 309.802, 133.730 307.728 C 133.946 305.653, 133.943 302.503, 133.722 300.728 C 133.501 298.952, 133.324 300.650, 133.328 304.500 M 193.252 307.500 C 193.263 309.700, 193.468 310.482, 193.707 309.238 C 193.946 307.994, 193.937 306.194, 193.687 305.238 C 193.437 304.282, 193.241 305.300, 193.252 307.500 M 192.196 320.125 C 192.088 323.769, 191.777 328.269, 191.503 330.125 L 191.007 333.500 192.048 330.189 C 192.620 328.368, 192.932 323.868, 192.740 320.189 L 192.392 313.500 192.196 320.125 M 133.409 332.500 C 133.408 341.850, 133.558 345.810, 133.743 341.299 C 133.928 336.789, 133.929 329.139, 133.745 324.299 C 133.562 319.460, 133.410 323.150, 133.409 332.500 M 192.500 337.567 C 191.950 337.792, 188.350 338.374, 184.500 338.862 C 179.679 339.471, 178.745 339.772, 181.500 339.827 C 183.700 339.871, 188.425 339.306, 192 338.573 C 195.575 337.839, 197.375 337.220, 196 337.198 C 194.625 337.176, 193.050 337.342, 192.500 337.567 M 154.264 339.718 C 155.784 339.947, 158.034 339.941, 159.264 339.704 C 160.494 339.467, 159.250 339.279, 156.500 339.286 C 153.750 339.294, 152.744 339.488, 154.264 339.718 M 165.776 340.733 C 168.128 340.945, 171.728 340.942, 173.776 340.727 C 175.824 340.512, 173.900 340.339, 169.500 340.343 C 165.100 340.346, 163.424 340.522, 165.776 340.733 M 132.336 360 C 132.336 364.125, 132.513 365.813, 132.728 363.750 C 132.944 361.688, 132.944 358.313, 132.728 356.250 C 132.513 354.188, 132.336 355.875, 132.336 360 M 64.470 369.952 C 65.182 371.103, 79.863 375.223, 81.254 374.661 C 82.008 374.356, 81.824 374.127, 80.788 374.079 C 79.847 374.036, 75.688 372.924, 71.546 371.609 C 67.405 370.294, 64.221 369.548, 64.470 369.952 M 102.296 377.744 C 106.583 377.932, 113.333 377.931, 117.296 377.742 C 121.258 377.552, 117.750 377.399, 109.500 377.400 C 101.250 377.401, 98.008 377.556, 102.296 377.744" stroke="none" fill="#d1d9da" fill-rule="evenodd"/><path d="M 116 195.941 C 116 196.459, 116.472 197.174, 117.049 197.530 C 117.753 197.965, 117.671 198.694, 116.799 199.750 C 115.633 201.160, 115.730 201.178, 117.750 199.920 C 118.987 199.149, 120.036 197.840, 120.079 197.009 C 120.136 195.924, 120.304 195.863, 120.676 196.792 C 121.074 197.784, 121.520 197.813, 122.597 196.919 C 123.369 196.279, 124 196.098, 124 196.517 C 124 196.937, 123.333 197.779, 122.519 198.390 C 121.515 199.142, 121.334 199.970, 121.958 200.960 C 122.746 202.211, 123.170 202.156, 124.915 200.577 C 126.036 199.562, 126.729 198.371, 126.455 197.928 C 126.182 197.485, 126.755 196.659, 127.729 196.092 C 129.073 195.309, 127.874 195.053, 122.750 195.030 C 119.037 195.014, 116 195.423, 116 195.941 M 130.144 197.691 C 129.404 198.483, 129.093 199.426, 129.453 199.787 C 129.814 200.147, 130.482 199.839, 130.938 199.101 C 131.593 198.040, 131.993 198.150, 132.853 199.630 C 133.879 201.397, 133.941 201.382, 133.970 199.357 C 134.008 196.683, 131.930 195.779, 130.144 197.691 M 200.225 272.750 C 200.172 291.313, 199.821 312.462, 199.444 319.750 L 198.759 333 329.379 333 L 460 333 460 286 L 460 239 330.160 239 L 200.321 239 200.225 272.750 M 114.154 266.438 C 114.345 267.355, 114.950 268.082, 115.500 268.053 C 116.984 267.974, 116.712 265.737, 115.154 265.218 C 114.313 264.938, 113.939 265.395, 114.154 266.438" stroke="none" fill="#ced5d5" fill-rule="evenodd"/><path d="" stroke="none" fill="#ccd4d5" fill-rule="evenodd"/><path d="M 157.328 212.500 C 157.333 216.350, 157.513 217.802, 157.730 215.728 C 157.946 213.653, 157.943 210.503, 157.722 208.728 C 157.501 206.952, 157.324 208.650, 157.328 212.500 M 105.462 213.348 C 107.821 215.074, 106.658 216.980, 103.191 217.070 C 100.809 217.132, 100.730 217.235, 102.500 217.965 C 105.397 219.159, 108.886 215.773, 107.045 213.555 C 106.336 212.700, 105.274 212, 104.686 212 C 104.099 212, 104.447 212.607, 105.462 213.348 M 117.576 213.187 C 115.679 219.273, 116.623 222.906, 119.337 219.966 C 120.228 219.001, 120.208 218.871, 119.250 219.412 C 118.353 219.919, 118.028 219.184, 118.100 216.809 C 118.193 213.698, 118.247 213.650, 119 216 L 119.801 218.500 119.900 215.809 C 120.006 212.946, 118.264 210.980, 117.576 213.187 M 86 213.211 C 86.275 213.482, 88.065 214.232, 89.977 214.879 C 91.890 215.525, 93.015 215.624, 92.477 215.098 C 91.940 214.572, 90.150 213.821, 88.500 213.430 C 86.850 213.039, 85.725 212.940, 86 213.211 M 94.674 216.012 C 96.048 217.282, 100.320 218.327, 99.640 217.227 C 99.304 216.683, 97.864 216.016, 96.439 215.744 C 95.014 215.471, 94.220 215.592, 94.674 216.012 M 80.343 228.500 C 80.346 232.900, 80.522 234.576, 80.733 232.224 C 80.945 229.872, 80.942 226.272, 80.727 224.224 C 80.512 222.176, 80.339 224.100, 80.343 228.500 M 63.385 283 C 63.385 289.875, 63.545 292.688, 63.740 289.250 C 63.936 285.813, 63.936 280.188, 63.740 276.750 C 63.545 273.313, 63.385 276.125, 63.385 283 M 67.252 282.500 C 67.263 284.700, 67.468 285.482, 67.707 284.238 C 67.946 282.994, 67.937 281.194, 67.687 280.238 C 67.437 279.282, 67.241 280.300, 67.252 282.500 M 88.032 280.691 C 88.014 281.346, 88.450 282.160, 89 282.500 C 90.807 283.617, 90.060 287.042, 87.829 287.868 C 86.517 288.353, 86.090 288.937, 86.748 289.345 C 88.151 290.211, 91 287.380, 91 285.120 C 91 283.175, 88.082 278.820, 88.032 280.691 M 164.728 344.722 C 166.503 344.943, 169.653 344.946, 171.728 344.730 C 173.802 344.513, 172.350 344.333, 168.500 344.328 C 164.650 344.324, 162.952 344.501, 164.728 344.722 M 139.310 355.500 C 139.315 358.800, 139.502 360.029, 139.725 358.232 C 139.947 356.435, 139.943 353.735, 139.715 352.232 C 139.486 350.729, 139.304 352.200, 139.310 355.500 M 63.343 361.500 C 63.346 365.900, 63.522 367.576, 63.733 365.224 C 63.945 362.872, 63.942 359.272, 63.727 357.224 C 63.512 355.176, 63.339 357.100, 63.343 361.500 M 137.921 374.249 C 137.623 376.399, 137.776 377.624, 138.279 377.121 C 138.762 376.638, 138.995 374.951, 138.798 373.372 C 138.468 370.728, 138.399 370.798, 137.921 374.249" stroke="none" fill="#f4f7f9" fill-rule="evenodd"/></svg>