<svg xmlns="http://www.w3.org/2000/svg" width="600" height="600" viewBox="0 0 600 600" version="1.1"><path d="M 100.032 174.019 C 89.830 175.451, 78.143 178.175, 76.240 179.565 C 74.672 180.711, 74.415 184.371, 73.641 216.668 C 73.086 239.848, 72.410 252.733, 71.726 253.161 C 71.145 253.525, 68.606 254.130, 66.085 254.506 C 58.380 255.656, 55.377 257.364, 54.648 261.012 C 54.291 262.793, 54 291.333, 54 324.434 C 54 371.073, 54.281 384.973, 55.250 386.195 C 56.644 387.955, 65.881 391.146, 76.500 393.536 C 87.243 395.954, 117.283 396.610, 128.414 394.670 C 134.019 393.693, 137.997 392.445, 139.130 391.308 C 140.680 389.751, 141.014 386.998, 141.528 371.500 C 142.333 347.221, 141.808 348.854, 148.247 350.620 C 152.736 351.851, 180.472 352.051, 339 351.997 C 458.603 351.957, 525.817 351.581, 528.208 350.940 C 533.450 349.534, 539.942 344.265, 543.479 338.544 L 546.500 333.657 546.500 286.078 C 546.500 239.171, 546.469 238.443, 544.330 234.447 C 541.473 229.110, 536.448 224.196, 531.500 221.900 C 527.657 220.117, 521.291 220.043, 369.725 220.022 L 211.950 220 211.016 217.541 C 210.283 215.615, 208.609 214.642, 203.290 213.054 C 194.151 210.324, 179.077 208.009, 170.404 208.004 L 163.309 208 162.665 195.296 C 162.251 187.134, 161.570 182.167, 160.760 181.402 C 155.415 176.353, 116.825 171.661, 100.032 174.019 M 95 190.679 C 80.722 193.186, 81.604 192.010, 80.879 209.510 C 80.538 217.755, 80.200 232.029, 80.129 241.231 C 80.002 257.731, 79.969 257.968, 77.750 258.424 C 66.009 260.833, 64.846 261.276, 63.931 263.681 C 63.399 265.082, 63 288.992, 63 319.542 L 63 372.954 65.357 374.498 C 66.653 375.348, 72.166 377.204, 77.607 378.624 C 95.216 383.219, 131.297 382.927, 137.001 378.144 C 138.755 376.673, 139.032 374.678, 139.637 359.156 L 140.313 341.813 143.390 342.428 C 157.371 345.224, 174.969 345.388, 189.767 342.860 C 196.209 341.759, 199 339.618, 199 335.777 C 199 334.114, 200.898 334, 228.500 334 L 258 334 258 286 L 258 238 229 238 L 200 238 200 232.691 C 200 229.771, 199.438 226.634, 198.750 225.719 C 196.880 223.231, 182 219.998, 169.250 219.310 L 158 218.703 158 208.786 C 158 203.331, 157.542 198.013, 156.983 196.968 C 153.655 190.749, 116.227 186.951, 95 190.679 M 111.607 214.582 C 110.579 217.262, 110.930 219, 112.500 219 C 113.500 219, 114 218, 114 216 C 114 212.794, 112.609 211.970, 111.607 214.582 M 128.963 240.598 C 127.538 244.345, 128.113 247.406, 130.320 247.827 C 132.604 248.262, 140 243.463, 140 241.545 C 140 239.704, 139.375 239.375, 134.258 238.529 C 130.269 237.869, 129.953 237.992, 128.963 240.598 M 102.528 239.954 C 101.812 241.114, 102.903 246.027, 104.260 247.750 C 104.802 248.438, 105.865 249, 106.622 249 C 108.371 249, 108.514 241.914, 106.800 240.200 C 105.358 238.758, 103.339 238.642, 102.528 239.954 M 115.559 242.887 C 113.593 246.688, 113.578 248.901, 115.513 249.643 C 118.076 250.627, 120.130 248.002, 119.801 244.163 C 119.412 239.632, 117.534 239.067, 115.559 242.887 M 94 247.326 C 94 249.981, 97.802 254, 100.314 254 C 102.684 254, 102.413 252.231, 99.449 248.344 C 96.465 244.432, 94 243.971, 94 247.326 M 107 255 C 106.018 256.835, 106.241 257.001, 109.715 257.014 C 111.797 257.021, 114.625 257.313, 116 257.662 L 118.500 258.296 116.076 255.648 C 113.106 252.405, 108.563 252.080, 107 255 M 146.119 269.356 C 144.562 271.233, 145.440 276.290, 147.640 278.117 C 150.898 280.820, 152.260 273.777, 149.208 270.008 C 147.606 268.031, 147.277 267.961, 146.119 269.356 M 158.593 272.170 C 156.265 275.494, 156.479 280, 158.965 280 C 161.387 280, 163.228 276.783, 162.812 273.278 C 162.401 269.823, 160.574 269.343, 158.593 272.170 M 67.469 286.578 C 66.636 297.677, 67.556 301, 71.460 301 C 74.219 301, 74.788 299.644, 75.236 292 C 75.486 287.741, 75.647 287.515, 78.250 287.788 C 80.769 288.052, 81 287.789, 81 284.660 C 81 282.782, 80.438 280.819, 79.750 280.298 C 78.457 279.317, 71.062 277, 69.227 277 C 68.629 277, 67.882 281.070, 67.469 286.578 M 141 280.309 C 141 282.923, 141.438 284, 142.500 284 C 144.401 284, 144.384 281.091, 142.468 278.559 C 141.092 276.739, 141 276.849, 141 280.309 M 166.627 279.250 C 165.847 280.488, 164.906 282.512, 164.537 283.750 C 164.009 285.520, 164.264 286, 165.733 286 C 168.507 286, 170 284.006, 170 280.300 C 170 276.467, 168.648 276.046, 166.627 279.250 M 150.299 284.250 C 147.492 287.332, 145.947 290.515, 144.386 296.434 C 142.709 302.789, 143.532 303.671, 149.564 301.982 C 153.704 300.823, 154.611 300.874, 157.505 302.433 C 164.622 306.266, 167.594 299.103, 162.496 290.403 C 160.143 286.387, 155.326 282, 153.270 282 C 152.763 282, 151.426 283.012, 150.299 284.250 M 85.523 307.927 C 84.720 310.456, 87.596 317.299, 89.236 316.761 C 92.124 315.812, 90.625 306, 87.592 306 C 86.791 306, 85.860 306.867, 85.523 307.927 M 98.241 309.986 C 96.533 312.720, 96.683 316.941, 98.513 317.643 C 101.008 318.601, 103 316.041, 103 311.878 C 103 308.843, 102.617 308, 101.241 308 C 100.273 308, 98.923 308.894, 98.241 309.986 M 76 314.507 C 76 316.302, 81.220 322, 82.864 322 C 84.957 322, 84.897 320.143, 82.699 316.873 C 80.227 313.196, 76 311.704, 76 314.507 M 107.750 316.240 C 105.154 318.211, 103.689 322.943, 105.463 323.624 C 107.423 324.376, 108.940 323.289, 110.067 320.324 C 111.363 316.915, 110.007 314.526, 107.750 316.240 M 90.131 322.360 C 87.379 325.290, 84 333.979, 84 338.127 C 84 341.013, 84.195 341.185, 86.750 340.556 C 93.429 338.911, 94.897 338.895, 97.877 340.436 C 104.319 343.767, 107.756 338.259, 104.034 330.570 C 101.806 325.968, 95.937 320, 93.640 320 C 92.930 320, 91.351 321.062, 90.131 322.360" stroke="none" fill="#ffffff" fill-rule="evenodd"/><path d="M 80.966 228.633 C 80.948 232.960, 80.668 241.275, 80.344 247.112 L 79.755 257.724 92.127 257.247 C 103.648 256.803, 104.686 256.596, 107.202 254.244 C 109.634 251.970, 110.197 251.839, 112.835 252.932 C 114.447 253.599, 116.716 255.238, 117.876 256.573 C 119.037 257.908, 121.012 259, 122.265 259 C 126.062 259, 138.203 262.712, 139.115 264.152 C 139.585 264.893, 139.976 267.685, 139.985 270.356 C 139.996 274.062, 140.592 275.915, 142.500 278.182 C 145.686 281.969, 145.709 284, 142.566 284 C 140.665 284, 140.064 284.592, 139.816 286.710 C 139.590 288.650, 138.789 289.586, 137 290.002 C 134.576 290.566, 134.483 290.903, 133.946 301.042 L 133.391 311.500 133.196 301.183 C 133.019 291.871, 132.829 290.917, 131.250 291.395 C 119.778 294.866, 88.648 294.855, 76.750 291.377 C 75.232 290.933, 75 291.602, 75 296.433 C 75 302.373, 74.523 302.783, 69.250 301.370 C 67.246 300.833, 67 300.135, 67 294.990 C 67 290.910, 66.581 289.053, 65.573 288.666 C 63.412 287.837, 62.848 296.692, 63.196 325.972 L 63.500 351.445 72.486 353.687 C 85.145 356.846, 100.732 358.123, 113.203 357.022 C 125.742 355.915, 131.999 354.950, 132.002 354.122 C 132.004 353.780, 133.365 353.452, 135.027 353.392 C 136.689 353.333, 138.375 352.959, 138.774 352.562 C 139.173 352.164, 139.642 344.209, 139.816 334.884 L 140.133 317.929 147.816 318.714 C 165.462 320.519, 191.985 318.378, 192.015 315.147 C 192.027 313.889, 192.226 313.809, 192.860 314.808 C 194.099 316.761, 198.698 315.252, 199.392 312.665 C 199.711 311.474, 199.979 297.136, 199.986 280.802 L 200 251.104 197.015 252.145 L 194.030 253.185 193.749 282.343 L 193.469 311.500 193.234 282.435 L 193 253.370 185.250 254.791 C 180.881 255.593, 171.175 256.218, 163 256.225 C 148.876 256.237, 147.177 256.013, 125.250 251.255 C 123.287 250.829, 123 251.171, 123 253.942 C 123 255.975, 122.609 256.876, 121.913 256.446 C 121.301 256.068, 121.124 254.840, 121.507 253.637 C 123.082 248.700, 123.785 241.045, 123.274 234.384 L 122.729 227.267 113.102 226.604 C 104.733 226.028, 90.301 223.529, 83.250 221.435 C 81.053 220.782, 80.999 220.950, 80.966 228.633 M 102.445 240.361 C 101.707 243.303, 102.541 246.398, 104.637 248.494 C 106.846 250.703, 107.763 250.356, 108.492 247.036 C 109.787 241.139, 103.885 234.624, 102.445 240.361 M 115.087 242.338 C 113.236 245.796, 114.029 250.500, 116.462 250.500 C 119.123 250.500, 121.486 246.072, 120.635 242.681 C 119.791 239.317, 116.802 239.132, 115.087 242.338 M 93.429 247.750 C 94.071 250.482, 98.220 255, 100.087 255 C 102.140 255, 102.106 251.908, 100.016 248.525 C 98.453 245.996, 97.123 245, 95.310 245 C 93.064 245, 92.855 245.305, 93.429 247.750 M 145.667 268.667 C 144.646 269.688, 144.874 274.896, 146.035 277.066 C 146.605 278.130, 147.955 279, 149.035 279 C 150.621 279, 151 278.312, 151 275.434 C 151 269.832, 148.136 266.197, 145.667 268.667 M 159.242 270.543 C 155.560 273.122, 155.416 281, 159.051 281 C 161.055 281, 163 277.547, 163 273.988 C 163 269.410, 162.073 268.560, 159.242 270.543 M 166.573 278.570 C 164.497 280.646, 163.488 284.888, 164.766 286.166 C 167.345 288.745, 172.159 282.463, 170.639 278.502 C 169.899 276.573, 168.547 276.596, 166.573 278.570 M 149.693 283.787 C 147.380 286.343, 144.199 293.901, 143.441 298.645 C 142.632 303.706, 144.317 304.657, 150.036 302.369 C 153.679 300.911, 154.218 300.913, 156.471 302.389 C 157.823 303.275, 159.776 304, 160.810 304 C 163.274 304, 166 300.918, 166 298.131 C 166 292.740, 157.702 282, 153.536 282 C 152.312 282, 150.582 282.804, 149.693 283.787 M 85.667 306.667 C 84.289 308.044, 85.052 313.737, 86.829 315.345 C 89.850 318.080, 91 317.350, 91 312.700 C 91 307.403, 88.152 304.181, 85.667 306.667 M 98.668 309.188 C 96.180 313.129, 95.815 315.672, 97.495 317.352 C 100.632 320.490, 103.562 316.697, 102.828 310.448 C 102.403 306.832, 100.516 306.260, 98.668 309.188 M 76.667 312.667 C 74.287 315.046, 78.688 322, 82.573 322 C 85.392 322, 85.573 321.009, 83.490 316.980 C 81.618 313.361, 78.159 311.174, 76.667 312.667 M 105.375 318.339 C 103.723 321.805, 104.007 325, 105.969 325 C 108.168 325, 111.118 320.855, 110.811 318.198 C 110.335 314.096, 107.362 314.174, 105.375 318.339 M 133.411 333 C 133.411 342.625, 133.561 346.563, 133.745 341.750 C 133.928 336.938, 133.928 329.063, 133.745 324.250 C 133.561 319.438, 133.411 323.375, 133.411 333 M 89.693 321.787 C 87.147 324.600, 83.974 332.530, 83.726 336.698 C 83.477 340.879, 82.809 340.649, 93 339.880 C 94.375 339.777, 96.940 340.301, 98.700 341.046 C 101.558 342.256, 102.118 342.203, 103.950 340.545 C 107.644 337.202, 105.789 330.099, 99.471 323.400 C 95.875 319.588, 92.228 318.986, 89.693 321.787" stroke="none" fill="#efcdff" fill-rule="evenodd"/><path d="M 100.032 174.019 C 89.830 175.451, 78.143 178.175, 76.240 179.565 C 74.672 180.711, 74.415 184.371, 73.641 216.668 C 73.086 239.848, 72.410 252.733, 71.726 253.161 C 71.145 253.525, 68.606 254.130, 66.085 254.506 C 58.380 255.656, 55.377 257.364, 54.648 261.012 C 54.291 262.793, 54 291.333, 54 324.434 C 54 371.073, 54.281 384.973, 55.250 386.195 C 56.644 387.955, 65.881 391.146, 76.500 393.536 C 87.243 395.954, 117.283 396.610, 128.414 394.670 C 134.019 393.693, 137.997 392.445, 139.130 391.308 C 140.680 389.751, 141.014 386.998, 141.528 371.500 C 142.333 347.221, 141.808 348.854, 148.247 350.620 C 152.736 351.851, 180.472 352.051, 339 351.997 C 458.603 351.957, 525.817 351.581, 528.208 350.940 C 533.450 349.534, 539.942 344.265, 543.479 338.544 L 546.500 333.657 546.500 286.078 C 546.500 239.171, 546.469 238.443, 544.330 234.447 C 541.473 229.110, 536.448 224.196, 531.500 221.900 C 527.657 220.117, 521.291 220.043, 369.725 220.022 L 211.950 220 211.016 217.541 C 210.283 215.615, 208.609 214.642, 203.290 213.054 C 194.151 210.324, 179.077 208.009, 170.404 208.004 L 163.309 208 162.665 195.296 C 162.251 187.134, 161.570 182.167, 160.760 181.402 C 155.415 176.353, 116.825 171.661, 100.032 174.019 M 95 190.679 C 80.722 193.186, 81.604 192.010, 80.879 209.510 C 80.538 217.755, 80.200 232.029, 80.129 241.231 C 80.002 257.731, 79.969 257.968, 77.750 258.424 C 66.009 260.833, 64.846 261.276, 63.931 263.681 C 63.399 265.082, 63 288.992, 63 319.542 L 63 372.954 65.357 374.498 C 66.653 375.348, 72.166 377.204, 77.607 378.624 C 95.216 383.219, 131.297 382.927, 137.001 378.144 C 138.755 376.673, 139.032 374.678, 139.637 359.156 L 140.313 341.813 143.390 342.428 C 157.371 345.224, 174.969 345.388, 189.767 342.860 C 196.209 341.759, 199 339.618, 199 335.777 C 199 334.114, 200.898 334, 228.500 334 L 258 334 258 286 L 258 238 229 238 L 200 238 200 232.691 C 200 229.771, 199.438 226.634, 198.750 225.719 C 196.880 223.231, 182 219.998, 169.250 219.310 L 158 218.703 158 208.786 C 158 203.331, 157.542 198.013, 156.983 196.968 C 153.655 190.749, 116.227 186.951, 95 190.679 M 111.607 214.582 C 110.579 217.262, 110.930 219, 112.500 219 C 113.500 219, 114 218, 114 216 C 114 212.794, 112.609 211.970, 111.607 214.582 M 128.963 240.598 C 127.538 244.345, 128.113 247.406, 130.320 247.827 C 132.604 248.262, 140 243.463, 140 241.545 C 140 239.704, 139.375 239.375, 134.258 238.529 C 130.269 237.869, 129.953 237.992, 128.963 240.598 M 102.528 239.954 C 101.812 241.114, 102.903 246.027, 104.260 247.750 C 104.802 248.438, 105.865 249, 106.622 249 C 108.371 249, 108.514 241.914, 106.800 240.200 C 105.358 238.758, 103.339 238.642, 102.528 239.954 M 115.559 242.887 C 113.593 246.688, 113.578 248.901, 115.513 249.643 C 118.076 250.627, 120.130 248.002, 119.801 244.163 C 119.412 239.632, 117.534 239.067, 115.559 242.887 M 94 247.326 C 94 249.981, 97.802 254, 100.314 254 C 102.684 254, 102.413 252.231, 99.449 248.344 C 96.465 244.432, 94 243.971, 94 247.326 M 107 255 C 106.018 256.835, 106.241 257.001, 109.715 257.014 C 111.797 257.021, 114.625 257.313, 116 257.662 L 118.500 258.296 116.076 255.648 C 113.106 252.405, 108.563 252.080, 107 255 M 146.119 269.356 C 144.562 271.233, 145.440 276.290, 147.640 278.117 C 150.898 280.820, 152.260 273.777, 149.208 270.008 C 147.606 268.031, 147.277 267.961, 146.119 269.356 M 158.593 272.170 C 156.265 275.494, 156.479 280, 158.965 280 C 161.387 280, 163.228 276.783, 162.812 273.278 C 162.401 269.823, 160.574 269.343, 158.593 272.170 M 67.469 286.578 C 66.636 297.677, 67.556 301, 71.460 301 C 74.219 301, 74.788 299.644, 75.236 292 C 75.486 287.741, 75.647 287.515, 78.250 287.788 C 80.769 288.052, 81 287.789, 81 284.660 C 81 282.782, 80.438 280.819, 79.750 280.298 C 78.457 279.317, 71.062 277, 69.227 277 C 68.629 277, 67.882 281.070, 67.469 286.578 M 141 280.309 C 141 282.923, 141.438 284, 142.500 284 C 144.401 284, 144.384 281.091, 142.468 278.559 C 141.092 276.739, 141 276.849, 141 280.309 M 166.627 279.250 C 165.847 280.488, 164.906 282.512, 164.537 283.750 C 164.009 285.520, 164.264 286, 165.733 286 C 168.507 286, 170 284.006, 170 280.300 C 170 276.467, 168.648 276.046, 166.627 279.250 M 150.299 284.250 C 147.492 287.332, 145.947 290.515, 144.386 296.434 C 142.709 302.789, 143.532 303.671, 149.564 301.982 C 153.704 300.823, 154.611 300.874, 157.505 302.433 C 164.622 306.266, 167.594 299.103, 162.496 290.403 C 160.143 286.387, 155.326 282, 153.270 282 C 152.763 282, 151.426 283.012, 150.299 284.250 M 85.523 307.927 C 84.720 310.456, 87.596 317.299, 89.236 316.761 C 92.124 315.812, 90.625 306, 87.592 306 C 86.791 306, 85.860 306.867, 85.523 307.927 M 98.241 309.986 C 96.533 312.720, 96.683 316.941, 98.513 317.643 C 101.008 318.601, 103 316.041, 103 311.878 C 103 308.843, 102.617 308, 101.241 308 C 100.273 308, 98.923 308.894, 98.241 309.986 M 76 314.507 C 76 316.302, 81.220 322, 82.864 322 C 84.957 322, 84.897 320.143, 82.699 316.873 C 80.227 313.196, 76 311.704, 76 314.507 M 107.750 316.240 C 105.154 318.211, 103.689 322.943, 105.463 323.624 C 107.423 324.376, 108.940 323.289, 110.067 320.324 C 111.363 316.915, 110.007 314.526, 107.750 316.240 M 90.131 322.360 C 87.379 325.290, 84 333.979, 84 338.127 C 84 341.013, 84.195 341.185, 86.750 340.556 C 93.429 338.911, 94.897 338.895, 97.877 340.436 C 104.319 343.767, 107.756 338.259, 104.034 330.570 C 101.806 325.968, 95.937 320, 93.640 320 C 92.930 320, 91.351 321.062, 90.131 322.360" stroke="none" fill="#ffffff" fill-rule="evenodd"/><path d="M 106.500 189.640 C 97.837 190.557, 85.385 193.207, 83.250 194.589 C 81.117 195.971, 81 196.687, 81 208.406 C 81 222.638, 79.342 220.746, 94.648 223.980 C 99.679 225.043, 107.951 226.226, 113.028 226.610 C 121.768 227.269, 122.348 227.190, 123.909 225.121 C 125.148 223.478, 127.913 222.449, 135.029 220.980 C 140.238 219.906, 145.710 219.020, 147.190 219.013 C 149.558 219.002, 149.926 218.552, 150.272 215.250 L 150.664 211.500 150.832 215.250 C 150.972 218.377, 151.374 219.023, 153.250 219.136 C 154.488 219.210, 152.350 219.616, 148.500 220.037 C 136.374 221.363, 128.026 223.155, 126.046 224.856 C 124.394 226.275, 124.090 228.161, 123.816 238.649 L 123.500 250.797 133 252.933 C 150.596 256.888, 170.782 257.453, 186.500 254.428 C 192.903 253.196, 192.883 253.217, 193.263 247.198 L 193.622 241.500 193.811 247.164 C 194 252.824, 194.001 252.827, 196.750 252.093 L 199.500 251.359 199.780 239.912 C 199.980 231.728, 199.690 227.958, 198.762 226.689 C 196.538 223.648, 173.899 219, 161.309 219 L 157.066 219 156.783 207.761 L 156.500 196.523 153.664 195.166 C 146.216 191.601, 118.571 188.362, 106.500 189.640 M 101.497 195.156 C 101.163 196.488, 101.354 198.800, 101.921 200.293 L 102.953 203.008 117.227 202.657 C 131.998 202.294, 135 201.746, 135 199.416 C 135 196.458, 130.109 194.704, 121.195 194.465 C 116.413 194.337, 110.161 193.895, 107.302 193.483 C 102.359 192.770, 102.075 192.852, 101.497 195.156 M 102.337 195.564 C 102.007 196.424, 102.237 198.224, 102.847 199.564 C 104.102 202.318, 108.318 202.831, 113.851 200.902 C 118.490 199.285, 117.736 197.296, 111.818 195.539 C 105.266 193.593, 103.091 193.599, 102.337 195.564 M 104 197.441 C 104 200.605, 105.773 201.655, 107.760 199.669 C 109.052 198.377, 109.102 197.827, 108.042 196.550 C 106.093 194.203, 104 194.664, 104 197.441 M 105 198 C 105 199.949, 106.061 200.606, 107.264 199.402 C 108.066 198.601, 107.017 196, 105.893 196 C 105.402 196, 105 196.900, 105 198 M 85.597 199.983 C 87.424 201.833, 100.079 205.838, 108.023 207.081 C 121.138 209.132, 142.480 206.301, 150.894 201.393 C 152.327 200.557, 152.600 200.192, 151.500 200.582 C 137.487 205.552, 133.342 206.313, 120 206.364 C 105.931 206.418, 99.502 205.278, 89.298 200.922 C 86.659 199.795, 84.994 199.373, 85.597 199.983 M 85.187 210.161 C 85.469 213.012, 86.039 213.507, 91 215.212 C 100.175 218.366, 104.873 218.984, 106.593 217.264 C 109.501 214.356, 108.557 213.647, 96.460 209.654 C 85.787 206.131, 84.792 206.175, 85.187 210.161 M 86 210.354 C 86 212.419, 86.920 212.982, 93.463 214.924 C 97.568 216.143, 102.181 216.996, 103.713 216.820 C 108.326 216.290, 106.994 213.855, 101.294 212.396 C 98.430 211.663, 94.438 210.374, 92.422 209.532 C 87.367 207.420, 86 207.595, 86 210.354 M 117.568 213.083 C 116.310 216.670, 116.533 220.500, 118 220.500 C 118.973 220.500, 119.613 219.315, 119.823 217.123 C 120.164 213.550, 118.470 210.513, 117.568 213.083 M 111 216.500 C 111 220.643, 113.607 221.413, 114.575 217.557 C 115.288 214.716, 114.484 213, 112.441 213 C 111.461 213, 111 214.119, 111 216.500 M 144.750 223.566 C 143.434 224.913, 143.945 229.802, 145.571 231.429 C 146.436 232.293, 148.348 232.939, 149.821 232.864 L 152.500 232.728 150 232.268 C 146.328 231.593, 145 230.124, 145 226.738 L 145 223.721 150.126 224.329 C 156.597 225.095, 160.655 227.506, 158.944 229.567 C 158.290 230.355, 156.573 231.066, 155.128 231.147 C 153.682 231.228, 155.200 231.622, 158.500 232.023 C 164.095 232.703, 169.381 232.506, 174.750 231.418 C 176.156 231.133, 177 230.232, 177 229.016 C 177 225.973, 173.217 224.625, 164 224.384 C 159.325 224.261, 153.250 223.854, 150.500 223.480 C 147.750 223.105, 145.162 223.144, 144.750 223.566 M 146.590 225.854 C 145.567 227.509, 147.121 230, 149.177 230 C 150.638 230, 151.057 229.428, 150.820 227.760 C 150.489 225.442, 147.639 224.157, 146.590 225.854 M 147.229 227.188 C 147.847 229.042, 150 229.349, 150 227.583 C 150 226.713, 149.287 226, 148.417 226 C 147.546 226, 147.011 226.534, 147.229 227.188 M 129.132 230.407 C 133.737 233.090, 148.521 236.857, 157.155 237.547 C 166.679 238.308, 180.296 236.358, 189.499 232.914 C 197.394 229.961, 195.952 229.691, 187.479 232.536 C 171.593 237.872, 153.455 237.903, 137.804 232.621 C 126.470 228.796, 126.289 228.750, 129.132 230.407 M 80.272 237 C 80.272 239.475, 80.467 240.488, 80.706 239.250 C 80.944 238.012, 80.944 235.988, 80.706 234.750 C 80.467 233.512, 80.272 234.525, 80.272 237 M 128.441 240.379 C 127.469 244.250, 128.335 248.452, 130.176 248.801 C 133.084 249.352, 140 244.279, 140 241.594 C 140 238.834, 138.362 238, 132.937 238 C 129.665 238, 128.942 238.382, 128.441 240.379 M 257.240 285.750 L 257 333 228 333 L 199 333 199 323.883 C 199 314.917, 198.963 314.777, 196.750 315.370 C 195.512 315.701, 194.162 315.979, 193.750 315.986 C 193.338 315.994, 192.993 319.262, 192.985 323.250 C 192.976 327.238, 192.536 331.175, 192.007 332 C 191.374 332.986, 191.263 330.621, 191.683 325.093 L 192.321 316.686 188.410 317.337 C 171.383 320.171, 159.669 320.452, 144.750 318.386 L 140 317.728 140 327.242 L 140 336.756 147.750 337.954 C 152.012 338.613, 160.450 339.503, 166.500 339.932 C 175.123 340.542, 176.095 340.740, 171 340.848 C 164.861 340.977, 153.726 339.973, 144.250 338.434 C 140.771 337.870, 140 338.027, 140 339.305 C 140 340.163, 140.788 341.097, 141.750 341.380 C 156.132 345.606, 196.203 343.975, 197.807 339.097 C 198.174 337.983, 197.470 337.833, 194.384 338.367 C 190.045 339.118, 176.650 340.153, 179 339.556 C 179.825 339.346, 184.438 338.639, 189.250 337.984 C 195.504 337.133, 198 336.395, 198 335.396 C 198 334.233, 202.921 334, 227.531 334 C 250.234 334, 257.174 333.711, 257.542 332.750 C 257.806 332.063, 257.899 310.575, 257.750 285 L 257.480 238.500 257.240 285.750 M 84.500 257.625 C 83.400 257.841, 78.797 258.745, 74.270 259.632 C 69.744 260.520, 65.567 261.817, 64.988 262.514 C 63.434 264.387, 64.126 288.212, 65.750 288.752 C 66.636 289.046, 67 287.743, 67 284.274 C 67 281.584, 67.563 278.638, 68.250 277.729 C 69.410 276.195, 69.897 276.206, 75 277.884 C 80.397 279.659, 80.506 279.771, 80.807 283.847 C 81.106 287.879, 81.026 288, 78.057 288 C 74.690 288, 73.734 290.482, 76.750 291.395 C 85.288 293.978, 109.930 294.843, 122 292.983 C 133.556 291.203, 132.857 291.683, 133.261 285.243 L 133.622 279.500 133.811 285.198 L 134 290.896 137 289.850 L 140 288.804 140 277.057 C 140 267.108, 139.732 265.080, 138.250 263.808 C 136.015 261.891, 126.691 259.404, 116.678 258.054 C 109.256 257.054, 88.793 256.781, 84.500 257.625 M 85.200 261.200 C 83.777 262.623, 83.648 266.895, 84.965 268.977 C 85.730 270.188, 88.367 270.399, 99.585 270.151 C 117.343 269.757, 120.557 268.625, 115.896 264.405 C 114.207 262.877, 112.082 262.466, 105.146 262.327 C 100.391 262.232, 94.475 261.680, 92 261.101 C 86.343 259.778, 86.626 259.774, 85.200 261.200 M 85.399 262.403 C 85.093 263.201, 84.990 264.900, 85.171 266.177 C 85.464 268.243, 86.109 268.532, 91.001 268.792 C 100.090 269.276, 103.177 265.120, 95.208 263.127 C 86.576 260.970, 85.966 260.925, 85.399 262.403 M 86.631 263.518 C 85.765 265.777, 86.993 268, 89.107 268 C 91.621 268, 91.616 264.400, 89.100 263.053 C 87.662 262.284, 87.062 262.397, 86.631 263.518 M 68.500 267.786 C 70.272 269.699, 84.252 273.824, 93 275.015 C 104.889 276.633, 119.940 274.809, 130.908 270.420 C 137.651 267.722, 134.977 267.787, 126.953 270.516 C 108.771 276.700, 90.891 275.755, 69.500 267.479 C 68.090 266.934, 67.795 267.024, 68.500 267.786 M 85.667 280.667 C 84.344 281.990, 84.972 288.775, 86.471 289.351 C 88.186 290.009, 91 287.531, 91 285.363 C 91 281.646, 87.643 278.690, 85.667 280.667 M 86.658 281.675 C 86.296 282.037, 86 283.641, 86 285.240 C 86 287.469, 86.408 288.069, 87.750 287.813 C 89.940 287.396, 90.564 283.713, 88.706 282.171 C 87.942 281.537, 87.020 281.313, 86.658 281.675 M 63.738 361.831 C 63.873 367.746, 64.465 372.855, 65.104 373.625 C 66.274 375.035, 75.118 377.873, 85.500 380.171 C 93.648 381.974, 125.672 381.780, 132.488 379.886 C 135.592 379.023, 137.597 377.874, 137.794 376.843 C 138.067 375.415, 137.585 375.308, 134.305 376.069 C 132.212 376.555, 129.150 376.919, 127.500 376.878 C 125.690 376.833, 126.978 376.316, 130.745 375.573 C 134.180 374.897, 137.330 374.004, 137.745 373.590 C 138.160 373.176, 138.657 368.310, 138.848 362.776 L 139.196 352.715 136.848 353.344 C 135.557 353.690, 134.162 353.979, 133.750 353.986 C 133.338 353.994, 132.913 357.038, 132.807 360.750 L 132.615 367.500 132.256 361.130 L 131.898 354.761 127.767 355.421 C 108.322 358.531, 88.613 357.920, 72.393 353.707 L 63.500 351.396 63.738 361.831 M 64.527 369.884 C 66.070 371.357, 78.183 374.790, 87.741 376.461 C 93.271 377.429, 101.660 377.932, 110.500 377.827 L 124.500 377.660 107.500 376.969 C 90.392 376.274, 80.121 374.654, 69.375 370.957 C 66.174 369.856, 63.992 369.373, 64.527 369.884" stroke="none" fill="#d5e5ee" fill-rule="evenodd"/><path d="M 118.768 202.725 C 120.565 202.947, 123.265 202.943, 124.768 202.715 C 126.271 202.486, 124.800 202.304, 121.500 202.310 C 118.200 202.315, 116.971 202.502, 118.768 202.725 M 150.079 217.184 C 150.030 218.225, 148.951 219.026, 147.250 219.284 C 145.463 219.554, 146.076 219.747, 149 219.835 C 151.475 219.909, 153.005 219.639, 152.400 219.235 C 151.795 218.831, 151.043 217.825, 150.729 217 C 150.261 215.772, 150.144 215.805, 150.079 217.184 M 144.390 224.427 C 144.088 225.212, 144.009 226.900, 144.214 228.177 C 144.488 229.886, 144.721 229.509, 145.093 226.750 C 145.616 222.868, 145.339 221.952, 144.390 224.427 M 162.762 224.707 C 164.006 224.946, 165.806 224.937, 166.762 224.687 C 167.718 224.437, 166.700 224.241, 164.500 224.252 C 162.300 224.263, 161.518 224.468, 162.762 224.707 M 148.189 225.619 C 149.117 225.896, 150.091 227.108, 150.352 228.311 C 150.751 230.146, 150.801 230.097, 150.664 228.010 C 150.553 226.320, 149.858 225.455, 148.500 225.318 C 147.061 225.172, 146.973 225.256, 148.189 225.619 M 123.300 232 C 123.300 235.025, 123.487 236.262, 123.716 234.750 C 123.945 233.238, 123.945 230.762, 123.716 229.250 C 123.487 227.738, 123.300 228.975, 123.300 232 M 214.311 238.748 C 222.457 238.916, 235.507 238.916, 243.311 238.747 C 251.115 238.579, 244.450 238.441, 228.500 238.441 C 212.550 238.442, 206.165 238.580, 214.311 238.748 M 193.286 247.500 C 193.294 250.250, 193.488 251.256, 193.718 249.736 C 193.947 248.216, 193.941 245.966, 193.704 244.736 C 193.467 243.506, 193.279 244.750, 193.286 247.500 M 193.420 276.500 C 193.419 287.500, 193.565 292.136, 193.745 286.803 C 193.924 281.470, 193.925 272.470, 193.746 266.803 C 193.568 261.136, 193.421 265.500, 193.420 276.500 M 85.046 261.445 C 84.386 262.240, 84.045 263.927, 84.287 265.195 C 84.685 267.275, 84.741 267.236, 84.864 264.800 C 84.939 263.315, 85.787 261.641, 86.750 261.080 C 87.713 260.519, 87.993 260.047, 87.372 260.030 C 86.752 260.014, 85.705 260.650, 85.046 261.445 M 102.250 262.716 C 103.763 262.945, 106.237 262.945, 107.750 262.716 C 109.263 262.487, 108.025 262.300, 105 262.300 C 101.975 262.300, 100.737 262.487, 102.250 262.716 M 111 264.195 C 109.625 264.783, 107.037 265.263, 105.250 265.262 C 103.463 265.260, 102 265.558, 102 265.922 C 102 266.286, 103.990 266.579, 106.423 266.572 C 108.856 266.566, 110.629 266.209, 110.364 265.780 C 110.099 265.351, 110.557 265, 111.382 265 C 112.207 265, 113.160 264.550, 113.500 264 C 114.230 262.819, 114.217 262.820, 111 264.195 M 106.250 268.175 C 101.590 269.440, 102.238 270.064, 108 269.860 C 110.750 269.762, 113 269.545, 113 269.377 C 113 268.154, 108.971 267.437, 106.250 268.175 M 133.252 288.500 C 133.263 290.700, 133.468 291.482, 133.707 290.238 C 133.946 288.994, 133.937 287.194, 133.687 286.238 C 133.437 285.282, 133.241 286.300, 133.252 288.500 M 133.328 304.500 C 133.333 308.350, 133.513 309.802, 133.730 307.728 C 133.946 305.653, 133.943 302.503, 133.722 300.728 C 133.501 298.952, 133.324 300.650, 133.328 304.500 M 193.252 307.500 C 193.263 309.700, 193.468 310.482, 193.707 309.238 C 193.946 307.994, 193.937 306.194, 193.687 305.238 C 193.437 304.282, 193.241 305.300, 193.252 307.500 M 199.252 315.500 C 199.263 317.700, 199.468 318.482, 199.707 317.238 C 199.946 315.994, 199.937 314.194, 199.687 313.238 C 199.437 312.282, 199.241 313.300, 199.252 315.500 M 192.310 319.500 C 192.315 322.800, 192.502 324.029, 192.725 322.232 C 192.947 320.435, 192.943 317.735, 192.715 316.232 C 192.486 314.729, 192.304 316.200, 192.310 319.500 M 133.355 324.500 C 133.352 329.450, 133.521 331.601, 133.731 329.280 C 133.940 326.959, 133.943 322.909, 133.736 320.280 C 133.530 317.651, 133.358 319.550, 133.355 324.500 M 133.349 342 C 133.349 346.675, 133.522 348.587, 133.732 346.250 C 133.943 343.913, 133.943 340.087, 133.732 337.750 C 133.522 335.413, 133.349 337.325, 133.349 342 M 153.762 339.707 C 155.006 339.946, 156.806 339.937, 157.762 339.687 C 158.718 339.437, 157.700 339.241, 155.500 339.252 C 153.300 339.263, 152.518 339.468, 153.762 339.707 M 180.762 339.707 C 182.006 339.946, 183.806 339.937, 184.762 339.687 C 185.718 339.437, 184.700 339.241, 182.500 339.252 C 180.300 339.263, 179.518 339.468, 180.762 339.707 M 166.250 340.716 C 167.762 340.945, 170.238 340.945, 171.750 340.716 C 173.262 340.487, 172.025 340.300, 169 340.300 C 165.975 340.300, 164.738 340.487, 166.250 340.716 M 132.286 360.500 C 132.294 363.250, 132.488 364.256, 132.718 362.736 C 132.947 361.216, 132.941 358.966, 132.704 357.736 C 132.467 356.506, 132.279 357.750, 132.286 360.500 M 98.264 377.718 C 99.784 377.947, 102.034 377.941, 103.264 377.704 C 104.494 377.467, 103.250 377.279, 100.500 377.286 C 97.750 377.294, 96.744 377.488, 98.264 377.718 M 115.250 377.716 C 116.763 377.945, 119.237 377.945, 120.750 377.716 C 122.263 377.487, 121.025 377.300, 118 377.300 C 114.975 377.300, 113.737 377.487, 115.250 377.716" stroke="none" fill="#d1dadd" fill-rule="evenodd"/><path d="M 116 195.800 C 116 196.240, 116.488 197.088, 117.084 197.684 C 117.863 198.463, 117.519 199.223, 115.862 200.384 C 113.647 201.936, 113.842 202, 120.777 202 C 125.881 202, 128.004 201.633, 128.015 200.750 C 128.027 199.782, 128.205 199.774, 128.801 200.712 C 129.917 202.469, 134 201.110, 134 198.981 C 134 197.878, 132.797 196.776, 130.851 196.098 C 127.223 194.833, 116 194.608, 116 195.800 M 158.800 226.200 C 160.656 228.056, 160.226 229.980, 157.750 230.904 C 156.208 231.479, 158.224 231.791, 164.154 231.897 C 170.709 232.013, 173.175 231.682, 174.323 230.534 C 175.468 229.390, 175.962 229.322, 176.341 230.259 C 176.645 231.012, 176.873 230.834, 176.921 229.807 C 177.069 226.634, 173.043 225, 165.077 225 C 159.262 225, 157.867 225.267, 158.800 226.200 M 200 275.344 C 200 295.334, 199.707 316.484, 199.348 322.344 L 198.696 333 227.848 333 L 257 333 257 286 L 257 239 228.500 239 L 200 239 200 275.344 M 98.510 264.016 C 98.856 264.575, 99.557 264.774, 100.069 264.457 C 102.093 263.207, 100.857 266.858, 98.750 268.355 C 96.532 269.931, 96.550 269.949, 100 269.553 C 101.925 269.332, 104.848 268.748, 106.495 268.255 C 108.377 267.692, 110.509 267.743, 112.231 268.393 C 114.276 269.165, 115.293 269.101, 116.236 268.143 C 117.257 267.105, 117.047 266.488, 115.139 264.929 C 113.277 263.408, 111.205 263, 105.330 263 C 100.540 263, 98.106 263.363, 98.510 264.016 M 109.641 264.771 C 109.379 265.195, 107.553 265.467, 105.582 265.374 C 103.612 265.281, 102 265.516, 102 265.895 C 102 266.274, 103.990 266.579, 106.423 266.572 C 108.856 266.566, 110.650 266.243, 110.411 265.856 C 110.171 265.468, 110.769 264.945, 111.738 264.692 C 113.313 264.281, 113.321 264.220, 111.809 264.116 C 110.879 264.052, 109.904 264.347, 109.641 264.771 M 193.272 300 C 193.272 302.475, 193.467 303.488, 193.706 302.250 C 193.944 301.012, 193.944 298.988, 193.706 297.750 C 193.467 296.512, 193.272 297.525, 193.272 300" stroke="none" fill="#ced5d5" fill-rule="evenodd"/><path d="M 155.509 237.015 C 155.844 237.557, 157.516 238, 159.226 238 C 163.003 238, 162.622 237.501, 158.200 236.659 C 156.139 236.266, 155.129 236.400, 155.509 237.015 M 87.113 262.652 C 86.270 264.501, 86.222 265.622, 86.952 266.352 C 87.683 267.083, 88.023 266.961, 88.074 265.950 C 88.115 265.152, 88.337 263.488, 88.568 262.250 C 89.125 259.260, 88.591 259.407, 87.113 262.652 M 87.500 270 C 88.281 271.264, 91.044 271.264, 93 270 C 94.113 269.280, 93.519 269.027, 90.691 269.015 C 88.403 269.006, 87.129 269.399, 87.500 270 M 96.655 275.250 C 96.909 275.663, 99.540 276, 102.500 276 C 105.460 276, 108.091 275.663, 108.345 275.250 C 108.600 274.837, 105.970 274.500, 102.500 274.500 C 99.030 274.500, 96.400 274.837, 96.655 275.250 M 191.757 327 C 191.356 328.375, 191.035 330.400, 191.044 331.500 C 191.060 333.356, 191.135 333.372, 192.094 331.724 C 192.663 330.748, 192.984 328.723, 192.807 327.224 L 192.486 324.500 191.757 327 M 106.750 377.706 C 107.987 377.944, 110.013 377.944, 111.250 377.706 C 112.487 377.467, 111.475 377.272, 109 377.272 C 106.525 377.272, 105.513 377.467, 106.750 377.706" stroke="none" fill="#d5e1e6" fill-rule="evenodd"/><path d="M 104.762 189.707 C 106.006 189.946, 107.806 189.937, 108.762 189.687 C 109.718 189.437, 108.700 189.241, 106.500 189.252 C 104.300 189.263, 103.518 189.468, 104.762 189.707 M 124.762 189.707 C 126.006 189.946, 127.806 189.937, 128.762 189.687 C 129.718 189.437, 128.700 189.241, 126.500 189.252 C 124.300 189.263, 123.518 189.468, 124.762 189.707 M 157.374 208.500 C 157.376 214.550, 157.541 216.896, 157.740 213.713 C 157.939 210.531, 157.937 205.581, 157.736 202.713 C 157.535 199.846, 157.372 202.450, 157.374 208.500 M 85.187 210.161 C 85.469 213.012, 86.039 213.507, 91 215.212 C 100.175 218.366, 104.873 218.984, 106.593 217.264 C 109.501 214.356, 108.557 213.647, 96.460 209.654 C 85.787 206.131, 84.792 206.175, 85.187 210.161 M 86 210.354 C 86 212.419, 86.920 212.982, 93.463 214.924 C 97.568 216.143, 102.181 216.996, 103.713 216.820 C 108.326 216.290, 106.994 213.855, 101.294 212.396 C 98.430 211.663, 94.438 210.374, 92.422 209.532 C 87.367 207.420, 86 207.595, 86 210.354 M 117.568 213.083 C 116.310 216.670, 116.533 220.500, 118 220.500 C 118.973 220.500, 119.613 219.315, 119.823 217.123 C 120.164 213.550, 118.470 210.513, 117.568 213.083 M 80.320 227 C 80.320 230.575, 80.502 232.037, 80.723 230.250 C 80.945 228.463, 80.945 225.537, 80.723 223.750 C 80.502 221.963, 80.320 223.425, 80.320 227 M 63.400 279.500 C 63.401 287.750, 63.556 290.992, 63.744 286.704 C 63.932 282.417, 63.931 275.667, 63.742 271.704 C 63.552 267.742, 63.399 271.250, 63.400 279.500 M 140.272 280 C 140.272 282.475, 140.467 283.488, 140.706 282.250 C 140.944 281.012, 140.944 278.988, 140.706 277.750 C 140.467 276.512, 140.272 277.525, 140.272 280 M 67.252 282.500 C 67.263 284.700, 67.468 285.482, 67.707 284.238 C 67.946 282.994, 67.937 281.194, 67.687 280.238 C 67.437 279.282, 67.241 280.300, 67.252 282.500 M 85.667 280.667 C 85.300 281.033, 85 283.010, 85 285.060 C 85 289.277, 87.053 290.804, 89.471 288.386 C 91.398 286.459, 91.420 283.938, 89.532 281.441 C 87.786 279.133, 87.501 280.229, 89.158 282.881 C 90.593 285.180, 89.625 288, 87.400 288 C 86.037 288, 85.833 287.278, 86.273 284 C 86.830 279.846, 86.777 279.556, 85.667 280.667 M 74 299.930 C 74 300.442, 72.987 301.056, 71.750 301.294 C 69.821 301.666, 69.892 301.747, 72.250 301.864 C 74.088 301.955, 75 301.503, 75 300.500 C 75 299.675, 74.775 299, 74.500 299 C 74.225 299, 74 299.419, 74 299.930 M 163.750 344.732 C 166.088 344.943, 169.912 344.943, 172.250 344.732 C 174.588 344.522, 172.675 344.349, 168 344.349 C 163.325 344.349, 161.412 344.522, 163.750 344.732 M 139.320 357 C 139.320 360.575, 139.502 362.038, 139.723 360.250 C 139.945 358.462, 139.945 355.538, 139.723 353.750 C 139.502 351.962, 139.320 353.425, 139.320 357 M 63.343 361.500 C 63.346 365.900, 63.522 367.576, 63.733 365.224 C 63.945 362.872, 63.942 359.272, 63.727 357.224 C 63.512 355.176, 63.339 357.100, 63.343 361.500" stroke="none" fill="#fbfbfb" fill-rule="evenodd"/></svg>