<svg xmlns="http://www.w3.org/2000/svg" width="1080" height="1080" viewBox="0 0 1080 1080" version="1.1"><path d="M 145 293.530 C 132.926 295.033, 111.445 299.232, 105.303 301.290 C 103.316 301.955, 100.748 303.770, 99.596 305.322 C 97.607 307.999, 97.467 309.766, 96.854 339.822 C 96.499 357.245, 96.161 388.620, 96.104 409.544 L 96 447.588 84.609 449.766 C 69.189 452.716, 63.124 454.875, 60.582 458.323 C 58.610 460.996, 58.466 462.843, 57.850 493.323 C 56.999 535.465, 56.821 699.854, 57.622 703.861 C 58.996 710.731, 64.642 713.460, 91 719.994 C 114.416 725.799, 132.734 727.981, 158.144 727.992 C 178.740 728.001, 191.691 726.964, 209 723.920 C 220.999 721.810, 224.113 720.507, 226.148 716.750 C 227.394 714.450, 229.817 672.934, 229.956 651.500 C 229.995 645.450, 230.305 639.465, 230.644 638.199 C 231.341 635.597, 232.307 635.661, 244 639.089 C 248.478 640.401, 255.633 641.228, 267 641.747 C 276.075 642.161, 440.775 642.273, 633 641.995 L 982.500 641.490 988.420 639.240 C 1004.896 632.980, 1016.852 620.594, 1021.407 605.068 C 1022.811 600.281, 1023 589.238, 1023 511.924 C 1023 426.901, 1022.938 424.011, 1020.991 417.705 C 1015.216 399.009, 998.491 385.233, 978.821 382.972 C 973.704 382.384, 854.167 382.012, 668.402 382.008 L 366.303 382 364.765 378.084 C 362.782 373.035, 360.661 372.005, 343.237 367.627 C 324.479 362.915, 305.127 360.122, 285.750 359.330 L 270 358.687 269.956 338.093 C 269.908 314.975, 269.201 309.391, 265.996 306.796 C 262.036 303.589, 240.045 297.932, 218 294.449 C 203.320 292.129, 160.578 291.592, 145 293.530 M 162 322.993 C 150.604 323.873, 129.753 327.176, 121.064 329.477 C 118.075 330.269, 114.530 332.015, 113.188 333.357 C 110.754 335.792, 110.746 335.866, 109.927 365.149 C 109.475 381.292, 109.082 408.709, 109.053 426.076 L 109 457.652 98.250 459.805 C 82.950 462.869, 80.178 463.799, 78.440 466.451 C 77.157 468.409, 76.721 476.063, 75.837 512.151 C 74.567 563.978, 75.334 679.888, 76.968 682.941 C 78.478 685.761, 81.845 687.319, 94.006 690.823 C 119.854 698.271, 136.118 700.473, 165 700.435 C 187.156 700.407, 201.141 699.073, 214.469 695.718 C 222.940 693.585, 222.767 694.268, 224.655 655.500 C 225.565 636.800, 226.406 621.371, 226.524 621.214 C 226.642 621.057, 231.790 621.838, 237.964 622.950 C 256.974 626.373, 278.749 627.547, 297.345 626.153 C 306.230 625.486, 318.425 624.069, 324.445 623.003 C 337.699 620.656, 340.008 618.970, 340.765 611.089 L 341.254 606 641.078 606 C 856.104 606, 942.400 605.687, 946.201 604.895 C 965.695 600.830, 982.616 583.436, 985.985 564 C 986.749 559.596, 987.013 541.537, 986.806 508 C 986.508 459.754, 986.444 458.352, 984.291 452.652 C 979.819 440.812, 972.068 431.579, 960.919 424.812 C 948.781 417.445, 974.701 418, 642.695 418 L 344.285 418 343.642 411.853 C 343.289 408.473, 343 403.808, 343 401.488 C 343 394.850, 340.625 392.729, 329.795 389.695 C 311.104 384.459, 287.790 381.023, 270.857 381.008 C 262.991 381.002, 261.102 380.708, 260.607 379.418 C 260.273 378.548, 259.998 369.436, 259.996 359.168 C 259.992 336.006, 259.661 335.168, 249.299 332.102 C 223.910 324.590, 188.775 320.924, 162 322.993 M 118.464 360.342 C 117.234 366.897, 118.123 369.180, 122.500 370.709 C 143.979 378.215, 159.103 381.026, 161.093 377.884 C 162.397 375.824, 162.181 370.388, 160.750 369.259 C 160.063 368.717, 157.475 367.966, 155 367.591 C 152.525 367.217, 144.019 364.680, 136.098 361.955 C 128.176 359.230, 121.109 357, 120.393 357 C 119.677 357, 118.808 358.504, 118.464 360.342 M 119.627 362.707 C 119.274 365.280, 119.326 367.707, 119.743 368.100 C 121.488 369.746, 147.004 377.149, 152.846 377.704 C 159.840 378.369, 160.957 377.691, 160.985 372.769 C 160.996 370.734, 160.427 369.920, 158.750 369.576 C 149.034 367.582, 144.214 366.220, 135.500 363.006 C 119.718 357.184, 120.382 357.197, 119.627 362.707 M 182.548 370.287 C 181.676 371.618, 180.858 375.136, 180.731 378.104 C 180.511 383.248, 180.622 383.514, 183.114 383.803 C 185.345 384.062, 185.822 383.640, 186.364 380.928 C 188.176 371.870, 185.818 365.295, 182.548 370.287 M 169.953 371.624 C 169.375 373.144, 169.037 375.987, 169.201 377.944 C 169.456 380.971, 169.901 381.546, 172.193 381.811 C 174.552 382.083, 174.966 381.700, 175.525 378.719 C 176.606 372.956, 175.792 369.541, 173.252 369.181 C 171.568 368.942, 170.739 369.556, 169.953 371.624 M 182.630 372.250 C 181.505 376.450, 181.903 383.198, 183.250 382.759 C 184.737 382.274, 186.560 373.902, 185.679 371.606 C 184.799 369.313, 183.334 369.623, 182.630 372.250 M 204.461 421.439 C 203.447 423.866, 203.014 427.453, 203.206 431.823 L 203.500 438.500 206.676 438.808 C 210.545 439.183, 216.665 436.201, 222.096 431.294 C 225.369 428.337, 226.047 427.111, 225.801 424.594 C 225.411 420.606, 221.868 418.867, 212.811 418.219 L 206.010 417.732 204.461 421.439 M 152.925 421.140 C 151.487 423.828, 152.517 432.373, 154.730 436.120 C 155.615 437.618, 157.433 439.429, 158.770 440.144 C 162.615 442.203, 164.243 439.177, 163.797 430.799 C 163.510 425.406, 162.973 423.600, 161.046 421.549 C 158.110 418.424, 154.476 418.241, 152.925 421.140 M 179.776 423.750 C 175.230 428.934, 173.319 439.360, 176.440 441.950 C 178.700 443.826, 183.103 442.768, 185.291 439.824 C 187.643 436.660, 188.613 428.632, 187.113 424.750 C 185.862 421.515, 182.176 421.013, 179.776 423.750 M 136.250 431.662 C 132.760 433.070, 136.205 443.529, 141.485 447.556 C 145.023 450.255, 150.472 450.819, 151.333 448.575 C 152.169 446.397, 147.290 437.461, 143.398 434.045 C 139.999 431.060, 138.763 430.648, 136.250 431.662 M 191.045 445.893 C 189.616 449.342, 190.001 454.182, 191.750 454.756 C 192.658 455.054, 193 453.502, 193 449.083 C 193 445.738, 192.830 443, 192.621 443 C 192.413 443, 191.703 444.302, 191.045 445.893 M 165.500 447.414 C 163.850 448.140, 161.501 450.107, 160.281 451.785 L 158.062 454.835 165.781 455.501 C 170.026 455.867, 175.829 456.506, 178.677 456.921 L 183.853 457.674 181.320 454.353 C 176.624 448.196, 170.164 445.363, 165.500 447.414 M 237.571 478.571 C 234.273 481.869, 236.229 493.278, 240.788 497.338 C 245.215 501.280, 248.613 496.798, 247.579 488.377 C 246.881 482.685, 245.215 479.419, 242.343 478.110 C 239.280 476.715, 239.444 476.699, 237.571 478.571 M 262.926 483.079 C 256.238 490.239, 256.599 501.250, 263.522 501.250 C 268.459 501.250, 271 497.136, 271 489.144 C 271 479.486, 268.228 477.403, 262.926 483.079 M 85.298 495.669 C 82.927 499.286, 82.655 539.539, 84.991 540.990 C 86.584 541.979, 96.828 543.506, 97.482 542.851 C 97.697 542.636, 98.139 536.629, 98.465 529.502 C 98.790 522.375, 99.483 516.117, 100.004 515.596 C 100.600 515, 102.327 515.072, 104.665 515.789 C 109.708 517.337, 111.004 516.074, 110.985 509.628 C 110.966 502.805, 109.309 499.781, 104.987 498.677 C 103.069 498.187, 98.229 496.738, 94.232 495.456 L 86.964 493.125 85.298 495.669 M 227 500.422 C 227 507.629, 227.110 507.990, 229.498 508.589 C 235.606 510.122, 236.688 506.054, 232.098 498.815 C 227.590 491.707, 227 491.893, 227 500.422 M 278.324 498.284 C 276.690 500.145, 274.757 503.797, 274.028 506.400 C 272.858 510.578, 272.894 511.322, 274.332 512.760 C 275.837 514.265, 276.232 514.260, 279.536 512.684 C 283.844 510.630, 286.240 505.649, 285.803 499.656 C 285.395 494.062, 282.498 493.530, 278.324 498.284 M 120.496 502.379 C 117.892 504.284, 117.033 515.953, 119.356 517.880 C 121.411 519.586, 126.701 518.427, 128.008 515.984 C 129.719 512.789, 129.167 506.481, 126.927 503.635 C 124.587 500.659, 123.215 500.391, 120.496 502.379 M 121.072 503.413 C 120.367 504.262, 120.020 507.351, 120.200 511.163 C 120.489 517.260, 120.595 517.490, 123 517.231 C 128.099 516.682, 129.765 509.513, 125.927 504.635 C 123.565 501.632, 122.726 501.420, 121.072 503.413 M 247.312 506.494 C 240.418 511.323, 230.077 538.538, 233.035 544.066 C 234.407 546.629, 239.428 546.603, 245.500 544 C 251.584 541.392, 254.763 541.476, 259.018 544.359 C 263.995 547.730, 266.708 548.363, 270.121 546.950 C 273.887 545.390, 276 541.336, 276 535.672 C 276 530.052, 273.952 525.137, 268.299 517.187 C 260.717 506.526, 252.931 502.559, 247.312 506.494 M 118.953 554.087 C 116.197 559.238, 120.987 572.130, 125.921 572.837 C 129.120 573.296, 129.967 571.556, 129.981 564.500 C 129.996 556.687, 127.397 552, 123.050 552 C 121.052 552, 119.702 552.688, 118.953 554.087 M 147.209 555.566 C 144.029 557.793, 141 564.253, 141 568.805 C 141 576.893, 148.555 578.360, 152.248 570.989 C 154.417 566.662, 154.516 559.181, 152.443 556.223 C 150.592 553.579, 150.128 553.521, 147.209 555.566 M 101.359 565.508 C 99.230 571.055, 107.672 583, 113.722 583 C 117.773 583, 118.470 580.851, 116.132 575.566 C 112.414 567.160, 103.146 560.850, 101.359 565.508 M 162.738 570.087 C 160.264 571.528, 156 580.330, 156 583.998 C 156 587.724, 157.947 588.679, 162.065 586.973 C 166.886 584.976, 170.441 575.561, 168.056 571.105 C 166.819 568.793, 165.420 568.525, 162.738 570.087 M 129.243 581.449 C 123.580 586.214, 116.666 601.995, 115.421 612.995 C 114.766 618.785, 114.822 618.982, 117.401 619.962 C 119.379 620.715, 121.129 620.570, 124.277 619.396 C 135.252 615.301, 135.549 615.290, 141.907 618.785 C 149.112 622.747, 151.084 622.791, 155.234 619.082 C 158.215 616.419, 158.500 615.655, 158.500 610.332 C 158.500 603.113, 154.961 595.600, 147.749 587.508 C 139.863 578.660, 134.604 576.938, 129.243 581.449" stroke="none" fill="#ffffff" fill-rule="evenodd"/><path d="M 165.232 332.385 C 179.173 335.619, 184.184 339.260, 180.191 343.253 C 179.086 344.359, 176.003 345.858, 173.341 346.586 L 168.500 347.909 175.623 347.817 C 179.541 347.767, 183.304 348.070, 183.985 348.491 C 184.689 348.926, 185.600 348.662, 186.096 347.878 C 186.729 346.880, 186.974 346.845, 186.985 347.750 C 187.001 349.118, 192.014 349.389, 198.250 348.358 C 201.025 347.900, 202 347.252, 202 345.869 C 202 344.841, 202.450 344, 203 344 C 203.550 344, 204 344.909, 204 346.019 C 204 347.714, 204.441 347.933, 206.750 347.381 C 210.489 346.487, 211.409 345.871, 210.160 345.099 C 209.544 344.718, 209.455 343.882, 209.945 343.089 C 210.602 342.026, 211.037 342.201, 211.943 343.893 C 213.326 346.478, 215 345.779, 215 342.615 C 215 339.856, 211.650 336.662, 207.191 335.170 C 202.239 333.513, 187.174 332.724, 181.593 333.829 C 177.955 334.549, 175.714 334.458, 172.926 333.474 C 170.859 332.744, 166.992 331.902, 164.333 331.601 C 159.533 331.059, 159.540 331.064, 165.232 332.385 M 162.461 339.761 C 162.493 341.996, 162.010 342.557, 159.835 342.808 C 157.954 343.026, 157.014 342.584, 156.642 341.308 C 156.204 339.804, 156.150 339.837, 156.321 341.500 C 156.484 343.078, 157.263 343.500, 160.014 343.500 C 162.918 343.500, 163.556 343.105, 163.835 341.135 C 164.019 339.834, 163.776 338.376, 163.296 337.896 C 162.799 337.399, 162.440 338.201, 162.461 339.761 M 154.314 347.250 C 155.713 348.533, 157.726 348.959, 161.861 348.848 L 167.500 348.695 161.401 348.098 C 158.047 347.769, 154.651 347.050, 153.854 346.500 C 153.058 345.950, 153.264 346.288, 154.314 347.250 M 222 353.639 C 217.194 354.966, 215.261 355.781, 217.552 355.513 C 221.654 355.034, 234.766 351.161, 232 351.245 C 231.175 351.271, 226.675 352.347, 222 353.639 M 171.500 358.038 C 174.800 358.448, 179.525 358.766, 182 358.744 C 186.087 358.709, 185.950 358.638, 180.500 357.962 C 177.200 357.552, 172.475 357.234, 170 357.256 C 165.913 357.291, 166.050 357.362, 171.500 358.038 M 247.116 379.184 C 247.045 380.212, 245.929 381.029, 244.250 381.284 C 242.738 381.513, 244.650 381.692, 248.500 381.682 C 252.350 381.672, 253.841 381.489, 251.812 381.275 C 249.413 381.022, 247.969 380.295, 247.678 379.193 C 247.263 377.617, 247.224 377.616, 247.116 379.184 M 226.180 383.224 C 222.704 383.757, 220.072 384.406, 220.332 384.666 C 220.862 385.196, 237 382.987, 237 382.385 C 237 381.834, 233.445 382.110, 226.180 383.224 M 206.160 387.184 C 203.773 387.717, 202.020 388.353, 202.264 388.597 C 202.781 389.114, 213 387.039, 213 386.417 C 213 385.848, 211.277 386.041, 206.160 387.184 M 261.616 392.729 L 258.732 393.159 261.866 395.065 C 265.125 397.047, 266.239 401.342, 263.750 402.328 C 263.060 402.602, 263.957 403.410, 265.750 404.131 C 267.538 404.850, 269.007 405.902, 269.015 406.469 C 269.024 407.036, 269.474 406.825, 270.015 406 C 270.891 404.667, 271.111 404.667, 272 406 C 272.889 407.333, 273.109 407.333, 273.985 406 C 274.643 404.997, 274.974 404.914, 274.985 405.750 C 274.993 406.438, 275.637 407, 276.417 407 C 277.196 407, 278.062 406.438, 278.341 405.750 C 278.734 404.779, 279.061 404.804, 279.801 405.861 C 280.590 406.987, 281.990 407.014, 287.900 406.017 C 292.133 405.303, 294.987 404.341, 294.904 403.656 C 294.590 401.076, 295.079 400, 296.567 400 C 297.710 400, 297.952 400.575, 297.460 402.125 C 297.006 403.555, 297.148 404.027, 297.893 403.566 C 299.707 402.445, 299.155 399.481, 296.750 397.424 C 292.341 393.653, 289.473 392.719, 280.794 392.224 C 272.628 391.758, 270.622 392.288, 272.696 394.362 C 273.078 394.745, 273.485 395.607, 273.599 396.279 C 273.713 396.951, 274.063 398.175, 274.375 399 C 274.954 400.526, 272.442 404.775, 271.511 403.845 C 271.231 403.565, 270.889 400.787, 270.751 397.673 C 270.503 392.068, 270.470 392.013, 267.500 392.155 C 265.850 392.235, 263.202 392.493, 261.616 392.729 M 287.250 399.706 C 284.202 400.293, 284.388 402, 287.500 402 C 289.056 402, 290 401.433, 290 400.500 C 290 399.675, 289.887 399.061, 289.750 399.136 C 289.613 399.211, 288.488 399.467, 287.250 399.706 M 242.776 406.733 C 245.128 406.945, 248.728 406.942, 250.776 406.727 C 252.824 406.512, 250.900 406.339, 246.500 406.343 C 242.100 406.346, 240.424 406.522, 242.776 406.733 M 289 415 L 284.500 415.700 288.500 415.731 C 290.700 415.749, 293.850 415.420, 295.500 415 C 298.141 414.328, 298.201 414.240, 296 414.269 C 294.625 414.286, 291.475 414.615, 289 415 M 247.083 415.367 C 247.313 415.570, 250.425 415.984, 254 416.288 C 258.096 416.636, 259.390 416.544, 257.500 416.039 C 254.445 415.222, 246.325 414.699, 247.083 415.367 M 344.346 476.250 C 344.285 527.939, 342.911 585.998, 341.424 599.750 L 340.856 605 642.247 605 C 972.509 605, 947.253 605.447, 959.209 599.392 C 966.086 595.910, 976.178 586.020, 979.813 579.200 C 985.884 567.809, 986 566.550, 986 512 C 986 457.450, 985.884 456.191, 979.813 444.800 C 976.178 437.980, 966.086 428.090, 959.209 424.608 C 947.254 418.554, 972.332 419, 644.025 419 L 344.413 419 344.346 476.250 M 330.374 437.500 C 330.376 443.550, 330.541 445.896, 330.740 442.713 C 330.939 439.531, 330.937 434.581, 330.736 431.713 C 330.535 428.846, 330.372 431.450, 330.374 437.500 M 331.378 462 C 331.378 468.325, 331.541 470.913, 331.739 467.750 C 331.937 464.587, 331.937 459.413, 331.739 456.250 C 331.541 453.087, 331.378 455.675, 331.378 462 M 145 467 C 141.484 467.547, 140.499 468.198, 143.554 467.956 C 143.859 467.932, 144.969 468.944, 146.021 470.206 C 147.872 472.427, 147.935 472.435, 147.967 470.450 C 147.985 469.322, 148.540 467.860, 149.200 467.200 C 149.860 466.540, 150.197 466.068, 149.950 466.150 C 149.703 466.233, 147.475 466.615, 145 467 M 151.200 467.200 C 149.153 469.247, 149.806 471.489, 152.494 471.644 C 153.865 471.723, 154.798 471.482, 154.567 471.108 C 154.127 470.396, 154.858 470.278, 161.674 469.961 C 164.927 469.809, 165.721 469.436, 165.272 468.267 C 164.797 467.029, 165.061 466.962, 166.783 467.884 C 169.843 469.522, 170.935 469.178, 168 467.500 C 164.905 465.731, 152.884 465.516, 151.200 467.200 M 172.445 468.931 C 174.958 471.718, 175.586 475.162, 173.431 474.335 C 172.581 474.009, 172.122 473.125, 172.411 472.371 C 172.769 471.438, 172.149 471, 170.469 471 C 167.930 471, 167.175 472.372, 169.068 473.542 C 169.656 473.905, 169.895 474.832, 169.600 475.601 C 169.290 476.408, 169.684 477, 170.531 477 C 171.339 477, 172 477.635, 172 478.412 C 172 479.217, 172.752 479.679, 173.750 479.488 C 174.713 479.304, 176.255 479.119, 177.179 479.077 C 178.102 479.034, 179.561 478.296, 180.421 477.436 C 181.826 476.031, 181.831 475.573, 180.467 472.936 C 179.632 471.321, 178.790 470, 178.596 470 C 178.403 470, 176.502 469.274, 174.372 468.387 L 170.500 466.773 172.445 468.931 M 155.730 474.091 C 154.756 474.658, 153.122 474.856, 152.098 474.531 C 150.918 474.156, 150.016 474.517, 149.632 475.517 C 149.299 476.384, 148.458 477.001, 147.763 476.887 C 147.069 476.773, 145.233 477.201, 143.685 477.840 C 142.137 478.478, 140.112 479.048, 139.185 479.107 C 138.258 479.166, 139.499 479.660, 141.943 480.204 C 145.743 481.051, 146.570 480.941, 147.665 479.443 C 148.840 477.837, 148.997 477.829, 149.579 479.347 C 149.928 480.256, 150.827 481, 151.576 481 C 152.435 481, 152.702 480.386, 152.299 479.336 C 151.869 478.217, 152.043 477.909, 152.830 478.395 C 153.474 478.793, 154 478.656, 154 478.090 C 154 477.525, 154.563 477.261, 155.250 477.503 C 156.961 478.106, 160.357 475.386, 159.541 474.067 C 158.733 472.759, 158.011 472.764, 155.730 474.091 M 331.413 502.500 C 331.414 512.400, 331.564 516.315, 331.746 511.199 C 331.928 506.084, 331.927 497.984, 331.744 493.199 C 331.561 488.415, 331.412 492.600, 331.413 502.500 M 330.320 545 C 330.320 548.575, 330.502 550.038, 330.723 548.250 C 330.945 546.462, 330.945 543.538, 330.723 541.750 C 330.502 539.962, 330.320 541.425, 330.320 545 M 329.328 574.500 C 329.333 578.350, 329.513 579.802, 329.730 577.728 C 329.946 575.653, 329.943 572.503, 329.722 570.728 C 329.501 568.952, 329.324 570.650, 329.328 574.500 M 328.336 589 C 328.336 593.125, 328.513 594.813, 328.728 592.750 C 328.944 590.688, 328.944 587.313, 328.728 585.250 C 328.513 583.188, 328.336 584.875, 328.336 589 M 273.250 618.746 C 278.613 618.925, 287.387 618.925, 292.750 618.746 C 298.113 618.566, 293.725 618.419, 283 618.419 C 272.275 618.419, 267.887 618.566, 273.250 618.746" stroke="none" fill="#ced5d5" fill-rule="evenodd"/><path d="M 157 323.619 C 134.541 326.303, 116.535 330.374, 113.441 333.468 C 111.545 335.364, 111.263 337.144, 110.665 350.948 C 110.299 359.402, 110 370.275, 110 375.112 L 110 383.906 116.750 385.965 C 134.551 391.396, 164.742 396, 182.551 396 C 191.741 396, 194 395.722, 194 394.589 C 194 391.453, 199.679 388.389, 209.598 386.174 C 220.763 383.679, 237.858 381.015, 242.750 381.006 L 246 381 246 374.500 C 246 370.833, 246.436 368, 247 368 C 247.556 368, 248 370.667, 248 374 L 248 380 251.500 380 C 253.425 380, 255 380.450, 255 381 C 255 381.550, 253.988 382.005, 252.750 382.012 C 246.852 382.043, 223.391 385.045, 214.099 386.958 C 201.348 389.583, 197.288 391.212, 196.052 394.198 C 195.103 396.489, 193.020 439.461, 193.751 441.646 C 193.962 442.277, 195.117 443.008, 196.317 443.271 C 197.518 443.535, 203 444.953, 208.500 446.423 C 232.820 452.925, 263.877 455.912, 287.654 454.037 C 301.805 452.921, 316.660 450.885, 325.393 448.864 L 330.286 447.732 329.700 437.389 C 329.378 431.701, 329.496 426.812, 329.961 426.524 C 330.427 426.236, 331.130 430.726, 331.523 436.500 C 331.917 442.275, 332.553 447, 332.938 447 C 333.322 447, 335.994 446.300, 338.875 445.445 L 344.113 443.889 343.806 431.444 L 343.500 419 640.500 418.748 L 937.500 418.497 640.250 418.248 L 343 418 343 407.723 C 343 395.597, 342.171 393.873, 335.249 391.602 C 319.203 386.339, 295.070 382.284, 274.115 381.331 L 260.242 380.700 259.761 360.100 C 259.496 348.770, 258.937 338.696, 258.519 337.713 C 257.442 335.185, 253.943 333.644, 242.500 330.657 C 221.476 325.170, 210.255 323.782, 184.500 323.481 C 171.300 323.327, 158.925 323.389, 157 323.619 M 152.412 330.445 C 150.846 331.593, 150.517 333.036, 150.593 338.421 C 150.747 349.378, 149.626 348.986, 179.877 348.670 C 207.507 348.383, 214.410 347.435, 215.573 343.769 C 216.478 340.917, 213.101 336.798, 208.404 335.028 C 205.652 333.990, 200.074 333.528, 189.500 333.462 C 179.299 333.398, 171.940 332.811, 166.500 331.628 C 162.100 330.671, 157.560 329.698, 156.412 329.466 C 155.263 329.233, 153.463 329.674, 152.412 330.445 M 152.979 332.526 C 151.556 334.240, 152.224 344.624, 153.862 346.262 C 155.485 347.885, 174.005 346.650, 177.750 344.668 C 184.316 341.194, 181.022 337.069, 169.252 334.027 C 158.125 331.152, 154.404 330.808, 152.979 332.526 M 155.667 334.667 C 155.300 335.033, 155 336.638, 155 338.232 C 155 344.584, 159.009 346.991, 162.977 343.023 C 165.067 340.933, 164.840 338.833, 162.193 335.750 C 160.701 334.012, 156.944 333.389, 155.667 334.667 M 157.194 338.821 C 157.512 342.625, 159.239 343.807, 161.943 342.070 C 163.924 340.798, 161.943 336.480, 159.029 335.718 C 157.094 335.212, 156.918 335.510, 157.194 338.821 M 118 342.907 C 118 345.521, 144.860 354.333, 161.500 357.178 C 177.035 359.835, 203.034 359.317, 218.266 356.048 C 231.580 353.191, 252.092 345.759, 250.649 344.316 C 250.362 344.028, 246.733 345.163, 242.585 346.838 C 234.008 350.301, 217.845 354.508, 207.500 355.971 C 203.650 356.515, 193.907 356.969, 185.849 356.980 C 163.653 357.010, 142.716 352.841, 125.112 344.887 C 117.932 341.643, 118 341.661, 118 342.907 M 118.409 358.377 C 118.118 359.134, 118.020 361.947, 118.190 364.627 L 118.500 369.500 129.492 373.284 C 144.311 378.385, 156.169 380.700, 159.561 379.154 C 161.840 378.116, 162.077 377.498, 161.805 373.319 L 161.500 368.645 153.486 366.926 C 146.730 365.477, 136.164 361.995, 126.203 357.936 C 122.859 356.573, 119.018 356.791, 118.409 358.377 M 120.195 363.718 L 120.500 368.437 132.500 372.259 C 139.100 374.361, 147.583 376.612, 151.352 377.261 C 157.753 378.364, 158.298 378.313, 159.640 376.478 C 162.689 372.308, 161.131 370.657, 152 368.385 C 147.325 367.223, 138.817 364.635, 133.094 362.635 C 127.370 360.636, 122.058 359, 121.289 359 C 120.245 359, 119.968 360.198, 120.195 363.718 M 170.571 369.571 C 169.537 370.606, 169 372.959, 169 376.455 C 169 381.085, 169.282 381.840, 171.198 382.342 C 174.238 383.137, 175.639 381.661, 176.407 376.855 C 176.876 373.920, 176.620 372.069, 175.509 370.373 C 173.685 367.590, 172.711 367.432, 170.571 369.571 M 181.920 370.150 C 181.251 371.399, 180.658 374.914, 180.602 377.960 C 180.504 383.272, 180.612 383.513, 183.215 383.813 C 186.500 384.192, 187.271 382.077, 186.809 373.956 C 186.463 367.862, 184.120 366.039, 181.920 370.150 M 183.515 370.976 C 183.183 371.513, 182.644 374.213, 182.316 376.976 C 181.815 381.207, 181.980 382, 183.361 382 C 184.698 382, 185 380.893, 185 376 C 185 370.081, 184.698 369.061, 183.515 370.976 M 235.035 389.934 C 233.725 392.382, 233.695 400.067, 234.982 403.453 C 236.464 407.350, 240.222 408.371, 249.295 407.340 C 253.582 406.852, 261.007 406.772, 265.795 407.162 C 274.837 407.897, 288.761 406.871, 295.250 404.992 C 298.464 404.061, 299 403.494, 299 401.026 C 299 397.693, 295.833 394.767, 290.188 392.884 C 286.657 391.707, 270.913 391.135, 262.500 391.880 C 260.300 392.074, 254.900 391.284, 250.500 390.124 C 240.326 387.443, 236.395 387.394, 235.035 389.934 M 236.750 390.561 C 236.338 390.986, 236 393.889, 236 397.012 C 236 405.265, 237.643 406.478, 247.765 405.698 C 267.007 404.214, 270.714 397.772, 255.101 392.950 C 247.722 390.670, 237.888 389.391, 236.750 390.561 M 239.402 393.395 C 239.108 394.162, 239.009 396.524, 239.183 398.645 C 239.462 402.036, 239.838 402.539, 242.310 402.822 C 248.092 403.485, 250.083 397.783, 245.365 394.073 C 242.303 391.664, 240.160 391.420, 239.402 393.395 M 240.528 394.954 C 240.204 395.479, 240.226 397.054, 240.578 398.454 C 241.451 401.932, 246 402.138, 246 398.700 C 246 395.042, 242.117 392.384, 240.528 394.954 M 201.511 400.982 C 200.381 402.810, 221.808 410.766, 236.340 413.915 C 268.731 420.933, 298.946 418.068, 331.750 404.869 C 333.538 404.150, 335 403.210, 335 402.781 C 335 401.666, 334.952 401.679, 326.337 405.129 C 290.401 419.518, 245.777 419.079, 210.741 403.991 C 205.924 401.916, 201.771 400.562, 201.511 400.982 M 205.589 418.210 C 203.853 419.182, 201.484 431.808, 202.373 435.351 C 203.835 441.176, 208.461 440.965, 218.379 434.621 C 227.064 429.065, 229.145 422.803, 223.231 420.017 C 219.826 418.413, 207.485 417.149, 205.589 418.210 M 124 456.006 C 113.786 456.946, 84.778 462.514, 81.806 464.104 C 77.679 466.312, 77.242 468.687, 76.530 492.745 L 75.843 515.990 78.486 516.995 C 79.941 517.548, 81.483 518, 81.913 518 C 82.344 518, 82.987 513.251, 83.342 507.446 C 84.037 496.084, 85.168 492.522, 87.836 493.292 C 110.907 499.951, 111.009 500.019, 110.985 508.861 C 110.964 516.609, 110.144 517.687, 105.383 516.226 C 100.867 514.840, 99 515.935, 99 519.972 C 99 522.681, 99.080 522.712, 111.750 524.930 C 131.178 528.331, 154.429 529.550, 172.312 528.106 C 184.909 527.088, 205.757 524.056, 211 522.478 C 212.244 522.104, 212.442 520.126, 212.158 510.898 C 211.917 503.035, 212.137 499.967, 212.908 500.443 C 213.584 500.861, 214 505.071, 214 511.480 L 214 521.843 220.250 520.079 L 226.500 518.316 226.129 495.908 C 225.924 483.584, 225.414 472.600, 224.993 471.500 C 223.576 467.790, 220.544 466.218, 209 463.211 C 188.748 457.936, 174.696 456.075, 151 455.532 C 141.375 455.312, 129.225 455.525, 124 456.006 M 117.872 463.655 C 116.456 465.363, 116.150 472.539, 117.299 477.079 C 117.658 478.497, 118.975 480.122, 120.226 480.689 C 123.622 482.230, 169.212 481.527, 175.401 479.838 C 181.355 478.212, 182.960 476.162, 181.059 472.610 C 179.198 469.132, 174.559 467.172, 164.988 465.818 C 158.817 464.945, 155.025 464.948, 149.351 465.831 C 144.727 466.549, 141.209 466.647, 140.160 466.086 C 138.218 465.046, 124.055 462, 121.165 462 C 120.109 462, 118.627 462.745, 117.872 463.655 M 118.482 466.058 C 117.526 469.068, 118.940 477.706, 120.616 479.096 C 122.702 480.828, 138.603 479.634, 143.303 477.392 C 151.387 473.538, 146.484 468.694, 131.227 465.460 C 121.776 463.458, 119.270 463.575, 118.482 466.058 M 122.200 467.200 C 119.069 470.331, 121.655 477, 126 477 C 131.720 477, 132.076 469.120, 126.453 466.982 C 123.288 465.779, 123.639 465.761, 122.200 467.200 M 123 471.441 C 123 475.453, 123.674 476.077, 126.750 474.915 C 129.475 473.885, 129.635 471.885, 127.171 469.655 C 124.330 467.084, 123 467.654, 123 471.441 M 84.457 475.930 C 85.508 477.631, 105.713 484.970, 116.182 487.454 C 138.122 492.659, 159.613 493.179, 181.119 489.026 C 196.068 486.139, 217 479.052, 217 476.877 C 217 475.632, 216.394 475.760, 212.210 477.882 C 206.261 480.900, 190.322 485.650, 179.500 487.630 C 164.711 490.336, 138.220 490.138, 123.500 487.213 C 111.671 484.862, 100.166 481.375, 91.293 477.451 C 85.393 474.841, 83.528 474.427, 84.457 475.930 M 119.607 502.882 C 118.276 504.352, 117.969 506.268, 118.202 511.632 C 118.500 518.495, 118.502 518.500, 121.577 518.800 C 126.455 519.277, 129.333 516.283, 129.333 510.735 C 129.333 502.557, 123.883 498.157, 119.607 502.882 M 120.627 504.529 C 120.282 505.428, 120 508.632, 120 511.648 C 120 517.038, 120.047 517.127, 122.743 516.816 C 126.826 516.345, 128.654 512.008, 126.813 507.156 C 125.300 503.169, 121.731 501.653, 120.627 504.529 M 334.500 570.441 L 330.500 571.673 329.500 587.263 C 328.950 595.837, 328.163 603.186, 327.750 603.593 C 326.865 604.467, 326.925 596.406, 327.907 582.500 C 328.295 577, 328.542 572.380, 328.456 572.232 C 328.369 572.085, 325.194 572.612, 321.399 573.404 C 303.678 577.100, 288.116 578.275, 265 577.661 C 252.625 577.332, 239.012 576.453, 234.750 575.708 L 227 574.354 227 582.521 C 227 587.014, 226.714 595.371, 226.364 601.094 L 225.729 611.500 235.614 613.257 C 255.911 616.863, 262.029 617.387, 283.500 617.358 C 305.074 617.328, 308.813 616.978, 336.500 612.401 C 339.271 611.943, 340.193 612.061, 339.500 612.786 C 337.940 614.417, 315.096 617.933, 298.178 619.146 C 286.800 619.962, 278.856 619.945, 267.321 619.081 C 253.195 618.023, 231.538 614.911, 227.489 613.357 C 226.131 612.836, 225.916 613.373, 226.182 616.611 L 226.500 620.487 235.500 622.175 C 264.174 627.551, 299.596 627.619, 326.500 622.350 C 330.900 621.488, 335.277 620.371, 336.227 619.868 C 339.119 618.337, 340.415 614.966, 340.886 607.752 C 340.994 606.092, 356.123 605.990, 639.250 605.750 L 937.500 605.497 639.186 605.248 L 340.872 605 341.582 587 C 342.383 566.705, 342.878 567.862, 334.500 570.441 M 75.861 653.500 C 76.119 667.556, 76.619 674.751, 77.373 675.258 C 79.213 676.496, 99.833 682.774, 109 684.887 C 113.675 685.965, 123.800 687.818, 131.500 689.005 C 155.784 692.749, 191.216 691.669, 215.644 686.440 L 222.787 684.911 223.411 673.705 C 223.755 667.542, 224.301 658.112, 224.626 652.750 C 224.950 647.388, 224.830 643.009, 224.358 643.019 C 223.886 643.030, 221.250 643.621, 218.500 644.332 L 213.500 645.625 212.796 653.063 C 212.409 657.153, 211.806 664.438, 211.456 669.250 C 211.100 674.148, 210.369 678, 209.795 678 C 209.151 678, 208.985 676.046, 209.348 672.750 C 210.613 661.275, 211.217 645.748, 210.379 646.261 C 208.337 647.512, 183.309 651.054, 169.469 652.050 C 144.089 653.876, 112.640 650.546, 86.500 643.266 L 76.500 640.480 75.987 636.490 C 75.705 634.296, 75.648 641.950, 75.861 653.500 M 76 678.758 C 76 683.126, 79.752 685.820, 90.794 689.382 C 126.018 700.743, 166.039 703.585, 204 697.419 C 217.325 695.255, 219.774 694.337, 221.591 690.824 C 222.447 689.168, 222.956 687.623, 222.723 687.389 C 222.489 687.156, 219.194 687.601, 215.399 688.379 C 198.863 691.770, 190.011 692.500, 165.500 692.493 C 139.004 692.486, 130.033 691.543, 108.500 686.499 C 100.342 684.588, 82.910 679.438, 77.254 677.267 C 76.510 676.982, 76 677.588, 76 678.758" stroke="none" fill="#d7eaf7" fill-rule="evenodd"/><path d="M 145 293.530 C 132.926 295.033, 111.445 299.232, 105.303 301.290 C 103.316 301.955, 100.748 303.770, 99.596 305.322 C 97.607 307.999, 97.467 309.766, 96.854 339.822 C 96.499 357.245, 96.161 388.620, 96.104 409.544 L 96 447.588 84.609 449.766 C 69.189 452.716, 63.124 454.875, 60.582 458.323 C 58.610 460.996, 58.466 462.843, 57.850 493.323 C 56.999 535.465, 56.821 699.854, 57.622 703.861 C 58.996 710.731, 64.642 713.460, 91 719.994 C 114.416 725.799, 132.734 727.981, 158.144 727.992 C 178.740 728.001, 191.691 726.964, 209 723.920 C 220.999 721.810, 224.113 720.507, 226.148 716.750 C 227.394 714.450, 229.817 672.934, 229.956 651.500 C 229.995 645.450, 230.305 639.465, 230.644 638.199 C 231.341 635.597, 232.307 635.661, 244 639.089 C 248.478 640.401, 255.633 641.228, 267 641.747 C 276.075 642.161, 440.775 642.273, 633 641.995 L 982.500 641.490 988.420 639.240 C 1004.896 632.980, 1016.852 620.594, 1021.407 605.068 C 1022.811 600.281, 1023 589.238, 1023 511.924 C 1023 426.901, 1022.938 424.011, 1020.991 417.705 C 1015.216 399.009, 998.491 385.233, 978.821 382.972 C 973.704 382.384, 854.167 382.012, 668.402 382.008 L 366.303 382 364.765 378.084 C 362.782 373.035, 360.661 372.005, 343.237 367.627 C 324.479 362.915, 305.127 360.122, 285.750 359.330 L 270 358.687 269.956 338.093 C 269.908 314.975, 269.201 309.391, 265.996 306.796 C 262.036 303.589, 240.045 297.932, 218 294.449 C 203.320 292.129, 160.578 291.592, 145 293.530 M 162 322.993 C 150.604 323.873, 129.753 327.176, 121.064 329.477 C 118.075 330.269, 114.530 332.015, 113.188 333.357 C 110.754 335.792, 110.746 335.866, 109.927 365.149 C 109.475 381.292, 109.082 408.709, 109.053 426.076 L 109 457.652 98.250 459.805 C 82.950 462.869, 80.178 463.799, 78.440 466.451 C 77.157 468.409, 76.721 476.063, 75.837 512.151 C 74.567 563.978, 75.334 679.888, 76.968 682.941 C 78.478 685.761, 81.845 687.319, 94.006 690.823 C 119.854 698.271, 136.118 700.473, 165 700.435 C 187.156 700.407, 201.141 699.073, 214.469 695.718 C 222.940 693.585, 222.767 694.268, 224.655 655.500 C 225.565 636.800, 226.406 621.371, 226.524 621.214 C 226.642 621.057, 231.790 621.838, 237.964 622.950 C 256.974 626.373, 278.749 627.547, 297.345 626.153 C 306.230 625.486, 318.425 624.069, 324.445 623.003 C 337.699 620.656, 340.008 618.970, 340.765 611.089 L 341.254 606 641.078 606 C 856.104 606, 942.400 605.687, 946.201 604.895 C 965.695 600.830, 982.616 583.436, 985.985 564 C 986.749 559.596, 987.013 541.537, 986.806 508 C 986.508 459.754, 986.444 458.352, 984.291 452.652 C 979.819 440.812, 972.068 431.579, 960.919 424.812 C 948.781 417.445, 974.701 418, 642.695 418 L 344.285 418 343.642 411.853 C 343.289 408.473, 343 403.808, 343 401.488 C 343 394.850, 340.625 392.729, 329.795 389.695 C 311.104 384.459, 287.790 381.023, 270.857 381.008 C 262.991 381.002, 261.102 380.708, 260.607 379.418 C 260.273 378.548, 259.998 369.436, 259.996 359.168 C 259.992 336.006, 259.661 335.168, 249.299 332.102 C 223.910 324.590, 188.775 320.924, 162 322.993 M 118.464 360.342 C 117.234 366.897, 118.123 369.180, 122.500 370.709 C 143.979 378.215, 159.103 381.026, 161.093 377.884 C 162.397 375.824, 162.181 370.388, 160.750 369.259 C 160.063 368.717, 157.475 367.966, 155 367.591 C 152.525 367.217, 144.019 364.680, 136.098 361.955 C 128.176 359.230, 121.109 357, 120.393 357 C 119.677 357, 118.808 358.504, 118.464 360.342 M 119.627 362.707 C 119.274 365.280, 119.326 367.707, 119.743 368.100 C 121.488 369.746, 147.004 377.149, 152.846 377.704 C 159.840 378.369, 160.957 377.691, 160.985 372.769 C 160.996 370.734, 160.427 369.920, 158.750 369.576 C 149.034 367.582, 144.214 366.220, 135.500 363.006 C 119.718 357.184, 120.382 357.197, 119.627 362.707 M 182.548 370.287 C 181.676 371.618, 180.858 375.136, 180.731 378.104 C 180.511 383.248, 180.622 383.514, 183.114 383.803 C 185.345 384.062, 185.822 383.640, 186.364 380.928 C 188.176 371.870, 185.818 365.295, 182.548 370.287 M 169.953 371.624 C 169.375 373.144, 169.037 375.987, 169.201 377.944 C 169.456 380.971, 169.901 381.546, 172.193 381.811 C 174.552 382.083, 174.966 381.700, 175.525 378.719 C 176.606 372.956, 175.792 369.541, 173.252 369.181 C 171.568 368.942, 170.739 369.556, 169.953 371.624 M 182.630 372.250 C 181.505 376.450, 181.903 383.198, 183.250 382.759 C 184.737 382.274, 186.560 373.902, 185.679 371.606 C 184.799 369.313, 183.334 369.623, 182.630 372.250 M 204.461 421.439 C 203.447 423.866, 203.014 427.453, 203.206 431.823 L 203.500 438.500 206.676 438.808 C 210.545 439.183, 216.665 436.201, 222.096 431.294 C 225.369 428.337, 226.047 427.111, 225.801 424.594 C 225.411 420.606, 221.868 418.867, 212.811 418.219 L 206.010 417.732 204.461 421.439 M 152.925 421.140 C 151.487 423.828, 152.517 432.373, 154.730 436.120 C 155.615 437.618, 157.433 439.429, 158.770 440.144 C 162.615 442.203, 164.243 439.177, 163.797 430.799 C 163.510 425.406, 162.973 423.600, 161.046 421.549 C 158.110 418.424, 154.476 418.241, 152.925 421.140 M 179.776 423.750 C 175.230 428.934, 173.319 439.360, 176.440 441.950 C 178.700 443.826, 183.103 442.768, 185.291 439.824 C 187.643 436.660, 188.613 428.632, 187.113 424.750 C 185.862 421.515, 182.176 421.013, 179.776 423.750 M 136.250 431.662 C 132.760 433.070, 136.205 443.529, 141.485 447.556 C 145.023 450.255, 150.472 450.819, 151.333 448.575 C 152.169 446.397, 147.290 437.461, 143.398 434.045 C 139.999 431.060, 138.763 430.648, 136.250 431.662 M 191.045 445.893 C 189.616 449.342, 190.001 454.182, 191.750 454.756 C 192.658 455.054, 193 453.502, 193 449.083 C 193 445.738, 192.830 443, 192.621 443 C 192.413 443, 191.703 444.302, 191.045 445.893 M 165.500 447.414 C 163.850 448.140, 161.501 450.107, 160.281 451.785 L 158.062 454.835 165.781 455.501 C 170.026 455.867, 175.829 456.506, 178.677 456.921 L 183.853 457.674 181.320 454.353 C 176.624 448.196, 170.164 445.363, 165.500 447.414 M 237.571 478.571 C 234.273 481.869, 236.229 493.278, 240.788 497.338 C 245.215 501.280, 248.613 496.798, 247.579 488.377 C 246.881 482.685, 245.215 479.419, 242.343 478.110 C 239.280 476.715, 239.444 476.699, 237.571 478.571 M 262.926 483.079 C 256.238 490.239, 256.599 501.250, 263.522 501.250 C 268.459 501.250, 271 497.136, 271 489.144 C 271 479.486, 268.228 477.403, 262.926 483.079 M 85.298 495.669 C 82.927 499.286, 82.655 539.539, 84.991 540.990 C 86.584 541.979, 96.828 543.506, 97.482 542.851 C 97.697 542.636, 98.139 536.629, 98.465 529.502 C 98.790 522.375, 99.483 516.117, 100.004 515.596 C 100.600 515, 102.327 515.072, 104.665 515.789 C 109.708 517.337, 111.004 516.074, 110.985 509.628 C 110.966 502.805, 109.309 499.781, 104.987 498.677 C 103.069 498.187, 98.229 496.738, 94.232 495.456 L 86.964 493.125 85.298 495.669 M 227 500.422 C 227 507.629, 227.110 507.990, 229.498 508.589 C 235.606 510.122, 236.688 506.054, 232.098 498.815 C 227.590 491.707, 227 491.893, 227 500.422 M 278.324 498.284 C 276.690 500.145, 274.757 503.797, 274.028 506.400 C 272.858 510.578, 272.894 511.322, 274.332 512.760 C 275.837 514.265, 276.232 514.260, 279.536 512.684 C 283.844 510.630, 286.240 505.649, 285.803 499.656 C 285.395 494.062, 282.498 493.530, 278.324 498.284 M 120.496 502.379 C 117.892 504.284, 117.033 515.953, 119.356 517.880 C 121.411 519.586, 126.701 518.427, 128.008 515.984 C 129.719 512.789, 129.167 506.481, 126.927 503.635 C 124.587 500.659, 123.215 500.391, 120.496 502.379 M 121.072 503.413 C 120.367 504.262, 120.020 507.351, 120.200 511.163 C 120.489 517.260, 120.595 517.490, 123 517.231 C 128.099 516.682, 129.765 509.513, 125.927 504.635 C 123.565 501.632, 122.726 501.420, 121.072 503.413 M 247.312 506.494 C 240.418 511.323, 230.077 538.538, 233.035 544.066 C 234.407 546.629, 239.428 546.603, 245.500 544 C 251.584 541.392, 254.763 541.476, 259.018 544.359 C 263.995 547.730, 266.708 548.363, 270.121 546.950 C 273.887 545.390, 276 541.336, 276 535.672 C 276 530.052, 273.952 525.137, 268.299 517.187 C 260.717 506.526, 252.931 502.559, 247.312 506.494 M 118.953 554.087 C 116.197 559.238, 120.987 572.130, 125.921 572.837 C 129.120 573.296, 129.967 571.556, 129.981 564.500 C 129.996 556.687, 127.397 552, 123.050 552 C 121.052 552, 119.702 552.688, 118.953 554.087 M 147.209 555.566 C 144.029 557.793, 141 564.253, 141 568.805 C 141 576.893, 148.555 578.360, 152.248 570.989 C 154.417 566.662, 154.516 559.181, 152.443 556.223 C 150.592 553.579, 150.128 553.521, 147.209 555.566 M 101.359 565.508 C 99.230 571.055, 107.672 583, 113.722 583 C 117.773 583, 118.470 580.851, 116.132 575.566 C 112.414 567.160, 103.146 560.850, 101.359 565.508 M 162.738 570.087 C 160.264 571.528, 156 580.330, 156 583.998 C 156 587.724, 157.947 588.679, 162.065 586.973 C 166.886 584.976, 170.441 575.561, 168.056 571.105 C 166.819 568.793, 165.420 568.525, 162.738 570.087 M 129.243 581.449 C 123.580 586.214, 116.666 601.995, 115.421 612.995 C 114.766 618.785, 114.822 618.982, 117.401 619.962 C 119.379 620.715, 121.129 620.570, 124.277 619.396 C 135.252 615.301, 135.549 615.290, 141.907 618.785 C 149.112 622.747, 151.084 622.791, 155.234 619.082 C 158.215 616.419, 158.500 615.655, 158.500 610.332 C 158.500 603.113, 154.961 595.600, 147.749 587.508 C 139.863 578.660, 134.604 576.938, 129.243 581.449" stroke="none" fill="#ffffff" fill-rule="evenodd"/><path d="M 155.924 334.500 C 155.608 335.050, 155.275 337.075, 155.185 339 C 155.051 341.870, 155.211 342.181, 156.075 340.724 C 156.654 339.748, 156.987 337.723, 156.814 336.224 C 156.641 334.726, 156.241 333.950, 155.924 334.500 M 151.570 343.678 C 150.339 346.886, 153.303 348.181, 162.356 348.389 C 167.109 348.498, 170.402 348.219, 169.725 347.763 C 169.051 347.311, 165.350 347.050, 161.500 347.184 C 153.596 347.459, 151.961 346.867, 152.711 343.999 C 153.344 341.577, 152.471 341.331, 151.570 343.678 M 202 346 C 202 347.496, 201.307 348.020, 199.250 348.079 C 197.738 348.122, 197.082 348.391, 197.793 348.677 C 200.259 349.666, 204 348.042, 204 345.981 C 204 344.891, 203.550 344, 203 344 C 202.450 344, 202 344.900, 202 346 M 141.491 352.015 C 140.850 353.051, 148.543 354.900, 149.929 354.044 C 150.547 353.662, 149.006 352.881, 146.503 352.308 C 144.001 351.735, 141.745 351.604, 141.491 352.015 M 153 355.081 C 151.813 355.912, 151.952 356.005, 153.666 355.525 C 154.857 355.191, 156.086 355.331, 156.398 355.834 C 157.159 357.066, 162 357.008, 162 355.767 C 162 355.224, 160.908 355.057, 159.561 355.395 C 158.220 355.732, 156.843 355.556, 156.502 355.004 C 155.720 353.738, 154.892 353.756, 153 355.081 M 210.047 355.950 C 209.248 356.455, 207.223 356.669, 205.547 356.425 L 202.500 355.980 205.414 357.128 C 207.508 357.953, 208.812 357.974, 210.049 357.202 C 210.995 356.611, 212.834 356.362, 214.135 356.650 C 216.014 357.066, 216.192 356.954, 215 356.102 C 213.163 354.790, 211.940 354.752, 210.047 355.950 M 173 357.882 C 171.075 358.222, 176.925 358.505, 186 358.511 C 195.075 358.517, 201.150 358.233, 199.500 357.880 C 195.694 357.064, 177.621 357.065, 173 357.882 M 246.348 374.759 C 246.248 379.155, 246.485 380.804, 247.027 379.500 C 248.079 376.973, 248.252 367.997, 247.250 368.009 C 246.838 368.014, 246.431 371.052, 246.348 374.759 M 237 381.750 C 237 382.163, 239.363 382.574, 242.250 382.665 C 246.515 382.799, 246.937 382.680, 244.500 382.033 C 240.468 380.963, 237 380.832, 237 381.750 M 235.459 388.874 C 234.242 390.092, 236.452 390.687, 239.574 389.983 C 244.622 388.845, 244.771 388.236, 239.971 388.362 C 237.712 388.421, 235.682 388.652, 235.459 388.874 M 196.007 391.642 C 193.837 393.718, 193.467 395.062, 193.151 402.013 C 192.894 407.662, 193.132 410, 193.961 410 C 194.772 410, 195.062 407.771, 194.900 402.785 C 194.689 396.268, 194.914 395.300, 197.225 392.777 C 200.402 389.310, 199.411 388.386, 196.007 391.642 M 234.223 396.742 C 234.263 400.625, 234.539 401.849, 235.071 400.500 C 236.175 397.700, 236.182 392.230, 235.082 391.551 C 234.563 391.230, 234.190 393.486, 234.223 396.742 M 268.500 391.850 C 270.120 392.376, 270.560 393.542, 270.816 397.982 C 270.989 400.998, 271.332 403.665, 271.576 403.909 C 272.460 404.794, 274.930 400.463, 274.375 399 C 274.063 398.175, 273.713 396.951, 273.599 396.279 C 273.485 395.607, 273.078 394.745, 272.696 394.362 C 271.101 392.768, 272.288 392.084, 277.250 391.737 C 280.940 391.479, 280.122 391.345, 274.500 391.285 C 270.100 391.238, 267.400 391.492, 268.500 391.850 M 239.966 398.750 C 239.322 401.779, 239.684 402.271, 242.737 402.511 C 244.517 402.651, 245.728 402.368, 245.427 401.883 C 245.127 401.397, 244.042 401, 243.014 401 C 241.987 401, 240.941 400.212, 240.689 399.250 C 240.438 398.288, 240.112 398.063, 239.966 398.750 M 287.250 399.706 C 284.202 400.293, 284.388 402, 287.500 402 C 289.056 402, 290 401.433, 290 400.500 C 290 399.675, 289.887 399.061, 289.750 399.136 C 289.613 399.211, 288.488 399.467, 287.250 399.706 M 294.700 401.341 C 294.170 402.720, 295.552 405.813, 296.321 404.971 C 296.558 404.712, 297.063 403.488, 297.443 402.250 C 297.942 400.628, 297.727 400, 296.674 400 C 295.871 400, 294.982 400.603, 294.700 401.341 M 205.563 402.897 C 205.288 403.343, 206.242 404.245, 207.683 404.902 C 209.715 405.827, 210.551 405.827, 211.402 404.901 C 212.229 404, 212.068 403.858, 210.750 404.321 C 209.787 404.660, 209 404.549, 209 404.076 C 209 402.877, 206.175 401.908, 205.563 402.897 M 261.362 404.500 C 261.757 405.529, 261.301 406, 259.910 406 C 258.616 406, 258.144 405.576, 258.605 404.830 C 259.098 404.032, 258.773 403.873, 257.582 404.330 C 256.622 404.699, 254.673 405, 253.252 405 C 251.830 405, 250.953 405.287, 251.304 405.637 C 252.282 406.615, 269 407.179, 269 406.234 C 269 405.462, 263.345 403, 261.572 403 C 261.140 403, 261.045 403.675, 261.362 404.500 M 270.244 406.250 C 270.470 406.938, 272.195 407.617, 274.077 407.761 C 277.769 408.043, 280.978 406.611, 279.584 405.304 C 279.112 404.862, 278.525 405.063, 278.280 405.750 C 278.034 406.438, 277.196 407, 276.417 407 C 275.637 407, 274.993 406.438, 274.985 405.750 C 274.974 404.903, 274.628 404.983, 273.909 406 C 273.110 407.129, 272.722 407.191, 272.341 406.250 C 272.062 405.563, 271.383 405, 270.833 405 C 270.283 405, 270.018 405.563, 270.244 406.250 M 253 416.027 C 251.102 416.712, 251.531 416.795, 254.785 416.371 C 257.390 416.031, 259.621 416.271, 260.478 416.981 C 261.442 417.782, 264.659 417.967, 270.693 417.570 C 275.537 417.251, 281.750 416.953, 284.500 416.909 L 289.500 416.828 286 415.817 C 283.540 415.107, 281.015 415.156, 277.500 415.981 C 273.042 417.028, 268.018 416.914, 258.500 415.553 C 256.850 415.317, 254.375 415.530, 253 416.027 M 331.320 442 C 331.320 445.575, 331.502 447.038, 331.723 445.250 C 331.945 443.462, 331.945 440.538, 331.723 438.750 C 331.502 436.962, 331.320 438.425, 331.320 442 M 344.420 475.500 C 344.419 486.500, 344.565 491.136, 344.745 485.803 C 344.924 480.470, 344.925 471.470, 344.746 465.803 C 344.568 460.136, 344.421 464.500, 344.420 475.500 M 117.947 463.563 C 117.211 464.450, 117.258 465.042, 118.106 465.565 C 118.869 466.037, 119.048 465.886, 118.595 465.155 C 118.117 464.380, 118.869 464, 120.882 464 C 122.532 464, 124.142 463.580, 124.459 463.066 C 125.335 461.648, 119.145 462.121, 117.947 463.563 M 150.583 465.866 C 150.289 466.342, 149.024 466.629, 147.774 466.504 C 146.523 466.378, 146.220 466.461, 147.100 466.688 C 148.463 467.039, 148.549 467.759, 147.682 471.548 C 146.563 476.436, 147.435 478.493, 149.455 475.731 C 150.190 474.725, 151.412 474.221, 152.295 474.560 C 153.147 474.887, 154.827 474.628, 156.029 473.984 C 159.147 472.316, 161.175 474.400, 158.446 476.468 C 157.376 477.280, 155.938 477.745, 155.250 477.503 C 154.563 477.261, 154 477.525, 154 478.090 C 154 478.656, 153.474 478.793, 152.830 478.395 C 152.043 477.909, 151.869 478.217, 152.299 479.336 C 153.145 481.541, 151.085 481.480, 149.392 479.250 C 148.510 478.088, 148.053 477.940, 148.032 478.809 C 148.014 479.529, 147.438 479.833, 146.750 479.485 C 146.063 479.137, 146.400 479.598, 147.500 480.510 C 149.168 481.892, 150.995 482.069, 158.500 481.576 C 163.450 481.250, 168.512 480.982, 169.750 480.981 C 171.328 480.978, 172 480.384, 172 478.989 C 172 477.895, 171.339 477, 170.531 477 C 169.684 477, 169.290 476.408, 169.600 475.601 C 169.895 474.832, 169.656 473.905, 169.068 473.542 C 167.175 472.372, 167.930 471, 170.469 471 C 172.149 471, 172.769 471.438, 172.411 472.371 C 172.122 473.125, 172.581 474.009, 173.431 474.335 C 175.279 475.044, 175.105 472.036, 173.162 469.695 C 172.165 468.494, 172.174 468.081, 173.208 467.626 C 174.117 467.226, 174.056 467.096, 173 467.187 C 172.175 467.258, 170.713 466.971, 169.750 466.551 C 167.414 465.530, 164.661 466.674, 165.320 468.392 C 165.709 469.406, 164.754 469.817, 161.674 469.961 C 154.858 470.278, 154.127 470.396, 154.567 471.108 C 154.798 471.482, 153.865 471.723, 152.494 471.644 C 150.917 471.553, 150.001 470.902, 150.001 469.872 C 150 467.267, 152.180 466.146, 158.030 465.745 L 163.500 465.370 157.309 465.185 C 153.904 465.083, 150.877 465.390, 150.583 465.866 M 122.200 467.200 C 121.540 467.860, 121 469.735, 121 471.367 C 121 474.618, 122.190 474.226, 122.712 470.803 C 122.892 469.623, 123.536 468.059, 124.142 467.328 C 125.516 465.673, 123.838 465.562, 122.200 467.200 M 116.030 469.191 C 116.014 470.671, 116.419 472.141, 116.931 472.457 C 117.443 472.774, 117.681 474.038, 117.461 475.266 C 116.980 477.947, 117.771 479.317, 120.684 480.850 C 123.270 482.211, 133.637 482.396, 134.441 481.095 C 134.749 480.598, 136.913 480.364, 139.250 480.575 L 143.500 480.961 140 480.021 C 137.693 479.402, 135.352 479.449, 133.133 480.157 C 129.287 481.385, 122.620 480.759, 120.461 478.967 C 119.657 478.301, 119 476.712, 119 475.437 C 119 474.161, 118.543 472.835, 117.984 472.490 C 117.425 472.144, 117.224 471.446, 117.538 470.939 C 117.852 470.431, 117.648 469.225, 117.085 468.258 C 116.203 466.743, 116.057 466.872, 116.030 469.191 M 85.397 476.500 C 86.441 477.290, 87.640 477.723, 88.062 477.462 C 88.484 477.201, 88.980 477.386, 89.165 477.872 C 89.609 479.046, 108.041 485.893, 112.220 486.438 C 114.024 486.673, 115.725 486.964, 116 487.085 C 116.275 487.206, 116.950 487.392, 117.500 487.499 C 118.050 487.606, 119.260 488.025, 120.189 488.430 C 121.118 488.836, 122.693 488.693, 123.689 488.114 C 125.267 487.197, 125.113 487.035, 122.500 486.859 C 120.850 486.749, 118.824 486.606, 117.999 486.542 C 117.173 486.478, 115.906 486.060, 115.182 485.613 C 114.459 485.166, 113.601 485.066, 113.275 485.391 C 112.950 485.716, 112.193 485.597, 111.592 485.126 C 110.991 484.655, 107.460 483.302, 103.745 482.120 C 100.030 480.938, 94.461 478.852, 91.370 477.485 C 85.147 474.733, 82.482 474.293, 85.397 476.500 M 331.855 480.750 C 331.660 482.813, 331.750 489, 332.056 494.500 L 332.613 504.500 332.806 490.750 C 332.994 477.416, 332.581 473.077, 331.855 480.750 M 126.500 489.066 C 124.886 489.851, 125.119 489.944, 127.711 489.552 C 129.477 489.284, 131.203 489.519, 131.545 490.073 C 131.894 490.638, 134.106 490.852, 136.584 490.560 C 139.362 490.234, 141 490.435, 141 491.104 C 141 491.829, 144.900 491.983, 153.250 491.588 C 159.988 491.269, 167.059 490.981, 168.965 490.948 C 170.871 490.915, 172.987 490.426, 173.667 489.861 C 174.347 489.297, 175.938 489.118, 177.202 489.465 C 179.239 490.024, 179.293 489.966, 177.678 488.958 C 176.627 488.302, 174.721 488.120, 173.178 488.529 C 167.144 490.128, 142.158 491.059, 141.325 489.715 C 141.058 489.284, 138.963 488.997, 136.670 489.078 C 134.376 489.159, 131.600 488.971, 130.500 488.659 C 129.400 488.348, 127.600 488.531, 126.500 489.066 M 212 510.108 C 212 515.732, 212.311 520.022, 212.692 519.641 C 213.776 518.557, 214.010 501.124, 212.949 500.468 C 212.374 500.113, 212 503.915, 212 510.108 M 330 523.833 C 330 527.775, 330.343 531, 330.763 531 C 331.604 531, 331.389 518.056, 330.534 517.201 C 330.240 516.907, 330 519.892, 330 523.833 M 213 551 C 213 553.750, 213.424 556, 213.943 556 C 214.462 556, 214.835 553.750, 214.773 551 C 214.710 548.250, 214.286 546, 213.829 546 C 213.373 546, 213 548.250, 213 551 M 329.750 552.332 C 328.569 555.217, 328.792 558.608, 330.078 557.322 C 330.671 556.729, 331.009 554.951, 330.828 553.372 C 330.559 551.015, 330.366 550.828, 329.750 552.332 M 213 562.500 C 213 568.361, 214.447 568.361, 214.674 562.500 C 214.769 560.025, 214.432 558, 213.924 558 C 213.416 558, 213 560.025, 213 562.500 M 213.127 578.939 C 213.053 582.236, 213.470 585.173, 214.066 585.541 C 214.799 585.994, 215.045 584.113, 214.842 579.602 C 214.473 571.385, 213.308 570.935, 213.127 578.939 M 328.183 577 C 328.146 578.925, 328.488 582.300, 328.943 584.500 C 329.656 587.950, 329.776 588.088, 329.811 585.500 C 329.833 583.850, 329.491 580.475, 329.051 578 C 328.304 573.804, 328.246 573.737, 328.183 577 M 327.173 592.500 C 327.141 594.150, 327.488 597.300, 327.943 599.500 C 328.662 602.980, 328.777 603.110, 328.827 600.500 C 328.859 598.850, 328.512 595.700, 328.057 593.500 C 327.338 590.020, 327.223 589.890, 327.173 592.500 M 212.930 612.750 C 212.892 613.163, 212.682 617.100, 212.464 621.500 C 211.731 636.306, 210.997 649.440, 210.363 659.109 C 209.908 666.055, 210.064 668.921, 210.925 669.454 C 211.803 669.996, 212.089 668.520, 212.014 663.845 C 211.957 660.355, 212.142 654.800, 212.424 651.500 C 213.426 639.784, 214.287 612, 213.649 612 C 213.292 612, 212.969 612.337, 212.930 612.750 M 228 613.107 C 228 613.730, 228.730 613.934, 229.670 613.573 C 230.589 613.221, 231.680 613.481, 232.094 614.153 C 232.686 615.111, 233.349 615.112, 235.174 614.160 L 237.500 612.948 235.251 613.380 C 234.014 613.618, 232.750 613.404, 232.442 612.906 C 231.645 611.616, 228 611.781, 228 613.107 M 244 616.020 C 242.840 616.785, 243.180 617.006, 245.500 616.993 C 247.150 616.984, 250.134 617.250, 252.132 617.584 C 254.451 617.972, 256.028 617.764, 256.494 617.009 C 257.015 616.166, 256.204 615.915, 253.666 616.134 C 251.709 616.303, 249.783 616.116, 249.387 615.720 C 248.373 614.707, 245.771 614.852, 244 616.020 M 259.346 618.250 C 258.755 619.204, 261.401 619.121, 266.500 618.024 C 270.450 617.175, 270.433 617.166, 265.155 617.332 C 262.216 617.424, 259.602 617.837, 259.346 618.250 M 299.500 617.986 C 304.155 619.032, 308.594 619.261, 307.745 618.411 C 307.421 618.087, 304.533 617.657, 301.328 617.455 C 295.991 617.119, 295.837 617.164, 299.500 617.986 M 277.750 619.737 C 280.637 619.939, 285.363 619.939, 288.250 619.737 C 291.137 619.535, 288.775 619.370, 283 619.370 C 277.225 619.370, 274.863 619.535, 277.750 619.737 M 76 675.908 C 76 677.265, 87.858 681.038, 88.559 679.904 C 88.883 679.380, 88.778 679.033, 88.324 679.134 C 87.871 679.235, 86.600 678.955, 85.500 678.511 C 75.380 674.431, 76 674.601, 76 675.908 M 100 683.912 C 100 684.746, 106.399 686.379, 110 686.464 C 110.825 686.484, 112.102 686.888, 112.837 687.363 C 113.650 687.887, 114.630 687.756, 115.337 687.029 C 116.226 686.115, 116.146 685.890, 115 686.074 C 114.175 686.207, 112.825 686.059, 112 685.747 C 110.396 685.139, 101.487 683, 100.557 683 C 100.251 683, 100 683.410, 100 683.912 M 210.458 688.068 C 210.095 688.656, 209.162 688.893, 208.386 688.594 C 207.609 688.296, 202.142 688.747, 196.237 689.595 C 190.332 690.444, 180.887 691.093, 175.250 691.038 C 169.439 690.981, 165 691.345, 165 691.879 C 165 693.135, 191.880 692.458, 199 691.022 C 202.025 690.412, 205.708 689.938, 207.184 689.968 C 208.661 689.997, 210.124 689.609, 210.435 689.105 C 210.747 688.600, 212.014 688.410, 213.251 688.681 C 215.058 689.077, 215.205 688.963, 214 688.102 C 212.094 686.740, 211.283 686.733, 210.458 688.068 M 129.478 690.036 C 128.893 690.981, 129.380 691.122, 131.447 690.603 C 132.957 690.224, 134.750 690.378, 135.433 690.945 C 137.047 692.284, 162.513 693.596, 163.266 692.379 C 163.588 691.858, 159.673 691.339, 154.165 691.172 C 144.103 690.868, 139.976 690.513, 133.877 689.425 C 131.442 688.991, 130 689.191, 129.478 690.036" stroke="none" fill="#d1dadc" fill-rule="evenodd"/><path d="M 109.663 408.705 C 109.301 422.342, 109.003 439.061, 109.002 445.858 L 109 458.217 111.450 457.602 C 115.544 456.574, 136.896 455.033, 147.267 455.016 L 157.034 455 161.345 450.500 C 167.753 443.813, 172.253 444.476, 180.924 453.385 C 184.588 457.149, 186.307 458.115, 190.924 459.002 C 193.991 459.591, 201.997 461.473, 208.715 463.184 C 224.819 467.287, 225.379 467.862, 225.855 480.816 C 226.189 489.914, 226.386 490.675, 229.249 493.936 C 230.921 495.840, 233.157 499.361, 234.217 501.759 C 236.682 507.329, 235.403 509.451, 230.017 508.729 L 226.452 508.251 226.476 513.283 L 226.500 518.316 220.806 519.908 L 215.111 521.500 214.561 576 C 214.259 605.975, 213.743 633.947, 213.415 638.161 L 212.819 645.822 218.807 644.314 L 224.794 642.806 225.384 632.153 C 225.708 626.294, 226.256 610.900, 226.603 597.945 L 227.233 574.390 234.866 575.727 C 239.065 576.462, 252.625 577.332, 265 577.661 C 283.028 578.140, 290.183 577.919, 301 576.551 C 312.941 575.040, 327.929 572.405, 328.643 571.690 C 329.608 570.725, 331.112 488.942, 330.507 470.376 C 329.777 447.989, 329.756 447.831, 327.636 448.421 C 321.850 450.031, 300.598 453.013, 287.824 454.008 C 263.604 455.895, 232.975 452.966, 208.500 446.423 C 203 444.953, 197.544 443.540, 196.376 443.283 C 194.428 442.854, 194.194 443.364, 193.541 449.462 C 192.830 456.103, 191.795 457.208, 189.578 453.693 C 188.787 452.439, 188.980 450.785, 190.328 447.253 C 194.053 437.492, 194.260 435.439, 193.518 415.638 L 192.792 396.277 177.146 395.723 C 157.105 395.014, 124.679 389.419, 111.662 384.424 C 110.576 384.007, 110.198 388.594, 109.663 408.705 M 154.065 419.667 C 152.449 420.799, 152 422.195, 152 426.089 C 152 434.542, 156.316 441.527, 161.108 440.830 C 167.448 439.909, 164.862 420.505, 158.167 418.754 C 157.046 418.461, 155.200 418.872, 154.065 419.667 M 180.075 423.145 C 177.038 425.975, 174.049 432.691, 174.022 436.750 C 174.001 439.866, 176.813 444, 178.953 444 C 181.364 444, 185.282 441.356, 186.575 438.855 C 188.706 434.735, 188.456 424.723, 186.171 422.655 C 183.780 420.491, 182.843 420.566, 180.075 423.145 M 134.974 432.532 C 131.484 436.737, 141.683 451.525, 147.590 450.822 C 149.079 450.645, 150.767 449.751, 151.340 448.836 C 152.784 446.529, 149.708 439.971, 144.819 434.933 C 140.758 430.748, 137.178 429.875, 134.974 432.532 M 337.102 445.801 L 331.705 447.368 332.392 471.934 C 332.772 485.524, 332.578 512.958, 331.958 533.335 C 331.342 553.595, 331.085 570.419, 331.389 570.722 C 331.692 571.025, 334.316 570.613, 337.220 569.807 L 342.500 568.341 343.115 552.420 C 344.018 529.020, 344.124 443.981, 343.250 444.116 C 342.837 444.180, 340.071 444.938, 337.102 445.801 M 236.449 479.438 C 233.499 483.940, 236.267 494.972, 241.217 498.439 C 242.442 499.298, 243.763 500, 244.151 500 C 248.512 500, 249.604 486.684, 245.718 480.898 C 242.737 476.460, 238.806 475.841, 236.449 479.438 M 262.912 482.088 C 258.095 486.905, 256.356 497.202, 259.829 500.345 C 265.142 505.154, 272 498.751, 272 488.982 C 272 480.735, 267.602 477.398, 262.912 482.088 M 277.074 499.057 C 274.041 503.243, 272.508 508.183, 273.166 511.650 C 273.399 512.879, 274.537 513.600, 276.560 513.799 C 280.622 514.197, 284.511 510.530, 286.037 504.862 C 287.577 499.144, 286.387 495.607, 282.782 495.188 C 280.617 494.937, 279.520 495.680, 277.074 499.057 M 249.500 504.938 C 244.784 506.952, 239.627 514.748, 235.569 525.997 C 232.045 535.766, 231.243 543.100, 233.456 545.313 C 235.721 547.578, 237.570 547.448, 245.490 544.467 C 252.763 541.730, 254.208 541.846, 260.230 545.646 C 266.772 549.774, 273.141 547.903, 275.994 541.015 C 278.553 534.837, 274.845 524.118, 266.765 514.337 C 260.195 506.384, 254.005 503.014, 249.500 504.938 M 75.530 570.883 C 74.858 621.351, 75.184 638.434, 76.851 640.180 C 77.208 640.555, 82.675 642.227, 89 643.898 C 115.658 650.938, 143.961 653.824, 169.060 652.061 C 184.583 650.970, 208.851 647.449, 210.286 646.079 C 212.121 644.327, 213.044 617.206, 213.043 565.104 C 213.042 541.787, 212.920 522.605, 212.771 522.478 C 212.622 522.351, 206.875 523.290, 200 524.565 C 179.562 528.355, 160.229 529.499, 139.931 528.121 C 130.344 527.469, 117.775 526.058, 112 524.985 C 106.225 523.911, 100.980 523.026, 100.344 523.016 C 99.568 523.005, 99.074 526.265, 98.844 532.919 C 98.655 538.374, 98.173 543.163, 97.774 543.562 C 96.837 544.496, 86.137 542.359, 84.359 540.883 C 83.369 540.061, 83 536.850, 83 529.045 L 83 518.336 79.628 517.301 L 76.257 516.266 75.530 570.883 M 119.571 552.571 C 117.523 554.620, 117.530 561.784, 119.585 566.920 C 122.512 574.236, 129.143 576.033, 130.381 569.845 C 132.742 558.042, 125.566 546.576, 119.571 552.571 M 146.743 555.084 C 144.510 556.384, 141.373 562.495, 140.471 567.301 C 138.952 575.399, 146.196 579.122, 151.411 572.923 C 153.898 569.968, 154.571 566.618, 154.009 560 C 153.545 554.544, 150.827 552.706, 146.743 555.084 M 101.519 564.624 C 98.517 567.626, 102.202 576.871, 108.064 581.046 C 112.035 583.874, 117.370 583.419, 117.824 580.214 C 118.246 577.242, 114.032 570.113, 109.503 566.137 C 105.468 562.594, 103.855 562.288, 101.519 564.624 M 160.173 572.606 C 156.358 577.235, 154.216 584.351, 155.994 586.493 C 158.900 589.994, 164.710 587.462, 167.875 581.316 C 169.091 578.954, 169.372 573.134, 168.393 570.582 C 167.320 567.784, 163.340 568.764, 160.173 572.606 M 128.024 582.130 C 123.532 586.621, 118.274 597.689, 115.918 607.610 C 114.046 615.491, 114.010 616.366, 115.465 618.587 C 117.423 621.576, 120.256 621.658, 127.186 618.927 C 134.234 616.149, 136.817 616.222, 142.159 619.353 C 148.197 622.892, 152.345 622.809, 156.077 619.077 C 158.617 616.537, 159 615.414, 159 610.514 C 159 603.819, 156.052 597.118, 149.347 588.575 C 141.377 578.421, 133.972 576.182, 128.024 582.130" stroke="none" fill="#efceff" fill-rule="evenodd"/><path d="M 175.776 322.733 C 178.128 322.945, 181.728 322.942, 183.776 322.727 C 185.824 322.512, 183.900 322.339, 179.500 322.343 C 175.100 322.346, 173.424 322.522, 175.776 322.733 M 110.320 350 C 110.320 353.575, 110.502 355.038, 110.723 353.250 C 110.945 351.462, 110.945 348.538, 110.723 346.750 C 110.502 344.962, 110.320 346.425, 110.320 350 M 109.395 398.500 C 109.396 406.200, 109.553 409.218, 109.743 405.206 C 109.934 401.195, 109.932 394.895, 109.741 391.206 C 109.549 387.518, 109.393 390.800, 109.395 398.500 M 986.463 512 C 986.463 539.225, 986.592 550.362, 986.749 536.750 C 986.906 523.138, 986.906 500.863, 986.749 487.250 C 986.592 473.637, 986.463 484.775, 986.463 512 M 76.328 489.500 C 76.333 493.350, 76.513 494.802, 76.730 492.728 C 76.946 490.653, 76.943 487.503, 76.722 485.728 C 76.501 483.952, 76.324 485.650, 76.328 489.500 M 226.201 499.750 L 226.402 508.500 226.745 500.635 L 227.088 492.770 229.294 494.628 C 231.186 496.221, 231.155 496.095, 229.076 493.743 C 227.742 492.234, 226.505 491, 226.326 491 C 226.147 491, 226.091 494.938, 226.201 499.750 M 75.395 544.500 C 75.396 552.200, 75.553 555.218, 75.743 551.206 C 75.934 547.195, 75.932 540.895, 75.741 537.206 C 75.549 533.518, 75.393 536.800, 75.395 544.500" stroke="none" fill="#faf2fb" fill-rule="evenodd"/><path d="M 330 452.667 C 330 458.220, 330.481 458.074, 331.373 452.250 C 331.775 449.621, 331.638 448, 331.012 448 C 330.455 448, 330 450.100, 330 452.667 M 330.217 534 C 330.207 535.925, 330.540 539.975, 330.958 543 L 331.718 548.500 331.741 542.500 C 331.753 539.200, 331.420 535.150, 331 533.500 L 330.237 530.500 330.217 534" stroke="none" fill="#cfd3d7" fill-rule="evenodd"/></svg>