<svg xmlns="http://www.w3.org/2000/svg" width="600" height="600" viewBox="0 0 600 600" version="1.1"><path d="M 100.032 174.019 C 89.830 175.451, 78.143 178.175, 76.240 179.565 C 74.672 180.711, 74.415 184.371, 73.641 216.668 C 73.086 239.848, 72.410 252.733, 71.726 253.161 C 71.145 253.525, 68.606 254.130, 66.085 254.506 C 58.380 255.656, 55.377 257.364, 54.648 261.012 C 54.291 262.793, 54 291.333, 54 324.434 C 54 371.073, 54.281 384.973, 55.250 386.195 C 56.644 387.955, 65.881 391.146, 76.500 393.536 C 87.243 395.954, 117.283 396.610, 128.414 394.670 C 134.019 393.693, 137.997 392.445, 139.130 391.308 C 140.680 389.751, 141.014 386.998, 141.528 371.500 C 142.333 347.221, 141.808 348.854, 148.247 350.620 C 152.736 351.851, 180.472 352.051, 339 351.997 C 458.603 351.957, 525.817 351.581, 528.208 350.940 C 533.450 349.534, 539.942 344.265, 543.479 338.544 L 546.500 333.657 546.500 286.078 C 546.500 239.171, 546.469 238.443, 544.330 234.447 C 541.473 229.110, 536.448 224.196, 531.500 221.900 C 527.657 220.117, 521.291 220.043, 369.725 220.022 L 211.950 220 211.016 217.541 C 210.283 215.615, 208.609 214.642, 203.290 213.054 C 194.151 210.324, 179.077 208.009, 170.404 208.004 L 163.309 208 162.665 195.296 C 162.251 187.134, 161.570 182.167, 160.760 181.402 C 155.415 176.353, 116.825 171.661, 100.032 174.019 M 102 189.637 C 91.294 191.197, 82.826 193.457, 82.016 194.969 C 81.516 195.904, 80.788 210.460, 80.399 227.316 C 79.779 254.131, 79.491 258.019, 78.095 258.409 C 77.218 258.654, 74.589 259.151, 72.253 259.514 C 69.917 259.878, 66.992 260.996, 65.753 261.999 L 63.500 263.822 63.225 318.028 C 63.023 357.636, 63.258 372.606, 64.094 373.614 C 65.684 375.529, 76.640 378.771, 87.442 380.523 C 104.285 383.255, 132.587 381.883, 136.997 378.121 C 138.674 376.691, 138.980 374.452, 139.592 359.142 L 140.286 341.785 143.893 342.400 C 160.247 345.188, 173.637 345.329, 189.257 342.877 C 196.225 341.784, 199 339.761, 199 335.777 C 199 334.086, 203.714 334, 296 334 L 393 334 393 286 L 393 238 296.500 238 L 200 238 200 232.571 C 200 229.105, 199.464 226.606, 198.516 225.658 C 196.230 223.373, 179.646 219.851, 168.384 219.258 L 158.267 218.726 157.567 207.660 C 157.182 201.573, 156.649 196.241, 156.383 195.810 C 155.668 194.653, 146.722 192.262, 136.619 190.526 C 128.677 189.161, 108.769 188.650, 102 189.637 M 111.607 214.582 C 110.579 217.262, 110.930 219, 112.500 219 C 113.500 219, 114 218, 114 216 C 114 212.794, 112.609 211.970, 111.607 214.582 M 128.975 240.565 C 128.439 241.976, 128 244.226, 128 245.565 C 128 248.775, 131.459 248.839, 136.095 245.715 C 140.451 242.780, 140.969 240.319, 137.508 239.003 C 132.865 237.238, 130.044 237.755, 128.975 240.565 M 102.465 240.057 C 102.106 240.638, 102.115 242.323, 102.486 243.801 C 103.987 249.779, 108 251.075, 108 245.582 C 108 243.702, 107.727 241.452, 107.393 240.582 C 106.708 238.796, 103.458 238.449, 102.465 240.057 M 116.102 241.377 C 114.033 243.870, 113.559 249.617, 115.364 250.310 C 117.899 251.282, 120.144 248.194, 119.803 244.203 C 119.470 240.299, 117.956 239.143, 116.102 241.377 M 94 247.311 C 94 250.198, 97.432 254, 100.039 254 C 102.734 254, 102.495 251.742, 99.411 248.077 C 96.327 244.412, 94 244.083, 94 247.311 M 107.746 254.007 C 106.511 255.008, 105.725 256.029, 106 256.275 C 106.275 256.521, 109.180 257.024, 112.455 257.394 L 118.410 258.066 116.119 255.627 C 113.020 252.328, 110.434 251.827, 107.746 254.007 M 145.667 268.667 C 143.316 271.018, 147.188 280.238, 149.838 278.600 C 151.667 277.470, 151.223 271.512, 149.171 269.655 C 147.150 267.826, 146.649 267.685, 145.667 268.667 M 157.633 273.362 C 155.786 277.254, 156.345 280, 158.985 280 C 161.641 280, 163.175 277.529, 162.818 273.824 C 162.373 269.200, 159.720 268.963, 157.633 273.362 M 67.485 286.353 C 66.646 297.544, 67.228 300.939, 70.019 301.150 C 71.109 301.233, 72.563 301.345, 73.250 301.400 C 74.098 301.468, 74.661 299.246, 75 294.500 C 75.498 287.522, 75.509 287.501, 78.313 287.798 C 81.001 288.082, 81.112 287.926, 80.813 284.305 C 80.471 280.160, 78.117 278.380, 71.576 277.319 L 68.204 276.771 67.485 286.353 M 140.854 278.602 C 140.164 281.465, 140.972 284, 142.573 284 C 144.375 284, 144.420 280.957, 142.655 278.543 C 141.354 276.764, 141.296 276.766, 140.854 278.602 M 165.989 280.250 C 162.803 285.476, 163.792 288.235, 167.837 285.402 C 169.342 284.347, 170 282.839, 170 280.443 C 170 276.122, 168.549 276.052, 165.989 280.250 M 150.409 283.734 C 148.256 285.886, 144.427 294.391, 143.631 298.788 C 142.883 302.916, 144.619 303.776, 150.071 301.976 C 153.547 300.829, 154.395 300.898, 157.512 302.576 C 162.005 304.996, 164.376 303.742, 164.806 298.719 C 165.184 294.306, 162.225 288.208, 157.967 284.626 C 154.311 281.549, 152.775 281.368, 150.409 283.734 M 85.460 307.065 C 84.483 308.645, 85.838 314.621, 87.483 315.986 C 89.522 317.678, 91 316.370, 91 312.875 C 91 307.567, 87.451 303.844, 85.460 307.065 M 98.035 309.934 C 97.466 310.998, 97 313.248, 97 314.934 C 97 317.220, 97.458 318, 98.800 318 C 101.605 318, 103 315.941, 103 311.800 C 103 308.689, 102.644 308, 101.035 308 C 99.955 308, 98.605 308.870, 98.035 309.934 M 76.531 312.950 C 74.833 315.697, 80.549 322.771, 83.539 321.623 C 85.039 321.048, 85.022 320.725, 83.340 317.862 C 81.085 314.024, 77.476 311.421, 76.531 312.950 M 106.034 318.177 C 103.507 322.321, 103.462 324, 105.878 324 C 108.333 324, 110.050 321.843, 110.300 318.447 C 110.591 314.478, 108.374 314.338, 106.034 318.177 M 90.291 322.250 C 87.067 325.776, 84.945 330.672, 84.307 336.054 C 83.652 341.586, 83.862 341.721, 90.169 339.831 C 93.434 338.853, 94.642 338.936, 97.585 340.339 C 107.559 345.095, 108.373 331.803, 98.632 323.250 C 94.250 319.402, 93.029 319.256, 90.291 322.250" stroke="none" fill="#ffffff" fill-rule="evenodd"/><path d="M 80.978 230.633 C 80.965 236.060, 80.682 244.376, 80.348 249.112 L 79.741 257.725 92.121 257.247 C 103.649 256.803, 104.686 256.596, 107.202 254.244 C 109.634 251.970, 110.197 251.839, 112.835 252.932 C 114.447 253.599, 116.716 255.238, 117.876 256.573 C 119.037 257.908, 120.937 259, 122.099 259 C 125.822 259, 136.441 262.116, 138.250 263.739 C 139.503 264.863, 140 266.829, 140 270.655 C 140 273.595, 140.353 276, 140.784 276 C 141.729 276, 145 281.358, 145 282.904 C 145 283.507, 143.875 284, 142.500 284 C 140.527 284, 140 284.507, 140 286.402 C 140 288.166, 139.212 289.079, 137.036 289.838 L 134.071 290.871 133.747 301.186 L 133.422 311.500 133.211 301.183 C 133.020 291.867, 132.830 290.918, 131.250 291.411 C 120.327 294.815, 88.442 294.795, 76.750 291.377 C 75.232 290.933, 75 291.602, 75 296.433 C 75 302.373, 74.523 302.783, 69.250 301.370 C 67.246 300.833, 67 300.135, 67 294.990 C 67 290.922, 66.580 289.053, 65.580 288.669 C 63.473 287.861, 62.833 298.133, 63.194 326.972 L 63.500 351.445 72.492 353.689 C 85.295 356.884, 101.434 358.197, 113.618 357.036 C 126.213 355.836, 131.999 354.919, 132.002 354.122 C 132.004 353.780, 133.365 353.452, 135.027 353.392 C 136.689 353.333, 138.375 352.959, 138.774 352.562 C 139.173 352.164, 139.642 344.209, 139.816 334.884 L 140.133 317.929 147.816 318.714 C 165.824 320.556, 191.985 318.444, 192.015 315.147 C 192.027 313.841, 192.209 313.781, 192.890 314.857 C 193.840 316.355, 197.961 315.548, 199.235 313.615 C 199.639 313.002, 199.976 298.686, 199.985 281.802 L 200 251.104 197.015 252.145 L 194.030 253.185 193.749 282.343 L 193.469 311.500 193.234 282.394 L 193 253.288 185.250 254.724 C 180.857 255.538, 171.219 256.170, 163 256.184 C 148.919 256.208, 146.802 255.932, 125.250 251.255 C 123.271 250.826, 123 251.166, 123 254.083 C 123 256.573, 122.715 257.115, 121.856 256.256 C 121.024 255.424, 121.002 254.343, 121.774 252.306 C 123.771 247.037, 124.088 243.799, 123.418 235.539 L 122.747 227.277 113.392 226.620 C 105.333 226.053, 90.664 223.516, 83.250 221.407 C 81.026 220.774, 81 220.883, 80.978 230.633 M 102.445 240.361 C 101.707 243.303, 102.541 246.398, 104.637 248.494 C 106.846 250.703, 107.763 250.356, 108.492 247.036 C 109.787 241.139, 103.885 234.624, 102.445 240.361 M 115.260 242.250 C 113.289 246.362, 113.126 247.790, 114.424 249.565 C 117.092 253.214, 121.911 247.766, 120.608 242.574 C 119.799 239.349, 116.738 239.164, 115.260 242.250 M 93.429 247.750 C 94.071 250.482, 98.220 255, 100.087 255 C 102.140 255, 102.106 251.908, 100.016 248.525 C 98.453 245.996, 97.123 245, 95.310 245 C 93.064 245, 92.855 245.305, 93.429 247.750 M 145.667 268.667 C 144.199 270.134, 145.066 276.066, 147.036 278.036 C 149.664 280.664, 151 279.767, 151 275.375 C 151 269.827, 148.124 266.209, 145.667 268.667 M 158.689 270.791 C 156.262 273.473, 155.506 278.345, 157.287 279.823 C 160.542 282.525, 163.542 278.531, 162.828 272.448 C 162.422 268.992, 160.877 268.374, 158.689 270.791 M 166.573 278.570 C 164.497 280.646, 163.488 284.888, 164.766 286.166 C 167.345 288.745, 172.159 282.463, 170.639 278.502 C 169.899 276.573, 168.547 276.596, 166.573 278.570 M 149.693 283.787 C 147.380 286.343, 144.199 293.901, 143.441 298.645 C 142.632 303.706, 144.317 304.657, 150.036 302.369 C 153.679 300.911, 154.218 300.913, 156.471 302.389 C 157.823 303.275, 159.776 304, 160.810 304 C 163.274 304, 166 300.918, 166 298.131 C 166 292.740, 157.702 282, 153.536 282 C 152.312 282, 150.582 282.804, 149.693 283.787 M 85.667 306.667 C 84.289 308.044, 85.052 313.737, 86.829 315.345 C 90.327 318.511, 91.701 316.922, 91.018 310.500 C 90.640 306.947, 87.579 304.754, 85.667 306.667 M 98.668 309.188 C 96.339 312.877, 95.895 315.474, 97.272 317.357 C 99.068 319.813, 101.813 318.476, 102.842 314.643 C 104.396 308.861, 101.370 304.907, 98.668 309.188 M 76.701 312.632 C 74.291 315.042, 78.652 322, 82.573 322 C 85.616 322, 85.656 320.270, 82.715 315.905 C 80.462 312.562, 78.072 311.261, 76.701 312.632 M 105.375 318.339 C 103.723 321.805, 104.007 325, 105.969 325 C 108.168 325, 111.118 320.855, 110.811 318.198 C 110.335 314.096, 107.362 314.174, 105.375 318.339 M 133.411 333 C 133.411 342.625, 133.561 346.563, 133.745 341.750 C 133.928 336.938, 133.928 329.063, 133.745 324.250 C 133.561 319.438, 133.411 323.375, 133.411 333 M 89.693 321.787 C 87.147 324.600, 83.974 332.530, 83.726 336.698 C 83.477 340.879, 82.809 340.649, 93 339.880 C 94.375 339.777, 96.940 340.301, 98.700 341.046 C 101.558 342.256, 102.118 342.203, 103.950 340.545 C 107.644 337.202, 105.789 330.099, 99.471 323.400 C 95.875 319.588, 92.228 318.986, 89.693 321.787" stroke="none" fill="#efcdff" fill-rule="evenodd"/><path d="M 103.268 189.972 C 93.928 191.031, 86.085 192.858, 83.250 194.636 C 81.114 195.975, 81 196.673, 81 208.406 C 81 222.649, 79.303 220.739, 94.876 224.027 C 100.032 225.116, 108.754 226.301, 114.256 226.662 L 124.261 227.318 123.779 239.025 L 123.297 250.732 132.821 252.920 C 150.773 257.044, 169.855 257.476, 188.500 254.182 L 192.500 253.476 193.082 247.488 L 193.664 241.500 193.832 247.250 C 193.924 250.412, 194.196 253, 194.435 253 C 194.674 253, 196.024 252.561, 197.435 252.025 C 199.980 251.057, 200 250.962, 200 239.716 C 200 232.143, 199.579 227.807, 198.732 226.648 C 196.538 223.648, 173.796 219, 161.309 219 L 157.066 219 156.783 207.761 L 156.500 196.523 153.664 195.166 C 145.234 191.131, 117.889 188.313, 103.268 189.972 M 101.497 195.156 C 101.163 196.488, 101.354 198.800, 101.921 200.293 L 102.953 203.008 117.227 202.657 C 131.998 202.294, 135 201.746, 135 199.416 C 135 196.509, 130.241 194.810, 121.276 194.517 C 116.449 194.359, 110.161 193.893, 107.302 193.482 C 102.359 192.770, 102.075 192.852, 101.497 195.156 M 102.337 195.564 C 102.007 196.424, 102.237 198.224, 102.847 199.564 C 104.102 202.318, 108.318 202.831, 113.851 200.902 C 118.490 199.285, 117.736 197.296, 111.818 195.539 C 105.266 193.593, 103.091 193.599, 102.337 195.564 M 104 197.441 C 104 200.605, 105.773 201.655, 107.760 199.669 C 109.052 198.377, 109.102 197.827, 108.042 196.550 C 106.093 194.203, 104 194.664, 104 197.441 M 105 198 C 105 199.949, 106.061 200.606, 107.264 199.402 C 108.066 198.601, 107.017 196, 105.893 196 C 105.402 196, 105 196.900, 105 198 M 85.597 199.983 C 87.424 201.833, 100.079 205.838, 108.023 207.081 C 121.138 209.132, 142.480 206.301, 150.894 201.393 C 152.327 200.557, 152.600 200.192, 151.500 200.582 C 137.487 205.552, 133.342 206.313, 120 206.364 C 105.931 206.418, 99.502 205.278, 89.298 200.922 C 86.659 199.795, 84.994 199.373, 85.597 199.983 M 85.187 210.161 C 85.469 213.012, 86.039 213.507, 91 215.212 C 100.175 218.366, 104.873 218.984, 106.593 217.264 C 109.501 214.356, 108.557 213.647, 96.460 209.654 C 85.787 206.131, 84.792 206.175, 85.187 210.161 M 86 210.354 C 86 212.419, 86.920 212.982, 93.463 214.924 C 97.568 216.143, 102.181 216.996, 103.713 216.820 C 108.326 216.290, 106.994 213.855, 101.294 212.396 C 98.430 211.663, 94.438 210.374, 92.422 209.532 C 87.367 207.420, 86 207.595, 86 210.354 M 117.568 213.083 C 116.310 216.670, 116.533 220.500, 118 220.500 C 118.973 220.500, 119.613 219.315, 119.823 217.123 C 120.164 213.550, 118.470 210.513, 117.568 213.083 M 150.168 215.059 L 150 218.617 141.250 219.911 C 130.309 221.528, 124.790 223.131, 124.214 224.859 C 123.871 225.886, 124.320 225.840, 126.134 224.665 C 128.706 222.997, 143.770 220.091, 151 219.867 C 153.475 219.790, 154.513 219.536, 153.307 219.302 C 151.618 218.974, 151.024 218.027, 150.725 215.188 L 150.336 211.500 150.168 215.059 M 111 216.500 C 111 220.643, 113.607 221.413, 114.575 217.557 C 115.288 214.716, 114.484 213, 112.441 213 C 111.461 213, 111 214.119, 111 216.500 M 144.667 223.667 C 143.419 224.914, 143.994 229.852, 145.571 231.429 C 146.436 232.293, 148.348 232.939, 149.821 232.864 L 152.500 232.728 150 232.268 C 146.071 231.546, 144.787 229.947, 145.212 226.306 C 145.634 222.697, 145.634 222.699, 144.667 223.667 M 151.716 224.350 C 158.191 226.024, 160.484 227.712, 158.890 229.633 C 158.266 230.385, 156.573 231.062, 155.128 231.137 C 153.682 231.212, 155.425 231.612, 159 232.025 C 162.575 232.439, 167.975 232.380, 171 231.894 C 174.025 231.409, 176.613 231.009, 176.750 231.006 C 176.887 231.003, 177 230.116, 177 229.035 C 177 225.964, 173.220 224.622, 164 224.418 C 159.325 224.315, 153.475 223.954, 151 223.616 C 146.519 223.005, 146.522 223.008, 151.716 224.350 M 146.590 225.854 C 145.567 227.509, 147.121 230, 149.177 230 C 150.638 230, 151.057 229.428, 150.820 227.760 C 150.489 225.442, 147.639 224.157, 146.590 225.854 M 147.229 227.188 C 147.847 229.042, 150 229.349, 150 227.583 C 150 226.713, 149.287 226, 148.417 226 C 147.546 226, 147.011 226.534, 147.229 227.188 M 129.132 230.407 C 130.580 231.250, 135.755 233.140, 140.632 234.606 C 148.203 236.882, 151.328 237.270, 162 237.263 C 174.975 237.253, 186.507 235.084, 192.717 231.486 C 194.247 230.599, 194.600 230.183, 193.500 230.561 C 171.773 238.042, 155.636 238.639, 137.805 232.621 C 126.470 228.796, 126.289 228.750, 129.132 230.407 M 80.310 239.500 C 80.315 242.800, 80.502 244.029, 80.725 242.232 C 80.947 240.435, 80.943 237.735, 80.715 236.232 C 80.486 234.729, 80.304 236.200, 80.310 239.500 M 128.441 240.379 C 127.469 244.250, 128.335 248.452, 130.176 248.801 C 133.084 249.352, 140 244.279, 140 241.594 C 140 238.834, 138.362 238, 132.937 238 C 129.665 238, 128.942 238.382, 128.441 240.379 M 76.033 259.128 C 70.827 260.221, 65.976 261.605, 65.254 262.204 C 63.446 263.704, 63.902 288.138, 65.750 288.752 C 66.636 289.046, 67 287.743, 67 284.274 C 67 281.584, 67.563 278.638, 68.250 277.729 C 69.410 276.195, 69.897 276.206, 75 277.884 C 80.397 279.659, 80.506 279.771, 80.807 283.847 C 81.106 287.879, 81.026 288, 78.057 288 C 74.694 288, 73.728 290.493, 76.750 291.377 C 85.946 294.065, 109.162 294.868, 122.500 292.958 C 133.170 291.431, 132.855 291.658, 133.263 285.198 L 133.622 279.500 133.811 285.198 L 134 290.896 137 289.850 L 140 288.804 140 277.057 C 140 263.338, 139.809 263.008, 130.500 260.648 C 114.131 256.498, 91.569 255.868, 76.033 259.128 M 85.200 261.200 C 83.788 262.612, 83.645 266.890, 84.940 268.937 C 85.671 270.093, 88.523 270.324, 99.535 270.120 C 117.268 269.792, 120.572 268.638, 115.896 264.405 C 114.217 262.885, 112.042 262.457, 105.146 262.286 C 100.391 262.168, 94.700 261.832, 92.500 261.539 C 88.688 261.032, 88.730 261.074, 93.379 262.433 C 99.767 264.299, 101.125 265.673, 98.501 267.610 C 97.165 268.595, 94.675 268.988, 91.001 268.792 C 85.730 268.512, 85.486 268.376, 85.164 265.549 C 84.941 263.586, 85.423 262.164, 86.605 261.299 C 87.583 260.585, 87.936 260, 87.391 260 C 86.846 260, 85.860 260.540, 85.200 261.200 M 86.631 263.518 C 85.765 265.777, 86.993 268, 89.107 268 C 91.621 268, 91.616 264.400, 89.100 263.053 C 87.662 262.284, 87.062 262.397, 86.631 263.518 M 87.229 265.188 C 87.847 267.042, 90 267.349, 90 265.583 C 90 264.712, 89.287 264, 88.417 264 C 87.546 264, 87.011 264.534, 87.229 265.188 M 70 268.419 C 75.327 271.738, 98 277.050, 98 274.979 C 98 274.600, 95.100 274.018, 91.556 273.687 C 86.085 273.177, 80.589 271.658, 69.500 267.595 C 68.210 267.122, 68.388 267.415, 70 268.419 M 126.541 270.624 C 122.714 271.960, 115.064 273.540, 109.541 274.134 C 97.267 275.455, 95.265 276.530, 106.915 275.545 C 116.162 274.763, 128.373 271.945, 132.717 269.590 C 136.637 267.464, 134.628 267.800, 126.541 270.624 M 85.667 280.667 C 85.300 281.033, 85 283.058, 85 285.167 C 85 288.581, 85.271 289, 87.481 289 C 89.268 289, 90.131 288.327, 90.566 286.593 C 91.588 282.522, 88.069 278.265, 85.667 280.667 M 86.658 281.675 C 86.296 282.037, 86 283.641, 86 285.240 C 86 287.469, 86.408 288.069, 87.750 287.813 C 89.940 287.396, 90.564 283.713, 88.706 282.171 C 87.942 281.537, 87.020 281.313, 86.658 281.675 M 194.750 315.689 C 193.313 316.065, 192.987 317.342, 192.930 322.823 C 192.891 326.495, 192.476 330.400, 192.007 331.500 C 191.500 332.689, 191.385 330.155, 191.725 325.250 C 192.039 320.712, 191.969 317, 191.568 317 C 191.168 317, 185.364 317.722, 178.670 318.604 C 167.089 320.130, 156.913 320.044, 144.250 318.310 L 140 317.728 140 327.251 L 140 336.773 145.750 337.831 L 151.500 338.888 145.750 338.372 C 141.069 337.952, 140 338.136, 140 339.361 C 140 345.458, 195.799 345.204, 197.807 339.097 C 198.174 337.983, 197.470 337.833, 194.384 338.367 C 190.045 339.118, 176.650 340.153, 179 339.556 C 179.825 339.346, 184.438 338.639, 189.250 337.984 C 195.487 337.135, 198 336.393, 198 335.401 C 198 334.224, 212.963 333.971, 295.236 333.755 C 380.831 333.531, 392.486 333.320, 392.583 332 C 392.646 331.138, 392.514 331.031, 392.273 331.750 C 391.941 332.738, 371.678 333, 295.427 333 L 199 333 199 324 C 199 314.726, 198.934 314.596, 194.750 315.689 M 157 340.021 C 162.645 340.823, 177.663 341.287, 176.917 340.637 C 176.688 340.438, 170.875 340.042, 164 339.757 C 156.080 339.429, 153.515 339.526, 157 340.021 M 63.490 361.676 C 63.667 367.965, 64.263 372.612, 65.007 373.508 C 66.263 375.022, 74.856 377.816, 85.500 380.171 C 93.648 381.974, 125.672 381.780, 132.488 379.886 C 135.538 379.039, 137.598 377.869, 137.788 376.875 C 138.055 375.479, 137.494 375.367, 133.799 376.082 C 131.435 376.539, 128.375 376.888, 127 376.858 C 125.625 376.829, 127.310 376.250, 130.745 375.573 C 134.180 374.897, 137.330 374.004, 137.745 373.590 C 138.160 373.176, 138.657 368.310, 138.848 362.776 L 139.196 352.715 136.848 353.344 C 135.557 353.690, 134.162 353.979, 133.750 353.986 C 133.338 353.994, 132.913 357.038, 132.807 360.750 L 132.615 367.500 132.256 361.130 L 131.898 354.761 127.767 355.421 C 108.283 358.537, 89.218 357.918, 72.266 353.620 L 63.199 351.321 63.490 361.676 M 64.500 369.875 C 65.765 371.142, 82.504 376.017, 85.362 375.951 C 86.538 375.924, 83.450 374.843, 78.500 373.549 C 73.550 372.255, 68.150 370.673, 66.500 370.035 C 64.844 369.394, 63.948 369.323, 64.500 369.875 M 102.296 377.744 C 106.583 377.932, 113.333 377.931, 117.296 377.742 C 121.258 377.552, 117.750 377.399, 109.500 377.400 C 101.250 377.401, 98.008 377.556, 102.296 377.744" stroke="none" fill="#d8ebf7" fill-rule="evenodd"/><path d="M 101.392 195.573 C 101.037 196.988, 101.198 198.598, 101.749 199.149 C 102.419 199.819, 102.589 199.302, 102.262 197.588 C 101.584 194.044, 103.939 193.376, 110.587 195.226 C 113.564 196.055, 116 196.396, 116 195.985 C 116 195.071, 108.072 193, 104.576 193 C 102.684 193, 101.874 193.654, 101.392 195.573 M 104.015 196.750 C 104.028 198.248, 104.172 198.284, 105.015 197 C 105.891 195.667, 106.109 195.667, 106.981 197 C 107.687 198.079, 107.493 198.851, 106.290 199.750 C 105.370 200.438, 105.099 201, 105.686 201 C 106.274 201, 107.315 200.325, 108 199.500 C 108.993 198.303, 108.993 197.697, 108 196.500 C 106.308 194.461, 103.997 194.606, 104.015 196.750 M 128 200.833 C 128 201.588, 125.616 202.068, 121.250 202.193 L 114.500 202.385 120.898 202.744 C 126.831 203.077, 130.333 202, 128.683 200.350 C 128.308 199.974, 128 200.192, 128 200.833 M 103.690 206.010 C 104.622 206.850, 114.622 208.289, 113.797 207.464 C 113.498 207.164, 110.919 206.550, 108.066 206.100 C 105.214 205.649, 103.244 205.608, 103.690 206.010 M 126.500 207 C 123.952 208.095, 126.581 208.095, 130 207 C 132.010 206.356, 132.108 206.194, 130.500 206.170 C 129.400 206.154, 127.600 206.527, 126.500 207 M 150.116 217.059 C 150.028 218.239, 147.872 218.919, 141.228 219.859 C 136.403 220.542, 131.790 221.542, 130.978 222.081 C 129.873 222.813, 130.131 222.934, 132 222.557 C 139.649 221.016, 146.901 219.984, 150.934 219.864 C 153.445 219.789, 154.515 219.536, 153.311 219.302 C 152.108 219.068, 150.922 218.117, 150.677 217.189 C 150.314 215.811, 150.211 215.787, 150.116 217.059 M 126.250 223.031 C 125.013 223.529, 124 224.410, 124 224.991 C 124 225.576, 125.114 225.316, 126.500 224.408 C 127.875 223.507, 129 222.597, 129 222.385 C 129 221.919, 129.043 221.909, 126.250 223.031 M 144.667 223.667 C 143.419 224.914, 143.994 229.852, 145.571 231.429 C 146.436 232.293, 148.348 232.939, 149.821 232.864 L 152.500 232.728 150 232.268 C 146.071 231.546, 144.787 229.947, 145.212 226.306 C 145.634 222.697, 145.634 222.699, 144.667 223.667 M 151.716 224.434 C 154.584 225.129, 157.734 226.329, 158.716 227.099 C 160.337 228.372, 160.376 228.341, 159.142 226.767 C 157.722 224.955, 151.930 222.954, 148.500 223.091 C 147.400 223.134, 148.847 223.739, 151.716 224.434 M 162.264 224.718 C 163.784 224.947, 166.034 224.941, 167.264 224.704 C 168.494 224.467, 167.250 224.279, 164.500 224.286 C 161.750 224.294, 160.744 224.488, 162.264 224.718 M 146.590 225.854 C 145.780 227.164, 146.955 230, 148.307 230 C 149.038 230, 149.003 229.603, 148.200 228.800 C 146.588 227.188, 146.686 226, 148.430 226 C 149.217 226, 150.078 227.012, 150.344 228.250 C 150.773 230.245, 150.809 230.218, 150.664 228.010 C 150.498 225.493, 147.722 224.024, 146.590 225.854 M 123.300 232 C 123.300 235.025, 123.487 236.262, 123.716 234.750 C 123.945 233.238, 123.945 230.762, 123.716 229.250 C 123.487 227.738, 123.300 228.975, 123.300 232 M 136.659 233.032 C 139.555 235.833, 162.396 238.843, 169.275 237.330 C 172.123 236.704, 170.158 236.463, 161.275 236.351 C 152.836 236.245, 147.562 235.638, 142.659 234.210 C 138.897 233.115, 136.197 232.584, 136.659 233.032 M 184 233.512 C 181.525 234.229, 178.209 235.104, 176.632 235.456 C 175.055 235.809, 173.949 236.282, 174.175 236.508 C 174.817 237.150, 187.378 234.022, 188.446 232.954 C 188.971 232.429, 189.197 232.047, 188.950 232.104 C 188.703 232.161, 186.475 232.795, 184 233.512 M 247.750 238.750 C 274.288 238.898, 317.713 238.898, 344.250 238.750 C 370.788 238.602, 349.075 238.480, 296 238.480 C 242.925 238.480, 221.213 238.602, 247.750 238.750 M 193.300 247 C 193.300 250.025, 193.487 251.262, 193.716 249.750 C 193.945 248.238, 193.945 245.762, 193.716 244.250 C 193.487 242.738, 193.300 243.975, 193.300 247 M 193.420 276.500 C 193.419 287.500, 193.565 292.136, 193.745 286.803 C 193.924 281.470, 193.925 272.470, 193.746 266.803 C 193.568 261.136, 193.421 265.500, 193.420 276.500 M 85.200 261.200 C 83.771 262.629, 83.650 266.898, 84.979 269 C 85.658 270.072, 87.412 270.438, 91.132 270.282 C 98.610 269.968, 99.081 268.500, 91.704 268.500 C 85.576 268.500, 85.496 268.464, 85.164 265.549 C 84.941 263.586, 85.423 262.164, 86.605 261.299 C 87.583 260.585, 87.936 260, 87.391 260 C 86.846 260, 85.860 260.540, 85.200 261.200 M 89.500 261.432 C 92.353 262.716, 98.242 263.842, 97.329 262.929 C 96.778 262.378, 94.566 261.715, 92.414 261.455 C 90.261 261.195, 88.950 261.184, 89.500 261.432 M 86.631 263.518 C 85.765 265.777, 86.993 268, 89.107 268 C 91.621 268, 91.616 264.400, 89.100 263.053 C 87.662 262.284, 87.062 262.397, 86.631 263.518 M 101.750 262.723 C 103.537 262.945, 106.463 262.945, 108.250 262.723 C 110.037 262.502, 108.575 262.320, 105 262.320 C 101.425 262.320, 99.963 262.502, 101.750 262.723 M 111 264.195 C 109.625 264.783, 107.037 265.263, 105.250 265.262 C 103.463 265.260, 102 265.558, 102 265.922 C 102 266.286, 103.990 266.579, 106.423 266.572 C 108.856 266.566, 110.661 266.260, 110.434 265.894 C 110.208 265.527, 111.007 264.970, 112.209 264.656 C 114.908 263.950, 117.300 265.771, 116.486 267.910 C 116.008 269.168, 116.139 269.244, 117.117 268.274 C 118.097 267.301, 117.974 266.629, 116.521 265.024 C 114.452 262.737, 114.422 262.733, 111 264.195 M 87.229 265.188 C 87.847 267.042, 90 267.349, 90 265.583 C 90 264.712, 89.287 264, 88.417 264 C 87.546 264, 87.011 264.534, 87.229 265.188 M 70 268.419 C 75.327 271.738, 98 277.050, 98 274.979 C 98 274.600, 95.100 274.018, 91.556 273.687 C 86.085 273.177, 80.589 271.658, 69.500 267.595 C 68.210 267.122, 68.388 267.415, 70 268.419 M 106.250 268.175 C 101.514 269.460, 102.255 270.008, 108.534 269.863 C 111.578 269.793, 113.941 269.631, 113.784 269.503 C 111.868 267.938, 108.992 267.431, 106.250 268.175 M 128.762 269.908 C 123.689 271.765, 120.845 273.735, 125 272.514 C 128.431 271.506, 135.732 268.168, 134.500 268.171 C 133.950 268.173, 131.368 268.954, 128.762 269.908 M 118 272.996 C 116.075 273.433, 110.900 274.149, 106.500 274.587 C 102.100 275.024, 99.554 275.558, 100.842 275.773 C 104.084 276.313, 120.287 274.083, 121.450 272.936 C 121.973 272.421, 122.198 272.045, 121.950 272.100 C 121.703 272.156, 119.925 272.559, 118 272.996 M 133.252 288.500 C 133.263 290.700, 133.468 291.482, 133.707 290.238 C 133.946 288.994, 133.937 287.194, 133.687 286.238 C 133.437 285.282, 133.241 286.300, 133.252 288.500 M 133.328 304.500 C 133.333 308.350, 133.513 309.802, 133.730 307.728 C 133.946 305.653, 133.943 302.503, 133.722 300.728 C 133.501 298.952, 133.324 300.650, 133.328 304.500 M 193.252 307.500 C 193.263 309.700, 193.468 310.482, 193.707 309.238 C 193.946 307.994, 193.937 306.194, 193.687 305.238 C 193.437 304.282, 193.241 305.300, 193.252 307.500 M 192.190 319.500 C 192.074 322.800, 191.746 327.300, 191.463 329.500 C 191.018 332.960, 191.092 333.170, 192.013 331.058 C 192.598 329.716, 192.925 325.216, 192.740 321.058 C 192.421 313.908, 192.391 313.824, 192.190 319.500 M 133.355 324.500 C 133.352 329.450, 133.521 331.601, 133.731 329.280 C 133.940 326.959, 133.943 322.909, 133.736 320.280 C 133.530 317.651, 133.358 319.550, 133.355 324.500 M 133.349 342 C 133.349 346.675, 133.522 348.587, 133.732 346.250 C 133.943 343.913, 133.943 340.087, 133.732 337.750 C 133.522 335.413, 133.349 337.325, 133.349 342 M 142.500 338 C 144.150 338.420, 146.850 338.765, 148.500 338.767 C 151.022 338.769, 150.863 338.638, 147.500 337.943 C 142.434 336.895, 138.341 336.942, 142.500 338 M 192.500 337.567 C 191.950 337.792, 188.350 338.374, 184.500 338.862 C 179.679 339.471, 178.745 339.772, 181.500 339.827 C 183.700 339.871, 188.425 339.306, 192 338.573 C 195.575 337.839, 197.375 337.220, 196 337.198 C 194.625 337.176, 193.050 337.342, 192.500 337.567 M 157 340.021 C 162.645 340.823, 177.663 341.287, 176.917 340.637 C 176.688 340.438, 170.875 340.042, 164 339.757 C 156.080 339.429, 153.515 339.526, 157 340.021 M 132.336 360 C 132.336 364.125, 132.513 365.813, 132.728 363.750 C 132.944 361.688, 132.944 358.313, 132.728 356.250 C 132.513 354.188, 132.336 355.875, 132.336 360 M 64.500 369.875 C 65.765 371.142, 82.504 376.017, 85.362 375.951 C 86.538 375.924, 83.450 374.843, 78.500 373.549 C 73.550 372.255, 68.150 370.673, 66.500 370.035 C 64.844 369.394, 63.948 369.323, 64.500 369.875 M 130.500 375.592 L 124.500 376.928 130.500 376.379 C 133.800 376.077, 136.928 375.418, 137.450 374.915 C 138.589 373.818, 138.375 373.839, 130.500 375.592 M 102.296 377.744 C 106.583 377.932, 113.333 377.931, 117.296 377.742 C 121.258 377.552, 117.750 377.399, 109.500 377.400 C 101.250 377.401, 98.008 377.556, 102.296 377.744" stroke="none" fill="#d1dadc" fill-rule="evenodd"/><path d="M 116 195.800 C 116 196.240, 116.488 197.088, 117.084 197.684 C 117.863 198.463, 117.519 199.223, 115.862 200.384 C 113.647 201.936, 113.842 202, 120.777 202 C 125.881 202, 128.004 201.633, 128.015 200.750 C 128.027 199.782, 128.205 199.774, 128.801 200.712 C 129.917 202.469, 134 201.110, 134 198.981 C 134 197.878, 132.797 196.776, 130.851 196.098 C 127.223 194.833, 116 194.608, 116 195.800 M 158.800 226.200 C 160.656 228.056, 160.226 229.980, 157.750 230.904 C 156.208 231.479, 158.224 231.791, 164.154 231.897 C 170.709 232.013, 173.175 231.682, 174.323 230.534 C 175.468 229.390, 175.962 229.322, 176.341 230.259 C 176.645 231.012, 176.873 230.834, 176.921 229.807 C 177.069 226.634, 173.043 225, 165.077 225 C 159.262 225, 157.867 225.267, 158.800 226.200 M 200 275.344 C 200 295.334, 199.707 316.484, 199.348 322.344 L 198.696 333 295.348 333 L 392 333 392 286 L 392 239 296 239 L 200 239 200 275.344 M 98.510 264.016 C 98.856 264.575, 99.557 264.774, 100.069 264.457 C 102.093 263.207, 100.857 266.858, 98.750 268.355 C 96.532 269.931, 96.550 269.949, 100 269.553 C 101.925 269.332, 104.848 268.748, 106.495 268.255 C 108.377 267.692, 110.509 267.743, 112.231 268.393 C 114.276 269.165, 115.293 269.101, 116.236 268.143 C 117.257 267.105, 117.047 266.488, 115.139 264.929 C 113.277 263.408, 111.205 263, 105.330 263 C 100.540 263, 98.106 263.363, 98.510 264.016 M 109.641 264.771 C 109.379 265.195, 107.553 265.467, 105.582 265.374 C 103.612 265.281, 102 265.516, 102 265.895 C 102 266.274, 103.990 266.579, 106.423 266.572 C 108.856 266.566, 110.650 266.243, 110.411 265.856 C 110.171 265.468, 110.769 264.945, 111.738 264.692 C 113.313 264.281, 113.321 264.220, 111.809 264.116 C 110.879 264.052, 109.904 264.347, 109.641 264.771 M 193.272 300 C 193.272 302.475, 193.467 303.488, 193.706 302.250 C 193.944 301.012, 193.944 298.988, 193.706 297.750 C 193.467 296.512, 193.272 297.525, 193.272 300" stroke="none" fill="#ced5d5" fill-rule="evenodd"/><path d="" stroke="none" fill="#ccd5d5" fill-rule="evenodd"/><path d="M 124.762 189.707 C 126.006 189.946, 127.806 189.937, 128.762 189.687 C 129.718 189.437, 128.700 189.241, 126.500 189.252 C 124.300 189.263, 123.518 189.468, 124.762 189.707 M 157.328 212.500 C 157.333 216.350, 157.513 217.802, 157.730 215.728 C 157.946 213.653, 157.943 210.503, 157.722 208.728 C 157.501 206.952, 157.324 208.650, 157.328 212.500 M 105.462 213.348 C 107.821 215.074, 106.658 216.980, 103.191 217.070 C 100.830 217.132, 100.745 217.238, 102.500 217.932 C 104.955 218.903, 106.655 218.340, 107.440 216.296 C 108.085 214.615, 106.409 212, 104.686 212 C 104.099 212, 104.447 212.607, 105.462 213.348 M 117.568 213.083 C 116.310 216.670, 116.533 220.500, 118 220.500 C 118.973 220.500, 119.613 219.315, 119.823 217.123 C 120.164 213.550, 118.470 210.513, 117.568 213.083 M 92.424 215.567 C 96.232 216.898, 99.559 217.775, 99.817 217.516 C 100.075 217.258, 99.659 216.850, 98.893 216.609 C 98.127 216.368, 95.282 215.457, 92.572 214.585 C 84.839 212.098, 84.722 212.877, 92.424 215.567 M 80.328 227.500 C 80.333 231.350, 80.513 232.802, 80.730 230.728 C 80.946 228.653, 80.943 225.503, 80.722 223.728 C 80.501 221.952, 80.324 223.650, 80.328 227.500 M 63.400 280.500 C 63.401 288.750, 63.556 291.992, 63.744 287.704 C 63.932 283.417, 63.931 276.667, 63.742 272.704 C 63.552 268.742, 63.399 272.250, 63.400 280.500 M 67.252 282.500 C 67.263 284.700, 67.468 285.482, 67.707 284.238 C 67.946 282.994, 67.937 281.194, 67.687 280.238 C 67.437 279.282, 67.241 280.300, 67.252 282.500 M 85.667 280.667 C 85.300 281.033, 85.046 282.721, 85.102 284.417 L 85.205 287.500 86.026 284.007 C 86.881 280.367, 86.792 279.541, 85.667 280.667 M 88.032 280.550 C 88.014 281.127, 88.492 282.092, 89.094 282.694 C 90.839 284.439, 89.709 287.351, 86.995 288.106 L 84.500 288.801 87.143 288.900 C 89.659 288.995, 91 287.504, 91 284.609 C 91 283.093, 88.076 279.094, 88.032 280.550 M 164.728 344.722 C 166.503 344.943, 169.653 344.946, 171.728 344.730 C 173.802 344.513, 172.350 344.333, 168.500 344.328 C 164.650 344.324, 162.952 344.501, 164.728 344.722 M 139.300 356 C 139.300 359.025, 139.487 360.262, 139.716 358.750 C 139.945 357.238, 139.945 354.762, 139.716 353.250 C 139.487 351.738, 139.300 352.975, 139.300 356" stroke="none" fill="#f5f8fa" fill-rule="evenodd"/></svg>