<svg xmlns="http://www.w3.org/2000/svg" width="600" height="600" viewBox="0 0 600 600" version="1.1"><path d="M 80.657 233.088 C 80.296 239.812, 80 248.126, 80 251.563 L 80 257.811 92.250 257.284 C 103.589 256.795, 104.701 256.568, 107.202 254.237 C 109.633 251.971, 110.198 251.840, 112.835 252.932 C 114.447 253.599, 116.716 255.238, 117.876 256.573 C 119.037 257.908, 120.937 259, 122.099 259 C 125.822 259, 136.441 262.116, 138.250 263.739 C 139.470 264.834, 140 266.811, 140 270.261 C 140 274.082, 140.570 275.889, 142.500 278.182 C 143.875 279.816, 145 281.794, 145 282.577 C 145 283.428, 143.996 284, 142.500 284 C 140.527 284, 140 284.507, 140 286.402 C 140 288.166, 139.212 289.079, 137.036 289.838 L 134.071 290.871 133.747 301.186 L 133.422 311.500 133.211 301.183 C 133.020 291.867, 132.830 290.918, 131.250 291.411 C 120.327 294.815, 88.442 294.795, 76.750 291.377 C 75.232 290.933, 75 291.602, 75 296.433 C 75 302.373, 74.523 302.783, 69.250 301.370 C 67.246 300.833, 67 300.135, 67 294.990 C 67 290.910, 66.581 289.053, 65.573 288.666 C 63.412 287.837, 62.848 296.692, 63.196 325.972 L 63.500 351.445 72.399 353.665 C 83.462 356.426, 101.215 358.265, 109.352 357.493 C 121.395 356.350, 132 354.783, 132.002 354.147 C 132.004 353.791, 133.401 353.450, 135.108 353.388 C 136.815 353.327, 138.607 352.652, 139.090 351.888 C 139.574 351.125, 139.976 343.169, 139.985 334.208 L 140 317.917 147.750 318.708 C 165.825 320.555, 191.985 318.450, 192.015 315.147 C 192.027 313.841, 192.209 313.781, 192.890 314.857 C 193.840 316.355, 197.961 315.548, 199.235 313.615 C 199.639 313.002, 199.976 298.686, 199.985 281.802 L 200 251.104 197.015 252.145 L 194.030 253.185 193.749 282.343 L 193.469 311.500 193.234 282.435 L 193 253.370 185.250 254.774 C 180.954 255.553, 171.037 256.186, 163 256.194 C 148.935 256.209, 146.775 255.926, 125.250 251.255 C 123.271 250.826, 123 251.166, 123 254.083 C 123 256.573, 122.715 257.115, 121.856 256.256 C 121.024 255.424, 121.002 254.343, 121.774 252.306 C 123.771 247.036, 124.088 243.799, 123.417 235.528 L 122.746 227.255 113.508 226.577 C 105.512 225.990, 92.519 223.778, 83.907 221.537 L 81.315 220.862 80.657 233.088 M 102.445 240.361 C 101.707 243.303, 102.541 246.398, 104.637 248.494 C 106.846 250.703, 107.763 250.356, 108.492 247.036 C 109.787 241.139, 103.885 234.624, 102.445 240.361 M 115.087 242.338 C 113.236 245.796, 114.029 250.500, 116.462 250.500 C 119.123 250.500, 121.486 246.072, 120.635 242.681 C 119.791 239.317, 116.802 239.132, 115.087 242.338 M 93.429 247.750 C 94.071 250.482, 98.220 255, 100.087 255 C 102.140 255, 102.106 251.908, 100.016 248.525 C 98.453 245.996, 97.123 245, 95.310 245 C 93.064 245, 92.855 245.305, 93.429 247.750 M 145.667 268.667 C 144.646 269.688, 144.874 274.896, 146.035 277.066 C 146.605 278.130, 147.955 279, 149.035 279 C 150.621 279, 151 278.312, 151 275.434 C 151 269.832, 148.136 266.197, 145.667 268.667 M 159.242 270.543 C 155.560 273.122, 155.416 281, 159.051 281 C 161.055 281, 163 277.547, 163 273.988 C 163 269.410, 162.073 268.560, 159.242 270.543 M 166.573 278.570 C 164.497 280.646, 163.488 284.888, 164.766 286.166 C 167.345 288.745, 172.159 282.463, 170.639 278.502 C 169.899 276.573, 168.547 276.596, 166.573 278.570 M 149.693 283.787 C 147.380 286.343, 144.199 293.901, 143.441 298.645 C 142.632 303.706, 144.317 304.657, 150.036 302.369 C 153.679 300.911, 154.218 300.913, 156.471 302.389 C 157.823 303.275, 159.776 304, 160.810 304 C 163.274 304, 166 300.918, 166 298.131 C 166 292.740, 157.702 282, 153.536 282 C 152.312 282, 150.582 282.804, 149.693 283.787 M 85.667 306.667 C 84.289 308.044, 85.052 313.737, 86.829 315.345 C 89.850 318.080, 91 317.350, 91 312.700 C 91 307.403, 88.152 304.181, 85.667 306.667 M 98.668 309.188 C 96.180 313.129, 95.815 315.672, 97.495 317.352 C 100.632 320.490, 103.562 316.697, 102.828 310.448 C 102.403 306.832, 100.516 306.260, 98.668 309.188 M 76.667 312.667 C 74.287 315.046, 78.688 322, 82.573 322 C 85.392 322, 85.573 321.009, 83.490 316.980 C 81.618 313.361, 78.159 311.174, 76.667 312.667 M 105.375 318.339 C 103.723 321.805, 104.007 325, 105.969 325 C 108.168 325, 111.118 320.855, 110.811 318.198 C 110.335 314.096, 107.362 314.174, 105.375 318.339 M 133.411 333 C 133.411 342.625, 133.561 346.563, 133.745 341.750 C 133.928 336.938, 133.928 329.063, 133.745 324.250 C 133.561 319.438, 133.411 323.375, 133.411 333 M 89.693 321.787 C 87.147 324.600, 83.974 332.530, 83.726 336.698 C 83.477 340.879, 82.809 340.649, 93 339.880 C 94.375 339.777, 96.940 340.301, 98.700 341.046 C 101.558 342.256, 102.118 342.203, 103.950 340.545 C 107.644 337.202, 105.789 330.099, 99.471 323.400 C 95.875 319.588, 92.228 318.986, 89.693 321.787" stroke="none" fill="#efcdff" fill-rule="evenodd"/><path d="M 100.032 174.019 C 89.830 175.451, 78.143 178.175, 76.240 179.565 C 74.672 180.711, 74.415 184.371, 73.641 216.668 C 73.086 239.848, 72.410 252.733, 71.726 253.161 C 71.145 253.525, 68.606 254.130, 66.085 254.506 C 58.380 255.656, 55.377 257.364, 54.648 261.012 C 54.291 262.793, 54 291.333, 54 324.434 C 54 371.073, 54.281 384.973, 55.250 386.195 C 56.644 387.955, 65.881 391.146, 76.500 393.536 C 87.243 395.954, 117.283 396.610, 128.414 394.670 C 134.019 393.693, 137.997 392.445, 139.130 391.308 C 140.680 389.751, 141.014 386.998, 141.528 371.500 C 142.333 347.221, 141.808 348.854, 148.247 350.620 C 152.736 351.851, 180.472 352.051, 339 351.997 C 458.603 351.957, 525.817 351.581, 528.208 350.940 C 533.450 349.534, 539.942 344.265, 543.479 338.544 L 546.500 333.657 546.500 286.078 C 546.500 239.171, 546.469 238.443, 544.330 234.447 C 541.473 229.110, 536.448 224.196, 531.500 221.900 C 527.657 220.117, 521.291 220.043, 369.725 220.022 L 211.950 220 211.016 217.541 C 210.283 215.615, 208.609 214.642, 203.290 213.054 C 194.151 210.324, 179.077 208.009, 170.404 208.004 L 163.309 208 162.665 195.296 C 162.251 187.134, 161.570 182.167, 160.760 181.402 C 155.415 176.353, 116.825 171.661, 100.032 174.019 M 95 190.679 C 80.722 193.186, 81.604 192.010, 80.879 209.510 C 80.538 217.755, 80.200 232.029, 80.129 241.231 C 80.002 257.731, 79.969 257.968, 77.750 258.424 C 66.009 260.833, 64.846 261.276, 63.931 263.681 C 63.399 265.082, 63 288.992, 63 319.542 L 63 372.954 65.357 374.498 C 66.653 375.348, 72.166 377.204, 77.607 378.624 C 95.216 383.219, 131.297 382.927, 137.001 378.144 C 138.755 376.673, 139.032 374.678, 139.637 359.156 L 140.313 341.813 143.390 342.428 C 157.371 345.224, 174.969 345.388, 189.767 342.860 C 196.209 341.759, 199 339.618, 199 335.777 C 199 334.090, 202.880 334, 276 334 L 353 334 353 286 L 353 238 276.500 238 L 200 238 200 232.691 C 200 229.771, 199.438 226.634, 198.750 225.719 C 196.880 223.231, 182 219.998, 169.250 219.310 L 158 218.703 158 208.786 C 158 203.331, 157.542 198.013, 156.983 196.968 C 153.655 190.749, 116.227 186.951, 95 190.679 M 111.607 214.582 C 110.579 217.262, 110.930 219, 112.500 219 C 113.500 219, 114 218, 114 216 C 114 212.794, 112.609 211.970, 111.607 214.582 M 128.963 240.598 C 127.538 244.345, 128.113 247.406, 130.320 247.827 C 132.604 248.262, 140 243.463, 140 241.545 C 140 239.704, 139.375 239.375, 134.258 238.529 C 130.269 237.869, 129.953 237.992, 128.963 240.598 M 102.528 239.954 C 101.812 241.114, 102.903 246.027, 104.260 247.750 C 104.802 248.438, 105.865 249, 106.622 249 C 108.371 249, 108.514 241.914, 106.800 240.200 C 105.358 238.758, 103.339 238.642, 102.528 239.954 M 115.559 242.887 C 113.593 246.688, 113.578 248.901, 115.513 249.643 C 118.076 250.627, 120.130 248.002, 119.801 244.163 C 119.412 239.632, 117.534 239.067, 115.559 242.887 M 94 247.326 C 94 249.981, 97.802 254, 100.314 254 C 102.684 254, 102.413 252.231, 99.449 248.344 C 96.465 244.432, 94 243.971, 94 247.326 M 107 255 C 106.018 256.835, 106.241 257.001, 109.715 257.014 C 111.797 257.021, 114.625 257.313, 116 257.662 L 118.500 258.296 116.076 255.648 C 113.106 252.405, 108.563 252.080, 107 255 M 146.119 269.356 C 144.562 271.233, 145.440 276.290, 147.640 278.117 C 150.898 280.820, 152.260 273.777, 149.208 270.008 C 147.606 268.031, 147.277 267.961, 146.119 269.356 M 158.593 272.170 C 156.265 275.494, 156.479 280, 158.965 280 C 161.387 280, 163.228 276.783, 162.812 273.278 C 162.401 269.823, 160.574 269.343, 158.593 272.170 M 67.469 286.578 C 66.636 297.677, 67.556 301, 71.460 301 C 74.219 301, 74.788 299.644, 75.236 292 C 75.486 287.741, 75.647 287.515, 78.250 287.788 C 80.769 288.052, 81 287.789, 81 284.660 C 81 282.782, 80.438 280.819, 79.750 280.298 C 78.457 279.317, 71.062 277, 69.227 277 C 68.629 277, 67.882 281.070, 67.469 286.578 M 141 280.309 C 141 282.923, 141.438 284, 142.500 284 C 144.401 284, 144.384 281.091, 142.468 278.559 C 141.092 276.739, 141 276.849, 141 280.309 M 166.627 279.250 C 165.847 280.488, 164.906 282.512, 164.537 283.750 C 164.009 285.520, 164.264 286, 165.733 286 C 168.507 286, 170 284.006, 170 280.300 C 170 276.467, 168.648 276.046, 166.627 279.250 M 150.299 284.250 C 147.492 287.332, 145.947 290.515, 144.386 296.434 C 142.709 302.789, 143.532 303.671, 149.564 301.982 C 153.704 300.823, 154.611 300.874, 157.505 302.433 C 164.622 306.266, 167.594 299.103, 162.496 290.403 C 160.143 286.387, 155.326 282, 153.270 282 C 152.763 282, 151.426 283.012, 150.299 284.250 M 85.523 307.927 C 84.720 310.456, 87.596 317.299, 89.236 316.761 C 92.124 315.812, 90.625 306, 87.592 306 C 86.791 306, 85.860 306.867, 85.523 307.927 M 98.241 309.986 C 96.533 312.720, 96.683 316.941, 98.513 317.643 C 101.008 318.601, 103 316.041, 103 311.878 C 103 308.843, 102.617 308, 101.241 308 C 100.273 308, 98.923 308.894, 98.241 309.986 M 76 314.507 C 76 316.302, 81.220 322, 82.864 322 C 84.957 322, 84.897 320.143, 82.699 316.873 C 80.227 313.196, 76 311.704, 76 314.507 M 107.750 316.240 C 105.154 318.211, 103.689 322.943, 105.463 323.624 C 107.423 324.376, 108.940 323.289, 110.067 320.324 C 111.363 316.915, 110.007 314.526, 107.750 316.240 M 90.131 322.360 C 87.379 325.290, 84 333.979, 84 338.127 C 84 341.013, 84.195 341.185, 86.750 340.556 C 93.429 338.911, 94.897 338.895, 97.877 340.436 C 104.319 343.767, 107.756 338.259, 104.034 330.570 C 101.806 325.968, 95.937 320, 93.640 320 C 92.930 320, 91.351 321.062, 90.131 322.360" stroke="none" fill="#ffffff" fill-rule="evenodd"/><path d="M 119.750 202.706 C 120.987 202.944, 123.013 202.944, 124.250 202.706 C 125.487 202.467, 124.475 202.272, 122 202.272 C 119.525 202.272, 118.513 202.467, 119.750 202.706 M 148.189 225.619 C 149.117 225.896, 150.091 227.108, 150.352 228.311 C 150.751 230.146, 150.801 230.097, 150.664 228.010 C 150.553 226.320, 149.858 225.455, 148.500 225.318 C 147.061 225.172, 146.973 225.256, 148.189 225.619 M 123.300 232 C 123.300 235.025, 123.487 236.262, 123.716 234.750 C 123.945 233.238, 123.945 230.762, 123.716 229.250 C 123.487 227.738, 123.300 228.975, 123.300 232 M 193.420 276.500 C 193.419 287.500, 193.565 292.136, 193.745 286.803 C 193.924 281.470, 193.925 272.470, 193.746 266.803 C 193.568 261.136, 193.421 265.500, 193.420 276.500 M 102.750 262.706 C 103.987 262.944, 106.013 262.944, 107.250 262.706 C 108.487 262.467, 107.475 262.272, 105 262.272 C 102.525 262.272, 101.513 262.467, 102.750 262.706 M 111 264.195 C 109.625 264.783, 107.037 265.263, 105.250 265.262 C 103.463 265.260, 102 265.591, 102 265.997 C 102 266.403, 103.787 266.634, 105.970 266.511 C 108.154 266.388, 109.702 266.672, 109.411 267.144 C 109.120 267.615, 108.121 268.007, 107.191 268.015 C 106.261 268.024, 104.825 268.482, 104 269.034 C 102.908 269.765, 103.792 269.982, 107.250 269.832 C 109.862 269.719, 112 269.260, 112 268.813 C 112 268.366, 111.625 268, 111.167 268 C 110.708 268, 110.333 267.325, 110.333 266.500 C 110.333 265.675, 110.907 265, 111.608 265 C 112.309 265, 113.160 264.550, 113.500 264 C 114.230 262.819, 114.217 262.820, 111 264.195 M 133.252 288.500 C 133.263 290.700, 133.468 291.482, 133.707 290.238 C 133.946 288.994, 133.937 287.194, 133.687 286.238 C 133.437 285.282, 133.241 286.300, 133.252 288.500 M 133.328 304.500 C 133.333 308.350, 133.513 309.802, 133.730 307.728 C 133.946 305.653, 133.943 302.503, 133.722 300.728 C 133.501 298.952, 133.324 300.650, 133.328 304.500 M 193.252 307.500 C 193.263 309.700, 193.468 310.482, 193.707 309.238 C 193.946 307.994, 193.937 306.194, 193.687 305.238 C 193.437 304.282, 193.241 305.300, 193.252 307.500 M 133.355 324.500 C 133.352 329.450, 133.521 331.601, 133.731 329.280 C 133.940 326.959, 133.943 322.909, 133.736 320.280 C 133.530 317.651, 133.358 319.550, 133.355 324.500 M 133.349 342 C 133.349 346.675, 133.522 348.587, 133.732 346.250 C 133.943 343.913, 133.943 340.087, 133.732 337.750 C 133.522 335.413, 133.349 337.325, 133.349 342 M 132.252 359.500 C 132.263 361.700, 132.468 362.482, 132.707 361.238 C 132.946 359.994, 132.937 358.194, 132.687 357.238 C 132.437 356.282, 132.241 357.300, 132.252 359.500" stroke="none" fill="#d1dadc" fill-rule="evenodd"/><path d="M 116 195.800 C 116 196.240, 116.488 197.088, 117.084 197.684 C 117.863 198.463, 117.519 199.223, 115.862 200.384 C 113.647 201.936, 113.842 202, 120.777 202 C 125.881 202, 128.004 201.633, 128.015 200.750 C 128.027 199.782, 128.205 199.774, 128.801 200.712 C 129.917 202.469, 134 201.110, 134 198.981 C 134 197.878, 132.797 196.776, 130.851 196.098 C 127.223 194.833, 116 194.608, 116 195.800 M 158.800 226.200 C 160.656 228.056, 160.226 229.980, 157.750 230.904 C 156.208 231.479, 158.224 231.791, 164.154 231.897 C 170.709 232.013, 173.175 231.682, 174.323 230.534 C 175.468 229.390, 175.962 229.322, 176.341 230.259 C 176.645 231.012, 176.873 230.834, 176.921 229.807 C 177.069 226.634, 173.043 225, 165.077 225 C 159.262 225, 157.867 225.267, 158.800 226.200 M 200 275.344 C 200 295.334, 199.707 316.484, 199.348 322.344 L 198.696 333 275.348 333 L 352 333 352 286 L 352 239 276 239 L 200 239 200 275.344 M 98.510 264.016 C 98.856 264.575, 99.557 264.774, 100.069 264.457 C 102.093 263.207, 100.857 266.858, 98.750 268.355 C 96.532 269.931, 96.550 269.949, 100 269.553 C 101.925 269.332, 104.848 268.748, 106.495 268.255 C 108.377 267.692, 110.509 267.743, 112.231 268.393 C 114.276 269.165, 115.293 269.101, 116.236 268.143 C 117.257 267.105, 117.047 266.488, 115.139 264.929 C 113.277 263.408, 111.205 263, 105.330 263 C 100.540 263, 98.106 263.363, 98.510 264.016 M 109.641 264.771 C 109.379 265.195, 107.553 265.467, 105.582 265.374 C 103.612 265.281, 102 265.516, 102 265.895 C 102 266.274, 103.990 266.579, 106.423 266.572 C 108.856 266.566, 110.650 266.243, 110.411 265.856 C 110.171 265.468, 110.769 264.945, 111.738 264.692 C 113.313 264.281, 113.321 264.220, 111.809 264.116 C 110.879 264.052, 109.904 264.347, 109.641 264.771 M 193.272 300 C 193.272 302.475, 193.467 303.488, 193.706 302.250 C 193.944 301.012, 193.944 298.988, 193.706 297.750 C 193.467 296.512, 193.272 297.525, 193.272 300" stroke="none" fill="#ced5d5" fill-rule="evenodd"/><path d="M 106 190.050 C 93.672 191.225, 83.811 193.539, 82.294 195.612 C 81.409 196.822, 81 201.091, 81 209.108 L 81 220.833 89.750 222.871 C 99.438 225.126, 113.088 227, 119.830 227 L 124.213 227 123.857 238.750 L 123.500 250.500 132.500 252.763 C 145.402 256.007, 161.151 257.196, 174.500 255.933 C 191.520 254.323, 192.389 254.044, 193.118 249.962 L 193.737 246.500 193.868 249.750 C 194.016 253.407, 193.935 253.355, 197.435 252.025 C 199.797 251.127, 200 250.572, 200 245.025 L 200 239 276 239 L 352 239 352 286 L 352 333 275.381 333 L 198.761 333 199.170 323.661 L 199.578 314.323 195.070 315.679 C 182.284 319.527, 161.139 320.622, 144.250 318.310 L 140 317.728 140 329.285 L 140 340.841 142.750 341.417 C 155.575 344.102, 171.871 344.687, 184.678 342.922 C 194.666 341.546, 197.411 340.256, 197.816 336.749 L 198.132 334.012 275.316 333.756 L 352.500 333.500 352.760 285.750 L 353.019 238 276.634 238 L 200.248 238 199.789 232.465 C 199.536 229.420, 198.902 226.502, 198.379 225.979 C 196.556 224.156, 181.413 220.936, 169.250 219.786 L 157 218.627 157 207.936 C 157 200.280, 156.624 196.933, 155.675 196.145 C 153.859 194.638, 138.925 191.230, 131 190.514 C 117.822 189.323, 114.319 189.258, 106 190.050 M 115.250 196.080 C 117.675 197.492, 117.439 199.902, 114.780 200.886 C 112.915 201.576, 113.314 201.820, 117.280 202.415 C 122.228 203.157, 130.297 202.368, 133.213 200.857 C 135.406 199.721, 134.586 197.588, 131.398 196.135 C 128.163 194.661, 112.723 194.608, 115.250 196.080 M 85.607 206.727 C 85.273 207.060, 85 208.745, 85 210.470 C 85 213.468, 85.299 213.699, 91.750 215.710 C 101.834 218.854, 105.504 219.303, 106.944 217.567 C 109.116 214.950, 107.764 212.644, 103.543 211.767 C 101.372 211.316, 96.585 209.861, 92.905 208.534 C 89.224 207.206, 85.940 206.393, 85.607 206.727 M 115.728 207.722 C 117.503 207.943, 120.653 207.946, 122.728 207.730 C 124.802 207.513, 123.350 207.333, 119.500 207.328 C 115.650 207.324, 113.952 207.501, 115.728 207.722 M 86.180 210.163 C 86.431 211.857, 88.002 212.830, 93.445 214.663 C 101.611 217.411, 106 217.693, 106 215.469 C 106 214.626, 105.438 213.775, 104.750 213.577 C 104.063 213.379, 99.892 212.043, 95.482 210.608 C 85.794 207.457, 85.781 207.456, 86.180 210.163 M 111.598 212.736 C 111.269 213.064, 111 214.866, 111 216.740 C 111 219.444, 111.361 220.078, 112.750 219.815 C 115.016 219.386, 115.761 213.506, 113.652 212.697 C 112.851 212.389, 111.927 212.407, 111.598 212.736 M 117.034 214.421 C 115.640 218.073, 116.042 220.384, 118.141 220.789 C 120.240 221.193, 121.172 215.615, 119.407 213.212 C 118.268 211.662, 118.044 211.776, 117.034 214.421 M 159.661 224.689 C 157.043 225.114, 156.962 225.252, 158.624 226.467 C 160.119 227.560, 160.206 228.046, 159.140 229.332 C 158.433 230.183, 156.875 231.071, 155.677 231.304 C 154.480 231.537, 157.775 231.783, 163 231.850 C 174.141 231.994, 177 231.413, 177 229.005 C 177 226.031, 166.889 223.514, 159.661 224.689 M 148.343 225.649 C 149.571 226.004, 150.019 226.819, 149.686 228.091 C 149.412 229.141, 149.626 230, 150.163 230 C 152.106 230, 150.515 225.522, 148.500 225.318 C 146.771 225.142, 146.750 225.187, 148.343 225.649 M 129.040 238.925 C 127.688 241.451, 127.699 247.696, 129.057 248.535 C 130.836 249.635, 134.606 248.170, 137.888 245.105 C 141.400 241.824, 141.208 239.276, 137.390 238.491 C 136.075 238.221, 133.893 237.771, 132.540 237.491 C 130.784 237.128, 129.782 237.538, 129.040 238.925 M 79.183 258.553 C 68.417 260.519, 65.081 261.827, 64.459 264.328 C 63.392 268.616, 64.433 288.315, 65.750 288.752 C 66.644 289.049, 67.004 287.649, 67.015 283.833 C 67.038 275.856, 67.632 275.377, 74.619 277.706 C 79.647 279.382, 80.597 280.100, 81.374 282.808 C 82.508 286.763, 80.976 288.909, 77.494 288.244 C 74.556 287.682, 73.878 290.537, 76.750 291.377 C 85.946 294.065, 109.162 294.868, 122.500 292.958 C 132.790 291.485, 132.840 291.456, 133.270 286.700 L 133.651 282.500 133.825 286.698 L 134 290.896 137 289.850 L 140 288.804 140 277.057 C 140 263.340, 139.812 263.016, 130.500 260.635 C 116.053 256.941, 93.107 256.010, 79.183 258.553 M 99 262.837 C 96.875 263.479, 96.763 263.693, 98.250 264.265 C 101.084 265.354, 100.268 267.865, 96.750 268.881 C 94.136 269.636, 95.262 269.818, 102.500 269.810 C 107.450 269.805, 112.623 269.488, 113.995 269.106 C 117.142 268.231, 117.749 265.471, 115.106 264.057 C 112.478 262.650, 102.196 261.871, 99 262.837 M 85.667 280.667 C 84.630 281.703, 84.882 288.809, 85.979 289.487 C 87.896 290.672, 91 288, 91 285.165 C 91 281.251, 87.790 278.543, 85.667 280.667 M 86.667 281.667 C 85.384 282.950, 85.963 288, 87.393 288 C 89.338 288, 90.194 285.231, 88.961 282.928 C 87.822 280.799, 87.636 280.697, 86.667 281.667 M 63.821 361.196 C 63.644 366.254, 63.950 371.276, 64.500 372.357 C 65.644 374.605, 72.249 377.052, 84.214 379.660 C 99.511 382.994, 133.539 381.670, 136.909 377.609 C 138.027 376.262, 139.733 353, 138.714 353 C 138.390 353, 135.284 353.657, 131.812 354.461 C 114.119 358.555, 91.417 358.357, 73.613 353.952 C 69.275 352.878, 65.369 352, 64.934 352 C 64.498 352, 63.998 356.138, 63.821 361.196 M 132.252 359.500 C 132.263 361.700, 132.468 362.482, 132.707 361.238 C 132.946 359.994, 132.937 358.194, 132.687 357.238 C 132.437 356.282, 132.241 357.300, 132.252 359.500" stroke="none" fill="#d1dcdf" fill-rule="evenodd"/><path d="M 105.768 189.725 C 107.565 189.947, 110.265 189.943, 111.768 189.715 C 113.271 189.486, 111.800 189.304, 108.500 189.310 C 105.200 189.315, 103.971 189.502, 105.768 189.725 M 121.768 189.725 C 123.565 189.947, 126.265 189.943, 127.768 189.715 C 129.271 189.486, 127.800 189.304, 124.500 189.310 C 121.200 189.315, 119.971 189.502, 121.768 189.725 M 157.374 208.500 C 157.376 214.550, 157.541 216.896, 157.740 213.713 C 157.939 210.531, 157.937 205.581, 157.736 202.713 C 157.535 199.846, 157.372 202.450, 157.374 208.500 M 85.607 206.727 C 85.273 207.060, 85 208.745, 85 210.470 C 85 213.468, 85.299 213.699, 91.750 215.710 C 101.834 218.854, 105.504 219.303, 106.944 217.567 C 109.116 214.950, 107.764 212.644, 103.543 211.767 C 101.372 211.316, 96.585 209.861, 92.905 208.534 C 89.224 207.206, 85.940 206.393, 85.607 206.727 M 86.180 210.163 C 86.431 211.857, 88.002 212.830, 93.445 214.663 C 101.611 217.411, 106 217.693, 106 215.469 C 106 214.626, 105.438 213.775, 104.750 213.577 C 104.063 213.379, 99.892 212.043, 95.482 210.608 C 85.794 207.457, 85.781 207.456, 86.180 210.163 M 117.034 214.421 C 115.640 218.073, 116.042 220.384, 118.141 220.789 C 120.240 221.193, 121.172 215.615, 119.407 213.212 C 118.268 211.662, 118.044 211.776, 117.034 214.421 M 114.136 215.677 C 114.046 217.785, 113.412 219.007, 112.250 219.311 C 110.610 219.739, 110.612 219.775, 112.281 219.884 C 114.385 220.021, 115.331 218.054, 114.715 214.823 C 114.370 213.013, 114.242 213.202, 114.136 215.677 M 168.750 219.706 C 169.988 219.944, 172.012 219.944, 173.250 219.706 C 174.488 219.467, 173.475 219.272, 171 219.272 C 168.525 219.272, 167.512 219.467, 168.750 219.706 M 80.349 229 C 80.349 233.675, 80.522 235.588, 80.732 233.250 C 80.943 230.912, 80.943 227.088, 80.732 224.750 C 80.522 222.412, 80.349 224.325, 80.349 229 M 192 223.211 C 192.275 223.482, 194.065 224.232, 195.977 224.879 C 197.890 225.525, 199.015 225.624, 198.477 225.098 C 197.940 224.572, 196.150 223.821, 194.500 223.430 C 192.850 223.039, 191.725 222.940, 192 223.211 M 136 245.597 C 133.860 247.126, 131.596 247.932, 130.174 247.673 C 128.620 247.389, 128.181 247.581, 128.851 248.251 C 130.250 249.650, 133.952 248.497, 137.500 245.557 C 141.364 242.356, 140.507 242.379, 136 245.597 M 63.400 279.500 C 63.401 287.750, 63.556 290.992, 63.744 286.704 C 63.932 282.417, 63.931 275.667, 63.742 271.704 C 63.552 267.742, 63.399 271.250, 63.400 279.500 M 140.272 280 C 140.272 282.475, 140.467 283.488, 140.706 282.250 C 140.944 281.012, 140.944 278.988, 140.706 277.750 C 140.467 276.512, 140.272 277.525, 140.272 280 M 67.272 282 C 67.272 284.475, 67.467 285.488, 67.706 284.250 C 67.944 283.012, 67.944 280.988, 67.706 279.750 C 67.467 278.512, 67.272 279.525, 67.272 282 M 85.667 280.667 C 84.630 281.703, 84.882 288.809, 85.979 289.487 C 86.518 289.820, 87.868 289.606, 88.979 289.011 C 91.404 287.713, 91.720 282.843, 89.500 281 C 87.766 279.561, 87.571 280.330, 88.996 282.993 C 90.232 285.303, 89.297 288, 87.261 288 C 86.060 288, 85.850 287.152, 86.273 284 C 86.830 279.846, 86.777 279.556, 85.667 280.667 M 74 299.930 C 74 300.442, 72.987 301.056, 71.750 301.294 C 69.821 301.666, 69.892 301.747, 72.250 301.864 C 74.088 301.955, 75 301.503, 75 300.500 C 75 299.675, 74.775 299, 74.500 299 C 74.225 299, 74 299.419, 74 299.930 M 151.762 343.707 C 153.006 343.946, 154.806 343.937, 155.762 343.687 C 156.718 343.437, 155.700 343.241, 153.500 343.252 C 151.300 343.263, 150.518 343.468, 151.762 343.707 M 163.750 344.732 C 166.088 344.943, 169.912 344.943, 172.250 344.732 C 174.588 344.522, 172.675 344.349, 168 344.349 C 163.325 344.349, 161.412 344.522, 163.750 344.732 M 63.360 360 C 63.360 365.225, 63.529 367.363, 63.735 364.750 C 63.941 362.137, 63.941 357.863, 63.735 355.250 C 63.529 352.637, 63.360 354.775, 63.360 360 M 139.320 357 C 139.320 360.575, 139.502 362.038, 139.723 360.250 C 139.945 358.462, 139.945 355.538, 139.723 353.750 C 139.502 351.962, 139.320 353.425, 139.320 357 M 138.175 372.050 C 138.079 374.553, 137.441 377.252, 136.757 378.050 C 136.038 378.889, 136.276 378.826, 137.322 377.899 C 138.690 376.688, 139.035 375.229, 138.740 371.899 L 138.349 367.500 138.175 372.050" stroke="none" fill="#fbfbfb" fill-rule="evenodd"/></svg>