<svg xmlns="http://www.w3.org/2000/svg" width="600" height="600" viewBox="0 0 600 600" version="1.1"><path d="M 105 189.611 C 96.699 190.638, 85.324 193.249, 83.220 194.610 C 81.023 196.032, 80.949 196.536, 81.220 208.267 L 81.500 220.448 91 222.784 C 96.225 224.069, 105.352 225.382, 111.283 225.703 C 121.244 226.242, 122.235 226.129, 124.283 224.220 C 126.550 222.107, 139.840 219, 146.610 219 C 149.832 219, 150.008 218.814, 150.160 215.250 C 150.318 211.558, 150.326 211.550, 150.723 214.750 C 151.022 217.159, 151.628 218, 153.063 218 C 154.129 218, 155 218.352, 155 218.783 C 155 219.214, 150.362 220.117, 144.694 220.790 C 130.386 222.490, 125.746 223.952, 124.887 227.033 C 124.509 228.390, 124.155 234.100, 124.100 239.721 L 124 249.942 130.750 251.950 C 134.463 253.054, 140.425 254.413, 144 254.971 C 152.332 256.271, 173.600 256.278, 182 254.983 C 193.868 253.155, 193.101 253.709, 192.369 247.479 C 191.921 243.674, 192.072 242, 192.862 242 C 193.561 242, 194 243.930, 194 247 C 194 251.101, 194.315 251.997, 195.750 251.985 C 199.530 251.952, 199.884 250.778, 199.670 238.979 C 199.555 232.665, 199.124 226.967, 198.712 226.316 C 197.065 223.711, 173.680 219.019, 162.283 219.006 L 157.066 219 156.783 207.761 L 156.500 196.523 153.664 195.166 C 145.970 191.483, 116.793 188.153, 105 189.611 M 102.203 193.197 C 100.736 194.664, 100.643 198.464, 102.011 201.021 C 102.908 202.697, 104.288 202.914, 114.261 202.949 C 133.349 203.016, 137.932 201.488, 133.112 196.667 C 131.244 194.798, 129.715 194.478, 122.013 194.338 C 113.971 194.193, 109.557 193.697, 104.953 192.422 C 104.102 192.187, 102.865 192.535, 102.203 193.197 M 102.428 195.328 C 102.148 196.058, 102.397 197.914, 102.982 199.453 C 104.012 202.163, 104.211 202.230, 109.248 201.561 C 118.019 200.398, 119.060 196.962, 111.122 195.374 C 107.980 194.746, 107.816 194.846, 108.493 196.977 C 109.222 199.276, 107.866 200.953, 105.250 200.985 C 103.236 201.009, 103.695 195.226, 105.750 194.689 C 107.049 194.350, 106.912 194.202, 105.219 194.116 C 103.964 194.052, 102.708 194.597, 102.428 195.328 M 85 199.720 C 85 200.938, 98.747 205.592, 106.797 207.100 C 118.588 209.308, 138.164 207.172, 149.481 202.443 C 155.928 199.750, 152.517 199.720, 145.074 202.405 C 126.934 208.949, 105.720 207.913, 86.750 199.557 C 85.782 199.131, 85 199.204, 85 199.720 M 85.187 210.164 C 85.478 213.103, 85.976 213.488, 92.208 215.584 C 100.395 218.338, 107 219.047, 107 217.173 C 107 216.718, 105.683 216.540, 104.074 216.776 C 102.464 217.012, 97.739 216.194, 93.574 214.957 C 86.833 212.956, 86 212.441, 86 210.275 C 86 208.064, 86.298 207.900, 89.250 208.481 C 91.667 208.957, 92.116 208.854, 91 208.076 C 90.175 207.501, 88.459 207.024, 87.187 207.015 C 85.188 207.002, 84.916 207.430, 85.187 210.164 M 94 209.831 C 95.931 211.095, 107.574 214.146, 106.392 213.078 C 105.901 212.635, 103.420 211.769, 100.879 211.154 C 98.337 210.539, 95.412 209.769, 94.379 209.443 C 92.880 208.969, 92.804 209.048, 94 209.831 M 117.712 212.663 C 117.429 213.123, 117.041 215.075, 116.849 217 C 116.590 219.600, 116.886 220.500, 118 220.500 C 118.973 220.500, 119.613 219.315, 119.823 217.123 C 120.135 213.858, 118.761 210.954, 117.712 212.663 M 111 216.500 C 111 220.643, 113.607 221.413, 114.575 217.557 C 115.288 214.716, 114.484 213, 112.441 213 C 111.461 213, 111 214.119, 111 216.500 M 144.667 222.667 C 143.484 223.849, 143.959 230.721, 145.300 231.834 C 147.089 233.318, 172.787 232.720, 175.768 231.124 C 177.642 230.121, 177.843 229.575, 176.952 227.910 C 175.381 224.974, 171.635 223.919, 163.091 224.005 C 158.916 224.047, 153.700 223.624, 151.500 223.065 C 146.728 221.852, 145.550 221.783, 144.667 222.667 M 149.750 225.071 C 152.506 228.002, 151.124 230.517, 147 230.077 C 145.667 229.934, 145.667 230.031, 147 230.942 C 148.356 231.869, 152.597 231.622, 157.250 230.345 C 158.213 230.081, 159 229.209, 159 228.408 C 159 226.957, 156.360 225.592, 151.206 224.379 C 148.982 223.855, 148.723 223.978, 149.750 225.071 M 129 230.419 C 138.407 236.231, 160.065 239.408, 174.694 237.123 C 181.677 236.032, 196.525 231.192, 195.631 230.297 C 195.387 230.053, 191.433 231.114, 186.844 232.654 C 179.019 235.281, 177.474 235.453, 162 235.417 C 146.592 235.381, 145.004 235.198, 138 232.654 C 127.789 228.946, 125.826 228.458, 129 230.419 M 128.954 239.086 C 127.390 242.008, 127.789 247.982, 129.594 248.674 C 131.898 249.559, 138.340 245.576, 139.436 242.589 C 140.621 239.362, 140.060 238.844, 134.464 237.994 C 130.673 237.419, 129.748 237.602, 128.954 239.086 M 85 257.612 C 78.495 258.408, 66.508 261.211, 65.250 262.231 C 64.373 262.942, 64 266.906, 64 275.515 C 64 285.500, 64.279 287.893, 65.500 288.362 C 66.675 288.813, 67 288.093, 67 285.034 C 67 282.887, 67.424 280.014, 67.943 278.651 L 68.885 276.171 74.693 277.890 C 80.482 279.603, 80.501 279.621, 80.807 283.804 C 81.107 287.884, 81.031 288, 78.057 288 C 76.117 288, 75 288.507, 75 289.387 C 75 293.142, 111.456 295.091, 126.250 292.126 L 133 290.774 133.185 285.137 L 133.370 279.500 133.741 284.852 C 134.084 289.802, 134.276 290.160, 136.306 289.616 C 137.513 289.292, 138.899 289.021, 139.387 289.014 C 140.563 288.996, 139.559 265.159, 138.331 263.931 C 137.809 263.409, 132.908 261.826, 127.441 260.413 C 119.521 258.366, 114.553 257.777, 103 257.514 C 95.025 257.332, 86.925 257.376, 85 257.612 M 84.667 260.667 C 83.506 261.827, 83.947 268.712, 85.250 269.770 C 85.938 270.329, 90.775 270.809, 96 270.839 C 112.785 270.933, 118.893 269.492, 117.466 265.772 C 116.511 263.282, 111.141 261.906, 102.862 262.028 C 98.813 262.088, 93.928 261.656, 92.007 261.069 C 87.996 259.842, 85.622 259.712, 84.667 260.667 M 90.260 263.403 C 92.456 265.599, 92.454 266.636, 90.250 267.920 C 88.795 268.767, 89.037 268.944, 91.685 268.970 C 95.869 269.010, 100.295 267.286, 99.463 265.940 C 98.766 264.812, 95.654 263.453, 91.216 262.339 C 88.654 261.696, 88.606 261.749, 90.260 263.403 M 71.902 269.629 C 83.166 274.770, 99.292 276.940, 112.500 275.092 C 121.576 273.823, 136 269.354, 136 267.811 C 136 267.222, 135.255 267.098, 134.250 267.519 C 115.312 275.455, 90.942 276.048, 74.440 268.974 C 67.772 266.116, 65.492 266.704, 71.902 269.629 M 85.667 280.667 C 85.300 281.033, 85 283.058, 85 285.167 C 85 288.581, 85.271 289, 87.481 289 C 89.268 289, 90.131 288.327, 90.566 286.593 C 91.588 282.522, 88.069 278.265, 85.667 280.667 M 86.658 281.675 C 86.296 282.037, 86 283.641, 86 285.240 C 86 287.469, 86.408 288.069, 87.750 287.813 C 89.940 287.396, 90.564 283.713, 88.706 282.171 C 87.942 281.537, 87.020 281.313, 86.658 281.675 M 196.352 315.806 C 193.745 316.178, 193.032 318.517, 193.014 326.750 C 193.005 330.718, 192.588 333, 191.871 333 C 191.067 333, 190.945 330.669, 191.448 324.904 L 192.154 316.807 189.327 317.384 C 176.334 320.037, 158.563 320.737, 147 319.053 C 143.975 318.612, 141.428 318.307, 141.340 318.376 C 141.252 318.444, 141.040 322.550, 140.868 327.500 L 140.556 336.500 147.528 337.749 C 156.471 339.352, 181.441 339.347, 190.500 337.741 L 197.500 336.500 198.260 328.500 C 199.314 317.402, 199.017 315.426, 196.352 315.806 M 140 339.373 C 140 341.036, 140.769 341.301, 150.434 342.973 C 163.278 345.196, 194.110 343.290, 197.324 340.076 C 199.108 338.292, 197.444 337.887, 192.882 338.994 C 181.941 341.649, 154.588 341.287, 142.250 338.324 C 140.634 337.935, 140 338.231, 140 339.373 M 63.198 359.859 C 63.457 364.338, 63.958 368.292, 64.311 368.645 C 65.644 369.978, 81.887 374.164, 91.500 375.652 C 102.509 377.356, 122.121 377.008, 132.165 374.930 C 138.824 373.552, 138.967 373.265, 138.986 361.183 C 139 353.016, 138.959 352.878, 136.750 353.557 C 133.671 354.503, 133.884 353.930, 133.268 362.923 C 132.963 367.365, 132.318 371, 131.834 371 C 131.343 371, 131.254 367.397, 131.632 362.860 L 132.311 354.719 128.905 355.333 C 107.127 359.260, 91.574 358.515, 65.113 352.277 L 62.727 351.715 63.198 359.859 M 64 371.977 C 64 373.765, 68.415 375.855, 76.500 377.892 C 89.986 381.291, 100.378 382.330, 114.435 381.683 C 129.141 381.006, 137.318 379.330, 137.783 376.898 C 138.060 375.450, 137.437 375.426, 131.295 376.643 C 115.707 379.732, 87.885 378.042, 71.915 373.037 C 64.534 370.723, 64 370.652, 64 371.977" stroke="none" fill="#d8eaf7" fill-rule="evenodd"/><path d="M 101.607 194.582 C 101.273 195.452, 101.032 196.689, 101.070 197.332 C 101.109 197.974, 101.491 197.600, 101.920 196.500 C 102.348 195.400, 104.004 194.216, 105.599 193.868 L 108.500 193.237 105.357 193.118 C 103.332 193.042, 101.998 193.563, 101.607 194.582 M 116.500 194.914 C 113.011 195.479, 112.788 195.662, 114.750 196.348 C 117.310 197.243, 117.748 199.776, 115.491 200.642 C 114.662 200.960, 111.624 201.563, 108.741 201.982 C 105.160 202.502, 107.995 202.680, 117.691 202.543 C 127.468 202.404, 132.361 201.945, 133.420 201.066 C 135.809 199.084, 133.649 196.196, 129.238 195.476 C 122.304 194.343, 120.513 194.264, 116.500 194.914 M 104 197.441 C 104 200.591, 105.803 201.683, 107.600 199.622 C 108.374 198.734, 108.466 198.456, 107.804 199.004 C 105.928 200.556, 105 200.189, 105 197.893 C 105 196.400, 105.452 195.959, 106.552 196.382 C 107.442 196.723, 107.843 196.555, 107.493 195.989 C 106.287 194.038, 104 194.989, 104 197.441 M 145.500 202.642 C 142.200 203.968, 140.850 204.782, 142.500 204.450 C 145.607 203.825, 154.267 200.144, 152.500 200.200 C 151.950 200.217, 148.800 201.316, 145.500 202.642 M 98.500 205 C 99.600 205.473, 101.400 205.846, 102.500 205.830 C 104.108 205.806, 104.010 205.644, 102 205 C 98.581 203.905, 95.952 203.905, 98.500 205 M 132 206 C 128.608 206.714, 128.593 206.738, 131.500 206.769 C 133.150 206.786, 135.625 206.440, 137 206 C 140.279 204.950, 136.989 204.950, 132 206 M 115.750 207.732 C 118.087 207.943, 121.912 207.943, 124.250 207.732 C 126.587 207.522, 124.675 207.349, 120 207.349 C 115.325 207.349, 113.412 207.522, 115.750 207.732 M 150.168 215.187 C 150.015 218.553, 149.718 218.908, 146.750 219.277 C 144.963 219.498, 146.200 219.691, 149.500 219.704 C 152.800 219.717, 154.513 219.536, 153.307 219.302 C 151.618 218.974, 151.024 218.027, 150.725 215.188 L 150.336 211.500 150.168 215.187 M 129.376 222.086 C 127.657 222.584, 125.632 223.781, 124.876 224.746 C 123.622 226.344, 123.659 226.375, 125.284 225.099 C 126.266 224.329, 129.416 223.129, 132.284 222.434 C 135.153 221.739, 136.375 221.172, 135 221.175 C 133.625 221.178, 131.094 221.588, 129.376 222.086 M 144.390 224.427 C 144.088 225.212, 144.009 226.900, 144.214 228.177 C 144.488 229.886, 144.721 229.509, 145.093 226.750 C 145.616 222.868, 145.339 221.952, 144.390 224.427 M 151.716 224.350 C 158.100 226, 160.478 227.719, 158.939 229.573 C 158.342 230.293, 156.649 231.066, 155.177 231.291 C 152.134 231.756, 161.573 232.461, 167 232.174 C 174.500 231.777, 177 230.981, 177 228.990 C 177 225.997, 173.263 224.697, 164.016 224.472 C 159.332 224.358, 153.475 223.981, 151 223.634 C 146.549 223.009, 146.557 223.017, 151.716 224.350 M 148.250 225.631 C 149.213 225.914, 150 226.837, 150 227.680 C 150 228.633, 149.432 228.996, 148.500 228.638 C 147.675 228.322, 147 228.499, 147 229.031 C 147 229.564, 147.931 230, 149.070 230 C 151.898 230, 151.364 225.608, 148.500 225.318 C 146.942 225.160, 146.887 225.229, 148.250 225.631 M 123.300 232 C 123.300 235.025, 123.487 236.262, 123.716 234.750 C 123.945 233.238, 123.945 230.762, 123.716 229.250 C 123.487 227.738, 123.300 228.975, 123.300 232 M 146 231.986 C 146.825 232.527, 148.588 232.976, 149.917 232.985 C 153.126 233.005, 152.313 232.436, 148 231.645 C 145.538 231.193, 144.945 231.294, 146 231.986 M 179 235 C 176.990 235.644, 176.892 235.806, 178.500 235.830 C 179.600 235.846, 181.400 235.473, 182.500 235 C 185.048 233.905, 182.419 233.905, 179 235 M 150.762 236.707 C 152.006 236.946, 153.806 236.937, 154.762 236.687 C 155.718 236.437, 154.700 236.241, 152.500 236.252 C 150.300 236.263, 149.518 236.468, 150.762 236.707 M 170.762 236.707 C 172.006 236.946, 173.806 236.937, 174.762 236.687 C 175.718 236.437, 174.700 236.241, 172.500 236.252 C 170.300 236.263, 169.518 236.468, 170.762 236.707 M 160.264 237.718 C 161.784 237.947, 164.034 237.941, 165.264 237.704 C 166.494 237.467, 165.250 237.279, 162.500 237.286 C 159.750 237.294, 158.744 237.488, 160.264 237.718 M 193.450 277 C 193.450 295.975, 193.584 303.738, 193.748 294.250 C 193.913 284.762, 193.913 269.238, 193.748 259.750 C 193.584 250.262, 193.450 258.025, 193.450 277 M 85.200 261.200 C 83.135 263.265, 83.982 270, 86.307 270 C 87.038 270, 87.003 269.603, 86.200 268.800 C 84.401 267.001, 84.740 262.251, 86.750 261.080 C 87.713 260.519, 88.028 260.047, 87.450 260.030 C 86.873 260.014, 85.860 260.540, 85.200 261.200 M 96.966 263.628 C 101.681 265.610, 100.825 267.566, 94.587 269.057 C 92.588 269.535, 95.267 269.831, 102.185 269.898 C 114.698 270.018, 118.613 269.014, 117.048 266.090 C 115.531 263.256, 110.334 261.929, 101.632 262.153 C 94.389 262.340, 94.112 262.428, 96.966 263.628 M 89.754 265.167 C 90.204 266.889, 89.978 267.206, 88.661 266.700 C 87.747 266.350, 87 266.499, 87 267.031 C 87 267.564, 87.900 268, 89 268 C 91.065 268, 91.885 264.665, 90.093 263.558 C 89.595 263.249, 89.442 263.974, 89.754 265.167 M 76 270.883 C 78.270 272.505, 91.399 275.211, 94.644 274.727 C 97.255 274.336, 97.200 274.286, 94 274.135 C 90.700 273.980, 80.903 271.930, 76.500 270.473 C 74.888 269.940, 74.791 270.019, 76 270.883 M 109.762 274.707 C 111.006 274.946, 112.806 274.937, 113.762 274.687 C 114.718 274.437, 113.700 274.241, 111.500 274.252 C 109.300 274.263, 108.518 274.468, 109.762 274.707 M 133.405 295.500 C 133.406 304.300, 133.559 307.766, 133.745 303.203 C 133.930 298.639, 133.929 291.439, 133.742 287.203 C 133.555 282.966, 133.404 286.700, 133.405 295.500 M 191.991 321.705 C 191.721 326.217, 191.859 329.549, 192.297 329.108 C 192.735 328.667, 192.956 324.975, 192.788 320.903 L 192.482 313.500 191.991 321.705 M 133.409 332.500 C 133.408 341.850, 133.558 345.810, 133.743 341.299 C 133.928 336.789, 133.929 329.139, 133.745 324.299 C 133.562 319.460, 133.410 323.150, 133.409 332.500 M 190.500 338 C 187.824 338.681, 187.770 338.763, 190 338.763 C 191.375 338.763, 193.850 338.420, 195.500 338 C 198.176 337.319, 198.230 337.237, 196 337.237 C 194.625 337.237, 192.150 337.580, 190.500 338 M 153.762 339.707 C 155.006 339.946, 156.806 339.937, 157.762 339.687 C 158.718 339.437, 157.700 339.241, 155.500 339.252 C 153.300 339.263, 152.518 339.468, 153.762 339.707 M 179.750 339.706 C 180.988 339.944, 183.012 339.944, 184.250 339.706 C 185.488 339.467, 184.475 339.272, 182 339.272 C 179.525 339.272, 178.512 339.467, 179.750 339.706 M 165.768 340.725 C 167.565 340.947, 170.265 340.943, 171.768 340.715 C 173.271 340.486, 171.800 340.304, 168.500 340.310 C 165.200 340.315, 163.971 340.502, 165.768 340.725 M 132.328 359.500 C 132.333 363.350, 132.513 364.802, 132.730 362.728 C 132.946 360.653, 132.943 357.503, 132.722 355.728 C 132.501 353.952, 132.324 355.650, 132.328 359.500 M 66 370.460 C 66 371.118, 78.888 375.010, 80.855 374.946 C 81.760 374.917, 78.900 373.809, 74.500 372.485 C 65.208 369.689, 66 369.878, 66 370.460 M 97.250 377.716 C 98.763 377.945, 101.237 377.945, 102.750 377.716 C 104.263 377.487, 103.025 377.300, 100 377.300 C 96.975 377.300, 95.737 377.487, 97.250 377.716 M 112.250 377.728 C 114.313 377.944, 117.688 377.944, 119.750 377.728 C 121.813 377.513, 120.125 377.336, 116 377.336 C 111.875 377.336, 110.188 377.513, 112.250 377.728" stroke="none" fill="#d0d7d7" fill-rule="evenodd"/><path d="M 100.032 174.019 C 89.830 175.451, 78.143 178.175, 76.240 179.565 C 74.672 180.711, 74.415 184.371, 73.641 216.668 C 73.086 239.848, 72.410 252.733, 71.726 253.161 C 71.145 253.525, 68.606 254.130, 66.085 254.506 C 58.380 255.656, 55.377 257.364, 54.648 261.012 C 54.291 262.793, 54 291.333, 54 324.434 C 54 371.073, 54.281 384.973, 55.250 386.195 C 56.644 387.955, 65.881 391.146, 76.500 393.536 C 87.243 395.954, 117.283 396.610, 128.414 394.670 C 134.019 393.693, 137.997 392.445, 139.130 391.308 C 140.680 389.751, 141.014 386.998, 141.528 371.500 C 142.333 347.221, 141.808 348.854, 148.247 350.620 C 152.736 351.851, 180.472 352.051, 339 351.997 C 458.603 351.957, 525.817 351.581, 528.208 350.940 C 533.450 349.534, 539.942 344.265, 543.479 338.544 L 546.500 333.657 546.500 286.078 C 546.500 239.171, 546.469 238.443, 544.330 234.447 C 541.473 229.110, 536.448 224.196, 531.500 221.900 C 527.657 220.117, 521.291 220.043, 369.725 220.022 L 211.950 220 211.016 217.541 C 210.283 215.615, 208.609 214.642, 203.290 213.054 C 194.151 210.324, 179.077 208.009, 170.404 208.004 L 163.309 208 162.665 195.296 C 162.251 187.134, 161.570 182.167, 160.760 181.402 C 155.415 176.353, 116.825 171.661, 100.032 174.019 M 95 190.679 C 80.722 193.186, 81.604 192.010, 80.879 209.510 C 80.538 217.755, 80.200 232.029, 80.129 241.231 C 80.002 257.731, 79.969 257.968, 77.750 258.424 C 66.009 260.833, 64.846 261.276, 63.931 263.681 C 63.399 265.082, 63 288.992, 63 319.542 L 63 372.954 65.357 374.498 C 66.653 375.348, 72.166 377.204, 77.607 378.624 C 95.216 383.219, 131.297 382.927, 137.001 378.144 C 138.755 376.673, 139.032 374.678, 139.637 359.156 L 140.313 341.813 143.390 342.428 C 157.384 345.227, 174.970 345.388, 189.800 342.854 C 198.835 341.310, 198.915 341.115, 200.175 317.331 C 201.415 293.924, 200.627 229.040, 199.067 226.126 C 197.599 223.382, 182.333 219.918, 168.750 219.248 L 158 218.717 158 208.793 C 158 203.334, 157.542 198.013, 156.983 196.968 C 153.655 190.749, 116.227 186.951, 95 190.679 M 111.607 214.582 C 110.579 217.262, 110.930 219, 112.500 219 C 113.500 219, 114 218, 114 216 C 114 212.794, 112.609 211.970, 111.607 214.582 M 128.963 240.598 C 127.538 244.345, 128.113 247.406, 130.320 247.827 C 132.604 248.262, 140 243.463, 140 241.545 C 140 239.704, 139.375 239.375, 134.258 238.529 C 130.269 237.869, 129.953 237.992, 128.963 240.598 M 102.528 239.954 C 101.812 241.114, 102.903 246.027, 104.260 247.750 C 104.802 248.438, 105.865 249, 106.622 249 C 108.371 249, 108.514 241.914, 106.800 240.200 C 105.358 238.758, 103.339 238.642, 102.528 239.954 M 115.559 242.887 C 113.593 246.688, 113.578 248.901, 115.513 249.643 C 118.076 250.627, 120.130 248.002, 119.801 244.163 C 119.412 239.632, 117.534 239.067, 115.559 242.887 M 94 247.326 C 94 249.981, 97.802 254, 100.314 254 C 102.684 254, 102.413 252.231, 99.449 248.344 C 96.465 244.432, 94 243.971, 94 247.326 M 107 255 C 106.018 256.835, 106.241 257.001, 109.715 257.014 C 111.797 257.021, 114.625 257.313, 116 257.662 L 118.500 258.296 116.076 255.648 C 113.106 252.405, 108.563 252.080, 107 255 M 146.119 269.356 C 144.562 271.233, 145.440 276.290, 147.640 278.117 C 150.898 280.820, 152.260 273.777, 149.208 270.008 C 147.606 268.031, 147.277 267.961, 146.119 269.356 M 158.593 272.170 C 156.265 275.494, 156.479 280, 158.965 280 C 161.387 280, 163.228 276.783, 162.812 273.278 C 162.401 269.823, 160.574 269.343, 158.593 272.170 M 67.469 286.578 C 66.636 297.677, 67.556 301, 71.460 301 C 74.219 301, 74.788 299.644, 75.236 292 C 75.486 287.741, 75.647 287.515, 78.250 287.788 C 80.769 288.052, 81 287.789, 81 284.660 C 81 282.782, 80.438 280.819, 79.750 280.298 C 78.457 279.317, 71.062 277, 69.227 277 C 68.629 277, 67.882 281.070, 67.469 286.578 M 141 280.309 C 141 282.923, 141.438 284, 142.500 284 C 144.401 284, 144.384 281.091, 142.468 278.559 C 141.092 276.739, 141 276.849, 141 280.309 M 166.627 279.250 C 165.847 280.488, 164.906 282.512, 164.537 283.750 C 164.009 285.520, 164.264 286, 165.733 286 C 168.507 286, 170 284.006, 170 280.300 C 170 276.467, 168.648 276.046, 166.627 279.250 M 150.299 284.250 C 147.492 287.332, 145.947 290.515, 144.386 296.434 C 142.709 302.789, 143.532 303.671, 149.564 301.982 C 153.704 300.823, 154.611 300.874, 157.505 302.433 C 164.622 306.266, 167.594 299.103, 162.496 290.403 C 160.143 286.387, 155.326 282, 153.270 282 C 152.763 282, 151.426 283.012, 150.299 284.250 M 85.523 307.927 C 84.720 310.456, 87.596 317.299, 89.236 316.761 C 92.124 315.812, 90.625 306, 87.592 306 C 86.791 306, 85.860 306.867, 85.523 307.927 M 98.241 309.986 C 96.533 312.720, 96.683 316.941, 98.513 317.643 C 101.008 318.601, 103 316.041, 103 311.878 C 103 308.843, 102.617 308, 101.241 308 C 100.273 308, 98.923 308.894, 98.241 309.986 M 76 314.507 C 76 316.302, 81.220 322, 82.864 322 C 84.957 322, 84.897 320.143, 82.699 316.873 C 80.227 313.196, 76 311.704, 76 314.507 M 107.750 316.240 C 105.154 318.211, 103.689 322.943, 105.463 323.624 C 107.423 324.376, 108.940 323.289, 110.067 320.324 C 111.363 316.915, 110.007 314.526, 107.750 316.240 M 90.131 322.360 C 87.379 325.290, 84 333.979, 84 338.127 C 84 341.013, 84.195 341.185, 86.750 340.556 C 93.429 338.911, 94.897 338.895, 97.877 340.436 C 104.319 343.767, 107.756 338.259, 104.034 330.570 C 101.806 325.968, 95.937 320, 93.640 320 C 92.930 320, 91.351 321.062, 90.131 322.360" stroke="none" fill="#ffffff" fill-rule="evenodd"/><path d="M 80.978 230.633 C 80.965 236.060, 80.682 244.376, 80.348 249.112 L 79.741 257.725 92.121 257.247 C 103.649 256.803, 104.686 256.596, 107.202 254.244 C 109.634 251.970, 110.197 251.839, 112.835 252.932 C 114.447 253.599, 116.716 255.238, 117.876 256.573 C 119.037 257.908, 120.937 259, 122.099 259 C 125.822 259, 136.441 262.116, 138.250 263.739 C 139.470 264.834, 140 266.811, 140 270.261 C 140 274.082, 140.570 275.889, 142.500 278.182 C 145.686 281.969, 145.709 284, 142.566 284 C 140.665 284, 140.064 284.592, 139.816 286.710 C 139.590 288.650, 138.789 289.586, 137 290.002 C 134.576 290.566, 134.483 290.903, 133.946 301.042 L 133.391 311.500 133.196 301.183 C 133.019 291.871, 132.829 290.917, 131.250 291.395 C 119.778 294.866, 88.648 294.855, 76.750 291.377 C 75.232 290.933, 75 291.602, 75 296.433 C 75 302.373, 74.523 302.783, 69.250 301.370 C 67.246 300.833, 67 300.135, 67 294.990 C 67 290.910, 66.581 289.053, 65.573 288.666 C 63.412 287.837, 62.848 296.692, 63.196 325.972 L 63.500 351.445 72.486 353.687 C 85.145 356.846, 100.732 358.123, 113.203 357.022 C 125.742 355.915, 131.999 354.950, 132.002 354.122 C 132.004 353.780, 133.365 353.452, 135.027 353.392 C 136.689 353.333, 138.375 352.959, 138.774 352.562 C 139.173 352.164, 139.642 344.217, 139.816 334.901 L 140.132 317.964 148.316 318.732 C 166.712 320.458, 191.985 318.385, 192.015 315.147 C 192.028 313.827, 192.203 313.773, 192.900 314.872 C 193.553 315.904, 194.479 316.007, 196.634 315.289 L 199.500 314.334 199.764 282.714 L 200.028 251.094 197.029 252.140 L 194.030 253.185 193.749 282.343 L 193.469 311.500 193.234 282.435 L 193 253.370 185.250 254.774 C 180.954 255.553, 171.037 256.186, 163 256.194 C 148.935 256.209, 146.775 255.926, 125.250 251.255 C 123.271 250.826, 123 251.166, 123 254.083 C 123 256.573, 122.715 257.115, 121.856 256.256 C 121.024 255.424, 121.002 254.343, 121.774 252.306 C 123.771 247.037, 124.088 243.799, 123.418 235.539 L 122.747 227.277 113.368 226.618 C 105.179 226.043, 90.062 223.438, 83.250 221.430 C 81.025 220.774, 81 220.876, 80.978 230.633 M 102.445 240.361 C 101.707 243.303, 102.541 246.398, 104.637 248.494 C 106.846 250.703, 107.763 250.356, 108.492 247.036 C 109.787 241.139, 103.885 234.624, 102.445 240.361 M 115.087 242.338 C 113.236 245.796, 114.029 250.500, 116.462 250.500 C 119.123 250.500, 121.486 246.072, 120.635 242.681 C 119.791 239.317, 116.802 239.132, 115.087 242.338 M 93.429 247.750 C 94.071 250.482, 98.220 255, 100.087 255 C 102.140 255, 102.106 251.908, 100.016 248.525 C 98.453 245.996, 97.123 245, 95.310 245 C 93.064 245, 92.855 245.305, 93.429 247.750 M 145.667 268.667 C 144.646 269.688, 144.874 274.896, 146.035 277.066 C 146.605 278.130, 147.955 279, 149.035 279 C 150.621 279, 151 278.312, 151 275.434 C 151 269.832, 148.136 266.197, 145.667 268.667 M 159.242 270.543 C 155.560 273.122, 155.416 281, 159.051 281 C 161.055 281, 163 277.547, 163 273.988 C 163 269.410, 162.073 268.560, 159.242 270.543 M 166.573 278.570 C 164.497 280.646, 163.488 284.888, 164.766 286.166 C 167.345 288.745, 172.159 282.463, 170.639 278.502 C 169.899 276.573, 168.547 276.596, 166.573 278.570 M 149.693 283.787 C 147.380 286.343, 144.199 293.901, 143.441 298.645 C 142.632 303.706, 144.317 304.657, 150.036 302.369 C 153.679 300.911, 154.218 300.913, 156.471 302.389 C 157.823 303.275, 159.776 304, 160.810 304 C 163.274 304, 166 300.918, 166 298.131 C 166 292.740, 157.702 282, 153.536 282 C 152.312 282, 150.582 282.804, 149.693 283.787 M 85.667 306.667 C 84.289 308.044, 85.052 313.737, 86.829 315.345 C 89.850 318.080, 91 317.350, 91 312.700 C 91 307.403, 88.152 304.181, 85.667 306.667 M 98.668 309.188 C 96.180 313.129, 95.815 315.672, 97.495 317.352 C 100.632 320.490, 103.562 316.697, 102.828 310.448 C 102.403 306.832, 100.516 306.260, 98.668 309.188 M 76.701 312.632 C 74.291 315.042, 78.652 322, 82.573 322 C 85.616 322, 85.656 320.270, 82.715 315.905 C 80.462 312.562, 78.072 311.261, 76.701 312.632 M 105.375 318.339 C 103.723 321.805, 104.007 325, 105.969 325 C 108.168 325, 111.118 320.855, 110.811 318.198 C 110.335 314.096, 107.362 314.174, 105.375 318.339 M 133.409 332.500 C 133.408 341.850, 133.558 345.810, 133.743 341.299 C 133.928 336.789, 133.929 329.139, 133.745 324.299 C 133.562 319.460, 133.410 323.150, 133.409 332.500 M 89.693 321.787 C 87.147 324.600, 83.974 332.530, 83.726 336.698 C 83.477 340.879, 82.809 340.649, 93 339.880 C 94.375 339.777, 96.940 340.301, 98.700 341.046 C 101.558 342.256, 102.118 342.203, 103.950 340.545 C 107.644 337.202, 105.789 330.099, 99.471 323.400 C 95.875 319.588, 92.228 318.986, 89.693 321.787" stroke="none" fill="#efceff" fill-rule="evenodd"/><path d="M 107.070 194.869 C 106.520 195.896, 106.365 197.032, 106.725 197.392 C 107.085 197.751, 106.394 198.736, 105.190 199.580 C 103.985 200.423, 103 201.538, 103 202.057 C 103 202.576, 103.916 202.084, 105.036 200.964 C 106.157 199.843, 107.432 199.149, 107.870 199.420 C 108.308 199.690, 108.667 199.257, 108.667 198.456 C 108.667 197.655, 108.222 197, 107.678 197 C 107.135 197, 107.505 196.100, 108.500 195 C 109.495 193.900, 109.806 193, 109.190 193 C 108.574 193, 107.620 193.841, 107.070 194.869 M 124.540 223.955 C 123.240 225.392, 121.143 226.004, 116.636 226.263 L 110.500 226.615 117.167 226.807 C 121.349 226.928, 124.055 227.466, 124.428 228.250 C 124.755 228.938, 124.839 228.504, 124.614 227.287 C 124.150 224.765, 126.317 222.460, 128.111 223.568 C 128.869 224.037, 129.047 223.885, 128.595 223.155 C 127.582 221.515, 126.568 221.715, 124.540 223.955 M 144.485 223.025 C 144.136 223.588, 144.447 223.926, 145.176 223.775 C 146.709 223.457, 146.425 227.743, 144.780 229.750 C 144.073 230.612, 144.093 231, 144.842 231 C 146.275 231, 148.261 227.231, 147.487 225.979 C 147.154 225.441, 147.471 224.993, 148.191 224.985 C 149.229 224.973, 149.218 224.791, 148.137 224.106 C 146.986 223.377, 146.986 223.158, 148.137 222.700 C 148.938 222.381, 148.597 222.125, 147.309 222.079 C 146.104 222.036, 144.833 222.461, 144.485 223.025 M 80.328 238.500 C 80.333 242.350, 80.513 243.802, 80.730 241.728 C 80.946 239.653, 80.943 236.503, 80.722 234.728 C 80.501 232.952, 80.324 234.650, 80.328 238.500 M 154 236.904 C 152.625 237.291, 156.102 237.586, 161.726 237.559 C 167.350 237.531, 171.175 237.201, 170.226 236.825 C 167.995 235.940, 157.234 235.993, 154 236.904 M 192 245.500 C 192 247.425, 192.176 249, 192.391 249 C 192.605 249, 192.965 247.425, 193.190 245.500 C 193.415 243.575, 193.239 242, 192.799 242 C 192.360 242, 192 243.575, 192 245.500 M 123.116 248.250 C 123.032 250.252, 123.476 250.996, 124.750 250.985 C 125.861 250.975, 126.086 250.701, 125.366 250.235 C 124.742 249.831, 124.007 248.600, 123.732 247.500 C 123.349 245.967, 123.205 246.142, 123.116 248.250 M 161.264 256.718 C 162.784 256.947, 165.034 256.941, 166.264 256.704 C 167.494 256.467, 166.250 256.279, 163.500 256.286 C 160.750 256.294, 159.744 256.488, 161.264 256.718 M 84.427 260.908 C 84.202 261.132, 84.530 261.933, 85.156 262.688 C 86.009 263.716, 85.990 264.740, 85.079 266.780 L 83.864 269.500 86.100 267.305 C 88.067 265.373, 88.167 264.892, 86.935 263.305 C 85.598 261.583, 85.632 261.583, 87.668 263.315 C 89.265 264.674, 89.991 264.824, 90.555 263.911 C 91.069 263.079, 90.891 262.949, 89.997 263.502 C 89.030 264.100, 88.825 263.776, 89.219 262.270 C 89.656 260.600, 89.304 260.252, 87.295 260.363 C 85.944 260.439, 84.653 260.684, 84.427 260.908 M 86.939 269.573 C 85.946 270.770, 86.421 271, 89.878 271 C 94.759 271, 95.044 270.560, 91.061 269.171 C 88.783 268.377, 87.857 268.468, 86.939 269.573 M 101.768 270.725 C 103.565 270.947, 106.265 270.943, 107.768 270.715 C 109.271 270.486, 107.800 270.304, 104.500 270.310 C 101.200 270.315, 99.971 270.502, 101.768 270.725 M 96.086 274.926 C 95.185 275.496, 97.246 275.781, 101.772 275.711 C 105.677 275.651, 108.649 275.241, 108.377 274.801 C 107.704 273.712, 97.846 273.812, 96.086 274.926 M 199.286 318.500 C 199.294 321.250, 199.488 322.256, 199.718 320.736 C 199.947 319.216, 199.941 316.966, 199.704 315.736 C 199.467 314.506, 199.279 315.750, 199.286 318.500 M 140.349 326 C 140.349 330.675, 140.522 332.587, 140.732 330.250 C 140.943 327.913, 140.943 324.087, 140.732 321.750 C 140.522 319.413, 140.349 321.325, 140.349 326 M 191.431 327.790 C 191.605 330.150, 192.029 332.362, 192.373 332.707 C 193.201 333.534, 192.971 330.257, 191.939 326.500 C 191.222 323.890, 191.156 324.057, 191.431 327.790 M 198.300 330 C 198.300 333.025, 198.487 334.262, 198.716 332.750 C 198.945 331.238, 198.945 328.762, 198.716 327.250 C 198.487 325.738, 198.300 326.975, 198.300 330 M 185.500 339 C 185.840 339.550, 187.104 339.993, 188.309 339.985 C 190.090 339.972, 190.219 339.788, 189 339 C 187.030 337.727, 184.713 337.727, 185.500 339 M 157.500 340 C 155.879 340.696, 156.164 340.859, 159 340.859 C 160.925 340.859, 163.400 340.473, 164.500 340 C 166.121 339.304, 165.836 339.141, 163 339.141 C 161.075 339.141, 158.600 339.527, 157.500 340 M 172.500 340 C 173.600 340.473, 176.300 340.846, 178.500 340.830 C 181.937 340.805, 182.148 340.688, 180 340 C 178.625 339.560, 175.925 339.186, 174 339.170 C 171.177 339.146, 170.887 339.307, 172.500 340 M 131.191 367.928 C 131.320 369.617, 131.780 371, 132.213 371 C 133.374 371, 133.171 366.224, 131.979 365.487 C 131.352 365.099, 131.048 366.043, 131.191 367.928 M 121.500 377 C 124.278 378.194, 126.238 378.194, 125.500 377 C 125.160 376.450, 123.671 376.032, 122.191 376.070 C 119.788 376.133, 119.714 376.233, 121.500 377 M 106 378 C 106.825 378.533, 108.400 378.969, 109.500 378.969 C 111.156 378.969, 111.242 378.803, 110 378 C 109.175 377.467, 107.600 377.031, 106.500 377.031 C 104.844 377.031, 104.758 377.197, 106 378" stroke="none" fill="#dae9f1" fill-rule="evenodd"/><path d="M 157.374 208.500 C 157.376 214.550, 157.541 216.896, 157.740 213.713 C 157.939 210.531, 157.937 205.581, 157.736 202.713 C 157.535 199.846, 157.372 202.450, 157.374 208.500 M 85.187 210.164 C 85.479 213.115, 85.966 213.484, 92.445 215.664 C 99.315 217.975, 107 218.772, 107 217.173 C 107 216.718, 105.683 216.540, 104.074 216.776 C 102.464 217.012, 97.739 216.194, 93.574 214.957 C 86.783 212.941, 86 212.452, 86 210.229 C 86 207.971, 86.290 207.806, 89.250 208.374 C 91.561 208.817, 92.067 208.713, 91 208.014 C 90.175 207.473, 88.459 207.024, 87.187 207.015 C 85.188 207.002, 84.916 207.430, 85.187 210.164 M 95.500 210.536 C 97.150 211.292, 99.175 211.896, 100 211.879 C 100.825 211.862, 99.925 211.241, 98 210.500 C 93.434 208.742, 91.638 208.768, 95.500 210.536 M 117.712 212.663 C 117.429 213.123, 117.041 215.075, 116.849 217 C 116.590 219.600, 116.886 220.500, 118 220.500 C 118.973 220.500, 119.613 219.315, 119.823 217.123 C 120.135 213.858, 118.761 210.954, 117.712 212.663 M 80.310 226.500 C 80.315 229.800, 80.502 231.029, 80.725 229.232 C 80.947 227.435, 80.943 224.735, 80.715 223.232 C 80.486 221.729, 80.304 223.200, 80.310 226.500 M 200.272 253 C 200.272 255.475, 200.467 256.488, 200.706 255.250 C 200.944 254.012, 200.944 251.988, 200.706 250.750 C 200.467 249.512, 200.272 250.525, 200.272 253 M 200.434 284.500 C 200.433 298.250, 200.574 304.014, 200.747 297.308 C 200.919 290.603, 200.920 279.353, 200.748 272.308 C 200.576 265.264, 200.434 270.750, 200.434 284.500 M 63.385 277 C 63.385 283.875, 63.545 286.688, 63.740 283.250 C 63.936 279.813, 63.936 274.188, 63.740 270.750 C 63.545 267.313, 63.385 270.125, 63.385 277 M 140.272 280 C 140.272 282.475, 140.467 283.488, 140.706 282.250 C 140.944 281.012, 140.944 278.988, 140.706 277.750 C 140.467 276.512, 140.272 277.525, 140.272 280 M 85.667 280.667 C 85.300 281.033, 85 283.058, 85 285.167 C 85 288.581, 85.271 289, 87.481 289 C 89.268 289, 90.131 288.327, 90.566 286.593 C 91.142 284.298, 89.374 279.292, 88.350 280.317 C 88.081 280.586, 88.414 281.689, 89.089 282.770 C 90.583 285.164, 89.667 288, 87.400 288 C 86.037 288, 85.833 287.278, 86.273 284 C 86.830 279.846, 86.777 279.556, 85.667 280.667 M 74 299.930 C 74 300.442, 72.987 301.056, 71.750 301.294 C 69.821 301.666, 69.892 301.747, 72.250 301.864 C 74.088 301.955, 75 301.503, 75 300.500 C 75 299.675, 74.775 299, 74.500 299 C 74.225 299, 74 299.419, 74 299.930 M 199.272 327 C 199.272 329.475, 199.467 330.488, 199.706 329.250 C 199.944 328.012, 199.944 325.988, 199.706 324.750 C 199.467 323.512, 199.272 324.525, 199.272 327 M 163.750 344.732 C 166.088 344.943, 169.912 344.943, 172.250 344.732 C 174.588 344.522, 172.675 344.349, 168 344.349 C 163.325 344.349, 161.412 344.522, 163.750 344.732 M 139.320 357 C 139.320 360.575, 139.502 362.038, 139.723 360.250 C 139.945 358.462, 139.945 355.538, 139.723 353.750 C 139.502 351.962, 139.320 353.425, 139.320 357" stroke="none" fill="#fbfbfb" fill-rule="evenodd"/></svg>