<svg xmlns="http://www.w3.org/2000/svg" width="600" height="600" viewBox="0 0 600 600" version="1.1"><path d="M 100.032 174.019 C 89.830 175.451, 78.143 178.175, 76.240 179.565 C 74.672 180.711, 74.415 184.371, 73.641 216.668 C 73.086 239.848, 72.410 252.733, 71.726 253.161 C 71.145 253.525, 68.606 254.130, 66.085 254.506 C 58.380 255.656, 55.377 257.364, 54.648 261.012 C 54.291 262.793, 54 291.333, 54 324.434 C 54 371.073, 54.281 384.973, 55.250 386.195 C 56.644 387.955, 65.881 391.146, 76.500 393.536 C 87.243 395.954, 117.283 396.610, 128.414 394.670 C 134.019 393.693, 137.997 392.445, 139.130 391.308 C 140.680 389.751, 141.014 386.998, 141.528 371.500 C 142.333 347.221, 141.808 348.854, 148.247 350.620 C 152.736 351.851, 180.472 352.051, 339 351.997 C 458.603 351.957, 525.817 351.581, 528.208 350.940 C 533.450 349.534, 539.942 344.265, 543.479 338.544 L 546.500 333.657 546.500 286.078 C 546.500 239.171, 546.469 238.443, 544.330 234.447 C 541.473 229.110, 536.448 224.196, 531.500 221.900 C 527.657 220.117, 521.291 220.043, 369.725 220.022 L 211.950 220 211.016 217.541 C 210.283 215.615, 208.609 214.642, 203.290 213.054 C 194.151 210.324, 179.077 208.009, 170.404 208.004 L 163.309 208 162.665 195.296 C 162.251 187.134, 161.570 182.167, 160.760 181.402 C 155.415 176.353, 116.825 171.661, 100.032 174.019 M 95 190.679 C 80.722 193.186, 81.604 192.010, 80.879 209.510 C 80.538 217.755, 80.200 232.029, 80.129 241.231 C 80.002 257.731, 79.969 257.968, 77.750 258.424 C 66.009 260.833, 64.846 261.276, 63.931 263.681 C 63.399 265.082, 63 288.992, 63 319.542 L 63 372.954 65.357 374.498 C 66.653 375.348, 72.166 377.204, 77.607 378.624 C 95.216 383.219, 131.297 382.927, 137.001 378.144 C 138.755 376.673, 139.032 374.678, 139.637 359.156 L 140.313 341.813 143.390 342.428 C 157.371 345.224, 174.969 345.388, 189.767 342.860 C 196.209 341.759, 199 339.618, 199 335.777 C 199 334.094, 202.196 334, 259.617 334 L 320.233 334 319.630 331.750 C 319.299 330.512, 319.021 308.913, 319.014 283.750 L 319 238 259.500 238 L 200 238 200 232.691 C 200 229.771, 199.438 226.634, 198.750 225.719 C 196.880 223.231, 182 219.998, 169.250 219.310 L 158 218.703 158 208.786 C 158 203.331, 157.542 198.013, 156.983 196.968 C 153.655 190.749, 116.227 186.951, 95 190.679 M 111.607 214.582 C 110.579 217.262, 110.930 219, 112.500 219 C 113.500 219, 114 218, 114 216 C 114 212.794, 112.609 211.970, 111.607 214.582 M 128.963 240.598 C 127.538 244.345, 128.113 247.406, 130.320 247.827 C 132.604 248.262, 140 243.463, 140 241.545 C 140 239.704, 139.375 239.375, 134.258 238.529 C 130.269 237.869, 129.953 237.992, 128.963 240.598 M 102.528 239.954 C 101.812 241.114, 102.903 246.027, 104.260 247.750 C 104.802 248.438, 105.865 249, 106.622 249 C 108.371 249, 108.514 241.914, 106.800 240.200 C 105.358 238.758, 103.339 238.642, 102.528 239.954 M 115.559 242.887 C 113.593 246.688, 113.578 248.901, 115.513 249.643 C 118.076 250.627, 120.130 248.002, 119.801 244.163 C 119.412 239.632, 117.534 239.067, 115.559 242.887 M 94 247.326 C 94 249.981, 97.802 254, 100.314 254 C 102.684 254, 102.413 252.231, 99.449 248.344 C 96.465 244.432, 94 243.971, 94 247.326 M 107 255 C 106.018 256.835, 106.241 257.001, 109.715 257.014 C 111.797 257.021, 114.625 257.313, 116 257.662 L 118.500 258.296 116.076 255.648 C 113.106 252.405, 108.563 252.080, 107 255 M 146.119 269.356 C 144.562 271.233, 145.440 276.290, 147.640 278.117 C 150.898 280.820, 152.260 273.777, 149.208 270.008 C 147.606 268.031, 147.277 267.961, 146.119 269.356 M 158.593 272.170 C 156.265 275.494, 156.479 280, 158.965 280 C 161.387 280, 163.228 276.783, 162.812 273.278 C 162.401 269.823, 160.574 269.343, 158.593 272.170 M 67.469 286.578 C 66.636 297.677, 67.556 301, 71.460 301 C 74.219 301, 74.788 299.644, 75.236 292 C 75.486 287.741, 75.647 287.515, 78.250 287.788 C 80.769 288.052, 81 287.789, 81 284.660 C 81 282.782, 80.438 280.819, 79.750 280.298 C 78.457 279.317, 71.062 277, 69.227 277 C 68.629 277, 67.882 281.070, 67.469 286.578 M 141 280.309 C 141 282.923, 141.438 284, 142.500 284 C 144.401 284, 144.384 281.091, 142.468 278.559 C 141.092 276.739, 141 276.849, 141 280.309 M 166.627 279.250 C 165.847 280.488, 164.906 282.512, 164.537 283.750 C 164.009 285.520, 164.264 286, 165.733 286 C 168.507 286, 170 284.006, 170 280.300 C 170 276.467, 168.648 276.046, 166.627 279.250 M 150.299 284.250 C 147.492 287.332, 145.947 290.515, 144.386 296.434 C 142.709 302.789, 143.532 303.671, 149.564 301.982 C 153.704 300.823, 154.611 300.874, 157.505 302.433 C 164.622 306.266, 167.594 299.103, 162.496 290.403 C 160.143 286.387, 155.326 282, 153.270 282 C 152.763 282, 151.426 283.012, 150.299 284.250 M 85.523 307.927 C 84.720 310.456, 87.596 317.299, 89.236 316.761 C 92.124 315.812, 90.625 306, 87.592 306 C 86.791 306, 85.860 306.867, 85.523 307.927 M 98.241 309.986 C 96.533 312.720, 96.683 316.941, 98.513 317.643 C 101.008 318.601, 103 316.041, 103 311.878 C 103 308.843, 102.617 308, 101.241 308 C 100.273 308, 98.923 308.894, 98.241 309.986 M 76 314.507 C 76 316.302, 81.220 322, 82.864 322 C 84.957 322, 84.897 320.143, 82.699 316.873 C 80.227 313.196, 76 311.704, 76 314.507 M 107.750 316.240 C 105.154 318.211, 103.689 322.943, 105.463 323.624 C 107.423 324.376, 108.940 323.289, 110.067 320.324 C 111.363 316.915, 110.007 314.526, 107.750 316.240 M 90.131 322.360 C 87.379 325.290, 84 333.979, 84 338.127 C 84 341.013, 84.195 341.185, 86.750 340.556 C 93.429 338.911, 94.897 338.895, 97.877 340.436 C 104.319 343.767, 107.756 338.259, 104.034 330.570 C 101.806 325.968, 95.937 320, 93.640 320 C 92.930 320, 91.351 321.062, 90.131 322.360" stroke="none" fill="#ffffff" fill-rule="evenodd"/><path d="M 100.032 174.019 C 89.830 175.451, 78.143 178.175, 76.240 179.565 C 74.672 180.711, 74.415 184.371, 73.641 216.668 C 73.086 239.848, 72.410 252.733, 71.726 253.161 C 71.145 253.525, 68.606 254.130, 66.085 254.506 C 58.380 255.656, 55.377 257.364, 54.648 261.012 C 54.291 262.793, 54 291.333, 54 324.434 C 54 371.073, 54.281 384.973, 55.250 386.195 C 56.644 387.955, 65.881 391.146, 76.500 393.536 C 87.243 395.954, 117.283 396.610, 128.414 394.670 C 134.019 393.693, 137.997 392.445, 139.130 391.308 C 140.680 389.751, 141.014 386.998, 141.528 371.500 C 142.333 347.221, 141.808 348.854, 148.247 350.620 C 152.736 351.851, 180.472 352.051, 339 351.997 C 458.603 351.957, 525.817 351.581, 528.208 350.940 C 533.450 349.534, 539.942 344.265, 543.479 338.544 L 546.500 333.657 546.500 286.078 C 546.500 239.171, 546.469 238.443, 544.330 234.447 C 541.473 229.110, 536.448 224.196, 531.500 221.900 C 527.657 220.117, 521.291 220.043, 369.725 220.022 L 211.950 220 211.016 217.541 C 210.283 215.615, 208.609 214.642, 203.290 213.054 C 194.151 210.324, 179.077 208.009, 170.404 208.004 L 163.309 208 162.665 195.296 C 162.251 187.134, 161.570 182.167, 160.760 181.402 C 155.415 176.353, 116.825 171.661, 100.032 174.019 M 95 190.679 C 80.722 193.186, 81.604 192.010, 80.879 209.510 C 80.538 217.755, 80.200 232.029, 80.129 241.231 C 80.002 257.731, 79.969 257.968, 77.750 258.424 C 66.009 260.833, 64.846 261.276, 63.931 263.681 C 63.399 265.082, 63 288.992, 63 319.542 L 63 372.954 65.357 374.498 C 66.653 375.348, 72.166 377.204, 77.607 378.624 C 95.216 383.219, 131.297 382.927, 137.001 378.144 C 138.755 376.673, 139.032 374.678, 139.637 359.156 L 140.313 341.813 143.390 342.428 C 157.371 345.224, 174.969 345.388, 189.767 342.860 C 196.209 341.759, 199 339.618, 199 335.777 C 199 334.094, 202.196 334, 259.617 334 L 320.233 334 319.630 331.750 C 319.299 330.512, 319.021 308.913, 319.014 283.750 L 319 238 259.500 238 L 200 238 200 232.691 C 200 229.771, 199.438 226.634, 198.750 225.719 C 196.880 223.231, 182 219.998, 169.250 219.310 L 158 218.703 158 208.786 C 158 203.331, 157.542 198.013, 156.983 196.968 C 153.655 190.749, 116.227 186.951, 95 190.679 M 111.607 214.582 C 110.579 217.262, 110.930 219, 112.500 219 C 113.500 219, 114 218, 114 216 C 114 212.794, 112.609 211.970, 111.607 214.582 M 128.963 240.598 C 127.538 244.345, 128.113 247.406, 130.320 247.827 C 132.604 248.262, 140 243.463, 140 241.545 C 140 239.704, 139.375 239.375, 134.258 238.529 C 130.269 237.869, 129.953 237.992, 128.963 240.598 M 102.528 239.954 C 101.812 241.114, 102.903 246.027, 104.260 247.750 C 104.802 248.438, 105.865 249, 106.622 249 C 108.371 249, 108.514 241.914, 106.800 240.200 C 105.358 238.758, 103.339 238.642, 102.528 239.954 M 115.559 242.887 C 113.593 246.688, 113.578 248.901, 115.513 249.643 C 118.076 250.627, 120.130 248.002, 119.801 244.163 C 119.412 239.632, 117.534 239.067, 115.559 242.887 M 94 247.326 C 94 249.981, 97.802 254, 100.314 254 C 102.684 254, 102.413 252.231, 99.449 248.344 C 96.465 244.432, 94 243.971, 94 247.326 M 107 255 C 106.018 256.835, 106.241 257.001, 109.715 257.014 C 111.797 257.021, 114.625 257.313, 116 257.662 L 118.500 258.296 116.076 255.648 C 113.106 252.405, 108.563 252.080, 107 255 M 146.119 269.356 C 144.562 271.233, 145.440 276.290, 147.640 278.117 C 150.898 280.820, 152.260 273.777, 149.208 270.008 C 147.606 268.031, 147.277 267.961, 146.119 269.356 M 158.593 272.170 C 156.265 275.494, 156.479 280, 158.965 280 C 161.387 280, 163.228 276.783, 162.812 273.278 C 162.401 269.823, 160.574 269.343, 158.593 272.170 M 67.469 286.578 C 66.636 297.677, 67.556 301, 71.460 301 C 74.219 301, 74.788 299.644, 75.236 292 C 75.486 287.741, 75.647 287.515, 78.250 287.788 C 80.769 288.052, 81 287.789, 81 284.660 C 81 282.782, 80.438 280.819, 79.750 280.298 C 78.457 279.317, 71.062 277, 69.227 277 C 68.629 277, 67.882 281.070, 67.469 286.578 M 141 280.309 C 141 282.923, 141.438 284, 142.500 284 C 144.401 284, 144.384 281.091, 142.468 278.559 C 141.092 276.739, 141 276.849, 141 280.309 M 166.627 279.250 C 165.847 280.488, 164.906 282.512, 164.537 283.750 C 164.009 285.520, 164.264 286, 165.733 286 C 168.507 286, 170 284.006, 170 280.300 C 170 276.467, 168.648 276.046, 166.627 279.250 M 150.299 284.250 C 147.492 287.332, 145.947 290.515, 144.386 296.434 C 142.709 302.789, 143.532 303.671, 149.564 301.982 C 153.704 300.823, 154.611 300.874, 157.505 302.433 C 164.622 306.266, 167.594 299.103, 162.496 290.403 C 160.143 286.387, 155.326 282, 153.270 282 C 152.763 282, 151.426 283.012, 150.299 284.250 M 85.523 307.927 C 84.720 310.456, 87.596 317.299, 89.236 316.761 C 92.124 315.812, 90.625 306, 87.592 306 C 86.791 306, 85.860 306.867, 85.523 307.927 M 98.241 309.986 C 96.533 312.720, 96.683 316.941, 98.513 317.643 C 101.008 318.601, 103 316.041, 103 311.878 C 103 308.843, 102.617 308, 101.241 308 C 100.273 308, 98.923 308.894, 98.241 309.986 M 76 314.507 C 76 316.302, 81.220 322, 82.864 322 C 84.957 322, 84.897 320.143, 82.699 316.873 C 80.227 313.196, 76 311.704, 76 314.507 M 107.750 316.240 C 105.154 318.211, 103.689 322.943, 105.463 323.624 C 107.423 324.376, 108.940 323.289, 110.067 320.324 C 111.363 316.915, 110.007 314.526, 107.750 316.240 M 90.131 322.360 C 87.379 325.290, 84 333.979, 84 338.127 C 84 341.013, 84.195 341.185, 86.750 340.556 C 93.429 338.911, 94.897 338.895, 97.877 340.436 C 104.319 343.767, 107.756 338.259, 104.034 330.570 C 101.806 325.968, 95.937 320, 93.640 320 C 92.930 320, 91.351 321.062, 90.131 322.360" stroke="none" fill="#ffffff" fill-rule="evenodd"/><path d="M 80.995 229.633 C 80.992 234.510, 80.702 242.848, 80.350 248.162 L 79.710 257.825 92.105 257.290 C 103.595 256.795, 104.697 256.572, 107.202 254.237 C 109.633 251.971, 110.198 251.840, 112.835 252.932 C 114.447 253.599, 116.716 255.238, 117.876 256.573 C 119.037 257.908, 120.937 259, 122.099 259 C 125.822 259, 136.441 262.116, 138.250 263.739 C 139.470 264.834, 140 266.811, 140 270.261 C 140 274.082, 140.570 275.889, 142.500 278.182 C 143.875 279.816, 145 281.794, 145 282.577 C 145 283.428, 143.996 284, 142.500 284 C 140.527 284, 140 284.507, 140 286.402 C 140 288.166, 139.212 289.079, 137.036 289.838 L 134.071 290.871 133.747 301.186 L 133.422 311.500 133.211 301.183 C 133.020 291.867, 132.830 290.918, 131.250 291.411 C 120.327 294.815, 88.442 294.795, 76.750 291.377 C 75.232 290.933, 75 291.602, 75 296.433 C 75 302.373, 74.523 302.783, 69.250 301.370 C 67.246 300.833, 67 300.135, 67 294.990 C 67 290.910, 66.581 289.053, 65.573 288.666 C 63.412 287.837, 62.848 296.692, 63.196 325.972 L 63.500 351.445 72.492 353.689 C 85.295 356.884, 101.434 358.197, 113.618 357.036 C 126.213 355.836, 131.999 354.919, 132.002 354.122 C 132.004 353.780, 133.365 353.452, 135.027 353.392 C 136.689 353.333, 138.375 352.959, 138.774 352.562 C 139.173 352.164, 139.642 344.209, 139.816 334.884 L 140.133 317.929 147.816 318.714 C 165.824 320.556, 191.985 318.444, 192.015 315.147 C 192.027 313.841, 192.209 313.781, 192.890 314.857 C 193.840 316.355, 197.961 315.548, 199.235 313.615 C 199.639 313.002, 199.976 298.686, 199.985 281.802 L 200 251.104 197.015 252.145 L 194.030 253.185 193.749 282.343 L 193.469 311.500 193.234 282.435 L 193 253.370 185.250 254.774 C 180.954 255.553, 171.037 256.186, 163 256.194 C 148.935 256.209, 146.775 255.926, 125.250 251.255 C 123.271 250.826, 123 251.166, 123 254.083 C 123 256.573, 122.715 257.115, 121.856 256.256 C 121.024 255.424, 121.002 254.343, 121.774 252.306 C 123.771 247.037, 124.088 243.799, 123.418 235.541 L 122.748 227.282 114.019 226.662 C 106.314 226.115, 89.585 223.266, 83.250 221.422 C 81.037 220.777, 81 220.912, 80.995 229.633 M 102.445 240.361 C 101.707 243.303, 102.541 246.398, 104.637 248.494 C 106.846 250.703, 107.763 250.356, 108.492 247.036 C 109.787 241.139, 103.885 234.624, 102.445 240.361 M 115.087 242.338 C 113.236 245.796, 114.029 250.500, 116.462 250.500 C 119.123 250.500, 121.486 246.072, 120.635 242.681 C 119.791 239.317, 116.802 239.132, 115.087 242.338 M 93.429 247.750 C 94.071 250.482, 98.220 255, 100.087 255 C 102.140 255, 102.106 251.908, 100.016 248.525 C 98.453 245.996, 97.123 245, 95.310 245 C 93.064 245, 92.855 245.305, 93.429 247.750 M 145.667 268.667 C 144.646 269.688, 144.874 274.896, 146.035 277.066 C 146.605 278.130, 147.955 279, 149.035 279 C 150.621 279, 151 278.312, 151 275.434 C 151 269.832, 148.136 266.197, 145.667 268.667 M 159.242 270.543 C 155.560 273.122, 155.416 281, 159.051 281 C 161.055 281, 163 277.547, 163 273.988 C 163 269.410, 162.073 268.560, 159.242 270.543 M 166.573 278.570 C 164.497 280.646, 163.488 284.888, 164.766 286.166 C 167.345 288.745, 172.159 282.463, 170.639 278.502 C 169.899 276.573, 168.547 276.596, 166.573 278.570 M 149.693 283.787 C 147.380 286.343, 144.199 293.901, 143.441 298.645 C 142.632 303.706, 144.317 304.657, 150.036 302.369 C 153.679 300.911, 154.218 300.913, 156.471 302.389 C 157.823 303.275, 159.776 304, 160.810 304 C 163.274 304, 166 300.918, 166 298.131 C 166 292.740, 157.702 282, 153.536 282 C 152.312 282, 150.582 282.804, 149.693 283.787 M 85.667 306.667 C 84.289 308.044, 85.052 313.737, 86.829 315.345 C 89.850 318.080, 91 317.350, 91 312.700 C 91 307.403, 88.152 304.181, 85.667 306.667 M 98.668 309.188 C 96.180 313.129, 95.815 315.672, 97.495 317.352 C 100.632 320.490, 103.562 316.697, 102.828 310.448 C 102.403 306.832, 100.516 306.260, 98.668 309.188 M 76.701 312.632 C 74.291 315.042, 78.652 322, 82.573 322 C 85.616 322, 85.656 320.270, 82.715 315.905 C 80.462 312.562, 78.072 311.261, 76.701 312.632 M 105.375 318.339 C 103.723 321.805, 104.007 325, 105.969 325 C 108.168 325, 111.118 320.855, 110.811 318.198 C 110.335 314.096, 107.362 314.174, 105.375 318.339 M 133.409 332.500 C 133.408 341.850, 133.558 345.810, 133.743 341.299 C 133.928 336.789, 133.929 329.139, 133.745 324.299 C 133.562 319.460, 133.410 323.150, 133.409 332.500 M 89.693 321.787 C 87.147 324.600, 83.974 332.530, 83.726 336.698 C 83.477 340.879, 82.809 340.649, 93 339.880 C 94.375 339.777, 96.940 340.301, 98.700 341.046 C 101.558 342.256, 102.118 342.203, 103.950 340.545 C 107.644 337.202, 105.789 330.099, 99.471 323.400 C 95.875 319.588, 92.228 318.986, 89.693 321.787" stroke="none" fill="#efceff" fill-rule="evenodd"/><path d="M 123.048 195.949 C 122.249 196.455, 121.237 196.646, 120.798 196.375 C 120.359 196.104, 120 196.359, 120 196.941 C 120 197.523, 119.298 198, 118.441 198 C 117.584 198, 117.143 198.422, 117.462 198.939 C 117.781 199.455, 117.282 200.302, 116.353 200.822 C 115.001 201.579, 115.445 201.890, 118.582 202.383 C 124.216 203.268, 132.500 201.842, 132.500 199.988 C 132.500 199.069, 131.734 198.612, 130.500 198.792 C 128.846 199.033, 128.759 198.903, 130 198.042 C 131.333 197.116, 131.333 196.891, 130 196.015 C 127.747 194.536, 127.387 194.721, 125.648 198.250 C 124.767 200.037, 124.028 201.050, 124.007 200.500 C 123.987 199.950, 123.533 200.175, 123 201 C 122.216 202.213, 122.028 202.069, 122.015 200.250 C 122.007 199.012, 122.402 198, 122.893 198 C 123.384 198, 124.045 197.325, 124.362 196.500 C 125.031 194.755, 124.974 194.731, 123.048 195.949 M 116.768 207.725 C 118.565 207.947, 121.265 207.943, 122.768 207.715 C 124.271 207.486, 122.800 207.304, 119.500 207.310 C 116.200 207.315, 114.971 207.502, 116.768 207.725 M 158.706 226.317 C 161.423 227.803, 160.481 229.725, 156.415 230.995 C 154.280 231.661, 156.178 231.870, 163.500 231.776 C 175.419 231.623, 177 231.303, 177 229.044 C 177 226.393, 172.996 225.153, 164.369 225.130 C 157.678 225.113, 156.830 225.290, 158.706 226.317 M 123.286 231.500 C 123.294 234.250, 123.488 235.256, 123.718 233.736 C 123.947 232.216, 123.941 229.966, 123.704 228.736 C 123.467 227.506, 123.279 228.750, 123.286 231.500 M 318.300 244 C 318.300 247.025, 318.487 248.262, 318.716 246.750 C 318.945 245.238, 318.945 242.762, 318.716 241.250 C 318.487 239.738, 318.300 240.975, 318.300 244 M 193.434 274.500 C 193.433 288.250, 193.574 294.014, 193.747 287.308 C 193.919 280.603, 193.920 269.353, 193.748 262.308 C 193.576 255.264, 193.434 260.750, 193.434 274.500 M 318.385 262 C 318.385 268.875, 318.545 271.688, 318.740 268.250 C 318.936 264.813, 318.936 259.188, 318.740 255.750 C 318.545 252.313, 318.385 255.125, 318.385 262 M 200.389 267.500 C 200.390 274.650, 200.550 277.444, 200.742 273.708 C 200.935 269.973, 200.934 264.123, 200.739 260.708 C 200.545 257.294, 200.387 260.350, 200.389 267.500 M 99.500 262.896 C 97.112 263.421, 96.857 263.696, 98.250 264.246 C 100.882 265.285, 100.355 267.704, 97.250 268.838 C 95.032 269.648, 96.143 269.844, 103 269.851 C 112.242 269.860, 114.500 269.300, 114.500 267 C 114.500 266.175, 115.175 265.645, 116 265.821 C 117.149 266.068, 117.227 265.864, 116.330 264.952 C 114.108 262.689, 105.326 261.616, 99.500 262.896 M 318.441 303 C 318.441 318.675, 318.579 325.087, 318.748 317.250 C 318.917 309.412, 318.917 296.587, 318.748 288.750 C 318.579 280.912, 318.441 287.325, 318.441 303 M 133.252 286.500 C 133.263 288.700, 133.468 289.482, 133.707 288.238 C 133.946 286.994, 133.937 285.194, 133.687 284.238 C 133.437 283.282, 133.241 284.300, 133.252 286.500 M 133.370 301 C 133.370 306.775, 133.535 309.137, 133.737 306.250 C 133.939 303.363, 133.939 298.637, 133.737 295.750 C 133.535 292.863, 133.370 295.225, 133.370 301 M 193.272 307 C 193.272 309.475, 193.467 310.488, 193.706 309.250 C 193.944 308.012, 193.944 305.988, 193.706 304.750 C 193.467 303.512, 193.272 304.525, 193.272 307 M 133.409 332.500 C 133.408 341.850, 133.558 345.810, 133.743 341.299 C 133.928 336.789, 133.929 329.139, 133.745 324.299 C 133.562 319.460, 133.410 323.150, 133.409 332.500" stroke="none" fill="#d0d7d7" fill-rule="evenodd"/><path d="M 105 189.695 C 96.036 190.655, 84.332 193.304, 82.750 194.731 C 81.265 196.071, 81 198.158, 81 208.497 L 81 220.683 84.750 221.781 C 91.427 223.735, 105.286 226.040, 114.139 226.669 C 122.110 227.236, 122.861 227.128, 123.854 225.272 C 125.054 223.032, 133.365 220.589, 143.697 219.442 L 149.894 218.754 150.279 215.127 L 150.664 211.500 150.832 215.317 C 150.979 218.648, 151.255 219.054, 153 218.500 C 154.100 218.151, 155 218.281, 155 218.789 C 155 219.297, 151.512 220.019, 147.250 220.393 C 137.054 221.288, 127.090 223.466, 125.486 225.150 C 124.635 226.043, 124.065 230.602, 123.800 238.628 L 123.400 250.756 132.950 252.950 C 150.500 256.983, 170.157 257.419, 188.500 254.182 L 192.500 253.476 193.082 247.488 L 193.664 241.500 193.832 247.164 L 194 252.827 196.750 252.093 L 199.500 251.360 199.783 240.175 C 199.948 233.656, 199.625 228.167, 199.009 227.017 C 198.389 225.859, 195.790 224.416, 192.726 223.529 C 185.839 221.534, 168.853 219.013, 162.250 219.006 L 157 219 157 208.023 C 157 197.720, 156.862 196.960, 154.750 195.650 C 147.676 191.259, 120.628 188.021, 105 189.695 M 101.497 195.156 C 101.163 196.488, 101.354 198.800, 101.921 200.293 L 102.953 203.008 117.227 202.657 C 131.998 202.294, 135 201.746, 135 199.416 C 135 196.404, 129.939 194.573, 121.096 194.385 C 116.368 194.285, 110.161 193.872, 107.302 193.468 C 102.364 192.770, 102.075 192.855, 101.497 195.156 M 102.385 195.439 C 102.029 196.368, 102.237 198.224, 102.847 199.564 C 103.704 201.444, 104.726 202, 107.329 202 C 111.783 202, 117.186 200.065, 116.722 198.636 C 116.195 197.017, 112.103 195.200, 107.224 194.420 C 103.815 193.875, 102.912 194.065, 102.385 195.439 M 104 197.441 C 104 200.605, 105.773 201.655, 107.760 199.669 C 109.052 198.377, 109.102 197.827, 108.042 196.550 C 106.093 194.203, 104 194.664, 104 197.441 M 105 198 C 105 199.949, 106.061 200.606, 107.264 199.402 C 108.066 198.601, 107.017 196, 105.893 196 C 105.402 196, 105 196.900, 105 198 M 86.486 200.550 C 89.179 202.605, 99.764 205.788, 108.403 207.140 C 121.161 209.136, 139.310 206.844, 149.393 201.963 C 151.652 200.869, 152.600 200.271, 151.500 200.633 C 132.317 206.949, 119.951 208.274, 105.566 205.555 C 100.652 204.626, 93.902 202.779, 90.566 201.450 C 87.060 200.053, 85.338 199.673, 86.486 200.550 M 85.187 210.161 C 85.469 213.014, 86.033 213.503, 90.964 215.173 C 93.970 216.191, 96.847 216.884, 97.358 216.714 C 97.870 216.543, 95.523 215.567, 92.144 214.544 C 86.971 212.977, 86 212.325, 86 210.415 C 86 209.096, 86.732 207.955, 87.750 207.689 C 89.032 207.354, 88.881 207.201, 87.187 207.116 C 85.171 207.015, 84.914 207.407, 85.187 210.161 M 95.500 210.536 C 97.150 211.292, 99.175 211.896, 100 211.879 C 100.825 211.862, 99.925 211.241, 98 210.500 C 93.434 208.742, 91.638 208.768, 95.500 210.536 M 117.633 213.515 C 117.285 214.422, 117.045 215.914, 117.100 216.832 C 117.160 217.841, 117.516 217.512, 118 216 C 118.753 213.650, 118.807 213.698, 118.900 216.809 C 118.960 218.781, 118.596 219.868, 118 219.500 C 117.450 219.160, 117 219.396, 117 220.024 C 117 222.714, 119.529 220.045, 119.823 217.046 C 120.184 213.352, 118.647 210.873, 117.633 213.515 M 111 216.500 C 111 220.643, 113.607 221.413, 114.575 217.557 C 115.288 214.716, 114.484 213, 112.441 213 C 111.461 213, 111 214.119, 111 216.500 M 102.500 217 L 98.500 217.716 102.750 217.858 C 105.088 217.936, 107 217.550, 107 217 C 107 216.450, 106.888 216.064, 106.750 216.142 C 106.612 216.220, 104.700 216.606, 102.500 217 M 144.750 223.566 C 143.253 225.098, 143.958 230.908, 145.750 231.807 C 147.651 232.761, 171.867 232.494, 175.048 231.485 C 177.691 230.646, 177.517 227.354, 174.750 225.838 C 173.512 225.161, 168.675 224.506, 164 224.384 C 159.325 224.261, 153.250 223.854, 150.500 223.480 C 147.750 223.105, 145.162 223.144, 144.750 223.566 M 145 226.738 C 145 228.398, 145.634 230.281, 146.409 230.924 C 148.179 232.394, 157.507 231.299, 159.049 229.440 C 160.647 227.516, 156.374 225.069, 150.126 224.329 L 145 223.721 145 226.738 M 146.590 225.854 C 145.567 227.509, 147.121 230, 149.177 230 C 150.638 230, 151.057 229.428, 150.820 227.760 C 150.489 225.442, 147.639 224.157, 146.590 225.854 M 147.638 227.500 C 147.955 228.325, 148.616 229, 149.107 229 C 149.598 229, 150 228.325, 150 227.500 C 150 226.675, 149.339 226, 148.531 226 C 147.637 226, 147.288 226.586, 147.638 227.500 M 128.295 229.999 C 132.194 232.498, 144.954 236.103, 153.708 237.179 C 160.778 238.048, 164.985 238.026, 171.717 237.084 C 179.849 235.947, 196.560 231.227, 195.656 230.322 C 195.438 230.105, 191.922 231.048, 187.841 232.417 C 171.698 237.836, 153.414 237.871, 137.500 232.513 C 125.612 228.510, 126.238 228.681, 128.295 229.999 M 80.328 238.500 C 80.333 242.350, 80.513 243.802, 80.730 241.728 C 80.946 239.653, 80.943 236.503, 80.722 234.728 C 80.501 232.952, 80.324 234.650, 80.328 238.500 M 128.630 240.250 C 127.574 244.192, 127.953 248.045, 129.455 248.621 C 131.725 249.492, 138.981 244.923, 139.667 242.191 C 140.432 239.143, 138.760 238.035, 133.367 238.015 C 129.919 238.003, 129.133 238.373, 128.630 240.250 M 78.124 258.608 C 73.517 259.380, 68.567 260.577, 67.124 261.269 L 64.500 262.527 64.500 275.430 C 64.500 284.864, 64.836 288.445, 65.750 288.750 C 66.612 289.037, 67 287.919, 67 285.148 C 67 282.938, 67.424 280.014, 67.943 278.651 L 68.885 276.171 74.693 277.890 C 80.482 279.603, 80.501 279.621, 80.807 283.804 C 81.107 287.884, 81.031 288, 78.057 288 C 74.694 288, 73.728 290.493, 76.750 291.377 C 88.604 294.843, 115.606 294.896, 130.700 291.484 C 132.598 291.055, 132.950 290.196, 133.261 285.243 L 133.622 279.500 133.811 285.198 L 134 290.896 137 289.850 L 140 288.804 140 277.057 C 140 263.335, 139.806 262.999, 130.500 260.662 C 114.987 256.766, 94.019 255.943, 78.124 258.608 M 84.667 260.667 C 83.358 261.976, 84.030 267.887, 85.674 269.531 C 86.893 270.750, 88.320 271.044, 90.924 270.614 C 92.891 270.288, 99.026 270.017, 104.559 270.011 C 111.743 270.003, 115.172 269.588, 116.559 268.558 C 118.466 267.141, 118.460 267.075, 116.223 264.808 C 114.223 262.782, 112.881 262.479, 105.223 262.327 C 100.425 262.232, 94.475 261.680, 92 261.101 C 86.646 259.849, 85.549 259.784, 84.667 260.667 M 85.390 262.427 C 85.088 263.212, 84.990 264.900, 85.171 266.177 C 85.461 268.222, 86.125 268.536, 90.720 268.801 C 101.868 269.445, 103.274 264.392, 92.482 262.467 C 89.202 261.883, 88.720 261.990, 89.750 263.079 C 91.686 265.125, 91.287 268, 89.067 268 C 86.695 268, 85.393 264.437, 87.040 262.452 C 87.926 261.385, 87.939 261, 87.091 261 C 86.456 261, 85.691 261.642, 85.390 262.427 M 68.500 267.786 C 70.272 269.699, 84.252 273.824, 93 275.015 C 104.889 276.633, 119.940 274.809, 130.908 270.420 C 137.464 267.797, 135.174 267.840, 126.806 270.497 C 107.482 276.633, 91.663 275.795, 69.500 267.458 C 68.091 266.928, 67.795 267.025, 68.500 267.786 M 85.667 280.667 C 85.300 281.033, 85 283.058, 85 285.167 C 85 288.581, 85.271 289, 87.481 289 C 89.268 289, 90.131 288.327, 90.566 286.593 C 91.588 282.522, 88.069 278.265, 85.667 280.667 M 86.658 281.675 C 86.296 282.037, 86 283.641, 86 285.240 C 86 287.469, 86.408 288.069, 87.750 287.813 C 89.940 287.396, 90.564 283.713, 88.706 282.171 C 87.942 281.537, 87.020 281.313, 86.658 281.675 M 194.750 315.689 C 193.290 316.071, 192.997 317.337, 192.985 323.323 C 192.976 327.270, 192.522 331.175, 191.974 332 C 191.299 333.019, 191.189 330.854, 191.634 325.250 C 191.993 320.712, 191.962 317, 191.564 317 C 191.166 317, 185.364 317.722, 178.670 318.604 C 167.089 320.130, 156.913 320.044, 144.250 318.310 L 140 317.728 140 327.261 L 140 336.793 148.750 338.121 C 165.570 340.674, 195.791 339.003, 198.485 335.371 C 199.321 334.244, 210.106 333.957, 259.500 333.743 L 319.500 333.484 259.250 333.242 L 199 333 199 324 C 199 314.726, 198.934 314.596, 194.750 315.689 M 140 339.433 C 140 341.117, 141.303 341.576, 150 342.955 C 167.427 345.717, 201.816 342.483, 197.793 338.459 C 197.477 338.144, 192.499 338.586, 186.731 339.443 C 173.614 341.390, 164.259 341.404, 151.587 339.494 C 139.521 337.675, 140 337.678, 140 339.433 M 63.333 362.352 C 63.652 368.483, 63.933 373.580, 63.957 373.678 C 64.131 374.395, 76.032 378.108, 83 379.619 C 93.500 381.897, 122.221 382.213, 131.313 380.151 C 138.464 378.528, 138.698 378.021, 138.926 363.620 L 139.099 352.741 136.799 353.357 C 135.535 353.696, 134.162 353.979, 133.750 353.986 C 133.338 353.994, 132.968 357.038, 132.930 360.750 C 132.891 364.462, 132.509 368.397, 132.081 369.494 C 131.653 370.591, 131.521 367.711, 131.788 363.095 L 132.274 354.701 127.955 355.391 C 108.186 358.552, 88.546 357.902, 71.712 353.530 L 62.752 351.203 63.333 362.352 M 64.618 369.974 C 66.072 371.357, 78.834 374.961, 87.835 376.530 C 102.444 379.078, 134.392 377.961, 137.500 374.794 C 138.175 374.106, 137.851 373.962, 136.500 374.350 C 120.757 378.872, 91.071 377.570, 71.376 371.493 C 67.174 370.196, 64.133 369.513, 64.618 369.974" stroke="none" fill="#d9ebf7" fill-rule="evenodd"/><path d="M 116.629 196.475 C 117.226 198.032, 120 198.639, 120 197.213 C 120 196.780, 120.900 196.358, 122 196.275 C 123.100 196.192, 124 196.546, 124 197.062 C 124 197.578, 123.550 198, 123 198 C 122.450 198, 122.007 199.012, 122.015 200.250 C 122.028 202.069, 122.216 202.213, 123 201 C 123.533 200.175, 123.979 199.950, 123.991 200.500 C 124.008 201.300, 127 196.369, 127 195.540 C 127 195.413, 124.535 195.228, 121.522 195.130 C 116.980 194.981, 116.144 195.211, 116.629 196.475 M 130.033 197.791 C 128.733 199.200, 128.758 199.307, 130.256 198.732 C 131.316 198.325, 132.319 198.721, 132.943 199.792 C 133.832 201.316, 133.942 201.324, 133.970 199.872 C 134.020 197.183, 131.717 195.965, 130.033 197.791 M 200.374 271.446 C 200.304 289.291, 199.920 310.441, 199.520 318.446 L 198.792 333 258.646 333 L 318.500 333 318.267 290.750 C 318.139 267.513, 318.026 246.363, 318.017 243.750 L 318 239 259.250 239 L 200.500 239 200.374 271.446 M 114.500 266 C 114.101 266.646, 114.224 267.624, 114.774 268.174 C 115.441 268.841, 116.016 268.783, 116.500 268 C 116.899 267.354, 116.776 266.376, 116.226 265.826 C 115.559 265.159, 114.984 265.217, 114.500 266" stroke="none" fill="#ced5d5" fill-rule="evenodd"/><path d="M 101.392 195.573 C 101.037 196.988, 101.228 198.628, 101.817 199.217 C 102.578 199.978, 102.715 199.625, 102.288 197.995 C 101.876 196.419, 102.266 195.278, 103.535 194.350 C 105.166 193.158, 105.187 193, 103.710 193 C 102.748 193, 101.764 194.092, 101.392 195.573 M 119.750 194.706 C 120.987 194.944, 123.013 194.944, 124.250 194.706 C 125.487 194.467, 124.475 194.272, 122 194.272 C 119.525 194.272, 118.513 194.467, 119.750 194.706 M 149.671 218.416 C 149.200 219.642, 149.734 220, 152.031 220 C 153.664 220, 155 219.502, 155 218.893 C 155 218.270, 154.270 218.066, 153.330 218.427 C 152.411 218.779, 151.349 218.565, 150.969 217.950 C 150.506 217.201, 150.078 217.355, 149.671 218.416 M 142 220 C 140.762 220.800, 140.849 220.960, 142.500 220.914 C 143.600 220.884, 145.400 220.473, 146.500 220 C 148.332 219.213, 148.290 219.136, 146 219.086 C 144.625 219.055, 142.825 219.467, 142 220 M 162.264 224.718 C 163.784 224.947, 166.034 224.941, 167.264 224.704 C 168.494 224.467, 167.250 224.279, 164.500 224.286 C 161.750 224.294, 160.744 224.488, 162.264 224.718 M 144 228.917 C 144 232.067, 149.791 234.059, 153 232.013 C 154.037 231.352, 153.383 231.236, 150.883 231.638 C 147.860 232.123, 146.998 231.836, 145.633 229.887 C 144.729 228.596, 144 228.163, 144 228.917 M 154.145 237.139 C 157.277 238.019, 168.048 238.038, 170.244 237.169 C 171.203 236.789, 167.443 236.478, 161.889 236.478 C 156.334 236.478, 152.850 236.776, 154.145 237.139 M 229.822 238.750 C 246.499 238.904, 273.499 238.903, 289.822 238.749 C 306.145 238.595, 292.500 238.469, 259.500 238.469 C 226.500 238.469, 213.145 238.596, 229.822 238.750 M 193.272 246 C 193.272 248.475, 193.467 249.488, 193.706 248.250 C 193.944 247.012, 193.944 244.988, 193.706 243.750 C 193.467 242.512, 193.272 243.525, 193.272 246 M 84.709 260.624 C 84.319 261.014, 84 261.798, 84 262.367 C 84 262.985, 84.482 262.918, 85.200 262.200 C 86.908 260.492, 88.487 260.708, 87.040 262.452 C 86.377 263.251, 86.127 264.826, 86.485 265.952 C 87.347 268.668, 88.480 268.559, 88.579 265.750 C 88.622 264.512, 88.847 262.836, 89.079 262.024 C 89.522 260.469, 85.994 259.339, 84.709 260.624 M 84.100 265.679 C 83.904 269.952, 87.578 271.833, 93 270.236 C 95.077 269.625, 94.660 269.415, 90.540 269 C 86.299 268.573, 85.480 268.137, 84.889 266 C 84.261 263.723, 84.190 263.695, 84.100 265.679 M 68.550 267.877 C 69.962 269.180, 81.182 273.152, 81.775 272.559 C 82.056 272.277, 81.659 271.829, 80.893 271.564 C 80.127 271.298, 77.025 270.162, 74 269.040 C 67.847 266.759, 67.186 266.618, 68.550 267.877 M 127.322 270.326 C 125.574 270.972, 123.774 271.909, 123.322 272.409 C 122.840 272.942, 123.263 273.044, 124.343 272.655 C 125.356 272.290, 127.269 271.720, 128.593 271.387 C 129.917 271.055, 131 270.382, 131 269.892 C 131 269.401, 130.887 269.034, 130.750 269.076 C 130.613 269.118, 129.070 269.680, 127.322 270.326 M 95.645 275.130 C 96.665 275.531, 99.750 275.859, 102.500 275.859 C 105.250 275.859, 108.335 275.531, 109.355 275.130 C 110.376 274.728, 107.291 274.400, 102.500 274.400 C 97.709 274.400, 94.624 274.728, 95.645 275.130 M 191.750 325.875 C 191.338 327.731, 191.014 330.206, 191.030 331.375 C 191.058 333.312, 191.152 333.344, 192.090 331.733 C 192.656 330.761, 192.979 328.286, 192.809 326.233 L 192.500 322.500 191.750 325.875 M 149.500 339 C 150.600 339.473, 152.175 339.884, 153 339.914 C 154.333 339.963, 154.333 339.862, 153 339 C 152.175 338.467, 150.600 338.055, 149.500 338.086 L 147.500 338.141 149.500 339 M 157.787 340.180 C 158.729 340.554, 163.775 340.859, 169 340.859 C 174.225 340.859, 179.271 340.554, 180.213 340.180 C 181.155 339.806, 176.109 339.500, 169 339.500 C 161.891 339.500, 156.845 339.806, 157.787 340.180 M 132.123 364.500 C 132.040 365.600, 131.741 367.625, 131.458 369 L 130.944 371.500 132.015 369.047 C 132.604 367.698, 132.903 365.673, 132.679 364.547 C 132.283 362.553, 132.268 362.552, 132.123 364.500 M 70.674 372.012 C 72.048 373.282, 76.320 374.327, 75.640 373.227 C 75.304 372.683, 73.864 372.016, 72.439 371.744 C 71.014 371.471, 70.220 371.592, 70.674 372.012 M 93 377 C 93.825 377.533, 95.625 377.931, 97 377.885 L 99.500 377.801 97 377 C 95.625 376.560, 93.825 376.161, 93 376.115 C 91.667 376.040, 91.667 376.138, 93 377 M 121.500 377 L 118.500 377.763 121.500 377.866 C 123.150 377.923, 125.175 377.533, 126 377 C 127.333 376.138, 127.333 376.042, 126 376.134 C 125.175 376.190, 123.150 376.580, 121.500 377 M 105.776 377.733 C 108.128 377.945, 111.728 377.942, 113.776 377.727 C 115.824 377.512, 113.900 377.339, 109.500 377.343 C 105.100 377.346, 103.424 377.522, 105.776 377.733" stroke="none" fill="#d2dde1" fill-rule="evenodd"/><path d="M 157.374 208.500 C 157.376 214.550, 157.541 216.896, 157.740 213.713 C 157.939 210.531, 157.937 205.581, 157.736 202.713 C 157.535 199.846, 157.372 202.450, 157.374 208.500 M 85.187 210.161 C 85.469 213.014, 86.033 213.503, 90.964 215.173 C 93.970 216.191, 96.847 216.884, 97.358 216.714 C 97.870 216.543, 95.523 215.567, 92.144 214.544 C 86.971 212.977, 86 212.325, 86 210.415 C 86 209.096, 86.732 207.955, 87.750 207.689 C 89.032 207.354, 88.881 207.201, 87.187 207.116 C 85.171 207.015, 84.914 207.407, 85.187 210.161 M 95.500 210.536 C 97.150 211.292, 99.175 211.896, 100 211.879 C 100.825 211.862, 99.925 211.241, 98 210.500 C 93.434 208.742, 91.638 208.768, 95.500 210.536 M 117.633 213.515 C 117.285 214.422, 117.045 215.914, 117.100 216.832 C 117.160 217.841, 117.516 217.512, 118 216 C 118.753 213.650, 118.807 213.698, 118.900 216.809 C 118.960 218.781, 118.596 219.868, 118 219.500 C 117.450 219.160, 117 219.396, 117 220.024 C 117 222.714, 119.529 220.045, 119.823 217.046 C 120.184 213.352, 118.647 210.873, 117.633 213.515 M 102.500 217 L 98.500 217.716 102.750 217.858 C 105.088 217.936, 107 217.550, 107 217 C 107 216.450, 106.888 216.064, 106.750 216.142 C 106.612 216.220, 104.700 216.606, 102.500 217 M 80.310 226.500 C 80.315 229.800, 80.502 231.029, 80.725 229.232 C 80.947 227.435, 80.943 224.735, 80.715 223.232 C 80.486 221.729, 80.304 223.200, 80.310 226.500 M 63.395 278.500 C 63.396 286.200, 63.553 289.218, 63.743 285.206 C 63.934 281.195, 63.932 274.895, 63.741 271.206 C 63.549 267.518, 63.393 270.800, 63.395 278.500 M 140.272 280 C 140.272 282.475, 140.467 283.488, 140.706 282.250 C 140.944 281.012, 140.944 278.988, 140.706 277.750 C 140.467 276.512, 140.272 277.525, 140.272 280 M 85.667 280.667 C 85.300 281.033, 85 283.058, 85 285.167 C 85 288.581, 85.271 289, 87.481 289 C 89.268 289, 90.131 288.327, 90.566 286.593 C 91.142 284.298, 89.374 279.292, 88.350 280.317 C 88.081 280.586, 88.414 281.689, 89.089 282.770 C 90.583 285.164, 89.667 288, 87.400 288 C 86.037 288, 85.833 287.278, 86.273 284 C 86.830 279.846, 86.777 279.556, 85.667 280.667 M 74 299.930 C 74 300.442, 72.987 301.056, 71.750 301.294 C 69.821 301.666, 69.892 301.747, 72.250 301.864 C 74.088 301.955, 75 301.503, 75 300.500 C 75 299.675, 74.775 299, 74.500 299 C 74.225 299, 74 299.419, 74 299.930 M 163.750 344.732 C 166.088 344.943, 169.912 344.943, 172.250 344.732 C 174.588 344.522, 172.675 344.349, 168 344.349 C 163.325 344.349, 161.412 344.522, 163.750 344.732 M 139.320 357 C 139.320 360.575, 139.502 362.038, 139.723 360.250 C 139.945 358.462, 139.945 355.538, 139.723 353.750 C 139.502 351.962, 139.320 353.425, 139.320 357" stroke="none" fill="#fbfbfb" fill-rule="evenodd"/></svg>