<svg xmlns="http://www.w3.org/2000/svg" width="600" height="600" viewBox="0 0 600 600" version="1.1"><path d="M 100.032 174.019 C 89.830 175.451, 78.143 178.175, 76.240 179.565 C 74.672 180.711, 74.415 184.371, 73.641 216.668 C 73.086 239.848, 72.410 252.733, 71.726 253.161 C 71.145 253.525, 68.606 254.130, 66.085 254.506 C 58.380 255.656, 55.377 257.364, 54.648 261.012 C 54.291 262.793, 54 291.333, 54 324.434 C 54 371.073, 54.281 384.973, 55.250 386.195 C 56.644 387.955, 65.881 391.146, 76.500 393.536 C 87.243 395.954, 117.283 396.610, 128.414 394.670 C 134.019 393.693, 137.997 392.445, 139.130 391.308 C 140.680 389.751, 141.014 386.998, 141.528 371.500 C 142.333 347.221, 141.808 348.854, 148.247 350.620 C 152.736 351.851, 180.472 352.051, 339 351.997 C 458.603 351.957, 525.817 351.581, 528.208 350.940 C 533.450 349.534, 539.942 344.265, 543.479 338.544 L 546.500 333.657 546.500 286.078 C 546.500 239.171, 546.469 238.443, 544.330 234.447 C 541.473 229.110, 536.448 224.196, 531.500 221.900 C 527.657 220.117, 521.291 220.043, 369.725 220.022 L 211.950 220 211.016 217.541 C 210.283 215.615, 208.609 214.642, 203.290 213.054 C 194.151 210.324, 179.077 208.009, 170.404 208.004 L 163.309 208 162.665 195.296 C 162.251 187.134, 161.570 182.167, 160.760 181.402 C 155.415 176.353, 116.825 171.661, 100.032 174.019 M 95 190.679 C 80.722 193.186, 81.604 192.010, 80.879 209.510 C 80.538 217.755, 80.200 232.029, 80.129 241.231 C 80.002 257.731, 79.969 257.968, 77.750 258.424 C 66.009 260.833, 64.846 261.276, 63.931 263.681 C 63.399 265.082, 63 288.992, 63 319.542 L 63 372.954 65.357 374.498 C 66.653 375.348, 72.166 377.204, 77.607 378.624 C 95.216 383.219, 131.297 382.927, 137.001 378.144 C 138.755 376.673, 139.032 374.678, 139.637 359.156 L 140.313 341.813 143.390 342.428 C 157.371 345.224, 174.969 345.388, 189.767 342.860 C 196.209 341.759, 199 339.618, 199 335.777 C 199 334.159, 200.247 334, 212.917 334 C 221.280 334, 226.966 333.602, 227.167 333.003 C 227.350 332.454, 227.379 310.854, 227.231 285.003 L 226.961 238 213.481 238 L 200 238 200 232.691 C 200 229.771, 199.438 226.634, 198.750 225.719 C 196.880 223.231, 182 219.998, 169.250 219.310 L 158 218.703 158 208.786 C 158 203.331, 157.542 198.013, 156.983 196.968 C 153.655 190.749, 116.227 186.951, 95 190.679 M 111.607 214.582 C 110.579 217.262, 110.930 219, 112.500 219 C 113.500 219, 114 218, 114 216 C 114 212.794, 112.609 211.970, 111.607 214.582 M 128.963 240.598 C 127.538 244.345, 128.113 247.406, 130.320 247.827 C 132.604 248.262, 140 243.463, 140 241.545 C 140 239.704, 139.375 239.375, 134.258 238.529 C 130.269 237.869, 129.953 237.992, 128.963 240.598 M 102.528 239.954 C 101.812 241.114, 102.903 246.027, 104.260 247.750 C 104.802 248.438, 105.865 249, 106.622 249 C 108.371 249, 108.514 241.914, 106.800 240.200 C 105.358 238.758, 103.339 238.642, 102.528 239.954 M 115.559 242.887 C 113.593 246.688, 113.578 248.901, 115.513 249.643 C 118.076 250.627, 120.130 248.002, 119.801 244.163 C 119.412 239.632, 117.534 239.067, 115.559 242.887 M 94 247.326 C 94 249.981, 97.802 254, 100.314 254 C 102.684 254, 102.413 252.231, 99.449 248.344 C 96.465 244.432, 94 243.971, 94 247.326 M 107 255 C 106.018 256.835, 106.241 257.001, 109.715 257.014 C 111.797 257.021, 114.625 257.313, 116 257.662 L 118.500 258.296 116.076 255.648 C 113.106 252.405, 108.563 252.080, 107 255 M 146.119 269.356 C 144.562 271.233, 145.440 276.290, 147.640 278.117 C 150.898 280.820, 152.260 273.777, 149.208 270.008 C 147.606 268.031, 147.277 267.961, 146.119 269.356 M 158.593 272.170 C 156.265 275.494, 156.479 280, 158.965 280 C 161.387 280, 163.228 276.783, 162.812 273.278 C 162.401 269.823, 160.574 269.343, 158.593 272.170 M 67.469 286.578 C 66.636 297.677, 67.556 301, 71.460 301 C 74.219 301, 74.788 299.644, 75.236 292 C 75.486 287.741, 75.647 287.515, 78.250 287.788 C 80.769 288.052, 81 287.789, 81 284.660 C 81 282.782, 80.438 280.819, 79.750 280.298 C 78.457 279.317, 71.062 277, 69.227 277 C 68.629 277, 67.882 281.070, 67.469 286.578 M 141 280.309 C 141 282.923, 141.438 284, 142.500 284 C 144.401 284, 144.384 281.091, 142.468 278.559 C 141.092 276.739, 141 276.849, 141 280.309 M 166.627 279.250 C 165.847 280.488, 164.906 282.512, 164.537 283.750 C 164.009 285.520, 164.264 286, 165.733 286 C 168.507 286, 170 284.006, 170 280.300 C 170 276.467, 168.648 276.046, 166.627 279.250 M 150.299 284.250 C 147.492 287.332, 145.947 290.515, 144.386 296.434 C 142.709 302.789, 143.532 303.671, 149.564 301.982 C 153.704 300.823, 154.611 300.874, 157.505 302.433 C 164.622 306.266, 167.594 299.103, 162.496 290.403 C 160.143 286.387, 155.326 282, 153.270 282 C 152.763 282, 151.426 283.012, 150.299 284.250 M 85.523 307.927 C 84.720 310.456, 87.596 317.299, 89.236 316.761 C 92.124 315.812, 90.625 306, 87.592 306 C 86.791 306, 85.860 306.867, 85.523 307.927 M 98.241 309.986 C 96.533 312.720, 96.683 316.941, 98.513 317.643 C 101.008 318.601, 103 316.041, 103 311.878 C 103 308.843, 102.617 308, 101.241 308 C 100.273 308, 98.923 308.894, 98.241 309.986 M 76 314.507 C 76 316.302, 81.220 322, 82.864 322 C 84.957 322, 84.897 320.143, 82.699 316.873 C 80.227 313.196, 76 311.704, 76 314.507 M 107.750 316.240 C 105.154 318.211, 103.689 322.943, 105.463 323.624 C 107.423 324.376, 108.940 323.289, 110.067 320.324 C 111.363 316.915, 110.007 314.526, 107.750 316.240 M 90.131 322.360 C 87.379 325.290, 84 333.979, 84 338.127 C 84 341.013, 84.195 341.185, 86.750 340.556 C 93.429 338.911, 94.897 338.895, 97.877 340.436 C 104.319 343.767, 107.756 338.259, 104.034 330.570 C 101.806 325.968, 95.937 320, 93.640 320 C 92.930 320, 91.351 321.062, 90.131 322.360" stroke="none" fill="#ffffff" fill-rule="evenodd"/><path d="M 80.995 229.633 C 80.992 234.510, 80.703 242.826, 80.353 248.113 L 79.716 257.726 92.108 257.248 C 103.649 256.803, 104.686 256.597, 107.202 254.244 C 109.634 251.970, 110.197 251.839, 112.835 252.932 C 114.447 253.599, 116.716 255.238, 117.876 256.573 C 119.037 257.908, 121.012 259, 122.265 259 C 126.062 259, 138.203 262.712, 139.115 264.152 C 139.585 264.893, 139.976 267.685, 139.985 270.356 C 139.996 274.062, 140.592 275.915, 142.500 278.182 C 145.686 281.969, 145.709 284, 142.566 284 C 140.665 284, 140.064 284.592, 139.816 286.710 C 139.590 288.650, 138.789 289.586, 137 290.002 C 134.576 290.566, 134.483 290.903, 133.946 301.042 L 133.391 311.500 133.196 301.183 C 133.019 291.871, 132.829 290.917, 131.250 291.395 C 119.778 294.866, 88.648 294.855, 76.750 291.377 C 75.232 290.933, 75 291.602, 75 296.433 C 75 302.373, 74.523 302.783, 69.250 301.370 C 67.246 300.833, 67 300.135, 67 294.990 C 67 290.910, 66.581 289.053, 65.573 288.666 C 63.412 287.837, 62.848 296.692, 63.196 325.972 L 63.500 351.445 72.486 353.687 C 85.145 356.846, 100.732 358.123, 113.203 357.022 C 125.742 355.915, 131.999 354.950, 132.002 354.122 C 132.004 353.780, 133.365 353.452, 135.027 353.392 C 136.689 353.333, 138.375 352.959, 138.774 352.562 C 139.173 352.164, 139.642 344.217, 139.816 334.901 L 140.132 317.964 148.316 318.732 C 166.712 320.458, 191.985 318.385, 192.015 315.147 C 192.027 313.841, 192.209 313.781, 192.890 314.857 C 193.840 316.355, 197.961 315.548, 199.235 313.615 C 199.639 313.002, 199.976 298.686, 199.985 281.802 L 200 251.104 197.015 252.145 L 194.030 253.185 193.749 282.343 L 193.469 311.500 193.234 282.435 L 193 253.370 185.250 254.791 C 180.881 255.593, 171.175 256.218, 163 256.225 C 148.876 256.237, 147.177 256.013, 125.250 251.255 C 123.271 250.826, 123 251.166, 123 254.083 C 123 256.573, 122.715 257.115, 121.856 256.256 C 121.026 255.426, 121.002 254.341, 121.771 252.306 C 123.617 247.421, 124.037 242.882, 123.377 234.963 L 122.735 227.268 113.105 226.604 C 104.733 226.028, 90.302 223.529, 83.250 221.435 C 81.036 220.777, 81 220.908, 80.995 229.633 M 102.445 240.361 C 101.707 243.303, 102.541 246.398, 104.637 248.494 C 106.846 250.703, 107.763 250.356, 108.492 247.036 C 109.787 241.139, 103.885 234.624, 102.445 240.361 M 115.087 242.338 C 113.236 245.796, 114.029 250.500, 116.462 250.500 C 119.123 250.500, 121.486 246.072, 120.635 242.681 C 119.791 239.317, 116.802 239.132, 115.087 242.338 M 93.429 247.750 C 94.071 250.482, 98.220 255, 100.087 255 C 102.140 255, 102.106 251.908, 100.016 248.525 C 98.453 245.996, 97.123 245, 95.310 245 C 93.064 245, 92.855 245.305, 93.429 247.750 M 145.667 268.667 C 144.646 269.688, 144.874 274.896, 146.035 277.066 C 146.605 278.130, 147.955 279, 149.035 279 C 150.621 279, 151 278.312, 151 275.434 C 151 269.832, 148.136 266.197, 145.667 268.667 M 159.242 270.543 C 155.560 273.122, 155.416 281, 159.051 281 C 161.055 281, 163 277.547, 163 273.988 C 163 269.410, 162.073 268.560, 159.242 270.543 M 166.573 278.570 C 164.497 280.646, 163.488 284.888, 164.766 286.166 C 167.345 288.745, 172.159 282.463, 170.639 278.502 C 169.899 276.573, 168.547 276.596, 166.573 278.570 M 149.693 283.787 C 147.380 286.343, 144.199 293.901, 143.441 298.645 C 142.632 303.706, 144.317 304.657, 150.036 302.369 C 153.679 300.911, 154.218 300.913, 156.471 302.389 C 157.823 303.275, 159.776 304, 160.810 304 C 163.274 304, 166 300.918, 166 298.131 C 166 292.740, 157.702 282, 153.536 282 C 152.312 282, 150.582 282.804, 149.693 283.787 M 85.667 306.667 C 84.289 308.044, 85.052 313.737, 86.829 315.345 C 89.850 318.080, 91 317.350, 91 312.700 C 91 307.403, 88.152 304.181, 85.667 306.667 M 98.668 309.188 C 96.180 313.129, 95.815 315.672, 97.495 317.352 C 100.632 320.490, 103.562 316.697, 102.828 310.448 C 102.403 306.832, 100.516 306.260, 98.668 309.188 M 76.701 312.632 C 74.291 315.042, 78.652 322, 82.573 322 C 85.616 322, 85.656 320.270, 82.715 315.905 C 80.462 312.562, 78.072 311.261, 76.701 312.632 M 105.375 318.339 C 103.723 321.805, 104.007 325, 105.969 325 C 108.168 325, 111.118 320.855, 110.811 318.198 C 110.335 314.096, 107.362 314.174, 105.375 318.339 M 133.409 332.500 C 133.408 341.850, 133.558 345.810, 133.743 341.299 C 133.928 336.789, 133.929 329.139, 133.745 324.299 C 133.562 319.460, 133.410 323.150, 133.409 332.500 M 89.693 321.787 C 87.147 324.600, 83.974 332.530, 83.726 336.698 C 83.477 340.879, 82.809 340.649, 93 339.880 C 94.375 339.777, 96.940 340.301, 98.700 341.046 C 101.558 342.256, 102.118 342.203, 103.950 340.545 C 107.644 337.202, 105.789 330.099, 99.471 323.400 C 95.875 319.588, 92.228 318.986, 89.693 321.787" stroke="none" fill="#efceff" fill-rule="evenodd"/><path d="M 100.032 174.019 C 89.830 175.451, 78.143 178.175, 76.240 179.565 C 74.672 180.711, 74.415 184.371, 73.641 216.668 C 73.086 239.848, 72.410 252.733, 71.726 253.161 C 71.145 253.525, 68.606 254.130, 66.085 254.506 C 58.380 255.656, 55.377 257.364, 54.648 261.012 C 54.291 262.793, 54 291.333, 54 324.434 C 54 371.073, 54.281 384.973, 55.250 386.195 C 56.644 387.955, 65.881 391.146, 76.500 393.536 C 87.243 395.954, 117.283 396.610, 128.414 394.670 C 134.019 393.693, 137.997 392.445, 139.130 391.308 C 140.680 389.751, 141.014 386.998, 141.528 371.500 C 142.333 347.221, 141.808 348.854, 148.247 350.620 C 152.736 351.851, 180.472 352.051, 339 351.997 C 458.603 351.957, 525.817 351.581, 528.208 350.940 C 533.450 349.534, 539.942 344.265, 543.479 338.544 L 546.500 333.657 546.500 286.078 C 546.500 239.171, 546.469 238.443, 544.330 234.447 C 541.473 229.110, 536.448 224.196, 531.500 221.900 C 527.657 220.117, 521.291 220.043, 369.725 220.022 L 211.950 220 211.016 217.541 C 210.283 215.615, 208.609 214.642, 203.290 213.054 C 194.151 210.324, 179.077 208.009, 170.404 208.004 L 163.309 208 162.665 195.296 C 162.251 187.134, 161.570 182.167, 160.760 181.402 C 155.415 176.353, 116.825 171.661, 100.032 174.019 M 95 190.679 C 80.722 193.186, 81.604 192.010, 80.879 209.510 C 80.538 217.755, 80.200 232.029, 80.129 241.231 C 80.002 257.731, 79.969 257.968, 77.750 258.424 C 66.009 260.833, 64.846 261.276, 63.931 263.681 C 63.399 265.082, 63 288.992, 63 319.542 L 63 372.954 65.357 374.498 C 66.653 375.348, 72.166 377.204, 77.607 378.624 C 95.216 383.219, 131.297 382.927, 137.001 378.144 C 138.755 376.673, 139.032 374.678, 139.637 359.156 L 140.313 341.813 143.390 342.428 C 157.371 345.224, 174.969 345.388, 189.767 342.860 C 196.209 341.759, 199 339.618, 199 335.777 C 199 334.159, 200.247 334, 212.917 334 C 221.280 334, 226.966 333.602, 227.167 333.003 C 227.350 332.454, 227.379 310.854, 227.231 285.003 L 226.961 238 213.481 238 L 200 238 200 232.691 C 200 229.771, 199.438 226.634, 198.750 225.719 C 196.880 223.231, 182 219.998, 169.250 219.310 L 158 218.703 158 208.786 C 158 203.331, 157.542 198.013, 156.983 196.968 C 153.655 190.749, 116.227 186.951, 95 190.679 M 111.607 214.582 C 110.579 217.262, 110.930 219, 112.500 219 C 113.500 219, 114 218, 114 216 C 114 212.794, 112.609 211.970, 111.607 214.582 M 128.963 240.598 C 127.538 244.345, 128.113 247.406, 130.320 247.827 C 132.604 248.262, 140 243.463, 140 241.545 C 140 239.704, 139.375 239.375, 134.258 238.529 C 130.269 237.869, 129.953 237.992, 128.963 240.598 M 102.528 239.954 C 101.812 241.114, 102.903 246.027, 104.260 247.750 C 104.802 248.438, 105.865 249, 106.622 249 C 108.371 249, 108.514 241.914, 106.800 240.200 C 105.358 238.758, 103.339 238.642, 102.528 239.954 M 115.559 242.887 C 113.593 246.688, 113.578 248.901, 115.513 249.643 C 118.076 250.627, 120.130 248.002, 119.801 244.163 C 119.412 239.632, 117.534 239.067, 115.559 242.887 M 94 247.326 C 94 249.981, 97.802 254, 100.314 254 C 102.684 254, 102.413 252.231, 99.449 248.344 C 96.465 244.432, 94 243.971, 94 247.326 M 107 255 C 106.018 256.835, 106.241 257.001, 109.715 257.014 C 111.797 257.021, 114.625 257.313, 116 257.662 L 118.500 258.296 116.076 255.648 C 113.106 252.405, 108.563 252.080, 107 255 M 146.119 269.356 C 144.562 271.233, 145.440 276.290, 147.640 278.117 C 150.898 280.820, 152.260 273.777, 149.208 270.008 C 147.606 268.031, 147.277 267.961, 146.119 269.356 M 158.593 272.170 C 156.265 275.494, 156.479 280, 158.965 280 C 161.387 280, 163.228 276.783, 162.812 273.278 C 162.401 269.823, 160.574 269.343, 158.593 272.170 M 67.469 286.578 C 66.636 297.677, 67.556 301, 71.460 301 C 74.219 301, 74.788 299.644, 75.236 292 C 75.486 287.741, 75.647 287.515, 78.250 287.788 C 80.769 288.052, 81 287.789, 81 284.660 C 81 282.782, 80.438 280.819, 79.750 280.298 C 78.457 279.317, 71.062 277, 69.227 277 C 68.629 277, 67.882 281.070, 67.469 286.578 M 141 280.309 C 141 282.923, 141.438 284, 142.500 284 C 144.401 284, 144.384 281.091, 142.468 278.559 C 141.092 276.739, 141 276.849, 141 280.309 M 166.627 279.250 C 165.847 280.488, 164.906 282.512, 164.537 283.750 C 164.009 285.520, 164.264 286, 165.733 286 C 168.507 286, 170 284.006, 170 280.300 C 170 276.467, 168.648 276.046, 166.627 279.250 M 150.299 284.250 C 147.492 287.332, 145.947 290.515, 144.386 296.434 C 142.709 302.789, 143.532 303.671, 149.564 301.982 C 153.704 300.823, 154.611 300.874, 157.505 302.433 C 164.622 306.266, 167.594 299.103, 162.496 290.403 C 160.143 286.387, 155.326 282, 153.270 282 C 152.763 282, 151.426 283.012, 150.299 284.250 M 85.523 307.927 C 84.720 310.456, 87.596 317.299, 89.236 316.761 C 92.124 315.812, 90.625 306, 87.592 306 C 86.791 306, 85.860 306.867, 85.523 307.927 M 98.241 309.986 C 96.533 312.720, 96.683 316.941, 98.513 317.643 C 101.008 318.601, 103 316.041, 103 311.878 C 103 308.843, 102.617 308, 101.241 308 C 100.273 308, 98.923 308.894, 98.241 309.986 M 76 314.507 C 76 316.302, 81.220 322, 82.864 322 C 84.957 322, 84.897 320.143, 82.699 316.873 C 80.227 313.196, 76 311.704, 76 314.507 M 107.750 316.240 C 105.154 318.211, 103.689 322.943, 105.463 323.624 C 107.423 324.376, 108.940 323.289, 110.067 320.324 C 111.363 316.915, 110.007 314.526, 107.750 316.240 M 90.131 322.360 C 87.379 325.290, 84 333.979, 84 338.127 C 84 341.013, 84.195 341.185, 86.750 340.556 C 93.429 338.911, 94.897 338.895, 97.877 340.436 C 104.319 343.767, 107.756 338.259, 104.034 330.570 C 101.806 325.968, 95.937 320, 93.640 320 C 92.930 320, 91.351 321.062, 90.131 322.360" stroke="none" fill="#ffffff" fill-rule="evenodd"/><path d="M 104.116 197.250 C 104.209 199.054, 104.325 199.139, 104.703 197.677 C 104.990 196.569, 105.750 196.074, 106.639 196.415 C 107.460 196.730, 107.835 196.543, 107.493 195.989 C 106.321 194.093, 103.998 194.961, 104.116 197.250 M 127.729 196.111 C 126.755 196.668, 126.182 197.485, 126.455 197.928 C 126.729 198.371, 126.036 199.562, 124.915 200.577 C 123.170 202.156, 122.746 202.211, 121.958 200.960 C 121.334 199.970, 121.515 199.142, 122.519 198.390 C 123.333 197.779, 124 196.937, 124 196.517 C 124 196.098, 123.369 196.279, 122.597 196.919 C 121.520 197.813, 121.074 197.784, 120.676 196.792 C 120.362 196.010, 120.127 196.233, 120.079 197.357 C 120.026 198.610, 119.496 199.020, 118.448 198.618 C 117.552 198.275, 117.156 198.444, 117.511 199.019 C 117.850 199.566, 117.426 200.283, 116.569 200.612 C 115.712 200.941, 115.260 201.612, 115.565 202.105 C 116.712 203.961, 133.017 202.565, 132.978 200.614 C 132.966 200.001, 132.178 198.510, 131.228 197.299 C 129.880 195.583, 129.110 195.322, 127.729 196.111 M 115.776 207.733 C 118.128 207.945, 121.728 207.942, 123.776 207.727 C 125.824 207.512, 123.900 207.339, 119.500 207.343 C 115.100 207.346, 113.424 207.522, 115.776 207.733 M 150.160 215.184 C 150.021 218.384, 149.640 218.922, 147.250 219.284 C 145.463 219.554, 146.076 219.747, 149 219.835 C 151.475 219.909, 152.974 219.635, 152.331 219.226 C 151.689 218.817, 150.973 216.911, 150.741 214.991 L 150.320 211.500 150.160 215.184 M 144.390 224.427 C 144.088 225.212, 144.009 226.900, 144.214 228.177 C 144.488 229.886, 144.721 229.509, 145.093 226.750 C 145.616 222.868, 145.339 221.952, 144.390 224.427 M 155.223 225.278 C 156.416 225.720, 158.065 226.625, 158.888 227.290 C 160.101 228.271, 160.224 228.234, 159.537 227.095 C 158.946 226.115, 159.059 225.918, 159.911 226.445 C 160.838 227.018, 160.755 227.614, 159.565 228.928 C 158.704 229.879, 158 230.990, 158 231.396 C 158 232.151, 172.038 231.974, 175.302 231.179 C 177.689 230.597, 177.194 226.445, 174.760 226.637 C 173.804 226.712, 173.268 226.375, 173.570 225.887 C 174.158 224.935, 171.632 224.682, 160.277 224.556 C 155.593 224.504, 153.816 224.758, 155.223 225.278 M 148.343 225.649 C 149.571 226.004, 150.019 226.819, 149.686 228.091 C 149.412 229.141, 149.626 230, 150.163 230 C 152.106 230, 150.515 225.522, 148.500 225.318 C 146.771 225.142, 146.750 225.187, 148.343 225.649 M 123.300 232 C 123.300 235.025, 123.487 236.262, 123.716 234.750 C 123.945 233.238, 123.945 230.762, 123.716 229.250 C 123.487 227.738, 123.300 228.975, 123.300 232 M 159.750 237.706 C 160.988 237.944, 163.012 237.944, 164.250 237.706 C 165.488 237.467, 164.475 237.272, 162 237.272 C 159.525 237.272, 158.512 237.467, 159.750 237.706 M 206.206 238.741 C 209.895 238.932, 216.195 238.934, 220.206 238.743 C 224.218 238.553, 221.200 238.396, 213.500 238.395 C 205.800 238.393, 202.518 238.549, 206.206 238.741 M 193.310 248.500 C 193.315 251.800, 193.502 253.029, 193.725 251.232 C 193.947 249.435, 193.943 246.735, 193.715 245.232 C 193.486 243.729, 193.304 245.200, 193.310 248.500 M 193.420 276.500 C 193.419 287.500, 193.565 292.136, 193.745 286.803 C 193.924 281.470, 193.925 272.470, 193.746 266.803 C 193.568 261.136, 193.421 265.500, 193.420 276.500 M 85.200 261.200 C 83.424 262.976, 83.744 267.562, 85.750 269.079 C 87.239 270.206, 87.313 270.194, 86.250 269.002 C 84.416 266.946, 84.712 262.267, 86.750 261.080 C 87.713 260.519, 88.028 260.047, 87.450 260.030 C 86.873 260.014, 85.860 260.540, 85.200 261.200 M 98.678 262.703 C 96.933 263.154, 96.932 263.230, 98.640 264.479 C 100.121 265.562, 100.206 266.047, 99.139 267.332 C 98.432 268.184, 96.649 269.066, 95.177 269.291 C 93.705 269.516, 96.851 269.768, 102.168 269.850 C 113.514 270.026, 114.983 269.651, 114.229 266.767 C 113.790 265.090, 114.027 264.796, 115.391 265.320 C 116.372 265.696, 116.852 265.570, 116.516 265.026 C 115.113 262.756, 104.046 261.315, 98.678 262.703 M 200.252 267.500 C 200.263 269.700, 200.468 270.482, 200.707 269.238 C 200.946 267.994, 200.937 266.194, 200.687 265.238 C 200.437 264.282, 200.241 265.300, 200.252 267.500 M 133.320 286 C 133.320 289.575, 133.502 291.038, 133.723 289.250 C 133.945 287.462, 133.945 284.538, 133.723 282.750 C 133.502 280.962, 133.320 282.425, 133.320 286 M 133.328 304.500 C 133.333 308.350, 133.513 309.802, 133.730 307.728 C 133.946 305.653, 133.943 302.503, 133.722 300.728 C 133.501 298.952, 133.324 300.650, 133.328 304.500 M 193.252 307.500 C 193.263 309.700, 193.468 310.482, 193.707 309.238 C 193.946 307.994, 193.937 306.194, 193.687 305.238 C 193.437 304.282, 193.241 305.300, 193.252 307.500 M 192.328 320.500 C 192.333 324.350, 192.513 325.802, 192.730 323.728 C 192.946 321.653, 192.943 318.503, 192.722 316.728 C 192.501 314.952, 192.324 316.650, 192.328 320.500 M 133.409 332.500 C 133.408 341.850, 133.558 345.810, 133.743 341.299 C 133.928 336.789, 133.929 329.139, 133.745 324.299 C 133.562 319.460, 133.410 323.150, 133.409 332.500 M 153.762 339.707 C 155.006 339.946, 156.806 339.937, 157.762 339.687 C 158.718 339.437, 157.700 339.241, 155.500 339.252 C 153.300 339.263, 152.518 339.468, 153.762 339.707 M 180.762 339.707 C 182.006 339.946, 183.806 339.937, 184.762 339.687 C 185.718 339.437, 184.700 339.241, 182.500 339.252 C 180.300 339.263, 179.518 339.468, 180.762 339.707 M 166.250 340.716 C 167.762 340.945, 170.238 340.945, 171.750 340.716 C 173.262 340.487, 172.025 340.300, 169 340.300 C 165.975 340.300, 164.738 340.487, 166.250 340.716 M 132.320 359 C 132.320 362.575, 132.502 364.038, 132.723 362.250 C 132.945 360.462, 132.945 357.538, 132.723 355.750 C 132.502 353.962, 132.320 355.425, 132.320 359 M 98.264 377.718 C 99.784 377.947, 102.034 377.941, 103.264 377.704 C 104.494 377.467, 103.250 377.279, 100.500 377.286 C 97.750 377.294, 96.744 377.488, 98.264 377.718 M 115.250 377.716 C 116.763 377.945, 119.237 377.945, 120.750 377.716 C 122.263 377.487, 121.025 377.300, 118 377.300 C 114.975 377.300, 113.737 377.487, 115.250 377.716" stroke="none" fill="#d1d9da" fill-rule="evenodd"/><path d="M 105 189.611 C 96.743 190.632, 85.330 193.245, 83.250 194.591 C 81.123 195.967, 81 196.700, 81 208.048 L 81 220.050 83.750 221.097 C 88.494 222.904, 104.131 225.756, 113.298 226.487 C 121.788 227.163, 122.177 227.101, 124.375 224.730 C 126.136 222.829, 128.678 221.900, 135.576 220.634 C 140.484 219.733, 145.738 218.997, 147.250 218.998 C 149.733 219, 150.016 218.636, 150.160 215.250 C 150.318 211.558, 150.326 211.550, 150.723 214.750 C 151.022 217.159, 151.628 218, 153.063 218 C 154.129 218, 155 218.384, 155 218.853 C 155 219.323, 151.627 219.992, 147.506 220.340 C 143.384 220.688, 136.831 221.697, 132.945 222.581 C 127.375 223.848, 125.700 224.659, 125.033 226.414 C 124.227 228.533, 123.115 251.227, 123.853 250.483 C 124.047 250.288, 125.397 250.588, 126.853 251.151 C 138.019 255.469, 165.240 257.375, 182 255.013 C 193.638 253.372, 193.346 253.566, 192.677 247.920 C 192.360 245.245, 192.528 242.792, 193.050 242.469 C 193.606 242.126, 194 244.154, 194 247.354 L 194 252.827 196.750 252.093 L 199.500 251.360 199.783 240.175 C 199.943 233.830, 199.620 228.159, 199.036 227.067 C 198.437 225.947, 195.719 224.479, 192.528 223.551 C 185.441 221.491, 168.955 219.013, 162.283 219.006 L 157.066 219 156.783 207.761 L 156.500 196.523 153.664 195.166 C 145.970 191.483, 116.793 188.153, 105 189.611 M 102.203 193.197 C 100.744 194.656, 100.641 198.460, 101.992 200.985 C 102.872 202.630, 104.362 202.844, 115.242 202.891 C 133.034 202.966, 138.104 201.119, 132.937 196.443 C 131.292 194.954, 129.114 194.545, 122.169 194.419 C 114.377 194.277, 109.690 193.734, 104.953 192.422 C 104.102 192.187, 102.865 192.535, 102.203 193.197 M 102.428 195.328 C 102.148 196.058, 102.399 197.919, 102.986 199.464 C 104.011 202.159, 104.259 202.248, 109.133 201.671 C 118.288 200.586, 118.999 197.244, 110.527 195.111 C 104.778 193.663, 103.049 193.710, 102.428 195.328 M 104.175 197.585 C 104.538 200.666, 105.758 201.440, 108 200.012 C 109.837 198.842, 108.257 195.691, 105.568 195.162 C 104.221 194.897, 103.920 195.420, 104.175 197.585 M 86.486 200.451 C 91.958 204.899, 110.739 208.487, 124.458 207.706 C 134.113 207.155, 148.224 203.673, 152 200.909 C 153.652 199.700, 154.129 199.575, 143.891 203.032 C 140.807 204.074, 134.204 205.469, 129.219 206.133 C 118.138 207.608, 104.301 206.203, 94.789 202.638 C 83.478 198.398, 84.191 198.586, 86.486 200.451 M 85.187 210.164 C 85.479 213.115, 85.966 213.484, 92.445 215.664 C 99.315 217.975, 107 218.772, 107 217.173 C 107 216.718, 105.683 216.540, 104.074 216.776 C 102.464 217.012, 97.739 216.194, 93.574 214.957 C 86.783 212.941, 86 212.452, 86 210.229 C 86 207.971, 86.290 207.806, 89.250 208.374 C 91.561 208.817, 92.067 208.713, 91 208.014 C 90.175 207.473, 88.459 207.024, 87.187 207.015 C 85.188 207.002, 84.916 207.430, 85.187 210.164 M 95.500 210.536 C 97.150 211.292, 99.175 211.896, 100 211.879 C 100.825 211.862, 99.925 211.241, 98 210.500 C 93.434 208.742, 91.638 208.768, 95.500 210.536 M 117.712 212.663 C 117.429 213.123, 117.041 215.075, 116.849 217 C 116.590 219.600, 116.886 220.500, 118 220.500 C 118.973 220.500, 119.613 219.315, 119.823 217.123 C 120.135 213.858, 118.761 210.954, 117.712 212.663 M 111 216.500 C 111 220.643, 113.607 221.413, 114.575 217.557 C 115.288 214.716, 114.484 213, 112.441 213 C 111.461 213, 111 214.119, 111 216.500 M 145.250 222.672 C 143.271 223.455, 143.669 230.756, 145.750 231.850 C 148.296 233.188, 173.024 232.593, 175.763 231.127 C 177.580 230.154, 177.828 229.546, 177.020 228.038 C 175.584 225.355, 170.056 223.829, 162.784 224.110 C 157.283 224.322, 154.926 224.068, 148 222.514 C 147.175 222.329, 145.938 222.400, 145.250 222.672 M 145 226.965 C 145 230.972, 147.534 232.213, 153.456 231.107 C 158.779 230.113, 159.465 229.653, 158.679 227.605 C 158.056 225.981, 152.084 224.014, 147.750 224.006 C 145.367 224.001, 145 224.396, 145 226.965 M 146.170 227.170 C 146.390 228.723, 147.277 229.610, 148.830 229.830 C 150.769 230.105, 151.105 229.769, 150.830 227.830 C 150.610 226.277, 149.723 225.390, 148.170 225.170 C 146.231 224.895, 145.895 225.231, 146.170 227.170 M 131.706 231.446 C 141.624 236.164, 148.450 237.466, 163 237.414 C 175.591 237.369, 177.159 237.142, 186.280 234.046 C 191.660 232.221, 195.832 230.499, 195.553 230.219 C 195.273 229.940, 193.122 230.424, 190.772 231.295 C 173.690 237.626, 154.010 238.091, 137.595 232.551 C 126.772 228.898, 126.074 228.767, 131.706 231.446 M 80.328 238.500 C 80.333 242.350, 80.513 243.802, 80.730 241.728 C 80.946 239.653, 80.943 236.503, 80.722 234.728 C 80.501 232.952, 80.324 234.650, 80.328 238.500 M 128.607 239.582 C 127.452 242.592, 127.964 248.049, 129.455 248.621 C 131.725 249.492, 138.981 244.923, 139.667 242.191 C 140.432 239.142, 138.760 238.035, 133.357 238.015 C 130.491 238.005, 129.027 238.488, 128.607 239.582 M 84.500 257.685 C 77.386 258.600, 66.572 261.110, 65.339 262.134 C 63.285 263.838, 63.431 287.568, 65.500 288.362 C 66.675 288.813, 67 288.093, 67 285.034 C 67 282.887, 67.424 280.014, 67.943 278.651 L 68.885 276.171 74.693 277.890 C 80.482 279.603, 80.501 279.621, 80.807 283.804 C 81.107 287.884, 81.031 288, 78.057 288 C 76.086 288, 75 288.503, 75 289.417 C 75 294.072, 114.084 295.416, 130.750 291.334 C 132.722 290.851, 133.023 290.087, 133.185 285.142 L 133.370 279.500 133.737 284.750 C 134.109 290.060, 134.826 290.771, 138.418 289.393 C 140.868 288.453, 140.726 267.053, 138.250 264.215 C 136.541 262.255, 129.653 260.289, 116.566 258.026 C 110.964 257.057, 91.034 256.845, 84.500 257.685 M 84.667 260.667 C 84.300 261.033, 84 263.043, 84 265.131 C 84 267.754, 84.542 269.196, 85.750 269.791 C 87.239 270.523, 101.126 270.724, 111.559 270.164 C 115.572 269.949, 118.293 267.926, 117.466 265.772 C 116.514 263.291, 111.159 261.909, 102.862 262.002 C 98.813 262.048, 93.700 261.627, 91.500 261.067 C 86.730 259.852, 85.551 259.783, 84.667 260.667 M 85.361 262.502 C 85.044 263.328, 85.080 265.181, 85.440 266.619 C 86.073 269.139, 86.313 269.218, 92.063 268.802 C 99.241 268.283, 101.260 266.850, 97.857 264.691 C 96.561 263.869, 93.950 262.872, 92.057 262.476 C 88.786 261.792, 88.701 261.843, 90.351 263.494 C 92.601 265.744, 91.972 267.500, 88.917 267.500 C 86.827 267.500, 86.520 267.061, 86.647 264.250 C 86.805 260.767, 86.294 260.071, 85.361 262.502 M 68.295 268.105 C 72.493 270.548, 84.975 274.078, 93.094 275.120 C 99.380 275.926, 104.356 275.945, 110.753 275.189 C 120.098 274.084, 136.319 269.324, 135.462 267.938 C 135.187 267.493, 133.010 267.993, 130.623 269.048 C 115.816 275.598, 90.737 275.597, 74.117 269.046 C 68.639 266.887, 65.264 266.341, 68.295 268.105 M 85.667 280.667 C 85.300 281.033, 85 283.058, 85 285.167 C 85 288.581, 85.271 289, 87.481 289 C 89.268 289, 90.131 288.327, 90.566 286.593 C 91.588 282.522, 88.069 278.265, 85.667 280.667 M 86.658 281.675 C 86.296 282.037, 86 283.641, 86 285.240 C 86 287.469, 86.408 288.069, 87.750 287.813 C 89.940 287.396, 90.564 283.713, 88.706 282.171 C 87.942 281.537, 87.020 281.313, 86.658 281.675 M 195.250 316.031 C 193.178 316.864, 193 317.573, 193 324.968 C 193 330, 192.601 333, 191.931 333 C 191.203 333, 191.087 330.428, 191.567 324.929 L 192.271 316.859 188.885 317.445 C 173.444 320.122, 160.819 320.620, 148.515 319.035 C 144.674 318.540, 141.435 318.232, 141.317 318.349 C 141.200 318.467, 140.968 322.589, 140.802 327.509 L 140.500 336.456 147 337.756 C 161.189 340.594, 193.864 339.098, 198.046 335.419 C 199.151 334.447, 203.576 333.971, 213.546 333.749 L 227.500 333.439 212.876 333.219 L 198.251 333 198.764 324 C 199.290 314.787, 199.148 314.465, 195.250 316.031 M 140 339.308 C 140 341.121, 141.207 341.561, 150 342.955 C 167.394 345.712, 201.779 342.446, 197.752 338.419 C 197.414 338.081, 194.744 338.335, 191.819 338.983 C 179.625 341.684, 158.455 341.386, 142.750 338.292 C 140.695 337.887, 140 338.144, 140 339.308 M 63.291 361.695 C 63.572 367.394, 64.332 372.695, 64.978 373.474 C 66.419 375.210, 72.916 377.401, 83.500 379.719 C 89.378 381.007, 96.008 381.471, 108.500 381.471 C 127.625 381.469, 136.673 380.059, 137.843 376.895 C 138.237 375.830, 138.694 370.017, 138.859 363.979 C 139.171 352.537, 138.920 351.902, 134.934 354.035 C 133.319 354.899, 132.997 356.179, 132.985 361.785 C 132.976 365.478, 132.563 369.141, 132.067 369.925 C 131.514 370.800, 131.386 368.131, 131.736 363.020 L 132.307 354.688 128.404 355.355 C 108.643 358.727, 89.873 358.162, 72.006 353.658 L 62.780 351.332 63.291 361.695 M 65.357 370.357 C 66.378 371.193, 72.228 373.101, 78.357 374.597 C 87.146 376.743, 92.699 377.415, 104.642 377.777 C 119.618 378.232, 136.411 376.763, 137.564 374.896 C 137.869 374.403, 137.979 374.009, 137.809 374.020 C 137.639 374.030, 133.900 374.690, 129.500 375.485 C 125.100 376.280, 116.271 376.946, 109.881 376.965 C 94.758 377.011, 83.159 375.043, 65.283 369.399 C 63.642 368.882, 63.648 368.958, 65.357 370.357" stroke="none" fill="#d8eaf7" fill-rule="evenodd"/><path d="M 116 195.941 C 116 196.459, 116.472 197.174, 117.049 197.530 C 117.753 197.965, 117.671 198.694, 116.799 199.750 C 115.633 201.160, 115.730 201.178, 117.750 199.920 C 118.987 199.149, 120.036 197.840, 120.079 197.009 C 120.136 195.924, 120.304 195.863, 120.676 196.792 C 121.074 197.784, 121.520 197.813, 122.597 196.919 C 123.369 196.279, 124 196.098, 124 196.517 C 124 196.937, 123.333 197.779, 122.519 198.390 C 121.515 199.142, 121.334 199.970, 121.958 200.960 C 122.746 202.211, 123.170 202.156, 124.915 200.577 C 126.036 199.562, 126.729 198.371, 126.455 197.928 C 126.182 197.485, 126.755 196.659, 127.729 196.092 C 129.073 195.309, 127.874 195.053, 122.750 195.030 C 119.037 195.014, 116 195.423, 116 195.941 M 130.144 197.691 C 129.404 198.483, 129.093 199.426, 129.453 199.787 C 129.814 200.147, 130.482 199.839, 130.938 199.101 C 131.593 198.040, 131.993 198.150, 132.853 199.630 C 133.879 201.397, 133.941 201.382, 133.970 199.357 C 134.008 196.683, 131.930 195.779, 130.144 197.691 M 200.225 272.750 C 200.172 291.313, 199.821 312.462, 199.444 319.750 L 198.759 333 212.879 333 L 227 333 227 286 L 227 239 213.660 239 L 200.321 239 200.225 272.750 M 114.154 266.438 C 114.345 267.355, 114.950 268.082, 115.500 268.053 C 116.984 267.974, 116.712 265.737, 115.154 265.218 C 114.313 264.938, 113.939 265.395, 114.154 266.438" stroke="none" fill="#ced5d5" fill-rule="evenodd"/><path d="M 119.250 194.716 C 120.763 194.945, 123.237 194.945, 124.750 194.716 C 126.263 194.487, 125.025 194.300, 122 194.300 C 118.975 194.300, 117.737 194.487, 119.250 194.716 M 106.576 197.123 C 106.950 197.728, 106.701 198.567, 106.021 198.987 C 105.143 199.530, 105.106 199.947, 105.893 200.434 C 106.502 200.810, 107 200.615, 107 200 C 107 199.385, 107.450 199.160, 108 199.500 C 108.550 199.840, 109 199.465, 109 198.666 C 109 197.867, 108.302 196.946, 107.448 196.618 C 106.472 196.244, 106.149 196.431, 106.576 197.123 M 146 226.834 C 146 227.908, 146.624 229.025, 147.387 229.318 C 148.362 229.693, 148.623 229.275, 148.266 227.910 C 147.560 225.210, 146 224.469, 146 226.834 M 147.004 232.250 C 146.998 233.335, 152.774 233.174, 153.457 232.070 C 153.776 231.553, 152.473 231.220, 150.520 231.320 C 148.589 231.419, 147.007 231.838, 147.004 232.250 M 162.264 232.718 C 163.784 232.947, 166.034 232.941, 167.264 232.704 C 168.494 232.467, 167.250 232.279, 164.500 232.286 C 161.750 232.294, 160.744 232.488, 162.264 232.718 M 154 237 C 152.827 237.758, 153.086 237.973, 155.191 237.985 C 156.671 237.993, 158.160 237.550, 158.500 237 C 159.289 235.723, 155.976 235.723, 154 237 M 166 237 C 166 237.550, 167.152 238, 168.559 238 C 170.010 238, 170.851 237.567, 170.500 237 C 170.160 236.450, 169.009 236, 167.941 236 C 166.873 236, 166 236.450, 166 237 M 86.930 262.621 C 86.300 264.204, 85.392 266.267, 84.913 267.204 C 84.360 268.284, 84.456 269.164, 85.175 269.608 C 85.873 270.039, 86.033 269.862, 85.591 269.147 C 85.193 268.503, 85.543 267.729, 86.376 267.409 C 87.903 266.823, 89.651 261.317, 88.633 260.299 C 88.326 259.993, 87.560 261.037, 86.930 262.621 M 87 270 C 87 270.550, 88.350 271, 90 271 C 91.650 271, 93 270.550, 93 270 C 93 269.450, 91.650 269, 90 269 C 88.350 269, 87 269.450, 87 270 M 102.750 270.706 C 103.987 270.944, 106.013 270.944, 107.250 270.706 C 108.487 270.467, 107.475 270.272, 105 270.272 C 102.525 270.272, 101.513 270.467, 102.750 270.706 M 96 275 C 96 275.554, 98.647 276, 101.941 276 C 105.209 276, 108.160 275.550, 108.500 275 C 108.888 274.372, 106.677 274, 102.559 274 C 98.853 274, 96 274.435, 96 275 M 140.272 322 C 140.272 324.475, 140.467 325.488, 140.706 324.250 C 140.944 323.012, 140.944 320.988, 140.706 319.750 C 140.467 318.512, 140.272 319.525, 140.272 322 M 191.015 328.191 C 191.024 329.461, 191.467 331.175, 192 332 C 192.738 333.141, 192.973 332.737, 192.985 330.309 C 192.993 328.554, 192.550 326.840, 192 326.500 C 191.442 326.155, 191.007 326.903, 191.015 328.191 M 158 340 C 156.887 340.720, 157.481 340.973, 160.309 340.985 C 162.597 340.994, 163.871 340.601, 163.500 340 C 162.719 338.736, 159.956 338.736, 158 340 M 174.500 340 C 174.129 340.601, 175.403 340.994, 177.691 340.985 C 180.519 340.973, 181.113 340.720, 180 340 C 178.044 338.736, 175.281 338.736, 174.500 340 M 131.720 366.332 C 131.324 367.339, 131.014 368.914, 131.030 369.832 C 131.058 371.320, 131.173 371.308, 132.098 369.719 C 132.668 368.739, 132.978 367.164, 132.788 366.219 C 132.471 364.649, 132.378 364.659, 131.720 366.332 M 106.750 377.706 C 107.987 377.944, 110.013 377.944, 111.250 377.706 C 112.487 377.467, 111.475 377.272, 109 377.272 C 106.525 377.272, 105.513 377.467, 106.750 377.706" stroke="none" fill="#d7e4ea" fill-rule="evenodd"/><path d="M 157.374 208.500 C 157.376 214.550, 157.541 216.896, 157.740 213.713 C 157.939 210.531, 157.937 205.581, 157.736 202.713 C 157.535 199.846, 157.372 202.450, 157.374 208.500 M 85.187 210.164 C 85.479 213.115, 85.966 213.484, 92.445 215.664 C 99.315 217.975, 107 218.772, 107 217.173 C 107 216.718, 105.683 216.540, 104.074 216.776 C 102.464 217.012, 97.739 216.194, 93.574 214.957 C 86.783 212.941, 86 212.452, 86 210.229 C 86 207.971, 86.290 207.806, 89.250 208.374 C 91.561 208.817, 92.067 208.713, 91 208.014 C 90.175 207.473, 88.459 207.024, 87.187 207.015 C 85.188 207.002, 84.916 207.430, 85.187 210.164 M 95.500 210.536 C 97.150 211.292, 99.175 211.896, 100 211.879 C 100.825 211.862, 99.925 211.241, 98 210.500 C 93.434 208.742, 91.638 208.768, 95.500 210.536 M 117.712 212.663 C 117.429 213.123, 117.041 215.075, 116.849 217 C 116.590 219.600, 116.886 220.500, 118 220.500 C 118.973 220.500, 119.613 219.315, 119.823 217.123 C 120.135 213.858, 118.761 210.954, 117.712 212.663 M 80.310 226.500 C 80.315 229.800, 80.502 231.029, 80.725 229.232 C 80.947 227.435, 80.943 224.735, 80.715 223.232 C 80.486 221.729, 80.304 223.200, 80.310 226.500 M 63.395 278.500 C 63.396 286.200, 63.553 289.218, 63.743 285.206 C 63.934 281.195, 63.932 274.895, 63.741 271.206 C 63.549 267.518, 63.393 270.800, 63.395 278.500 M 140.272 280 C 140.272 282.475, 140.467 283.488, 140.706 282.250 C 140.944 281.012, 140.944 278.988, 140.706 277.750 C 140.467 276.512, 140.272 277.525, 140.272 280 M 85.667 280.667 C 85.300 281.033, 85 283.058, 85 285.167 C 85 288.581, 85.271 289, 87.481 289 C 89.268 289, 90.131 288.327, 90.566 286.593 C 91.142 284.298, 89.374 279.292, 88.350 280.317 C 88.081 280.586, 88.414 281.689, 89.089 282.770 C 90.583 285.164, 89.667 288, 87.400 288 C 86.037 288, 85.833 287.278, 86.273 284 C 86.830 279.846, 86.777 279.556, 85.667 280.667 M 74 299.930 C 74 300.442, 72.987 301.056, 71.750 301.294 C 69.821 301.666, 69.892 301.747, 72.250 301.864 C 74.088 301.955, 75 301.503, 75 300.500 C 75 299.675, 74.775 299, 74.500 299 C 74.225 299, 74 299.419, 74 299.930 M 163.750 344.732 C 166.088 344.943, 169.912 344.943, 172.250 344.732 C 174.588 344.522, 172.675 344.349, 168 344.349 C 163.325 344.349, 161.412 344.522, 163.750 344.732 M 139.320 357 C 139.320 360.575, 139.502 362.038, 139.723 360.250 C 139.945 358.462, 139.945 355.538, 139.723 353.750 C 139.502 351.962, 139.320 353.425, 139.320 357" stroke="none" fill="#fbfbfb" fill-rule="evenodd"/></svg>