<svg xmlns="http://www.w3.org/2000/svg" width="600" height="600" viewBox="0 0 600 600" version="1.1"><path d="M 100.032 174.019 C 89.830 175.451, 78.143 178.175, 76.240 179.565 C 74.672 180.711, 74.415 184.371, 73.641 216.668 C 73.086 239.848, 72.410 252.733, 71.726 253.161 C 71.145 253.525, 68.606 254.130, 66.085 254.506 C 58.380 255.656, 55.377 257.364, 54.648 261.012 C 54.291 262.793, 54 291.333, 54 324.434 C 54 371.073, 54.281 384.973, 55.250 386.195 C 56.644 387.955, 65.881 391.146, 76.500 393.536 C 87.243 395.954, 117.283 396.610, 128.414 394.670 C 134.019 393.693, 137.997 392.445, 139.130 391.308 C 140.680 389.751, 141.014 386.998, 141.528 371.500 C 142.333 347.221, 141.808 348.854, 148.247 350.620 C 152.736 351.851, 180.472 352.051, 339 351.997 C 458.603 351.957, 525.817 351.581, 528.208 350.940 C 533.450 349.534, 539.942 344.265, 543.479 338.544 L 546.500 333.657 546.500 286.078 C 546.500 239.171, 546.469 238.443, 544.330 234.447 C 541.473 229.110, 536.448 224.196, 531.500 221.900 C 527.657 220.117, 521.291 220.043, 369.725 220.022 L 211.950 220 211.016 217.541 C 210.283 215.615, 208.609 214.642, 203.290 213.054 C 194.151 210.324, 179.077 208.009, 170.404 208.004 L 163.309 208 162.665 195.296 C 162.251 187.134, 161.570 182.167, 160.760 181.402 C 155.415 176.353, 116.825 171.661, 100.032 174.019 M 102 189.637 C 91.332 191.192, 82.825 193.458, 82.022 194.959 C 81.525 195.888, 80.801 210.339, 80.413 227.074 C 79.961 246.579, 79.329 257.746, 78.652 258.184 C 78.071 258.560, 75.434 259.165, 72.792 259.529 C 70.149 259.892, 66.978 261.007, 65.744 262.006 L 63.500 263.822 63.187 317.983 C 62.953 358.496, 63.171 372.501, 64.053 373.564 C 65.600 375.428, 77.328 378.880, 87.996 380.612 C 104.324 383.262, 132.658 381.822, 136.997 378.121 C 138.674 376.691, 138.980 374.452, 139.592 359.142 L 140.286 341.785 143.893 342.400 C 160.081 345.160, 172.820 345.303, 189 342.907 C 195.805 341.900, 199 339.657, 199 335.889 C 199 334.045, 202.569 334, 347.500 334 L 496 334 496 286 L 496 238 348 238 L 200 238 200 232.655 C 200 228.789, 199.505 226.862, 198.210 225.690 C 195.452 223.194, 180.676 219.996, 168.750 219.315 L 158 218.700 157.962 215.600 C 157.830 204.763, 156.739 196.408, 155.310 195.303 C 153.530 193.926, 143.287 191.467, 133.342 190.029 C 126.865 189.092, 107.405 188.849, 102 189.637 M 111.667 213.667 C 110.358 214.976, 110.986 219, 112.500 219 C 113.500 219, 114 218, 114 216 C 114 213.133, 113.100 212.233, 111.667 213.667 M 129.035 239.934 C 127.593 242.630, 127.733 247.975, 129.250 248.118 C 133.062 248.480, 140 244.160, 140 241.424 C 140 238.094, 130.697 236.830, 129.035 239.934 M 102.465 240.057 C 102.106 240.638, 102.115 242.323, 102.486 243.801 C 103.987 249.779, 108 251.075, 108 245.582 C 108 243.702, 107.727 241.452, 107.393 240.582 C 106.708 238.796, 103.458 238.449, 102.465 240.057 M 116.102 241.377 C 114.033 243.870, 113.559 249.617, 115.364 250.310 C 117.899 251.282, 120.144 248.194, 119.803 244.203 C 119.470 240.299, 117.956 239.143, 116.102 241.377 M 94 247.326 C 94 249.981, 97.802 254, 100.314 254 C 102.751 254, 102.387 251.613, 99.411 248.077 C 96.321 244.405, 94 244.083, 94 247.326 M 107.746 254.007 C 106.511 255.008, 105.725 256.029, 106 256.275 C 106.275 256.521, 109.180 257.024, 112.455 257.394 L 118.410 258.066 116.119 255.627 C 113.020 252.328, 110.434 251.827, 107.746 254.007 M 146.250 268.714 C 144.384 269.390, 144.741 274.459, 146.838 277.048 C 149.174 279.934, 151 278.858, 151 274.596 C 151 271.136, 148.412 267.931, 146.250 268.714 M 158.229 272.213 C 156.011 276.627, 156.330 280, 158.965 280 C 161.401 280, 163.225 276.780, 162.812 273.209 C 162.417 269.798, 159.735 269.215, 158.229 272.213 M 67.661 282.144 C 66.802 289.291, 66.856 298.227, 67.765 299.648 C 68.169 300.279, 69.850 300.954, 71.500 301.148 L 74.500 301.500 75 294.500 C 75.498 287.522, 75.509 287.501, 78.313 287.798 C 81.001 288.082, 81.112 287.926, 80.813 284.305 C 80.471 280.169, 78.117 278.380, 71.626 277.327 L 68.304 276.788 67.661 282.144 M 141.032 280.250 C 141.009 282.931, 141.428 284, 142.500 284 C 144.416 284, 144.434 280.956, 142.532 278.441 C 141.156 276.622, 141.062 276.736, 141.032 280.250 M 165.989 280.250 C 162.803 285.476, 163.792 288.235, 167.837 285.402 C 169.342 284.347, 170 282.839, 170 280.443 C 170 276.122, 168.549 276.052, 165.989 280.250 M 150.223 284.262 C 147.758 286.886, 144.515 294.044, 143.641 298.788 C 142.880 302.917, 144.615 303.777, 150.071 301.976 C 153.547 300.829, 154.395 300.898, 157.512 302.576 C 162.046 305.018, 164.377 303.747, 164.814 298.595 C 165.174 294.336, 161.632 287.429, 157.366 284.073 C 154.014 281.437, 152.849 281.468, 150.223 284.262 M 85.634 307.511 C 84.210 311.222, 87.485 318.054, 89.956 316.527 C 91.299 315.697, 91.304 310.437, 89.965 307.934 C 88.729 305.626, 86.443 305.402, 85.634 307.511 M 98.035 309.934 C 97.466 310.998, 97 313.248, 97 314.934 C 97 317.220, 97.458 318, 98.800 318 C 101.605 318, 103 315.941, 103 311.800 C 103 308.689, 102.644 308, 101.035 308 C 99.955 308, 98.605 308.870, 98.035 309.934 M 76 314.484 C 76 317.058, 81.492 322.409, 83.387 321.682 C 84.807 321.137, 84.894 320.657, 83.915 318.765 C 82.012 315.087, 79.815 313, 77.845 313 C 76.830 313, 76 313.668, 76 314.484 M 106.034 318.177 C 103.507 322.321, 103.462 324, 105.878 324 C 108.333 324, 110.050 321.843, 110.300 318.447 C 110.591 314.478, 108.374 314.338, 106.034 318.177 M 90.291 322.250 C 87.067 325.776, 84.945 330.672, 84.307 336.054 C 83.652 341.586, 83.862 341.721, 90.169 339.831 C 93.434 338.853, 94.642 338.936, 97.585 340.339 C 107.559 345.095, 108.373 331.803, 98.632 323.250 C 94.250 319.402, 93.029 319.256, 90.291 322.250" stroke="none" fill="#ffffff" fill-rule="evenodd"/><path d="M 103.268 189.972 C 93.928 191.031, 86.085 192.858, 83.250 194.636 C 81.114 195.975, 81 196.672, 81 208.440 L 81 220.833 89.750 222.871 C 99.421 225.122, 113.085 227, 119.798 227 L 124.149 227 123.884 238.750 L 123.619 250.500 132.386 252.716 C 148.536 256.797, 170.578 257.494, 186.500 254.428 C 192.832 253.209, 192.881 253.161, 193.265 247.699 L 193.630 242.500 193.815 247.664 C 193.998 252.780, 194.025 252.820, 196.750 252.093 L 199.500 251.359 199.780 239.912 C 199.980 231.728, 199.690 227.958, 198.762 226.689 C 196.538 223.648, 173.899 219, 161.309 219 L 157.066 219 156.783 207.761 L 156.500 196.523 153.664 195.166 C 145.234 191.131, 117.889 188.313, 103.268 189.972 M 101.607 194.582 C 101.273 195.452, 101.032 196.689, 101.070 197.332 C 101.109 197.974, 101.491 197.600, 101.920 196.500 C 102.348 195.400, 104.004 194.216, 105.599 193.868 L 108.500 193.237 105.357 193.118 C 103.332 193.042, 101.998 193.563, 101.607 194.582 M 112.737 195.659 C 114.807 196.380, 116.612 196.977, 116.750 196.985 C 116.888 196.993, 117 197.689, 117 198.531 C 117 200.389, 115.557 200.992, 108.741 201.982 C 105.214 202.494, 108.079 202.662, 117.500 202.495 C 135.220 202.182, 137.406 201.406, 133 197 C 131.761 195.761, 129.573 194.966, 127.250 194.911 C 125.188 194.862, 120.232 194.715, 116.237 194.585 C 109.120 194.354, 109.050 194.375, 112.737 195.659 M 104 197.441 C 104 200.591, 105.803 201.683, 107.600 199.622 C 108.374 198.734, 108.466 198.456, 107.804 199.004 C 105.928 200.556, 105 200.189, 105 197.893 C 105 196.400, 105.452 195.959, 106.552 196.382 C 107.442 196.723, 107.843 196.555, 107.493 195.989 C 106.287 194.038, 104 194.989, 104 197.441 M 85 199.627 C 85 200.323, 94.214 204.096, 95.146 203.781 C 95.605 203.627, 93.510 202.529, 90.490 201.342 C 87.471 200.155, 85 199.383, 85 199.627 M 145.500 202.642 C 142.200 203.968, 140.850 204.782, 142.500 204.450 C 145.607 203.825, 154.267 200.144, 152.500 200.200 C 151.950 200.217, 148.800 201.316, 145.500 202.642 M 98.500 205 C 99.600 205.473, 101.400 205.846, 102.500 205.830 C 104.108 205.806, 104.010 205.644, 102 205 C 98.581 203.905, 95.952 203.905, 98.500 205 M 132 206 C 128.608 206.714, 128.593 206.738, 131.500 206.769 C 133.150 206.786, 135.625 206.440, 137 206 C 140.279 204.950, 136.989 204.950, 132 206 M 85.187 210.161 C 85.469 213.012, 86.039 213.507, 91 215.212 C 100.175 218.366, 104.873 218.984, 106.593 217.264 C 109.501 214.356, 108.557 213.647, 96.460 209.654 C 85.787 206.131, 84.792 206.175, 85.187 210.161 M 115.750 207.732 C 118.087 207.943, 121.912 207.943, 124.250 207.732 C 126.587 207.522, 124.675 207.349, 120 207.349 C 115.325 207.349, 113.412 207.522, 115.750 207.732 M 86 210.354 C 86 212.419, 86.920 212.982, 93.463 214.924 C 97.568 216.143, 102.181 216.996, 103.713 216.820 C 108.326 216.290, 106.994 213.855, 101.294 212.396 C 98.430 211.663, 94.438 210.374, 92.422 209.532 C 87.367 207.420, 86 207.595, 86 210.354 M 117.568 213.083 C 116.310 216.670, 116.533 220.500, 118 220.500 C 118.973 220.500, 119.613 219.315, 119.823 217.123 C 120.164 213.550, 118.470 210.513, 117.568 213.083 M 150.168 215.187 C 150.015 218.553, 149.718 218.908, 146.750 219.277 C 144.963 219.498, 146.200 219.691, 149.500 219.704 C 152.800 219.717, 154.513 219.536, 153.307 219.302 C 151.618 218.974, 151.024 218.027, 150.725 215.188 L 150.336 211.500 150.168 215.187 M 111 216.500 C 111 220.643, 113.607 221.413, 114.575 217.557 C 115.288 214.716, 114.484 213, 112.441 213 C 111.461 213, 111 214.119, 111 216.500 M 129.376 222.086 C 127.657 222.584, 125.632 223.781, 124.876 224.746 C 123.622 226.344, 123.659 226.375, 125.284 225.099 C 126.266 224.329, 129.416 223.129, 132.284 222.434 C 135.153 221.739, 136.375 221.172, 135 221.175 C 133.625 221.178, 131.094 221.588, 129.376 222.086 M 144.667 223.667 C 143.419 224.914, 143.994 229.852, 145.571 231.429 C 146.436 232.293, 148.348 232.939, 149.821 232.864 L 152.500 232.728 150 232.268 C 146.071 231.546, 144.787 229.947, 145.212 226.306 C 145.634 222.697, 145.634 222.699, 144.667 223.667 M 151.716 224.350 C 158.100 226, 160.478 227.719, 158.939 229.573 C 158.342 230.293, 156.649 231.066, 155.177 231.291 C 152.134 231.756, 161.573 232.461, 167 232.174 C 174.500 231.777, 177 230.981, 177 228.990 C 177 225.960, 173.174 224.622, 164 224.440 C 159.325 224.348, 153.475 223.987, 151 223.638 C 146.557 223.010, 146.566 223.019, 151.716 224.350 M 148.250 225.631 C 149.213 225.914, 150 226.837, 150 227.680 C 150 228.633, 149.432 228.996, 148.500 228.638 C 147.675 228.322, 147 228.499, 147 229.031 C 147 229.564, 147.931 230, 149.070 230 C 151.898 230, 151.364 225.608, 148.500 225.318 C 146.942 225.160, 146.887 225.229, 148.250 225.631 M 192.686 230.648 C 192.330 231.004, 188.542 232.330, 184.269 233.594 C 179.996 234.858, 177.240 235.917, 178.145 235.946 C 179.049 235.976, 182.649 235.102, 186.145 234.005 C 192.402 232.040, 196.538 230.045, 194.417 230.015 C 193.821 230.007, 193.042 230.291, 192.686 230.648 M 80.320 241 C 80.320 244.575, 80.502 246.037, 80.723 244.250 C 80.945 242.463, 80.945 239.537, 80.723 237.750 C 80.502 235.963, 80.320 237.425, 80.320 241 M 150.762 236.707 C 152.006 236.946, 153.806 236.937, 154.762 236.687 C 155.718 236.437, 154.700 236.241, 152.500 236.252 C 150.300 236.263, 149.518 236.468, 150.762 236.707 M 169.750 236.706 C 170.988 236.944, 173.012 236.944, 174.250 236.706 C 175.488 236.467, 174.475 236.272, 172 236.272 C 169.525 236.272, 168.512 236.467, 169.750 236.706 M 160.264 237.718 C 161.784 237.947, 164.034 237.941, 165.264 237.704 C 166.494 237.467, 165.250 237.279, 162.500 237.286 C 159.750 237.294, 158.744 237.488, 160.264 237.718 M 128.441 240.379 C 127.469 244.250, 128.335 248.452, 130.176 248.801 C 133.084 249.352, 140 244.279, 140 241.594 C 140 238.834, 138.362 238, 132.937 238 C 129.665 238, 128.942 238.382, 128.441 240.379 M 495.240 285.750 L 495 333 347 333 L 199 333 199 323.883 C 199 314.917, 198.963 314.777, 196.750 315.370 C 195.513 315.701, 194.162 315.979, 193.750 315.986 C 193.338 315.994, 192.955 318.813, 192.900 322.250 C 192.845 325.688, 192.458 329.625, 192.040 331 C 191.622 332.375, 191.510 329.717, 191.793 325.094 L 192.307 316.688 188.404 317.338 C 171.384 320.171, 159.667 320.452, 144.750 318.386 L 140 317.728 140 329.297 C 140 339.452, 140.214 340.928, 141.750 341.380 C 156.008 345.570, 196.202 343.980, 197.785 339.164 C 198.130 338.113, 196.974 337.941, 192.362 338.358 L 186.500 338.888 192.250 337.831 C 195.977 337.145, 198 336.285, 198 335.386 C 198 334.211, 220.575 334, 346.531 334 C 464.434 334, 495.162 333.742, 495.542 332.750 C 495.806 332.063, 495.899 310.575, 495.750 285 L 495.480 238.500 495.240 285.750 M 84.500 257.625 C 83.400 257.841, 78.797 258.745, 74.270 259.632 C 69.744 260.520, 65.567 261.817, 64.988 262.514 C 63.434 264.387, 64.126 288.212, 65.750 288.752 C 66.636 289.046, 67 287.743, 67 284.274 C 67 281.584, 67.563 278.638, 68.250 277.729 C 69.410 276.195, 69.897 276.206, 75 277.884 C 80.397 279.659, 80.506 279.771, 80.807 283.847 C 81.106 287.879, 81.026 288, 78.057 288 C 74.690 288, 73.734 290.482, 76.750 291.395 C 85.288 293.978, 109.930 294.843, 122 292.983 C 133.556 291.203, 132.857 291.683, 133.261 285.243 L 133.622 279.500 133.811 285.198 L 134 290.896 137 289.850 L 140 288.804 140 277.057 C 140 267.108, 139.732 265.080, 138.250 263.808 C 136.015 261.891, 126.691 259.404, 116.678 258.054 C 109.256 257.054, 88.793 256.781, 84.500 257.625 M 85.200 261.200 C 83.135 263.265, 83.982 270, 86.307 270 C 87.038 270, 87.003 269.603, 86.200 268.800 C 84.401 267.001, 84.740 262.251, 86.750 261.080 C 87.713 260.519, 88.028 260.047, 87.450 260.030 C 86.873 260.014, 85.860 260.540, 85.200 261.200 M 96.966 263.628 C 101.681 265.610, 100.825 267.566, 94.587 269.057 C 92.588 269.535, 95.267 269.831, 102.185 269.898 C 114.698 270.018, 118.613 269.014, 117.048 266.090 C 115.531 263.256, 110.334 261.929, 101.632 262.153 C 94.389 262.340, 94.112 262.428, 96.966 263.628 M 89.754 265.167 C 90.204 266.889, 89.978 267.206, 88.661 266.700 C 87.747 266.350, 87 266.499, 87 267.031 C 87 267.564, 87.900 268, 89 268 C 91.065 268, 91.885 264.665, 90.093 263.558 C 89.595 263.249, 89.442 263.974, 89.754 265.167 M 71.316 268.999 C 76.087 271.645, 89.139 275.041, 93.910 274.877 C 96.417 274.790, 95.551 274.475, 91.042 273.831 C 85.534 273.044, 80.640 271.630, 69.500 267.605 C 68.400 267.208, 69.217 267.835, 71.316 268.999 M 112 274 L 107.500 274.700 111.500 274.750 C 113.700 274.778, 116.625 274.440, 118 274 C 121.158 272.989, 118.506 272.989, 112 274 M 100.762 275.707 C 102.006 275.946, 103.806 275.937, 104.762 275.687 C 105.718 275.437, 104.700 275.241, 102.500 275.252 C 100.300 275.263, 99.518 275.468, 100.762 275.707 M 85.667 280.667 C 85.300 281.033, 85 283.058, 85 285.167 C 85 288.581, 85.271 289, 87.481 289 C 89.268 289, 90.131 288.327, 90.566 286.593 C 91.588 282.522, 88.069 278.265, 85.667 280.667 M 86.658 281.675 C 86.296 282.037, 86 283.641, 86 285.240 C 86 287.469, 86.408 288.069, 87.750 287.813 C 89.940 287.396, 90.564 283.713, 88.706 282.171 C 87.942 281.537, 87.020 281.313, 86.658 281.675 M 153.750 339.706 C 154.988 339.944, 157.012 339.944, 158.250 339.706 C 159.488 339.467, 158.475 339.272, 156 339.272 C 153.525 339.272, 152.512 339.467, 153.750 339.706 M 179.750 339.706 C 180.988 339.944, 183.012 339.944, 184.250 339.706 C 185.488 339.467, 184.475 339.272, 182 339.272 C 179.525 339.272, 178.512 339.467, 179.750 339.706 M 165.768 340.725 C 167.565 340.947, 170.265 340.943, 171.768 340.715 C 173.271 340.486, 171.800 340.304, 168.500 340.310 C 165.200 340.315, 163.971 340.502, 165.768 340.725 M 63.490 361.676 C 63.667 367.965, 64.263 372.612, 65.007 373.508 C 66.263 375.022, 74.856 377.816, 85.500 380.171 C 93.647 381.974, 125.668 381.780, 132.500 379.886 C 138.201 378.306, 137.818 379.349, 138.659 363.108 L 139.196 352.715 136.848 353.344 C 135.557 353.690, 134.162 353.979, 133.750 353.986 C 133.338 353.994, 132.913 357.038, 132.807 360.750 L 132.615 367.500 132.256 361.130 L 131.898 354.761 127.767 355.421 C 108.260 358.541, 88.614 357.920, 72.243 353.668 L 63.199 351.319 63.490 361.676 M 64.470 369.952 C 65.182 371.103, 79.863 375.223, 81.254 374.661 C 82.008 374.356, 81.824 374.127, 80.788 374.079 C 79.847 374.036, 75.688 372.924, 71.546 371.609 C 67.405 370.294, 64.221 369.548, 64.470 369.952 M 102.296 377.744 C 106.583 377.932, 113.333 377.931, 117.296 377.742 C 121.258 377.552, 117.750 377.399, 109.500 377.400 C 101.250 377.401, 98.008 377.556, 102.296 377.744" stroke="none" fill="#d8e9f7" fill-rule="evenodd"/><path d="M 80.994 231.142 C 80.991 236.839, 80.702 245.173, 80.353 249.662 L 79.717 257.825 92.109 257.290 C 103.595 256.795, 104.697 256.572, 107.202 254.237 C 109.633 251.971, 110.198 251.840, 112.835 252.932 C 114.447 253.599, 116.716 255.238, 117.876 256.573 C 119.037 257.908, 120.973 259, 122.178 259 C 125.724 259, 136.352 262.180, 138.250 263.808 C 139.424 264.815, 140 266.758, 140 269.708 C 140 272.752, 140.770 275.239, 142.500 277.785 C 145.657 282.432, 145.657 284, 142.500 284 C 140.527 284, 140 284.507, 140 286.402 C 140 288.161, 139.213 289.079, 137.061 289.829 C 134.523 290.714, 134.069 291.443, 133.736 295.177 L 133.349 299.500 133.175 295.231 C 133.016 291.354, 132.793 291.009, 130.750 291.472 C 115.913 294.834, 87.986 294.794, 76.750 291.395 C 75.229 290.935, 75 291.595, 75 296.433 C 75 302.373, 74.523 302.783, 69.250 301.370 C 67.246 300.833, 67 300.135, 67 294.990 C 67 290.931, 66.579 289.052, 65.584 288.671 C 63.531 287.883, 62.819 299.570, 63.192 327.972 L 63.500 351.445 72.464 353.737 C 90.414 358.328, 113.733 358.587, 132.141 354.400 C 137.470 353.188, 138.914 352.449, 139.385 350.693 C 139.708 349.487, 139.979 341.610, 139.986 333.189 L 140 317.879 147.250 318.689 C 163.215 320.474, 187.880 318.657, 197.539 314.985 L 200 314.050 200 282.611 L 200 251.173 197.250 251.903 C 194.736 252.571, 194.450 253.144, 193.918 258.567 L 193.336 264.500 193.168 258.683 C 193.023 253.663, 192.760 252.933, 191.250 253.358 C 176.749 257.441, 151.286 257.273, 133.171 252.976 C 128.590 251.889, 124.688 251, 124.500 251 C 124.313 251, 123.853 252.394, 123.478 254.099 C 123.010 256.232, 122.476 256.876, 121.764 256.164 C 121.053 255.453, 121.243 253.850, 122.374 251.022 C 123.591 247.981, 123.951 244.360, 123.759 237.084 L 123.500 227.255 113.987 226.598 C 105.729 226.028, 92.791 223.845, 83.750 221.497 L 81 220.783 80.994 231.142 M 102.701 238.632 C 100.909 240.424, 102.692 247.426, 105.400 249.235 C 107.276 250.488, 107.819 250.101, 108.492 247.036 C 109.571 242.123, 105.344 235.989, 102.701 238.632 M 115.266 242.206 C 113.446 245.934, 113.218 247.399, 114.170 249.250 C 116.266 253.325, 121.441 248.709, 120.823 243.315 C 120.400 239.627, 116.868 238.922, 115.266 242.206 M 94.074 244.954 C 92.157 246.139, 93.988 250.902, 97.316 253.386 C 99.392 254.936, 100.276 255.124, 101.193 254.207 C 102.109 253.291, 102.004 252.233, 100.734 249.569 C 98.887 245.695, 96.053 243.731, 94.074 244.954 M 145.667 268.667 C 144.199 270.134, 145.066 276.066, 147.036 278.036 C 149.779 280.779, 151 279.734, 151 274.641 C 151 269.398, 148.140 266.194, 145.667 268.667 M 158.689 270.791 C 156.262 273.473, 155.506 278.345, 157.287 279.823 C 160.542 282.525, 163.542 278.531, 162.828 272.448 C 162.422 268.992, 160.877 268.374, 158.689 270.791 M 167.400 277.766 C 165.767 278.855, 164 282.581, 164 284.934 C 164 287.590, 166.408 287.592, 169.061 284.939 C 172.263 281.737, 170.816 275.488, 167.400 277.766 M 149.693 283.787 C 147.380 286.343, 144.199 293.901, 143.441 298.645 C 142.635 303.685, 144.170 304.557, 150.140 302.450 C 153.839 301.146, 154.580 301.150, 156.623 302.489 C 157.892 303.320, 159.776 304, 160.810 304 C 163.274 304, 166 300.918, 166 298.131 C 166 292.740, 157.702 282, 153.536 282 C 152.312 282, 150.582 282.804, 149.693 283.787 M 193.365 297.500 C 193.368 303, 193.536 305.122, 193.738 302.216 C 193.941 299.311, 193.939 294.811, 193.734 292.216 C 193.528 289.622, 193.363 292, 193.365 297.500 M 85.667 306.667 C 84.646 307.688, 84.874 312.896, 86.035 315.066 C 87.506 317.814, 90.969 317.598, 91.115 314.750 C 91.305 311.045, 90.865 308.573, 89.780 307.250 C 88.663 305.888, 86.721 305.612, 85.667 306.667 M 98.034 310.177 C 96.919 312.004, 96.006 314.232, 96.004 315.128 C 95.999 317.361, 98.401 319.167, 100.372 318.411 C 103.605 317.170, 104.253 308.251, 101.184 307.228 C 100.566 307.022, 99.148 308.349, 98.034 310.177 M 76.701 312.632 C 74.291 315.042, 78.652 322, 82.573 322 C 85.616 322, 85.656 320.270, 82.715 315.905 C 80.462 312.562, 78.072 311.261, 76.701 312.632 M 105.342 318.409 C 103.718 321.815, 104.021 325, 105.969 325 C 108.065 325, 111 320.917, 111 318 C 111 313.629, 107.501 313.882, 105.342 318.409 M 89.693 321.787 C 87.147 324.600, 83.974 332.530, 83.726 336.698 C 83.477 340.879, 82.809 340.649, 93 339.880 C 94.375 339.777, 96.940 340.301, 98.700 341.046 C 101.558 342.256, 102.118 342.203, 103.950 340.545 C 107.644 337.202, 105.789 330.099, 99.471 323.400 C 95.875 319.588, 92.228 318.986, 89.693 321.787 M 133.360 338 C 133.360 343.225, 133.529 345.363, 133.735 342.750 C 133.941 340.137, 133.941 335.863, 133.735 333.250 C 133.529 330.637, 133.360 332.775, 133.360 338" stroke="none" fill="#e3d0ef" fill-rule="evenodd"/><path d="M 101.607 194.582 C 101.273 195.452, 101.032 196.689, 101.070 197.332 C 101.109 197.974, 101.491 197.600, 101.920 196.500 C 102.348 195.400, 104.004 194.216, 105.599 193.868 L 108.500 193.237 105.357 193.118 C 103.332 193.042, 101.998 193.563, 101.607 194.582 M 112.462 195.499 C 114.641 196.275, 116.616 196.718, 116.850 196.483 C 117.442 195.892, 112.246 193.990, 110.185 194.044 C 109.258 194.068, 110.283 194.723, 112.462 195.499 M 104 197.441 C 104 200.591, 105.803 201.683, 107.600 199.622 C 108.374 198.734, 108.466 198.456, 107.804 199.004 C 105.928 200.556, 105 200.189, 105 197.893 C 105 196.400, 105.452 195.959, 106.552 196.382 C 107.442 196.723, 107.843 196.555, 107.493 195.989 C 106.287 194.038, 104 194.989, 104 197.441 M 123.048 195.949 C 122.249 196.455, 121.237 196.646, 120.798 196.375 C 120.359 196.104, 120 196.359, 120 196.941 C 120 197.523, 119.298 198, 118.441 198 C 117.584 198, 117.162 198.453, 117.504 199.007 C 117.847 199.561, 117.426 200.283, 116.569 200.612 C 113.953 201.616, 115.896 203, 119.919 203 C 127.841 203, 133.112 201.813, 132.760 200.108 C 132.569 199.186, 131.590 198.594, 130.464 198.721 C 129.384 198.842, 129.063 198.692, 129.750 198.388 C 131.689 197.528, 131.223 195, 129.125 195 C 128.005 195, 126.605 196.308, 125.648 198.250 C 124.767 200.037, 124.028 201.050, 124.007 200.500 C 123.987 199.950, 123.533 200.175, 123 201 C 122.216 202.213, 122.028 202.069, 122.015 200.250 C 122.007 199.012, 122.402 198, 122.893 198 C 123.384 198, 124.045 197.325, 124.362 196.500 C 125.031 194.755, 124.974 194.731, 123.048 195.949 M 85 199.627 C 85 200.323, 94.214 204.096, 95.146 203.781 C 95.605 203.627, 93.510 202.529, 90.490 201.342 C 87.471 200.155, 85 199.383, 85 199.627 M 148.250 201.584 C 146.463 202.366, 145 203.235, 145 203.516 C 145 204.037, 152.015 201.319, 152.865 200.468 C 153.716 199.617, 151.550 200.141, 148.250 201.584 M 108 202 L 103.500 202.700 107.500 202.834 C 109.700 202.909, 112.175 202.533, 113 202 C 113.825 201.467, 114.050 201.091, 113.500 201.166 C 112.950 201.240, 110.475 201.615, 108 202 M 132 206 L 128.500 206.737 131.691 206.868 C 133.446 206.941, 135.160 206.550, 135.500 206 C 135.840 205.450, 135.979 205.059, 135.809 205.132 C 135.639 205.204, 133.925 205.595, 132 206 M 115.750 207.732 C 118.087 207.943, 121.912 207.943, 124.250 207.732 C 126.587 207.522, 124.675 207.349, 120 207.349 C 115.325 207.349, 113.412 207.522, 115.750 207.732 M 150.168 215.187 C 150.015 218.553, 149.718 218.908, 146.750 219.277 C 144.963 219.498, 146.200 219.691, 149.500 219.704 C 152.800 219.717, 154.513 219.536, 153.307 219.302 C 151.618 218.974, 151.024 218.027, 150.725 215.188 L 150.336 211.500 150.168 215.187 M 129.376 222.086 C 127.657 222.584, 125.632 223.781, 124.876 224.746 C 123.622 226.344, 123.659 226.375, 125.284 225.099 C 126.266 224.329, 129.416 223.129, 132.284 222.434 C 135.153 221.739, 136.375 221.172, 135 221.175 C 133.625 221.178, 131.094 221.588, 129.376 222.086 M 144.667 223.667 C 143.419 224.914, 143.994 229.852, 145.571 231.429 C 146.436 232.293, 148.348 232.939, 149.821 232.864 L 152.500 232.728 150 232.268 C 146.071 231.546, 144.787 229.947, 145.212 226.306 C 145.634 222.697, 145.634 222.699, 144.667 223.667 M 151.716 224.350 C 154.584 225.092, 157.551 226.212, 158.308 226.840 C 159.065 227.469, 160.088 227.649, 160.581 227.241 C 161.075 226.834, 160.649 227.487, 159.635 228.694 C 158.622 229.900, 156.601 231.070, 155.146 231.294 C 153.657 231.523, 154.905 231.844, 158 232.028 C 163.829 232.376, 165.417 232.328, 171 231.637 C 172.925 231.398, 175.063 231.157, 175.750 231.101 C 177.856 230.930, 177.137 227.145, 174.750 225.839 C 173.512 225.162, 168.675 224.533, 164 224.440 C 159.325 224.348, 153.475 223.987, 151 223.638 C 146.557 223.010, 146.566 223.019, 151.716 224.350 M 148.250 225.631 C 149.213 225.914, 150 226.837, 150 227.680 C 150 228.633, 149.432 228.996, 148.500 228.638 C 147.675 228.322, 147 228.499, 147 229.031 C 147 229.564, 147.931 230, 149.070 230 C 151.898 230, 151.364 225.608, 148.500 225.318 C 146.942 225.160, 146.887 225.229, 148.250 225.631 M 192.686 230.648 C 192.330 231.004, 188.542 232.330, 184.269 233.594 C 179.996 234.858, 177.240 235.917, 178.145 235.946 C 179.049 235.976, 182.649 235.102, 186.145 234.005 C 192.402 232.040, 196.538 230.045, 194.417 230.015 C 193.821 230.007, 193.042 230.291, 192.686 230.648 M 150.762 236.707 C 152.006 236.946, 153.806 236.937, 154.762 236.687 C 155.718 236.437, 154.700 236.241, 152.500 236.252 C 150.300 236.263, 149.518 236.468, 150.762 236.707 M 169.750 236.706 C 170.988 236.944, 173.012 236.944, 174.250 236.706 C 175.488 236.467, 174.475 236.272, 172 236.272 C 169.525 236.272, 168.512 236.467, 169.750 236.706 M 160.264 237.718 C 161.784 237.947, 164.034 237.941, 165.264 237.704 C 166.494 237.467, 165.250 237.279, 162.500 237.286 C 159.750 237.294, 158.744 237.488, 160.264 237.718 M 273.828 238.750 C 314.709 238.895, 381.309 238.895, 421.828 238.750 C 462.348 238.605, 428.900 238.487, 347.500 238.487 C 266.100 238.487, 232.948 238.605, 273.828 238.750 M 193.300 248 C 193.300 251.025, 193.487 252.262, 193.716 250.750 C 193.945 249.238, 193.945 246.762, 193.716 245.250 C 193.487 243.738, 193.300 244.975, 193.300 248 M 85.200 261.200 C 83.135 263.265, 83.982 270, 86.307 270 C 87.038 270, 87.003 269.603, 86.200 268.800 C 84.401 267.001, 84.740 262.251, 86.750 261.080 C 87.713 260.519, 88.028 260.047, 87.450 260.030 C 86.873 260.014, 85.860 260.540, 85.200 261.200 M 96.959 263.625 C 101.678 265.609, 100.836 267.545, 94.587 269.075 C 92.736 269.529, 96.102 269.765, 103 269.666 C 113.778 269.510, 114.500 269.374, 114.500 267.500 C 114.500 266.400, 115.063 265.613, 115.750 265.750 C 118.269 266.254, 116.903 264.857, 113.475 263.425 C 111.184 262.468, 107.143 262.021, 101.934 262.149 C 94.424 262.334, 94.110 262.427, 96.959 263.625 M 89.754 265.167 C 90.204 266.889, 89.978 267.206, 88.661 266.700 C 87.747 266.350, 87 266.499, 87 267.031 C 87 267.564, 87.900 268, 89 268 C 91.065 268, 91.885 264.665, 90.093 263.558 C 89.595 263.249, 89.442 263.974, 89.754 265.167 M 200.252 267.500 C 200.263 269.700, 200.468 270.482, 200.707 269.238 C 200.946 267.994, 200.937 266.194, 200.687 265.238 C 200.437 264.282, 200.241 265.300, 200.252 267.500 M 71.316 268.999 C 76.087 271.645, 89.139 275.041, 93.910 274.877 C 96.417 274.790, 95.551 274.475, 91.042 273.831 C 85.534 273.044, 80.640 271.630, 69.500 267.605 C 68.400 267.208, 69.217 267.835, 71.316 268.999 M 112 274 L 107.500 274.700 111.500 274.750 C 113.700 274.778, 116.625 274.440, 118 274 C 121.158 272.989, 118.506 272.989, 112 274 M 100.762 275.707 C 102.006 275.946, 103.806 275.937, 104.762 275.687 C 105.718 275.437, 104.700 275.241, 102.500 275.252 C 100.300 275.263, 99.518 275.468, 100.762 275.707 M 133.320 286 C 133.320 289.575, 133.502 291.038, 133.723 289.250 C 133.945 287.462, 133.945 284.538, 133.723 282.750 C 133.502 280.962, 133.320 282.425, 133.320 286 M 192.189 321.125 C 192.085 324.219, 191.777 328.269, 191.503 330.125 L 191.007 333.500 192.051 330.176 C 192.625 328.348, 192.934 324.298, 192.737 321.176 L 192.378 315.500 192.189 321.125 M 133.300 339 C 133.300 342.025, 133.487 343.262, 133.716 341.750 C 133.945 340.238, 133.945 337.762, 133.716 336.250 C 133.487 334.738, 133.300 335.975, 133.300 339 M 190 338 C 186.626 338.710, 186.608 338.737, 189.500 338.750 C 191.150 338.757, 193.850 338.420, 195.500 338 C 198.162 337.323, 198.218 337.238, 196 337.250 C 194.625 337.257, 191.925 337.595, 190 338 M 153.750 339.706 C 154.988 339.944, 157.012 339.944, 158.250 339.706 C 159.488 339.467, 158.475 339.272, 156 339.272 C 153.525 339.272, 152.512 339.467, 153.750 339.706 M 179.750 339.706 C 180.988 339.944, 183.012 339.944, 184.250 339.706 C 185.488 339.467, 184.475 339.272, 182 339.272 C 179.525 339.272, 178.512 339.467, 179.750 339.706 M 165.768 340.725 C 167.565 340.947, 170.265 340.943, 171.768 340.715 C 173.271 340.486, 171.800 340.304, 168.500 340.310 C 165.200 340.315, 163.971 340.502, 165.768 340.725 M 132.328 360.500 C 132.333 364.350, 132.513 365.802, 132.730 363.728 C 132.946 361.653, 132.943 358.503, 132.722 356.728 C 132.501 354.952, 132.324 356.650, 132.328 360.500 M 64.470 369.952 C 65.182 371.103, 79.863 375.223, 81.254 374.661 C 82.008 374.356, 81.824 374.127, 80.788 374.079 C 79.847 374.036, 75.688 372.924, 71.546 371.609 C 67.405 370.294, 64.221 369.548, 64.470 369.952 M 102.296 377.744 C 106.583 377.932, 113.333 377.931, 117.296 377.742 C 121.258 377.552, 117.750 377.399, 109.500 377.400 C 101.250 377.401, 98.008 377.556, 102.296 377.744" stroke="none" fill="#d0d7d7" fill-rule="evenodd"/><path d="M 116.629 196.475 C 117.226 198.032, 120 198.639, 120 197.213 C 120 196.780, 120.900 196.358, 122 196.275 C 123.100 196.192, 124 196.546, 124 197.062 C 124 197.578, 123.550 198, 123 198 C 122.450 198, 122.007 199.012, 122.015 200.250 C 122.028 202.069, 122.216 202.213, 123 201 C 123.533 200.175, 123.979 199.950, 123.991 200.500 C 124.008 201.300, 127 196.369, 127 195.540 C 127 195.413, 124.535 195.228, 121.522 195.130 C 116.980 194.981, 116.144 195.211, 116.629 196.475 M 130.033 197.791 C 128.733 199.200, 128.758 199.307, 130.256 198.732 C 131.316 198.325, 132.319 198.721, 132.943 199.792 C 133.832 201.316, 133.942 201.324, 133.970 199.872 C 134.020 197.183, 131.717 195.965, 130.033 197.791 M 200.374 271.446 C 200.304 289.291, 199.920 310.441, 199.520 318.446 L 198.792 333 346.896 333 L 495 333 495 286 L 495 239 347.750 239 L 200.500 239 200.374 271.446 M 114.500 266 C 114.101 266.646, 114.224 267.624, 114.774 268.174 C 115.441 268.841, 116.016 268.783, 116.500 268 C 116.899 267.354, 116.776 266.376, 116.226 265.826 C 115.559 265.159, 114.984 265.217, 114.500 266" stroke="none" fill="#ced5d5" fill-rule="evenodd"/><path d="M 157.272 215 C 157.272 217.475, 157.467 218.488, 157.706 217.250 C 157.944 216.012, 157.944 213.988, 157.706 212.750 C 157.467 211.512, 157.272 212.525, 157.272 215 M 105.462 213.348 C 107.821 215.074, 106.658 216.980, 103.191 217.070 C 100.809 217.132, 100.730 217.235, 102.500 217.965 C 105.397 219.159, 108.886 215.773, 107.045 213.555 C 106.336 212.700, 105.274 212, 104.686 212 C 104.099 212, 104.447 212.607, 105.462 213.348 M 117.576 213.187 C 115.679 219.273, 116.623 222.906, 119.337 219.966 C 120.228 219.001, 120.208 218.871, 119.250 219.412 C 118.353 219.919, 118.028 219.184, 118.100 216.809 C 118.193 213.698, 118.247 213.650, 119 216 L 119.801 218.500 119.900 215.809 C 120.006 212.946, 118.264 210.980, 117.576 213.187 M 94.674 216.012 C 96.048 217.282, 100.320 218.327, 99.640 217.227 C 99.304 216.683, 97.864 216.016, 96.439 215.744 C 95.014 215.471, 94.220 215.592, 94.674 216.012 M 80.336 228 C 80.336 232.125, 80.513 233.813, 80.728 231.750 C 80.944 229.688, 80.944 226.313, 80.728 224.250 C 80.513 222.188, 80.336 223.875, 80.336 228 M 119.921 243.751 C 120.399 247.202, 120.468 247.272, 120.798 244.628 C 120.995 243.049, 120.762 241.362, 120.279 240.879 C 119.776 240.376, 119.623 241.601, 119.921 243.751 M 63.389 283.500 C 63.390 290.650, 63.550 293.444, 63.742 289.708 C 63.935 285.973, 63.934 280.123, 63.739 276.708 C 63.545 273.294, 63.387 276.350, 63.389 283.500 M 140 279.500 C 140 282.158, 140.183 284.146, 140.407 283.917 C 141.180 283.125, 141.438 276.105, 140.720 275.387 C 140.324 274.991, 140 276.842, 140 279.500 M 88.032 280.691 C 88.014 281.346, 88.450 282.160, 89 282.500 C 90.829 283.630, 90.048 287.045, 87.750 287.969 C 85.525 288.863, 85.524 288.874, 87.643 288.937 C 89.680 288.997, 91 287.295, 91 284.609 C 91 283.001, 88.073 279.138, 88.032 280.691 M 164.728 344.722 C 166.503 344.943, 169.653 344.946, 171.728 344.730 C 173.802 344.513, 172.350 344.333, 168.500 344.328 C 164.650 344.324, 162.952 344.501, 164.728 344.722 M 139.310 355.500 C 139.315 358.800, 139.502 360.029, 139.725 358.232 C 139.947 356.435, 139.943 353.735, 139.715 352.232 C 139.486 350.729, 139.304 352.200, 139.310 355.500" stroke="none" fill="#faf5fc" fill-rule="evenodd"/><path d="M 193.310 258.500 C 193.315 261.800, 193.502 263.029, 193.725 261.232 C 193.947 259.435, 193.943 256.735, 193.715 255.232 C 193.486 253.729, 193.304 255.200, 193.310 258.500 M 193.365 297.500 C 193.368 303, 193.536 305.122, 193.738 302.216 C 193.941 299.311, 193.939 294.811, 193.734 292.216 C 193.528 289.622, 193.363 292, 193.365 297.500 M 133.252 295.500 C 133.263 297.700, 133.468 298.482, 133.707 297.238 C 133.946 295.994, 133.937 294.194, 133.687 293.238 C 133.437 292.282, 133.241 293.300, 133.252 295.500" stroke="none" fill="#d0d3d9" fill-rule="evenodd"/></svg>