<svg xmlns="http://www.w3.org/2000/svg" width="1080" height="1080" viewBox="0 0 1080 1080" version="1.1"><path d="M 469.944 333.341 C 469.700 333.559, 465.675 333.990, 461 334.299 C 452.551 334.857, 443.672 336.447, 441.589 337.775 C 440.990 338.157, 440.275 338.502, 440 338.541 C 434.570 339.321, 423.228 344.127, 421.888 346.217 C 421.552 346.741, 421.102 347.091, 420.888 346.993 C 420.082 346.624, 415 349.358, 415 350.161 C 415 350.622, 414.349 351, 413.553 351 C 409.228 351, 382 378.365, 382 382.712 C 382 383.420, 381.647 384, 381.216 384 C 380.784 384, 379.634 385.350, 378.659 387 C 377.684 388.650, 377.207 390, 377.598 390 C 377.990 390, 377.453 390.947, 376.405 392.105 C 375.357 393.263, 374.564 394.500, 374.643 394.855 C 374.721 395.210, 373.867 397.300, 372.745 399.500 C 371.623 401.700, 370.802 403.500, 370.922 403.500 C 371.042 403.500, 370.660 404.765, 370.072 406.310 C 369.464 407.910, 368.539 408.833, 367.925 408.454 C 365.934 407.223, 357.601 406.593, 343.500 406.606 C 326.877 406.621, 318.570 407.667, 311 410.700 C 310.175 411.030, 308.728 411.453, 307.785 411.639 C 304.626 412.261, 292 418.257, 292 419.134 C 292 419.610, 291.663 419.921, 291.250 419.825 C 290.048 419.546, 285 422.239, 285 423.161 C 285 423.622, 284.502 424, 283.894 424 C 283.286 424, 280.923 425.419, 278.644 427.153 C 273.610 430.982, 257 447.748, 257 449 C 257 449.493, 255.940 451.041, 254.644 452.439 C 253.348 453.838, 251.210 457.036, 249.894 459.547 C 247.800 463.542, 247.187 464.037, 245 463.505 C 243.625 463.170, 236.425 462.662, 229 462.375 C 218.849 461.982, 213.639 462.246, 208 463.437 C 203.875 464.308, 199.150 465.286, 197.500 465.609 C 195.850 465.932, 194.234 466.627, 193.908 467.151 C 193.583 467.676, 192.908 468.022, 192.408 467.919 C 190.855 467.600, 185 469.212, 185 469.958 C 185 470.348, 184.416 470.667, 183.702 470.667 C 181.660 470.667, 169.637 476.966, 168.250 478.763 C 167.562 479.654, 167 480.048, 167 479.640 C 167 478.985, 165.310 480.124, 157.562 486 C 154.372 488.420, 139 504.093, 139 504.927 C 139 505.346, 137.901 506.968, 136.557 508.532 C 135.213 510.096, 134.340 511.741, 134.616 512.188 C 134.892 512.634, 134.611 513, 133.991 513 C 132.830 513, 124.629 529.646, 123.423 534.450 C 122.672 537.442, 119.652 539, 114.602 539 C 112.804 539, 111.002 539.332, 110.596 539.737 C 110.191 540.143, 109.328 540.499, 108.679 540.528 C 106.424 540.632, 98.492 543.202, 97.226 544.240 C 96.525 544.815, 95.682 545.015, 95.352 544.685 C 95.022 544.356, 92.896 545.033, 90.626 546.191 C 88.357 547.348, 86.275 548.270, 86 548.239 C 84.970 548.122, 80 551.465, 80 552.275 C 80 552.738, 79.547 552.838, 78.993 552.496 C 78.439 552.153, 77.716 552.577, 77.386 553.437 C 77.056 554.296, 76.047 555.017, 75.143 555.038 C 72.637 555.096, 55.249 570.657, 50 577.540 C 49.175 578.622, 47.094 581.305, 45.376 583.503 C 42.267 587.481, 32.499 606, 33.510 606 C 33.802 606, 33.175 607.697, 32.116 609.772 C 31.058 611.847, 29.966 614.884, 29.690 616.522 C 29.414 618.160, 28.687 621.667, 28.075 624.315 C 27.463 626.963, 27.203 629.520, 27.497 629.996 C 27.792 630.472, 27.575 631.144, 27.016 631.490 C 25.369 632.508, 25.796 656.532, 27.594 664 C 28.455 667.575, 29.368 671.625, 29.624 673 C 30.745 679.029, 37.838 696, 39.237 696 C 39.722 696, 39.859 696.419, 39.543 696.931 C 39.226 697.443, 39.386 698.120, 39.897 698.436 C 40.409 698.752, 41.824 701.070, 43.042 703.586 C 44.260 706.102, 45.874 708.398, 46.628 708.688 C 47.383 708.977, 48 709.815, 48 710.550 C 48 711.285, 48.817 712.475, 49.816 713.193 C 50.815 713.912, 51.894 715.207, 52.216 716.070 C 53.545 719.648, 77.660 739, 80.788 739 C 81.363 739, 81.983 739.346, 82.167 739.768 C 83.210 742.173, 103.020 749.793, 113.151 751.687 C 118.399 752.668, 148.888 752.758, 154.500 751.809 C 159.462 750.969, 170.630 747.516, 176.449 745.022 L 180.821 743.148 186.161 748.135 C 192.153 753.732, 199.314 759, 200.930 759 C 201.519 759, 202 759.450, 202 760 C 202 760.550, 202.675 761, 203.500 761 C 204.325 761, 205 761.337, 205.001 761.750 C 205.004 763.836, 225.732 772.973, 229.255 772.441 C 230.220 772.295, 230.776 772.553, 230.491 773.014 C 228.722 775.877, 267.726 777.926, 281.470 775.692 C 288.098 774.615, 299.317 770.972, 300.235 769.599 C 300.639 768.995, 300.976 768.815, 300.985 769.199 C 301.007 770.216, 306.682 767.683, 314.170 763.312 C 321.569 758.994, 326.675 755.192, 332.384 749.750 C 336.812 745.530, 337.331 745.403, 341.429 747.540 C 343.040 748.380, 345.065 749.187, 345.929 749.333 C 346.793 749.478, 348.408 750.098, 349.518 750.710 C 351.272 751.677, 353.862 752.334, 360 753.369 C 360.825 753.508, 362.581 753.984, 363.902 754.427 C 365.223 754.869, 369.461 755.517, 373.321 755.866 C 380.014 756.471, 380.384 756.639, 381.319 759.500 C 381.859 761.150, 382.570 762.725, 382.900 763 C 383.230 763.275, 383.536 763.950, 383.581 764.500 C 383.747 766.544, 387.334 774, 388.152 774 C 388.618 774, 389 774.585, 389 775.300 C 389 776.015, 389.535 777.135, 390.190 777.790 C 390.844 778.444, 391.476 779.638, 391.594 780.442 C 391.846 782.156, 400.472 793.582, 402.374 794.720 C 403.091 795.149, 404.087 796.221, 404.589 797.103 C 405.931 799.464, 419.226 811, 420.604 811 C 421.254 811, 422.063 811.722, 422.401 812.604 C 422.764 813.549, 423.651 813.964, 424.560 813.615 C 425.409 813.289, 425.876 813.392, 425.597 813.843 C 424.952 814.886, 439.433 822.571, 443.750 823.477 C 445.538 823.852, 447 824.621, 447 825.186 C 447 825.752, 447.646 825.966, 448.435 825.663 C 449.225 825.360, 450.012 825.496, 450.185 825.966 C 450.358 826.435, 451.850 827.083, 453.500 827.404 C 455.150 827.726, 459.425 828.657, 463 829.474 C 470.376 831.158, 497.515 831.594, 498.473 830.044 C 498.798 829.518, 499.727 829.342, 500.538 829.653 C 502.176 830.281, 514.786 827.216, 516.750 825.712 C 517.438 825.186, 518 825.002, 518 825.303 C 518 826.280, 530.298 821.063, 535.671 817.807 C 538.545 816.066, 540.620 814.195, 540.284 813.650 C 539.941 813.096, 540.312 812.906, 541.128 813.219 C 542.670 813.811, 543.274 813.457, 550.087 807.973 C 558.572 801.143, 560.985 798.785, 560.422 797.874 C 560.108 797.366, 560.447 797.074, 561.176 797.225 C 561.904 797.376, 562.388 796.938, 562.250 796.250 C 562.113 795.563, 562.525 795.113, 563.167 795.250 C 564.156 795.462, 570.578 787.404, 576.003 779.146 L 577.507 776.858 586.003 781.347 C 595.668 786.453, 608.595 791.063, 614.500 791.509 C 616.700 791.675, 619.283 792.125, 620.241 792.509 C 622.732 793.508, 643.401 793.645, 650.500 792.710 C 659.373 791.541, 663.380 790.808, 664.500 790.148 C 665.050 789.823, 666.380 789.421, 667.457 789.254 C 668.533 789.086, 669.658 788.623, 669.957 788.225 C 670.255 787.826, 671.499 787.395, 672.719 787.267 C 676.500 786.871, 695 777.259, 695 775.691 C 695 775.128, 695.282 774.949, 695.627 775.294 C 695.972 775.639, 698.793 773.968, 701.896 771.580 L 707.537 767.239 709.206 771.146 C 710.124 773.295, 710.801 775.154, 710.711 775.277 C 710.350 775.772, 720.311 793.524, 721.124 793.833 C 721.606 794.017, 722 794.620, 722 795.174 C 722 796.290, 729.636 805.661, 734.736 810.805 C 736.698 812.783, 738.513 813.823, 739.257 813.394 C 739.941 813.001, 740.190 813.024, 739.811 813.446 C 739.026 814.318, 743.362 819, 744.955 819 C 745.530 819, 746 819.374, 746 819.832 C 746 820.849, 755.344 827, 756.890 827 C 757.500 827, 758 827.373, 758 827.829 C 758 828.786, 767.995 833.625, 769.198 833.250 C 769.639 833.113, 770 833.450, 770 834 C 770 834.550, 770.788 835.003, 771.750 835.006 C 772.712 835.010, 774.749 835.664, 776.276 836.460 C 781.559 839.216, 790.582 840.369, 809.307 840.680 C 822.763 840.904, 827.921 840.681, 827.436 839.897 C 826.960 839.126, 827.314 839.090, 828.629 839.775 C 829.664 840.313, 831.394 840.389, 832.500 839.945 C 833.600 839.502, 835.483 839.109, 836.685 839.070 C 837.887 839.032, 840.137 838.477, 841.685 837.839 C 843.233 837.200, 844.837 836.750, 845.250 836.839 C 845.663 836.927, 846 836.646, 846 836.213 C 846 835.780, 846.987 835.351, 848.193 835.260 C 851.011 835.048, 867 827.002, 867 825.796 C 867 825.293, 867.453 825.162, 868.007 825.504 C 868.561 825.847, 869.284 825.423, 869.614 824.563 C 869.944 823.704, 870.728 822.987, 871.357 822.972 C 873.085 822.930, 880.056 817.389, 879.314 816.647 C 878.958 816.291, 879.347 816, 880.178 816 C 882.012 816, 885.271 812.605, 884.336 811.669 C 883.968 811.301, 885.243 811, 887.171 811 C 891.301 811, 907.984 806.136, 913 803.470 C 914.925 802.446, 916.950 801.526, 917.500 801.425 C 919.559 801.047, 931 793.866, 931 792.952 C 931 792.428, 931.643 792, 932.429 792 C 933.214 792, 934.452 791.435, 935.179 790.746 C 935.905 790.056, 938.863 787.538, 941.751 785.152 C 944.639 782.765, 946.707 780.335, 946.346 779.752 C 945.981 779.160, 946.162 778.982, 946.754 779.348 C 947.339 779.710, 949.015 778.542, 950.478 776.753 C 951.942 774.964, 953.783 772.707, 954.569 771.739 C 955.356 770.770, 956 769.757, 956 769.489 C 956 769.220, 956.900 768.100, 958 767 C 959.100 765.900, 960 765.158, 960 765.351 C 960 765.544, 962.362 765.287, 965.250 764.780 C 968.138 764.274, 971.824 763.665, 973.443 763.427 C 975.061 763.189, 976.636 762.658, 976.943 762.247 C 977.249 761.836, 978.400 761.346, 979.500 761.157 C 982.035 760.723, 995.267 755.134, 995.972 754.200 C 996.262 753.815, 998.267 752.600, 1000.426 751.500 C 1002.586 750.400, 1004.836 749.050, 1005.426 748.500 C 1006.017 747.950, 1008.300 746.261, 1010.500 744.747 C 1017.994 739.590, 1037 718.801, 1037 715.761 C 1037 715.237, 1037.931 713.502, 1039.068 711.904 C 1040.206 710.307, 1040.768 708.993, 1040.318 708.985 C 1039.868 708.976, 1039.950 708.639, 1040.500 708.235 C 1042.197 706.988, 1046.336 697.567, 1048.511 690 C 1052.072 677.612, 1052.295 675.798, 1052.319 659 C 1052.337 646.579, 1051.899 641.514, 1050.115 633.500 C 1048.891 628, 1047.464 623.073, 1046.945 622.550 C 1046.425 622.028, 1046 620.790, 1046 619.800 C 1046 618.810, 1045.523 618, 1044.941 618 C 1044.359 618, 1044.138 617.586, 1044.450 617.081 C 1044.763 616.575, 1044.307 615.450, 1043.438 614.581 C 1042.568 613.711, 1042.130 613, 1042.464 613 C 1042.797 613, 1042.508 611.987, 1041.821 610.750 C 1041.133 609.513, 1040.555 608.146, 1040.535 607.714 C 1040.516 607.281, 1039.899 606.556, 1039.165 606.102 C 1038.430 605.648, 1037.807 604.877, 1037.779 604.388 C 1037.684 602.685, 1035.673 599, 1034.839 599 C 1034.378 599, 1034 598.486, 1034 597.858 C 1034 595.556, 1017.369 577, 1015.306 577 C 1014.553 577, 1013.692 576.361, 1013.392 575.580 C 1012.764 573.942, 995.153 562.374, 993.860 562.750 C 993.387 562.887, 993 562.587, 993 562.083 C 993 561.367, 985.548 557.896, 983 557.425 C 982.725 557.374, 981.233 556.808, 979.685 556.166 C 978.137 555.525, 976.195 555, 975.369 555 C 974.544 555, 973 554.535, 971.938 553.967 C 968.901 552.341, 960.686 551.627, 945 551.623 C 930.389 551.620, 919.768 552.407, 917.772 553.641 C 917.136 554.034, 916.979 553.843, 917.390 553.178 C 917.775 552.555, 917.573 550.128, 916.942 547.783 C 916.310 545.438, 915.624 542.165, 915.418 540.510 C 915.037 537.463, 909.209 521.921, 908.101 521 C 907.771 520.725, 907.352 519.642, 907.170 518.593 C 906.873 516.876, 904.359 512.274, 903.022 511 C 902.733 510.725, 901.849 509.245, 901.058 507.710 C 900.267 506.176, 897.905 503.064, 895.810 500.794 C 893.714 498.524, 891.991 496.405, 891.980 496.084 C 891.947 495.138, 883 486.522, 883 487.436 C 883 487.894, 882.053 487.066, 880.896 485.595 C 877.054 480.711, 855.170 467.164, 853.622 468.712 C 853.280 469.054, 853 468.733, 853 468 C 853 467.267, 852.704 466.963, 852.342 467.325 C 851.980 467.687, 851.193 467.596, 850.592 467.124 C 849.466 466.239, 838.428 462.591, 834 461.640 C 817.098 458.009, 790.807 459.433, 777 464.727 C 776.175 465.043, 774.825 465.435, 774 465.598 C 771.536 466.085, 762.554 470.403, 761.804 471.461 C 761.391 472.044, 760.898 471.844, 760.594 470.972 C 760.106 469.576, 759.175 456.163, 759.091 449.325 C 759.070 447.579, 758.583 445.861, 758.010 445.506 C 757.437 445.152, 757.203 444.481, 757.491 444.015 C 757.779 443.549, 757.520 441.893, 756.915 440.334 C 756.311 438.775, 755.610 436.375, 755.358 435 C 755.106 433.625, 754.023 430.670, 752.950 428.434 C 751.878 426.198, 751 423.836, 751 423.184 C 751 422.533, 750.550 422, 750 422 C 749.450 422, 749.073 421.663, 749.161 421.250 C 750.190 416.475, 732.906 394.332, 719.813 383.650 C 715.419 380.065, 702.716 371.814, 700.500 371.105 C 699.950 370.929, 697.925 369.989, 696 369.015 C 694.075 368.041, 690.925 366.912, 689 366.507 C 687.075 366.101, 685.050 365.414, 684.500 364.980 C 683.950 364.546, 681.925 363.917, 680 363.582 C 678.075 363.248, 673.581 362.339, 670.014 361.562 C 662.705 359.970, 640.355 359.617, 639.451 361.079 C 639.127 361.604, 638.468 361.789, 637.986 361.491 C 637.275 361.052, 628.811 362.539, 621 364.476 C 611.501 366.832, 589 378.513, 589 381.090 C 589 381.590, 588.358 382, 587.573 382 C 586.787 382, 585.212 383.186, 584.073 384.635 C 582.933 386.084, 582 386.886, 582 386.416 C 582 385.947, 579.271 388.249, 575.935 391.531 C 572.599 394.814, 569.958 397.050, 570.065 396.500 C 570.349 395.048, 567.701 389, 566.781 389 C 566.351 389, 566 388.480, 566 387.844 C 566 384.012, 542.168 356, 538.907 356 C 538.417 356, 536.874 354.988, 535.479 353.750 C 527.595 346.757, 507.370 337.770, 494.500 335.542 C 487.784 334.378, 470.516 332.831, 469.944 333.341 M 601.387 523.906 C 596.250 527.038, 592 538.462, 592 549.136 C 592 552.092, 591.604 553, 590.316 553 C 585.317 553, 576.412 556.588, 573.039 559.961 L 569.445 563.555 567.631 559.759 C 566.634 557.671, 564.213 554.739, 562.252 553.243 C 559.275 550.972, 557.462 550.461, 551.282 550.149 C 542.499 549.706, 537.125 551.412, 531.724 556.359 L 528.087 559.690 527.178 557.081 C 526.678 555.647, 525.043 553.017, 523.546 551.237 C 521.437 548.731, 520.037 548, 517.345 548 C 512.503 548, 510.361 549.403, 507.753 554.283 C 505.542 558.421, 505.500 559.140, 505.500 592.500 C 505.500 622.125, 505.726 627.231, 507.259 632.184 C 510 641.043, 515.251 643.990, 522.040 640.479 C 528.416 637.182, 530.980 626.841, 530.992 604.372 C 531 589.555, 531.618 586.652, 536.303 579.417 C 537.703 577.255, 539.303 576.020, 540.715 576.012 C 545.390 575.986, 546.556 583.421, 544.479 600 C 542.015 619.664, 541.640 627.963, 542.934 634.189 C 545.010 644.178, 549.104 647.064, 555.589 643.109 C 564.768 637.511, 572.483 609.109, 571.811 583.384 L 571.500 571.466 574.961 573.233 C 576.865 574.205, 580.487 575, 583.010 575 L 587.597 575 586.723 583.750 C 585.554 595.471, 586.415 625.468, 588.060 630.275 C 589.998 635.942, 595.345 641.582, 600.761 643.671 C 604.217 645.005, 608.207 645.500, 615.500 645.500 C 623.979 645.500, 626.227 645.142, 630.277 643.148 C 637.791 639.448, 640.409 631.333, 635.927 625.635 C 634.003 623.188, 633.294 623, 626.009 623 C 616.686 623, 615.342 622.581, 613.597 619.129 C 611.165 614.320, 610.962 609.489, 612.475 592.424 C 613.300 583.116, 613.981 575.163, 613.988 574.750 C 613.994 574.337, 615.298 574, 616.885 574 C 625.605 574, 637 566.968, 637 561.586 C 637 556.223, 629.704 552.018, 620.376 552.006 L 616.251 552 616.755 543.158 C 617.350 532.732, 616.141 528.138, 611.857 524.533 C 608.265 521.511, 605.578 521.350, 601.387 523.906 M 240.402 525.437 C 232.746 527.164, 224.832 531.126, 222.099 534.602 C 216.126 542.195, 222.551 551, 234.065 551 C 237.842 551, 237.999 551.130, 237.978 554.250 C 237.908 564.475, 235.874 599.780, 234.845 608.637 L 233.638 619.019 228.478 621.381 C 217.987 626.184, 214.618 636.978, 222.209 641.466 C 228.640 645.268, 252.448 643.305, 264.906 637.945 C 271.852 634.957, 275 631.079, 275 625.512 C 275 621.900, 274.488 620.747, 271.923 618.588 C 270.230 617.164, 267.080 615.717, 264.923 615.372 C 262.765 615.027, 261.001 614.689, 261.002 614.622 C 261.003 614.555, 261.676 608.200, 262.498 600.500 C 263.320 592.800, 264.287 577.932, 264.648 567.461 L 265.303 548.422 271.143 545.678 C 277.237 542.815, 280 539.369, 280 534.631 C 280 530.555, 278.955 529.021, 274.627 526.744 C 271.167 524.924, 268.562 524.532, 258.500 524.317 C 251.009 524.157, 244.209 524.578, 240.402 525.437 M 462.903 546.052 C 456.666 547.054, 452.554 549.343, 447.093 554.854 C 431.244 570.851, 427.113 603.160, 438.446 622.497 C 442.530 629.467, 447.208 634.245, 453.196 637.562 C 457.747 640.082, 459.565 640.499, 466 640.493 C 475.460 640.485, 482.595 637.388, 490.606 629.811 C 497.367 623.417, 500 618.583, 500 612.563 C 500 608.789, 499.567 607.763, 497.370 606.323 C 493.033 603.481, 489.065 604.180, 480.461 609.300 C 471.351 614.721, 466.116 615.452, 461.635 611.927 C 457.703 608.835, 458.326 607.310, 464.022 606.089 C 475.180 603.696, 486.942 594.972, 491.756 585.520 C 495.165 578.825, 495.988 567.876, 493.560 561.518 C 489.454 550.768, 475.953 543.957, 462.903 546.052 M 287.743 549.084 C 286.777 549.647, 284.977 551.996, 283.743 554.304 C 281.545 558.415, 281.500 559.186, 281.500 592.500 C 281.500 622.125, 281.726 627.231, 283.259 632.184 C 286 641.043, 291.251 643.990, 298.040 640.479 C 304.416 637.182, 306.980 626.841, 306.992 604.372 C 307 589.555, 307.618 586.652, 312.303 579.417 C 313.703 577.255, 315.303 576.020, 316.715 576.012 C 321.390 575.986, 322.556 583.421, 320.479 600 C 317.163 626.462, 317.559 636.627, 322.131 642.439 C 324.438 645.372, 326.842 645.650, 331.055 643.472 C 340.019 638.836, 348 611.350, 348 585.111 C 348 560.042, 341.547 549.972, 325.516 550.022 C 317.579 550.047, 312.343 551.968, 307.298 556.706 L 304.096 559.713 303.182 557.093 C 302.680 555.652, 301.043 553.017, 299.546 551.237 C 297.374 548.655, 296.081 548.006, 293.161 548.030 C 291.147 548.047, 288.709 548.521, 287.743 549.084 M 663.698 550.383 C 654.715 553.731, 649.001 559.499, 643.929 570.339 C 633.809 591.964, 637.260 622.313, 651.454 636.506 C 656.978 642.031, 660.899 644.031, 667.553 644.718 C 687.124 646.738, 700.586 631.148, 704.238 602.237 C 706.961 580.679, 698.357 558.448, 684.500 551.238 C 680.369 549.089, 668.482 548.600, 663.698 550.383 M 721.298 552.699 C 720.087 552.934, 717.762 554.646, 716.131 556.503 C 711.219 562.098, 710.691 567.313, 711.846 598.816 C 712.870 626.760, 713.869 633.818, 717.604 639.518 C 720.384 643.761, 726.850 644.818, 730.823 641.679 C 735.270 638.166, 737.975 624.863, 737.992 606.428 C 738.002 595.386, 739.889 589.252, 744.897 583.988 C 749.613 579.030, 752.924 578.218, 759.209 580.478 C 765.835 582.861, 771.663 582.062, 775.009 578.312 L 777.518 575.500 777.156 586.040 C 776.143 615.490, 787.234 634.989, 805 634.989 C 812.074 634.989, 816.198 633.022, 822.211 626.781 L 828 620.772 827.992 624.636 C 827.969 636.689, 823.350 653.063, 818.314 658.946 C 815.389 662.363, 814.248 663, 811.048 663 C 808.960 663, 805.338 662.325, 803 661.500 C 792.785 657.896, 786 660.933, 786 669.109 C 786 672.699, 786.573 673.855, 789.945 677.062 C 795.846 682.676, 803.680 685.409, 814.007 685.457 L 822.515 685.497 821.066 692.609 L 819.618 699.720 812.373 693.963 C 785.495 672.604, 756.331 676.423, 745.420 702.732 C 743.002 708.564, 742.606 710.889, 742.557 719.548 C 742.502 729.266, 742.628 729.857, 746.405 737.502 C 756.667 758.274, 783.274 775.485, 842.213 799.475 C 848.656 802.097, 854.590 803.988, 855.400 803.677 C 859.531 802.091, 882.310 763.875, 890.922 744.079 L 895.679 733.146 907.073 744.573 C 913.340 750.858, 918.976 756, 919.598 756 C 920.982 756, 947.865 736.946, 957.475 729.155 C 969.067 719.756, 987.862 701.043, 995.142 691.651 C 1007.961 675.114, 1014.268 657.987, 1012.092 645.629 C 1010.667 637.544, 1007.707 631.878, 1001.280 624.935 C 988.522 611.155, 971.262 608.321, 953.757 617.131 C 946.408 620.830, 935.400 631.212, 929.937 639.597 L 925.674 646.139 922.087 639.069 C 906.906 609.147, 878.262 599.904, 858.215 618.460 L 852.500 623.750 852.398 606.125 C 852.203 572.387, 845.994 553.545, 835.070 553.545 C 826.970 553.545, 824.909 558.285, 823.976 579.056 C 823.228 595.730, 821.936 600.626, 817.687 602.900 C 813.171 605.317, 806.768 604.243, 804.802 600.738 C 804.019 599.342, 803.319 592.295, 802.941 582 C 802.298 564.484, 801.080 558.458, 797.378 554.463 C 794.738 551.615, 789.650 551.156, 786.347 553.470 C 783.836 555.228, 780.440 562.137, 779.424 567.555 L 778.690 571.467 777.326 567.528 C 774.534 559.463, 767.516 555.044, 757.500 555.044 C 750.011 555.044, 744.691 557.366, 739.830 562.758 C 736.072 566.926, 735 567.140, 735 563.719 C 735 560.679, 731.004 554.323, 728.327 553.103 C 725.865 551.981, 725.198 551.943, 721.298 552.699 M 356.223 554.750 C 351.654 558.752, 350.939 567.233, 353.946 581.802 C 358.642 604.561, 368.820 628.680, 377.557 637.750 C 382.097 642.464, 383.046 643, 386.856 643 C 395.549 643, 400.804 637.548, 409.508 619.500 C 415.210 607.676, 424.774 583.915, 427.393 575.068 C 430.050 566.090, 429.266 557.213, 425.600 554.765 C 424.995 554.361, 422.730 554.024, 420.566 554.015 C 413.185 553.987, 405.469 564.602, 394.775 589.500 C 392.177 595.550, 390.039 601.063, 390.025 601.750 C 390.011 602.438, 389.605 603, 389.122 603 C 388.087 603, 385.309 595.536, 380.935 581 C 376.921 567.660, 372.885 558.725, 369.425 555.518 C 366.091 552.428, 359.324 552.034, 356.223 554.750 M 464.149 570.528 C 461.044 573.140, 457.550 580.606, 458.156 583.332 C 458.460 584.703, 459.131 584.666, 463.989 583.013 C 472.264 580.198, 475.744 575.127, 472.965 569.934 C 471.530 567.254, 467.736 567.510, 464.149 570.528 M 670.229 574.669 C 666.992 575.972, 663.022 588.284, 663.027 597 C 663.035 608.088, 667.446 620.186, 671.708 620.807 C 680.572 622.101, 684.197 593.107, 676.948 578.898 C 675.468 575.997, 672.790 573.552, 671.668 574.079 C 671.576 574.122, 670.928 574.388, 670.229 574.669" stroke="none" fill="#fafdfd" fill-rule="evenodd"/><path d="M 600.600 526.047 C 596.453 529.687, 594.044 536.233, 593.140 546.314 L 592.500 553.449 588.020 554.212 C 581.227 555.368, 572.669 560.008, 571.606 563.110 C 569.401 569.550, 574.343 574, 583.699 574 L 588.597 574 587.731 582.750 C 587.255 587.563, 587.013 599.375, 587.193 609 C 587.501 625.410, 587.684 626.848, 590.132 632.091 C 594.351 641.123, 601.964 645, 615.481 645 C 628.796 645, 637 640.057, 637 632.034 C 637 629.767, 636.224 627.265, 635.085 625.861 C 633.334 623.701, 632.524 623.524, 625.574 623.779 C 614.807 624.174, 612.390 622.395, 610.934 613 C 609.978 606.835, 612.719 574.798, 614.287 573.801 C 614.954 573.377, 616.461 573.024, 617.635 573.015 C 621.683 572.986, 630.181 569.633, 633.087 566.919 C 640.263 560.215, 633.130 553, 619.326 553 L 614.140 553 615.079 549.750 C 616.433 545.064, 616.410 534.772, 615.036 530.608 C 613.665 526.456, 609.743 523, 606.400 523 C 605.118 523, 602.508 524.371, 600.600 526.047 M 249.981 525.078 C 236.076 526.272, 222.796 531.979, 221.451 537.339 C 219.562 544.864, 223.500 549.119, 232.987 549.805 C 236.535 550.062, 238.999 550.704, 238.998 551.370 C 238.980 560.159, 236.638 601.080, 235.699 609 L 234.455 619.500 230.478 621.347 C 219.860 626.278, 215.871 635.602, 222.326 640.400 C 224.816 642.249, 226.426 642.484, 235.826 642.370 C 251.848 642.175, 267.706 637.732, 272.037 632.226 C 274.190 629.488, 274.615 624.018, 272.920 620.850 C 271.680 618.534, 266.253 616, 262.532 616 C 261.139 616, 260.001 615.888, 260.002 615.750 C 260.003 615.612, 260.684 609.200, 261.514 601.500 C 262.345 593.800, 263.317 578.575, 263.673 567.666 L 264.321 547.833 269.483 545.550 C 275.680 542.809, 279 538.933, 279 534.438 C 279 527.098, 267.953 523.534, 249.981 525.078 M 460.939 547.317 C 444.995 551.785, 432.959 572.738, 433.024 595.910 C 433.038 600.634, 433.513 606.512, 434.079 608.972 C 436.763 620.619, 445.235 632.433, 454.370 637.268 C 460.633 640.582, 471.649 640.353, 479.037 636.754 C 495.002 628.976, 504.141 613.189, 496.266 606.994 C 492.650 604.150, 489.677 604.813, 480.557 610.497 C 474.969 613.980, 472.377 615, 469.116 615 C 462.498 615, 458 611.988, 458 607.556 C 458 606.807, 460.257 605.823, 463.446 605.182 C 475.336 602.795, 485.854 594.983, 490.973 584.738 C 493.461 579.759, 494 577.457, 494 571.808 C 494 563.974, 492.586 559.876, 488.132 554.804 C 482.347 548.215, 469.931 544.797, 460.939 547.317 M 289.464 549.401 C 287.449 550.279, 285.768 552.189, 284.464 555.082 C 282.640 559.131, 282.500 561.787, 282.500 592.471 C 282.500 628.080, 283.113 633.672, 287.540 638.448 C 290.967 642.146, 295.325 641.875, 299.497 637.703 C 304.291 632.909, 305.189 628.643, 305.736 608.069 C 306.252 588.668, 307.027 584.984, 312.082 577.885 C 314.579 574.379, 318.248 574.088, 320.443 577.223 C 322.519 580.186, 322.504 593.365, 320.407 608.216 C 317.484 628.915, 319.848 643.082, 326.349 643.826 C 328.626 644.087, 330.043 643.269, 333.414 639.751 C 341.198 631.628, 347 608.303, 347 585.139 C 347 569.192, 345.301 562.599, 339.598 556.413 C 336.266 552.798, 334.565 551.798, 330.500 551.061 C 325.316 550.122, 317.659 551.042, 313.897 553.055 C 312.756 553.666, 310.051 555.766, 307.885 557.723 C 305.719 559.680, 303.822 561.105, 303.670 560.890 C 303.518 560.676, 302.547 558.555, 301.512 556.177 C 299.664 551.931, 295.813 547.962, 293.615 548.039 C 293.002 548.061, 291.134 548.673, 289.464 549.401 M 513.464 549.401 C 511.449 550.279, 509.768 552.189, 508.464 555.082 C 506.640 559.131, 506.500 561.787, 506.500 592.471 C 506.500 628.080, 507.113 633.672, 511.540 638.448 C 514.967 642.146, 519.325 641.875, 523.497 637.703 C 528.291 632.909, 529.189 628.643, 529.736 608.069 C 530.252 588.668, 531.027 584.984, 536.082 577.885 C 538.579 574.379, 542.248 574.088, 544.443 577.223 C 546.519 580.186, 546.504 593.365, 544.407 608.216 C 541.484 628.915, 543.848 643.082, 550.349 643.826 C 552.626 644.087, 554.043 643.269, 557.414 639.751 C 565.198 631.628, 571 608.303, 571 585.139 C 571 569.192, 569.301 562.599, 563.598 556.413 C 560.266 552.798, 558.565 551.798, 554.500 551.061 C 549.316 550.122, 541.659 551.042, 537.897 553.055 C 536.756 553.666, 534.051 555.766, 531.885 557.723 C 529.719 559.680, 527.822 561.105, 527.670 560.890 C 527.518 560.676, 526.547 558.555, 525.512 556.177 C 523.664 551.931, 519.813 547.962, 517.615 548.039 C 517.002 548.061, 515.134 548.673, 513.464 549.401 M 661.500 552.358 C 647.078 559.104, 638.192 578.990, 639.317 602 C 640.098 617.984, 644.382 628.407, 653.784 637.201 C 664.519 647.243, 680.165 646.204, 690.679 634.751 C 695.854 629.114, 698.345 624.312, 701 614.852 C 707.319 592.345, 702.696 568.105, 689.889 556.590 C 687.111 554.093, 683.188 551.591, 681.169 551.030 C 674.831 549.270, 666.968 549.801, 661.500 552.358 M 720.452 554.406 C 716.647 556.063, 714.290 559.590, 712.867 565.757 C 711.183 573.049, 713.283 624.580, 715.577 632.287 C 717.411 638.448, 721.490 643, 725.177 643 C 728.094 643, 733.600 637.064, 734.959 632.453 C 735.600 630.279, 736.358 621.525, 736.644 613 C 737.255 594.737, 738.605 589.469, 744.241 583.355 C 749.115 578.067, 753.030 577.082, 759.442 579.531 C 765.627 581.893, 771.705 581.045, 774.858 577.379 C 776.804 575.117, 777.131 573.855, 776.719 570.203 C 775.725 561.377, 768.353 556, 757.248 556 C 749.320 556, 744.522 558.307, 739.368 564.595 L 735.564 569.238 734.448 564.863 C 733 559.187, 731.500 556.464, 728.770 554.551 C 726.105 552.685, 724.469 552.656, 720.452 554.406 M 786.291 555.250 C 780.553 561.525, 778.499 570.563, 778.505 589.500 C 778.509 602.230, 778.848 605.579, 780.747 611.629 C 783.844 621.497, 788.441 627.842, 794.962 631.249 C 806.229 637.135, 816.526 633.616, 826.124 620.600 L 829 616.700 828.996 622.100 C 828.990 629.788, 826.370 644.935, 823.908 651.515 C 822.754 654.600, 820.263 658.670, 818.372 660.562 C 814.257 664.676, 810.703 664.978, 801.255 662.016 C 794.594 659.928, 792.806 660.123, 789.250 663.323 C 787.671 664.744, 787 666.475, 787 669.126 C 787 679.476, 808.749 688.234, 822.833 683.555 C 829.476 681.349, 836.825 674.682, 840.767 667.286 C 844.596 660.102, 848.316 647.437, 850.103 635.500 C 852.075 622.328, 851.844 590.898, 849.687 579 C 846.514 561.490, 839.727 551.984, 832.241 554.565 C 827.215 556.298, 825.641 561.534, 824.897 579 C 823.963 600.916, 821.588 605.469, 811.437 604.808 C 807.611 604.559, 806.302 603.964, 804.626 601.710 C 802.781 599.230, 802.482 597.006, 801.940 581.710 C 801.316 564.121, 800.282 559.180, 796.307 554.787 C 794.010 552.249, 788.816 552.489, 786.291 555.250 M 356.099 556.601 C 350.857 563.265, 352.146 576.242, 360.657 602.500 C 367.007 622.089, 376.731 638.736, 383.468 641.551 C 391.321 644.832, 399.491 637.857, 407.888 620.700 C 413.382 609.473, 423.880 583.593, 426.396 575.068 C 428.561 567.737, 428.493 559.831, 426.242 557.051 C 424.256 554.598, 419.627 554.059, 416.217 555.884 C 410.855 558.753, 401.324 575.259, 393.486 595.250 C 391.383 600.612, 389.341 605, 388.947 605 C 387.891 605, 384.494 596.059, 380.461 582.663 C 376.185 568.457, 373.247 561.603, 369.569 557.250 C 367.249 554.505, 366.148 554, 362.484 554 C 359.002 554, 357.741 554.514, 356.099 556.601 M 464.850 568.520 C 461.765 570.195, 457 579.116, 457 583.215 C 457 585.786, 457.245 585.980, 459.750 585.386 C 471.971 582.488, 477.863 575.533, 473.443 569.223 C 471.664 566.682, 468.682 566.438, 464.850 568.520 M 667.011 577.188 C 663.746 582.500, 662.569 587.886, 662.569 597.500 C 662.569 607.442, 663.833 612.969, 667.282 618.099 C 671.498 624.369, 676.636 622.691, 679.429 614.132 C 683.049 603.044, 682.241 586.644, 677.673 578.474 C 675.905 575.313, 674.795 574.436, 672.248 574.188 C 669.543 573.925, 668.730 574.391, 667.011 577.188" stroke="none" fill="#aaadad" fill-rule="evenodd"/><path d="M 281.328 588.500 C 281.333 592.350, 281.513 593.802, 281.730 591.728 C 281.946 589.653, 281.943 586.503, 281.722 584.728 C 281.501 582.952, 281.324 584.650, 281.328 588.500 M 505.328 588.500 C 505.333 592.350, 505.513 593.802, 505.730 591.728 C 505.946 589.653, 505.943 586.503, 505.722 584.728 C 505.501 582.952, 505.324 584.650, 505.328 588.500 M 306.382 605.500 C 306.384 612.100, 306.546 614.670, 306.741 611.211 C 306.937 607.752, 306.936 602.352, 306.738 599.211 C 306.540 596.070, 306.380 598.900, 306.382 605.500 M 530.382 605.500 C 530.384 612.100, 530.546 614.670, 530.741 611.211 C 530.937 607.752, 530.936 602.352, 530.738 599.211 C 530.540 596.070, 530.380 598.900, 530.382 605.500 M 870.058 611.214 C 867.017 612.491, 861.695 616.147, 857.996 619.500 C 852.096 624.847, 851.355 625.935, 851.186 629.500 C 850.922 635.063, 849.261 644.161, 846.916 652.888 C 845.022 659.935, 845.008 660.510, 846.605 665.388 C 852.833 684.411, 869.018 705.775, 902.206 738.781 L 919.583 756.062 930.041 748.886 C 971.883 720.178, 999.506 691.604, 1009.202 667 C 1010.890 662.717, 1011.384 659.287, 1011.435 651.500 C 1011.494 642.455, 1011.227 640.945, 1008.646 635.689 C 1002.943 624.073, 991.169 614.987, 979.055 612.853 C 962.333 609.907, 941.030 621.968, 929.573 640.867 L 925.713 647.234 921.156 638.367 C 912.302 621.137, 898.071 610.362, 882.894 609.397 C 876.746 609.007, 874.583 609.313, 870.058 611.214" stroke="none" fill="#b1d5ff" fill-rule="evenodd"/><path d="M 841.576 666.085 C 838.374 672.630, 830.585 681.101, 826.038 682.984 C 823.428 684.065, 823.036 684.871, 821.972 691.340 C 821.325 695.278, 820.623 699.080, 820.414 699.789 C 820.175 700.598, 817.605 699.019, 813.525 695.558 C 802.206 685.956, 790.170 681.029, 778 681.017 C 762.161 681.002, 751.889 688.089, 745.940 703.136 C 738.700 721.450, 742.568 736.706, 758.455 752.500 C 767.176 761.171, 774.955 766.701, 790.500 775.282 C 808.403 785.165, 854.574 804.913, 856.011 803.302 C 857.499 801.635, 867.100 786.906, 872.580 777.884 C 878.691 767.822, 891.902 741.930, 894.087 735.731 L 895.415 731.962 887.842 724.231 C 866.713 702.662, 851.864 681.449, 846.559 665.250 C 845.613 662.362, 844.763 660.024, 844.670 660.054 C 844.576 660.083, 843.184 662.798, 841.576 666.085" stroke="none" fill="#ffc7c2" fill-rule="evenodd"/><path d="M 264.320 554 C 264.320 557.575, 264.502 559.038, 264.723 557.250 C 264.945 555.462, 264.945 552.538, 264.723 550.750 C 264.502 548.962, 264.320 550.425, 264.320 554 M 281.336 575 C 281.336 579.125, 281.513 580.813, 281.728 578.750 C 281.944 576.688, 281.944 573.313, 281.728 571.250 C 281.513 569.188, 281.336 570.875, 281.336 575 M 505.336 575 C 505.336 579.125, 505.513 580.813, 505.728 578.750 C 505.944 576.688, 505.944 573.313, 505.728 571.250 C 505.513 569.188, 505.336 570.875, 505.336 575 M 824.360 580 C 824.360 585.225, 824.529 587.362, 824.735 584.750 C 824.941 582.138, 824.941 577.862, 824.735 575.250 C 824.529 572.638, 824.360 574.775, 824.360 580 M 802.370 586 C 802.370 591.775, 802.535 594.138, 802.737 591.250 C 802.939 588.362, 802.939 583.638, 802.737 580.750 C 802.535 577.862, 802.370 580.225, 802.370 586 M 347.343 585.500 C 347.346 589.900, 347.522 591.576, 347.733 589.224 C 347.945 586.872, 347.942 583.272, 347.727 581.224 C 347.512 579.176, 347.339 581.100, 347.343 585.500 M 571.343 585.500 C 571.346 589.900, 571.522 591.576, 571.733 589.224 C 571.945 586.872, 571.942 583.272, 571.727 581.224 C 571.512 579.176, 571.339 581.100, 571.343 585.500 M 432.310 596.500 C 432.315 599.800, 432.502 601.029, 432.725 599.232 C 432.947 597.435, 432.943 594.735, 432.715 593.232 C 432.486 591.729, 432.304 593.200, 432.310 596.500 M 586.336 605 C 586.336 609.125, 586.513 610.813, 586.728 608.750 C 586.944 606.688, 586.944 603.313, 586.728 601.250 C 586.513 599.188, 586.336 600.875, 586.336 605" stroke="none" fill="#aeb8c3" fill-rule="evenodd"/><path d="M 281.392 608 C 281.392 615.425, 281.549 618.462, 281.742 614.750 C 281.934 611.038, 281.934 604.962, 281.742 601.250 C 281.549 597.538, 281.392 600.575, 281.392 608 M 505.392 608 C 505.392 615.425, 505.549 618.462, 505.742 614.750 C 505.934 611.038, 505.934 604.962, 505.742 601.250 C 505.549 597.538, 505.392 600.575, 505.392 608 M 737.349 611 C 737.349 615.675, 737.522 617.587, 737.732 615.250 C 737.943 612.913, 737.943 609.087, 737.732 606.750 C 737.522 604.413, 737.349 606.325, 737.349 611 M 774.750 680.723 C 776.538 680.945, 779.462 680.945, 781.250 680.723 C 783.038 680.502, 781.575 680.320, 778 680.320 C 774.425 680.320, 772.962 680.502, 774.750 680.723 M 906.500 744 C 913.083 750.600, 918.694 756, 918.969 756 C 919.244 756, 914.083 750.600, 907.500 744 C 900.917 737.400, 895.306 732, 895.031 732 C 894.756 732, 899.917 737.400, 906.500 744" stroke="none" fill="#fbfbfb" fill-rule="evenodd"/></svg>