<svg xmlns="http://www.w3.org/2000/svg" width="1080" height="1080" viewBox="0 0 1080 1080" version="1.1"><path d="M 526.831 63.955 C 493.734 70.024, 468.290 92.506, 458.308 124.500 L 455.500 133.500 455.225 283.250 L 454.950 433 307.933 433 C 145.848 433, 153.840 432.706, 138.102 439.239 C 127.608 443.595, 117.547 450.659, 108.806 459.808 C 99.749 469.288, 94.131 478.571, 89.838 491.149 C 87.044 499.337, 86.593 502.151, 86.207 513.779 C 85.834 525.018, 86.109 528.538, 87.995 536.699 C 93.678 561.294, 110.459 582.275, 133.476 593.563 C 151.069 602.191, 135.644 601.452, 304.750 601.762 L 455 602.038 455 745.295 C 455 839.873, 455.359 891.432, 456.056 897.026 C 459.765 926.777, 478.138 951.953, 505.298 964.502 C 516.984 969.901, 524.493 971.392, 540 971.392 C 556.120 971.392, 563.419 969.836, 576.454 963.620 C 601.559 951.648, 619.003 928.490, 623.949 900.566 C 624.652 896.598, 625 846.162, 625 748.316 L 625 602 771.912 602 C 931.700 602, 926.205 602.182, 940.647 596.405 C 976.272 582.152, 998.184 546.570, 994.068 509.657 C 992.096 491.975, 985.282 475.675, 974.333 462.449 C 965.163 451.373, 947.368 440.116, 931.500 435.353 C 925.856 433.659, 916.588 433.534, 775.275 433.257 L 625.050 432.962 624.775 283.231 L 624.500 133.500 621.743 124.712 C 616.114 106.764, 606.901 92.921, 593.267 81.925 C 584.589 74.926, 570.746 67.886, 560.966 65.499 C 553.332 63.636, 533.470 62.737, 526.831 63.955" stroke="none" fill="#ffffff" fill-rule="evenodd"/><path d="M 502 24.613 C 447.913 29.138, 402.194 38.973, 355 56.237 C 231.021 101.589, 129.159 192.396, 72.026 308.500 C 41.468 370.598, 24.920 435.093, 22.060 503.236 C 17.336 615.770, 49.670 721.914, 116.879 814.500 C 174.908 894.440, 259.986 958.103, 355.343 992.937 C 395.544 1007.623, 435.888 1017.057, 482.500 1022.672 C 503.915 1025.251, 571.618 1025.272, 593.500 1022.705 C 692.446 1011.099, 780.381 976.511, 856 919.454 C 955.244 844.571, 1023.905 734.797, 1046.428 615 C 1072.995 473.694, 1036.576 329.721, 945.626 216.500 C 866.216 117.646, 752.273 51.879, 623.500 30.573 C 593.739 25.648, 582.549 24.801, 543.500 24.511 C 523.150 24.360, 504.475 24.406, 502 24.613 M 519.715 64.999 C 491.026 72.268, 468.450 93.368, 458.726 122 L 455.500 131.500 455.231 281.725 L 454.962 431.950 306.231 432.232 L 157.500 432.515 149.500 434.773 C 124.641 441.791, 105.417 457.299, 94.069 479.487 C 87.620 492.100, 85.576 501.241, 85.683 517 C 85.753 527.377, 86.267 532.351, 87.903 538.500 C 95.071 565.439, 114.167 586.953, 140.099 597.308 C 154.517 603.065, 152.331 602.992, 310.250 602.996 L 455 603 455.008 748.750 C 455.013 845.031, 455.369 896.706, 456.058 901 C 461.167 932.850, 484.365 959.211, 516.035 969.156 C 522.603 971.218, 525.483 971.500, 540 971.500 C 554.517 971.500, 557.397 971.218, 563.965 969.156 C 579.413 964.305, 591.418 956.658, 603.079 944.240 C 615.664 930.838, 622.963 914.387, 624.961 894.916 C 625.627 888.424, 626 834.214, 626 743.894 L 626 603 770.250 602.996 C 927.527 602.992, 925.416 603.062, 939.901 597.332 C 971.674 584.765, 992.967 555.881, 994.699 523 C 996.011 498.105, 988.105 476.508, 971.202 458.816 C 959.682 446.758, 946.740 439.149, 930 434.591 C 922.630 432.584, 919.927 432.543, 774.284 432.252 L 626.069 431.955 625.733 284.728 C 625.361 121.460, 625.794 132.051, 618.805 115.210 C 611.574 97.784, 596.286 80.949, 580.163 72.658 C 565.820 65.281, 559.765 63.789, 542.500 63.381 C 530.045 63.087, 526.179 63.362, 519.715 64.999" stroke="none" fill="#ffc7c2" fill-rule="evenodd"/><path d="" stroke="none" fill="#fcc4c4" fill-rule="evenodd"/><path d="M 625.247 289.750 L 625 433 771.250 432.753 L 917.500 432.507 771.753 432.250 L 626.007 431.993 625.750 289.247 L 625.493 146.500 625.247 289.750 M 236.828 432.750 C 277.159 432.895, 342.859 432.895, 382.828 432.750 C 422.798 432.605, 389.800 432.487, 309.500 432.487 C 229.200 432.487, 196.498 432.605, 236.828 432.750 M 109.971 457.750 L 103.500 464.500 110.250 458.029 C 116.520 452.018, 117.457 451, 116.721 451 C 116.568 451, 113.530 454.038, 109.971 457.750 M 85.336 516 C 85.336 520.125, 85.513 521.813, 85.728 519.750 C 85.944 517.688, 85.944 514.313, 85.728 512.250 C 85.513 510.188, 85.336 511.875, 85.336 516 M 235.750 602.750 C 276.038 602.895, 341.963 602.895, 382.250 602.750 C 422.538 602.605, 389.575 602.487, 309 602.487 C 228.425 602.487, 195.463 602.605, 235.750 602.750 M 625.247 745.750 L 625.493 889.500 625.750 746.253 L 626.007 603.007 771.753 602.750 L 917.500 602.493 771.250 602.247 L 625 602 625.247 745.750" stroke="none" fill="#fcfbfb" fill-rule="evenodd"/></svg>