<svg xmlns="http://www.w3.org/2000/svg" width="1080" height="1080" viewBox="0 0 1080 1080" version="1.1"><path d="M 646.378 600 C 646.378 606.325, 646.541 608.913, 646.739 605.750 C 646.937 602.587, 646.937 597.413, 646.739 594.250 C 646.541 591.087, 646.378 593.675, 646.378 600 M 340.365 606.500 C 340.368 612, 340.536 614.122, 340.738 611.216 C 340.941 608.311, 340.939 603.811, 340.734 601.216 C 340.528 598.622, 340.363 601, 340.365 606.500 M 871 610.651 C 864.681 612.933, 857.959 618.073, 853.161 624.292 C 846.980 632.303, 844.718 638.207, 844.202 647.671 C 842.967 670.365, 859.132 695.885, 901.385 737.944 C 917.915 754.398, 919.039 755.317, 921.204 754.158 C 922.467 753.481, 928.988 749.007, 935.695 744.214 C 973.980 716.856, 997.843 692.061, 1007.138 669.982 C 1014.475 652.552, 1012.380 638.191, 1000.617 625.286 C 994.643 618.732, 989.440 615.584, 981.015 613.425 C 963.918 609.045, 943.494 619.517, 930.112 639.524 L 925.157 646.933 922.223 640.716 C 916.032 627.597, 905.574 616.759, 894.500 611.986 C 887.818 609.106, 876.985 608.491, 871 610.651 M 531.349 636 C 531.349 640.675, 531.522 642.587, 531.732 640.250 C 531.943 637.913, 531.943 634.087, 531.732 631.750 C 531.522 629.413, 531.349 631.325, 531.349 636" stroke="none" fill="#b1d5ff" fill-rule="evenodd"/><path d="M 837.056 660.771 C 832.722 665.177, 829.714 669.489, 826.942 675.271 C 823.272 682.924, 820.058 694.341, 820.017 699.868 C 820.001 702.069, 819.704 701.939, 815.777 698.012 C 804.614 686.850, 791.450 681.035, 777.288 681.012 C 763.121 680.989, 752.769 687.615, 746.961 700.426 C 731.851 733.750, 753.214 760.002, 819.073 789.040 C 832.511 794.965, 852.802 803, 854.328 803 C 855.040 803, 858.800 798.163, 862.683 792.250 C 875.348 772.964, 884.473 756.389, 891.669 739.597 L 895.055 731.693 887.225 723.597 C 872.120 707.978, 857.684 689.123, 851.316 676.696 C 849.852 673.838, 847.433 667.675, 845.939 663 L 843.225 654.500 837.056 660.771" stroke="none" fill="#ffc7c2" fill-rule="evenodd"/><path d="M 348.925 528.952 C 335.655 530.730, 322.410 536.723, 317.779 543.047 C 314.098 548.071, 311.002 579.186, 310.818 613 C 310.665 641.212, 312.793 654.958, 318.208 660.722 C 320.779 663.458, 325.299 663.674, 336.225 661.584 C 366.487 655.794, 392.120 630.697, 400.115 599.031 C 401.921 591.877, 402.172 588.694, 401.728 578.531 C 400.808 557.458, 394.166 544.283, 379.749 534.930 C 371.598 529.642, 360.230 527.438, 348.925 528.952 M 427 531.159 C 421.867 532.624, 418 536.686, 418 540.616 C 418 548.674, 428.865 550.569, 436.521 543.847 C 444.557 536.792, 437.979 528.026, 427 531.159 M 476.656 560.917 C 464.224 565.012, 455.247 573.633, 454.255 582.430 C 453.802 586.448, 454.074 587.228, 456.923 590.077 C 459.733 592.887, 460.576 593.191, 464.298 592.740 C 466.689 592.450, 471.619 590.405, 475.736 587.994 C 484.313 582.972, 489.831 582.027, 494.986 584.695 C 499.192 586.873, 500.966 590.107, 500.985 595.636 L 501 599.773 496.460 600.454 C 478.659 603.123, 458.486 615.168, 453.067 626.361 C 447.365 638.140, 454.323 655.043, 467.533 661.508 C 475.575 665.443, 489.659 663.066, 500.152 656.003 L 504.500 653.076 505.065 656.288 C 506.211 662.808, 509.792 666.767, 515.359 667.671 C 526.279 669.443, 531 659.537, 531 634.856 C 531 619.718, 529.383 604.874, 526.482 593.379 C 522.114 576.069, 516.475 567.826, 505.241 562.329 C 497.766 558.672, 485.336 558.058, 476.656 560.917 M 426 560.704 C 420.292 562.781, 416.106 571.020, 413.908 584.506 C 412.229 594.804, 412.173 632.922, 413.822 643 C 415.364 652.424, 419.539 661.171, 423.073 662.381 C 429.296 664.511, 435.905 657.602, 438.698 646.046 C 440.442 638.826, 442.315 601.063, 441.501 589.500 C 439.935 567.243, 434.709 557.535, 426 560.704 M 627.095 565.780 C 621.105 572.080, 618.021 585.319, 618.008 604.792 C 617.991 629.430, 625.583 647.747, 638.379 653.942 C 644.147 656.734, 653.837 656.741, 659.587 653.958 C 663.632 652, 670.074 645.851, 674.735 639.500 L 676.937 636.500 676.937 641 C 676.940 653.312, 673.196 671.532, 668.894 680.148 C 664.272 689.405, 659.056 692.291, 651.059 690.016 C 638.655 686.486, 637.457 686.276, 635 687.197 C 630.362 688.934, 628 692.026, 628 696.358 C 628 699.837, 628.634 700.979, 632.788 704.983 C 639.665 711.611, 647.803 714.505, 659.500 714.483 C 667.568 714.467, 669.054 714.160, 673.848 711.520 C 694.125 700.355, 704.228 667.619, 702.697 618.048 C 701.640 583.858, 694.718 564, 683.858 564 C 679.497 564, 677.280 565.541, 674.816 570.283 C 672.918 573.937, 672.535 576.770, 671.949 591.500 C 671.146 611.669, 670.219 615.723, 665.451 619.909 C 659.001 625.572, 649.517 623.409, 647.145 615.734 C 646.596 613.955, 645.938 604.850, 645.683 595.500 C 645.162 576.394, 643.658 569.504, 638.989 564.835 C 634.979 560.825, 631.548 561.098, 627.095 565.780 M 552 563.709 C 549.409 564.662, 546.863 567.358, 544.644 571.500 C 542.568 575.373, 542.508 576.467, 542.764 606 C 543.113 646.259, 544.583 656.824, 550.726 663.236 C 554.374 667.044, 559.620 667.050, 563.260 663.250 C 568.277 658.012, 569.193 653.980, 570.470 631.500 C 571.733 609.270, 572.454 606.027, 577.647 599.219 C 582.887 592.348, 589.792 590.344, 597.346 593.500 C 606.915 597.498, 617 592.799, 617 584.343 C 617 573.536, 607.787 566.044, 594.500 566.044 C 584.397 566.044, 577.137 570.015, 571.284 578.741 C 569.654 581.172, 568.003 580.896, 567.994 578.191 C 567.982 574.289, 565.621 568.467, 562.983 565.829 C 560.212 563.058, 555.988 562.243, 552 563.709 M 345.807 564.627 C 343.502 565.304, 342.207 569.743, 341.029 581 C 339.902 591.766, 339.682 614.399, 340.636 621.360 C 341.197 625.452, 341.563 626, 343.735 626 C 351.073 626, 361.976 615.405, 368.402 602.028 C 371.915 594.719, 372.498 592.571, 372.486 587 C 372.474 581.690, 371.930 579.517, 369.511 575.130 C 365.225 567.353, 361.215 564.633, 353.630 564.355 C 350.258 564.231, 346.738 564.354, 345.807 564.627 M 491.457 621.837 C 482.311 626.199, 477.548 633.148, 481.200 636.800 C 483.328 638.928, 490.191 638.145, 496.798 635.019 L 503.096 632.039 502.798 625.770 C 502.520 619.914, 502.335 619.482, 500 619.228 C 498.625 619.078, 494.781 620.252, 491.457 621.837" stroke="none" fill="#aaadad" fill-rule="evenodd"/><path d="M 671.370 594 C 671.370 599.775, 671.535 602.138, 671.737 599.250 C 671.939 596.362, 671.939 591.638, 671.737 588.750 C 671.535 585.862, 671.370 588.225, 671.370 594 M 617.328 604.500 C 617.333 608.350, 617.513 609.802, 617.730 607.728 C 617.946 605.653, 617.943 602.503, 617.722 600.728 C 617.501 598.952, 617.324 600.650, 617.328 604.500 M 310.343 607.500 C 310.346 611.900, 310.522 613.576, 310.733 611.224 C 310.945 608.872, 310.942 605.272, 310.727 603.224 C 310.512 601.176, 310.339 603.100, 310.343 607.500 M 441.343 616.500 C 441.346 620.900, 441.522 622.576, 441.733 620.224 C 441.945 617.872, 441.942 614.272, 441.727 612.224 C 441.512 610.176, 441.339 612.100, 441.343 616.500 M 703.336 625 C 703.336 629.125, 703.513 630.813, 703.728 628.750 C 703.944 626.688, 703.944 623.313, 703.728 621.250 C 703.513 619.188, 703.336 620.875, 703.336 625 M 570.328 637.500 C 570.333 641.350, 570.513 642.802, 570.730 640.728 C 570.946 638.653, 570.943 635.503, 570.722 633.728 C 570.501 631.952, 570.324 633.650, 570.328 637.500" stroke="none" fill="#afbac8" fill-rule="evenodd"/><path d="M 465 333.696 C 432.936 335.491, 404.225 351.486, 384.580 378.500 C 378.859 386.366, 376.386 390.819, 372.362 400.500 C 369.791 406.685, 368.635 408.428, 367.268 408.182 C 356.725 406.285, 350.417 405.865, 338.500 406.268 C 324.658 406.736, 322.179 407.201, 307 412.181 C 286.798 418.810, 266.108 435.120, 253.189 454.601 C 250.363 458.863, 247.896 462.812, 247.708 463.376 C 247.477 464.068, 244.780 464.008, 239.433 463.194 C 220.420 460.300, 198.533 463.606, 180 472.170 C 154.101 484.139, 133.372 507.095, 123.068 535.222 C 122.476 536.839, 121.143 538.117, 119.785 538.369 C 98.181 542.386, 89.224 545.788, 74.554 555.550 C 50.195 571.759, 34.758 594.768, 27.960 625 C 26.127 633.151, 25.898 636.560, 26.345 649 C 27.030 668.071, 30.148 680.351, 38.252 695.891 C 48.809 716.137, 65.152 732.239, 85.820 742.759 C 92.736 746.280, 97.631 748.045, 112 752.199 C 114.930 753.046, 122.607 753.500, 134 753.500 C 154.638 753.500, 159.238 752.622, 177.211 745.253 L 180.922 743.731 185.711 748.314 C 195.864 758.028, 202.927 762.519, 223.258 772.191 C 225.503 773.259, 235.889 775.872, 243 777.158 C 251.304 778.660, 278.217 777.663, 285.858 775.570 C 294.974 773.074, 303.792 769.625, 311.449 765.563 C 318.334 761.911, 331.105 752.751, 334.420 749.088 C 336.387 746.915, 338.919 746.399, 340.550 747.838 C 343.542 750.478, 361.650 755.171, 375.456 756.885 C 380.251 757.480, 380.466 757.647, 382.036 762 C 390.597 785.737, 409.963 807.680, 433.015 819.765 C 450.184 828.766, 462.325 831.518, 484.500 831.439 C 502.255 831.376, 507.959 830.415, 521.773 825.161 C 541.010 817.845, 561.820 801.361, 572.526 784.959 C 575.025 781.132, 577.541 778, 578.116 778 C 578.692 778, 581.714 779.481, 584.832 781.290 C 591.866 785.374, 598.779 788.235, 608.773 791.202 C 615.702 793.258, 618.565 793.495, 636.500 793.498 C 654.500 793.500, 657.250 793.271, 664 791.210 C 672.853 788.506, 673.044 788.430, 684 783.201 C 688.675 780.971, 695.875 776.635, 700 773.566 L 707.500 767.987 708.889 771.243 C 713.389 781.797, 719.918 793.912, 724.011 799.302 C 729.962 807.140, 742.788 819.372, 750.180 824.258 C 770.086 837.419, 785.649 842, 810.457 842 C 830.992 842, 839.489 840.284, 857.500 832.498 C 863.086 830.083, 873.360 823.299, 880.706 817.174 C 884.120 814.328, 887.602 812, 888.445 812 C 892.802 812, 906.782 807.249, 916.617 802.427 C 932.115 794.827, 944.741 784.849, 954.485 772.500 C 956.655 769.750, 958.497 767.374, 958.579 767.220 C 958.660 767.066, 961.376 766.516, 964.614 765.998 C 989.674 761.987, 1016.043 745.424, 1032.155 723.573 C 1040.859 711.768, 1045.252 702.127, 1051.323 681.500 C 1052.034 679.083, 1052.500 670.376, 1052.500 659.500 C 1052.500 640.209, 1051.471 634.235, 1045.538 619.096 C 1036.012 594.789, 1016.530 573.746, 992.346 561.643 C 972.026 551.473, 943.847 548.309, 920.750 553.603 C 918.464 554.127, 918 553.899, 918 552.254 C 918 547.469, 911.993 527.436, 908.998 522.232 C 908.449 521.279, 907.546 519.375, 906.990 518 C 903.413 509.157, 889.793 492.425, 879.603 484.357 C 865.279 473.015, 855.423 467.894, 838.052 462.763 C 831.379 460.792, 828.229 460.531, 811 460.522 C 792.574 460.512, 790.989 460.664, 782.217 463.283 C 777.111 464.808, 770.404 467.173, 767.313 468.540 C 764.222 469.907, 761.609 470.908, 761.508 470.763 C 761.406 470.618, 760.774 465.325, 760.104 459 C 757.194 431.552, 747.114 410.092, 728.365 391.430 C 712.765 375.903, 693.621 365.800, 672.115 361.749 C 663.598 360.145, 641.402 360.145, 632.885 361.749 C 612.484 365.592, 594.312 374.819, 578.339 389.443 C 574.400 393.050, 570.961 396, 570.697 396 C 570.433 396, 569.957 394.965, 569.639 393.699 C 568.845 390.534, 558.985 375.975, 552.891 368.968 C 550.129 365.793, 545.376 361.238, 542.328 358.847 C 539.281 356.456, 536.273 354.030, 535.644 353.456 C 534.103 352.049, 523.507 345.736, 518.271 343.105 C 505.321 336.600, 483.135 332.680, 465 333.696 M 341.500 529.892 C 328.831 533.049, 319.436 538.322, 316.556 543.892 C 313.361 550.071, 309.983 587.936, 310.034 617 C 310.076 640.623, 312.496 654.977, 317.397 660.675 C 319.596 663.232, 320.229 663.403, 326.629 663.170 C 347.336 662.417, 368.690 651.189, 383.556 633.238 C 389.937 625.533, 398.195 609.551, 400.730 600 C 403.035 591.315, 403.022 572.851, 400.706 564.207 C 396.987 550.330, 388.134 538.176, 377.955 532.972 C 367.774 527.768, 354.518 526.648, 341.500 529.892 M 424.500 531.403 C 417.672 534.417, 415.265 540.871, 419.244 545.498 C 421.270 547.852, 422.427 548.310, 426.208 548.253 C 433.706 548.140, 439.416 544.171, 440.600 538.251 C 441.937 531.563, 432.872 527.707, 424.500 531.403 M 479.251 559.545 C 471.965 561.507, 466.570 564.434, 461.324 569.269 C 455.734 574.422, 453.951 577.814, 453.836 583.517 C 453.734 588.609, 455.104 590.726, 459.758 592.672 C 463.948 594.423, 466.872 593.675, 475.355 588.682 C 483.536 583.867, 491.265 582.633, 495.572 585.455 C 498.413 587.317, 501 592.531, 501 596.397 C 501 598.589, 500.371 598.988, 495.250 600.047 C 476.282 603.967, 459.784 613.688, 453.288 624.771 C 449.512 631.215, 449.474 640.400, 453.195 647.540 C 456.197 653.302, 463.521 660.484, 468.528 662.576 C 476.118 665.748, 490.596 663.161, 499.403 657.060 L 503.437 654.265 505.469 659.289 C 508.094 665.783, 511.520 668.333, 517.618 668.333 C 521.620 668.333, 522.728 667.869, 525.122 665.190 C 530.215 659.489, 531.491 652.738, 531.300 632.500 C 530.872 587.081, 520.714 564.672, 498.147 559.360 C 491.062 557.693, 485.944 557.743, 479.251 559.545 M 423.238 561.546 C 419.949 563.849, 416.295 570.702, 414.455 578.014 C 412.292 586.614, 411.268 626.912, 412.902 639.187 C 415.206 656.505, 418.672 663, 425.607 663 C 428.604 663, 430.010 662.264, 432.985 659.137 C 439.981 651.782, 442.420 635.429, 441.769 600.227 C 441.406 580.532, 441.069 576.652, 439.245 571.139 C 436.553 563.001, 433.806 560, 429.048 560 C 427.066 560, 424.452 560.696, 423.238 561.546 M 551.396 563.382 C 549.689 564.151, 547.389 566.067, 546.285 567.640 C 541.875 573.923, 541.484 577.074, 541.779 604 C 542.205 642.938, 543.960 656.233, 549.552 662.879 C 555.891 670.413, 565.462 666.116, 569.065 654.118 C 569.663 652.128, 570.508 641.722, 570.943 630.994 C 571.858 608.433, 573.142 603.889, 580.523 597.085 C 586.108 591.937, 589.949 591.221, 597.019 594.008 C 603.970 596.747, 609.619 596.093, 613.952 592.045 C 616.628 589.545, 617 588.533, 617 583.747 C 617 572.809, 607.493 565.023, 594.116 565.006 C 586.302 564.996, 581.948 566.968, 575.358 573.506 L 569.216 579.599 567.625 573.874 C 566.750 570.726, 565.013 566.976, 563.767 565.541 C 561.010 562.369, 555.701 561.442, 551.396 563.382 M 626.101 565.694 C 622.229 570.391, 620.282 576.077, 618.462 588 C 616.639 599.944, 616.622 609.156, 618.405 620 C 621.826 640.808, 630.398 653.155, 643.452 656.077 C 654.317 658.508, 663.120 654.780, 671.634 644.140 C 674.284 640.828, 676.507 638.204, 676.574 638.309 C 676.641 638.414, 676.328 642.550, 675.879 647.500 C 674.058 667.591, 669.647 681.468, 663.317 687.027 C 659.164 690.673, 653.578 690.987, 646 688 C 639.443 685.415, 636.070 685.476, 631.975 688.250 C 623.211 694.188, 627.058 704.598, 640.351 710.917 C 652.015 716.462, 663.901 716.958, 673.795 712.311 C 683.444 707.780, 692.586 694.361, 697.443 677.599 C 705.957 648.222, 705.796 599.908, 697.109 577.046 C 692.956 566.116, 686.611 561.465, 679.758 564.328 C 673.609 566.897, 671 575.912, 671 594.587 C 671 609.059, 669.717 615.129, 665.839 619.008 C 663.251 621.595, 662.112 622, 657.423 622 C 651.521 622, 648.461 620.063, 647.587 615.775 C 647.332 614.524, 646.890 606.075, 646.606 597 C 646.036 578.795, 644.426 570.559, 640.407 565.289 C 638.244 562.454, 637.295 562, 633.522 562 C 629.693 562, 628.765 562.462, 626.101 565.694 M 346.796 565.147 C 343.643 566.300, 343.319 567.109, 342.030 577.042 C 340.807 586.464, 340.730 623.025, 341.929 624.919 C 343.500 627.402, 351.447 623.519, 357.609 617.258 C 368.139 606.559, 374.274 589.421, 371.061 579.685 C 367.273 568.207, 356.339 561.656, 346.796 565.147 M 871 610.651 C 864.681 612.933, 857.959 618.073, 853.161 624.292 C 847.287 631.906, 844.756 638.263, 844.204 646.792 L 843.732 654.083 837.363 660.452 C 832.722 665.093, 829.908 669.084, 826.995 675.161 C 823.280 682.908, 820.058 694.316, 820.017 699.868 C 820.001 702.069, 819.704 701.939, 815.777 698.012 C 804.614 686.850, 791.450 681.035, 777.288 681.012 C 763.121 680.989, 752.769 687.615, 746.961 700.426 C 731.851 733.750, 753.214 760.002, 819.073 789.040 C 832.511 794.965, 852.802 803, 854.328 803 C 855.738 803, 866.483 787.107, 875.284 772 C 881.121 761.983, 889.038 746.192, 892.810 737.045 L 895.059 731.590 906.987 743.487 C 920.873 757.337, 917.452 757.250, 935.695 744.214 C 973.980 716.856, 997.843 692.061, 1007.138 669.982 C 1014.475 652.552, 1012.380 638.191, 1000.617 625.286 C 994.643 618.732, 989.440 615.584, 981.015 613.425 C 963.918 609.045, 943.494 619.517, 930.112 639.524 L 925.157 646.933 922.223 640.716 C 916.032 627.597, 905.574 616.759, 894.500 611.986 C 887.818 609.106, 876.985 608.491, 871 610.651 M 492 622.079 C 485.778 624.892, 481 629.705, 481 633.161 C 481 638.722, 487.661 639.232, 497.195 634.401 L 502 631.966 502 625.983 C 502 620.117, 501.946 620, 499.250 620.022 C 497.738 620.034, 494.475 620.960, 492 622.079" stroke="none" fill="#fbfbfb" fill-rule="evenodd"/></svg>