<svg xmlns="http://www.w3.org/2000/svg" width="1080" height="1080" viewBox="0 0 1080 1080" version="1.1"><path d="M 70.773 291.555 C 53.661 295.703, 40.302 308.120, 34.565 325.213 L 32 332.853 32 557.500 L 32 782.147 34.540 789.715 C 37.579 798.767, 42.541 806.545, 48.778 812.036 C 54.507 817.079, 65.811 822.689, 72.886 824.001 C 76.423 824.657, 235.790 825, 536.926 825 C 945.545 825, 996.221 824.833, 1001.458 823.469 C 1019.494 818.771, 1033.842 804.507, 1038.643 786.500 C 1039.735 782.405, 1039.978 740.903, 1039.988 557.176 L 1040 332.853 1037.460 325.285 C 1032.963 311.891, 1025.210 302.588, 1013.213 296.194 C 1000.555 289.448, 1043.025 289.991, 536.040 290.083 C 147.608 290.154, 75.614 290.381, 70.773 291.555 M 166.206 369.557 C 149.031 374.180, 135.057 387.363, 130.009 403.705 C 128.035 410.099, 128 412.788, 128.012 559.855 C 128.022 681.354, 128.274 710.440, 129.357 714.500 C 134.452 733.610, 151.050 748.901, 170 751.942 C 174.428 752.652, 293.032 752.982, 542 752.975 C 855.638 752.967, 908.461 752.762, 914.270 751.531 C 934.152 747.318, 950.625 730.160, 953.954 710.199 C 954.750 705.422, 954.989 661.324, 954.785 556.500 L 954.500 409.500 952.172 403 C 945.951 385.627, 931.569 372.795, 914.201 369.121 C 910.338 368.304, 808.964 368.018, 540.201 368.066 C 224.382 368.122, 170.741 368.336, 166.206 369.557" stroke="none" fill="#ffffff" fill-rule="evenodd"/><path d="M 165 370.888 C 147.610 376.517, 134.894 389.306, 130.369 405.721 C 128.583 412.200, 128.500 419.047, 128.500 560.500 C 128.500 676.729, 128.772 709.521, 129.766 713.257 C 134.699 731.792, 150.568 747.093, 168.799 750.895 C 175.876 752.371, 905.166 752.475, 913.114 751.001 C 921.720 749.405, 932.731 743.449, 939.135 736.925 C 945.437 730.504, 951.255 719.904, 952.946 711.761 C 953.715 708.057, 953.959 662.364, 953.769 557.499 L 953.500 408.500 951.108 402.500 C 944.495 385.913, 930.951 373.761, 914.972 370.079 C 911.944 369.382, 791.014 369.058, 540.500 369.078 C 188.497 369.106, 170.232 369.194, 165 370.888 M 450.500 479.933 C 429.856 483.321, 416.157 493.145, 407.804 510.552 C 395.852 535.461, 396.560 580.253, 409.288 604.473 C 413.148 611.818, 422.680 621.546, 429.675 625.281 C 447.093 634.579, 477.907 634.579, 495.325 625.281 C 502.610 621.392, 512.146 611.636, 515.867 604.263 C 528.588 579.064, 528.880 533.583, 516.479 508.959 C 509.588 495.274, 497.256 485.430, 482.108 481.521 C 474.669 479.602, 457.712 478.750, 450.500 479.933 M 274.685 481.897 C 269.911 482.910, 266.084 485.718, 263.500 490.105 C 261.566 493.388, 261.491 495.556, 261.230 556 C 260.974 615.416, 261.053 618.673, 262.830 622 C 266.355 628.600, 270.296 629.842, 290.049 630.576 C 335.013 632.247, 356.512 624.596, 368.944 602.500 C 376.928 588.310, 380.658 562.386, 378.099 538.877 C 374.471 505.547, 361.445 489.372, 333.500 483.496 C 324.578 481.620, 281.508 480.449, 274.685 481.897 M 564.273 482.095 C 559.030 483.352, 554.387 487.850, 552.995 493.019 C 552.295 495.617, 552.035 517.541, 552.220 558.216 C 552.491 617.454, 552.567 619.612, 554.500 622.845 C 557.293 627.517, 562.608 630, 569.812 630 C 576.814 630, 581.428 627.424, 584.451 621.825 C 586.336 618.335, 586.361 617.332, 585.192 592.356 C 583.350 553.022, 582.670 532.447, 583.230 533 C 583.509 533.275, 592.999 552.779, 604.320 576.342 C 615.641 599.905, 626.110 620.767, 627.586 622.701 C 631.583 627.943, 636.907 629.952, 646.864 629.978 C 657.220 630.005, 661.954 627.793, 665 621.500 C 666.933 617.507, 667 615.326, 667 556.333 C 667 513.248, 666.664 494.299, 665.858 491.899 C 663.458 484.753, 658.404 481.636, 649.322 481.703 C 641.607 481.759, 637.070 484.300, 634.497 490.007 C 632.794 493.783, 632.751 495.433, 633.835 515.274 C 635.921 553.435, 636.278 562.508, 635.670 561.953 C 635.341 561.652, 627.632 545.946, 618.539 527.051 C 609.446 508.157, 600.854 491.186, 599.445 489.339 C 595.180 483.747, 590.082 481.815, 578.560 481.423 C 573.027 481.235, 566.598 481.537, 564.273 482.095 M 710.806 482.363 C 704.951 483.984, 703.161 485.448, 700.863 490.500 C 699.167 494.229, 699.044 498.665, 699.044 556 C 699.044 614.319, 699.142 617.717, 700.947 621.691 C 702.294 624.659, 704.028 626.484, 706.885 627.941 C 710.739 629.908, 712.547 630, 747.210 629.998 C 779.784 629.997, 783.851 629.818, 786.929 628.248 C 791.562 625.886, 794.130 622.106, 794.665 616.864 C 795.288 610.741, 792.688 606.099, 787.038 603.250 C 782.818 601.122, 781.394 601, 760.788 601 L 739 601 739 586.250 L 739 571.500 756.250 571.500 C 775.533 571.500, 778.347 570.758, 782.040 564.701 C 786.186 557.903, 783.648 548.037, 776.794 544.302 C 774.070 542.817, 770.517 542.449, 756.250 542.171 L 739 541.835 739 526.487 L 739 511.140 760.750 510.820 C 778.915 510.553, 783.011 510.220, 785.602 508.801 C 790.273 506.242, 792.404 502.326, 792.417 496.275 C 792.430 490.282, 790.317 486.694, 784.895 483.500 C 781.708 481.622, 779.482 481.487, 748.500 481.281 C 723.922 481.118, 714.302 481.394, 710.806 482.363 M 453.405 510.904 C 445.080 514.684, 442.108 523.918, 441.301 548.500 C 440.700 566.824, 441.922 582.507, 444.550 590.205 C 446.731 596.591, 452.405 601.638, 458.415 602.540 C 467.892 603.961, 475.541 600.645, 478.929 593.647 C 482.578 586.110, 483.447 578.664, 483.441 555 C 483.435 530.858, 482.382 523.591, 477.823 516.214 C 475.149 511.887, 469.074 509.044, 462.500 509.044 C 459.750 509.044, 455.657 509.881, 453.405 510.904 M 301.662 531.567 C 300.828 556.465, 300.826 577.712, 301.656 590.250 L 302.302 600 307.992 600 C 318.638 600, 327.032 596.105, 331.391 589.143 C 336.225 581.422, 337.248 576.474, 337.724 558.500 C 338.645 523.757, 332.435 513.013, 310.942 512.157 L 302.323 511.813 301.662 531.567" stroke="none" fill="#b1d5ff" fill-rule="evenodd"/><path d="M 458.776 479.733 C 461.128 479.945, 464.728 479.942, 466.776 479.727 C 468.824 479.512, 466.900 479.339, 462.500 479.343 C 458.100 479.346, 456.424 479.522, 458.776 479.733 M 287.302 481.746 C 292.693 481.926, 301.243 481.925, 306.302 481.744 C 311.361 481.563, 306.950 481.416, 296.500 481.417 C 286.050 481.418, 281.911 481.566, 287.302 481.746 M 571.750 481.732 C 574.087 481.943, 577.913 481.943, 580.250 481.732 C 582.587 481.522, 580.675 481.349, 576 481.349 C 571.325 481.349, 569.413 481.522, 571.750 481.732 M 730.250 481.748 C 738.913 481.915, 753.087 481.915, 761.750 481.748 C 770.413 481.582, 763.325 481.445, 746 481.445 C 728.675 481.445, 721.587 481.582, 730.250 481.748 M 552.466 556 C 552.466 585.975, 552.594 598.237, 552.749 583.250 C 552.905 568.262, 552.905 543.737, 552.749 528.750 C 552.594 513.762, 552.466 526.025, 552.466 556 M 744.250 510.739 C 747.413 510.937, 752.587 510.937, 755.750 510.739 C 758.913 510.541, 756.325 510.378, 750 510.378 C 743.675 510.378, 741.087 510.541, 744.250 510.739 M 301.218 524.750 L 301.437 538.500 301.747 525.297 L 302.057 512.094 308.279 511.740 L 314.500 511.385 307.750 511.193 L 301 511 301.218 524.750 M 746.750 542.744 C 751.288 542.929, 758.712 542.929, 763.250 542.744 C 767.788 542.559, 764.075 542.407, 755 542.407 C 745.925 542.407, 742.212 542.559, 746.750 542.744 M 378.378 554 C 378.378 560.325, 378.541 562.913, 378.739 559.750 C 378.937 556.587, 378.937 551.413, 378.739 548.250 C 378.541 545.087, 378.378 547.675, 378.378 554 M 338.378 555 C 338.378 561.325, 338.541 563.913, 338.739 560.750 C 338.937 557.587, 338.937 552.413, 338.739 549.250 C 338.541 546.087, 338.378 548.675, 338.378 555 M 399.365 555.500 C 399.368 561, 399.536 563.122, 399.738 560.216 C 399.941 557.311, 399.939 552.811, 399.734 550.216 C 399.528 547.622, 399.363 550, 399.365 555.500 M 525.336 556 C 525.336 560.125, 525.513 561.813, 525.728 559.750 C 525.944 557.688, 525.944 554.313, 525.728 552.250 C 525.513 550.188, 525.336 551.875, 525.336 556 M 583.320 560 C 583.320 563.575, 583.502 565.038, 583.723 563.250 C 583.945 561.462, 583.945 558.538, 583.723 556.750 C 583.502 554.962, 583.320 556.425, 583.320 560 M 750.250 571.742 C 753.962 571.934, 760.038 571.934, 763.750 571.742 C 767.462 571.549, 764.425 571.392, 757 571.392 C 749.575 571.392, 746.538 571.549, 750.250 571.742 M 301.328 593.500 C 301.333 597.350, 301.513 598.802, 301.730 596.728 C 301.946 594.653, 301.943 591.503, 301.722 589.728 C 301.501 587.952, 301.324 589.650, 301.328 593.500 M 292.750 630.743 C 296.738 630.932, 303.262 630.932, 307.250 630.743 C 311.238 630.553, 307.975 630.397, 300 630.397 C 292.025 630.397, 288.762 630.553, 292.750 630.743" stroke="none" fill="#b4d4fc" fill-rule="evenodd"/><path d="M 355.750 368.750 C 457.638 368.890, 624.363 368.890, 726.250 368.750 C 828.138 368.610, 744.775 368.495, 541 368.495 C 337.225 368.495, 253.863 368.610, 355.750 368.750 M 954.487 561 C 954.487 641.575, 954.605 674.538, 954.750 634.250 C 954.895 593.963, 954.895 528.038, 954.750 487.750 C 954.605 447.463, 954.487 480.425, 954.487 561 M 445 481.560 C 428.885 485.034, 416.085 494.917, 408.983 509.369 C 402.719 522.118, 400.897 530.745, 400.273 550.616 C 399.284 582.043, 404.423 600.827, 417.971 615.309 C 428.406 626.465, 443.174 632, 462.500 632 C 481.873 632, 496.523 626.541, 506.891 615.458 C 518.754 602.775, 523.820 587.586, 524.717 562 C 525.543 538.468, 523.140 523.956, 516.002 509.372 C 508.791 494.637, 496.174 485.005, 479.500 481.504 C 470.790 479.676, 453.613 479.703, 445 481.560 M 270.424 483.969 C 267.831 485.284, 265.465 487.577, 263.924 490.269 L 261.500 494.500 261.194 554.500 C 260.974 597.852, 261.211 615.656, 262.050 618.664 C 263.476 623.774, 267.191 627.430, 272.563 629.010 C 278.803 630.845, 325.488 629.772, 333.912 627.601 C 355.603 622.009, 368.804 608.487, 375.213 585.296 C 377.112 578.425, 377.375 574.830, 377.434 555 C 377.502 531.814, 377.004 527.571, 372.871 516.117 C 366.981 499.794, 355.668 489.834, 337.314 484.813 C 330.431 482.930, 326.225 482.630, 302 482.288 C 275.764 481.919, 274.313 481.996, 270.424 483.969 M 560.962 484.250 C 552.585 488.474, 552.953 485.175, 552.953 556 C 552.953 626.825, 552.585 623.526, 560.962 627.750 C 569.168 631.888, 580.074 629.521, 583.642 622.829 C 585.840 618.704, 585.907 613.538, 584.240 576.500 C 582.581 539.630, 582.368 530.956, 583.146 531.800 C 583.501 532.185, 593.357 552.422, 605.048 576.771 C 622.506 613.130, 626.980 621.652, 630.082 624.455 C 639.574 633.031, 658.899 631.652, 664.477 622 C 666.435 618.612, 666.510 616.600, 666.816 559 C 667.033 518.204, 666.785 497.897, 666.028 494.401 C 664.274 486.297, 658.512 482, 649.403 482 C 643.767 482, 638.625 484.117, 636.543 487.294 C 633.352 492.164, 632.952 496.037, 634.043 511.500 C 635.571 533.171, 636.618 564.021, 635.797 563.198 C 635.410 562.811, 627.403 546.524, 618.003 527.005 C 608.602 507.487, 599.694 490.219, 598.206 488.632 C 593.338 483.443, 588.744 482.046, 576.462 482.022 C 566.977 482.003, 564.796 482.317, 560.962 484.250 M 708.415 483.421 C 704.505 485.124, 701.298 489.181, 699.973 494.099 C 699.301 496.596, 699.038 518.985, 699.220 558.218 C 699.491 616.638, 699.562 618.608, 701.523 622 C 702.721 624.073, 705.356 626.418, 707.985 627.750 C 712.330 629.953, 713.139 630, 746.462 629.994 C 766.485 629.991, 782.010 629.569, 784.168 628.970 C 786.225 628.399, 789.189 626.410, 790.918 624.441 C 793.551 621.441, 794 620.140, 794 615.500 C 794 610.872, 793.549 609.556, 790.949 606.595 C 786.526 601.557, 781.392 600.701, 758.211 601.139 L 739 601.502 739 586.251 L 739 571 755.750 570.998 C 774.141 570.997, 777.370 570.212, 781.355 564.775 C 784.152 560.960, 784.189 553.091, 781.429 549.325 C 777.364 543.780, 774.209 543.003, 755.750 543.002 L 739 543 739 526.479 L 739 509.958 760.250 510.229 C 779.140 510.470, 781.866 510.300, 784.794 508.701 C 789.229 506.280, 791.992 501.485, 791.996 496.200 C 792.002 490.143, 789.647 486.197, 784.684 483.943 C 780.830 482.194, 777.778 482.045, 746 482.061 C 719.353 482.074, 710.798 482.384, 708.415 483.421 M 451.922 511.274 C 442.995 517.289, 441.500 523.779, 441.500 556.500 C 441.500 579.508, 441.676 582.060, 443.710 588.525 C 447.065 599.188, 452.014 603, 462.500 603 C 472.986 603, 477.935 599.188, 481.290 588.525 C 483.324 582.060, 483.500 579.508, 483.500 556.500 C 483.500 529.716, 482.651 522.746, 478.668 516.835 C 474.717 510.973, 470.647 509, 462.500 509 C 456.663 509, 454.656 509.431, 451.922 511.274 M 301 555.471 L 301 600.239 310.250 599.808 C 320.393 599.335, 323.706 598.104, 328.771 592.923 C 336.021 585.508, 338.507 575.668, 338.479 554.500 C 338.437 522.094, 332.234 512.727, 309.854 511.278 L 301 510.704 301 555.471 M 357.169 752.750 C 458.186 752.890, 623.786 752.890, 725.169 752.750 C 826.551 752.610, 743.900 752.495, 541.500 752.495 C 339.100 752.495, 256.151 752.610, 357.169 752.750" stroke="none" fill="#fbfbfa" fill-rule="evenodd"/></svg>